G04*
G04 #@! TF.GenerationSoftware,Altium Limited,Altium Designer,24.0.1 (36)*
G04*
G04 Layer_Color=255*
%FSLAX44Y44*%
%MOMM*%
G71*
G04*
G04 #@! TF.SameCoordinates,516FB9ED-FB34-4965-85CA-DC03E0874189*
G04*
G04*
G04 #@! TF.FilePolarity,Positive*
G04*
G01*
G75*
%ADD15R,1.0500X1.0000*%
%ADD16R,0.4000X0.3000*%
%ADD17R,0.3800X0.4300*%
%ADD18R,0.3500X0.5000*%
%ADD19R,1.0000X0.9500*%
%ADD20R,1.2100X0.7300*%
%ADD21R,3.0000X1.6000*%
%ADD22R,6.7000X6.7000*%
%ADD41R,2.4500X1.9800*%
%ADD44C,1.5240*%
%ADD45C,2.4000*%
%ADD46C,2.2400*%
%ADD47R,2.2400X2.2400*%
%ADD48C,1.8600*%
%ADD49C,0.4524*%
%ADD50C,5.0800*%
%ADD62R,0.5000X2.0000*%
D15*
X233300Y-68580D02*
D03*
X249300D02*
D03*
D16*
X136750Y33050D02*
D03*
X130250D02*
D03*
X117250D02*
D03*
X123750D02*
D03*
D17*
X141150Y48050D02*
D03*
X112850D02*
D03*
D18*
X136750Y62050D02*
D03*
X117250D02*
D03*
X130250D02*
D03*
X123750D02*
D03*
D19*
X233300Y-53340D02*
D03*
X249300D02*
D03*
D20*
X234660Y-35560D02*
D03*
X268260D02*
D03*
D21*
X205500Y10160D02*
D03*
Y-35560D02*
D03*
D22*
X127000Y-12700D02*
D03*
D41*
Y44450D02*
D03*
D44*
X330200Y-44450D02*
D03*
X-330200D02*
D03*
Y44450D02*
D03*
X266700Y-107950D02*
D03*
X-266700D02*
D03*
X330200Y44450D02*
D03*
X234950Y107950D02*
D03*
X-234950D02*
D03*
X-147320Y-203200D02*
D03*
X-172720D02*
D03*
X157480D02*
D03*
X132080D02*
D03*
X330200Y-260350D02*
D03*
Y-171450D02*
D03*
X25400Y-184150D02*
D03*
X-25400D02*
D03*
D45*
X-59400Y-130950D02*
D03*
X-25400D02*
D03*
X-59400Y-31750D02*
D03*
X-25400D02*
D03*
X59400Y-34150D02*
D03*
X25400D02*
D03*
X59400Y-133350D02*
D03*
X25400D02*
D03*
D46*
X171450Y-107950D02*
D03*
X-133350D02*
D03*
D47*
X131850D02*
D03*
X-172950D02*
D03*
D48*
X121050Y-73950D02*
D03*
X-183750D02*
D03*
D49*
X-231140Y2540D02*
D03*
Y17780D02*
D03*
X-243840Y2540D02*
D03*
Y17780D02*
D03*
X231140Y2540D02*
D03*
X243840D02*
D03*
Y17780D02*
D03*
X231140D02*
D03*
D50*
X330200Y107950D02*
D03*
X-330200D02*
D03*
Y-107950D02*
D03*
Y-323850D02*
D03*
X330200D02*
D03*
Y-107950D02*
D03*
D62*
X156000Y-295050D02*
D03*
Y-251050D02*
D03*
X148000Y-295050D02*
D03*
Y-251050D02*
D03*
X140000Y-295050D02*
D03*
Y-251050D02*
D03*
X132000Y-295050D02*
D03*
Y-251050D02*
D03*
X124000Y-295050D02*
D03*
Y-251050D02*
D03*
X116000Y-295050D02*
D03*
Y-251050D02*
D03*
X108000Y-295050D02*
D03*
Y-251050D02*
D03*
X100000Y-295050D02*
D03*
Y-251050D02*
D03*
X92000Y-295050D02*
D03*
Y-251050D02*
D03*
X84000Y-295050D02*
D03*
Y-251050D02*
D03*
X76000Y-295050D02*
D03*
Y-251050D02*
D03*
X68000Y-295050D02*
D03*
Y-251050D02*
D03*
X60000Y-295050D02*
D03*
Y-251050D02*
D03*
X52000Y-295050D02*
D03*
Y-251050D02*
D03*
X44000Y-295050D02*
D03*
Y-251050D02*
D03*
X36000Y-295050D02*
D03*
Y-251050D02*
D03*
X28000Y-295050D02*
D03*
Y-251050D02*
D03*
X20000Y-295050D02*
D03*
Y-251050D02*
D03*
X12000Y-295050D02*
D03*
Y-251050D02*
D03*
X4000Y-295050D02*
D03*
Y-251050D02*
D03*
X-4000Y-295050D02*
D03*
Y-251050D02*
D03*
X-12000Y-295050D02*
D03*
Y-251050D02*
D03*
X-20000Y-295050D02*
D03*
Y-251050D02*
D03*
X-28000Y-295050D02*
D03*
Y-251050D02*
D03*
X-36000Y-295050D02*
D03*
Y-251050D02*
D03*
X-44000Y-295050D02*
D03*
Y-251050D02*
D03*
X-52000Y-295050D02*
D03*
Y-251050D02*
D03*
X-60000Y-295050D02*
D03*
Y-251050D02*
D03*
X-68000Y-295050D02*
D03*
Y-251050D02*
D03*
X-76000Y-295050D02*
D03*
Y-251050D02*
D03*
X-84000Y-295050D02*
D03*
Y-251050D02*
D03*
X-92000Y-295050D02*
D03*
Y-251050D02*
D03*
X-100000Y-295050D02*
D03*
Y-251050D02*
D03*
X-108000Y-295050D02*
D03*
Y-251050D02*
D03*
X-116000Y-295050D02*
D03*
Y-251050D02*
D03*
X-124000Y-295050D02*
D03*
Y-251050D02*
D03*
X-132000Y-295050D02*
D03*
Y-251050D02*
D03*
X-140000Y-295050D02*
D03*
Y-251050D02*
D03*
X-148000Y-295050D02*
D03*
Y-251050D02*
D03*
X-156000Y-295050D02*
D03*
Y-251050D02*
D03*
M02*
