G04*
G04 #@! TF.GenerationSoftware,Altium Limited,Altium Designer,24.0.1 (36)*
G04*
G04 Layer_Color=8388736*
%FSLAX44Y44*%
%MOMM*%
G71*
G04*
G04 #@! TF.SameCoordinates,516FB9ED-FB34-4965-85CA-DC03E0874189*
G04*
G04*
G04 #@! TF.FilePolarity,Negative*
G04*
G01*
G75*
%ADD23R,0.9500X0.9500*%
%ADD24R,1.2000X1.1500*%
%ADD25R,0.5500X0.4500*%
%ADD26R,2.6000X2.1300*%
%ADD27R,0.5300X0.5800*%
%ADD28R,0.5000X0.6500*%
%ADD29R,1.1500X1.1000*%
%ADD30R,1.3600X0.8800*%
%ADD31R,3.1500X1.7500*%
%ADD32R,6.8500X6.8500*%
%ADD33C,1.6740*%
%ADD34C,2.5500*%
%ADD35C,2.3900*%
%ADD36R,2.3900X2.3900*%
%ADD37C,2.0100*%
%ADD38C,0.6024*%
%ADD39C,5.2300*%
%ADD40C,0.6072*%
D23*
X-217117Y-284279D02*
D03*
X-233617D02*
D03*
X216996Y-284350D02*
D03*
X233496D02*
D03*
D24*
X-217367Y-299519D02*
D03*
X-233367D02*
D03*
X217246Y-299590D02*
D03*
X233246D02*
D03*
X-233300Y-68580D02*
D03*
X-249300D02*
D03*
D25*
X-136750Y33050D02*
D03*
X-130250D02*
D03*
X-117250D02*
D03*
X-123750D02*
D03*
D26*
X-127000Y44450D02*
D03*
D27*
X-141150Y48050D02*
D03*
X-112850D02*
D03*
D28*
X-136750Y62050D02*
D03*
X-117250Y62050D02*
D03*
X-130250D02*
D03*
X-123750Y62050D02*
D03*
D29*
X-233300Y-53340D02*
D03*
X-249300D02*
D03*
D30*
X-234660Y-35560D02*
D03*
X-268260D02*
D03*
D31*
X-205500Y10160D02*
D03*
Y-35560D02*
D03*
D32*
X-127000Y-12700D02*
D03*
D33*
X330200Y-44450D02*
D03*
X-330200D02*
D03*
Y44450D02*
D03*
X266700Y-107950D02*
D03*
X-266700D02*
D03*
X330200Y44450D02*
D03*
X234950Y107950D02*
D03*
X-234950D02*
D03*
X-147320Y-203200D02*
D03*
X-172720D02*
D03*
X157480D02*
D03*
X132080D02*
D03*
X330200Y-260350D02*
D03*
Y-171450D02*
D03*
X25400Y-184150D02*
D03*
X-25400D02*
D03*
D34*
X-59400Y-130950D02*
D03*
X-25400D02*
D03*
X-59400Y-31750D02*
D03*
X-25400D02*
D03*
X59400Y-34150D02*
D03*
X25400D02*
D03*
X59400Y-133350D02*
D03*
X25400D02*
D03*
D35*
X171450Y-107950D02*
D03*
X-133350D02*
D03*
D36*
X131850D02*
D03*
X-172950D02*
D03*
D37*
X121050Y-73950D02*
D03*
X-183750D02*
D03*
D38*
X-231140Y2540D02*
D03*
Y17780D02*
D03*
X-243840Y2540D02*
D03*
Y17780D02*
D03*
X231140Y2540D02*
D03*
X243840D02*
D03*
Y17780D02*
D03*
X231140D02*
D03*
D39*
X330200Y107950D02*
D03*
X-330200D02*
D03*
Y-107950D02*
D03*
Y-323850D02*
D03*
X330200D02*
D03*
Y-107950D02*
D03*
D40*
X266700Y82550D02*
D03*
X298450Y19050D02*
D03*
X266700Y-44450D02*
D03*
X298450Y-107950D02*
D03*
X266700Y-171450D02*
D03*
X298450Y-234950D02*
D03*
X266700Y-298450D02*
D03*
X203200Y82550D02*
D03*
X234950Y-107950D02*
D03*
X203200Y-171450D02*
D03*
X234950Y-234950D02*
D03*
X203200Y-298450D02*
D03*
X139700Y82550D02*
D03*
X171450Y19050D02*
D03*
Y-234950D02*
D03*
X76200Y82550D02*
D03*
Y-171450D02*
D03*
X12700Y82550D02*
D03*
X44450Y19050D02*
D03*
Y-107950D02*
D03*
Y-234950D02*
D03*
X-50800Y82550D02*
D03*
X-19050Y19050D02*
D03*
Y-107950D02*
D03*
X-50800Y-171450D02*
D03*
X-114300Y82550D02*
D03*
X-82550Y19050D02*
D03*
Y-107950D02*
D03*
X-114300Y-171450D02*
D03*
X-82550Y-234950D02*
D03*
X-177800Y82550D02*
D03*
Y-44450D02*
D03*
X-146050Y-234950D02*
D03*
X-177800Y-298450D02*
D03*
X-241300Y82550D02*
D03*
X-209550Y-107950D02*
D03*
X-304800Y82550D02*
D03*
X-273050Y19050D02*
D03*
X-304800Y-44450D02*
D03*
Y-298450D02*
D03*
M02*
