G04*
G04 #@! TF.GenerationSoftware,Altium Limited,Altium Designer,24.0.1 (36)*
G04*
G04 Layer_Physical_Order=4*
G04 Layer_Color=16711680*
%FSLAX44Y44*%
%MOMM*%
G71*
G04*
G04 #@! TF.SameCoordinates,516FB9ED-FB34-4965-85CA-DC03E0874189*
G04*
G04*
G04 #@! TF.FilePolarity,Positive*
G04*
G01*
G75*
%ADD15R,1.0500X1.0000*%
%ADD16R,0.4000X0.3000*%
%ADD17R,0.3800X0.4300*%
%ADD18R,0.3500X0.5000*%
%ADD19R,1.0000X0.9500*%
%ADD20R,1.2100X0.7300*%
%ADD21R,3.0000X1.6000*%
%ADD22R,6.7000X6.7000*%
%ADD41R,2.4500X1.9800*%
%ADD42C,1.7780*%
%ADD43C,0.5080*%
%ADD44C,1.5240*%
%ADD45C,2.4000*%
%ADD46C,2.2400*%
%ADD47R,2.2400X2.2400*%
%ADD48C,1.8600*%
%ADD49C,0.4524*%
%ADD50C,5.0800*%
%ADD51C,0.4572*%
%ADD62R,0.5000X2.0000*%
G36*
X347406Y143304D02*
X351739Y141990D01*
X355733Y139855D01*
X359233Y136983D01*
X362105Y133483D01*
X364240Y129489D01*
X365554Y125156D01*
X365989Y120747D01*
X365969Y120650D01*
Y-336550D01*
X365989Y-336647D01*
X365554Y-341056D01*
X364240Y-345389D01*
X362105Y-349383D01*
X359233Y-352883D01*
X355733Y-355756D01*
X351739Y-357890D01*
X347406Y-359204D01*
X342998Y-359639D01*
X342900Y-359619D01*
X-342900D01*
X-342998Y-359639D01*
X-347406Y-359204D01*
X-351739Y-357890D01*
X-355733Y-355756D01*
X-359233Y-352883D01*
X-362105Y-349383D01*
X-364240Y-345389D01*
X-365554Y-341056D01*
X-365989Y-336647D01*
X-365969Y-336550D01*
Y-281408D01*
X-354260Y-270313D01*
X-228600D01*
X-228595Y-270312D01*
X-228589Y-270313D01*
X-228575Y-270313D01*
X-228568Y-270312D01*
X-228561Y-270313D01*
X-227181Y-270297D01*
X-226985Y-270256D01*
X-226786Y-270254D01*
X-224083Y-269687D01*
X-223900Y-269609D01*
X-223705Y-269568D01*
X-221163Y-268489D01*
X-220998Y-268377D01*
X-220814Y-268299D01*
X-218530Y-266749D01*
X-218390Y-266607D01*
X-218225Y-266495D01*
X-216283Y-264531D01*
X-216173Y-264364D01*
X-216033Y-264223D01*
X-214509Y-261920D01*
X-214433Y-261735D01*
X-214323Y-261569D01*
X-213274Y-259015D01*
X-213236Y-258819D01*
X-213160Y-258635D01*
X-212625Y-255926D01*
X-212625Y-255726D01*
X-212586Y-255531D01*
Y-254150D01*
X-212587Y-254144D01*
X-212586Y-254138D01*
X-212587Y-253993D01*
Y-190500D01*
X-212588Y-190493D01*
X-212587Y-190486D01*
X-212587Y-190471D01*
X-212588Y-190466D01*
X-212587Y-190460D01*
X-212603Y-189099D01*
X-212645Y-188903D01*
X-212647Y-188702D01*
X-213210Y-186039D01*
X-213289Y-185854D01*
X-213331Y-185658D01*
X-214402Y-183155D01*
X-214515Y-182990D01*
X-214594Y-182805D01*
X-216133Y-180560D01*
X-216277Y-180420D01*
X-216390Y-180254D01*
X-218337Y-178351D01*
X-218506Y-178242D01*
X-218649Y-178102D01*
X-220930Y-176616D01*
X-221117Y-176541D01*
X-221285Y-176431D01*
X-223811Y-175418D01*
X-224009Y-175382D01*
X-224195Y-175307D01*
X-226871Y-174806D01*
X-227072Y-174809D01*
X-227269Y-174772D01*
X-228619Y-174787D01*
X-353928D01*
X-365953Y-162762D01*
X-365969Y-162745D01*
Y120650D01*
X-365989Y120747D01*
X-365554Y125156D01*
X-364240Y129489D01*
X-362105Y133483D01*
X-359233Y136983D01*
X-355733Y139855D01*
X-351739Y141990D01*
X-347406Y143304D01*
X-342998Y143739D01*
X-342900Y143719D01*
X342900D01*
X342998Y143739D01*
X347406Y143304D01*
D02*
G37*
%LPC*%
G36*
X236087Y116586D02*
X235458D01*
Y108458D01*
X243586D01*
Y109087D01*
X242997Y111283D01*
X241861Y113253D01*
X240253Y114860D01*
X238283Y115997D01*
X236087Y116586D01*
D02*
G37*
G36*
X234442D02*
X233813D01*
X231617Y115997D01*
X229647Y114860D01*
X228039Y113253D01*
X226903Y111283D01*
X226314Y109087D01*
Y108458D01*
X234442D01*
Y116586D01*
D02*
G37*
G36*
X243586Y107442D02*
X235458D01*
Y99314D01*
X236087D01*
X238283Y99902D01*
X240253Y101039D01*
X241861Y102647D01*
X242997Y104617D01*
X243586Y106813D01*
Y107442D01*
D02*
G37*
G36*
X234442D02*
X226314D01*
Y106813D01*
X226903Y104617D01*
X228039Y102647D01*
X229647Y101039D01*
X231617Y99902D01*
X233813Y99314D01*
X234442D01*
Y107442D01*
D02*
G37*
G36*
X-233813Y116586D02*
X-236087D01*
X-238283Y115997D01*
X-240253Y114860D01*
X-241861Y113253D01*
X-242997Y111283D01*
X-243586Y109087D01*
Y106813D01*
X-242997Y104617D01*
X-241861Y102647D01*
X-240253Y101039D01*
X-238283Y99902D01*
X-236087Y99314D01*
X-233813D01*
X-231617Y99902D01*
X-229647Y101039D01*
X-228039Y102647D01*
X-226903Y104617D01*
X-226314Y106813D01*
Y109087D01*
X-226903Y111283D01*
X-228039Y113253D01*
X-229647Y114860D01*
X-231617Y115997D01*
X-233813Y116586D01*
D02*
G37*
G36*
X332279Y134366D02*
X328121D01*
X324014Y133716D01*
X320060Y132431D01*
X316355Y130543D01*
X312991Y128099D01*
X310051Y125159D01*
X307607Y121795D01*
X305719Y118090D01*
X304434Y114136D01*
X303784Y110029D01*
Y105871D01*
X304434Y101764D01*
X305719Y97810D01*
X307607Y94105D01*
X310051Y90741D01*
X312991Y87801D01*
X316355Y85357D01*
X320060Y83469D01*
X324014Y82184D01*
X328121Y81534D01*
X332279D01*
X336386Y82184D01*
X340340Y83469D01*
X344045Y85357D01*
X347409Y87801D01*
X350349Y90741D01*
X352793Y94105D01*
X354681Y97810D01*
X355966Y101764D01*
X356616Y105871D01*
Y110029D01*
X355966Y114136D01*
X354681Y118090D01*
X352793Y121795D01*
X350349Y125159D01*
X347409Y128099D01*
X344045Y130543D01*
X340340Y132431D01*
X336386Y133716D01*
X332279Y134366D01*
D02*
G37*
G36*
X-328121D02*
X-332279D01*
X-336386Y133716D01*
X-340340Y132431D01*
X-344045Y130543D01*
X-347409Y128099D01*
X-350349Y125159D01*
X-352793Y121795D01*
X-354681Y118090D01*
X-355966Y114136D01*
X-356616Y110029D01*
Y105871D01*
X-355966Y101764D01*
X-354681Y97810D01*
X-352793Y94105D01*
X-350349Y90741D01*
X-347409Y87801D01*
X-344045Y85357D01*
X-340340Y83469D01*
X-336386Y82184D01*
X-332279Y81534D01*
X-328121D01*
X-324014Y82184D01*
X-320060Y83469D01*
X-316355Y85357D01*
X-312991Y87801D01*
X-310051Y90741D01*
X-307607Y94105D01*
X-305719Y97810D01*
X-304434Y101764D01*
X-303784Y105871D01*
Y110029D01*
X-304434Y114136D01*
X-305719Y118090D01*
X-307607Y121795D01*
X-310051Y125159D01*
X-312991Y128099D01*
X-316355Y130543D01*
X-320060Y132431D01*
X-324014Y133716D01*
X-328121Y134366D01*
D02*
G37*
G36*
X267500Y86574D02*
X265900D01*
X264421Y85961D01*
X263289Y84829D01*
X262676Y83350D01*
Y81750D01*
X263289Y80271D01*
X264421Y79139D01*
X265900Y78526D01*
X267500D01*
X268979Y79139D01*
X270111Y80271D01*
X270724Y81750D01*
Y83350D01*
X270111Y84829D01*
X268979Y85961D01*
X267500Y86574D01*
D02*
G37*
G36*
X204000D02*
X202400D01*
X200921Y85961D01*
X199789Y84829D01*
X199176Y83350D01*
Y81750D01*
X199789Y80271D01*
X200921Y79139D01*
X202400Y78526D01*
X204000D01*
X205479Y79139D01*
X206611Y80271D01*
X207224Y81750D01*
Y83350D01*
X206611Y84829D01*
X205479Y85961D01*
X204000Y86574D01*
D02*
G37*
G36*
X140500D02*
X138900D01*
X137421Y85961D01*
X136289Y84829D01*
X135676Y83350D01*
Y81750D01*
X136289Y80271D01*
X137421Y79139D01*
X138900Y78526D01*
X140500D01*
X141979Y79139D01*
X143111Y80271D01*
X143724Y81750D01*
Y83350D01*
X143111Y84829D01*
X141979Y85961D01*
X140500Y86574D01*
D02*
G37*
G36*
X77000D02*
X75400D01*
X73921Y85961D01*
X72789Y84829D01*
X72176Y83350D01*
Y81750D01*
X72789Y80271D01*
X73921Y79139D01*
X75400Y78526D01*
X77000D01*
X78479Y79139D01*
X79611Y80271D01*
X80224Y81750D01*
Y83350D01*
X79611Y84829D01*
X78479Y85961D01*
X77000Y86574D01*
D02*
G37*
G36*
X13500D02*
X11900D01*
X10421Y85961D01*
X9289Y84829D01*
X8676Y83350D01*
Y81750D01*
X9289Y80271D01*
X10421Y79139D01*
X11900Y78526D01*
X13500D01*
X14979Y79139D01*
X16111Y80271D01*
X16724Y81750D01*
Y83350D01*
X16111Y84829D01*
X14979Y85961D01*
X13500Y86574D01*
D02*
G37*
G36*
X-50000D02*
X-51600D01*
X-53079Y85961D01*
X-54211Y84829D01*
X-54824Y83350D01*
Y81750D01*
X-54211Y80271D01*
X-53079Y79139D01*
X-51600Y78526D01*
X-50000D01*
X-48521Y79139D01*
X-47389Y80271D01*
X-46776Y81750D01*
Y83350D01*
X-47389Y84829D01*
X-48521Y85961D01*
X-50000Y86574D01*
D02*
G37*
G36*
X-113500D02*
X-115100D01*
X-116579Y85961D01*
X-117711Y84829D01*
X-118324Y83350D01*
Y81750D01*
X-117711Y80271D01*
X-116579Y79139D01*
X-115100Y78526D01*
X-113500D01*
X-112021Y79139D01*
X-110889Y80271D01*
X-110276Y81750D01*
Y83350D01*
X-110889Y84829D01*
X-112021Y85961D01*
X-113500Y86574D01*
D02*
G37*
G36*
X-177000D02*
X-178600D01*
X-180079Y85961D01*
X-181211Y84829D01*
X-181824Y83350D01*
Y81750D01*
X-181211Y80271D01*
X-180079Y79139D01*
X-178600Y78526D01*
X-177000D01*
X-175521Y79139D01*
X-174389Y80271D01*
X-173776Y81750D01*
Y83350D01*
X-174389Y84829D01*
X-175521Y85961D01*
X-177000Y86574D01*
D02*
G37*
G36*
X-240500D02*
X-242100D01*
X-243579Y85961D01*
X-244711Y84829D01*
X-245324Y83350D01*
Y81750D01*
X-244711Y80271D01*
X-243579Y79139D01*
X-242100Y78526D01*
X-240500D01*
X-239021Y79139D01*
X-237889Y80271D01*
X-237276Y81750D01*
Y83350D01*
X-237889Y84829D01*
X-239021Y85961D01*
X-240500Y86574D01*
D02*
G37*
G36*
X-304000D02*
X-305600D01*
X-307079Y85961D01*
X-308211Y84829D01*
X-308824Y83350D01*
Y81750D01*
X-308211Y80271D01*
X-307079Y79139D01*
X-305600Y78526D01*
X-304000D01*
X-302521Y79139D01*
X-301389Y80271D01*
X-300776Y81750D01*
Y83350D01*
X-301389Y84829D01*
X-302521Y85961D01*
X-304000Y86574D01*
D02*
G37*
G36*
X133984Y65566D02*
X133016D01*
X132714Y65566D01*
X130758D01*
Y62050D01*
Y58534D01*
X132714D01*
X133016Y58534D01*
X133984D01*
X134286Y58534D01*
X136242D01*
Y62050D01*
Y65566D01*
X134286D01*
X133984Y65566D01*
D02*
G37*
G36*
X127484D02*
X126516D01*
X126214Y65566D01*
X124258D01*
Y62050D01*
Y58534D01*
X126214D01*
X126516Y58534D01*
X127484D01*
X127786Y58534D01*
X129742D01*
Y62050D01*
Y65566D01*
X127786D01*
X127484Y65566D01*
D02*
G37*
G36*
X137258Y65566D02*
Y62558D01*
X139516D01*
Y65566D01*
X137258D01*
D02*
G37*
G36*
X116742D02*
X114484D01*
Y62558D01*
X116742D01*
Y65566D01*
D02*
G37*
G36*
X139516Y61542D02*
X137258D01*
Y58534D01*
X139516D01*
Y61542D01*
D02*
G37*
G36*
X120984Y65566D02*
X120016D01*
X119714Y65566D01*
X117758D01*
Y62050D01*
Y58534D01*
X119714D01*
X120016Y58534D01*
X120984D01*
X121286Y58534D01*
X123242D01*
Y62050D01*
Y65566D01*
X121286D01*
X120984Y65566D01*
D02*
G37*
G36*
X116742Y61542D02*
X114484D01*
Y58534D01*
X116742D01*
Y61542D01*
D02*
G37*
G36*
X331337Y53086D02*
X329063D01*
X326867Y52498D01*
X324897Y51361D01*
X323289Y49753D01*
X322152Y47783D01*
X321564Y45587D01*
Y43313D01*
X322152Y41117D01*
X323289Y39147D01*
X324897Y37540D01*
X326867Y36402D01*
X329063Y35814D01*
X331337D01*
X333533Y36402D01*
X335503Y37540D01*
X337110Y39147D01*
X338247Y41117D01*
X338836Y43313D01*
Y45587D01*
X338247Y47783D01*
X337110Y49753D01*
X335503Y51361D01*
X333533Y52498D01*
X331337Y53086D01*
D02*
G37*
G36*
X-329063D02*
X-331337D01*
X-333533Y52498D01*
X-335503Y51361D01*
X-337110Y49753D01*
X-338247Y47783D01*
X-338836Y45587D01*
Y43313D01*
X-338247Y41117D01*
X-337110Y39147D01*
X-335503Y37540D01*
X-333533Y36402D01*
X-331337Y35814D01*
X-329063D01*
X-326867Y36402D01*
X-324897Y37540D01*
X-323289Y39147D01*
X-322152Y41117D01*
X-321564Y43313D01*
Y45587D01*
X-322152Y47783D01*
X-323289Y49753D01*
X-324897Y51361D01*
X-326867Y52498D01*
X-329063Y53086D01*
D02*
G37*
G36*
X299250Y23074D02*
X297650D01*
X296171Y22461D01*
X295039Y21329D01*
X294426Y19850D01*
Y18250D01*
X295039Y16771D01*
X296171Y15639D01*
X297650Y15026D01*
X299250D01*
X300729Y15639D01*
X301861Y16771D01*
X302474Y18250D01*
Y19850D01*
X301861Y21329D01*
X300729Y22461D01*
X299250Y23074D01*
D02*
G37*
G36*
X172250D02*
X170650D01*
X169171Y22461D01*
X168039Y21329D01*
X167426Y19850D01*
Y18250D01*
X168039Y16771D01*
X169171Y15639D01*
X170650Y15026D01*
X172250D01*
X173729Y15639D01*
X174861Y16771D01*
X175474Y18250D01*
Y19850D01*
X174861Y21329D01*
X173729Y22461D01*
X172250Y23074D01*
D02*
G37*
G36*
X45250D02*
X43650D01*
X42171Y22461D01*
X41039Y21329D01*
X40426Y19850D01*
Y18250D01*
X41039Y16771D01*
X42171Y15639D01*
X43650Y15026D01*
X45250D01*
X46729Y15639D01*
X47861Y16771D01*
X48474Y18250D01*
Y19850D01*
X47861Y21329D01*
X46729Y22461D01*
X45250Y23074D01*
D02*
G37*
G36*
X-18250D02*
X-19850D01*
X-21329Y22461D01*
X-22461Y21329D01*
X-23074Y19850D01*
Y18250D01*
X-22461Y16771D01*
X-21329Y15639D01*
X-19850Y15026D01*
X-18250D01*
X-16771Y15639D01*
X-15639Y16771D01*
X-15026Y18250D01*
Y19850D01*
X-15639Y21329D01*
X-16771Y22461D01*
X-18250Y23074D01*
D02*
G37*
G36*
X-81750D02*
X-83350D01*
X-84829Y22461D01*
X-85961Y21329D01*
X-86574Y19850D01*
Y18250D01*
X-85961Y16771D01*
X-84829Y15639D01*
X-83350Y15026D01*
X-81750D01*
X-80271Y15639D01*
X-79139Y16771D01*
X-78526Y18250D01*
Y19850D01*
X-79139Y21329D01*
X-80271Y22461D01*
X-81750Y23074D01*
D02*
G37*
G36*
X-272250D02*
X-273850D01*
X-275329Y22461D01*
X-276461Y21329D01*
X-277074Y19850D01*
Y18250D01*
X-276461Y16771D01*
X-275329Y15639D01*
X-273850Y15026D01*
X-272250D01*
X-270771Y15639D01*
X-269639Y16771D01*
X-269026Y18250D01*
Y19850D01*
X-269639Y21329D01*
X-270771Y22461D01*
X-272250Y23074D01*
D02*
G37*
G36*
X-230344Y21780D02*
X-231936D01*
X-233406Y21171D01*
X-234531Y20046D01*
X-235140Y18576D01*
Y16984D01*
X-234531Y15514D01*
X-233406Y14389D01*
X-231936Y13780D01*
X-230344D01*
X-228874Y14389D01*
X-227749Y15514D01*
X-227140Y16984D01*
Y18576D01*
X-227749Y20046D01*
X-228874Y21171D01*
X-230344Y21780D01*
D02*
G37*
G36*
X-243044D02*
X-244636D01*
X-246106Y21171D01*
X-247231Y20046D01*
X-247840Y18576D01*
Y16984D01*
X-247231Y15514D01*
X-246106Y14389D01*
X-244636Y13780D01*
X-243044D01*
X-241574Y14389D01*
X-240449Y15514D01*
X-239840Y16984D01*
Y18576D01*
X-240449Y20046D01*
X-241574Y21171D01*
X-243044Y21780D01*
D02*
G37*
G36*
X-230344Y6540D02*
X-231936D01*
X-233406Y5931D01*
X-234531Y4806D01*
X-235140Y3336D01*
Y1744D01*
X-234531Y274D01*
X-233406Y-851D01*
X-231936Y-1460D01*
X-230344D01*
X-228874Y-851D01*
X-227749Y274D01*
X-227140Y1744D01*
Y3336D01*
X-227749Y4806D01*
X-228874Y5931D01*
X-230344Y6540D01*
D02*
G37*
G36*
X-243044D02*
X-244636D01*
X-246106Y5931D01*
X-247231Y4806D01*
X-247840Y3336D01*
Y1744D01*
X-247231Y274D01*
X-246106Y-851D01*
X-244636Y-1460D01*
X-243044D01*
X-241574Y-851D01*
X-240449Y274D01*
X-239840Y1744D01*
Y3336D01*
X-240449Y4806D01*
X-241574Y5931D01*
X-243044Y6540D01*
D02*
G37*
G36*
X248920Y26500D02*
X187960D01*
X187575Y26340D01*
X187190Y26185D01*
X184600Y23645D01*
X184598Y23640D01*
X184593Y23638D01*
X184434Y23254D01*
X184271Y22871D01*
X184273Y22865D01*
X184270Y22860D01*
Y-2540D01*
X184273Y-2545D01*
X184271Y-2551D01*
X184433Y-2933D01*
X184593Y-3318D01*
X184598Y-3320D01*
X184600Y-3325D01*
X187190Y-5865D01*
X187575Y-6020D01*
X187960Y-6180D01*
X228600Y-6180D01*
X248920Y-6180D01*
X249698Y-5857D01*
X249698Y-5857D01*
X252238Y-3318D01*
X252560Y-2540D01*
Y22860D01*
X252238Y23638D01*
X249698Y26178D01*
X248920Y26500D01*
D02*
G37*
G36*
X140266Y55366D02*
X113734D01*
Y51676D01*
X112850D01*
X111462Y51400D01*
X111188Y51216D01*
X109934D01*
Y50086D01*
X109500Y49437D01*
X109224Y48050D01*
X109500Y46663D01*
X109934Y46013D01*
Y44884D01*
X111188D01*
X111462Y44700D01*
X112850Y44424D01*
X113734D01*
Y34894D01*
X113722Y34878D01*
X113734Y34776D01*
X113734Y34709D01*
X113681Y34581D01*
X113734Y33534D01*
X114234Y32471D01*
Y30534D01*
X115398D01*
X116124Y29291D01*
X115643Y27503D01*
X114903Y25689D01*
X114028Y24255D01*
X113035Y23185D01*
X111924Y22442D01*
X110665Y21997D01*
X109105Y21833D01*
X109074Y21816D01*
X92484D01*
Y-16223D01*
X92467Y-16254D01*
X92301Y-17814D01*
X91855Y-19073D01*
X91112Y-20185D01*
X90040Y-21178D01*
X88606Y-22053D01*
X86793Y-22794D01*
X84597Y-23384D01*
X82021Y-23813D01*
X79070Y-24073D01*
X75803Y-24158D01*
X67816D01*
X67392Y-23735D01*
X64424Y-22021D01*
X61114Y-21134D01*
X57686D01*
X54376Y-22021D01*
X51408Y-23735D01*
X50984Y-24158D01*
X33816D01*
X33392Y-23735D01*
X30424Y-22021D01*
X27114Y-21134D01*
X23686D01*
X20376Y-22021D01*
X17408Y-23735D01*
X14985Y-26158D01*
X13271Y-29126D01*
X12384Y-32436D01*
Y-35864D01*
X13271Y-39174D01*
X14985Y-42142D01*
X17408Y-44565D01*
X20376Y-46279D01*
X23686Y-47166D01*
X27114D01*
X30424Y-46279D01*
X33392Y-44565D01*
X33816Y-44142D01*
X50984D01*
X51408Y-44565D01*
X54376Y-46279D01*
X57686Y-47166D01*
X61114D01*
X64424Y-46279D01*
X67392Y-44565D01*
X67816Y-44142D01*
X75829D01*
X82099Y-44264D01*
X87010Y-44634D01*
X88891Y-44905D01*
X90399Y-45230D01*
X91500Y-45590D01*
X91761Y-45727D01*
X92484Y-46655D01*
Y-46655D01*
X92484D01*
X92484Y-47216D01*
X93529Y-47269D01*
X93658Y-47216D01*
X93776Y-47216D01*
X93846Y-47223D01*
X93854Y-47216D01*
X161516D01*
Y21816D01*
X144926D01*
X144895Y21833D01*
X143335Y21997D01*
X142076Y22442D01*
X140965Y23185D01*
X139972Y24255D01*
X139097Y25689D01*
X138357Y27503D01*
X137876Y29291D01*
X138602Y30534D01*
X139766D01*
Y33034D01*
X140266Y33534D01*
X140319Y34581D01*
X140266Y34709D01*
X140266Y34776D01*
X140278Y34878D01*
X140266Y34894D01*
Y44424D01*
X141150D01*
X142537Y44700D01*
X142812Y44884D01*
X144066D01*
Y46013D01*
X144500Y46663D01*
X144776Y48050D01*
X144500Y49437D01*
X144066Y50086D01*
Y51216D01*
X142812D01*
X142537Y51400D01*
X141150Y51676D01*
X140266D01*
Y55366D01*
D02*
G37*
G36*
X275326Y-30894D02*
X268768D01*
Y-35052D01*
X275326D01*
Y-30894D01*
D02*
G37*
G36*
X267752D02*
X261194D01*
Y-35052D01*
X267752D01*
Y-30894D01*
D02*
G37*
G36*
X221516Y-26544D02*
X189484D01*
Y-44576D01*
X221516D01*
Y-40786D01*
X221533Y-40756D01*
X221570Y-40403D01*
X221634Y-40224D01*
X221740Y-40065D01*
X221922Y-39897D01*
X222212Y-39721D01*
X222630Y-39551D01*
X223176Y-39405D01*
X223848Y-39293D01*
X224641Y-39224D01*
X224713Y-39222D01*
X226060Y-39293D01*
X226438Y-39337D01*
X227594Y-39666D01*
Y-39667D01*
X227594Y-39667D01*
Y-40226D01*
X228641Y-40279D01*
X228760Y-40230D01*
X228784Y-40243D01*
X229137Y-40280D01*
X229317Y-40344D01*
X229475Y-40450D01*
X229643Y-40632D01*
X229820Y-40922D01*
X229989Y-41340D01*
X230135Y-41886D01*
X230247Y-42558D01*
X230316Y-43351D01*
X230331Y-43900D01*
X230316Y-44447D01*
X230247Y-45240D01*
X230135Y-45911D01*
X229989Y-46456D01*
X229820Y-46873D01*
X229643Y-47165D01*
X229474Y-47347D01*
X229315Y-47455D01*
X229135Y-47519D01*
X228781Y-47558D01*
X228751Y-47574D01*
X227284D01*
Y-57836D01*
X227284Y-57854D01*
X227237Y-57939D01*
X227241Y-58035D01*
X227231Y-58060D01*
X227284Y-59106D01*
X227843D01*
Y-59106D01*
X227844D01*
X229004Y-59543D01*
X229160Y-59810D01*
X229323Y-60227D01*
X229463Y-60773D01*
X229470Y-60814D01*
X229455Y-60904D01*
X229309Y-61451D01*
X229139Y-61868D01*
X228963Y-62158D01*
X228795Y-62340D01*
X228636Y-62446D01*
X228457Y-62510D01*
X228104Y-62547D01*
X228074Y-62564D01*
X227034D01*
Y-74596D01*
X228338D01*
X228367Y-74612D01*
X228662Y-74645D01*
X228786Y-74692D01*
X228904Y-74775D01*
X229042Y-74934D01*
X229196Y-75202D01*
X229347Y-75595D01*
X229477Y-76111D01*
X229576Y-76747D01*
X229639Y-77499D01*
X229661Y-78387D01*
X229695Y-78465D01*
X229950Y-79747D01*
X230736Y-80924D01*
X255041Y-105228D01*
X255053Y-105260D01*
X255480Y-105709D01*
X256281Y-106689D01*
X256635Y-107191D01*
X257337Y-108343D01*
X257647Y-108934D01*
X258246Y-110262D01*
X258520Y-110969D01*
X258587Y-111040D01*
X258652Y-111283D01*
X259790Y-113253D01*
X261397Y-114860D01*
X263367Y-115997D01*
X265563Y-116586D01*
X267837D01*
X270033Y-115997D01*
X272003Y-114860D01*
X273610Y-113253D01*
X274748Y-111283D01*
X275336Y-109087D01*
Y-106813D01*
X274748Y-104617D01*
X273610Y-102647D01*
X272003Y-101039D01*
X270033Y-99902D01*
X267837Y-99314D01*
X265563D01*
X263698Y-99814D01*
X263588Y-99806D01*
X262996Y-100002D01*
X262482Y-100112D01*
X261992Y-100157D01*
X261519Y-100140D01*
X261059Y-100062D01*
X260603Y-99923D01*
X260146Y-99718D01*
X259685Y-99442D01*
X259218Y-99090D01*
X258714Y-98628D01*
X258685Y-98618D01*
X237008Y-76940D01*
X237024Y-76747D01*
X237123Y-76111D01*
X237253Y-75595D01*
X237404Y-75202D01*
X237558Y-74934D01*
X237696Y-74775D01*
X237814Y-74692D01*
X237938Y-74645D01*
X238233Y-74612D01*
X238262Y-74596D01*
X239566D01*
Y-62564D01*
X238526D01*
X238496Y-62547D01*
X238143Y-62510D01*
X237964Y-62446D01*
X237805Y-62340D01*
X237637Y-62158D01*
X237461Y-61868D01*
X237291Y-61451D01*
X237145Y-60904D01*
X237130Y-60814D01*
X237136Y-60773D01*
X237277Y-60227D01*
X237440Y-59810D01*
X237596Y-59543D01*
X238756Y-59106D01*
X238757D01*
Y-59106D01*
X239316Y-59106D01*
X239369Y-58060D01*
X239359Y-58035D01*
X239363Y-57939D01*
X239316Y-57854D01*
Y-48854D01*
X239357Y-48787D01*
X239342Y-48682D01*
X239369Y-48617D01*
X239316Y-47574D01*
X238752D01*
Y-47574D01*
X238751D01*
X237926Y-46733D01*
X237872Y-46542D01*
X237768Y-45984D01*
X237636Y-44449D01*
X237628Y-43969D01*
X237644Y-43351D01*
X237713Y-42558D01*
X237825Y-41886D01*
X237971Y-41340D01*
X238141Y-40922D01*
X238317Y-40632D01*
X238485Y-40450D01*
X238644Y-40344D01*
X238823Y-40280D01*
X239176Y-40243D01*
X239206Y-40226D01*
X241726D01*
Y-30894D01*
X228933D01*
X228905Y-30873D01*
X228768Y-30894D01*
X228641Y-30841D01*
X227594Y-30894D01*
Y-31453D01*
X227594D01*
Y-31454D01*
X226436Y-31771D01*
X224666Y-31897D01*
X224641Y-31896D01*
X223848Y-31827D01*
X223176Y-31715D01*
X222630Y-31569D01*
X222212Y-31399D01*
X221922Y-31223D01*
X221740Y-31055D01*
X221634Y-30896D01*
X221570Y-30717D01*
X221533Y-30364D01*
X221516Y-30334D01*
Y-26544D01*
D02*
G37*
G36*
X-23686Y-18734D02*
X-27114D01*
X-30424Y-19621D01*
X-33392Y-21335D01*
X-35815Y-23758D01*
X-37529Y-26726D01*
X-38416Y-30036D01*
Y-33464D01*
X-37529Y-36774D01*
X-35815Y-39742D01*
X-33392Y-42165D01*
X-30424Y-43879D01*
X-27114Y-44766D01*
X-23686D01*
X-20376Y-43879D01*
X-17408Y-42165D01*
X-14985Y-39742D01*
X-13271Y-36774D01*
X-12384Y-33464D01*
Y-30036D01*
X-13271Y-26726D01*
X-14985Y-23758D01*
X-17408Y-21335D01*
X-20376Y-19621D01*
X-23686Y-18734D01*
D02*
G37*
G36*
X-57686D02*
X-61114D01*
X-64424Y-19621D01*
X-67392Y-21335D01*
X-69815Y-23758D01*
X-71529Y-26726D01*
X-72416Y-30036D01*
Y-33464D01*
X-71529Y-36774D01*
X-69815Y-39742D01*
X-67392Y-42165D01*
X-64424Y-43879D01*
X-61114Y-44766D01*
X-57686D01*
X-54376Y-43879D01*
X-51408Y-42165D01*
X-48985Y-39742D01*
X-47271Y-36774D01*
X-46384Y-33464D01*
Y-30036D01*
X-47271Y-26726D01*
X-48985Y-23758D01*
X-51408Y-21335D01*
X-54376Y-19621D01*
X-57686Y-18734D01*
D02*
G37*
G36*
X275326Y-36068D02*
X268260D01*
X261194D01*
Y-40226D01*
X263437D01*
X263963Y-41496D01*
X263289Y-42171D01*
X262676Y-43650D01*
Y-45250D01*
X263289Y-46729D01*
X264421Y-47861D01*
X264924Y-48070D01*
X264672Y-49340D01*
X263364D01*
X262461Y-49714D01*
X259406D01*
X259374Y-49701D01*
X258438Y-49679D01*
X257640Y-49619D01*
X256961Y-49522D01*
X256405Y-49394D01*
X255979Y-49244D01*
X255879Y-49191D01*
X255316Y-48134D01*
Y-48133D01*
X255316Y-48133D01*
X255316Y-47574D01*
X254270Y-47521D01*
X254240Y-47533D01*
X254136Y-47529D01*
X254056Y-47574D01*
X243284D01*
Y-59106D01*
X254046D01*
X254056Y-59106D01*
X254136Y-59151D01*
X254240Y-59147D01*
X254270Y-59159D01*
X255316Y-59106D01*
Y-58547D01*
X255316Y-58547D01*
Y-58546D01*
X255879Y-57489D01*
X255979Y-57436D01*
X256405Y-57287D01*
X256961Y-57158D01*
X257640Y-57061D01*
X258438Y-57001D01*
X259374Y-56979D01*
X259405Y-56966D01*
X262461D01*
X263364Y-57340D01*
X264956D01*
X266426Y-56731D01*
X267551Y-55606D01*
X268160Y-54136D01*
Y-52544D01*
X267551Y-51074D01*
X266426Y-49949D01*
X265931Y-49744D01*
X266184Y-48474D01*
X267500D01*
X268979Y-47861D01*
X270111Y-46729D01*
X270724Y-45250D01*
Y-43650D01*
X270111Y-42171D01*
X269437Y-41496D01*
X269963Y-40226D01*
X275326D01*
Y-36068D01*
D02*
G37*
G36*
X-177000Y-40426D02*
X-178600D01*
X-180079Y-41039D01*
X-181211Y-42171D01*
X-181824Y-43650D01*
Y-45250D01*
X-181211Y-46729D01*
X-180079Y-47861D01*
X-178600Y-48474D01*
X-177000D01*
X-175521Y-47861D01*
X-174389Y-46729D01*
X-173776Y-45250D01*
Y-43650D01*
X-174389Y-42171D01*
X-175521Y-41039D01*
X-177000Y-40426D01*
D02*
G37*
G36*
X-304000D02*
X-305600D01*
X-307079Y-41039D01*
X-308211Y-42171D01*
X-308824Y-43650D01*
Y-45250D01*
X-308211Y-46729D01*
X-307079Y-47861D01*
X-305600Y-48474D01*
X-304000D01*
X-302521Y-47861D01*
X-301389Y-46729D01*
X-300776Y-45250D01*
Y-43650D01*
X-301389Y-42171D01*
X-302521Y-41039D01*
X-304000Y-40426D01*
D02*
G37*
G36*
X331337Y-35814D02*
X329063D01*
X326867Y-36402D01*
X324897Y-37540D01*
X323289Y-39147D01*
X322152Y-41117D01*
X321564Y-43313D01*
Y-45587D01*
X322152Y-47783D01*
X323289Y-49753D01*
X324897Y-51361D01*
X326867Y-52498D01*
X329063Y-53086D01*
X331337D01*
X333533Y-52498D01*
X335503Y-51361D01*
X337110Y-49753D01*
X338247Y-47783D01*
X338836Y-45587D01*
Y-43313D01*
X338247Y-41117D01*
X337110Y-39147D01*
X335503Y-37540D01*
X333533Y-36402D01*
X331337Y-35814D01*
D02*
G37*
G36*
X-329063D02*
X-331337D01*
X-333533Y-36402D01*
X-335503Y-37540D01*
X-337110Y-39147D01*
X-338247Y-41117D01*
X-338836Y-43313D01*
Y-45587D01*
X-338247Y-47783D01*
X-337110Y-49753D01*
X-335503Y-51361D01*
X-333533Y-52498D01*
X-331337Y-53086D01*
X-329063D01*
X-326867Y-52498D01*
X-324897Y-51361D01*
X-323289Y-49753D01*
X-322152Y-47783D01*
X-321564Y-45587D01*
Y-43313D01*
X-322152Y-41117D01*
X-323289Y-39147D01*
X-324897Y-37540D01*
X-326867Y-36402D01*
X-329063Y-35814D01*
D02*
G37*
G36*
X-263364Y-49340D02*
X-264956D01*
X-266426Y-49949D01*
X-267551Y-51074D01*
X-268160Y-52544D01*
Y-54136D01*
X-267551Y-55606D01*
X-266426Y-56731D01*
X-264956Y-57340D01*
X-263364D01*
X-261894Y-56731D01*
X-260769Y-55606D01*
X-260160Y-54136D01*
Y-52544D01*
X-260769Y-51074D01*
X-261894Y-49949D01*
X-263364Y-49340D01*
D02*
G37*
G36*
X254520Y-62511D02*
X254494Y-62521D01*
X254399Y-62517D01*
X254314Y-62564D01*
X243034D01*
Y-74596D01*
X254296D01*
X254314Y-74596D01*
X254399Y-74643D01*
X254494Y-74639D01*
X254520Y-74649D01*
X255566Y-74596D01*
Y-74037D01*
X255566D01*
Y-74036D01*
X256003Y-72876D01*
X256270Y-72720D01*
X256687Y-72557D01*
X257233Y-72417D01*
X257903Y-72310D01*
X258695Y-72243D01*
X259627Y-72219D01*
X259658Y-72206D01*
X262461D01*
X263364Y-72580D01*
X264956D01*
X266426Y-71971D01*
X267551Y-70846D01*
X268160Y-69376D01*
Y-67784D01*
X267551Y-66314D01*
X266426Y-65189D01*
X264956Y-64580D01*
X263364D01*
X262461Y-64954D01*
X259658D01*
X259627Y-64941D01*
X258695Y-64917D01*
X257903Y-64850D01*
X257233Y-64743D01*
X256687Y-64603D01*
X256270Y-64440D01*
X256003Y-64284D01*
X255566Y-63124D01*
Y-63123D01*
X255566D01*
X255566Y-62564D01*
X254520Y-62511D01*
D02*
G37*
G36*
X-263364Y-64580D02*
X-264956D01*
X-266426Y-65189D01*
X-267551Y-66314D01*
X-268160Y-67784D01*
Y-69376D01*
X-267551Y-70846D01*
X-266426Y-71971D01*
X-264956Y-72580D01*
X-263364D01*
X-261894Y-71971D01*
X-260769Y-70846D01*
X-260160Y-69376D01*
Y-67784D01*
X-260769Y-66314D01*
X-261894Y-65189D01*
X-263364Y-64580D01*
D02*
G37*
G36*
X122604Y-62150D02*
X119496D01*
X116495Y-62954D01*
X113805Y-64508D01*
X111608Y-66705D01*
X110054Y-69395D01*
X109250Y-72396D01*
Y-75504D01*
X110054Y-78505D01*
X111608Y-81195D01*
X113805Y-83392D01*
X116495Y-84946D01*
X119496Y-85750D01*
X122604D01*
X125605Y-84946D01*
X128295Y-83392D01*
X130492Y-81195D01*
X132046Y-78505D01*
X132850Y-75504D01*
Y-72396D01*
X132046Y-69395D01*
X130492Y-66705D01*
X128295Y-64508D01*
X125605Y-62954D01*
X122604Y-62150D01*
D02*
G37*
G36*
X-182197D02*
X-185303D01*
X-188305Y-62954D01*
X-190995Y-64508D01*
X-193192Y-66705D01*
X-194746Y-69395D01*
X-195550Y-72396D01*
Y-75504D01*
X-194746Y-78505D01*
X-193192Y-81195D01*
X-190995Y-83392D01*
X-188305Y-84946D01*
X-185303Y-85750D01*
X-182197D01*
X-179195Y-84946D01*
X-176505Y-83392D01*
X-174308Y-81195D01*
X-172754Y-78505D01*
X-171950Y-75504D01*
Y-72396D01*
X-172754Y-69395D01*
X-174308Y-66705D01*
X-176505Y-64508D01*
X-179195Y-62954D01*
X-182197Y-62150D01*
D02*
G37*
G36*
X299250Y-103926D02*
X297650D01*
X296171Y-104539D01*
X295039Y-105671D01*
X294426Y-107150D01*
Y-108750D01*
X295039Y-110229D01*
X296171Y-111361D01*
X297650Y-111974D01*
X299250D01*
X300729Y-111361D01*
X301861Y-110229D01*
X302474Y-108750D01*
Y-107150D01*
X301861Y-105671D01*
X300729Y-104539D01*
X299250Y-103926D01*
D02*
G37*
G36*
X235750D02*
X234150D01*
X232671Y-104539D01*
X231539Y-105671D01*
X230926Y-107150D01*
Y-108750D01*
X231539Y-110229D01*
X232671Y-111361D01*
X234150Y-111974D01*
X235750D01*
X237229Y-111361D01*
X238361Y-110229D01*
X238974Y-108750D01*
Y-107150D01*
X238361Y-105671D01*
X237229Y-104539D01*
X235750Y-103926D01*
D02*
G37*
G36*
X45250D02*
X43650D01*
X42171Y-104539D01*
X41039Y-105671D01*
X40426Y-107150D01*
Y-108750D01*
X41039Y-110229D01*
X42171Y-111361D01*
X43650Y-111974D01*
X45250D01*
X46729Y-111361D01*
X47861Y-110229D01*
X48474Y-108750D01*
Y-107150D01*
X47861Y-105671D01*
X46729Y-104539D01*
X45250Y-103926D01*
D02*
G37*
G36*
X-18250D02*
X-19850D01*
X-21329Y-104539D01*
X-22461Y-105671D01*
X-23074Y-107150D01*
Y-108750D01*
X-22461Y-110229D01*
X-21329Y-111361D01*
X-19850Y-111974D01*
X-18250D01*
X-16771Y-111361D01*
X-15639Y-110229D01*
X-15026Y-108750D01*
Y-107150D01*
X-15639Y-105671D01*
X-16771Y-104539D01*
X-18250Y-103926D01*
D02*
G37*
G36*
X-81750D02*
X-83350D01*
X-84829Y-104539D01*
X-85961Y-105671D01*
X-86574Y-107150D01*
Y-108750D01*
X-85961Y-110229D01*
X-84829Y-111361D01*
X-83350Y-111974D01*
X-81750D01*
X-80271Y-111361D01*
X-79139Y-110229D01*
X-78526Y-108750D01*
Y-107150D01*
X-79139Y-105671D01*
X-80271Y-104539D01*
X-81750Y-103926D01*
D02*
G37*
G36*
X-208750D02*
X-210350D01*
X-211829Y-104539D01*
X-212961Y-105671D01*
X-213574Y-107150D01*
Y-108750D01*
X-212961Y-110229D01*
X-211829Y-111361D01*
X-210350Y-111974D01*
X-208750D01*
X-207271Y-111361D01*
X-206139Y-110229D01*
X-205526Y-108750D01*
Y-107150D01*
X-206139Y-105671D01*
X-207271Y-104539D01*
X-208750Y-103926D01*
D02*
G37*
G36*
X-265563Y-99314D02*
X-267837D01*
X-270033Y-99902D01*
X-272003Y-101039D01*
X-273610Y-102647D01*
X-274748Y-104617D01*
X-275336Y-106813D01*
Y-109087D01*
X-274748Y-111283D01*
X-273610Y-113253D01*
X-272003Y-114860D01*
X-270033Y-115997D01*
X-267837Y-116586D01*
X-265563D01*
X-263367Y-115997D01*
X-261397Y-114860D01*
X-259790Y-113253D01*
X-258652Y-111283D01*
X-258064Y-109087D01*
Y-106813D01*
X-258652Y-104617D01*
X-259790Y-102647D01*
X-261397Y-101039D01*
X-263367Y-99902D01*
X-265563Y-99314D01*
D02*
G37*
G36*
X173058Y-95734D02*
X169842D01*
X166735Y-96566D01*
X163949Y-98175D01*
X161675Y-100449D01*
X160067Y-103235D01*
X159234Y-106342D01*
Y-109558D01*
X160067Y-112665D01*
X161675Y-115451D01*
X163949Y-117725D01*
X166735Y-119333D01*
X169842Y-120166D01*
X173058D01*
X176165Y-119333D01*
X178951Y-117725D01*
X181225Y-115451D01*
X182833Y-112665D01*
X183666Y-109558D01*
Y-106342D01*
X182833Y-103235D01*
X181225Y-100449D01*
X178951Y-98175D01*
X176165Y-96566D01*
X173058Y-95734D01*
D02*
G37*
G36*
X-131742D02*
X-134958D01*
X-138065Y-96566D01*
X-140851Y-98175D01*
X-143125Y-100449D01*
X-144733Y-103235D01*
X-145566Y-106342D01*
Y-109558D01*
X-144733Y-112665D01*
X-143125Y-115451D01*
X-140851Y-117725D01*
X-138065Y-119333D01*
X-134958Y-120166D01*
X-131742D01*
X-128635Y-119333D01*
X-125849Y-117725D01*
X-123575Y-115451D01*
X-121966Y-112665D01*
X-121134Y-109558D01*
Y-106342D01*
X-121966Y-103235D01*
X-123575Y-100449D01*
X-125849Y-98175D01*
X-128635Y-96566D01*
X-131742Y-95734D01*
D02*
G37*
G36*
X-160734D02*
X-185166D01*
Y-120166D01*
X-160734D01*
Y-95734D01*
D02*
G37*
G36*
X120681Y-95681D02*
X119634Y-95734D01*
Y-96293D01*
X119634D01*
Y-96294D01*
X118587Y-96930D01*
X117669Y-97149D01*
X106237Y-97938D01*
X103157Y-97958D01*
X86483D01*
X83897Y-98299D01*
X81487Y-99297D01*
X79418Y-100885D01*
X59969Y-120334D01*
X57686D01*
X54376Y-121221D01*
X51408Y-122935D01*
X50984Y-123358D01*
X33816D01*
X33392Y-122935D01*
X30424Y-121221D01*
X27114Y-120334D01*
X23686D01*
X20376Y-121221D01*
X17408Y-122935D01*
X14985Y-125358D01*
X13271Y-128326D01*
X12384Y-131636D01*
Y-135064D01*
X13271Y-138374D01*
X14985Y-141342D01*
X15409Y-141766D01*
Y-184150D01*
X15749Y-186736D01*
X16747Y-189146D01*
X18335Y-191215D01*
X20404Y-192803D01*
X22814Y-193801D01*
X25400Y-194142D01*
X27986Y-193801D01*
X30396Y-192803D01*
X32465Y-191215D01*
X34053Y-189146D01*
X35051Y-186736D01*
X35391Y-184150D01*
Y-143342D01*
X50984D01*
X51408Y-143765D01*
X54376Y-145479D01*
X57686Y-146366D01*
X61114D01*
X64424Y-145479D01*
X67392Y-143765D01*
X69815Y-141342D01*
X71529Y-138374D01*
X72019Y-136544D01*
X90622Y-117942D01*
X103157D01*
X106257Y-117962D01*
X111904Y-118143D01*
X116103Y-118502D01*
X117623Y-118740D01*
X118754Y-119010D01*
X119440Y-119274D01*
X119604Y-119393D01*
X119634Y-119466D01*
Y-120166D01*
X120334D01*
X120407Y-120196D01*
X120527Y-120360D01*
X120790Y-121046D01*
X121049Y-122131D01*
X121838Y-133563D01*
X121859Y-136643D01*
Y-202970D01*
X122199Y-205556D01*
X123197Y-207966D01*
X124785Y-210035D01*
X125015Y-210265D01*
X127084Y-211853D01*
X129494Y-212851D01*
X132080Y-213192D01*
X134666Y-212851D01*
X137076Y-211853D01*
X139145Y-210265D01*
X140733Y-208196D01*
X141731Y-205786D01*
X142072Y-203200D01*
X141841Y-201453D01*
Y-136643D01*
X141862Y-133543D01*
X142043Y-127896D01*
X142402Y-123697D01*
X142640Y-122177D01*
X142870Y-121213D01*
X143506Y-120166D01*
X143507D01*
X143507Y-120166D01*
X144066Y-120166D01*
X144119Y-119120D01*
X144066Y-118991D01*
X144066Y-118896D01*
Y-95734D01*
X120904D01*
X120809Y-95734D01*
X120681Y-95681D01*
D02*
G37*
G36*
X332279Y-81534D02*
X328121D01*
X324014Y-82184D01*
X320060Y-83469D01*
X316355Y-85357D01*
X312991Y-87801D01*
X310051Y-90741D01*
X307607Y-94105D01*
X305719Y-97810D01*
X304434Y-101764D01*
X303784Y-105871D01*
Y-110029D01*
X304434Y-114136D01*
X305719Y-118090D01*
X307607Y-121795D01*
X310051Y-125159D01*
X312991Y-128099D01*
X316355Y-130543D01*
X320060Y-132431D01*
X324014Y-133716D01*
X328121Y-134366D01*
X332279D01*
X336386Y-133716D01*
X340340Y-132431D01*
X344045Y-130543D01*
X347409Y-128099D01*
X350349Y-125159D01*
X352793Y-121795D01*
X354681Y-118090D01*
X355966Y-114136D01*
X356616Y-110029D01*
Y-105871D01*
X355966Y-101764D01*
X354681Y-97810D01*
X352793Y-94105D01*
X350349Y-90741D01*
X347409Y-87801D01*
X344045Y-85357D01*
X340340Y-83469D01*
X336386Y-82184D01*
X332279Y-81534D01*
D02*
G37*
G36*
X-328121D02*
X-332279D01*
X-336386Y-82184D01*
X-340340Y-83469D01*
X-344045Y-85357D01*
X-347409Y-87801D01*
X-350349Y-90741D01*
X-352793Y-94105D01*
X-354681Y-97810D01*
X-355966Y-101764D01*
X-356616Y-105871D01*
Y-110029D01*
X-355966Y-114136D01*
X-354681Y-118090D01*
X-352793Y-121795D01*
X-350349Y-125159D01*
X-347409Y-128099D01*
X-344045Y-130543D01*
X-340340Y-132431D01*
X-336386Y-133716D01*
X-332279Y-134366D01*
X-328121D01*
X-324014Y-133716D01*
X-320060Y-132431D01*
X-316355Y-130543D01*
X-312991Y-128099D01*
X-310051Y-125159D01*
X-307607Y-121795D01*
X-305719Y-118090D01*
X-304434Y-114136D01*
X-303784Y-110029D01*
Y-105871D01*
X-304434Y-101764D01*
X-305719Y-97810D01*
X-307607Y-94105D01*
X-310051Y-90741D01*
X-312991Y-87801D01*
X-316355Y-85357D01*
X-320060Y-83469D01*
X-324014Y-82184D01*
X-328121Y-81534D01*
D02*
G37*
G36*
X-23686Y-117934D02*
X-27114D01*
X-30424Y-118821D01*
X-33392Y-120535D01*
X-35815Y-122958D01*
X-37529Y-125926D01*
X-38416Y-129236D01*
Y-132664D01*
X-37529Y-135974D01*
X-35815Y-138942D01*
X-33392Y-141365D01*
X-30424Y-143079D01*
X-27114Y-143966D01*
X-23686D01*
X-20376Y-143079D01*
X-17408Y-141365D01*
X-14985Y-138942D01*
X-13271Y-135974D01*
X-12384Y-132664D01*
Y-129236D01*
X-13271Y-125926D01*
X-14985Y-122958D01*
X-17408Y-120535D01*
X-20376Y-118821D01*
X-23686Y-117934D01*
D02*
G37*
G36*
X-57686D02*
X-61114D01*
X-64424Y-118821D01*
X-67392Y-120535D01*
X-69815Y-122958D01*
X-71529Y-125926D01*
X-72416Y-129236D01*
Y-132664D01*
X-71529Y-135974D01*
X-69815Y-138942D01*
X-67392Y-141365D01*
X-64424Y-143079D01*
X-61114Y-143966D01*
X-57686D01*
X-54376Y-143079D01*
X-51408Y-141365D01*
X-48985Y-138942D01*
X-47271Y-135974D01*
X-46384Y-132664D01*
Y-129236D01*
X-47271Y-125926D01*
X-48985Y-122958D01*
X-51408Y-120535D01*
X-54376Y-118821D01*
X-57686Y-117934D01*
D02*
G37*
G36*
X267500Y-167426D02*
X265900D01*
X264421Y-168039D01*
X263289Y-169171D01*
X262676Y-170650D01*
Y-172250D01*
X263289Y-173729D01*
X264421Y-174861D01*
X265900Y-175474D01*
X267500D01*
X268979Y-174861D01*
X270111Y-173729D01*
X270724Y-172250D01*
Y-170650D01*
X270111Y-169171D01*
X268979Y-168039D01*
X267500Y-167426D01*
D02*
G37*
G36*
X204000D02*
X202400D01*
X200921Y-168039D01*
X199789Y-169171D01*
X199176Y-170650D01*
Y-172250D01*
X199789Y-173729D01*
X200921Y-174861D01*
X202400Y-175474D01*
X204000D01*
X205479Y-174861D01*
X206611Y-173729D01*
X207224Y-172250D01*
Y-170650D01*
X206611Y-169171D01*
X205479Y-168039D01*
X204000Y-167426D01*
D02*
G37*
G36*
X77000D02*
X75400D01*
X73921Y-168039D01*
X72789Y-169171D01*
X72176Y-170650D01*
Y-172250D01*
X72789Y-173729D01*
X73921Y-174861D01*
X75400Y-175474D01*
X77000D01*
X78479Y-174861D01*
X79611Y-173729D01*
X80224Y-172250D01*
Y-170650D01*
X79611Y-169171D01*
X78479Y-168039D01*
X77000Y-167426D01*
D02*
G37*
G36*
X-50000D02*
X-51600D01*
X-53079Y-168039D01*
X-54211Y-169171D01*
X-54824Y-170650D01*
Y-172250D01*
X-54211Y-173729D01*
X-53079Y-174861D01*
X-51600Y-175474D01*
X-50000D01*
X-48521Y-174861D01*
X-47389Y-173729D01*
X-46776Y-172250D01*
Y-170650D01*
X-47389Y-169171D01*
X-48521Y-168039D01*
X-50000Y-167426D01*
D02*
G37*
G36*
X-113500D02*
X-115100D01*
X-116579Y-168039D01*
X-117711Y-169171D01*
X-118324Y-170650D01*
Y-172250D01*
X-117711Y-173729D01*
X-116579Y-174861D01*
X-115100Y-175474D01*
X-113500D01*
X-112021Y-174861D01*
X-110889Y-173729D01*
X-110276Y-172250D01*
Y-170650D01*
X-110889Y-169171D01*
X-112021Y-168039D01*
X-113500Y-167426D01*
D02*
G37*
G36*
X331337Y-162814D02*
X329063D01*
X326867Y-163403D01*
X324897Y-164540D01*
X323289Y-166147D01*
X322152Y-168117D01*
X321564Y-170313D01*
Y-172587D01*
X322152Y-174783D01*
X323289Y-176753D01*
X324897Y-178361D01*
X326867Y-179498D01*
X329063Y-180086D01*
X331337D01*
X333533Y-179498D01*
X335503Y-178361D01*
X337110Y-176753D01*
X338247Y-174783D01*
X338836Y-172587D01*
Y-170313D01*
X338247Y-168117D01*
X337110Y-166147D01*
X335503Y-164540D01*
X333533Y-163403D01*
X331337Y-162814D01*
D02*
G37*
G36*
X-24263Y-175514D02*
X-26537D01*
X-28733Y-176103D01*
X-30703Y-177239D01*
X-32311Y-178847D01*
X-33447Y-180817D01*
X-34036Y-183013D01*
Y-185287D01*
X-33447Y-187483D01*
X-32311Y-189453D01*
X-30703Y-191061D01*
X-28733Y-192197D01*
X-26537Y-192786D01*
X-24263D01*
X-22067Y-192197D01*
X-20097Y-191061D01*
X-18490Y-189453D01*
X-17352Y-187483D01*
X-16764Y-185287D01*
Y-183013D01*
X-17352Y-180817D01*
X-18490Y-178847D01*
X-20097Y-177239D01*
X-22067Y-176103D01*
X-24263Y-175514D01*
D02*
G37*
G36*
X158617Y-194564D02*
X157988D01*
Y-202692D01*
X166116D01*
Y-202063D01*
X165527Y-199867D01*
X164391Y-197897D01*
X162783Y-196290D01*
X160813Y-195152D01*
X158617Y-194564D01*
D02*
G37*
G36*
X156972D02*
X156343D01*
X154147Y-195152D01*
X152177Y-196290D01*
X150569Y-197897D01*
X149432Y-199867D01*
X148844Y-202063D01*
Y-202692D01*
X156972D01*
Y-194564D01*
D02*
G37*
G36*
X166116Y-203708D02*
X157988D01*
Y-211836D01*
X158617D01*
X160813Y-211248D01*
X162783Y-210110D01*
X164391Y-208503D01*
X165527Y-206533D01*
X166116Y-204337D01*
Y-203708D01*
D02*
G37*
G36*
X156972D02*
X148844D01*
Y-204337D01*
X149432Y-206533D01*
X150569Y-208503D01*
X152177Y-210110D01*
X154147Y-211248D01*
X156343Y-211836D01*
X156972D01*
Y-203708D01*
D02*
G37*
G36*
X-146183Y-194564D02*
X-148457D01*
X-150653Y-195152D01*
X-152623Y-196290D01*
X-154230Y-197897D01*
X-155367Y-199867D01*
X-155956Y-202063D01*
Y-204337D01*
X-155367Y-206533D01*
X-154230Y-208503D01*
X-152623Y-210110D01*
X-150653Y-211248D01*
X-148457Y-211836D01*
X-146183D01*
X-143987Y-211248D01*
X-142017Y-210110D01*
X-140409Y-208503D01*
X-139272Y-206533D01*
X-138684Y-204337D01*
Y-202063D01*
X-139272Y-199867D01*
X-140409Y-197897D01*
X-142017Y-196290D01*
X-143987Y-195152D01*
X-146183Y-194564D01*
D02*
G37*
G36*
X-171583D02*
X-173857D01*
X-176053Y-195152D01*
X-178023Y-196290D01*
X-179631Y-197897D01*
X-180767Y-199867D01*
X-181356Y-202063D01*
Y-204337D01*
X-180767Y-206533D01*
X-179631Y-208503D01*
X-178023Y-210110D01*
X-176053Y-211248D01*
X-173857Y-211836D01*
X-171583D01*
X-169387Y-211248D01*
X-167417Y-210110D01*
X-165809Y-208503D01*
X-164673Y-206533D01*
X-164084Y-204337D01*
Y-202063D01*
X-164673Y-199867D01*
X-165809Y-197897D01*
X-167417Y-196290D01*
X-169387Y-195152D01*
X-171583Y-194564D01*
D02*
G37*
G36*
X299250Y-230926D02*
X297650D01*
X296171Y-231539D01*
X295039Y-232671D01*
X294426Y-234150D01*
Y-235750D01*
X295039Y-237229D01*
X296171Y-238361D01*
X297650Y-238974D01*
X299250D01*
X300729Y-238361D01*
X301861Y-237229D01*
X302474Y-235750D01*
Y-234150D01*
X301861Y-232671D01*
X300729Y-231539D01*
X299250Y-230926D01*
D02*
G37*
G36*
X235750D02*
X234150D01*
X232671Y-231539D01*
X231539Y-232671D01*
X230926Y-234150D01*
Y-235750D01*
X231539Y-237229D01*
X232671Y-238361D01*
X234150Y-238974D01*
X235750D01*
X237229Y-238361D01*
X238361Y-237229D01*
X238974Y-235750D01*
Y-234150D01*
X238361Y-232671D01*
X237229Y-231539D01*
X235750Y-230926D01*
D02*
G37*
G36*
X172250D02*
X170650D01*
X169171Y-231539D01*
X168039Y-232671D01*
X167426Y-234150D01*
Y-235750D01*
X168039Y-237229D01*
X169171Y-238361D01*
X170650Y-238974D01*
X172250D01*
X173729Y-238361D01*
X174861Y-237229D01*
X175474Y-235750D01*
Y-234150D01*
X174861Y-232671D01*
X173729Y-231539D01*
X172250Y-230926D01*
D02*
G37*
G36*
X148796Y-228000D02*
X147204D01*
X145734Y-228609D01*
X144609Y-229734D01*
X144000Y-231204D01*
Y-232796D01*
X144374Y-233699D01*
Y-239119D01*
X143516Y-240034D01*
X143104Y-240034D01*
X136896D01*
X136484Y-240034D01*
X135626Y-239120D01*
Y-233699D01*
X136000Y-232796D01*
Y-231204D01*
X135391Y-229734D01*
X134266Y-228609D01*
X132796Y-228000D01*
X131204D01*
X129734Y-228609D01*
X128609Y-229734D01*
X128000Y-231204D01*
Y-232796D01*
X128374Y-233699D01*
Y-239119D01*
X127516Y-240034D01*
X127104Y-240034D01*
X120786D01*
X120484Y-240034D01*
X119516D01*
X119214Y-240034D01*
X112896D01*
X112484Y-240034D01*
X111626Y-239119D01*
Y-233699D01*
X112000Y-232796D01*
Y-231204D01*
X111391Y-229734D01*
X110266Y-228609D01*
X108796Y-228000D01*
X107204D01*
X105734Y-228609D01*
X104609Y-229734D01*
X104000Y-231204D01*
Y-232796D01*
X104374Y-233699D01*
Y-239120D01*
X103516Y-240034D01*
X103104Y-240034D01*
X96786D01*
X96484Y-240034D01*
X95516D01*
X95214Y-240034D01*
X88786D01*
X88484Y-240034D01*
X87516D01*
X87214Y-240034D01*
X80786D01*
X80484Y-240034D01*
X79516D01*
X79214Y-240034D01*
X72896D01*
X72484Y-240034D01*
X71626Y-239119D01*
Y-233699D01*
X72000Y-232796D01*
Y-231204D01*
X71391Y-229734D01*
X70266Y-228609D01*
X68796Y-228000D01*
X67204D01*
X65734Y-228609D01*
X64609Y-229734D01*
X64000Y-231204D01*
Y-232796D01*
X64374Y-233699D01*
Y-239120D01*
X63516Y-240034D01*
X63104Y-240034D01*
X56786D01*
X56484Y-240034D01*
X55516D01*
X55214Y-240034D01*
X48786D01*
X48484Y-240034D01*
X47516D01*
X47214Y-240034D01*
X46010D01*
X45757Y-238764D01*
X46729Y-238361D01*
X47861Y-237229D01*
X48474Y-235750D01*
Y-234150D01*
X47861Y-232671D01*
X46729Y-231539D01*
X45250Y-230926D01*
X43650D01*
X42171Y-231539D01*
X41039Y-232671D01*
X40426Y-234150D01*
Y-235750D01*
X41039Y-237229D01*
X42171Y-238361D01*
X43143Y-238764D01*
X42890Y-240034D01*
X40786D01*
X40484Y-240034D01*
X39516D01*
X39214Y-240034D01*
X32786D01*
X32484Y-240034D01*
X31516D01*
X31214Y-240034D01*
X24896D01*
X24484Y-240034D01*
X23626Y-239120D01*
Y-233699D01*
X24000Y-232796D01*
Y-231204D01*
X23391Y-229734D01*
X22266Y-228609D01*
X20796Y-228000D01*
X19204D01*
X17734Y-228609D01*
X16609Y-229734D01*
X16000Y-231204D01*
Y-232796D01*
X16374Y-233699D01*
Y-239120D01*
X15516Y-240034D01*
X15104Y-240034D01*
X8786D01*
X8484Y-240034D01*
X7516D01*
X7214Y-240034D01*
X786D01*
X484Y-240034D01*
X-484D01*
X-786Y-240034D01*
X-7104D01*
X-7516Y-240034D01*
X-8374Y-239120D01*
Y-233699D01*
X-8000Y-232796D01*
Y-231204D01*
X-8609Y-229734D01*
X-9734Y-228609D01*
X-11204Y-228000D01*
X-12796D01*
X-14266Y-228609D01*
X-15391Y-229734D01*
X-16000Y-231204D01*
Y-232796D01*
X-15626Y-233699D01*
Y-239120D01*
X-16484Y-240034D01*
X-16896Y-240034D01*
X-23104D01*
X-23516Y-240034D01*
X-24374Y-239120D01*
Y-233699D01*
X-24000Y-232796D01*
Y-231204D01*
X-24609Y-229734D01*
X-25734Y-228609D01*
X-27204Y-228000D01*
X-28796D01*
X-30266Y-228609D01*
X-31391Y-229734D01*
X-32000Y-231204D01*
Y-232796D01*
X-31626Y-233699D01*
Y-239120D01*
X-32484Y-240034D01*
X-32896Y-240034D01*
X-39214D01*
X-39516Y-240034D01*
X-40484D01*
X-40786Y-240034D01*
X-47104D01*
X-47516Y-240034D01*
X-48374Y-239120D01*
Y-233699D01*
X-48000Y-232796D01*
Y-231204D01*
X-48609Y-229734D01*
X-49734Y-228609D01*
X-51204Y-228000D01*
X-52796D01*
X-54266Y-228609D01*
X-55391Y-229734D01*
X-56000Y-231204D01*
Y-232796D01*
X-55626Y-233699D01*
Y-239119D01*
X-56484Y-240034D01*
X-56896Y-240034D01*
X-63214D01*
X-63516Y-240034D01*
X-64484D01*
X-64786Y-240034D01*
X-71104D01*
X-71516Y-240034D01*
X-72374Y-239120D01*
Y-233699D01*
X-72000Y-232796D01*
Y-231204D01*
X-72609Y-229734D01*
X-73734Y-228609D01*
X-75204Y-228000D01*
X-76796D01*
X-78266Y-228609D01*
X-79391Y-229734D01*
X-79709Y-230501D01*
X-80087Y-231200D01*
X-81242Y-231136D01*
X-81750Y-230926D01*
X-83350D01*
X-84829Y-231539D01*
X-85961Y-232671D01*
X-86574Y-234150D01*
Y-235750D01*
X-85961Y-237229D01*
X-84829Y-238361D01*
X-83857Y-238764D01*
X-84110Y-240034D01*
X-87214D01*
X-87516Y-240034D01*
X-88484D01*
X-88786Y-240034D01*
X-95104D01*
X-95516Y-240034D01*
X-96374Y-239120D01*
Y-233699D01*
X-96000Y-232796D01*
Y-231204D01*
X-96609Y-229734D01*
X-97734Y-228609D01*
X-99204Y-228000D01*
X-100796D01*
X-102266Y-228609D01*
X-103391Y-229734D01*
X-104000Y-231204D01*
Y-232796D01*
X-103626Y-233699D01*
Y-239119D01*
X-104484Y-240034D01*
X-104896Y-240034D01*
X-111214D01*
X-111516Y-240034D01*
X-112484D01*
X-112786Y-240034D01*
X-119104D01*
X-119516Y-240034D01*
X-120374Y-239120D01*
Y-233699D01*
X-120000Y-232796D01*
Y-231204D01*
X-120609Y-229734D01*
X-121734Y-228609D01*
X-123204Y-228000D01*
X-124796D01*
X-126266Y-228609D01*
X-127391Y-229734D01*
X-128000Y-231204D01*
Y-232796D01*
X-127626Y-233699D01*
Y-239119D01*
X-128484Y-240034D01*
X-128896Y-240034D01*
X-131492D01*
Y-251050D01*
Y-262066D01*
X-128786D01*
X-128484Y-262066D01*
X-127516D01*
X-127214Y-262066D01*
X-120786D01*
X-120484Y-262066D01*
X-119516D01*
X-119214Y-262066D01*
X-112786D01*
X-112484Y-262066D01*
X-111516D01*
X-111214Y-262066D01*
X-104786D01*
X-104484Y-262066D01*
X-103516D01*
X-103214Y-262066D01*
X-96786D01*
X-96484Y-262066D01*
X-95516D01*
X-95214Y-262066D01*
X-88786D01*
X-88484Y-262066D01*
X-87516D01*
X-87214Y-262066D01*
X-80786D01*
X-80484Y-262066D01*
X-79516D01*
X-79214Y-262066D01*
X-72786D01*
X-72484Y-262066D01*
X-71516D01*
X-71214Y-262066D01*
X-64786D01*
X-64484Y-262066D01*
X-63516D01*
X-63214Y-262066D01*
X-56786D01*
X-56484Y-262066D01*
X-55516D01*
X-55214Y-262066D01*
X-48786D01*
X-48484Y-262066D01*
X-47516D01*
X-47214Y-262066D01*
X-40786D01*
X-40484Y-262066D01*
X-39516D01*
X-39214Y-262066D01*
X-32786D01*
X-32484Y-262066D01*
X-31516D01*
X-31214Y-262066D01*
X-24896D01*
X-24484Y-262066D01*
X-23626Y-262980D01*
Y-268300D01*
X-24000Y-269204D01*
Y-270796D01*
X-23391Y-272266D01*
X-22266Y-273391D01*
X-20796Y-274000D01*
X-19204D01*
X-17734Y-273391D01*
X-16609Y-272266D01*
X-16000Y-270796D01*
Y-269204D01*
X-16374Y-268301D01*
Y-262980D01*
X-15516Y-262066D01*
X-15104Y-262066D01*
X-8896D01*
X-8484Y-262066D01*
X-7626Y-262980D01*
Y-268301D01*
X-8000Y-269204D01*
Y-270796D01*
X-7391Y-272266D01*
X-6266Y-273391D01*
X-4796Y-274000D01*
X-3204D01*
X-1734Y-273391D01*
X-609Y-272266D01*
X0Y-270796D01*
Y-269204D01*
X-374Y-268301D01*
Y-262980D01*
X484Y-262066D01*
X896Y-262066D01*
X7214D01*
X7516Y-262066D01*
X8484D01*
X8786Y-262066D01*
X15214D01*
X15516Y-262066D01*
X16484D01*
X16786Y-262066D01*
X23214D01*
X23516Y-262066D01*
X24484D01*
X24786Y-262066D01*
X31214D01*
X31516Y-262066D01*
X32484D01*
X32786Y-262066D01*
X39104D01*
X39516Y-262066D01*
X40374Y-262980D01*
Y-268301D01*
X40000Y-269204D01*
Y-270796D01*
X40609Y-272266D01*
X41734Y-273391D01*
X43204Y-274000D01*
X44796D01*
X46266Y-273391D01*
X47391Y-272266D01*
X48000Y-270796D01*
Y-269204D01*
X47626Y-268300D01*
Y-262980D01*
X48484Y-262066D01*
X48896Y-262066D01*
X55214D01*
X55516Y-262066D01*
X56484D01*
X56786Y-262066D01*
X63214D01*
X63516Y-262066D01*
X64484D01*
X64786Y-262066D01*
X71214D01*
X71516Y-262066D01*
X72484D01*
X72786Y-262066D01*
X79214D01*
X79516Y-262066D01*
X80484D01*
X80786Y-262066D01*
X87104D01*
X87516Y-262066D01*
X88374Y-262980D01*
Y-268301D01*
X88000Y-269204D01*
Y-270796D01*
X88609Y-272266D01*
X89734Y-273391D01*
X91204Y-274000D01*
X92796D01*
X94266Y-273391D01*
X95391Y-272266D01*
X96000Y-270796D01*
Y-269204D01*
X95626Y-268301D01*
Y-262981D01*
X96484Y-262066D01*
X96896Y-262066D01*
X103214D01*
X103516Y-262066D01*
X104484D01*
X104786Y-262066D01*
X111214D01*
X111516Y-262066D01*
X112484D01*
X112786Y-262066D01*
X119104D01*
X119516Y-262066D01*
X120374Y-262980D01*
Y-268301D01*
X120000Y-269204D01*
Y-270796D01*
X120609Y-272266D01*
X121734Y-273391D01*
X123204Y-274000D01*
X124796D01*
X126266Y-273391D01*
X127391Y-272266D01*
X128000Y-270796D01*
Y-269204D01*
X127626Y-268301D01*
Y-262980D01*
X128484Y-262066D01*
X128896Y-262066D01*
X135104D01*
X135516Y-262066D01*
X136374Y-262981D01*
Y-268301D01*
X136000Y-269204D01*
Y-270796D01*
X136609Y-272266D01*
X137734Y-273391D01*
X139204Y-274000D01*
X140796D01*
X142266Y-273391D01*
X143391Y-272266D01*
X144000Y-270796D01*
Y-269204D01*
X143626Y-268301D01*
Y-262980D01*
X144484Y-262066D01*
X144896Y-262066D01*
X151104D01*
X151516Y-262066D01*
X152374Y-262981D01*
Y-268301D01*
X152000Y-269204D01*
Y-270796D01*
X152609Y-272266D01*
X153734Y-273391D01*
X155204Y-274000D01*
X156796D01*
X158266Y-273391D01*
X159391Y-272266D01*
X160000Y-270796D01*
Y-269204D01*
X159626Y-268301D01*
Y-251051D01*
X159626Y-251050D01*
X159516Y-250499D01*
Y-240034D01*
X152896D01*
X152484Y-240034D01*
X151626Y-239120D01*
Y-233699D01*
X152000Y-232796D01*
Y-231204D01*
X151391Y-229734D01*
X150266Y-228609D01*
X148796Y-228000D01*
D02*
G37*
G36*
X-135516Y-240034D02*
X-136484D01*
X-136786Y-240034D01*
X-139492D01*
Y-251050D01*
Y-262066D01*
X-136786D01*
X-136484Y-262066D01*
X-135516D01*
X-135214Y-262066D01*
X-132508D01*
Y-251050D01*
Y-240034D01*
X-135214D01*
X-135516Y-240034D01*
D02*
G37*
G36*
X-155204Y-228000D02*
X-156796D01*
X-158266Y-228609D01*
X-159391Y-229734D01*
X-160000Y-231204D01*
Y-232796D01*
X-159626Y-233699D01*
Y-251049D01*
X-159626Y-251050D01*
X-159516Y-251602D01*
Y-262066D01*
X-152786D01*
X-152484Y-262066D01*
X-151516D01*
X-151214Y-262066D01*
X-148508D01*
Y-251050D01*
X-147492D01*
Y-262066D01*
X-144786D01*
X-144484Y-262066D01*
X-143516D01*
X-143214Y-262066D01*
X-140508D01*
Y-251050D01*
Y-240034D01*
X-143214D01*
X-143516Y-240034D01*
X-144490D01*
X-144743Y-238764D01*
X-143771Y-238361D01*
X-142639Y-237229D01*
X-142026Y-235750D01*
Y-234150D01*
X-142639Y-232671D01*
X-143771Y-231539D01*
X-145250Y-230926D01*
X-146850D01*
X-148329Y-231539D01*
X-149461Y-232671D01*
X-150074Y-234150D01*
Y-235750D01*
X-149461Y-237229D01*
X-148329Y-238361D01*
X-147357Y-238764D01*
X-147610Y-240034D01*
X-151104D01*
X-151516Y-240034D01*
X-152374Y-239119D01*
Y-233699D01*
X-152000Y-232796D01*
Y-231204D01*
X-152609Y-229734D01*
X-153734Y-228609D01*
X-155204Y-228000D01*
D02*
G37*
G36*
X331337Y-251714D02*
X329063D01*
X326867Y-252302D01*
X324897Y-253440D01*
X323289Y-255047D01*
X322152Y-257017D01*
X321564Y-259213D01*
Y-261487D01*
X322152Y-263683D01*
X323289Y-265653D01*
X324897Y-267260D01*
X326867Y-268398D01*
X329063Y-268986D01*
X331337D01*
X333533Y-268398D01*
X335503Y-267260D01*
X337110Y-265653D01*
X338247Y-263683D01*
X338836Y-261487D01*
Y-259213D01*
X338247Y-257017D01*
X337110Y-255047D01*
X335503Y-253440D01*
X333533Y-252302D01*
X331337Y-251714D01*
D02*
G37*
G36*
X152484Y-284034D02*
X151516D01*
X151214Y-284034D01*
X148508D01*
Y-295050D01*
Y-306066D01*
X151104D01*
X151516Y-306066D01*
X152374Y-306980D01*
Y-312300D01*
X152000Y-313204D01*
Y-314796D01*
X152609Y-316266D01*
X153734Y-317391D01*
X155204Y-318000D01*
X156796D01*
X158266Y-317391D01*
X159391Y-316266D01*
X160000Y-314796D01*
Y-313204D01*
X159626Y-312301D01*
Y-295050D01*
X159516Y-294499D01*
Y-284034D01*
X152786D01*
X152484Y-284034D01*
D02*
G37*
G36*
X144484D02*
X143516D01*
X143214Y-284034D01*
X140508D01*
Y-295050D01*
Y-306066D01*
X143214D01*
X143516Y-306066D01*
X144484D01*
X144786Y-306066D01*
X147492D01*
Y-295050D01*
Y-284034D01*
X144786D01*
X144484Y-284034D01*
D02*
G37*
G36*
X136484D02*
X135516D01*
X135214Y-284034D01*
X132508D01*
Y-295050D01*
Y-306066D01*
X135214D01*
X135516Y-306066D01*
X136484D01*
X136786Y-306066D01*
X139492D01*
Y-295050D01*
Y-284034D01*
X136786D01*
X136484Y-284034D01*
D02*
G37*
G36*
X128484D02*
X127516D01*
X127214Y-284034D01*
X120786D01*
X120484Y-284034D01*
X119516D01*
X119214Y-284034D01*
X112786D01*
X112484Y-284034D01*
X111516D01*
X111214Y-284034D01*
X104786D01*
X104484Y-284034D01*
X103516D01*
X103214Y-284034D01*
X96786D01*
X96484Y-284034D01*
X95516D01*
X95214Y-284034D01*
X88786D01*
X88484Y-284034D01*
X87516D01*
X87214Y-284034D01*
X80786D01*
X80484Y-284034D01*
X79516D01*
X79214Y-284034D01*
X72786D01*
X72484Y-284034D01*
X71516D01*
X71214Y-284034D01*
X64786D01*
X64484Y-284034D01*
X63516D01*
X63214Y-284034D01*
X56786D01*
X56484Y-284034D01*
X55516D01*
X55214Y-284034D01*
X48786D01*
X48484Y-284034D01*
X47516D01*
X47214Y-284034D01*
X40786D01*
X40484Y-284034D01*
X39516D01*
X39214Y-284034D01*
X32786D01*
X32484Y-284034D01*
X31516D01*
X31214Y-284034D01*
X24786D01*
X24484Y-284034D01*
X23516D01*
X23214Y-284034D01*
X16786D01*
X16484Y-284034D01*
X15516D01*
X15214Y-284034D01*
X8786D01*
X8484Y-284034D01*
X7516D01*
X7214Y-284034D01*
X786D01*
X484Y-284034D01*
X-484D01*
X-786Y-284034D01*
X-7214D01*
X-7516Y-284034D01*
X-8484D01*
X-8786Y-284034D01*
X-11492D01*
Y-295050D01*
Y-306066D01*
X-8896D01*
X-8484Y-306066D01*
X-7626Y-306980D01*
Y-312301D01*
X-8000Y-313204D01*
Y-314796D01*
X-7391Y-316266D01*
X-6266Y-317391D01*
X-4796Y-318000D01*
X-3204D01*
X-1734Y-317391D01*
X-609Y-316266D01*
X0Y-314796D01*
Y-313204D01*
X-374Y-312301D01*
Y-306980D01*
X484Y-306066D01*
X896Y-306066D01*
X7214D01*
X7516Y-306066D01*
X8484D01*
X8786Y-306066D01*
X15104D01*
X15516Y-306066D01*
X16374Y-306980D01*
Y-312301D01*
X16000Y-313204D01*
Y-314796D01*
X16609Y-316266D01*
X17734Y-317391D01*
X19204Y-318000D01*
X20796D01*
X22266Y-317391D01*
X23391Y-316266D01*
X24000Y-314796D01*
Y-313204D01*
X23626Y-312300D01*
Y-306980D01*
X24484Y-306066D01*
X24896Y-306066D01*
X31214D01*
X31516Y-306066D01*
X32484D01*
X32786Y-306066D01*
X39104D01*
X39516Y-306066D01*
X40374Y-306980D01*
Y-312301D01*
X40000Y-313204D01*
Y-314796D01*
X40609Y-316266D01*
X41734Y-317391D01*
X43204Y-318000D01*
X44796D01*
X46266Y-317391D01*
X47391Y-316266D01*
X48000Y-314796D01*
Y-313204D01*
X47626Y-312300D01*
Y-306980D01*
X48484Y-306066D01*
X48896Y-306066D01*
X55214D01*
X55516Y-306066D01*
X56484D01*
X56786Y-306066D01*
X63104D01*
X63516Y-306066D01*
X64374Y-306980D01*
Y-312301D01*
X64000Y-313204D01*
Y-314796D01*
X64609Y-316266D01*
X65734Y-317391D01*
X67204Y-318000D01*
X68796D01*
X70266Y-317391D01*
X71391Y-316266D01*
X72000Y-314796D01*
Y-313204D01*
X71625Y-312300D01*
Y-306980D01*
X72484Y-306066D01*
X72896Y-306066D01*
X79214D01*
X79516Y-306066D01*
X80484D01*
X80786Y-306066D01*
X87104D01*
X87516Y-306066D01*
X88374Y-306980D01*
Y-312301D01*
X88000Y-313204D01*
Y-314796D01*
X88609Y-316266D01*
X89734Y-317391D01*
X91204Y-318000D01*
X92796D01*
X94266Y-317391D01*
X95391Y-316266D01*
X96000Y-314796D01*
Y-313204D01*
X95625Y-312300D01*
Y-306980D01*
X96484Y-306066D01*
X96896Y-306066D01*
X103104D01*
X103516Y-306066D01*
X104374Y-306980D01*
Y-312301D01*
X104000Y-313204D01*
Y-314796D01*
X104609Y-316266D01*
X105734Y-317391D01*
X107204Y-318000D01*
X108796D01*
X110266Y-317391D01*
X111391Y-316266D01*
X112000Y-314796D01*
Y-313204D01*
X111625Y-312300D01*
Y-306980D01*
X112484Y-306066D01*
X112895Y-306066D01*
X119105D01*
X119516Y-306066D01*
X120375Y-306980D01*
Y-312300D01*
X120000Y-313204D01*
Y-314796D01*
X120609Y-316266D01*
X121734Y-317391D01*
X123204Y-318000D01*
X124796D01*
X126266Y-317391D01*
X127391Y-316266D01*
X128000Y-314796D01*
Y-313204D01*
X127626Y-312301D01*
Y-306980D01*
X128484Y-306066D01*
X128896Y-306066D01*
X131492D01*
Y-295050D01*
Y-284034D01*
X128786D01*
X128484Y-284034D01*
D02*
G37*
G36*
X-15516D02*
X-16484D01*
X-16786Y-284034D01*
X-19492D01*
Y-295050D01*
Y-306066D01*
X-16786D01*
X-16484Y-306066D01*
X-15516D01*
X-15214Y-306066D01*
X-12508D01*
Y-295050D01*
Y-284034D01*
X-15214D01*
X-15516Y-284034D01*
D02*
G37*
G36*
X-131204Y-272000D02*
X-132796D01*
X-134266Y-272609D01*
X-135391Y-273734D01*
X-136000Y-275204D01*
Y-276796D01*
X-135625Y-277700D01*
Y-283120D01*
X-136484Y-284034D01*
X-136895Y-284034D01*
X-143104D01*
X-143516Y-284034D01*
X-144375Y-283120D01*
Y-277700D01*
X-144000Y-276796D01*
Y-275204D01*
X-144609Y-273734D01*
X-145734Y-272609D01*
X-147204Y-272000D01*
X-148796D01*
X-150266Y-272609D01*
X-151391Y-273734D01*
X-152000Y-275204D01*
Y-276796D01*
X-151626Y-277699D01*
Y-283120D01*
X-152484Y-284034D01*
X-152896Y-284034D01*
X-159516D01*
Y-294499D01*
X-159626Y-295050D01*
Y-312301D01*
X-160000Y-313204D01*
Y-314796D01*
X-159391Y-316266D01*
X-158266Y-317391D01*
X-156796Y-318000D01*
X-155204D01*
X-153734Y-317391D01*
X-152609Y-316266D01*
X-152000Y-314796D01*
Y-313204D01*
X-152374Y-312300D01*
Y-306980D01*
X-151516Y-306066D01*
X-151104Y-306066D01*
X-144896D01*
X-144484Y-306066D01*
X-143626Y-306980D01*
Y-312301D01*
X-144000Y-313204D01*
Y-314796D01*
X-143391Y-316266D01*
X-142266Y-317391D01*
X-140796Y-318000D01*
X-139204D01*
X-137734Y-317391D01*
X-136609Y-316266D01*
X-136000Y-314796D01*
Y-313204D01*
X-136375Y-312300D01*
Y-306980D01*
X-135516Y-306066D01*
X-135105Y-306066D01*
X-128895D01*
X-128484Y-306066D01*
X-127625Y-306980D01*
Y-312300D01*
X-128000Y-313204D01*
Y-314796D01*
X-127391Y-316266D01*
X-126266Y-317391D01*
X-124796Y-318000D01*
X-123204D01*
X-121734Y-317391D01*
X-120609Y-316266D01*
X-120000Y-314796D01*
Y-313204D01*
X-120374Y-312301D01*
Y-306980D01*
X-119516Y-306066D01*
X-119104Y-306066D01*
X-112786D01*
X-112484Y-306066D01*
X-111516D01*
X-111214Y-306066D01*
X-104895D01*
X-104484Y-306066D01*
X-103625Y-306980D01*
Y-312300D01*
X-104000Y-313204D01*
Y-314796D01*
X-103391Y-316266D01*
X-102266Y-317391D01*
X-100796Y-318000D01*
X-99204D01*
X-97734Y-317391D01*
X-96609Y-316266D01*
X-96000Y-314796D01*
Y-313204D01*
X-96374Y-312301D01*
Y-306980D01*
X-95516Y-306066D01*
X-95104Y-306066D01*
X-88786D01*
X-88484Y-306066D01*
X-87516D01*
X-87214Y-306066D01*
X-80896D01*
X-80484Y-306066D01*
X-79626Y-306980D01*
Y-312300D01*
X-80000Y-313204D01*
Y-314796D01*
X-79391Y-316266D01*
X-78266Y-317391D01*
X-76796Y-318000D01*
X-75204D01*
X-73734Y-317391D01*
X-72609Y-316266D01*
X-72000Y-314796D01*
Y-313204D01*
X-72374Y-312301D01*
Y-306980D01*
X-71516Y-306066D01*
X-71104Y-306066D01*
X-64786D01*
X-64484Y-306066D01*
X-63516D01*
X-63214Y-306066D01*
X-56896D01*
X-56484Y-306066D01*
X-55626Y-306980D01*
Y-312300D01*
X-56000Y-313204D01*
Y-314796D01*
X-55391Y-316266D01*
X-54266Y-317391D01*
X-52796Y-318000D01*
X-51204D01*
X-49734Y-317391D01*
X-48609Y-316266D01*
X-48000Y-314796D01*
Y-313204D01*
X-48374Y-312301D01*
Y-306980D01*
X-47516Y-306066D01*
X-47104Y-306066D01*
X-40786D01*
X-40484Y-306066D01*
X-39516D01*
X-39214Y-306066D01*
X-32896D01*
X-32484Y-306066D01*
X-31626Y-306980D01*
Y-312300D01*
X-32000Y-313204D01*
Y-314796D01*
X-31391Y-316266D01*
X-30266Y-317391D01*
X-28796Y-318000D01*
X-27204D01*
X-25734Y-317391D01*
X-24609Y-316266D01*
X-24000Y-314796D01*
Y-313204D01*
X-24374Y-312301D01*
Y-306980D01*
X-23516Y-306066D01*
X-23104Y-306066D01*
X-20508D01*
Y-295050D01*
Y-284034D01*
X-23214D01*
X-23516Y-284034D01*
X-24484D01*
X-24786Y-284034D01*
X-31214D01*
X-31516Y-284034D01*
X-32484D01*
X-32786Y-284034D01*
X-39214D01*
X-39516Y-284034D01*
X-40484D01*
X-40786Y-284034D01*
X-47214D01*
X-47516Y-284034D01*
X-48484D01*
X-48786Y-284034D01*
X-55214D01*
X-55516Y-284034D01*
X-56484D01*
X-56786Y-284034D01*
X-63214D01*
X-63516Y-284034D01*
X-64484D01*
X-64786Y-284034D01*
X-71214D01*
X-71516Y-284034D01*
X-72484D01*
X-72786Y-284034D01*
X-79214D01*
X-79516Y-284034D01*
X-80484D01*
X-80786Y-284034D01*
X-87214D01*
X-87516Y-284034D01*
X-88484D01*
X-88786Y-284034D01*
X-95214D01*
X-95516Y-284034D01*
X-96484D01*
X-96786Y-284034D01*
X-103214D01*
X-103516Y-284034D01*
X-104484D01*
X-104786Y-284034D01*
X-111214D01*
X-111516Y-284034D01*
X-112484D01*
X-112786Y-284034D01*
X-119214D01*
X-119516Y-284034D01*
X-120484D01*
X-120786Y-284034D01*
X-127104D01*
X-127516Y-284034D01*
X-128374Y-283120D01*
Y-277699D01*
X-128000Y-276796D01*
Y-275204D01*
X-128609Y-273734D01*
X-129734Y-272609D01*
X-131204Y-272000D01*
D02*
G37*
G36*
X249716Y-279210D02*
X248124D01*
X246654Y-279819D01*
X245529Y-280944D01*
X244920Y-282414D01*
Y-284006D01*
X245529Y-285476D01*
X246654Y-286601D01*
X248124Y-287210D01*
X249716D01*
X251186Y-286601D01*
X252311Y-285476D01*
X252920Y-284006D01*
Y-282414D01*
X252311Y-280944D01*
X251186Y-279819D01*
X249716Y-279210D01*
D02*
G37*
G36*
X-248124D02*
X-249716D01*
X-251186Y-279819D01*
X-252311Y-280944D01*
X-252920Y-282414D01*
Y-284006D01*
X-252311Y-285476D01*
X-251186Y-286601D01*
X-249716Y-287210D01*
X-248124D01*
X-246654Y-286601D01*
X-245529Y-285476D01*
X-244920Y-284006D01*
Y-282414D01*
X-245529Y-280944D01*
X-246654Y-279819D01*
X-248124Y-279210D01*
D02*
G37*
G36*
X267500Y-294426D02*
X265900D01*
X264421Y-295039D01*
X263289Y-296171D01*
X262676Y-297650D01*
Y-299250D01*
X263289Y-300729D01*
X264421Y-301861D01*
X265900Y-302474D01*
X267500D01*
X268979Y-301861D01*
X270111Y-300729D01*
X270724Y-299250D01*
Y-297650D01*
X270111Y-296171D01*
X268979Y-295039D01*
X267500Y-294426D01*
D02*
G37*
G36*
X204000D02*
X202400D01*
X200921Y-295039D01*
X199789Y-296171D01*
X199176Y-297650D01*
Y-299250D01*
X199789Y-300729D01*
X200921Y-301861D01*
X202400Y-302474D01*
X204000D01*
X205479Y-301861D01*
X206611Y-300729D01*
X207224Y-299250D01*
Y-297650D01*
X206611Y-296171D01*
X205479Y-295039D01*
X204000Y-294426D01*
D02*
G37*
G36*
X-177000D02*
X-178600D01*
X-180079Y-295039D01*
X-181211Y-296171D01*
X-181824Y-297650D01*
Y-299250D01*
X-181211Y-300729D01*
X-180079Y-301861D01*
X-178600Y-302474D01*
X-177000D01*
X-175521Y-301861D01*
X-174389Y-300729D01*
X-173776Y-299250D01*
Y-297650D01*
X-174389Y-296171D01*
X-175521Y-295039D01*
X-177000Y-294426D01*
D02*
G37*
G36*
X-304000D02*
X-305600D01*
X-307079Y-295039D01*
X-308211Y-296171D01*
X-308824Y-297650D01*
Y-299250D01*
X-308211Y-300729D01*
X-307079Y-301861D01*
X-305600Y-302474D01*
X-304000D01*
X-302521Y-301861D01*
X-301389Y-300729D01*
X-300776Y-299250D01*
Y-297650D01*
X-301389Y-296171D01*
X-302521Y-295039D01*
X-304000Y-294426D01*
D02*
G37*
G36*
X332279Y-297434D02*
X328121D01*
X324014Y-298084D01*
X320060Y-299369D01*
X316355Y-301257D01*
X312991Y-303701D01*
X310051Y-306641D01*
X307607Y-310005D01*
X305719Y-313710D01*
X304434Y-317664D01*
X303784Y-321771D01*
Y-325929D01*
X304434Y-330036D01*
X305719Y-333990D01*
X307607Y-337695D01*
X310051Y-341059D01*
X312991Y-343999D01*
X316355Y-346443D01*
X320060Y-348331D01*
X324014Y-349616D01*
X328121Y-350266D01*
X332279D01*
X336386Y-349616D01*
X340340Y-348331D01*
X344045Y-346443D01*
X347409Y-343999D01*
X350349Y-341059D01*
X352793Y-337695D01*
X354681Y-333990D01*
X355966Y-330036D01*
X356616Y-325929D01*
Y-321771D01*
X355966Y-317664D01*
X354681Y-313710D01*
X352793Y-310005D01*
X350349Y-306641D01*
X347409Y-303701D01*
X344045Y-301257D01*
X340340Y-299369D01*
X336386Y-298084D01*
X332279Y-297434D01*
D02*
G37*
G36*
X-328121D02*
X-332279D01*
X-336386Y-298084D01*
X-340340Y-299369D01*
X-344045Y-301257D01*
X-347409Y-303701D01*
X-350349Y-306641D01*
X-352793Y-310005D01*
X-354681Y-313710D01*
X-355966Y-317664D01*
X-356616Y-321771D01*
Y-325929D01*
X-355966Y-330036D01*
X-354681Y-333990D01*
X-352793Y-337695D01*
X-350349Y-341059D01*
X-347409Y-343999D01*
X-344045Y-346443D01*
X-340340Y-348331D01*
X-336386Y-349616D01*
X-332279Y-350266D01*
X-328121D01*
X-324014Y-349616D01*
X-320060Y-348331D01*
X-316355Y-346443D01*
X-312991Y-343999D01*
X-310051Y-341059D01*
X-307607Y-337695D01*
X-305719Y-333990D01*
X-304434Y-330036D01*
X-303784Y-325929D01*
Y-321771D01*
X-304434Y-317664D01*
X-305719Y-313710D01*
X-307607Y-310005D01*
X-310051Y-306641D01*
X-312991Y-303701D01*
X-316355Y-301257D01*
X-320060Y-299369D01*
X-324014Y-298084D01*
X-328121Y-297434D01*
D02*
G37*
%LPD*%
G36*
X251460Y22860D02*
Y-2540D01*
X248920Y-5080D01*
X228600Y-5080D01*
X187960Y-5080D01*
X185370Y-2540D01*
Y22860D01*
X187960Y25400D01*
X248920D01*
X251460Y22860D01*
D02*
G37*
%LPC*%
G36*
X244492Y21058D02*
X244348D01*
Y18288D01*
X247118D01*
Y18432D01*
X246619Y19637D01*
X245697Y20559D01*
X244492Y21058D01*
D02*
G37*
G36*
X243332D02*
X243188D01*
X241983Y20559D01*
X241061Y19637D01*
X240562Y18432D01*
Y18288D01*
X243332D01*
Y21058D01*
D02*
G37*
G36*
X231792D02*
X231648D01*
Y18288D01*
X234418D01*
Y18432D01*
X233919Y19637D01*
X232997Y20559D01*
X231792Y21058D01*
D02*
G37*
G36*
X230632D02*
X230488D01*
X229283Y20559D01*
X228361Y19637D01*
X227862Y18432D01*
Y18288D01*
X230632D01*
Y21058D01*
D02*
G37*
G36*
X247118Y17272D02*
X244348D01*
Y14502D01*
X244492D01*
X245697Y15001D01*
X246619Y15923D01*
X247118Y17128D01*
Y17272D01*
D02*
G37*
G36*
X243332D02*
X240562D01*
Y17128D01*
X241061Y15923D01*
X241983Y15001D01*
X243188Y14502D01*
X243332D01*
Y17272D01*
D02*
G37*
G36*
X234418D02*
X231648D01*
Y14502D01*
X231792D01*
X232997Y15001D01*
X233919Y15923D01*
X234418Y17128D01*
Y17272D01*
D02*
G37*
G36*
X230632D02*
X227862D01*
Y17128D01*
X228361Y15923D01*
X229283Y15001D01*
X230488Y14502D01*
X230632D01*
Y17272D01*
D02*
G37*
G36*
X221516Y19176D02*
X206008D01*
Y10668D01*
X221516D01*
Y19176D01*
D02*
G37*
G36*
X204992D02*
X189484D01*
Y10668D01*
X204992D01*
Y19176D01*
D02*
G37*
G36*
X244492Y5818D02*
X244348D01*
Y3048D01*
X247118D01*
Y3192D01*
X246619Y4397D01*
X245697Y5319D01*
X244492Y5818D01*
D02*
G37*
G36*
X243332D02*
X243188D01*
X241983Y5319D01*
X241061Y4397D01*
X240562Y3192D01*
Y3048D01*
X243332D01*
Y5818D01*
D02*
G37*
G36*
X231792D02*
X231648D01*
Y3048D01*
X234418D01*
Y3192D01*
X233919Y4397D01*
X232997Y5319D01*
X231792Y5818D01*
D02*
G37*
G36*
X230632D02*
X230488D01*
X229283Y5319D01*
X228361Y4397D01*
X227862Y3192D01*
Y3048D01*
X230632D01*
Y5818D01*
D02*
G37*
G36*
X221516Y9652D02*
X206008D01*
Y1144D01*
X221516D01*
Y9652D01*
D02*
G37*
G36*
X204992D02*
X189484D01*
Y1144D01*
X204992D01*
Y9652D01*
D02*
G37*
G36*
X247118Y2032D02*
X244348D01*
Y-738D01*
X244492D01*
X245697Y-239D01*
X246619Y683D01*
X247118Y1888D01*
Y2032D01*
D02*
G37*
G36*
X243332D02*
X240562D01*
Y1888D01*
X241061Y683D01*
X241983Y-239D01*
X243188Y-738D01*
X243332D01*
Y2032D01*
D02*
G37*
G36*
X234418D02*
X231648D01*
Y-738D01*
X231792D01*
X232997Y-239D01*
X233919Y683D01*
X234418Y1888D01*
Y2032D01*
D02*
G37*
G36*
X230632D02*
X227862D01*
Y1888D01*
X228361Y683D01*
X229283Y-239D01*
X230488Y-738D01*
X230632D01*
Y2032D01*
D02*
G37*
%LPD*%
G36*
X135979Y35166D02*
X136030Y34581D01*
X139220D01*
X138587Y34403D01*
X138021Y33869D01*
X137521Y32980D01*
X137089Y31736D01*
X136722Y30136D01*
X136653Y29686D01*
X136690Y29466D01*
X137312Y27151D01*
X138112Y25192D01*
X139090Y23589D01*
X140246Y22342D01*
X141580Y21451D01*
X143091Y20917D01*
X144780Y20739D01*
X135972D01*
X135890Y16801D01*
X118110D01*
X118077Y20179D01*
X118042Y20739D01*
X109220D01*
X110909Y20917D01*
X112420Y21451D01*
X113754Y22342D01*
X114910Y23589D01*
X115887Y25192D01*
X116688Y27151D01*
X117310Y29466D01*
X117346Y29686D01*
X117278Y30136D01*
X116911Y31736D01*
X116479Y32980D01*
X115979Y33869D01*
X115413Y34403D01*
X114781Y34581D01*
X117970D01*
X118021Y35166D01*
X118110Y38549D01*
X135890D01*
X135979Y35166D01*
D02*
G37*
G36*
X93531Y-46170D02*
X93353Y-45575D01*
X92819Y-45043D01*
X91930Y-44573D01*
X90686Y-44167D01*
X89086Y-43822D01*
X87130Y-43541D01*
X82151Y-43165D01*
X75750Y-43040D01*
Y-25260D01*
X79133Y-25171D01*
X82159Y-24904D01*
X84830Y-24460D01*
X87145Y-23838D01*
X89104Y-23038D01*
X90707Y-22060D01*
X91954Y-20904D01*
X92846Y-19570D01*
X93381Y-18059D01*
X93561Y-16370D01*
X93531Y-46170D01*
D02*
G37*
G36*
X220490Y-30963D02*
X220643Y-31394D01*
X220899Y-31775D01*
X221257Y-32106D01*
X221717Y-32385D01*
X222279Y-32614D01*
X222943Y-32791D01*
X223710Y-32918D01*
X224578Y-32995D01*
X224691Y-32998D01*
X226812Y-32847D01*
X227370Y-32750D01*
X227828Y-32631D01*
X228183Y-32491D01*
X228437Y-32329D01*
X228590Y-32146D01*
X228640Y-31941D01*
Y-39179D01*
X228590Y-38974D01*
X228437Y-38791D01*
X228183Y-38629D01*
X227828Y-38489D01*
X227370Y-38370D01*
X226812Y-38273D01*
X226151Y-38197D01*
X224727Y-38122D01*
X224578Y-38125D01*
X223710Y-38202D01*
X222943Y-38329D01*
X222279Y-38506D01*
X221717Y-38735D01*
X221257Y-39014D01*
X220899Y-39345D01*
X220643Y-39726D01*
X220490Y-40157D01*
X220439Y-40640D01*
Y-30480D01*
X220490Y-30963D01*
D02*
G37*
G36*
X238577Y-39200D02*
X238146Y-39353D01*
X237765Y-39609D01*
X237434Y-39967D01*
X237155Y-40427D01*
X236926Y-40989D01*
X236749Y-41653D01*
X236622Y-42420D01*
X236545Y-43288D01*
X236528Y-43965D01*
X236537Y-44506D01*
X236677Y-46131D01*
X236800Y-46792D01*
X236957Y-47351D01*
X237150Y-47808D01*
X237377Y-48163D01*
X237640Y-48417D01*
X237937Y-48570D01*
X238270Y-48621D01*
X228900Y-48651D01*
X229383Y-48598D01*
X229814Y-48444D01*
X230195Y-48187D01*
X230526Y-47829D01*
X230805Y-47369D01*
X231034Y-46807D01*
X231211Y-46143D01*
X231338Y-45378D01*
X231415Y-44510D01*
X231431Y-43900D01*
X231415Y-43288D01*
X231338Y-42420D01*
X231211Y-41653D01*
X231034Y-40989D01*
X230805Y-40427D01*
X230526Y-39967D01*
X230195Y-39609D01*
X229814Y-39353D01*
X229383Y-39200D01*
X228900Y-39149D01*
X239060D01*
X238577Y-39200D01*
D02*
G37*
G36*
X237808Y-58110D02*
X237395Y-58263D01*
X237031Y-58517D01*
X236715Y-58872D01*
X236447Y-59330D01*
X236229Y-59888D01*
X236059Y-60549D01*
X236016Y-60818D01*
X236069Y-61137D01*
X236246Y-61801D01*
X236475Y-62363D01*
X236754Y-62823D01*
X237085Y-63181D01*
X237466Y-63437D01*
X237897Y-63590D01*
X238380Y-63641D01*
X228220D01*
X228703Y-63590D01*
X229134Y-63437D01*
X229515Y-63181D01*
X229846Y-62823D01*
X230125Y-62363D01*
X230354Y-61801D01*
X230531Y-61137D01*
X230584Y-60818D01*
X230541Y-60549D01*
X230371Y-59888D01*
X230153Y-59330D01*
X229885Y-58872D01*
X229569Y-58517D01*
X229205Y-58263D01*
X228792Y-58110D01*
X228330Y-58060D01*
X238270D01*
X237808Y-58110D01*
D02*
G37*
G36*
X237679Y-73567D02*
X237293Y-73713D01*
X236952Y-73955D01*
X236657Y-74294D01*
X236408Y-74729D01*
X236203Y-75262D01*
X236044Y-75891D01*
X235931Y-76617D01*
X235863Y-77440D01*
X235840Y-78360D01*
X230760D01*
X230737Y-77440D01*
X230669Y-76617D01*
X230556Y-75891D01*
X230397Y-75262D01*
X230192Y-74729D01*
X229943Y-74294D01*
X229648Y-73955D01*
X229307Y-73713D01*
X228921Y-73567D01*
X228490Y-73519D01*
X238110D01*
X237679Y-73567D01*
D02*
G37*
G36*
X258514Y-99937D02*
X259069Y-100355D01*
X259636Y-100694D01*
X260215Y-100954D01*
X260805Y-101135D01*
X261408Y-101236D01*
X262022Y-101258D01*
X262648Y-101201D01*
X263285Y-101065D01*
X263935Y-100849D01*
X259545Y-110573D01*
X259261Y-109837D01*
X258636Y-108451D01*
X258295Y-107802D01*
X257556Y-106587D01*
X257157Y-106023D01*
X256305Y-104981D01*
X255850Y-104502D01*
X257971Y-99439D01*
X258514Y-99937D01*
D02*
G37*
G36*
X254320Y-49035D02*
X254473Y-49405D01*
X254727Y-49732D01*
X255082Y-50015D01*
X255539Y-50255D01*
X256098Y-50451D01*
X256759Y-50604D01*
X257521Y-50713D01*
X258384Y-50778D01*
X259349Y-50800D01*
Y-55880D01*
X258384Y-55902D01*
X257521Y-55967D01*
X256759Y-56076D01*
X256098Y-56229D01*
X255539Y-56425D01*
X255082Y-56665D01*
X254727Y-56948D01*
X254473Y-57275D01*
X254320Y-57645D01*
X254270Y-58060D01*
Y-48621D01*
X254320Y-49035D01*
D02*
G37*
G36*
X254570Y-64072D02*
X254723Y-64485D01*
X254977Y-64850D01*
X255332Y-65165D01*
X255790Y-65433D01*
X256348Y-65651D01*
X257009Y-65821D01*
X257771Y-65943D01*
X258634Y-66016D01*
X259599Y-66040D01*
Y-71120D01*
X258634Y-71144D01*
X257771Y-71217D01*
X257009Y-71339D01*
X256348Y-71509D01*
X255790Y-71727D01*
X255332Y-71995D01*
X254977Y-72310D01*
X254723Y-72675D01*
X254570Y-73088D01*
X254520Y-73549D01*
Y-63611D01*
X254570Y-64072D01*
D02*
G37*
G36*
X120681Y-119120D02*
X143020D01*
X142586Y-119297D01*
X142199Y-119831D01*
X141857Y-120720D01*
X141561Y-121964D01*
X141310Y-123565D01*
X140945Y-127832D01*
X140763Y-133521D01*
X140740Y-136899D01*
X122960D01*
X122937Y-133521D01*
X122139Y-121964D01*
X121843Y-120720D01*
X121501Y-119831D01*
X121114Y-119297D01*
X120681Y-119120D01*
X120503Y-118686D01*
X119969Y-118299D01*
X119080Y-117957D01*
X117836Y-117661D01*
X116236Y-117410D01*
X111968Y-117045D01*
X106279Y-116863D01*
X102900Y-116840D01*
Y-99060D01*
X106279Y-99037D01*
X117836Y-98239D01*
X119080Y-97943D01*
X119969Y-97601D01*
X120503Y-97214D01*
X120681Y-96781D01*
Y-119120D01*
D02*
G37*
D15*
X233300Y-68580D02*
D03*
X249300D02*
D03*
D16*
X136750Y33050D02*
D03*
X130250D02*
D03*
X117250D02*
D03*
X123750D02*
D03*
D17*
X141150Y48050D02*
D03*
X112850D02*
D03*
D18*
X136750Y62050D02*
D03*
X117250D02*
D03*
X130250D02*
D03*
X123750D02*
D03*
D19*
X233300Y-53340D02*
D03*
X249300D02*
D03*
D20*
X234660Y-35560D02*
D03*
X268260D02*
D03*
D21*
X205500Y10160D02*
D03*
Y-35560D02*
D03*
D22*
X127000Y-12700D02*
D03*
D41*
Y44450D02*
D03*
D42*
Y-12700D02*
Y44450D01*
X131850Y-202970D02*
Y-107950D01*
Y-202970D02*
X132080Y-203200D01*
X25400Y-133350D02*
X59400D01*
X25400Y-34150D02*
X59400D01*
X105550D02*
X127000Y-12700D01*
X59400Y-34150D02*
X105550D01*
X25400Y-184150D02*
Y-133350D01*
X59400D02*
X61083D01*
X86483Y-107950D02*
X131850D01*
X61083Y-133350D02*
X86483Y-107950D01*
D43*
X233300Y-78360D02*
Y-53340D01*
X130600Y48050D02*
X141150D01*
X127000Y44450D02*
X130600Y48050D01*
X123400D02*
X127000Y44450D01*
X112850Y48050D02*
X123400D01*
X20000Y-314000D02*
X20000Y-314000D01*
X20000Y-314000D02*
Y-295050D01*
X-156000Y-251050D02*
Y-232000D01*
X-156000Y-251050D02*
X-156000Y-251050D01*
X-124000Y-251050D02*
Y-232000D01*
Y-251050D02*
X-124000Y-251050D01*
X-100000Y-251050D02*
Y-232000D01*
Y-251050D02*
X-100000Y-251050D01*
X-76000Y-251050D02*
Y-232000D01*
Y-251050D02*
X-76000Y-251050D01*
X156000Y-251050D02*
X156000Y-251050D01*
X156000Y-270000D02*
Y-251050D01*
X148000Y-251050D02*
Y-232000D01*
Y-251050D02*
X148000Y-251050D01*
X140000Y-270000D02*
Y-251050D01*
X140000Y-251050D01*
X132000Y-251050D02*
X132000Y-251050D01*
X132000Y-251050D02*
Y-232000D01*
X124000Y-251050D02*
X124000Y-251050D01*
X124000Y-270000D02*
Y-251050D01*
X108000Y-251050D02*
X108000Y-251050D01*
Y-232000D01*
X92000Y-270000D02*
Y-251050D01*
X92000Y-251050D02*
X92000Y-251050D01*
X68000Y-251050D02*
Y-232000D01*
X68000Y-251050D02*
X68000Y-251050D01*
X44000Y-270000D02*
Y-251050D01*
Y-270000D02*
X44000Y-270000D01*
X-52000Y-251050D02*
X-52000Y-251050D01*
X-52000Y-251050D02*
Y-232000D01*
X-28000D02*
X-28000Y-232000D01*
Y-251050D02*
Y-232000D01*
X20000Y-251050D02*
Y-232000D01*
X20000Y-232000D01*
X-4000Y-270000D02*
Y-251050D01*
X-20000Y-270000D02*
X-20000Y-270000D01*
Y-251050D01*
X-12000D02*
Y-232000D01*
X-12000Y-232000D02*
X-12000Y-232000D01*
X-148000Y-276000D02*
X-148000Y-276000D01*
X-148000Y-295050D02*
Y-276000D01*
X-132000Y-276000D02*
X-132000Y-276000D01*
Y-295050D02*
Y-276000D01*
X-140000Y-314000D02*
X-140000Y-314000D01*
X-140000Y-314000D02*
Y-295050D01*
X92000Y-314000D02*
X92000Y-314000D01*
X92000Y-314000D02*
Y-295050D01*
X-28000Y-314000D02*
Y-295050D01*
X-28000Y-314000D02*
X-28000Y-314000D01*
X-156000Y-314000D02*
Y-295050D01*
Y-314000D02*
X-156000Y-314000D01*
X-124000Y-314000D02*
Y-295050D01*
X-124000Y-314000D02*
X-124000Y-314000D01*
X-100000Y-314000D02*
Y-295050D01*
X-100000Y-314000D02*
X-100000Y-314000D01*
X-76000Y-314000D02*
X-76000Y-314000D01*
Y-295050D01*
X-52000Y-314000D02*
Y-295050D01*
X-52000Y-314000D02*
X-52000Y-314000D01*
X-4000Y-314000D02*
Y-295050D01*
X108000Y-314000D02*
X108000Y-314000D01*
X108000Y-314000D02*
Y-295050D01*
X124000Y-314000D02*
Y-295050D01*
X124000Y-314000D02*
X124000Y-314000D01*
X156000Y-314000D02*
Y-295050D01*
X156000Y-314000D02*
X156000Y-314000D01*
X68000Y-314000D02*
X68000Y-314000D01*
X68000Y-314000D02*
Y-295050D01*
X44000Y-314000D02*
X44000Y-314000D01*
X44000Y-314000D02*
Y-295050D01*
X249300Y-68580D02*
X264160D01*
X249300Y-53340D02*
X264160D01*
X260946Y-106006D02*
X264756D01*
X233300Y-78360D02*
X260946Y-106006D01*
X264756D02*
X266700Y-107950D01*
X233980Y-36240D02*
X234660Y-35560D01*
X233980Y-52660D02*
Y-36240D01*
X233300Y-53340D02*
X233980Y-52660D01*
X205500Y-35560D02*
X205500Y-35560D01*
X234660D01*
D44*
X330200Y-44450D02*
D03*
X-330200D02*
D03*
Y44450D02*
D03*
X266700Y-107950D02*
D03*
X-266700D02*
D03*
X330200Y44450D02*
D03*
X234950Y107950D02*
D03*
X-234950D02*
D03*
X-147320Y-203200D02*
D03*
X-172720D02*
D03*
X157480D02*
D03*
X132080D02*
D03*
X330200Y-260350D02*
D03*
Y-171450D02*
D03*
X25400Y-184150D02*
D03*
X-25400D02*
D03*
D45*
X-59400Y-130950D02*
D03*
X-25400D02*
D03*
X-59400Y-31750D02*
D03*
X-25400D02*
D03*
X59400Y-34150D02*
D03*
X25400D02*
D03*
X59400Y-133350D02*
D03*
X25400D02*
D03*
D46*
X171450Y-107950D02*
D03*
X-133350D02*
D03*
D47*
X131850D02*
D03*
X-172950D02*
D03*
D48*
X121050Y-73950D02*
D03*
X-183750D02*
D03*
D49*
X-231140Y2540D02*
D03*
Y17780D02*
D03*
X-243840Y2540D02*
D03*
Y17780D02*
D03*
X231140Y2540D02*
D03*
X243840D02*
D03*
Y17780D02*
D03*
X231140D02*
D03*
X-248920Y-283210D02*
D03*
X248920Y-300990D02*
D03*
Y-283210D02*
D03*
X156000Y-270000D02*
D03*
X148000Y-232000D02*
D03*
X140000Y-270000D02*
D03*
X132000Y-232000D02*
D03*
X124000Y-270000D02*
D03*
X108000Y-232000D02*
D03*
X92000Y-270000D02*
D03*
X68000Y-232000D02*
D03*
X44000Y-270000D02*
D03*
X20000Y-232000D02*
D03*
X-4000Y-270000D02*
D03*
X-12000Y-232000D02*
D03*
X-20000Y-270000D02*
D03*
X-28000Y-232000D02*
D03*
X-52000D02*
D03*
X-76000D02*
D03*
X-100000D02*
D03*
X-124000D02*
D03*
X-156000D02*
D03*
X-28000Y-314000D02*
D03*
X-148000Y-276000D02*
D03*
X-140000Y-314000D02*
D03*
X-132000Y-276000D02*
D03*
X-156000Y-314000D02*
D03*
X-124000D02*
D03*
X-100000D02*
D03*
X-76000D02*
D03*
X-52000D02*
D03*
X-4000D02*
D03*
X20000D02*
D03*
X44000D02*
D03*
X68000D02*
D03*
X92000D02*
D03*
X108000D02*
D03*
X124000D02*
D03*
X156000D02*
D03*
X264160Y-68580D02*
D03*
Y-53340D02*
D03*
X-264160Y-68580D02*
D03*
Y-53340D02*
D03*
D50*
X330200Y107950D02*
D03*
X-330200D02*
D03*
Y-107950D02*
D03*
Y-323850D02*
D03*
X330200D02*
D03*
Y-107950D02*
D03*
D51*
X266700Y82550D02*
D03*
X298450Y19050D02*
D03*
X266700Y-44450D02*
D03*
X298450Y-107950D02*
D03*
X266700Y-171450D02*
D03*
X298450Y-234950D02*
D03*
X266700Y-298450D02*
D03*
X203200Y82550D02*
D03*
X234950Y-107950D02*
D03*
X203200Y-171450D02*
D03*
X234950Y-234950D02*
D03*
X203200Y-298450D02*
D03*
X139700Y82550D02*
D03*
X171450Y19050D02*
D03*
Y-234950D02*
D03*
X76200Y82550D02*
D03*
Y-171450D02*
D03*
X12700Y82550D02*
D03*
X44450Y19050D02*
D03*
Y-107950D02*
D03*
Y-234950D02*
D03*
X-50800Y82550D02*
D03*
X-19050Y19050D02*
D03*
Y-107950D02*
D03*
X-50800Y-171450D02*
D03*
X-114300Y82550D02*
D03*
X-82550Y19050D02*
D03*
Y-107950D02*
D03*
X-114300Y-171450D02*
D03*
X-82550Y-234950D02*
D03*
X-177800Y82550D02*
D03*
Y-44450D02*
D03*
X-146050Y-234950D02*
D03*
X-177800Y-298450D02*
D03*
X-241300Y82550D02*
D03*
X-209550Y-107950D02*
D03*
X-304800Y82550D02*
D03*
X-273050Y19050D02*
D03*
X-304800Y-44450D02*
D03*
Y-298450D02*
D03*
D62*
X156000Y-295050D02*
D03*
Y-251050D02*
D03*
X148000Y-295050D02*
D03*
Y-251050D02*
D03*
X140000Y-295050D02*
D03*
Y-251050D02*
D03*
X132000Y-295050D02*
D03*
Y-251050D02*
D03*
X124000Y-295050D02*
D03*
Y-251050D02*
D03*
X116000Y-295050D02*
D03*
Y-251050D02*
D03*
X108000Y-295050D02*
D03*
Y-251050D02*
D03*
X100000Y-295050D02*
D03*
Y-251050D02*
D03*
X92000Y-295050D02*
D03*
Y-251050D02*
D03*
X84000Y-295050D02*
D03*
Y-251050D02*
D03*
X76000Y-295050D02*
D03*
Y-251050D02*
D03*
X68000Y-295050D02*
D03*
Y-251050D02*
D03*
X60000Y-295050D02*
D03*
Y-251050D02*
D03*
X52000Y-295050D02*
D03*
Y-251050D02*
D03*
X44000Y-295050D02*
D03*
Y-251050D02*
D03*
X36000Y-295050D02*
D03*
Y-251050D02*
D03*
X28000Y-295050D02*
D03*
Y-251050D02*
D03*
X20000Y-295050D02*
D03*
Y-251050D02*
D03*
X12000Y-295050D02*
D03*
Y-251050D02*
D03*
X4000Y-295050D02*
D03*
Y-251050D02*
D03*
X-4000Y-295050D02*
D03*
Y-251050D02*
D03*
X-12000Y-295050D02*
D03*
Y-251050D02*
D03*
X-20000Y-295050D02*
D03*
Y-251050D02*
D03*
X-28000Y-295050D02*
D03*
Y-251050D02*
D03*
X-36000Y-295050D02*
D03*
Y-251050D02*
D03*
X-44000Y-295050D02*
D03*
Y-251050D02*
D03*
X-52000Y-295050D02*
D03*
Y-251050D02*
D03*
X-60000Y-295050D02*
D03*
Y-251050D02*
D03*
X-68000Y-295050D02*
D03*
Y-251050D02*
D03*
X-76000Y-295050D02*
D03*
Y-251050D02*
D03*
X-84000Y-295050D02*
D03*
Y-251050D02*
D03*
X-92000Y-295050D02*
D03*
Y-251050D02*
D03*
X-100000Y-295050D02*
D03*
Y-251050D02*
D03*
X-108000Y-295050D02*
D03*
Y-251050D02*
D03*
X-116000Y-295050D02*
D03*
Y-251050D02*
D03*
X-124000Y-295050D02*
D03*
Y-251050D02*
D03*
X-132000Y-295050D02*
D03*
Y-251050D02*
D03*
X-140000Y-295050D02*
D03*
Y-251050D02*
D03*
X-148000Y-295050D02*
D03*
Y-251050D02*
D03*
X-156000Y-295050D02*
D03*
Y-251050D02*
D03*
M02*
