G04*
G04 #@! TF.GenerationSoftware,Altium Limited,Altium Designer,24.0.1 (36)*
G04*
G04 Layer_Physical_Order=2*
G04 Layer_Color=32768*
%FSLAX44Y44*%
%MOMM*%
G71*
G04*
G04 #@! TF.SameCoordinates,516FB9ED-FB34-4965-85CA-DC03E0874189*
G04*
G04*
G04 #@! TF.FilePolarity,Negative*
G04*
G01*
G75*
%ADD52C,1.0160*%
G04:AMPARAMS|DCode=53|XSize=1.8192mm|YSize=1.8192mm|CornerRadius=0mm|HoleSize=0mm|Usage=FLASHONLY|Rotation=0.000|XOffset=0mm|YOffset=0mm|HoleType=Round|Shape=Relief|Width=0.1016mm|Gap=0.1016mm|Entries=4|*
%AMTHD53*
7,0,0,1.8192,1.6160,0.1016,45*
%
%ADD53THD53*%
%ADD54C,1.8032*%
%ADD55C,1.2192*%
G04:AMPARAMS|DCode=56|XSize=2.6932mm|YSize=2.6932mm|CornerRadius=0mm|HoleSize=0mm|Usage=FLASHONLY|Rotation=0.000|XOffset=0mm|YOffset=0mm|HoleType=Round|Shape=Relief|Width=0.1016mm|Gap=0.1016mm|Entries=4|*
%AMTHD56*
7,0,0,2.6932,2.4900,0.1016,45*
%
%ADD56THD56*%
%ADD57C,2.0932*%
%ADD58C,2.0632*%
G04:AMPARAMS|DCode=59|XSize=1.1032mm|YSize=1.1032mm|CornerRadius=0mm|HoleSize=0mm|Usage=FLASHONLY|Rotation=0.000|XOffset=0mm|YOffset=0mm|HoleType=Round|Shape=Relief|Width=0.1016mm|Gap=0.1016mm|Entries=4|*
%AMTHD59*
7,0,0,1.1032,0.9000,0.1016,45*
%
%ADD59THD59*%
%ADD60C,3.6032*%
%ADD61C,0.5032*%
G36*
X-367668Y-163929D02*
X-367395Y-164204D01*
Y-164204D01*
X-354772Y-176826D01*
X-228607D01*
X-227246Y-176811D01*
X-224570Y-177311D01*
X-222043Y-178324D01*
X-219763Y-179810D01*
X-217815Y-181712D01*
X-216277Y-183958D01*
X-215205Y-186460D01*
X-214643Y-189124D01*
X-214626Y-190485D01*
X-214626Y-190500D01*
Y-254000D01*
X-214625Y-254150D01*
Y-255531D01*
X-215160Y-258240D01*
X-216210Y-260794D01*
X-217734Y-263097D01*
X-219675Y-265061D01*
X-221960Y-266612D01*
X-224502Y-267691D01*
X-227204Y-268258D01*
X-228585Y-268274D01*
Y-268274D01*
X-228600Y-268274D01*
X-355072D01*
X-368150Y-280665D01*
X-368421Y-280697D01*
X-368942Y-280534D01*
X-369350Y-280171D01*
X-369574Y-279673D01*
Y-279400D01*
Y-165100D01*
Y-164713D01*
X-369143Y-164069D01*
X-368427Y-163775D01*
X-367668Y-163929D01*
D02*
G37*
D52*
X345402Y146050D02*
X350309Y145074D01*
X-345402Y146050D02*
X345402D01*
X-350309Y145074D02*
X-345402Y146050D01*
X-354931Y143159D02*
X-350309Y145074D01*
X-359092Y140379D02*
X-354931Y143159D01*
X-362630Y136841D02*
X-359092Y140379D01*
X-365409Y132681D02*
X-362630Y136841D01*
X-367324Y128059D02*
X-365409Y132681D01*
X-368300Y123152D02*
X-367324Y128059D01*
X-368300Y120650D02*
Y123152D01*
Y-163800D02*
Y120650D01*
Y-163800D02*
X-367668Y-163929D01*
X-367395Y-164204D01*
Y-164204D01*
X-354772Y-176826D01*
X-228607D01*
X-227246Y-176811D01*
X-224570Y-177311D01*
X-222043Y-178324D01*
X-219763Y-179810D01*
X-217815Y-181712D01*
X-216277Y-183958D01*
X-215205Y-186460D01*
X-214643Y-189124D01*
X-214626Y-190485D01*
X-214626Y-190500D01*
Y-254000D02*
Y-190500D01*
Y-254000D02*
X-214625Y-254150D01*
Y-255531D02*
Y-254150D01*
X-215160Y-258240D02*
X-214625Y-255531D01*
X-216210Y-260794D02*
X-215160Y-258240D01*
X-217734Y-263097D02*
X-216210Y-260794D01*
X-219675Y-265061D02*
X-217734Y-263097D01*
X-221960Y-266612D02*
X-219675Y-265061D01*
X-224502Y-267691D02*
X-221960Y-266612D01*
X-227204Y-268258D02*
X-224502Y-267691D01*
X-228585Y-268274D02*
X-227204Y-268258D01*
X-228585Y-268274D02*
Y-268274D01*
X-228600Y-268274D02*
X-228585Y-268274D01*
X-355072Y-268274D02*
X-228600D01*
X-368150Y-280665D02*
X-355072Y-268274D01*
X-368300Y-280683D02*
X-368150Y-280665D01*
X-368300Y-336550D02*
Y-280683D01*
Y-339052D02*
Y-336550D01*
Y-339052D02*
X-367324Y-343959D01*
X-365409Y-348581D01*
X-362630Y-352742D01*
X-359092Y-356279D01*
X-354931Y-359059D01*
X-350309Y-360974D01*
X-345402Y-361950D01*
X345402D01*
X350309Y-360974D01*
X354931Y-359059D01*
X359091Y-356279D01*
X362630Y-352742D01*
X365409Y-348581D01*
X367324Y-343959D01*
X368300Y-339052D01*
Y-336550D01*
Y120650D01*
Y123152D01*
X367324Y128059D02*
X368300Y123152D01*
X365409Y132681D02*
X367324Y128059D01*
X362630Y136841D02*
X365409Y132681D01*
X359091Y140379D02*
X362630Y136841D01*
X354931Y143159D02*
X359091Y140379D01*
X350309Y145074D02*
X354931Y143159D01*
D53*
X330200Y-44450D02*
D03*
X-330200D02*
D03*
Y44450D02*
D03*
X330200D02*
D03*
Y-260350D02*
D03*
Y-171450D02*
D03*
D54*
X-59400Y-130950D02*
D03*
X-25400D02*
D03*
X-59400Y-31750D02*
D03*
X-25400D02*
D03*
X59400Y-34150D02*
D03*
X25400D02*
D03*
X59400Y-133350D02*
D03*
X25400D02*
D03*
D55*
X266700Y-107950D02*
D03*
X-266700D02*
D03*
X234950Y107950D02*
D03*
X-234950D02*
D03*
X-147320Y-203200D02*
D03*
X-172720D02*
D03*
X157480D02*
D03*
X132080D02*
D03*
X25400Y-184150D02*
D03*
X-25400D02*
D03*
D56*
X171450Y-107950D02*
D03*
X-133350D02*
D03*
D57*
X131850D02*
D03*
X-172950D02*
D03*
D58*
X121050Y-73950D02*
D03*
X-183750D02*
D03*
D59*
X-231140Y2540D02*
D03*
Y17780D02*
D03*
X-243840Y2540D02*
D03*
Y17780D02*
D03*
X231140Y2540D02*
D03*
X243840D02*
D03*
Y17780D02*
D03*
X231140D02*
D03*
D60*
X330200Y107950D02*
D03*
X-330200D02*
D03*
Y-107950D02*
D03*
Y-323850D02*
D03*
X330200D02*
D03*
Y-107950D02*
D03*
D61*
X248920Y-300990D02*
D03*
X148000Y-232000D02*
D03*
X140000Y-270000D02*
D03*
X132000Y-232000D02*
D03*
X-12000D02*
D03*
X-20000Y-270000D02*
D03*
X-148000Y-276000D02*
D03*
X-140000Y-314000D02*
D03*
X-132000Y-276000D02*
D03*
M02*
