G04*
G04 #@! TF.GenerationSoftware,Altium Limited,Altium Designer,24.2.2 (26)*
G04*
G04 Layer_Color=16711935*
%FSLAX44Y44*%
%MOMM*%
G71*
G04*
G04 #@! TF.SameCoordinates,D0D0D645-F3CD-4B60-A7FA-FB90DE8E9CDF*
G04*
G04*
G04 #@! TF.FilePolarity,Positive*
G04*
G01*
G75*
%ADD11C,0.2540*%
D11*
X228600Y38100D02*
X275300Y44450D01*
X-273050D02*
X-226350Y38100D01*
X275300Y34925D02*
Y53975D01*
X-273050Y34925D02*
Y53975D01*
X59400Y69850D02*
X129250Y88900D01*
X-127000D02*
X-57150Y69850D01*
X-226350Y38100D02*
X-127000Y69850D01*
X-57150D01*
X129250D02*
X228600Y38100D01*
X-52850Y120650D02*
X-27450D01*
X-57150D02*
X-23150D01*
Y69850D02*
Y120650D01*
X-57150Y69850D02*
Y120650D01*
X25400Y120650D02*
X59400D01*
X29700D02*
X55100D01*
X25400Y69850D02*
Y120650D01*
X59400Y69850D02*
Y120650D01*
X-57150Y69850D02*
X59400Y69850D01*
X249900Y-38100D02*
X275300D01*
Y-88900D02*
Y-60960D01*
X201400D02*
X275300D01*
X249900Y-19050D02*
X275300D01*
Y-60960D02*
Y-19050D01*
X-273050D02*
X-247650D01*
X-273050Y-60960D02*
X-199150D01*
X-273050Y-88900D02*
Y-60960D01*
Y-19050D01*
Y-38100D02*
X-247650D01*
X-120650D02*
X-57150Y-29350D01*
X59400D02*
X122900Y-38100D01*
X59400Y69850D02*
X129250D01*
M02*
