G04*
G04 #@! TF.GenerationSoftware,Altium Limited,Altium Designer,24.2.2 (26)*
G04*
G04 Layer_Color=65535*
%FSLAX44Y44*%
%MOMM*%
G71*
G04*
G04 #@! TF.SameCoordinates,D0D0D645-F3CD-4B60-A7FA-FB90DE8E9CDF*
G04*
G04*
G04 #@! TF.FilePolarity,Positive*
G04*
G01*
G75*
%ADD10C,0.2000*%
%ADD11C,0.2540*%
%ADD12C,0.1270*%
%ADD13C,0.1524*%
D10*
X157000Y-311050D02*
G03*
X157000Y-311050I-1000J0D01*
G01*
X87700Y88900D02*
G03*
X87700Y88900I-1000J0D01*
G01*
X-208150D02*
G03*
X-208150Y88900I-1000J0D01*
G01*
X113900Y-122600D02*
G03*
X113900Y-122600I-1000J0D01*
G01*
X321600Y-60960D02*
G03*
X321600Y-60960I-1000J0D01*
G01*
X-129650Y-122600D02*
G03*
X-129650Y-122600I-1000J0D01*
G01*
X-317350Y-60960D02*
G03*
X-317350Y-60960I-1000J0D01*
G01*
D11*
X-261691Y-88900D02*
G03*
X-261691Y-88900I-11359J0D01*
G01*
X286659D02*
G03*
X286659Y-88900I-11359J0D01*
G01*
X239959Y38100D02*
G03*
X239959Y38100I-11359J0D01*
G01*
X-214991D02*
G03*
X-214991Y38100I-11359J0D01*
G01*
X265359Y107950D02*
G03*
X265359Y107950I-11359J0D01*
G01*
X-242641D02*
G03*
X-242641Y107950I-11359J0D01*
G01*
X-318841Y-260350D02*
G03*
X-318841Y-260350I-11359J0D01*
G01*
X341559Y0D02*
G03*
X341559Y0I-11359J0D01*
G01*
X-318841D02*
G03*
X-318841Y0I-11359J0D01*
G01*
Y-171450D02*
G03*
X-318841Y-171450I-11359J0D01*
G01*
X341559Y-260350D02*
G03*
X341559Y-260350I-11359J0D01*
G01*
Y-171450D02*
G03*
X341559Y-171450I-11359J0D01*
G01*
X-330200Y-203200D02*
Y-190500D01*
X-330346Y-241168D02*
Y-228468D01*
X14460Y105410D02*
X32240Y105410D01*
X14460Y105410D02*
Y135890D01*
X70340D01*
Y105410D02*
Y135890D01*
X32240Y105410D02*
X70340Y105410D01*
X-68090Y105410D02*
X-50310Y105410D01*
X-68090Y105410D02*
Y135890D01*
X-12210D01*
Y105410D02*
Y135890D01*
X-50310Y105410D02*
X-12210Y105410D01*
X330200Y-203200D02*
Y-190500D01*
X330054Y-241168D02*
Y-228468D01*
D12*
X290830Y-64770D02*
Y-57150D01*
X294640Y-60960D01*
X290830Y-64770D02*
X294640Y-60960D01*
X-292100D02*
X-288290Y-64770D01*
X-292100Y-60960D02*
X-288290Y-57150D01*
Y-64770D02*
Y-57150D01*
X76050Y-59750D02*
Y100250D01*
X8750Y-59750D02*
X76050D01*
X8750D02*
Y100250D01*
X76050D01*
X-189000Y-303050D02*
Y-282400D01*
Y-263700D02*
Y-243050D01*
X-161700D01*
X189000Y-303050D02*
Y-243050D01*
X161700D02*
X189000D01*
X-189000Y-303050D02*
X-161700D01*
X161700D02*
X189000D01*
X-73800Y100250D02*
X-6500D01*
X-73800Y-59750D02*
Y100250D01*
Y-59750D02*
X-6500D01*
Y100250D01*
X91150Y27940D02*
Y134620D01*
X207990D01*
Y27940D02*
Y134620D01*
X91150Y27940D02*
X207990D01*
X-204700D02*
Y134620D01*
X-87860D01*
Y27940D02*
Y134620D01*
X-204700Y27940D02*
X-87860D01*
X107400Y-117100D02*
Y-107100D01*
Y-96100D02*
Y-86100D01*
X138400Y-117100D02*
Y-107100D01*
Y-96100D02*
Y-86100D01*
X278850Y-68710D02*
X305350D01*
X278850Y-53210D02*
X305350D01*
Y-68710D02*
X305350Y-67750D01*
X305350Y-53210D02*
X305350Y-54170D01*
X278850Y-68710D02*
Y-67750D01*
Y-54170D02*
Y-53210D01*
X-136150Y-107100D02*
X-136150Y-117100D01*
Y-96100D02*
Y-86100D01*
X-105150Y-107100D02*
X-105150Y-117100D01*
Y-96100D02*
Y-86100D01*
X-303100Y-53210D02*
X-276600D01*
X-303100Y-68710D02*
X-276600D01*
X-303100Y-54170D02*
Y-53210D01*
Y-68710D02*
Y-67750D01*
X-276600Y-54170D02*
Y-53210D01*
Y-68710D02*
Y-67750D01*
X-282300Y53975D02*
X-279800Y56475D01*
Y51475D02*
Y56475D01*
X-282300Y53975D02*
X-279800Y51475D01*
X282300Y51475D02*
X284800Y53975D01*
X282300Y51475D02*
Y56475D01*
X284800Y53975D01*
D13*
X235379Y138428D02*
Y131657D01*
X238765Y128272D01*
X242150Y131657D01*
Y138428D01*
X250614D02*
X247229D01*
X245536Y136736D01*
Y129964D01*
X247229Y128272D01*
X250614D01*
X252307Y129964D01*
Y136736D01*
X250614Y138428D01*
X255693D02*
Y129964D01*
X257386Y128272D01*
X260771D01*
X262464Y129964D01*
Y138428D01*
X265849D02*
X272621D01*
X269235D01*
Y128272D01*
X-272621Y138428D02*
Y131657D01*
X-269235Y128272D01*
X-265849Y131657D01*
Y138428D01*
X-257386D02*
X-260771D01*
X-262464Y136736D01*
Y129964D01*
X-260771Y128272D01*
X-257386D01*
X-255693Y129964D01*
Y136736D01*
X-257386Y138428D01*
X-252307D02*
Y129964D01*
X-250614Y128272D01*
X-247229D01*
X-245536Y129964D01*
Y138428D01*
X-242150D02*
X-235379D01*
X-238765D01*
Y128272D01*
X323429Y28786D02*
X321736Y30478D01*
X318351D01*
X316658Y28786D01*
Y22014D01*
X318351Y20322D01*
X321736D01*
X323429Y22014D01*
Y25400D01*
X320043D01*
X326814Y20322D02*
Y30478D01*
X333586Y20322D01*
Y30478D01*
X336971D02*
Y20322D01*
X342049D01*
X343742Y22014D01*
Y28786D01*
X342049Y30478D01*
X336971D01*
X-336971Y28786D02*
X-338664Y30478D01*
X-342049D01*
X-343742Y28786D01*
Y22014D01*
X-342049Y20322D01*
X-338664D01*
X-336971Y22014D01*
Y25400D01*
X-340357D01*
X-333586Y20322D02*
Y30478D01*
X-326814Y20322D01*
Y30478D01*
X-323429D02*
Y20322D01*
X-318351D01*
X-316658Y22014D01*
Y28786D01*
X-318351Y30478D01*
X-323429D01*
X163409Y21166D02*
X161716Y22858D01*
X158330D01*
X156638Y21166D01*
Y14394D01*
X158330Y12702D01*
X161716D01*
X163409Y14394D01*
Y17780D01*
X160023D01*
X166794Y12702D02*
Y22858D01*
X173566Y12702D01*
Y22858D01*
X176951D02*
Y12702D01*
X182029D01*
X183722Y14394D01*
Y21166D01*
X182029Y22858D01*
X176951D01*
X-188801Y17780D02*
X-182029D01*
X-185415Y21166D02*
Y14394D01*
X-178644Y21166D02*
X-176951Y22858D01*
X-173566D01*
X-171873Y21166D01*
Y19473D01*
X-173566Y17780D01*
X-175258D01*
X-173566D01*
X-171873Y16087D01*
Y14394D01*
X-173566Y12702D01*
X-176951D01*
X-178644Y14394D01*
X-168487Y22858D02*
Y16087D01*
X-165102Y12702D01*
X-161716Y16087D01*
Y22858D01*
X-158330Y21166D02*
X-156638Y22858D01*
X-153252D01*
X-151559Y21166D01*
Y19473D01*
X-153252Y17780D01*
X-154945D01*
X-153252D01*
X-151559Y16087D01*
Y14394D01*
X-153252Y12702D01*
X-156638D01*
X-158330Y14394D01*
X-133771Y21166D02*
X-135464Y22858D01*
X-138849D01*
X-140542Y21166D01*
Y14394D01*
X-138849Y12702D01*
X-135464D01*
X-133771Y14394D01*
Y17780D01*
X-137157D01*
X-130386Y12702D02*
Y22858D01*
X-123614Y12702D01*
Y22858D01*
X-120229D02*
Y12702D01*
X-115150D01*
X-113458Y14394D01*
Y21166D01*
X-115150Y22858D01*
X-120229D01*
X-336971Y-212514D02*
X-338664Y-210822D01*
X-342049D01*
X-343742Y-212514D01*
Y-219286D01*
X-342049Y-220978D01*
X-338664D01*
X-336971Y-219286D01*
Y-215900D01*
X-340357D01*
X-333586Y-220978D02*
Y-210822D01*
X-326814Y-220978D01*
Y-210822D01*
X-323429D02*
Y-220978D01*
X-318351D01*
X-316658Y-219286D01*
Y-212514D01*
X-318351Y-210822D01*
X-323429D01*
X-77868Y-78738D02*
Y-68582D01*
X-74483Y-71967D01*
X-71097Y-68582D01*
Y-78738D01*
X-67712Y-68582D02*
X-64326D01*
X-66019D01*
Y-78738D01*
X-67712D01*
X-64326D01*
X-59247D02*
Y-68582D01*
X-52476Y-78738D01*
Y-68582D01*
X-49091D02*
X-45705D01*
X-47398D01*
Y-78738D01*
X-49091D01*
X-45705D01*
X-33856D02*
X-40627D01*
X-33856Y-71967D01*
Y-70274D01*
X-35549Y-68582D01*
X-38934D01*
X-40627Y-70274D01*
X-30470Y-77046D02*
X-28777Y-78738D01*
X-25392D01*
X-23699Y-77046D01*
Y-70274D01*
X-25392Y-68582D01*
X-28777D01*
X-30470Y-70274D01*
Y-71967D01*
X-28777Y-73660D01*
X-23699D01*
X-20313Y-68582D02*
X-13542D01*
Y-70274D01*
X-20313Y-77046D01*
Y-78738D01*
X5078D02*
Y-68582D01*
X0Y-73660D01*
X6771D01*
X10157Y-78738D02*
Y-71967D01*
X13542Y-68582D01*
X16928Y-71967D01*
Y-78738D01*
Y-73660D01*
X10157D01*
X37241Y-68582D02*
X30470D01*
Y-73660D01*
X33856D01*
X30470D01*
Y-78738D01*
X40627Y-68582D02*
Y-77046D01*
X42320Y-78738D01*
X45705D01*
X47398Y-77046D01*
Y-68582D01*
X57555Y-70274D02*
X55862Y-68582D01*
X52476D01*
X50784Y-70274D01*
Y-71967D01*
X52476Y-73660D01*
X55862D01*
X57555Y-75353D01*
Y-77046D01*
X55862Y-78738D01*
X52476D01*
X50784Y-77046D01*
X67712Y-68582D02*
X60940D01*
Y-78738D01*
X67712D01*
X60940Y-73660D02*
X64326D01*
X77868Y-70274D02*
X76175Y-68582D01*
X72790D01*
X71097Y-70274D01*
Y-71967D01*
X72790Y-73660D01*
X76175D01*
X77868Y-75353D01*
Y-77046D01*
X76175Y-78738D01*
X72790D01*
X71097Y-77046D01*
X-239602Y7622D02*
Y17778D01*
X-234524D01*
X-232831Y16086D01*
Y12700D01*
X-234524Y11007D01*
X-239602D01*
X-236217D02*
X-232831Y7622D01*
X-229446D02*
Y14393D01*
X-226060Y17778D01*
X-222674Y14393D01*
Y7622D01*
Y12700D01*
X-229446D01*
X-219289Y17778D02*
Y7622D01*
X-215903Y11007D01*
X-212518Y7622D01*
Y17778D01*
X215058Y12702D02*
Y22858D01*
X220136D01*
X221829Y21166D01*
Y17780D01*
X220136Y16087D01*
X215058D01*
X218443D02*
X221829Y12702D01*
X225214D02*
Y19473D01*
X228600Y22858D01*
X231986Y19473D01*
Y12702D01*
Y17780D01*
X225214D01*
X235371Y22858D02*
Y12702D01*
X238757Y16087D01*
X242142Y12702D01*
Y22858D01*
X-249764Y-83822D02*
X-253150D01*
X-254842Y-85514D01*
Y-92286D01*
X-253150Y-93978D01*
X-249764D01*
X-248071Y-92286D01*
Y-85514D01*
X-249764Y-83822D01*
X-244686D02*
Y-90593D01*
X-241300Y-93978D01*
X-237914Y-90593D01*
Y-83822D01*
X-234529D02*
Y-93978D01*
X-229450D01*
X-227758Y-92286D01*
Y-85514D01*
X-229450Y-83822D01*
X-234529D01*
X235376D02*
X231991D01*
X230298Y-85514D01*
Y-92286D01*
X231991Y-93978D01*
X235376D01*
X237069Y-92286D01*
Y-85514D01*
X235376Y-83822D01*
X240454D02*
Y-90593D01*
X243840Y-93978D01*
X247226Y-90593D01*
Y-83822D01*
X250611D02*
Y-93978D01*
X255690D01*
X257382Y-92286D01*
Y-85514D01*
X255690Y-83822D01*
X250611D01*
X110918Y17780D02*
X117689D01*
X114303Y21166D02*
Y14394D01*
X127846Y22858D02*
X121074D01*
Y17780D01*
X124460Y19473D01*
X126153D01*
X127846Y17780D01*
Y14394D01*
X126153Y12702D01*
X122767D01*
X121074Y14394D01*
X131231Y22858D02*
Y16087D01*
X134617Y12702D01*
X138002Y16087D01*
Y22858D01*
X323429Y-212514D02*
X321736Y-210822D01*
X318351D01*
X316658Y-212514D01*
Y-219286D01*
X318351Y-220978D01*
X321736D01*
X323429Y-219286D01*
Y-215900D01*
X320043D01*
X326814Y-220978D02*
Y-210822D01*
X333586Y-220978D01*
Y-210822D01*
X336971D02*
Y-220978D01*
X342049D01*
X343742Y-219286D01*
Y-212514D01*
X342049Y-210822D01*
X336971D01*
X-183475Y-221491D02*
X-186860D01*
X-185168D01*
Y-229955D01*
X-186860Y-231648D01*
X-188553D01*
X-190246Y-229955D01*
X-173318Y-231648D02*
X-180089D01*
X-173318Y-224877D01*
Y-223184D01*
X-175011Y-221491D01*
X-178396D01*
X-180089Y-223184D01*
X276016Y12702D02*
Y22858D01*
X281094D01*
X282787Y21166D01*
Y17780D01*
X281094Y16087D01*
X276016D01*
X279402D02*
X282787Y12702D01*
X291251D02*
Y22858D01*
X286173Y17780D01*
X292944D01*
X-287864Y10162D02*
Y20318D01*
X-282786D01*
X-281093Y18626D01*
Y15240D01*
X-282786Y13547D01*
X-287864D01*
X-284478D02*
X-281093Y10162D01*
X-277707Y18626D02*
X-276014Y20318D01*
X-272629D01*
X-270936Y18626D01*
Y16933D01*
X-272629Y15240D01*
X-274322D01*
X-272629D01*
X-270936Y13547D01*
Y11854D01*
X-272629Y10162D01*
X-276014D01*
X-277707Y11854D01*
X303956Y-24128D02*
Y-13972D01*
X309034D01*
X310727Y-15664D01*
Y-19050D01*
X309034Y-20743D01*
X303956D01*
X307342D02*
X310727Y-24128D01*
X320884D02*
X314113D01*
X320884Y-17357D01*
Y-15664D01*
X319191Y-13972D01*
X315806D01*
X314113Y-15664D01*
X-316651Y-25398D02*
Y-15242D01*
X-311573D01*
X-309880Y-16934D01*
Y-20320D01*
X-311573Y-22013D01*
X-316651D01*
X-313266D02*
X-309880Y-25398D01*
X-306494D02*
X-303109D01*
X-304802D01*
Y-15242D01*
X-306494Y-16934D01*
X154227Y-105196D02*
Y-98424D01*
X152534Y-96732D01*
X149149D01*
X147456Y-98424D01*
Y-105196D01*
X149149Y-106888D01*
X152534D01*
X150842Y-103503D02*
X154227Y-106888D01*
X152534D02*
X154227Y-105196D01*
X164384Y-106888D02*
X157613D01*
X164384Y-100117D01*
Y-98424D01*
X162691Y-96732D01*
X159305D01*
X157613Y-98424D01*
X-90170Y-105196D02*
Y-98424D01*
X-91863Y-96732D01*
X-95248D01*
X-96941Y-98424D01*
Y-105196D01*
X-95248Y-106888D01*
X-91863D01*
X-93556Y-103503D02*
X-90170Y-106888D01*
X-91863D02*
X-90170Y-105196D01*
X-86784Y-106888D02*
X-83399D01*
X-85092D01*
Y-96732D01*
X-86784Y-98424D01*
X265859Y76198D02*
Y66042D01*
X272631D01*
X282787Y76198D02*
X276016D01*
Y66042D01*
X282787D01*
X276016Y71120D02*
X279402D01*
X286173Y76198D02*
Y66042D01*
X291251D01*
X292944Y67734D01*
Y74506D01*
X291251Y76198D01*
X286173D01*
X303101Y66042D02*
X296329D01*
X303101Y72813D01*
Y74506D01*
X301408Y76198D01*
X298022D01*
X296329Y74506D01*
X-298868Y78738D02*
Y68582D01*
X-292097D01*
X-281940Y78738D02*
X-288711D01*
Y68582D01*
X-281940D01*
X-288711Y73660D02*
X-285326D01*
X-278554Y78738D02*
Y68582D01*
X-273476D01*
X-271783Y70274D01*
Y77046D01*
X-273476Y78738D01*
X-278554D01*
X-268398Y68582D02*
X-265012D01*
X-266705D01*
Y78738D01*
X-268398Y77046D01*
X220557Y125728D02*
X217172D01*
X218864D01*
Y117264D01*
X217172Y115572D01*
X215479D01*
X213786Y117264D01*
X229021Y115572D02*
Y125728D01*
X223943Y120650D01*
X230714D01*
X90596Y12698D02*
Y2542D01*
X95674D01*
X97367Y4234D01*
Y11006D01*
X95674Y12698D01*
X90596D01*
X105831Y2542D02*
Y12698D01*
X100753Y7620D01*
X107524D01*
X336976Y-55882D02*
Y-66038D01*
X342054D01*
X343747Y-64346D01*
Y-57574D01*
X342054Y-55882D01*
X336976D01*
X347133Y-57574D02*
X348826Y-55882D01*
X352211D01*
X353904Y-57574D01*
Y-59267D01*
X352211Y-60960D01*
X350518D01*
X352211D01*
X353904Y-62653D01*
Y-64346D01*
X352211Y-66038D01*
X348826D01*
X347133Y-64346D01*
X-104984Y12698D02*
Y2542D01*
X-99906D01*
X-98213Y4234D01*
Y11006D01*
X-99906Y12698D01*
X-104984D01*
X-88056Y2542D02*
X-94827D01*
X-88056Y9313D01*
Y11006D01*
X-89749Y12698D01*
X-93134D01*
X-94827Y11006D01*
X-342341Y-55882D02*
Y-66038D01*
X-337263D01*
X-335570Y-64346D01*
Y-57574D01*
X-337263Y-55882D01*
X-342341D01*
X-332184Y-66038D02*
X-328799D01*
X-330492D01*
Y-55882D01*
X-332184Y-57574D01*
X310727Y-33444D02*
X309034Y-31752D01*
X305649D01*
X303956Y-33444D01*
Y-40216D01*
X305649Y-41908D01*
X309034D01*
X310727Y-40216D01*
X320884Y-41908D02*
X314113D01*
X320884Y-35137D01*
Y-33444D01*
X319191Y-31752D01*
X315806D01*
X314113Y-33444D01*
X-309880Y-34714D02*
X-311573Y-33022D01*
X-314958D01*
X-316651Y-34714D01*
Y-41486D01*
X-314958Y-43178D01*
X-311573D01*
X-309880Y-41486D01*
X-306494Y-43178D02*
X-303109D01*
X-304802D01*
Y-33022D01*
X-306494Y-34714D01*
X-223943Y125728D02*
X-227328D01*
X-225636D01*
Y117264D01*
X-227328Y115572D01*
X-229021D01*
X-230714Y117264D01*
X-220557Y124036D02*
X-218864Y125728D01*
X-215479D01*
X-213786Y124036D01*
Y122343D01*
X-215479Y120650D01*
X-217172D01*
X-215479D01*
X-213786Y118957D01*
Y117264D01*
X-215479Y115572D01*
X-218864D01*
X-220557Y117264D01*
M02*
