G04*
G04 #@! TF.GenerationSoftware,Altium Limited,Altium Designer,24.2.2 (26)*
G04*
G04 Layer_Color=32768*
%FSLAX44Y44*%
%MOMM*%
G71*
G04*
G04 #@! TF.SameCoordinates,D0D0D645-F3CD-4B60-A7FA-FB90DE8E9CDF*
G04*
G04*
G04 #@! TF.FilePolarity,Positive*
G04*
G01*
G75*
%ADD56C,0.1000*%
%ADD57C,0.0500*%
D56*
X283300Y-42850D02*
Y-33350D01*
X278550Y-38100D02*
X288050D01*
X283300Y-23800D02*
Y-14300D01*
X278550Y-19050D02*
X288050D01*
X-281050Y-23800D02*
Y-14300D01*
X-285800Y-19050D02*
X-276300D01*
X-281050Y-42850D02*
Y-33350D01*
X-285800Y-38100D02*
X-276300D01*
X-285800Y53975D02*
X-276300D01*
X-281050Y49225D02*
Y58725D01*
X-281300Y30175D02*
Y39675D01*
X-286050Y34925D02*
X-276550D01*
X283300Y30450D02*
Y39950D01*
X278550Y35200D02*
X288050Y35200D01*
X278800Y53975D02*
X288300D01*
X283550Y49225D02*
Y58725D01*
D57*
X78550Y-62250D02*
Y102750D01*
X6250Y-62250D02*
X78550D01*
X6250D02*
Y102750D01*
X78550D01*
X-191500Y-307550D02*
X191500D01*
X-191500D02*
Y-238550D01*
X191500D01*
Y-307550D02*
Y-238550D01*
X-76300Y102750D02*
X-4000D01*
X-76300Y-62250D02*
Y102750D01*
Y-62250D02*
X-4000D01*
Y102750D01*
X88610Y25400D02*
Y137160D01*
X210530D01*
X88610Y25400D02*
X210530D01*
Y137160D01*
X-207240Y25400D02*
Y137160D01*
X-85320D01*
X-207240Y25400D02*
X-85320D01*
Y137160D01*
X104350Y-120600D02*
Y-82600D01*
X141450D01*
Y-120600D02*
Y-82600D01*
X104350Y-120600D02*
X141450D01*
X267800Y-45600D02*
X298800D01*
X267800Y-30600D02*
X298800Y-30600D01*
X298800Y-45600D02*
X298800Y-30600D01*
X267800Y-45600D02*
Y-30600D01*
Y-26550D02*
X298800D01*
X267800Y-11550D02*
X298800D01*
X298800Y-26550D01*
X267800D02*
X267800Y-11550D01*
X266750Y-71210D02*
X317450D01*
X266750D02*
Y-50710D01*
X317450D01*
Y-71210D02*
Y-50710D01*
X-139200Y-120600D02*
Y-82600D01*
X-102100D01*
X-102100Y-120600D01*
X-139200D02*
X-102100D01*
X-296550Y-11550D02*
X-265550D01*
X-296550Y-26550D02*
X-265550D01*
X-296550D02*
Y-11550D01*
X-265550Y-26550D02*
Y-11550D01*
X-315200Y-50710D02*
X-264500D01*
Y-71210D02*
Y-50710D01*
X-315200Y-71210D02*
X-264500D01*
X-315200D02*
Y-50710D01*
X-296550Y-30600D02*
X-265550D01*
X-296550Y-45600D02*
X-265550D01*
X-296550D02*
Y-30600D01*
X-265550Y-45600D02*
Y-30600D01*
X-265550Y46475D02*
Y61475D01*
X-296550Y46475D02*
Y61475D01*
Y46475D02*
X-265550D01*
X-296550Y61475D02*
X-265550D01*
X-296800Y27425D02*
X-265800D01*
X-296800Y42425D02*
X-265800D01*
Y27425D02*
Y42425D01*
X-296800Y27425D02*
Y42425D01*
X267800Y42700D02*
X298800D01*
X267800Y27700D02*
X298800D01*
X267800D02*
Y42700D01*
X298800D02*
X298800Y27700D01*
X268050Y46475D02*
Y61475D01*
X299050Y46475D02*
Y61475D01*
X268050Y61475D02*
X299050Y61475D01*
X268050Y46475D02*
X299050D01*
X-191500Y-307550D02*
Y-238550D01*
X191500D01*
Y-307550D02*
Y-238550D01*
X-191500Y-307550D02*
X191500D01*
M02*
