G04*
G04 #@! TF.GenerationSoftware,Altium Limited,Altium Designer,24.2.2 (26)*
G04*
G04 Layer_Color=255*
%FSLAX44Y44*%
%MOMM*%
G71*
G04*
G04 #@! TF.SameCoordinates,D0D0D645-F3CD-4B60-A7FA-FB90DE8E9CDF*
G04*
G04*
G04 #@! TF.FilePolarity,Positive*
G04*
G01*
G75*
%ADD14R,0.5000X2.0000*%
%ADD15R,6.7000X6.7000*%
%ADD16R,3.0000X1.6000*%
%ADD17R,0.3500X0.5000*%
%ADD18R,0.3800X0.4300*%
%ADD19R,0.4000X0.3000*%
%ADD20R,1.0000X0.9500*%
%ADD21R,1.0500X1.0000*%
%ADD22R,1.2100X0.7300*%
%ADD23R,0.8000X0.8000*%
%ADD42R,2.4500X1.9800*%
%ADD45C,2.4000*%
%ADD46C,1.5240*%
%ADD47C,1.8600*%
%ADD48R,2.2400X2.2400*%
%ADD49C,2.2400*%
%ADD50C,5.0800*%
D14*
X-156000Y-251050D02*
D03*
Y-295050D02*
D03*
X-148000Y-251050D02*
D03*
Y-295050D02*
D03*
X-140000Y-251050D02*
D03*
Y-295050D02*
D03*
X-132000Y-251050D02*
D03*
Y-295050D02*
D03*
X-124000Y-251050D02*
D03*
Y-295050D02*
D03*
X-116000Y-251050D02*
D03*
Y-295050D02*
D03*
X-108000Y-251050D02*
D03*
Y-295050D02*
D03*
X-100000Y-251050D02*
D03*
Y-295050D02*
D03*
X-92000Y-251050D02*
D03*
Y-295050D02*
D03*
X-84000Y-251050D02*
D03*
Y-295050D02*
D03*
X-76000Y-251050D02*
D03*
Y-295050D02*
D03*
X-68000Y-251050D02*
D03*
Y-295050D02*
D03*
X-60000Y-251050D02*
D03*
Y-295050D02*
D03*
X-52000Y-251050D02*
D03*
Y-295050D02*
D03*
X-44000Y-251050D02*
D03*
Y-295050D02*
D03*
X-36000Y-251050D02*
D03*
Y-295050D02*
D03*
X-28000Y-251050D02*
D03*
Y-295050D02*
D03*
X-20000Y-251050D02*
D03*
Y-295050D02*
D03*
X-12000Y-251050D02*
D03*
Y-295050D02*
D03*
X-4000Y-251050D02*
D03*
Y-295050D02*
D03*
X4000Y-251050D02*
D03*
Y-295050D02*
D03*
X12000Y-251050D02*
D03*
Y-295050D02*
D03*
X20000Y-251050D02*
D03*
Y-295050D02*
D03*
X28000Y-251050D02*
D03*
Y-295050D02*
D03*
X36000Y-251050D02*
D03*
Y-295050D02*
D03*
X44000Y-251050D02*
D03*
Y-295050D02*
D03*
X52000Y-251050D02*
D03*
Y-295050D02*
D03*
X60000Y-251050D02*
D03*
Y-295050D02*
D03*
X68000Y-251050D02*
D03*
Y-295050D02*
D03*
X76000Y-251050D02*
D03*
Y-295050D02*
D03*
X84000Y-251050D02*
D03*
Y-295050D02*
D03*
X92000Y-251050D02*
D03*
Y-295050D02*
D03*
X100000Y-251050D02*
D03*
Y-295050D02*
D03*
X108000Y-251050D02*
D03*
Y-295050D02*
D03*
X116000Y-251050D02*
D03*
Y-295050D02*
D03*
X124000Y-251050D02*
D03*
Y-295050D02*
D03*
X132000Y-251050D02*
D03*
Y-295050D02*
D03*
X140000Y-251050D02*
D03*
Y-295050D02*
D03*
X148000Y-251050D02*
D03*
Y-295050D02*
D03*
X156000Y-251050D02*
D03*
Y-295050D02*
D03*
D15*
X-120650Y-38100D02*
D03*
X122900D02*
D03*
D16*
X-199150Y-60960D02*
D03*
Y-15240D02*
D03*
X201400Y-15240D02*
D03*
Y-60960D02*
D03*
D17*
X119650Y-115600D02*
D03*
X126150D02*
D03*
X113150D02*
D03*
X132650D02*
D03*
X-123900D02*
D03*
X-117400D02*
D03*
X-130400D02*
D03*
X-110900D02*
D03*
D18*
X108750Y-101600D02*
D03*
X137050D02*
D03*
X-134800D02*
D03*
X-106500D02*
D03*
D19*
X119650Y-86600D02*
D03*
X113150D02*
D03*
X126150D02*
D03*
X132650D02*
D03*
X-123900Y-86600D02*
D03*
X-130400D02*
D03*
X-117400D02*
D03*
X-110900D02*
D03*
D20*
X291300Y-38100D02*
D03*
X275300D02*
D03*
X-289050D02*
D03*
X-273050D02*
D03*
D21*
X291300Y-19050D02*
D03*
X275300D02*
D03*
X-289050D02*
D03*
X-273050D02*
D03*
X-273300Y34925D02*
D03*
X-289300D02*
D03*
X275300Y35200D02*
D03*
X291300D02*
D03*
D22*
X308900Y-60960D02*
D03*
X275300D02*
D03*
X-306650D02*
D03*
X-273050D02*
D03*
D23*
X-272800Y53975D02*
D03*
X-289300D02*
D03*
X275300D02*
D03*
X291800D02*
D03*
D42*
X122900Y-98000D02*
D03*
X-120650D02*
D03*
D45*
X59400Y69850D02*
D03*
X25400D02*
D03*
X59400Y-29350D02*
D03*
X25400D02*
D03*
X-57150D02*
D03*
X-23150Y-29350D02*
D03*
X-57150Y69850D02*
D03*
X-23150Y69850D02*
D03*
D46*
X-273050Y-88900D02*
D03*
X275300D02*
D03*
X29700Y120650D02*
D03*
X55100D02*
D03*
X-52850Y120650D02*
D03*
X-27450D02*
D03*
X228600Y38100D02*
D03*
X-226350D02*
D03*
X254000Y107950D02*
D03*
X-254000D02*
D03*
X-330200Y-260350D02*
D03*
X330200Y0D02*
D03*
X-330200D02*
D03*
Y-171450D02*
D03*
X330200Y-260350D02*
D03*
Y-171450D02*
D03*
D47*
X118450Y122900D02*
D03*
X-177400D02*
D03*
D48*
X129250Y88900D02*
D03*
X-166600D02*
D03*
D49*
X168850D02*
D03*
X-127000D02*
D03*
D50*
X330200Y107950D02*
D03*
X-330200D02*
D03*
Y-107950D02*
D03*
Y-323850D02*
D03*
X330200D02*
D03*
Y-107950D02*
D03*
M02*
