G04*
G04 #@! TF.GenerationSoftware,Altium Limited,Altium Designer,24.2.2 (26)*
G04*
G04 Layer_Physical_Order=1*
G04 Layer_Color=255*
%FSLAX44Y44*%
%MOMM*%
G71*
G04*
G04 #@! TF.SameCoordinates,D0D0D645-F3CD-4B60-A7FA-FB90DE8E9CDF*
G04*
G04*
G04 #@! TF.FilePolarity,Positive*
G04*
G01*
G75*
%ADD11C,0.2540*%
%ADD12C,0.1270*%
%ADD14R,0.5000X2.0000*%
%ADD15R,6.7000X6.7000*%
%ADD16R,3.0000X1.6000*%
%ADD17R,0.3500X0.5000*%
%ADD18R,0.3800X0.4300*%
%ADD19R,0.4000X0.3000*%
%ADD20R,1.0000X0.9500*%
%ADD21R,1.0500X1.0000*%
%ADD22R,1.2100X0.7300*%
%ADD23R,0.8000X0.8000*%
%ADD42R,2.4500X1.9800*%
%ADD43C,1.7780*%
%ADD44C,0.5080*%
%ADD45C,2.4000*%
%ADD46C,1.5240*%
%ADD47C,1.8600*%
%ADD48R,2.2400X2.2400*%
%ADD49C,2.2400*%
%ADD50C,5.0800*%
%ADD51C,0.4572*%
%ADD52C,0.4524*%
G36*
X347406Y143304D02*
X351739Y141990D01*
X355733Y139855D01*
X359233Y136983D01*
X362105Y133483D01*
X364240Y129489D01*
X365554Y125156D01*
X365989Y120747D01*
X365969Y120650D01*
Y-336550D01*
X365989Y-336647D01*
X365554Y-341056D01*
X364240Y-345389D01*
X362105Y-349383D01*
X359233Y-352883D01*
X355733Y-355756D01*
X351739Y-357890D01*
X347406Y-359204D01*
X342998Y-359639D01*
X342900Y-359619D01*
X-342900D01*
X-342998Y-359639D01*
X-347406Y-359204D01*
X-351739Y-357890D01*
X-355733Y-355756D01*
X-359233Y-352883D01*
X-362105Y-349383D01*
X-364240Y-345389D01*
X-365554Y-341056D01*
X-365989Y-336647D01*
X-365969Y-336550D01*
Y-280475D01*
X-365847Y-280292D01*
X-365669Y-279400D01*
X-365847Y-278508D01*
X-365969Y-278325D01*
Y120650D01*
X-365989Y120747D01*
X-365554Y125156D01*
X-364240Y129489D01*
X-362105Y133483D01*
X-359233Y136983D01*
X-355733Y139855D01*
X-351739Y141990D01*
X-347406Y143304D01*
X-342998Y143739D01*
X-342900Y143719D01*
X342900D01*
X342998Y143739D01*
X347406Y143304D01*
D02*
G37*
%LPC*%
G36*
X-26313Y129286D02*
X-28587D01*
X-30783Y128698D01*
X-32753Y127561D01*
X-34361Y125953D01*
X-35498Y123983D01*
X-36086Y121787D01*
Y119513D01*
X-35498Y117317D01*
X-34361Y115347D01*
X-32753Y113740D01*
X-30783Y112603D01*
X-28587Y112014D01*
X-26313D01*
X-24117Y112603D01*
X-22147Y113740D01*
X-20540Y115347D01*
X-19403Y117317D01*
X-18814Y119513D01*
Y121787D01*
X-19403Y123983D01*
X-20540Y125953D01*
X-22147Y127561D01*
X-24117Y128698D01*
X-26313Y129286D01*
D02*
G37*
G36*
X56237Y129286D02*
X53963D01*
X51767Y128698D01*
X49797Y127561D01*
X48189Y125953D01*
X47052Y123983D01*
X46464Y121787D01*
Y119513D01*
X47052Y117317D01*
X48189Y115347D01*
X49797Y113740D01*
X51767Y112603D01*
X53963Y112014D01*
X56237D01*
X58433Y112603D01*
X60403Y113740D01*
X62010Y115347D01*
X63147Y117317D01*
X63736Y119513D01*
Y121787D01*
X63147Y123983D01*
X62010Y125953D01*
X60403Y127561D01*
X58433Y128698D01*
X56237Y129286D01*
D02*
G37*
G36*
X120003Y134700D02*
X116896D01*
X113895Y133896D01*
X111205Y132342D01*
X109008Y130145D01*
X107454Y127455D01*
X106650Y124453D01*
Y121347D01*
X107454Y118345D01*
X109008Y115655D01*
X111205Y113458D01*
X113895Y111904D01*
X116896Y111100D01*
X120003D01*
X123005Y111904D01*
X125695Y113458D01*
X127892Y115655D01*
X129446Y118345D01*
X130250Y121347D01*
Y124453D01*
X129446Y127455D01*
X127892Y130145D01*
X125695Y132342D01*
X123005Y133896D01*
X120003Y134700D01*
D02*
G37*
G36*
X-175847D02*
X-178953D01*
X-181955Y133896D01*
X-184645Y132342D01*
X-186842Y130145D01*
X-188396Y127455D01*
X-189200Y124453D01*
Y121347D01*
X-188396Y118345D01*
X-186842Y115655D01*
X-184645Y113458D01*
X-181955Y111904D01*
X-178953Y111100D01*
X-175847D01*
X-172845Y111904D01*
X-170155Y113458D01*
X-167958Y115655D01*
X-166404Y118345D01*
X-165600Y121347D01*
Y124453D01*
X-166404Y127455D01*
X-167958Y130145D01*
X-170155Y132342D01*
X-172845Y133896D01*
X-175847Y134700D01*
D02*
G37*
G36*
X29700Y130641D02*
X27114Y130301D01*
X24704Y129303D01*
X22635Y127715D01*
X18335Y123415D01*
X16747Y121346D01*
X15749Y118936D01*
X15409Y116350D01*
Y78266D01*
X14985Y77842D01*
X13271Y74874D01*
X12384Y71564D01*
Y68136D01*
X13271Y64826D01*
X14985Y61858D01*
X17408Y59435D01*
X20376Y57721D01*
X23686Y56834D01*
X27114D01*
X30424Y57721D01*
X33392Y59435D01*
X33816Y59858D01*
X50984D01*
X51408Y59435D01*
X54376Y57721D01*
X57686Y56834D01*
X61114D01*
X64424Y57721D01*
X67392Y59435D01*
X69815Y61858D01*
X71529Y64826D01*
X72019Y66656D01*
X84272Y78909D01*
X100557D01*
X103657Y78888D01*
X109304Y78707D01*
X113503Y78348D01*
X115023Y78110D01*
X116154Y77840D01*
X116840Y77576D01*
X117004Y77457D01*
X117034Y77384D01*
Y76684D01*
X117895D01*
X117992Y76634D01*
X119467Y76515D01*
X120981Y76170D01*
X122624Y75582D01*
X124391Y74744D01*
X126279Y73654D01*
X128282Y72309D01*
X130388Y70716D01*
X134962Y66737D01*
X137317Y64453D01*
X170735Y31035D01*
X172804Y29447D01*
X175214Y28449D01*
X177800Y28108D01*
X228600D01*
X231186Y28449D01*
X233596Y29447D01*
X235665Y31035D01*
X237253Y33104D01*
X238251Y35514D01*
X238591Y38100D01*
X238251Y40686D01*
X237253Y43096D01*
X235665Y45165D01*
X233596Y46753D01*
X231186Y47751D01*
X228600Y48092D01*
X181939D01*
X153730Y76300D01*
X151420Y78727D01*
X149322Y81178D01*
X147478Y83610D01*
X145885Y86023D01*
X144543Y88414D01*
X143449Y90785D01*
X142603Y93134D01*
X142001Y95463D01*
X141641Y97774D01*
X141558Y99364D01*
X141518Y100127D01*
X141466Y100556D01*
Y100557D01*
X141466D01*
X141466Y101116D01*
X140420Y101169D01*
X140410Y101166D01*
X140362Y101168D01*
X140253Y101116D01*
X118304D01*
X118209Y101116D01*
X118081Y101169D01*
X117034Y101116D01*
Y100556D01*
X117034D01*
Y100556D01*
X115987Y99920D01*
X115069Y99701D01*
X103637Y98912D01*
X100557Y98891D01*
X80133D01*
X77547Y98551D01*
X75137Y97553D01*
X73068Y95965D01*
X59969Y82866D01*
X57686D01*
X54376Y81979D01*
X51408Y80265D01*
X50984Y79841D01*
X35391D01*
Y112211D01*
X36765Y113585D01*
X38353Y115654D01*
X39351Y118064D01*
X39692Y120650D01*
X39351Y123236D01*
X38353Y125646D01*
X36765Y127715D01*
X34696Y129303D01*
X32286Y130301D01*
X29700Y130641D01*
D02*
G37*
G36*
X255137Y116586D02*
X252863D01*
X250667Y115997D01*
X248697Y114860D01*
X247090Y113253D01*
X245952Y111283D01*
X245364Y109087D01*
Y106813D01*
X245952Y104617D01*
X247090Y102647D01*
X248697Y101039D01*
X250667Y99902D01*
X252863Y99314D01*
X255137D01*
X257333Y99902D01*
X259303Y101039D01*
X260910Y102647D01*
X262048Y104617D01*
X262636Y106813D01*
Y109087D01*
X262048Y111283D01*
X260910Y113253D01*
X259303Y114860D01*
X257333Y115997D01*
X255137Y116586D01*
D02*
G37*
G36*
X-252863D02*
X-255137D01*
X-257333Y115997D01*
X-259303Y114860D01*
X-260910Y113253D01*
X-262048Y111283D01*
X-262636Y109087D01*
Y106813D01*
X-262048Y104617D01*
X-260910Y102647D01*
X-259303Y101039D01*
X-257333Y99902D01*
X-255137Y99314D01*
X-252863D01*
X-250667Y99902D01*
X-248697Y101039D01*
X-247090Y102647D01*
X-245952Y104617D01*
X-245364Y106813D01*
Y109087D01*
X-245952Y111283D01*
X-247090Y113253D01*
X-248697Y114860D01*
X-250667Y115997D01*
X-252863Y116586D01*
D02*
G37*
G36*
X170458Y101116D02*
X169358D01*
Y89408D01*
X181066D01*
Y90508D01*
X180233Y93615D01*
X178625Y96401D01*
X176351Y98675D01*
X173565Y100283D01*
X170458Y101116D01*
D02*
G37*
G36*
X168342D02*
X167242D01*
X164135Y100283D01*
X161349Y98675D01*
X159075Y96401D01*
X157466Y93615D01*
X156634Y90508D01*
Y89408D01*
X168342D01*
Y101116D01*
D02*
G37*
G36*
X-125392D02*
X-126492D01*
Y89408D01*
X-114784D01*
Y90508D01*
X-115617Y93615D01*
X-117225Y96401D01*
X-119499Y98675D01*
X-122285Y100283D01*
X-125392Y101116D01*
D02*
G37*
G36*
X-127508D02*
X-128608D01*
X-131715Y100283D01*
X-134501Y98675D01*
X-136775Y96401D01*
X-138384Y93615D01*
X-139216Y90508D01*
Y89408D01*
X-127508D01*
Y101116D01*
D02*
G37*
G36*
X332279Y134366D02*
X328121D01*
X324014Y133716D01*
X320060Y132431D01*
X316355Y130543D01*
X312991Y128099D01*
X310051Y125159D01*
X307607Y121795D01*
X305719Y118090D01*
X304434Y114136D01*
X303784Y110029D01*
Y105871D01*
X304434Y101764D01*
X305719Y97810D01*
X307607Y94105D01*
X310051Y90741D01*
X312991Y87801D01*
X316355Y85357D01*
X320060Y83469D01*
X324014Y82184D01*
X328121Y81534D01*
X332279D01*
X336386Y82184D01*
X340340Y83469D01*
X344045Y85357D01*
X347409Y87801D01*
X350349Y90741D01*
X352793Y94105D01*
X354681Y97810D01*
X355966Y101764D01*
X356616Y105871D01*
Y110029D01*
X355966Y114136D01*
X354681Y118090D01*
X352793Y121795D01*
X350349Y125159D01*
X347409Y128099D01*
X344045Y130543D01*
X340340Y132431D01*
X336386Y133716D01*
X332279Y134366D01*
D02*
G37*
G36*
X-328121D02*
X-332279D01*
X-336386Y133716D01*
X-340340Y132431D01*
X-344045Y130543D01*
X-347409Y128099D01*
X-350349Y125159D01*
X-352793Y121795D01*
X-354681Y118090D01*
X-355966Y114136D01*
X-356616Y110029D01*
Y105871D01*
X-355966Y101764D01*
X-354681Y97810D01*
X-352793Y94105D01*
X-350349Y90741D01*
X-347409Y87801D01*
X-344045Y85357D01*
X-340340Y83469D01*
X-336386Y82184D01*
X-332279Y81534D01*
X-328121D01*
X-324014Y82184D01*
X-320060Y83469D01*
X-316355Y85357D01*
X-312991Y87801D01*
X-310051Y90741D01*
X-307607Y94105D01*
X-305719Y97810D01*
X-304434Y101764D01*
X-303784Y105871D01*
Y110029D01*
X-304434Y114136D01*
X-305719Y118090D01*
X-307607Y121795D01*
X-310051Y125159D01*
X-312991Y128099D01*
X-316355Y130543D01*
X-320060Y132431D01*
X-324014Y133716D01*
X-328121Y134366D01*
D02*
G37*
G36*
X181066Y88392D02*
X169358D01*
Y76684D01*
X170458D01*
X173565Y77516D01*
X176351Y79125D01*
X178625Y81399D01*
X180233Y84185D01*
X181066Y87292D01*
Y88392D01*
D02*
G37*
G36*
X168342D02*
X156634D01*
Y87292D01*
X157466Y84185D01*
X159075Y81399D01*
X161349Y79125D01*
X164135Y77516D01*
X167242Y76684D01*
X168342D01*
Y88392D01*
D02*
G37*
G36*
X-114784D02*
X-126492D01*
Y76684D01*
X-125392D01*
X-122285Y77516D01*
X-119499Y79125D01*
X-117225Y81399D01*
X-115617Y84185D01*
X-114784Y87292D01*
Y88392D01*
D02*
G37*
G36*
X-127508D02*
X-139216D01*
Y87292D01*
X-138384Y84185D01*
X-136775Y81399D01*
X-134501Y79125D01*
X-131715Y77516D01*
X-128608Y76684D01*
X-127508D01*
Y88392D01*
D02*
G37*
G36*
X-52850Y130641D02*
X-55436Y130301D01*
X-57846Y129303D01*
X-59915Y127715D01*
X-64215Y123415D01*
X-65803Y121346D01*
X-66801Y118936D01*
X-67141Y116350D01*
Y78266D01*
X-67565Y77842D01*
X-69279Y74874D01*
X-69769Y73044D01*
X-75672Y67141D01*
X-148261D01*
X-154298Y73179D01*
Y86590D01*
X-154384Y87239D01*
Y101116D01*
X-177546D01*
X-177641Y101116D01*
X-177770Y101169D01*
X-178816Y101116D01*
Y100556D01*
X-178816D01*
Y100556D01*
X-179863Y99920D01*
X-180781Y99701D01*
X-192213Y98912D01*
X-195293Y98891D01*
X-209550D01*
X-212136Y98551D01*
X-214546Y97553D01*
X-216615Y95965D01*
X-233415Y79165D01*
X-235003Y77096D01*
X-236001Y74686D01*
X-236341Y72100D01*
Y38100D01*
X-236001Y35514D01*
X-235003Y33104D01*
X-233415Y31035D01*
X-231346Y29447D01*
X-228936Y28449D01*
X-226350Y28108D01*
X-223764Y28449D01*
X-221354Y29447D01*
X-219285Y31035D01*
X-217697Y33104D01*
X-216699Y35514D01*
X-216359Y38100D01*
Y67961D01*
X-205411Y78909D01*
X-195293D01*
X-192193Y78888D01*
X-186546Y78707D01*
X-182346Y78348D01*
X-180827Y78110D01*
X-179863Y77880D01*
X-178816Y77244D01*
Y77243D01*
X-178816Y77243D01*
X-178816Y76684D01*
X-177770Y76631D01*
X-177641Y76684D01*
X-177546Y76684D01*
X-174281D01*
Y69040D01*
X-173941Y66454D01*
X-172943Y64044D01*
X-171355Y61975D01*
X-159465Y50085D01*
X-157396Y48497D01*
X-154986Y47499D01*
X-152400Y47158D01*
X-71533D01*
X-68947Y47499D01*
X-66537Y48497D01*
X-64468Y50085D01*
X-57719Y56834D01*
X-55436D01*
X-52126Y57721D01*
X-49158Y59435D01*
X-48734Y59858D01*
X-31566D01*
X-31142Y59435D01*
X-28174Y57721D01*
X-24864Y56834D01*
X-21437D01*
X-18126Y57721D01*
X-15158Y59435D01*
X-12735Y61858D01*
X-11021Y64826D01*
X-10134Y68136D01*
Y71564D01*
X-11021Y74874D01*
X-12735Y77842D01*
X-15158Y80265D01*
X-18126Y81979D01*
X-21437Y82866D01*
X-24864D01*
X-28174Y81979D01*
X-31142Y80265D01*
X-31566Y79841D01*
X-47158D01*
Y112211D01*
X-45785Y113585D01*
X-44197Y115654D01*
X-43199Y118064D01*
X-42859Y120650D01*
X-43199Y123236D01*
X-44197Y125646D01*
X-45785Y127715D01*
X-47854Y129303D01*
X-50264Y130301D01*
X-52850Y130641D01*
D02*
G37*
G36*
X296816Y58991D02*
X292308D01*
Y54483D01*
X296816D01*
Y58991D01*
D02*
G37*
G36*
X291292D02*
X286784D01*
Y54483D01*
X291292D01*
Y58991D01*
D02*
G37*
G36*
X-284284D02*
X-288792D01*
Y54483D01*
X-284284D01*
Y58991D01*
D02*
G37*
G36*
X-289808D02*
X-294316D01*
Y54483D01*
X-289808D01*
Y58991D01*
D02*
G37*
G36*
X296816Y53467D02*
X292308D01*
Y48959D01*
X296816D01*
Y53467D01*
D02*
G37*
G36*
X291292D02*
X286784D01*
Y48959D01*
X291292D01*
Y53467D01*
D02*
G37*
G36*
X-284284Y53467D02*
X-288792D01*
Y48959D01*
X-284284D01*
Y53467D01*
D02*
G37*
G36*
X-289808D02*
X-294316D01*
Y48959D01*
X-289808D01*
Y53467D01*
D02*
G37*
G36*
X-283034Y40941D02*
X-295566D01*
Y37612D01*
X-295583Y37582D01*
X-295589Y37521D01*
X-295625Y37499D01*
X-295763Y37443D01*
X-295980Y37386D01*
X-296272Y37338D01*
X-296633Y37306D01*
X-297088Y37294D01*
X-297175Y37256D01*
X-303167D01*
X-303179Y37261D01*
X-304234Y38316D01*
X-305704Y38925D01*
X-307296D01*
X-308766Y38316D01*
X-309891Y37191D01*
X-310500Y35721D01*
Y34129D01*
X-309891Y32659D01*
X-308766Y31534D01*
X-307296Y30925D01*
X-305704D01*
X-304234Y31534D01*
X-303179Y32589D01*
X-303167Y32594D01*
X-297175D01*
X-297088Y32556D01*
X-296633Y32544D01*
X-296272Y32512D01*
X-295980Y32464D01*
X-295763Y32407D01*
X-295625Y32351D01*
X-295589Y32329D01*
X-295583Y32269D01*
X-295566Y32238D01*
Y28909D01*
X-283034D01*
Y40941D01*
D02*
G37*
G36*
X297566Y41216D02*
X285034D01*
Y29184D01*
X297566D01*
Y32513D01*
X297582Y32543D01*
X297589Y32604D01*
X297625Y32626D01*
X297763Y32682D01*
X297980Y32739D01*
X298272Y32787D01*
X298633Y32819D01*
X299088Y32831D01*
X299175Y32869D01*
X305167D01*
X305179Y32864D01*
X306234Y31809D01*
X307704Y31200D01*
X309296D01*
X310766Y31809D01*
X311891Y32934D01*
X312500Y34404D01*
Y35996D01*
X311891Y37466D01*
X310766Y38591D01*
X309296Y39200D01*
X307704D01*
X306234Y38591D01*
X305180Y37536D01*
X305167Y37531D01*
X299175D01*
X299088Y37569D01*
X298633Y37581D01*
X298272Y37613D01*
X297980Y37661D01*
X297763Y37718D01*
X297625Y37774D01*
X297589Y37796D01*
X297582Y37857D01*
X297566Y37887D01*
Y41216D01*
D02*
G37*
G36*
X280316Y58991D02*
X270284D01*
Y48959D01*
X272613D01*
X272644Y48942D01*
X272704Y48936D01*
X272726Y48900D01*
X272782Y48762D01*
X272839Y48545D01*
X272887Y48253D01*
X272919Y47892D01*
X272931Y47437D01*
X272969Y47350D01*
Y42825D01*
X272931Y42738D01*
X272919Y42283D01*
X272887Y41922D01*
X272839Y41630D01*
X272782Y41413D01*
X272726Y41275D01*
X272704Y41239D01*
X272644Y41233D01*
X272613Y41216D01*
X269034D01*
Y29184D01*
X281566D01*
Y41216D01*
X277987D01*
X277956Y41233D01*
X277896Y41239D01*
X277874Y41275D01*
X277818Y41413D01*
X277761Y41630D01*
X277713Y41922D01*
X277681Y42283D01*
X277669Y42738D01*
X277631Y42825D01*
Y47350D01*
X277669Y47437D01*
X277681Y47892D01*
X277713Y48253D01*
X277761Y48545D01*
X277818Y48762D01*
X277874Y48900D01*
X277896Y48936D01*
X277956Y48942D01*
X277987Y48959D01*
X280316D01*
Y58991D01*
D02*
G37*
G36*
X-267784D02*
X-277816D01*
Y48959D01*
X-275987D01*
X-275956Y48942D01*
X-275896Y48936D01*
X-275874Y48900D01*
X-275818Y48762D01*
X-275761Y48545D01*
X-275713Y48253D01*
X-275681Y47892D01*
X-275669Y47437D01*
X-275631Y47350D01*
Y42550D01*
X-275669Y42463D01*
X-275681Y42008D01*
X-275713Y41647D01*
X-275761Y41355D01*
X-275818Y41138D01*
X-275874Y41000D01*
X-275896Y40964D01*
X-275956Y40958D01*
X-275987Y40941D01*
X-279566D01*
Y28909D01*
X-267034D01*
Y40941D01*
X-270613D01*
X-270644Y40958D01*
X-270704Y40964D01*
X-270726Y41000D01*
X-270782Y41138D01*
X-270839Y41355D01*
X-270887Y41647D01*
X-270919Y42008D01*
X-270931Y42463D01*
X-270969Y42550D01*
Y47350D01*
X-270931Y47437D01*
X-270919Y47892D01*
X-270887Y48253D01*
X-270839Y48545D01*
X-270782Y48762D01*
X-270726Y48900D01*
X-270704Y48936D01*
X-270644Y48942D01*
X-270613Y48959D01*
X-267784D01*
Y58991D01*
D02*
G37*
G36*
X331337Y8636D02*
X330708D01*
Y508D01*
X338836D01*
Y1137D01*
X338247Y3333D01*
X337110Y5303D01*
X335503Y6910D01*
X333533Y8048D01*
X331337Y8636D01*
D02*
G37*
G36*
X329692D02*
X329063D01*
X326867Y8048D01*
X324897Y6910D01*
X323289Y5303D01*
X322152Y3333D01*
X321564Y1137D01*
Y508D01*
X329692D01*
Y8636D01*
D02*
G37*
G36*
X-329063D02*
X-329692D01*
Y508D01*
X-321564D01*
Y1137D01*
X-322152Y3333D01*
X-323289Y5303D01*
X-324897Y6910D01*
X-326867Y8048D01*
X-329063Y8636D01*
D02*
G37*
G36*
X-330708D02*
X-331337D01*
X-333533Y8048D01*
X-335503Y6910D01*
X-337110Y5303D01*
X-338247Y3333D01*
X-338836Y1137D01*
Y508D01*
X-330708D01*
Y8636D01*
D02*
G37*
G36*
X338836Y-508D02*
X330708D01*
Y-8636D01*
X331337D01*
X333533Y-8048D01*
X335503Y-6910D01*
X337110Y-5303D01*
X338247Y-3333D01*
X338836Y-1137D01*
Y-508D01*
D02*
G37*
G36*
X329692D02*
X321564D01*
Y-1137D01*
X322152Y-3333D01*
X323289Y-5303D01*
X324897Y-6910D01*
X326867Y-8048D01*
X329063Y-8636D01*
X329692D01*
Y-508D01*
D02*
G37*
G36*
X-321564D02*
X-329692D01*
Y-8636D01*
X-329063D01*
X-326867Y-8048D01*
X-324897Y-6910D01*
X-323289Y-5303D01*
X-322152Y-3333D01*
X-321564Y-1137D01*
Y-508D01*
D02*
G37*
G36*
X-330708D02*
X-338836D01*
Y-1137D01*
X-338247Y-3333D01*
X-337110Y-5303D01*
X-335503Y-6910D01*
X-333533Y-8048D01*
X-331337Y-8636D01*
X-330708D01*
Y-508D01*
D02*
G37*
G36*
X-183134Y-6224D02*
X-198642D01*
Y-14732D01*
X-183134D01*
Y-6224D01*
D02*
G37*
G36*
X-199658D02*
X-215166D01*
Y-14732D01*
X-199658D01*
Y-6224D01*
D02*
G37*
G36*
X297566Y-13034D02*
X291808D01*
Y-18542D01*
X297566D01*
Y-13034D01*
D02*
G37*
G36*
X290792D02*
X285034D01*
Y-18542D01*
X290792D01*
Y-13034D01*
D02*
G37*
G36*
X-282784D02*
X-288542D01*
Y-18542D01*
X-282784D01*
Y-13034D01*
D02*
G37*
G36*
X-289558D02*
X-295316D01*
Y-18542D01*
X-289558D01*
Y-13034D01*
D02*
G37*
G36*
X157416Y-3584D02*
X88384D01*
Y-11424D01*
X88367Y-11455D01*
X88203Y-13015D01*
X87758Y-14274D01*
X87015Y-15385D01*
X85944Y-16378D01*
X84511Y-17253D01*
X82697Y-17993D01*
X80500Y-18584D01*
X77923Y-19013D01*
X74972Y-19273D01*
X71703Y-19359D01*
X67816D01*
X67392Y-18935D01*
X64424Y-17221D01*
X61114Y-16334D01*
X57686D01*
X54376Y-17221D01*
X51408Y-18935D01*
X50984Y-19359D01*
X33816D01*
X33392Y-18935D01*
X30424Y-17221D01*
X27114Y-16334D01*
X23686D01*
X20376Y-17221D01*
X17408Y-18935D01*
X14985Y-21358D01*
X13271Y-24326D01*
X12384Y-27636D01*
Y-31064D01*
X13271Y-34374D01*
X14985Y-37342D01*
X17408Y-39765D01*
X20376Y-41479D01*
X23686Y-42366D01*
X27114D01*
X30424Y-41479D01*
X33392Y-39765D01*
X33816Y-39341D01*
X50984D01*
X51408Y-39765D01*
X54376Y-41479D01*
X57686Y-42366D01*
X61114D01*
X64424Y-41479D01*
X67392Y-39765D01*
X67816Y-39341D01*
X71703D01*
X74972Y-39427D01*
X77923Y-39687D01*
X80500Y-40116D01*
X82697Y-40707D01*
X84511Y-41447D01*
X85944Y-42322D01*
X87015Y-43315D01*
X87758Y-44426D01*
X88203Y-45685D01*
X88367Y-47245D01*
X88384Y-47276D01*
Y-72616D01*
X104918D01*
X105005Y-72663D01*
X106565Y-72827D01*
X107825Y-73272D01*
X108936Y-74013D01*
X109929Y-75082D01*
X110803Y-76513D01*
X111544Y-78323D01*
X112134Y-80515D01*
X112351Y-81819D01*
X112097Y-83479D01*
X111958Y-84084D01*
X110134D01*
Y-86584D01*
X109634Y-87084D01*
X109581Y-88131D01*
X109634Y-88259D01*
X109634Y-88326D01*
X109622Y-88428D01*
X109634Y-88444D01*
Y-97974D01*
X108750D01*
X107362Y-98250D01*
X107087Y-98434D01*
X105834D01*
Y-99564D01*
X105400Y-100212D01*
X105124Y-101600D01*
X105400Y-102987D01*
X105834Y-103637D01*
Y-104766D01*
X107087D01*
X107362Y-104950D01*
X108750Y-105226D01*
X109634D01*
Y-108916D01*
X136166D01*
Y-105226D01*
X137050D01*
X138437Y-104950D01*
X138712Y-104766D01*
X139966D01*
Y-103637D01*
X140400Y-102987D01*
X140676Y-101600D01*
X140400Y-100212D01*
X139966Y-99564D01*
Y-98434D01*
X138712D01*
X138437Y-98250D01*
X137050Y-97974D01*
X136166D01*
Y-88444D01*
X136178Y-88428D01*
X136166Y-88326D01*
X136166Y-88259D01*
X136219Y-88131D01*
X136166Y-87084D01*
X135666Y-86021D01*
Y-84084D01*
X133842D01*
X133703Y-83479D01*
X133449Y-81818D01*
X133666Y-80515D01*
X134256Y-78323D01*
X134997Y-76513D01*
X135871Y-75082D01*
X136864Y-74013D01*
X137975Y-73272D01*
X139235Y-72827D01*
X140795Y-72663D01*
X140882Y-72616D01*
X157416D01*
Y-3584D01*
D02*
G37*
G36*
X-183134Y-15748D02*
X-198642D01*
Y-24256D01*
X-183134D01*
Y-15748D01*
D02*
G37*
G36*
X-199658D02*
X-215166D01*
Y-24256D01*
X-199658D01*
Y-15748D01*
D02*
G37*
G36*
X217416Y-6224D02*
X185384D01*
Y-24256D01*
X216128D01*
X216190Y-24295D01*
X216293Y-24276D01*
X216373Y-24309D01*
X217416Y-24256D01*
Y-23691D01*
X217416Y-23691D01*
Y-23691D01*
X218351Y-22946D01*
X218431Y-22925D01*
X218996Y-22828D01*
X220537Y-22705D01*
X221468Y-22690D01*
X221500Y-22676D01*
X264942D01*
X264973Y-22689D01*
X265905Y-22713D01*
X266696Y-22780D01*
X267367Y-22887D01*
X267913Y-23027D01*
X268330Y-23190D01*
X268597Y-23346D01*
X269034Y-24506D01*
Y-24507D01*
X269034Y-24507D01*
Y-25066D01*
X270081Y-25119D01*
X270106Y-25109D01*
X270201Y-25113D01*
X271160Y-25813D01*
X271309Y-26179D01*
X271455Y-26726D01*
X271567Y-27398D01*
X271636Y-28191D01*
X271650Y-28708D01*
X271637Y-29205D01*
X271570Y-29996D01*
X271463Y-30667D01*
X271323Y-31213D01*
X271160Y-31630D01*
X271004Y-31897D01*
X269844Y-32334D01*
X269843D01*
Y-32334D01*
X269284Y-32334D01*
X269231Y-33380D01*
X269241Y-33405D01*
X269237Y-33501D01*
X269284Y-33586D01*
Y-42596D01*
X269284Y-42614D01*
X269237Y-42699D01*
X269241Y-42794D01*
X269231Y-42819D01*
X269284Y-43866D01*
X269843D01*
Y-43866D01*
X269844D01*
X271004Y-44303D01*
X271160Y-44570D01*
X271323Y-44987D01*
X271463Y-45533D01*
X271570Y-46204D01*
X271637Y-46995D01*
X271661Y-47927D01*
X271674Y-47958D01*
Y-52201D01*
X271661Y-52232D01*
X271636Y-53163D01*
X271567Y-53950D01*
X271455Y-54618D01*
X271310Y-55159D01*
X271141Y-55572D01*
X270965Y-55860D01*
X270798Y-56040D01*
X270639Y-56146D01*
X270459Y-56210D01*
X270105Y-56247D01*
X270018Y-56294D01*
X268234D01*
Y-65626D01*
X270074D01*
X270104Y-65643D01*
X270457Y-65680D01*
X270636Y-65744D01*
X270795Y-65850D01*
X270963Y-66032D01*
X271139Y-66322D01*
X271309Y-66740D01*
X271455Y-67286D01*
X271567Y-67958D01*
X271636Y-68751D01*
X271661Y-69688D01*
X271674Y-69719D01*
Y-77072D01*
X271661Y-77100D01*
X271635Y-77762D01*
X271562Y-78362D01*
X271441Y-78945D01*
X271272Y-79512D01*
X271055Y-80065D01*
X270788Y-80607D01*
X270470Y-81138D01*
X270099Y-81659D01*
X269675Y-82170D01*
X269170Y-82699D01*
X269096Y-82891D01*
X268389Y-83597D01*
X267253Y-85567D01*
X266664Y-87763D01*
Y-90037D01*
X267253Y-92233D01*
X268389Y-94203D01*
X269997Y-95810D01*
X271967Y-96947D01*
X274163Y-97536D01*
X276437D01*
X278633Y-96947D01*
X280603Y-95810D01*
X282211Y-94203D01*
X283347Y-92233D01*
X283936Y-90037D01*
Y-87763D01*
X283347Y-85567D01*
X282211Y-83597D01*
X281504Y-82891D01*
X281429Y-82699D01*
X280925Y-82170D01*
X280501Y-81659D01*
X280130Y-81138D01*
X279812Y-80606D01*
X279545Y-80065D01*
X279328Y-79512D01*
X279159Y-78945D01*
X279038Y-78362D01*
X278965Y-77762D01*
X278939Y-77100D01*
X278926Y-77072D01*
Y-69719D01*
X278939Y-69688D01*
X278964Y-68751D01*
X279033Y-67958D01*
X279145Y-67286D01*
X279291Y-66740D01*
X279461Y-66322D01*
X279637Y-66032D01*
X279805Y-65850D01*
X279963Y-65744D01*
X280143Y-65680D01*
X280496Y-65643D01*
X280526Y-65626D01*
X282366D01*
Y-56294D01*
X280582D01*
X280495Y-56247D01*
X280141Y-56210D01*
X279961Y-56146D01*
X279802Y-56040D01*
X279635Y-55860D01*
X279459Y-55572D01*
X279290Y-55159D01*
X279144Y-54618D01*
X279033Y-53950D01*
X278964Y-53163D01*
X278939Y-52232D01*
X278926Y-52201D01*
Y-47958D01*
X278939Y-47927D01*
X278963Y-46995D01*
X279030Y-46204D01*
X279137Y-45533D01*
X279277Y-44987D01*
X279440Y-44570D01*
X279596Y-44303D01*
X280756Y-43866D01*
X280757D01*
Y-43866D01*
X281316Y-43866D01*
X281369Y-42819D01*
X281359Y-42794D01*
X281363Y-42699D01*
X281316Y-42614D01*
Y-33604D01*
X281316Y-33586D01*
X281363Y-33501D01*
X281359Y-33405D01*
X281369Y-33380D01*
X281316Y-32334D01*
X280757D01*
Y-32334D01*
X280756D01*
X279596Y-31897D01*
X279440Y-31630D01*
X279277Y-31213D01*
X279137Y-30667D01*
X279030Y-29996D01*
X278963Y-29205D01*
X278950Y-28708D01*
X278964Y-28191D01*
X279033Y-27398D01*
X279145Y-26726D01*
X279291Y-26179D01*
X279461Y-25762D01*
X279637Y-25472D01*
X279805Y-25290D01*
X279963Y-25184D01*
X280143Y-25120D01*
X280496Y-25083D01*
X280526Y-25066D01*
X281566D01*
Y-13034D01*
X270304D01*
X270286Y-13034D01*
X270201Y-12987D01*
X270105Y-12991D01*
X270081Y-12981D01*
X269034Y-13034D01*
Y-13593D01*
X269034D01*
Y-13594D01*
X268597Y-14754D01*
X268330Y-14910D01*
X267913Y-15073D01*
X267367Y-15214D01*
X266696Y-15320D01*
X265905Y-15387D01*
X264973Y-15411D01*
X264942Y-15424D01*
X221509D01*
X221478Y-15411D01*
X220543Y-15386D01*
X219750Y-15317D01*
X219079Y-15205D01*
X218533Y-15059D01*
X218117Y-14889D01*
X217825Y-14713D01*
X217643Y-14544D01*
X217535Y-14384D01*
X217471Y-14204D01*
X217432Y-13851D01*
X217416Y-13821D01*
Y-6224D01*
D02*
G37*
G36*
X297566Y-19558D02*
X291808D01*
Y-25066D01*
X297566D01*
Y-19558D01*
D02*
G37*
G36*
X290792D02*
X285034D01*
Y-25066D01*
X290792D01*
Y-19558D01*
D02*
G37*
G36*
X-282784Y-19558D02*
X-288542D01*
Y-25066D01*
X-282784D01*
Y-19558D01*
D02*
G37*
G36*
X-289558D02*
X-295316D01*
Y-25066D01*
X-289558D01*
Y-19558D01*
D02*
G37*
G36*
X-266784Y-13034D02*
X-279316D01*
Y-25066D01*
X-278276D01*
X-278246Y-25083D01*
X-277893Y-25120D01*
X-277714Y-25184D01*
X-277555Y-25290D01*
X-277387Y-25472D01*
X-277211Y-25762D01*
X-277041Y-26179D01*
X-276895Y-26726D01*
X-276783Y-27398D01*
X-276714Y-28191D01*
X-276700Y-28708D01*
X-276713Y-29205D01*
X-276780Y-29997D01*
X-276887Y-30667D01*
X-277027Y-31213D01*
X-277190Y-31630D01*
X-277346Y-31897D01*
X-278506Y-32334D01*
X-278507D01*
Y-32334D01*
X-279066Y-32334D01*
X-279119Y-33380D01*
X-279109Y-33405D01*
X-279113Y-33501D01*
X-279066Y-33586D01*
Y-42596D01*
X-279066Y-42614D01*
X-279113Y-42699D01*
X-279109Y-42794D01*
X-279119Y-42819D01*
X-279066Y-43866D01*
X-278507D01*
Y-43866D01*
X-278506D01*
X-277346Y-44303D01*
X-277190Y-44570D01*
X-277027Y-44987D01*
X-276887Y-45533D01*
X-276780Y-46203D01*
X-276713Y-46995D01*
X-276689Y-47927D01*
X-276676Y-47958D01*
Y-52201D01*
X-276689Y-52232D01*
X-276714Y-53169D01*
X-276783Y-53962D01*
X-276895Y-54634D01*
X-277041Y-55181D01*
X-277211Y-55598D01*
X-277387Y-55888D01*
X-277555Y-56070D01*
X-277714Y-56176D01*
X-277893Y-56240D01*
X-278246Y-56277D01*
X-278276Y-56294D01*
X-280116D01*
Y-65626D01*
X-278332D01*
X-278245Y-65673D01*
X-277891Y-65711D01*
X-277711Y-65774D01*
X-277552Y-65880D01*
X-277385Y-66060D01*
X-277209Y-66348D01*
X-277040Y-66761D01*
X-276894Y-67303D01*
X-276783Y-67970D01*
X-276714Y-68757D01*
X-276689Y-69689D01*
X-276676Y-69719D01*
Y-77072D01*
X-276689Y-77100D01*
X-276715Y-77762D01*
X-276788Y-78362D01*
X-276909Y-78945D01*
X-277078Y-79512D01*
X-277295Y-80065D01*
X-277562Y-80607D01*
X-277880Y-81138D01*
X-278251Y-81659D01*
X-278675Y-82170D01*
X-279179Y-82699D01*
X-279254Y-82891D01*
X-279960Y-83597D01*
X-281098Y-85567D01*
X-281686Y-87763D01*
Y-90037D01*
X-281098Y-92233D01*
X-279960Y-94203D01*
X-278353Y-95810D01*
X-276383Y-96947D01*
X-274187Y-97536D01*
X-271913D01*
X-269717Y-96947D01*
X-267747Y-95810D01*
X-266140Y-94203D01*
X-265002Y-92233D01*
X-264414Y-90037D01*
Y-87763D01*
X-265002Y-85567D01*
X-266140Y-83597D01*
X-266846Y-82891D01*
X-266921Y-82699D01*
X-267425Y-82170D01*
X-267849Y-81659D01*
X-268220Y-81138D01*
X-268538Y-80606D01*
X-268805Y-80065D01*
X-269022Y-79512D01*
X-269191Y-78945D01*
X-269312Y-78362D01*
X-269385Y-77762D01*
X-269411Y-77100D01*
X-269424Y-77072D01*
Y-69719D01*
X-269411Y-69689D01*
X-269386Y-68757D01*
X-269317Y-67970D01*
X-269205Y-67303D01*
X-269060Y-66761D01*
X-268891Y-66348D01*
X-268715Y-66060D01*
X-268548Y-65880D01*
X-268389Y-65774D01*
X-268209Y-65711D01*
X-267855Y-65673D01*
X-267768Y-65626D01*
X-267323D01*
X-267295Y-65647D01*
X-267158Y-65626D01*
X-267031Y-65679D01*
X-265984Y-65626D01*
Y-65067D01*
X-265984D01*
Y-65066D01*
X-264826Y-64749D01*
X-262870Y-64610D01*
X-261938Y-64600D01*
X-261905Y-64586D01*
X-219259D01*
X-219228Y-64599D01*
X-218291Y-64624D01*
X-217498Y-64693D01*
X-216826Y-64805D01*
X-216280Y-64951D01*
X-215862Y-65121D01*
X-215572Y-65297D01*
X-215390Y-65465D01*
X-215284Y-65624D01*
X-215220Y-65803D01*
X-215183Y-66156D01*
X-215166Y-66186D01*
Y-69976D01*
X-183134D01*
Y-51944D01*
X-215166D01*
Y-55734D01*
X-215183Y-55764D01*
X-215220Y-56117D01*
X-215284Y-56297D01*
X-215390Y-56455D01*
X-215572Y-56623D01*
X-215862Y-56800D01*
X-216280Y-56969D01*
X-216826Y-57115D01*
X-217498Y-57227D01*
X-218291Y-57296D01*
X-219228Y-57321D01*
X-219259Y-57334D01*
X-261905D01*
X-261938Y-57320D01*
X-262880Y-57310D01*
X-264450Y-57227D01*
X-264826Y-57183D01*
X-265984Y-56854D01*
Y-56853D01*
X-265984D01*
Y-56294D01*
X-267031Y-56241D01*
X-267158Y-56294D01*
X-267295Y-56273D01*
X-267323Y-56294D01*
X-267824D01*
X-267854Y-56277D01*
X-268207Y-56240D01*
X-268386Y-56176D01*
X-268545Y-56070D01*
X-268713Y-55888D01*
X-268889Y-55598D01*
X-269059Y-55181D01*
X-269205Y-54634D01*
X-269317Y-53962D01*
X-269386Y-53169D01*
X-269411Y-52232D01*
X-269424Y-52201D01*
Y-47958D01*
X-269411Y-47927D01*
X-269387Y-46995D01*
X-269320Y-46203D01*
X-269214Y-45533D01*
X-269073Y-44987D01*
X-268910Y-44570D01*
X-268754Y-44303D01*
X-267594Y-43866D01*
X-267593D01*
Y-43866D01*
X-267034Y-43866D01*
X-266981Y-42819D01*
X-266991Y-42794D01*
X-266987Y-42699D01*
X-267034Y-42614D01*
Y-33604D01*
X-267034Y-33586D01*
X-266987Y-33501D01*
X-266991Y-33405D01*
X-266981Y-33380D01*
X-267034Y-32334D01*
X-267593D01*
Y-32334D01*
X-267594D01*
X-268754Y-31897D01*
X-268910Y-31630D01*
X-269073Y-31213D01*
X-269214Y-30667D01*
X-269320Y-29997D01*
X-269387Y-29205D01*
X-269400Y-28708D01*
X-269386Y-28191D01*
X-269317Y-27398D01*
X-269205Y-26726D01*
X-269059Y-26179D01*
X-268889Y-25762D01*
X-268713Y-25472D01*
X-268545Y-25290D01*
X-268386Y-25184D01*
X-268207Y-25120D01*
X-267854Y-25083D01*
X-267824Y-25066D01*
X-266784D01*
Y-13034D01*
D02*
G37*
G36*
X297316Y-32334D02*
X291808D01*
Y-37592D01*
X297316D01*
Y-32334D01*
D02*
G37*
G36*
X290792D02*
X285284D01*
Y-37592D01*
X290792D01*
Y-32334D01*
D02*
G37*
G36*
X-283034D02*
X-288542D01*
Y-37592D01*
X-283034D01*
Y-32334D01*
D02*
G37*
G36*
X-289558D02*
X-295066D01*
Y-37592D01*
X-289558D01*
Y-32334D01*
D02*
G37*
G36*
X-86134Y-3584D02*
X-155166D01*
Y-72616D01*
X-138576D01*
X-138545Y-72633D01*
X-136985Y-72797D01*
X-135726Y-73242D01*
X-134615Y-73985D01*
X-133622Y-75055D01*
X-132747Y-76489D01*
X-132007Y-78303D01*
X-131416Y-80500D01*
X-131198Y-81812D01*
X-131453Y-83479D01*
X-131592Y-84084D01*
X-133416D01*
Y-86584D01*
X-133916Y-87084D01*
X-133969Y-88131D01*
X-133916Y-88259D01*
X-133916Y-88326D01*
X-133928Y-88428D01*
X-133916Y-88444D01*
Y-97974D01*
X-134800D01*
X-136187Y-98250D01*
X-136462Y-98434D01*
X-137716D01*
Y-99564D01*
X-138150Y-100212D01*
X-138426Y-101600D01*
X-138150Y-102987D01*
X-137716Y-103637D01*
Y-104766D01*
X-136462D01*
X-136187Y-104950D01*
X-134800Y-105226D01*
X-133916D01*
Y-108916D01*
X-107384D01*
Y-105226D01*
X-106500D01*
X-105112Y-104950D01*
X-104838Y-104766D01*
X-103584D01*
Y-103637D01*
X-103150Y-102987D01*
X-102874Y-101600D01*
X-103150Y-100212D01*
X-103584Y-99564D01*
Y-98434D01*
X-104838D01*
X-105112Y-98250D01*
X-106500Y-97974D01*
X-107384D01*
Y-88444D01*
X-107372Y-88428D01*
X-107384Y-88326D01*
X-107384Y-88259D01*
X-107331Y-88131D01*
X-107384Y-87084D01*
X-107884Y-86021D01*
Y-84084D01*
X-109708D01*
X-109847Y-83479D01*
X-110102Y-81812D01*
X-109884Y-80500D01*
X-109293Y-78303D01*
X-108553Y-76489D01*
X-107678Y-75055D01*
X-106685Y-73985D01*
X-105574Y-73242D01*
X-104315Y-72797D01*
X-102755Y-72633D01*
X-102724Y-72616D01*
X-86134D01*
Y-47276D01*
X-86117Y-47245D01*
X-85953Y-45685D01*
X-85508Y-44426D01*
X-84765Y-43315D01*
X-83694Y-42322D01*
X-82261Y-41447D01*
X-80447Y-40707D01*
X-78250Y-40116D01*
X-75673Y-39687D01*
X-72722Y-39427D01*
X-69453Y-39341D01*
X-65566D01*
X-65142Y-39765D01*
X-62174Y-41479D01*
X-58864Y-42366D01*
X-55436D01*
X-52126Y-41479D01*
X-49158Y-39765D01*
X-48734Y-39341D01*
X-31566D01*
X-31142Y-39765D01*
X-28174Y-41479D01*
X-24864Y-42366D01*
X-21437D01*
X-18126Y-41479D01*
X-15158Y-39765D01*
X-12735Y-37342D01*
X-11021Y-34374D01*
X-10134Y-31064D01*
Y-27636D01*
X-11021Y-24326D01*
X-12735Y-21358D01*
X-15158Y-18935D01*
X-18126Y-17221D01*
X-21437Y-16334D01*
X-24864D01*
X-28174Y-17221D01*
X-31142Y-18935D01*
X-31566Y-19359D01*
X-48734D01*
X-49158Y-18935D01*
X-52126Y-17221D01*
X-55436Y-16334D01*
X-58864D01*
X-62174Y-17221D01*
X-65142Y-18935D01*
X-65566Y-19359D01*
X-69453D01*
X-72722Y-19273D01*
X-75673Y-19013D01*
X-78250Y-18584D01*
X-80447Y-17993D01*
X-82261Y-17253D01*
X-83694Y-16378D01*
X-84765Y-15385D01*
X-85508Y-14274D01*
X-85953Y-13015D01*
X-86117Y-11455D01*
X-86134Y-11424D01*
Y-3584D01*
D02*
G37*
G36*
X297316Y-38608D02*
X291808D01*
Y-43866D01*
X297316D01*
Y-38608D01*
D02*
G37*
G36*
X290792D02*
X285284D01*
Y-43866D01*
X290792D01*
Y-38608D01*
D02*
G37*
G36*
X-283034Y-38608D02*
X-288542D01*
Y-43866D01*
X-283034D01*
Y-38608D01*
D02*
G37*
G36*
X-289558D02*
X-295066D01*
Y-43866D01*
X-289558D01*
Y-38608D01*
D02*
G37*
G36*
X314919Y-56241D02*
X314792Y-56294D01*
X314655Y-56273D01*
X314627Y-56294D01*
X301834D01*
Y-65626D01*
X314627D01*
X314655Y-65647D01*
X314792Y-65626D01*
X314919Y-65679D01*
X315966Y-65626D01*
Y-65067D01*
X315966D01*
Y-65066D01*
X317124Y-64749D01*
X319079Y-64610D01*
X320012Y-64600D01*
X320044Y-64586D01*
X324400D01*
X325304Y-64960D01*
X326896D01*
X328366Y-64351D01*
X329491Y-63226D01*
X330100Y-61756D01*
Y-60164D01*
X329491Y-58694D01*
X328366Y-57569D01*
X326896Y-56960D01*
X325304D01*
X324401Y-57334D01*
X320044D01*
X320012Y-57320D01*
X319070Y-57310D01*
X317500Y-57227D01*
X317124Y-57183D01*
X315966Y-56854D01*
Y-56853D01*
X315966D01*
Y-56294D01*
X314919Y-56241D01*
D02*
G37*
G36*
X-312669D02*
X-313716Y-56294D01*
Y-56853D01*
X-313716D01*
Y-56854D01*
X-314874Y-57172D01*
X-316829Y-57310D01*
X-317762Y-57320D01*
X-317794Y-57334D01*
X-322151D01*
X-323054Y-56960D01*
X-324646D01*
X-326116Y-57569D01*
X-327241Y-58694D01*
X-327850Y-60164D01*
Y-61756D01*
X-327241Y-63226D01*
X-326116Y-64351D01*
X-324646Y-64960D01*
X-323054D01*
X-322151Y-64586D01*
X-317794D01*
X-317762Y-64600D01*
X-316820Y-64610D01*
X-315250Y-64694D01*
X-314874Y-64737D01*
X-313716Y-65066D01*
Y-65067D01*
X-313716D01*
Y-65626D01*
X-312669Y-65679D01*
X-312542Y-65626D01*
X-312405Y-65647D01*
X-312377Y-65626D01*
X-299584D01*
Y-56294D01*
X-312377D01*
X-312405Y-56273D01*
X-312542Y-56294D01*
X-312669Y-56241D01*
D02*
G37*
G36*
X217416Y-51944D02*
X201908D01*
Y-60452D01*
X217416D01*
Y-51944D01*
D02*
G37*
G36*
X200892D02*
X185384D01*
Y-60452D01*
X200892D01*
Y-51944D01*
D02*
G37*
G36*
X217416Y-61468D02*
X201908D01*
Y-69976D01*
X217416D01*
Y-61468D01*
D02*
G37*
G36*
X200892D02*
X185384D01*
Y-69976D01*
X200892D01*
Y-61468D01*
D02*
G37*
G36*
X126150Y-111974D02*
X125599Y-112084D01*
X123384D01*
Y-112084D01*
X122416D01*
Y-112084D01*
X120201D01*
X119650Y-111974D01*
X119099Y-112084D01*
X116884D01*
Y-112084D01*
X115916D01*
Y-112084D01*
X113701D01*
X113150Y-111974D01*
X112599Y-112084D01*
X110384D01*
Y-113339D01*
X109800Y-114213D01*
X109524Y-115600D01*
Y-120820D01*
X106680D01*
X105902Y-121142D01*
X103362Y-123682D01*
X103040Y-124460D01*
Y-129540D01*
X103362Y-130318D01*
X105902Y-132858D01*
X106680Y-133180D01*
X132080D01*
X132858Y-132858D01*
X135398Y-130318D01*
X135720Y-129540D01*
Y-124460D01*
X135398Y-123682D01*
X132858Y-121142D01*
X132080Y-120820D01*
X130849D01*
X130506Y-120386D01*
X130983Y-119263D01*
X131121Y-119116D01*
X132142D01*
Y-115600D01*
Y-112084D01*
X130186D01*
X129884Y-112084D01*
X128916D01*
X128614Y-112084D01*
X126701D01*
X126150Y-111974D01*
D02*
G37*
G36*
X-117400D02*
X-117951Y-112084D01*
X-120166D01*
Y-112084D01*
X-121134D01*
Y-112084D01*
X-123349D01*
X-123900Y-111974D01*
X-124451Y-112084D01*
X-126666D01*
Y-112084D01*
X-127634D01*
Y-112084D01*
X-129849D01*
X-130400Y-111974D01*
X-130951Y-112084D01*
X-133166D01*
Y-113339D01*
X-133750Y-114213D01*
X-134026Y-115600D01*
Y-120820D01*
X-136870D01*
X-137648Y-121142D01*
X-140188Y-123682D01*
X-140510Y-124460D01*
Y-129540D01*
X-140188Y-130318D01*
X-137648Y-132858D01*
X-136870Y-133180D01*
X-111470D01*
X-110692Y-132858D01*
X-108152Y-130318D01*
X-107830Y-129540D01*
Y-124460D01*
X-108152Y-123682D01*
X-110692Y-121142D01*
X-111470Y-120820D01*
X-112701D01*
X-113044Y-120386D01*
X-112567Y-119263D01*
X-112429Y-119116D01*
X-111408D01*
Y-115600D01*
Y-112084D01*
X-113364D01*
X-113666Y-112084D01*
X-114634D01*
X-114936Y-112084D01*
X-116849D01*
X-117400Y-111974D01*
D02*
G37*
G36*
X-110392Y-112084D02*
Y-115092D01*
X-108134D01*
Y-112084D01*
X-110392D01*
D02*
G37*
G36*
X133158D02*
Y-115092D01*
X135416D01*
Y-112084D01*
X133158D01*
D02*
G37*
G36*
X135416Y-116108D02*
X133158D01*
Y-119116D01*
X135416D01*
Y-116108D01*
D02*
G37*
G36*
X-108134Y-116108D02*
X-110392D01*
Y-119116D01*
X-108134D01*
Y-116108D01*
D02*
G37*
G36*
X332279Y-81534D02*
X328121D01*
X324014Y-82184D01*
X320060Y-83469D01*
X316355Y-85357D01*
X312991Y-87801D01*
X310051Y-90741D01*
X307607Y-94105D01*
X305719Y-97810D01*
X304434Y-101764D01*
X303784Y-105871D01*
Y-110029D01*
X304434Y-114136D01*
X305719Y-118090D01*
X307607Y-121795D01*
X310051Y-125159D01*
X312991Y-128099D01*
X316355Y-130543D01*
X320060Y-132431D01*
X324014Y-133716D01*
X328121Y-134366D01*
X332279D01*
X336386Y-133716D01*
X340340Y-132431D01*
X344045Y-130543D01*
X347409Y-128099D01*
X350349Y-125159D01*
X352793Y-121795D01*
X354681Y-118090D01*
X355966Y-114136D01*
X356616Y-110029D01*
Y-105871D01*
X355966Y-101764D01*
X354681Y-97810D01*
X352793Y-94105D01*
X350349Y-90741D01*
X347409Y-87801D01*
X344045Y-85357D01*
X340340Y-83469D01*
X336386Y-82184D01*
X332279Y-81534D01*
D02*
G37*
G36*
X-328121D02*
X-332279D01*
X-336386Y-82184D01*
X-340340Y-83469D01*
X-344045Y-85357D01*
X-347409Y-87801D01*
X-350349Y-90741D01*
X-352793Y-94105D01*
X-354681Y-97810D01*
X-355966Y-101764D01*
X-356616Y-105871D01*
Y-110029D01*
X-355966Y-114136D01*
X-354681Y-118090D01*
X-352793Y-121795D01*
X-350349Y-125159D01*
X-347409Y-128099D01*
X-344045Y-130543D01*
X-340340Y-132431D01*
X-336386Y-133716D01*
X-332279Y-134366D01*
X-328121D01*
X-324014Y-133716D01*
X-320060Y-132431D01*
X-316355Y-130543D01*
X-312991Y-128099D01*
X-310051Y-125159D01*
X-307607Y-121795D01*
X-305719Y-118090D01*
X-304434Y-114136D01*
X-303784Y-110029D01*
Y-105871D01*
X-304434Y-101764D01*
X-305719Y-97810D01*
X-307607Y-94105D01*
X-310051Y-90741D01*
X-312991Y-87801D01*
X-316355Y-85357D01*
X-320060Y-83469D01*
X-324014Y-82184D01*
X-328121Y-81534D01*
D02*
G37*
G36*
X331337Y-162814D02*
X330708D01*
Y-170942D01*
X338836D01*
Y-170313D01*
X338247Y-168117D01*
X337110Y-166147D01*
X335503Y-164540D01*
X333533Y-163403D01*
X331337Y-162814D01*
D02*
G37*
G36*
X-329063D02*
X-329692D01*
Y-170942D01*
X-321564D01*
Y-170313D01*
X-322152Y-168117D01*
X-323289Y-166147D01*
X-324897Y-164540D01*
X-326867Y-163403D01*
X-329063Y-162814D01*
D02*
G37*
G36*
X-330708D02*
X-331337D01*
X-333533Y-163403D01*
X-335503Y-164540D01*
X-337110Y-166147D01*
X-338247Y-168117D01*
X-338836Y-170313D01*
Y-170942D01*
X-330708D01*
Y-162814D01*
D02*
G37*
G36*
X329692D02*
X329063D01*
X326867Y-163403D01*
X324897Y-164540D01*
X323289Y-166147D01*
X322152Y-168117D01*
X321564Y-170313D01*
Y-170942D01*
X329692D01*
Y-162814D01*
D02*
G37*
G36*
X338836Y-171958D02*
X330708D01*
Y-180086D01*
X331337D01*
X333533Y-179498D01*
X335503Y-178361D01*
X337110Y-176753D01*
X338247Y-174783D01*
X338836Y-172587D01*
Y-171958D01*
D02*
G37*
G36*
X329692D02*
X321564D01*
Y-172587D01*
X322152Y-174783D01*
X323289Y-176753D01*
X324897Y-178361D01*
X326867Y-179498D01*
X329063Y-180086D01*
X329692D01*
Y-171958D01*
D02*
G37*
G36*
X-321564D02*
X-329692D01*
Y-180086D01*
X-329063D01*
X-326867Y-179498D01*
X-324897Y-178361D01*
X-323289Y-176753D01*
X-322152Y-174783D01*
X-321564Y-172587D01*
Y-171958D01*
D02*
G37*
G36*
X-330708D02*
X-338836D01*
Y-172587D01*
X-338247Y-174783D01*
X-337110Y-176753D01*
X-335503Y-178361D01*
X-333533Y-179498D01*
X-331337Y-180086D01*
X-330708D01*
Y-171958D01*
D02*
G37*
G36*
X-11205Y-230950D02*
X-12796D01*
X-14266Y-231559D01*
X-15281Y-232573D01*
X-16000Y-232633D01*
X-16720Y-232573D01*
X-17735Y-231559D01*
X-19205Y-230950D01*
X-20796D01*
X-22266Y-231559D01*
X-23391Y-232684D01*
X-24000Y-234154D01*
Y-235746D01*
X-23391Y-237216D01*
X-22266Y-238341D01*
X-22554Y-239596D01*
X-22914Y-240034D01*
X-24484Y-240034D01*
X-24786Y-240034D01*
X-27492D01*
Y-251050D01*
Y-262066D01*
X-24786D01*
X-24484Y-262066D01*
X-23516D01*
X-23214Y-262066D01*
X-16786D01*
X-16484Y-262066D01*
X-15516D01*
X-15214Y-262066D01*
X-8786D01*
X-8484Y-262066D01*
X-7516D01*
X-7214Y-262066D01*
X-4508D01*
Y-251050D01*
Y-240034D01*
X-7214D01*
X-7516Y-240034D01*
X-8484D01*
X-9087Y-240034D01*
X-9447Y-239596D01*
X-9735Y-238341D01*
X-8609Y-237216D01*
X-8001Y-235746D01*
Y-234154D01*
X-8609Y-232684D01*
X-9735Y-231559D01*
X-11205Y-230950D01*
D02*
G37*
G36*
X148795D02*
X147204D01*
X145734Y-231559D01*
X144719Y-232573D01*
X144000Y-232633D01*
X143280Y-232573D01*
X142265Y-231559D01*
X140795Y-230950D01*
X139204D01*
X137734Y-231559D01*
X136719Y-232573D01*
X135999Y-232633D01*
X135280Y-232573D01*
X134265Y-231559D01*
X132795Y-230950D01*
X131204D01*
X129734Y-231559D01*
X128609Y-232684D01*
X127999Y-234154D01*
Y-235746D01*
X128609Y-237216D01*
X129734Y-238341D01*
X129446Y-239596D01*
X129086Y-240034D01*
X128484Y-240034D01*
X127214Y-240034D01*
X124508D01*
Y-251050D01*
Y-262066D01*
X127214D01*
X127516Y-262066D01*
X128786Y-262066D01*
X135214D01*
X135516Y-262066D01*
X136484D01*
X136786Y-262066D01*
X143214D01*
X143516Y-262066D01*
X144484D01*
X144786Y-262066D01*
X151214D01*
X151516Y-262066D01*
X152484D01*
X152786Y-262066D01*
X155492D01*
Y-251050D01*
Y-240034D01*
X152786D01*
X152484Y-240034D01*
X151516D01*
X150913Y-240034D01*
X150553Y-239596D01*
X150265Y-238341D01*
X151391Y-237216D01*
X152000Y-235746D01*
Y-234154D01*
X151391Y-232684D01*
X150265Y-231559D01*
X148795Y-230950D01*
D02*
G37*
G36*
X-131205Y-230950D02*
X-132796D01*
X-134266Y-231559D01*
X-135281Y-232573D01*
X-136000Y-232633D01*
X-136720Y-232573D01*
X-137734Y-231559D01*
X-139205Y-230950D01*
X-140796D01*
X-142266Y-231559D01*
X-143280Y-232573D01*
X-144000Y-232633D01*
X-144720Y-232573D01*
X-145734Y-231559D01*
X-147205Y-230950D01*
X-148796D01*
X-150266Y-231559D01*
X-151391Y-232684D01*
X-152000Y-234154D01*
Y-235746D01*
X-151391Y-237216D01*
X-150266Y-238341D01*
X-150554Y-239597D01*
X-150913Y-240034D01*
X-152484Y-240034D01*
X-152786Y-240034D01*
X-155492D01*
Y-251050D01*
Y-262066D01*
X-152786D01*
X-152484Y-262066D01*
X-151516D01*
X-151214Y-262066D01*
X-144786D01*
X-144484Y-262066D01*
X-143516D01*
X-143214Y-262066D01*
X-136786D01*
X-136484Y-262066D01*
X-135516D01*
X-135214Y-262066D01*
X-128786D01*
X-127516Y-262066D01*
X-127214Y-262066D01*
X-124508D01*
Y-251050D01*
Y-240034D01*
X-127214D01*
X-128484Y-240034D01*
X-129087Y-240034D01*
X-129446Y-239596D01*
X-129734Y-238341D01*
X-128609Y-237216D01*
X-128000Y-235746D01*
Y-234154D01*
X-128609Y-232684D01*
X-129734Y-231559D01*
X-131205Y-230950D01*
D02*
G37*
G36*
X111516Y-240034D02*
X111214Y-240034D01*
X108508D01*
Y-251050D01*
Y-262066D01*
X111214D01*
X112484Y-262066D01*
X112786Y-262066D01*
X119214D01*
X119516Y-262066D01*
X120484D01*
X120786Y-262066D01*
X123492D01*
Y-251050D01*
Y-240034D01*
X120786D01*
X120484Y-240034D01*
X119516D01*
X119214Y-240034D01*
X112786D01*
X111516Y-240034D01*
D02*
G37*
G36*
X104484D02*
X103516D01*
X103214Y-240034D01*
X96786D01*
X96484Y-240034D01*
X95516D01*
X95214Y-240034D01*
X92508D01*
Y-251050D01*
Y-262066D01*
X95214D01*
X95516Y-262066D01*
X96484D01*
X96786Y-262066D01*
X103214D01*
X103516Y-262066D01*
X104484D01*
X104786Y-262066D01*
X107492D01*
Y-251050D01*
Y-240034D01*
X104786D01*
X104484Y-240034D01*
D02*
G37*
G36*
X88484D02*
X87516D01*
X87214Y-240034D01*
X80786D01*
X80484Y-240034D01*
X79214Y-240034D01*
X72786D01*
X72484Y-240034D01*
X71516D01*
X71214Y-240034D01*
X68508D01*
Y-251050D01*
Y-262066D01*
X71214D01*
X71516Y-262066D01*
X72484D01*
X72786Y-262066D01*
X79214D01*
X79516Y-262066D01*
X80786Y-262066D01*
X87214D01*
X87516Y-262066D01*
X88484D01*
X88786Y-262066D01*
X91492D01*
Y-251050D01*
Y-240034D01*
X88786D01*
X88484Y-240034D01*
D02*
G37*
G36*
X56484D02*
X55516D01*
X55214Y-240034D01*
X48786D01*
X48484Y-240034D01*
X47516D01*
X47214Y-240034D01*
X44508D01*
Y-251050D01*
Y-262066D01*
X47214D01*
X47516Y-262066D01*
X48484D01*
X48786Y-262066D01*
X55214D01*
X55516Y-262066D01*
X56484D01*
X56786Y-262066D01*
X63214D01*
X64484Y-262066D01*
X64786Y-262066D01*
X67492D01*
Y-251050D01*
Y-240034D01*
X64786D01*
X63516Y-240034D01*
X63214Y-240034D01*
X56786D01*
X56484Y-240034D01*
D02*
G37*
G36*
X40484D02*
X39516D01*
X39214Y-240034D01*
X32786D01*
X32484Y-240034D01*
X31516D01*
X31214Y-240034D01*
X24786D01*
X24484Y-240034D01*
X23516D01*
X23214Y-240034D01*
X20508D01*
Y-251050D01*
Y-262066D01*
X23214D01*
X23516Y-262066D01*
X24484D01*
X24786Y-262066D01*
X31214D01*
X31516Y-262066D01*
X32484D01*
X32786Y-262066D01*
X39214D01*
X39516Y-262066D01*
X40484D01*
X40786Y-262066D01*
X43492D01*
Y-251050D01*
Y-240034D01*
X40786D01*
X40484Y-240034D01*
D02*
G37*
G36*
X16484D02*
X15516D01*
X15214Y-240034D01*
X8786D01*
X8484Y-240034D01*
X7516D01*
X7214Y-240034D01*
X786D01*
X484Y-240034D01*
X-484D01*
X-786Y-240034D01*
X-3492D01*
Y-251050D01*
Y-262066D01*
X-786D01*
X-484Y-262066D01*
X484D01*
X786Y-262066D01*
X7214D01*
X7516Y-262066D01*
X8484D01*
X8786Y-262066D01*
X15214D01*
X15516Y-262066D01*
X16484D01*
X16786Y-262066D01*
X19492D01*
Y-251050D01*
Y-240034D01*
X16786D01*
X16484Y-240034D01*
D02*
G37*
G36*
X-31516D02*
X-32484D01*
X-32786Y-240034D01*
X-39214D01*
X-39516Y-240034D01*
X-40484D01*
X-40786Y-240034D01*
X-47214D01*
X-47516Y-240034D01*
X-48484D01*
X-48786Y-240034D01*
X-51492D01*
Y-251050D01*
Y-262066D01*
X-48786D01*
X-48484Y-262066D01*
X-47516D01*
X-47214Y-262066D01*
X-40786D01*
X-40484Y-262066D01*
X-39516D01*
X-39214Y-262066D01*
X-32786D01*
X-32484Y-262066D01*
X-31516D01*
X-31214Y-262066D01*
X-28508D01*
Y-251050D01*
Y-240034D01*
X-31214D01*
X-31516Y-240034D01*
D02*
G37*
G36*
X-55516D02*
X-56484D01*
X-56786Y-240034D01*
X-63214D01*
X-63516Y-240034D01*
X-64786Y-240034D01*
X-71214D01*
X-71516Y-240034D01*
X-72484D01*
X-72786Y-240034D01*
X-75492D01*
Y-251050D01*
Y-262066D01*
X-72786D01*
X-72484Y-262066D01*
X-71516D01*
X-71214Y-262066D01*
X-64786D01*
X-64484Y-262066D01*
X-63214Y-262066D01*
X-56786D01*
X-56484Y-262066D01*
X-55516D01*
X-55214Y-262066D01*
X-52508D01*
Y-251050D01*
Y-240034D01*
X-55214D01*
X-55516Y-240034D01*
D02*
G37*
G36*
X-87516D02*
X-88484D01*
X-88786Y-240034D01*
X-95214D01*
X-95516Y-240034D01*
X-96484D01*
X-96786Y-240034D01*
X-99492D01*
Y-251050D01*
Y-262066D01*
X-96786D01*
X-96484Y-262066D01*
X-95516D01*
X-95214Y-262066D01*
X-88786D01*
X-88484Y-262066D01*
X-87516D01*
X-87214Y-262066D01*
X-80786D01*
X-79516Y-262066D01*
X-79214Y-262066D01*
X-76508D01*
Y-251050D01*
Y-240034D01*
X-79214D01*
X-80484Y-240034D01*
X-80786Y-240034D01*
X-87214D01*
X-87516Y-240034D01*
D02*
G37*
G36*
X-103516D02*
X-104484D01*
X-104786Y-240034D01*
X-111214D01*
X-111516Y-240034D01*
X-112786Y-240034D01*
X-119214D01*
X-119516Y-240034D01*
X-120484D01*
X-120786Y-240034D01*
X-123492D01*
Y-251050D01*
Y-262066D01*
X-120786D01*
X-120484Y-262066D01*
X-119516D01*
X-119214Y-262066D01*
X-112786D01*
X-112484Y-262066D01*
X-111214Y-262066D01*
X-104786D01*
X-104484Y-262066D01*
X-103516D01*
X-103214Y-262066D01*
X-100508D01*
Y-251050D01*
Y-240034D01*
X-103214D01*
X-103516Y-240034D01*
D02*
G37*
G36*
X156508Y-240034D02*
Y-250542D01*
X159516D01*
Y-240034D01*
X156508D01*
D02*
G37*
G36*
X-156508D02*
X-159516D01*
Y-250542D01*
X-156508D01*
Y-240034D01*
D02*
G37*
G36*
X331337Y-251714D02*
X330708D01*
Y-259842D01*
X338836D01*
Y-259213D01*
X338247Y-257017D01*
X337110Y-255047D01*
X335503Y-253440D01*
X333533Y-252302D01*
X331337Y-251714D01*
D02*
G37*
G36*
X-329063D02*
X-329692D01*
Y-259842D01*
X-321564D01*
Y-259213D01*
X-322152Y-257017D01*
X-323289Y-255047D01*
X-324897Y-253440D01*
X-326867Y-252302D01*
X-329063Y-251714D01*
D02*
G37*
G36*
X-330708D02*
X-331337D01*
X-333533Y-252302D01*
X-335503Y-253440D01*
X-337110Y-255047D01*
X-338247Y-257017D01*
X-338836Y-259213D01*
Y-259842D01*
X-330708D01*
Y-251714D01*
D02*
G37*
G36*
X329692D02*
X329063D01*
X326867Y-252302D01*
X324897Y-253440D01*
X323289Y-255047D01*
X322152Y-257017D01*
X321564Y-259213D01*
Y-259842D01*
X329692D01*
Y-251714D01*
D02*
G37*
G36*
X159516Y-251558D02*
X156508D01*
Y-262066D01*
X159516D01*
Y-251558D01*
D02*
G37*
G36*
X-156508D02*
X-159516D01*
Y-262066D01*
X-156508D01*
Y-251558D01*
D02*
G37*
G36*
X338836Y-260858D02*
X330708D01*
Y-268986D01*
X331337D01*
X333533Y-268398D01*
X335503Y-267260D01*
X337110Y-265653D01*
X338247Y-263683D01*
X338836Y-261487D01*
Y-260858D01*
D02*
G37*
G36*
X329692D02*
X321564D01*
Y-261487D01*
X322152Y-263683D01*
X323289Y-265653D01*
X324897Y-267260D01*
X326867Y-268398D01*
X329063Y-268986D01*
X329692D01*
Y-260858D01*
D02*
G37*
G36*
X-321564D02*
X-329692D01*
Y-268986D01*
X-329063D01*
X-326867Y-268398D01*
X-324897Y-267260D01*
X-323289Y-265653D01*
X-322152Y-263683D01*
X-321564Y-261487D01*
Y-260858D01*
D02*
G37*
G36*
X-330708D02*
X-338836D01*
Y-261487D01*
X-338247Y-263683D01*
X-337110Y-265653D01*
X-335503Y-267260D01*
X-333533Y-268398D01*
X-331337Y-268986D01*
X-330708D01*
Y-260858D01*
D02*
G37*
G36*
X127516Y-284034D02*
X127214Y-284034D01*
X124508D01*
Y-295050D01*
Y-306066D01*
X127214D01*
X128484Y-306066D01*
X128786Y-306066D01*
X129088D01*
X129447Y-306503D01*
X129735Y-307759D01*
X128609Y-308884D01*
X128000Y-310354D01*
Y-311946D01*
X128609Y-313416D01*
X129735Y-314541D01*
X131205Y-315150D01*
X132796D01*
X134266Y-314541D01*
X135281Y-313527D01*
X136000Y-313467D01*
X136720Y-313527D01*
X137735Y-314541D01*
X139205Y-315150D01*
X140796D01*
X142266Y-314541D01*
X143281Y-313527D01*
X144001Y-313467D01*
X144720Y-313527D01*
X145735Y-314541D01*
X147205Y-315150D01*
X148796D01*
X150266Y-314541D01*
X151391Y-313416D01*
X152001Y-311946D01*
Y-310354D01*
X151391Y-308884D01*
X150266Y-307759D01*
X150554Y-306503D01*
X150913Y-306066D01*
X152484Y-306066D01*
X152786Y-306066D01*
X155492D01*
Y-295050D01*
Y-284034D01*
X152786D01*
X152484Y-284034D01*
X151516D01*
X151214Y-284034D01*
X144786D01*
X144484Y-284034D01*
X143516D01*
X143214Y-284034D01*
X136786D01*
X136484Y-284034D01*
X135516D01*
X135214Y-284034D01*
X128786D01*
X127516Y-284034D01*
D02*
G37*
G36*
X120484D02*
X119516D01*
X119214Y-284034D01*
X112786D01*
X112484Y-284034D01*
X111214Y-284034D01*
X108508D01*
Y-295050D01*
Y-306066D01*
X111214D01*
X111516Y-306066D01*
X112786Y-306066D01*
X119214D01*
X119516Y-306066D01*
X120484D01*
X120786Y-306066D01*
X123492D01*
Y-295050D01*
Y-284034D01*
X120786D01*
X120484Y-284034D01*
D02*
G37*
G36*
X72484D02*
X71516D01*
X71214Y-284034D01*
X68508D01*
Y-295050D01*
Y-306066D01*
X71214D01*
X71516Y-306066D01*
X72484D01*
X72786Y-306066D01*
X79214D01*
X80484Y-306066D01*
X80786Y-306066D01*
X87214D01*
X87516Y-306066D01*
X88484D01*
X88786Y-306066D01*
X91492D01*
Y-295050D01*
Y-284034D01*
X88786D01*
X88484Y-284034D01*
X87516D01*
X87214Y-284034D01*
X80786D01*
X79516Y-284034D01*
X79214Y-284034D01*
X72786D01*
X72484Y-284034D01*
D02*
G37*
G36*
X-71516D02*
X-72484D01*
X-72786Y-284034D01*
X-75492D01*
Y-295050D01*
Y-306066D01*
X-72786D01*
X-72484Y-306066D01*
X-71516D01*
X-71214Y-306066D01*
X-64786D01*
X-63516Y-306066D01*
X-63214Y-306066D01*
X-56786D01*
X-56484Y-306066D01*
X-55516D01*
X-55214Y-306066D01*
X-52508D01*
Y-295050D01*
Y-284034D01*
X-55214D01*
X-55516Y-284034D01*
X-56484D01*
X-56786Y-284034D01*
X-63214D01*
X-64484Y-284034D01*
X-64786Y-284034D01*
X-71214D01*
X-71516Y-284034D01*
D02*
G37*
G36*
X-119516D02*
X-120484D01*
X-120786Y-284034D01*
X-123492D01*
Y-295050D01*
Y-306066D01*
X-120786D01*
X-120484Y-306066D01*
X-119516D01*
X-119214Y-306066D01*
X-112786D01*
X-111516Y-306066D01*
X-111214Y-306066D01*
X-104786D01*
X-104484Y-306066D01*
X-103516D01*
X-103214Y-306066D01*
X-100508D01*
Y-295050D01*
Y-284034D01*
X-103214D01*
X-103516Y-284034D01*
X-104484D01*
X-104786Y-284034D01*
X-111214D01*
X-112484Y-284034D01*
X-112786Y-284034D01*
X-119214D01*
X-119516Y-284034D01*
D02*
G37*
G36*
X31516D02*
Y-284034D01*
X24786D01*
X24484Y-284034D01*
X23516D01*
X23214Y-284034D01*
X20508D01*
Y-295050D01*
Y-306066D01*
X23214D01*
X23516Y-306066D01*
X24484D01*
X24786Y-306066D01*
X25088D01*
X25447Y-306503D01*
X25735Y-307759D01*
X24609Y-308884D01*
X24000Y-310354D01*
Y-311946D01*
X24609Y-313416D01*
X25735Y-314541D01*
X27205Y-315150D01*
X28796D01*
X30266Y-314541D01*
X31281Y-313527D01*
X32001Y-313467D01*
X32720Y-313527D01*
X33735Y-314541D01*
X35205Y-315150D01*
X36796D01*
X38266Y-314541D01*
X39392Y-313416D01*
X40001Y-311946D01*
Y-310354D01*
X39392Y-308884D01*
X38266Y-307759D01*
X38554Y-306503D01*
X38913Y-306066D01*
X40484Y-306066D01*
X40786Y-306066D01*
X43492D01*
Y-295050D01*
Y-284034D01*
X40786D01*
X40484Y-284034D01*
X39516D01*
X39214Y-284034D01*
X32484D01*
Y-284034D01*
X31516D01*
D02*
G37*
G36*
X-16484D02*
Y-284034D01*
X-23214D01*
X-23516Y-284034D01*
X-24484D01*
X-24786Y-284034D01*
X-27492D01*
Y-295050D01*
Y-306066D01*
X-24786D01*
X-24484Y-306066D01*
X-23516D01*
X-23214Y-306066D01*
X-22912D01*
X-22553Y-306503D01*
X-22265Y-307759D01*
X-23391Y-308884D01*
X-24000Y-310354D01*
Y-311946D01*
X-23391Y-313416D01*
X-22265Y-314541D01*
X-20795Y-315150D01*
X-19204D01*
X-17734Y-314541D01*
X-16719Y-313527D01*
X-15999Y-313467D01*
X-15280Y-313527D01*
X-14265Y-314541D01*
X-12795Y-315150D01*
X-11204D01*
X-9734Y-314541D01*
X-8608Y-313416D01*
X-8000Y-311946D01*
Y-310354D01*
X-8608Y-308884D01*
X-9734Y-307759D01*
X-9447Y-306503D01*
X-9087Y-306066D01*
X-7516Y-306066D01*
X-7214Y-306066D01*
X-4508D01*
Y-295050D01*
Y-284034D01*
X-7214D01*
X-7516Y-284034D01*
X-8484D01*
X-8786Y-284034D01*
X-15516D01*
Y-284034D01*
X-16484D01*
D02*
G37*
G36*
X104484Y-284034D02*
X103516D01*
X103214Y-284034D01*
X96786D01*
X96484Y-284034D01*
X95516D01*
X95214Y-284034D01*
X92508D01*
Y-295050D01*
Y-306066D01*
X95214D01*
X95516Y-306066D01*
X96484D01*
X96786Y-306066D01*
X103214D01*
X103516Y-306066D01*
X104484D01*
X104786Y-306066D01*
X107492D01*
Y-295050D01*
Y-284034D01*
X104786D01*
X104484Y-284034D01*
D02*
G37*
G36*
X64484Y-284034D02*
X63214Y-284034D01*
X56786D01*
X56484Y-284034D01*
X55516D01*
X55214Y-284034D01*
X48786D01*
X48484Y-284034D01*
X47516D01*
X47214Y-284034D01*
X44508D01*
Y-295050D01*
Y-306066D01*
X47214D01*
X47516Y-306066D01*
X48484D01*
X48786Y-306066D01*
X55214D01*
X55516Y-306066D01*
X56484D01*
X56786Y-306066D01*
X63214D01*
X63516Y-306066D01*
X64786Y-306066D01*
X67492D01*
Y-295050D01*
Y-284034D01*
X64786D01*
X64484Y-284034D01*
D02*
G37*
G36*
X16484Y-284034D02*
X15516D01*
X15214Y-284034D01*
X8786D01*
X8484Y-284034D01*
X7516D01*
X7214Y-284034D01*
X786D01*
X484Y-284034D01*
X-484D01*
X-786Y-284034D01*
X-3492D01*
Y-295050D01*
Y-306066D01*
X-786D01*
X-484Y-306066D01*
X484D01*
X786Y-306066D01*
X1088D01*
X1447Y-306503D01*
X1735Y-307759D01*
X609Y-308884D01*
X0Y-310354D01*
Y-311946D01*
X609Y-313416D01*
X1735Y-314541D01*
X3205Y-315150D01*
X4796D01*
X6266Y-314541D01*
X7281Y-313527D01*
X8001Y-313467D01*
X8720Y-313527D01*
X9735Y-314541D01*
X11205Y-315150D01*
X12796D01*
X14266Y-314541D01*
X15391Y-313416D01*
X16000Y-311946D01*
Y-310354D01*
X15391Y-308884D01*
X14266Y-307759D01*
X14554Y-306503D01*
X14913Y-306066D01*
X16484Y-306066D01*
X16786Y-306066D01*
X19492D01*
Y-295050D01*
Y-284034D01*
X16786D01*
X16484Y-284034D01*
D02*
G37*
G36*
X-31516D02*
X-32484D01*
X-32786Y-284034D01*
X-39214D01*
X-39516Y-284034D01*
X-40484D01*
X-40786Y-284034D01*
X-47214D01*
X-47516Y-284034D01*
X-48484D01*
X-48786Y-284034D01*
X-51492D01*
Y-295050D01*
Y-306066D01*
X-48786D01*
X-48484Y-306066D01*
X-47516D01*
X-47214Y-306066D01*
X-40786D01*
X-40484Y-306066D01*
X-39516D01*
X-39214Y-306066D01*
X-32786D01*
X-32484Y-306066D01*
X-31516D01*
X-31214Y-306066D01*
X-28508D01*
Y-295050D01*
Y-284034D01*
X-31214D01*
X-31516Y-284034D01*
D02*
G37*
G36*
X-79516Y-284034D02*
X-80786Y-284034D01*
X-87214D01*
X-87516Y-284034D01*
X-88484D01*
X-88786Y-284034D01*
X-95214D01*
X-95516Y-284034D01*
X-96484D01*
X-96786Y-284034D01*
X-99492D01*
Y-295050D01*
Y-306066D01*
X-96786D01*
X-96484Y-306066D01*
X-95516D01*
X-95214Y-306066D01*
X-88786D01*
X-88484Y-306066D01*
X-87516D01*
X-87214Y-306066D01*
X-80786D01*
X-80484Y-306066D01*
X-79214Y-306066D01*
X-76508D01*
Y-295050D01*
Y-284034D01*
X-79214D01*
X-79516Y-284034D01*
D02*
G37*
G36*
X-127516D02*
X-128786Y-284034D01*
X-135214D01*
X-135516Y-284034D01*
X-136484D01*
X-136786Y-284034D01*
X-143214D01*
X-143516Y-284034D01*
X-144484D01*
X-144786Y-284034D01*
X-151214D01*
X-151516Y-284034D01*
X-152484D01*
X-152786Y-284034D01*
X-155492D01*
Y-295050D01*
Y-306066D01*
X-152786D01*
X-152484Y-306066D01*
X-151516D01*
X-151214Y-306066D01*
X-150912D01*
X-150553Y-306503D01*
X-150265Y-307759D01*
X-151391Y-308884D01*
X-152000Y-310354D01*
Y-311946D01*
X-151391Y-313416D01*
X-150265Y-314541D01*
X-148795Y-315150D01*
X-147204D01*
X-145734Y-314541D01*
X-144719Y-313527D01*
X-144000Y-313467D01*
X-143280Y-313527D01*
X-142265Y-314541D01*
X-140795Y-315150D01*
X-139204D01*
X-137734Y-314541D01*
X-136719Y-313527D01*
X-135999Y-313467D01*
X-135280Y-313527D01*
X-134265Y-314541D01*
X-132795Y-315150D01*
X-131204D01*
X-129734Y-314541D01*
X-128609Y-313416D01*
X-127999Y-311946D01*
Y-310354D01*
X-128609Y-308884D01*
X-129734Y-307759D01*
X-129446Y-306503D01*
X-129087Y-306066D01*
X-128484Y-306066D01*
X-127214Y-306066D01*
X-124508D01*
Y-295050D01*
Y-284034D01*
X-127214D01*
X-127516Y-284034D01*
D02*
G37*
G36*
X156508Y-284034D02*
Y-294542D01*
X159516D01*
Y-284034D01*
X156508D01*
D02*
G37*
G36*
X-156508D02*
X-159516D01*
Y-294542D01*
X-156508D01*
Y-284034D01*
D02*
G37*
G36*
X159516Y-295558D02*
X156508D01*
Y-306066D01*
X159516D01*
Y-295558D01*
D02*
G37*
G36*
X-156508D02*
X-159516D01*
Y-306066D01*
X-156508D01*
Y-295558D01*
D02*
G37*
G36*
X332279Y-297434D02*
X328121D01*
X324014Y-298084D01*
X320060Y-299369D01*
X316355Y-301257D01*
X312991Y-303701D01*
X310051Y-306641D01*
X307607Y-310005D01*
X305719Y-313710D01*
X304434Y-317664D01*
X303784Y-321771D01*
Y-325929D01*
X304434Y-330036D01*
X305719Y-333990D01*
X307607Y-337695D01*
X310051Y-341059D01*
X312991Y-343999D01*
X316355Y-346443D01*
X320060Y-348331D01*
X324014Y-349616D01*
X328121Y-350266D01*
X332279D01*
X336386Y-349616D01*
X340340Y-348331D01*
X344045Y-346443D01*
X347409Y-343999D01*
X350349Y-341059D01*
X352793Y-337695D01*
X354681Y-333990D01*
X355966Y-330036D01*
X356616Y-325929D01*
Y-321771D01*
X355966Y-317664D01*
X354681Y-313710D01*
X352793Y-310005D01*
X350349Y-306641D01*
X347409Y-303701D01*
X344045Y-301257D01*
X340340Y-299369D01*
X336386Y-298084D01*
X332279Y-297434D01*
D02*
G37*
G36*
X-328121D02*
X-332279D01*
X-336386Y-298084D01*
X-340340Y-299369D01*
X-344045Y-301257D01*
X-347409Y-303701D01*
X-350349Y-306641D01*
X-352793Y-310005D01*
X-354681Y-313710D01*
X-355966Y-317664D01*
X-356616Y-321771D01*
Y-325929D01*
X-355966Y-330036D01*
X-354681Y-333990D01*
X-352793Y-337695D01*
X-350349Y-341059D01*
X-347409Y-343999D01*
X-344045Y-346443D01*
X-340340Y-348331D01*
X-336386Y-349616D01*
X-332279Y-350266D01*
X-328121D01*
X-324014Y-349616D01*
X-320060Y-348331D01*
X-316355Y-346443D01*
X-312991Y-343999D01*
X-310051Y-341059D01*
X-307607Y-337695D01*
X-305719Y-333990D01*
X-304434Y-330036D01*
X-303784Y-325929D01*
Y-321771D01*
X-304434Y-317664D01*
X-305719Y-313710D01*
X-307607Y-310005D01*
X-310051Y-306641D01*
X-312991Y-303701D01*
X-316355Y-301257D01*
X-320060Y-299369D01*
X-324014Y-298084D01*
X-328121Y-297434D01*
D02*
G37*
%LPD*%
G36*
X118080Y77730D02*
X117903Y78164D01*
X117369Y78551D01*
X116480Y78893D01*
X115236Y79189D01*
X113635Y79440D01*
X109368Y79805D01*
X103679Y79987D01*
X100300Y80010D01*
Y97790D01*
X103679Y97813D01*
X115236Y98611D01*
X116480Y98907D01*
X117369Y99249D01*
X117903Y99636D01*
X118080Y100070D01*
Y77730D01*
D02*
G37*
G36*
X140545Y97661D02*
X140922Y95241D01*
X141551Y92809D01*
X142431Y90367D01*
X143563Y87914D01*
X144945Y85449D01*
X146580Y82974D01*
X148466Y80487D01*
X150603Y77990D01*
X152992Y75480D01*
X138169Y65158D01*
X135706Y67547D01*
X131081Y71570D01*
X128921Y73204D01*
X126861Y74587D01*
X124903Y75719D01*
X123046Y76599D01*
X121289Y77228D01*
X119634Y77605D01*
X118080Y77730D01*
X140420Y100070D01*
X140545Y97661D01*
D02*
G37*
G36*
X-177770Y77730D02*
X-177947Y78164D01*
X-178481Y78551D01*
X-179370Y78893D01*
X-180614Y79189D01*
X-182215Y79440D01*
X-186482Y79805D01*
X-192171Y79987D01*
X-195550Y80010D01*
Y97790D01*
X-192171Y97813D01*
X-180614Y98611D01*
X-179370Y98907D01*
X-178481Y99249D01*
X-177947Y99636D01*
X-177770Y100070D01*
Y77730D01*
D02*
G37*
G36*
X-304813Y36449D02*
X-304722Y36396D01*
X-304610Y36349D01*
X-304479Y36308D01*
X-304328Y36273D01*
X-304156Y36245D01*
X-303754Y36207D01*
X-303522Y36198D01*
X-303271Y36195D01*
X-303271Y33655D01*
X-303522Y33652D01*
X-304156Y33605D01*
X-304328Y33577D01*
X-304479Y33542D01*
X-304611Y33501D01*
X-304722Y33454D01*
X-304813Y33401D01*
X-304885Y33342D01*
X-304885Y36508D01*
X-304813Y36449D01*
D02*
G37*
G36*
X-294489Y32385D02*
X-294515Y32626D01*
X-294592Y32842D01*
X-294720Y33033D01*
X-294900Y33198D01*
X-295132Y33338D01*
X-295414Y33452D01*
X-295749Y33541D01*
X-296134Y33604D01*
X-296571Y33642D01*
X-297059Y33655D01*
Y36195D01*
X-296571Y36208D01*
X-296134Y36246D01*
X-295749Y36309D01*
X-295414Y36398D01*
X-295132Y36512D01*
X-294900Y36652D01*
X-294720Y36817D01*
X-294592Y37008D01*
X-294515Y37224D01*
X-294489Y37465D01*
Y32385D01*
D02*
G37*
G36*
X306885Y33617D02*
X306813Y33676D01*
X306722Y33729D01*
X306610Y33776D01*
X306479Y33817D01*
X306328Y33852D01*
X306156Y33880D01*
X305754Y33918D01*
X305522Y33927D01*
X305271Y33930D01*
X305271Y36470D01*
X305522Y36473D01*
X306156Y36520D01*
X306328Y36548D01*
X306479Y36583D01*
X306610Y36624D01*
X306722Y36671D01*
X306813Y36724D01*
X306885Y36783D01*
X306885Y33617D01*
D02*
G37*
G36*
X296515Y37499D02*
X296592Y37283D01*
X296720Y37092D01*
X296900Y36927D01*
X297132Y36788D01*
X297414Y36673D01*
X297749Y36584D01*
X298134Y36521D01*
X298571Y36483D01*
X299060Y36470D01*
Y33930D01*
X298571Y33917D01*
X298134Y33879D01*
X297749Y33816D01*
X297414Y33727D01*
X297132Y33612D01*
X296900Y33473D01*
X296720Y33308D01*
X296592Y33117D01*
X296515Y32901D01*
X296489Y32660D01*
Y37740D01*
X296515Y37499D01*
D02*
G37*
G36*
X277599Y50010D02*
X277383Y49933D01*
X277192Y49805D01*
X277027Y49625D01*
X276887Y49393D01*
X276773Y49111D01*
X276684Y48776D01*
X276621Y48391D01*
X276583Y47954D01*
X276570Y47466D01*
X274030D01*
X274017Y47954D01*
X273979Y48391D01*
X273916Y48776D01*
X273827Y49111D01*
X273713Y49393D01*
X273573Y49625D01*
X273408Y49805D01*
X273217Y49933D01*
X273001Y50010D01*
X272760Y50036D01*
X277840D01*
X277599Y50010D01*
D02*
G37*
G36*
X276583Y42221D02*
X276621Y41784D01*
X276684Y41399D01*
X276773Y41064D01*
X276887Y40782D01*
X277027Y40550D01*
X277192Y40370D01*
X277383Y40242D01*
X277599Y40165D01*
X277840Y40139D01*
X272760D01*
X273001Y40165D01*
X273217Y40242D01*
X273408Y40370D01*
X273573Y40550D01*
X273713Y40782D01*
X273827Y41064D01*
X273916Y41399D01*
X273979Y41784D01*
X274017Y42221D01*
X274030Y42709D01*
X276570D01*
X276583Y42221D01*
D02*
G37*
G36*
X-271001Y50010D02*
X-271217Y49933D01*
X-271408Y49805D01*
X-271573Y49625D01*
X-271712Y49393D01*
X-271827Y49111D01*
X-271916Y48776D01*
X-271979Y48391D01*
X-272017Y47954D01*
X-272030Y47466D01*
X-274570D01*
X-274583Y47954D01*
X-274621Y48391D01*
X-274684Y48776D01*
X-274773Y49111D01*
X-274888Y49393D01*
X-275027Y49625D01*
X-275192Y49805D01*
X-275383Y49933D01*
X-275599Y50010D01*
X-275840Y50036D01*
X-270760D01*
X-271001Y50010D01*
D02*
G37*
G36*
X-272017Y41946D02*
X-271979Y41509D01*
X-271916Y41124D01*
X-271827Y40789D01*
X-271712Y40507D01*
X-271573Y40275D01*
X-271408Y40095D01*
X-271217Y39967D01*
X-271001Y39890D01*
X-270760Y39864D01*
X-275840D01*
X-275599Y39890D01*
X-275383Y39967D01*
X-275192Y40095D01*
X-275027Y40275D01*
X-274888Y40507D01*
X-274773Y40789D01*
X-274684Y41124D01*
X-274621Y41509D01*
X-274583Y41946D01*
X-274570Y42435D01*
X-272030D01*
X-272017Y41946D01*
D02*
G37*
G36*
X89461Y-47130D02*
X89283Y-45441D01*
X88749Y-43930D01*
X87858Y-42596D01*
X86611Y-41440D01*
X85008Y-40462D01*
X83049Y-39662D01*
X80734Y-39040D01*
X78062Y-38596D01*
X75034Y-38329D01*
X71651Y-38240D01*
Y-20460D01*
X75034Y-20371D01*
X78062Y-20104D01*
X80734Y-19660D01*
X83049Y-19038D01*
X85008Y-18238D01*
X86611Y-17260D01*
X87858Y-16104D01*
X88749Y-14770D01*
X89283Y-13259D01*
X89461Y-11570D01*
Y-47130D01*
D02*
G37*
G36*
X131802Y-71569D02*
X140680D01*
X138991Y-71747D01*
X137480Y-72281D01*
X136146Y-73170D01*
X134990Y-74414D01*
X134012Y-76014D01*
X133212Y-77970D01*
X132590Y-80282D01*
X132335Y-81811D01*
X132622Y-83686D01*
X132989Y-85286D01*
X133421Y-86530D01*
X133921Y-87419D01*
X134487Y-87953D01*
X135119Y-88131D01*
X131822D01*
X131790Y-89349D01*
X114010D01*
X113978Y-88131D01*
X110680D01*
X111313Y-87953D01*
X111879Y-87419D01*
X112379Y-86530D01*
X112811Y-85286D01*
X113178Y-83686D01*
X113465Y-81811D01*
X113210Y-80282D01*
X112588Y-77970D01*
X111788Y-76014D01*
X110810Y-74414D01*
X109654Y-73170D01*
X108320Y-72281D01*
X106809Y-71747D01*
X105120Y-71569D01*
X113985D01*
X114010Y-70350D01*
X131790D01*
X131802Y-71569D01*
D02*
G37*
G36*
X216392Y-14453D02*
X216546Y-14884D01*
X216803Y-15265D01*
X217161Y-15596D01*
X217621Y-15875D01*
X218183Y-16104D01*
X218847Y-16281D01*
X219612Y-16408D01*
X220480Y-16485D01*
X221450Y-16510D01*
Y-21590D01*
X220484Y-21606D01*
X218859Y-21736D01*
X218198Y-21849D01*
X217640Y-21995D01*
X217182Y-22173D01*
X216827Y-22383D01*
X216573Y-22626D01*
X216420Y-22902D01*
X216369Y-23210D01*
X216339Y-13970D01*
X216392Y-14453D01*
D02*
G37*
G36*
X270080Y-24019D02*
X270030Y-23558D01*
X269877Y-23145D01*
X269623Y-22780D01*
X269268Y-22465D01*
X268810Y-22197D01*
X268252Y-21979D01*
X267591Y-21809D01*
X266829Y-21687D01*
X265966Y-21614D01*
X265000Y-21590D01*
Y-16510D01*
X265966Y-16486D01*
X266829Y-16413D01*
X267591Y-16291D01*
X268252Y-16121D01*
X268810Y-15903D01*
X269268Y-15635D01*
X269623Y-15320D01*
X269877Y-14955D01*
X270030Y-14542D01*
X270080Y-14080D01*
Y-24019D01*
D02*
G37*
G36*
X279897Y-24040D02*
X279466Y-24193D01*
X279085Y-24449D01*
X278754Y-24807D01*
X278475Y-25267D01*
X278246Y-25829D01*
X278069Y-26493D01*
X277942Y-27260D01*
X277865Y-28128D01*
X277850Y-28708D01*
X277864Y-29266D01*
X277937Y-30129D01*
X278059Y-30891D01*
X278229Y-31552D01*
X278447Y-32111D01*
X278715Y-32568D01*
X279030Y-32923D01*
X279395Y-33177D01*
X279808Y-33330D01*
X280270Y-33380D01*
X270330D01*
X270792Y-33330D01*
X271205Y-33177D01*
X271569Y-32923D01*
X271885Y-32568D01*
X272153Y-32111D01*
X272371Y-31552D01*
X272541Y-30891D01*
X272663Y-30129D01*
X272736Y-29266D01*
X272750Y-28708D01*
X272735Y-28128D01*
X272658Y-27260D01*
X272531Y-26493D01*
X272354Y-25829D01*
X272125Y-25267D01*
X271846Y-24807D01*
X271515Y-24449D01*
X271134Y-24193D01*
X270703Y-24040D01*
X270220Y-23989D01*
X280380D01*
X279897Y-24040D01*
D02*
G37*
G36*
X279808Y-42870D02*
X279395Y-43023D01*
X279030Y-43277D01*
X278715Y-43632D01*
X278447Y-44089D01*
X278229Y-44648D01*
X278059Y-45309D01*
X277937Y-46071D01*
X277864Y-46934D01*
X277840Y-47899D01*
X272760D01*
X272736Y-46934D01*
X272663Y-46071D01*
X272541Y-45309D01*
X272371Y-44648D01*
X272153Y-44089D01*
X271885Y-43632D01*
X271569Y-43277D01*
X271205Y-43023D01*
X270792Y-42870D01*
X270330Y-42819D01*
X280270D01*
X279808Y-42870D01*
D02*
G37*
G36*
X277865Y-53226D02*
X277942Y-54089D01*
X278069Y-54851D01*
X278246Y-55512D01*
X278475Y-56070D01*
X278754Y-56528D01*
X279085Y-56883D01*
X279466Y-57137D01*
X279897Y-57290D01*
X280380Y-57340D01*
X270220D01*
X270703Y-57290D01*
X271134Y-57137D01*
X271515Y-56883D01*
X271846Y-56528D01*
X272125Y-56070D01*
X272354Y-55512D01*
X272531Y-54851D01*
X272658Y-54089D01*
X272735Y-53226D01*
X272760Y-52260D01*
X277840D01*
X277865Y-53226D01*
D02*
G37*
G36*
X279897Y-64600D02*
X279466Y-64753D01*
X279085Y-65009D01*
X278754Y-65367D01*
X278475Y-65827D01*
X278246Y-66389D01*
X278069Y-67053D01*
X277942Y-67820D01*
X277865Y-68689D01*
X277840Y-69660D01*
X272760D01*
X272735Y-68689D01*
X272658Y-67820D01*
X272531Y-67053D01*
X272354Y-66389D01*
X272125Y-65827D01*
X271846Y-65367D01*
X271515Y-65009D01*
X271134Y-64753D01*
X270703Y-64600D01*
X270220Y-64549D01*
X280380D01*
X279897Y-64600D01*
D02*
G37*
G36*
X277868Y-77851D02*
X277952Y-78541D01*
X278091Y-79214D01*
X278287Y-79871D01*
X278538Y-80510D01*
X278846Y-81133D01*
X279209Y-81740D01*
X279628Y-82329D01*
X280103Y-82902D01*
X280634Y-83458D01*
X269966D01*
X270497Y-82902D01*
X270972Y-82329D01*
X271391Y-81740D01*
X271754Y-81133D01*
X272062Y-80510D01*
X272313Y-79871D01*
X272509Y-79214D01*
X272648Y-78541D01*
X272732Y-77851D01*
X272760Y-77144D01*
X277840D01*
X277868Y-77851D01*
D02*
G37*
G36*
X-268453Y-24040D02*
X-268884Y-24193D01*
X-269265Y-24449D01*
X-269596Y-24807D01*
X-269875Y-25267D01*
X-270104Y-25829D01*
X-270281Y-26493D01*
X-270408Y-27260D01*
X-270485Y-28128D01*
X-270500Y-28708D01*
X-270486Y-29266D01*
X-270413Y-30129D01*
X-270291Y-30891D01*
X-270121Y-31552D01*
X-269903Y-32111D01*
X-269635Y-32568D01*
X-269320Y-32923D01*
X-268955Y-33177D01*
X-268542Y-33330D01*
X-268081Y-33380D01*
X-278020D01*
X-277558Y-33330D01*
X-277145Y-33177D01*
X-276780Y-32923D01*
X-276465Y-32568D01*
X-276197Y-32111D01*
X-275979Y-31552D01*
X-275809Y-30891D01*
X-275687Y-30129D01*
X-275614Y-29266D01*
X-275600Y-28708D01*
X-275615Y-28128D01*
X-275692Y-27260D01*
X-275819Y-26493D01*
X-275996Y-25829D01*
X-276225Y-25267D01*
X-276504Y-24807D01*
X-276835Y-24449D01*
X-277216Y-24193D01*
X-277647Y-24040D01*
X-278130Y-23989D01*
X-267970D01*
X-268453Y-24040D01*
D02*
G37*
G36*
X-268542Y-42870D02*
X-268955Y-43023D01*
X-269320Y-43277D01*
X-269635Y-43632D01*
X-269903Y-44089D01*
X-270121Y-44648D01*
X-270291Y-45309D01*
X-270413Y-46071D01*
X-270486Y-46934D01*
X-270510Y-47899D01*
X-275590D01*
X-275614Y-46934D01*
X-275687Y-46071D01*
X-275809Y-45309D01*
X-275979Y-44648D01*
X-276197Y-44089D01*
X-276465Y-43632D01*
X-276780Y-43277D01*
X-277145Y-43023D01*
X-277558Y-42870D01*
X-278020Y-42819D01*
X-268081D01*
X-268542Y-42870D01*
D02*
G37*
G36*
X-270485Y-53232D02*
X-270408Y-54100D01*
X-270281Y-54867D01*
X-270104Y-55531D01*
X-269875Y-56093D01*
X-269596Y-56553D01*
X-269265Y-56911D01*
X-268884Y-57167D01*
X-268453Y-57320D01*
X-267970Y-57371D01*
X-278130D01*
X-277647Y-57320D01*
X-277216Y-57167D01*
X-276835Y-56911D01*
X-276504Y-56553D01*
X-276225Y-56093D01*
X-275996Y-55531D01*
X-275819Y-54867D01*
X-275692Y-54100D01*
X-275615Y-53232D01*
X-275590Y-52260D01*
X-270510D01*
X-270485Y-53232D01*
D02*
G37*
G36*
X-266980Y-57546D02*
X-266827Y-57729D01*
X-266573Y-57891D01*
X-266218Y-58031D01*
X-265760Y-58150D01*
X-265202Y-58247D01*
X-264541Y-58323D01*
X-262916Y-58409D01*
X-261950Y-58420D01*
Y-63500D01*
X-262916Y-63511D01*
X-265202Y-63673D01*
X-265760Y-63770D01*
X-266218Y-63889D01*
X-266573Y-64029D01*
X-266827Y-64191D01*
X-266980Y-64374D01*
X-267031Y-64580D01*
Y-57340D01*
X-266980Y-57546D01*
D02*
G37*
G36*
X-214089Y-66040D02*
X-214140Y-65557D01*
X-214293Y-65126D01*
X-214549Y-64745D01*
X-214907Y-64414D01*
X-215367Y-64135D01*
X-215929Y-63906D01*
X-216593Y-63729D01*
X-217360Y-63602D01*
X-218228Y-63525D01*
X-219200Y-63500D01*
Y-58420D01*
X-218228Y-58395D01*
X-217360Y-58318D01*
X-216593Y-58191D01*
X-215929Y-58014D01*
X-215367Y-57785D01*
X-214907Y-57506D01*
X-214549Y-57175D01*
X-214293Y-56794D01*
X-214140Y-56363D01*
X-214089Y-55880D01*
Y-66040D01*
D02*
G37*
G36*
X-268453Y-64630D02*
X-268884Y-64783D01*
X-269265Y-65037D01*
X-269596Y-65392D01*
X-269875Y-65850D01*
X-270104Y-66408D01*
X-270281Y-67069D01*
X-270408Y-67831D01*
X-270485Y-68694D01*
X-270510Y-69660D01*
X-275590D01*
X-275615Y-68694D01*
X-275692Y-67831D01*
X-275819Y-67069D01*
X-275996Y-66408D01*
X-276225Y-65850D01*
X-276504Y-65392D01*
X-276835Y-65037D01*
X-277216Y-64783D01*
X-277647Y-64630D01*
X-278130Y-64580D01*
X-267970D01*
X-268453Y-64630D01*
D02*
G37*
G36*
X-270482Y-77851D02*
X-270398Y-78541D01*
X-270259Y-79214D01*
X-270063Y-79871D01*
X-269811Y-80510D01*
X-269504Y-81133D01*
X-269141Y-81740D01*
X-268722Y-82329D01*
X-268247Y-82902D01*
X-267716Y-83458D01*
X-278384D01*
X-277853Y-82902D01*
X-277378Y-82329D01*
X-276959Y-81740D01*
X-276596Y-81133D01*
X-276289Y-80510D01*
X-276037Y-79871D01*
X-275842Y-79214D01*
X-275702Y-78541D01*
X-275618Y-77851D01*
X-275590Y-77144D01*
X-270510D01*
X-270482Y-77851D01*
D02*
G37*
G36*
X-87033Y-13259D02*
X-86499Y-14770D01*
X-85608Y-16104D01*
X-84361Y-17260D01*
X-82758Y-18238D01*
X-80799Y-19038D01*
X-78484Y-19660D01*
X-75812Y-20104D01*
X-72785Y-20371D01*
X-69401Y-20460D01*
Y-38240D01*
X-72785Y-38329D01*
X-75812Y-38596D01*
X-78484Y-39040D01*
X-80799Y-39662D01*
X-82758Y-40462D01*
X-84361Y-41440D01*
X-85608Y-42596D01*
X-86499Y-43930D01*
X-87033Y-45441D01*
X-87211Y-47130D01*
Y-11570D01*
X-87033Y-13259D01*
D02*
G37*
G36*
X-111748Y-71539D02*
X-102870D01*
X-104559Y-71717D01*
X-106070Y-72251D01*
X-107404Y-73142D01*
X-108560Y-74389D01*
X-109537Y-75992D01*
X-110338Y-77951D01*
X-110960Y-80266D01*
X-111216Y-81804D01*
X-110928Y-83686D01*
X-110561Y-85286D01*
X-110129Y-86530D01*
X-109629Y-87419D01*
X-109063Y-87953D01*
X-108431Y-88131D01*
X-111728D01*
X-111760Y-89349D01*
X-129540D01*
X-129572Y-88131D01*
X-132870D01*
X-132237Y-87953D01*
X-131671Y-87419D01*
X-131172Y-86530D01*
X-130739Y-85286D01*
X-130372Y-83686D01*
X-130084Y-81804D01*
X-130340Y-80266D01*
X-130962Y-77951D01*
X-131763Y-75992D01*
X-132740Y-74389D01*
X-133896Y-73142D01*
X-135230Y-72251D01*
X-136741Y-71717D01*
X-138430Y-71539D01*
X-129565D01*
X-129540Y-70350D01*
X-111760D01*
X-111748Y-71539D01*
D02*
G37*
G36*
X314970Y-57546D02*
X315123Y-57729D01*
X315377Y-57891D01*
X315732Y-58031D01*
X316189Y-58150D01*
X316748Y-58247D01*
X317409Y-58323D01*
X319034Y-58409D01*
X319999Y-58420D01*
Y-63500D01*
X319034Y-63511D01*
X316748Y-63673D01*
X316189Y-63770D01*
X315732Y-63889D01*
X315377Y-64029D01*
X315123Y-64191D01*
X314970Y-64374D01*
X314919Y-64580D01*
Y-57340D01*
X314970Y-57546D01*
D02*
G37*
G36*
X-312669Y-64580D02*
X-312720Y-64374D01*
X-312873Y-64191D01*
X-313127Y-64029D01*
X-313482Y-63889D01*
X-313939Y-63770D01*
X-314498Y-63673D01*
X-315159Y-63597D01*
X-316784Y-63511D01*
X-317749Y-63500D01*
Y-58420D01*
X-316784Y-58409D01*
X-314498Y-58247D01*
X-313939Y-58150D01*
X-313482Y-58031D01*
X-313127Y-57891D01*
X-312873Y-57729D01*
X-312720Y-57546D01*
X-312669Y-57340D01*
Y-64580D01*
D02*
G37*
G36*
X134620Y-124460D02*
Y-129540D01*
X132080Y-132080D01*
X106680D01*
X104140Y-129540D01*
Y-124460D01*
X106680Y-121920D01*
X132080D01*
X134620Y-124460D01*
D02*
G37*
G36*
X-108930D02*
Y-129540D01*
X-111470Y-132080D01*
X-136870D01*
X-139410Y-129540D01*
Y-124460D01*
X-136870Y-121920D01*
X-111470D01*
X-108930Y-124460D01*
D02*
G37*
G36*
X-10597Y-236752D02*
X-10758Y-236939D01*
X-10901Y-237128D01*
X-11024Y-237318D01*
X-11128Y-237508D01*
X-11214Y-237700D01*
X-11280Y-237893D01*
X-11327Y-238087D01*
X-11356Y-238282D01*
X-11365Y-238478D01*
X-12635Y-238478D01*
X-12645Y-238282D01*
X-12673Y-238087D01*
X-12721Y-237893D01*
X-12787Y-237700D01*
X-12872Y-237509D01*
X-12977Y-237318D01*
X-13100Y-237128D01*
X-13242Y-236940D01*
X-13404Y-236752D01*
X-13584Y-236565D01*
X-10417Y-236565D01*
X-10597Y-236752D01*
D02*
G37*
G36*
X-18597D02*
X-18758Y-236939D01*
X-18901Y-237128D01*
X-19024Y-237318D01*
X-19128Y-237508D01*
X-19214Y-237700D01*
X-19280Y-237893D01*
X-19327Y-238087D01*
X-19356Y-238282D01*
X-19365Y-238478D01*
X-20635Y-238478D01*
X-20645Y-238282D01*
X-20673Y-238087D01*
X-20721Y-237893D01*
X-20787Y-237700D01*
X-20872Y-237509D01*
X-20977Y-237318D01*
X-21100Y-237128D01*
X-21242Y-236940D01*
X-21404Y-236752D01*
X-21584Y-236565D01*
X-18417Y-236565D01*
X-18597Y-236752D01*
D02*
G37*
G36*
X-11359Y-240052D02*
X-11340Y-240268D01*
X-11308Y-240458D01*
X-11264Y-240623D01*
X-11207Y-240763D01*
X-11137Y-240877D01*
X-11054Y-240966D01*
X-10959Y-241030D01*
X-10851Y-241068D01*
X-10730Y-241080D01*
X-13270D01*
X-13150Y-241068D01*
X-13042Y-241030D01*
X-12946Y-240966D01*
X-12864Y-240877D01*
X-12794Y-240763D01*
X-12737Y-240623D01*
X-12692Y-240458D01*
X-12661Y-240268D01*
X-12642Y-240052D01*
X-12635Y-239811D01*
X-11365D01*
X-11359Y-240052D01*
D02*
G37*
G36*
X-19359D02*
X-19340Y-240268D01*
X-19308Y-240458D01*
X-19264Y-240623D01*
X-19207Y-240763D01*
X-19137Y-240877D01*
X-19054Y-240966D01*
X-18959Y-241030D01*
X-18851Y-241068D01*
X-18730Y-241080D01*
X-21270D01*
X-21150Y-241068D01*
X-21042Y-241030D01*
X-20946Y-240966D01*
X-20864Y-240877D01*
X-20794Y-240763D01*
X-20737Y-240623D01*
X-20692Y-240458D01*
X-20661Y-240268D01*
X-20642Y-240052D01*
X-20635Y-239811D01*
X-19365D01*
X-19359Y-240052D01*
D02*
G37*
G36*
X149403Y-236752D02*
X149242Y-236939D01*
X149099Y-237128D01*
X148976Y-237318D01*
X148872Y-237508D01*
X148786Y-237700D01*
X148720Y-237893D01*
X148673Y-238087D01*
X148644Y-238282D01*
X148635Y-238478D01*
X147365Y-238478D01*
X147355Y-238282D01*
X147327Y-238087D01*
X147279Y-237893D01*
X147213Y-237700D01*
X147128Y-237509D01*
X147023Y-237318D01*
X146900Y-237128D01*
X146758Y-236940D01*
X146596Y-236752D01*
X146416Y-236565D01*
X149583Y-236565D01*
X149403Y-236752D01*
D02*
G37*
G36*
X141403D02*
X141242Y-236939D01*
X141099Y-237128D01*
X140976Y-237318D01*
X140872Y-237508D01*
X140787Y-237700D01*
X140720Y-237893D01*
X140673Y-238087D01*
X140644Y-238282D01*
X140635Y-238478D01*
X139365Y-238478D01*
X139355Y-238282D01*
X139327Y-238087D01*
X139279Y-237893D01*
X139213Y-237700D01*
X139128Y-237509D01*
X139023Y-237318D01*
X138900Y-237128D01*
X138758Y-236940D01*
X138596Y-236752D01*
X138416Y-236565D01*
X141583Y-236565D01*
X141403Y-236752D01*
D02*
G37*
G36*
X133403D02*
X133242Y-236939D01*
X133099Y-237128D01*
X132976Y-237318D01*
X132872Y-237508D01*
X132787Y-237700D01*
X132720Y-237893D01*
X132673Y-238087D01*
X132644Y-238282D01*
X132635Y-238478D01*
X131365Y-238478D01*
X131355Y-238282D01*
X131327Y-238087D01*
X131279Y-237893D01*
X131213Y-237700D01*
X131128Y-237509D01*
X131023Y-237318D01*
X130900Y-237128D01*
X130758Y-236940D01*
X130597Y-236752D01*
X130416Y-236565D01*
X133583Y-236565D01*
X133403Y-236752D01*
D02*
G37*
G36*
X148641Y-240052D02*
X148660Y-240268D01*
X148692Y-240458D01*
X148736Y-240623D01*
X148793Y-240763D01*
X148863Y-240877D01*
X148946Y-240966D01*
X149041Y-241030D01*
X149149Y-241068D01*
X149270Y-241080D01*
X146730D01*
X146850Y-241068D01*
X146958Y-241030D01*
X147054Y-240966D01*
X147136Y-240877D01*
X147206Y-240763D01*
X147263Y-240623D01*
X147308Y-240458D01*
X147339Y-240268D01*
X147358Y-240052D01*
X147365Y-239811D01*
X148635D01*
X148641Y-240052D01*
D02*
G37*
G36*
X140641D02*
X140660Y-240268D01*
X140692Y-240458D01*
X140736Y-240623D01*
X140794Y-240763D01*
X140863Y-240877D01*
X140946Y-240966D01*
X141041Y-241030D01*
X141149Y-241068D01*
X141270Y-241080D01*
X138730D01*
X138850Y-241068D01*
X138958Y-241030D01*
X139054Y-240966D01*
X139136Y-240877D01*
X139206Y-240763D01*
X139263Y-240623D01*
X139308Y-240458D01*
X139339Y-240268D01*
X139358Y-240052D01*
X139365Y-239811D01*
X140635D01*
X140641Y-240052D01*
D02*
G37*
G36*
X132641D02*
X132660Y-240268D01*
X132692Y-240458D01*
X132736Y-240623D01*
X132794Y-240763D01*
X132863Y-240877D01*
X132946Y-240966D01*
X133041Y-241030D01*
X133149Y-241068D01*
X133270Y-241080D01*
X130730D01*
X130850Y-241068D01*
X130958Y-241030D01*
X131054Y-240966D01*
X131136Y-240877D01*
X131206Y-240763D01*
X131263Y-240623D01*
X131308Y-240458D01*
X131339Y-240268D01*
X131358Y-240052D01*
X131365Y-239811D01*
X132635D01*
X132641Y-240052D01*
D02*
G37*
G36*
X-130597Y-236752D02*
X-130758Y-236939D01*
X-130900Y-237128D01*
X-131024Y-237318D01*
X-131128Y-237508D01*
X-131213Y-237700D01*
X-131280Y-237893D01*
X-131327Y-238087D01*
X-131355Y-238282D01*
X-131365Y-238478D01*
X-132635Y-238478D01*
X-132645Y-238282D01*
X-132673Y-238087D01*
X-132720Y-237893D01*
X-132787Y-237700D01*
X-132872Y-237509D01*
X-132976Y-237318D01*
X-133100Y-237128D01*
X-133242Y-236940D01*
X-133403Y-236752D01*
X-133583Y-236566D01*
X-130417Y-236565D01*
X-130597Y-236752D01*
D02*
G37*
G36*
X-138597D02*
X-138758Y-236939D01*
X-138900Y-237128D01*
X-139024Y-237318D01*
X-139128Y-237508D01*
X-139213Y-237700D01*
X-139280Y-237893D01*
X-139327Y-238087D01*
X-139355Y-238282D01*
X-139365Y-238478D01*
X-140635Y-238478D01*
X-140645Y-238282D01*
X-140673Y-238087D01*
X-140720Y-237893D01*
X-140787Y-237700D01*
X-140872Y-237509D01*
X-140976Y-237318D01*
X-141100Y-237128D01*
X-141242Y-236940D01*
X-141403Y-236752D01*
X-141583Y-236566D01*
X-138417Y-236565D01*
X-138597Y-236752D01*
D02*
G37*
G36*
X-146597D02*
X-146758Y-236939D01*
X-146900Y-237128D01*
X-147024Y-237318D01*
X-147128Y-237508D01*
X-147213Y-237700D01*
X-147280Y-237893D01*
X-147327Y-238087D01*
X-147355Y-238282D01*
X-147365Y-238478D01*
X-148635Y-238478D01*
X-148645Y-238282D01*
X-148673Y-238087D01*
X-148720Y-237893D01*
X-148787Y-237700D01*
X-148872Y-237509D01*
X-148976Y-237318D01*
X-149100Y-237128D01*
X-149242Y-236940D01*
X-149403Y-236752D01*
X-149584Y-236566D01*
X-146417Y-236565D01*
X-146597Y-236752D01*
D02*
G37*
G36*
X-131359Y-240052D02*
X-131340Y-240268D01*
X-131308Y-240458D01*
X-131263Y-240623D01*
X-131206Y-240763D01*
X-131136Y-240877D01*
X-131054Y-240966D01*
X-130959Y-241030D01*
X-130851Y-241068D01*
X-130730Y-241080D01*
X-133270D01*
X-133149Y-241068D01*
X-133041Y-241030D01*
X-132946Y-240966D01*
X-132864Y-240877D01*
X-132794Y-240763D01*
X-132737Y-240623D01*
X-132692Y-240458D01*
X-132660Y-240268D01*
X-132641Y-240052D01*
X-132635Y-239811D01*
X-131365D01*
X-131359Y-240052D01*
D02*
G37*
G36*
X-139359D02*
X-139340Y-240268D01*
X-139308Y-240458D01*
X-139263Y-240623D01*
X-139206Y-240763D01*
X-139136Y-240877D01*
X-139054Y-240966D01*
X-138959Y-241030D01*
X-138851Y-241068D01*
X-138730Y-241080D01*
X-141270D01*
X-141149Y-241068D01*
X-141041Y-241030D01*
X-140946Y-240966D01*
X-140864Y-240877D01*
X-140794Y-240763D01*
X-140737Y-240623D01*
X-140692Y-240458D01*
X-140660Y-240268D01*
X-140641Y-240052D01*
X-140635Y-239811D01*
X-139365D01*
X-139359Y-240052D01*
D02*
G37*
G36*
X-147359D02*
X-147340Y-240268D01*
X-147308Y-240458D01*
X-147263Y-240623D01*
X-147206Y-240763D01*
X-147136Y-240877D01*
X-147054Y-240966D01*
X-146959Y-241030D01*
X-146851Y-241068D01*
X-146730Y-241080D01*
X-149270D01*
X-149149Y-241068D01*
X-149041Y-241030D01*
X-148946Y-240966D01*
X-148864Y-240877D01*
X-148794Y-240763D01*
X-148737Y-240623D01*
X-148692Y-240458D01*
X-148660Y-240268D01*
X-148641Y-240052D01*
X-148635Y-239811D01*
X-147365D01*
X-147359Y-240052D01*
D02*
G37*
G36*
X149150Y-305002D02*
X149042Y-305041D01*
X148946Y-305106D01*
X148864Y-305197D01*
X148794Y-305314D01*
X148737Y-305457D01*
X148692Y-305626D01*
X148661Y-305821D01*
X148642Y-306042D01*
X148635Y-306290D01*
X147365D01*
X147359Y-306042D01*
X147340Y-305821D01*
X147308Y-305626D01*
X147264Y-305457D01*
X147206Y-305314D01*
X147137Y-305197D01*
X147054Y-305106D01*
X146959Y-305041D01*
X146851Y-305002D01*
X146730Y-304989D01*
X149270D01*
X149150Y-305002D01*
D02*
G37*
G36*
X141150D02*
X141042Y-305041D01*
X140946Y-305106D01*
X140864Y-305197D01*
X140794Y-305314D01*
X140737Y-305457D01*
X140692Y-305626D01*
X140661Y-305821D01*
X140642Y-306042D01*
X140635Y-306290D01*
X139365D01*
X139359Y-306042D01*
X139340Y-305821D01*
X139308Y-305626D01*
X139264Y-305457D01*
X139206Y-305314D01*
X139137Y-305197D01*
X139054Y-305106D01*
X138959Y-305041D01*
X138851Y-305002D01*
X138730Y-304989D01*
X141270D01*
X141150Y-305002D01*
D02*
G37*
G36*
X133150D02*
X133042Y-305041D01*
X132946Y-305106D01*
X132864Y-305197D01*
X132794Y-305314D01*
X132737Y-305457D01*
X132692Y-305626D01*
X132661Y-305821D01*
X132642Y-306042D01*
X132635Y-306290D01*
X131365D01*
X131359Y-306042D01*
X131340Y-305821D01*
X131308Y-305626D01*
X131264Y-305457D01*
X131207Y-305314D01*
X131137Y-305197D01*
X131054Y-305106D01*
X130959Y-305041D01*
X130851Y-305002D01*
X130730Y-304989D01*
X133270D01*
X133150Y-305002D01*
D02*
G37*
G36*
X148645Y-307818D02*
X148673Y-308013D01*
X148721Y-308207D01*
X148787Y-308400D01*
X148872Y-308591D01*
X148977Y-308782D01*
X149100Y-308972D01*
X149242Y-309160D01*
X149403Y-309348D01*
X149584Y-309534D01*
X146417Y-309535D01*
X146597Y-309348D01*
X146758Y-309161D01*
X146901Y-308972D01*
X147024Y-308782D01*
X147128Y-308592D01*
X147213Y-308400D01*
X147280Y-308207D01*
X147327Y-308013D01*
X147356Y-307818D01*
X147365Y-307622D01*
X148635Y-307622D01*
X148645Y-307818D01*
D02*
G37*
G36*
X140645D02*
X140673Y-308013D01*
X140721Y-308207D01*
X140787Y-308400D01*
X140872Y-308591D01*
X140977Y-308782D01*
X141100Y-308972D01*
X141242Y-309160D01*
X141404Y-309348D01*
X141584Y-309534D01*
X138417Y-309535D01*
X138597Y-309348D01*
X138758Y-309161D01*
X138901Y-308972D01*
X139024Y-308782D01*
X139128Y-308592D01*
X139213Y-308400D01*
X139280Y-308207D01*
X139327Y-308013D01*
X139356Y-307818D01*
X139365Y-307622D01*
X140635Y-307622D01*
X140645Y-307818D01*
D02*
G37*
G36*
X132645D02*
X132673Y-308013D01*
X132721Y-308207D01*
X132787Y-308400D01*
X132872Y-308591D01*
X132977Y-308782D01*
X133100Y-308972D01*
X133242Y-309160D01*
X133404Y-309348D01*
X133584Y-309534D01*
X130417Y-309535D01*
X130597Y-309348D01*
X130758Y-309161D01*
X130901Y-308972D01*
X131024Y-308782D01*
X131128Y-308592D01*
X131214Y-308400D01*
X131280Y-308207D01*
X131327Y-308013D01*
X131356Y-307818D01*
X131365Y-307622D01*
X132635Y-307622D01*
X132645Y-307818D01*
D02*
G37*
G36*
X37150Y-305002D02*
X37042Y-305041D01*
X36946Y-305106D01*
X36864Y-305197D01*
X36794Y-305314D01*
X36737Y-305457D01*
X36692Y-305626D01*
X36661Y-305821D01*
X36642Y-306042D01*
X36635Y-306290D01*
X35365D01*
X35359Y-306042D01*
X35340Y-305821D01*
X35308Y-305626D01*
X35264Y-305457D01*
X35206Y-305314D01*
X35137Y-305197D01*
X35054Y-305106D01*
X34959Y-305041D01*
X34851Y-305002D01*
X34730Y-304989D01*
X37270D01*
X37150Y-305002D01*
D02*
G37*
G36*
X29150D02*
X29042Y-305041D01*
X28946Y-305106D01*
X28864Y-305197D01*
X28794Y-305314D01*
X28737Y-305457D01*
X28692Y-305626D01*
X28661Y-305821D01*
X28642Y-306042D01*
X28635Y-306290D01*
X27365D01*
X27359Y-306042D01*
X27340Y-305821D01*
X27308Y-305626D01*
X27264Y-305457D01*
X27206Y-305314D01*
X27137Y-305197D01*
X27054Y-305106D01*
X26959Y-305041D01*
X26851Y-305002D01*
X26730Y-304989D01*
X29270D01*
X29150Y-305002D01*
D02*
G37*
G36*
X36645Y-307818D02*
X36673Y-308013D01*
X36721Y-308207D01*
X36787Y-308400D01*
X36872Y-308591D01*
X36977Y-308782D01*
X37100Y-308972D01*
X37242Y-309160D01*
X37404Y-309348D01*
X37584Y-309534D01*
X34417Y-309535D01*
X34597Y-309348D01*
X34758Y-309161D01*
X34901Y-308972D01*
X35024Y-308782D01*
X35128Y-308592D01*
X35213Y-308400D01*
X35280Y-308207D01*
X35327Y-308013D01*
X35356Y-307818D01*
X35365Y-307622D01*
X36635Y-307622D01*
X36645Y-307818D01*
D02*
G37*
G36*
X28645D02*
X28673Y-308013D01*
X28721Y-308207D01*
X28787Y-308400D01*
X28872Y-308591D01*
X28977Y-308782D01*
X29100Y-308972D01*
X29242Y-309160D01*
X29404Y-309348D01*
X29584Y-309534D01*
X26417Y-309535D01*
X26597Y-309348D01*
X26758Y-309161D01*
X26901Y-308972D01*
X27024Y-308782D01*
X27128Y-308592D01*
X27213Y-308400D01*
X27280Y-308207D01*
X27327Y-308013D01*
X27356Y-307818D01*
X27365Y-307622D01*
X28635Y-307622D01*
X28645Y-307818D01*
D02*
G37*
G36*
X-10850Y-305002D02*
X-10958Y-305041D01*
X-11054Y-305106D01*
X-11136Y-305197D01*
X-11206Y-305314D01*
X-11263Y-305457D01*
X-11308Y-305626D01*
X-11339Y-305821D01*
X-11358Y-306042D01*
X-11365Y-306290D01*
X-12635D01*
X-12641Y-306042D01*
X-12660Y-305821D01*
X-12692Y-305626D01*
X-12736Y-305457D01*
X-12794Y-305314D01*
X-12863Y-305197D01*
X-12946Y-305106D01*
X-13041Y-305041D01*
X-13149Y-305002D01*
X-13270Y-304989D01*
X-10730D01*
X-10850Y-305002D01*
D02*
G37*
G36*
X-18850D02*
X-18958Y-305041D01*
X-19054Y-305106D01*
X-19136Y-305197D01*
X-19206Y-305314D01*
X-19263Y-305457D01*
X-19308Y-305626D01*
X-19339Y-305821D01*
X-19358Y-306042D01*
X-19365Y-306290D01*
X-20635D01*
X-20641Y-306042D01*
X-20660Y-305821D01*
X-20692Y-305626D01*
X-20736Y-305457D01*
X-20793Y-305314D01*
X-20863Y-305197D01*
X-20946Y-305106D01*
X-21041Y-305041D01*
X-21149Y-305002D01*
X-21270Y-304989D01*
X-18730D01*
X-18850Y-305002D01*
D02*
G37*
G36*
X-11355Y-307818D02*
X-11327Y-308013D01*
X-11279Y-308207D01*
X-11213Y-308400D01*
X-11128Y-308591D01*
X-11023Y-308782D01*
X-10900Y-308972D01*
X-10758Y-309160D01*
X-10596Y-309348D01*
X-10416Y-309534D01*
X-13583Y-309535D01*
X-13403Y-309348D01*
X-13242Y-309161D01*
X-13099Y-308972D01*
X-12976Y-308782D01*
X-12872Y-308592D01*
X-12787Y-308400D01*
X-12720Y-308207D01*
X-12673Y-308013D01*
X-12644Y-307818D01*
X-12635Y-307622D01*
X-11365Y-307622D01*
X-11355Y-307818D01*
D02*
G37*
G36*
X-19355D02*
X-19327Y-308013D01*
X-19279Y-308207D01*
X-19213Y-308400D01*
X-19128Y-308591D01*
X-19023Y-308782D01*
X-18900Y-308972D01*
X-18758Y-309160D01*
X-18597Y-309348D01*
X-18416Y-309534D01*
X-21583Y-309535D01*
X-21403Y-309348D01*
X-21242Y-309161D01*
X-21099Y-308972D01*
X-20976Y-308782D01*
X-20872Y-308592D01*
X-20786Y-308400D01*
X-20720Y-308207D01*
X-20673Y-308013D01*
X-20644Y-307818D01*
X-20635Y-307622D01*
X-19365Y-307622D01*
X-19355Y-307818D01*
D02*
G37*
G36*
X13150Y-305002D02*
X13042Y-305041D01*
X12946Y-305106D01*
X12864Y-305197D01*
X12794Y-305314D01*
X12737Y-305457D01*
X12692Y-305626D01*
X12661Y-305821D01*
X12642Y-306042D01*
X12635Y-306290D01*
X11365D01*
X11359Y-306042D01*
X11340Y-305821D01*
X11308Y-305626D01*
X11264Y-305457D01*
X11207Y-305314D01*
X11137Y-305197D01*
X11054Y-305106D01*
X10959Y-305041D01*
X10851Y-305002D01*
X10730Y-304989D01*
X13270D01*
X13150Y-305002D01*
D02*
G37*
G36*
X5150D02*
X5042Y-305041D01*
X4946Y-305106D01*
X4864Y-305197D01*
X4794Y-305314D01*
X4737Y-305457D01*
X4692Y-305626D01*
X4661Y-305821D01*
X4642Y-306042D01*
X4635Y-306290D01*
X3365D01*
X3359Y-306042D01*
X3340Y-305821D01*
X3308Y-305626D01*
X3264Y-305457D01*
X3207Y-305314D01*
X3137Y-305197D01*
X3054Y-305106D01*
X2959Y-305041D01*
X2851Y-305002D01*
X2730Y-304989D01*
X5270D01*
X5150Y-305002D01*
D02*
G37*
G36*
X12645Y-307818D02*
X12673Y-308013D01*
X12721Y-308207D01*
X12787Y-308400D01*
X12872Y-308591D01*
X12977Y-308782D01*
X13100Y-308972D01*
X13242Y-309160D01*
X13404Y-309348D01*
X13584Y-309534D01*
X10417Y-309535D01*
X10597Y-309348D01*
X10758Y-309161D01*
X10901Y-308972D01*
X11024Y-308782D01*
X11128Y-308592D01*
X11214Y-308400D01*
X11280Y-308207D01*
X11327Y-308013D01*
X11356Y-307818D01*
X11365Y-307622D01*
X12635Y-307622D01*
X12645Y-307818D01*
D02*
G37*
G36*
X4645D02*
X4673Y-308013D01*
X4721Y-308207D01*
X4787Y-308400D01*
X4872Y-308591D01*
X4977Y-308782D01*
X5100Y-308972D01*
X5242Y-309160D01*
X5404Y-309348D01*
X5584Y-309534D01*
X2417Y-309535D01*
X2597Y-309348D01*
X2758Y-309161D01*
X2901Y-308972D01*
X3024Y-308782D01*
X3128Y-308592D01*
X3214Y-308400D01*
X3280Y-308207D01*
X3327Y-308013D01*
X3356Y-307818D01*
X3365Y-307622D01*
X4635Y-307622D01*
X4645Y-307818D01*
D02*
G37*
G36*
X-130850Y-305002D02*
X-130958Y-305041D01*
X-131054Y-305106D01*
X-131136Y-305197D01*
X-131206Y-305314D01*
X-131263Y-305457D01*
X-131308Y-305626D01*
X-131339Y-305821D01*
X-131358Y-306042D01*
X-131365Y-306290D01*
X-132635D01*
X-132641Y-306042D01*
X-132660Y-305821D01*
X-132692Y-305626D01*
X-132736Y-305457D01*
X-132794Y-305314D01*
X-132863Y-305197D01*
X-132946Y-305106D01*
X-133041Y-305041D01*
X-133149Y-305002D01*
X-133270Y-304989D01*
X-130730D01*
X-130850Y-305002D01*
D02*
G37*
G36*
X-138850D02*
X-138958Y-305041D01*
X-139054Y-305106D01*
X-139136Y-305197D01*
X-139206Y-305314D01*
X-139263Y-305457D01*
X-139308Y-305626D01*
X-139339Y-305821D01*
X-139358Y-306042D01*
X-139365Y-306290D01*
X-140635D01*
X-140641Y-306042D01*
X-140660Y-305821D01*
X-140692Y-305626D01*
X-140736Y-305457D01*
X-140794Y-305314D01*
X-140863Y-305197D01*
X-140946Y-305106D01*
X-141041Y-305041D01*
X-141149Y-305002D01*
X-141270Y-304989D01*
X-138730D01*
X-138850Y-305002D01*
D02*
G37*
G36*
X-146850D02*
X-146958Y-305041D01*
X-147054Y-305106D01*
X-147136Y-305197D01*
X-147206Y-305314D01*
X-147263Y-305457D01*
X-147308Y-305626D01*
X-147339Y-305821D01*
X-147358Y-306042D01*
X-147365Y-306290D01*
X-148635D01*
X-148641Y-306042D01*
X-148660Y-305821D01*
X-148692Y-305626D01*
X-148736Y-305457D01*
X-148793Y-305314D01*
X-148863Y-305197D01*
X-148946Y-305106D01*
X-149041Y-305041D01*
X-149149Y-305002D01*
X-149270Y-304989D01*
X-146730D01*
X-146850Y-305002D01*
D02*
G37*
G36*
X-131355Y-307818D02*
X-131327Y-308013D01*
X-131279Y-308207D01*
X-131213Y-308400D01*
X-131128Y-308591D01*
X-131023Y-308782D01*
X-130900Y-308972D01*
X-130758Y-309160D01*
X-130597Y-309348D01*
X-130416Y-309534D01*
X-133583Y-309535D01*
X-133403Y-309348D01*
X-133242Y-309161D01*
X-133099Y-308972D01*
X-132976Y-308782D01*
X-132872Y-308592D01*
X-132787Y-308400D01*
X-132720Y-308207D01*
X-132673Y-308013D01*
X-132644Y-307818D01*
X-132635Y-307622D01*
X-131365Y-307622D01*
X-131355Y-307818D01*
D02*
G37*
G36*
X-139355D02*
X-139327Y-308013D01*
X-139279Y-308207D01*
X-139213Y-308400D01*
X-139128Y-308591D01*
X-139023Y-308782D01*
X-138900Y-308972D01*
X-138758Y-309160D01*
X-138596Y-309348D01*
X-138416Y-309534D01*
X-141583Y-309535D01*
X-141403Y-309348D01*
X-141242Y-309161D01*
X-141099Y-308972D01*
X-140976Y-308782D01*
X-140872Y-308592D01*
X-140787Y-308400D01*
X-140720Y-308207D01*
X-140673Y-308013D01*
X-140644Y-307818D01*
X-140635Y-307622D01*
X-139365Y-307622D01*
X-139355Y-307818D01*
D02*
G37*
G36*
X-147355D02*
X-147327Y-308013D01*
X-147279Y-308207D01*
X-147213Y-308400D01*
X-147128Y-308591D01*
X-147023Y-308782D01*
X-146900Y-308972D01*
X-146758Y-309160D01*
X-146596Y-309348D01*
X-146416Y-309534D01*
X-149583Y-309535D01*
X-149403Y-309348D01*
X-149242Y-309161D01*
X-149099Y-308972D01*
X-148976Y-308782D01*
X-148872Y-308592D01*
X-148786Y-308400D01*
X-148720Y-308207D01*
X-148673Y-308013D01*
X-148644Y-307818D01*
X-148635Y-307622D01*
X-147365Y-307622D01*
X-147355Y-307818D01*
D02*
G37*
D11*
X275300Y35200D02*
Y53975D01*
X-273300Y53475D02*
X-272800Y53975D01*
X-273300Y34925D02*
Y53475D01*
X-306500Y34925D02*
X-289300D01*
X291300Y35200D02*
X308500D01*
D12*
X-12000Y-311150D02*
Y-295050D01*
X140000Y-311150D02*
Y-295050D01*
X28000Y-311150D02*
Y-295050D01*
X-140000Y-311150D02*
Y-295050D01*
X12000Y-311150D02*
Y-295050D01*
X132000Y-311150D02*
Y-295050D01*
X-132000Y-311150D02*
Y-295050D01*
X-20000Y-311150D02*
Y-295050D01*
X36000Y-311150D02*
Y-295050D01*
X148000Y-311150D02*
Y-295050D01*
X-148000Y-311150D02*
Y-295050D01*
X4000Y-311150D02*
Y-295050D01*
X-132000Y-251050D02*
Y-234950D01*
X-12000Y-251050D02*
Y-234950D01*
X-140000Y-251050D02*
Y-234950D01*
X-20000Y-251050D02*
Y-234950D01*
X-148000Y-251050D02*
Y-234950D01*
X148000Y-251050D02*
Y-234950D01*
X140000Y-251050D02*
Y-234950D01*
X132000Y-251050D02*
Y-234950D01*
D14*
X-156000Y-251050D02*
D03*
Y-295050D02*
D03*
X-148000Y-251050D02*
D03*
Y-295050D02*
D03*
X-140000Y-251050D02*
D03*
Y-295050D02*
D03*
X-132000Y-251050D02*
D03*
Y-295050D02*
D03*
X-124000Y-251050D02*
D03*
Y-295050D02*
D03*
X-116000Y-251050D02*
D03*
Y-295050D02*
D03*
X-108000Y-251050D02*
D03*
Y-295050D02*
D03*
X-100000Y-251050D02*
D03*
Y-295050D02*
D03*
X-92000Y-251050D02*
D03*
Y-295050D02*
D03*
X-84000Y-251050D02*
D03*
Y-295050D02*
D03*
X-76000Y-251050D02*
D03*
Y-295050D02*
D03*
X-68000Y-251050D02*
D03*
Y-295050D02*
D03*
X-60000Y-251050D02*
D03*
Y-295050D02*
D03*
X-52000Y-251050D02*
D03*
Y-295050D02*
D03*
X-44000Y-251050D02*
D03*
Y-295050D02*
D03*
X-36000Y-251050D02*
D03*
Y-295050D02*
D03*
X-28000Y-251050D02*
D03*
Y-295050D02*
D03*
X-20000Y-251050D02*
D03*
Y-295050D02*
D03*
X-12000Y-251050D02*
D03*
Y-295050D02*
D03*
X-4000Y-251050D02*
D03*
Y-295050D02*
D03*
X4000Y-251050D02*
D03*
Y-295050D02*
D03*
X12000Y-251050D02*
D03*
Y-295050D02*
D03*
X20000Y-251050D02*
D03*
Y-295050D02*
D03*
X28000Y-251050D02*
D03*
Y-295050D02*
D03*
X36000Y-251050D02*
D03*
Y-295050D02*
D03*
X44000Y-251050D02*
D03*
Y-295050D02*
D03*
X52000Y-251050D02*
D03*
Y-295050D02*
D03*
X60000Y-251050D02*
D03*
Y-295050D02*
D03*
X68000Y-251050D02*
D03*
Y-295050D02*
D03*
X76000Y-251050D02*
D03*
Y-295050D02*
D03*
X84000Y-251050D02*
D03*
Y-295050D02*
D03*
X92000Y-251050D02*
D03*
Y-295050D02*
D03*
X100000Y-251050D02*
D03*
Y-295050D02*
D03*
X108000Y-251050D02*
D03*
Y-295050D02*
D03*
X116000Y-251050D02*
D03*
Y-295050D02*
D03*
X124000Y-251050D02*
D03*
Y-295050D02*
D03*
X132000Y-251050D02*
D03*
Y-295050D02*
D03*
X140000Y-251050D02*
D03*
Y-295050D02*
D03*
X148000Y-251050D02*
D03*
Y-295050D02*
D03*
X156000Y-251050D02*
D03*
Y-295050D02*
D03*
D15*
X-120650Y-38100D02*
D03*
X122900D02*
D03*
D16*
X-199150Y-60960D02*
D03*
Y-15240D02*
D03*
X201400Y-15240D02*
D03*
Y-60960D02*
D03*
D17*
X119650Y-115600D02*
D03*
X126150D02*
D03*
X113150D02*
D03*
X132650D02*
D03*
X-123900D02*
D03*
X-117400D02*
D03*
X-130400D02*
D03*
X-110900D02*
D03*
D18*
X108750Y-101600D02*
D03*
X137050D02*
D03*
X-134800D02*
D03*
X-106500D02*
D03*
D19*
X119650Y-86600D02*
D03*
X113150D02*
D03*
X126150D02*
D03*
X132650D02*
D03*
X-123900Y-86600D02*
D03*
X-130400D02*
D03*
X-117400D02*
D03*
X-110900D02*
D03*
D20*
X291300Y-38100D02*
D03*
X275300D02*
D03*
X-289050D02*
D03*
X-273050D02*
D03*
D21*
X291300Y-19050D02*
D03*
X275300D02*
D03*
X-289050D02*
D03*
X-273050D02*
D03*
X-273300Y34925D02*
D03*
X-289300D02*
D03*
X275300Y35200D02*
D03*
X291300D02*
D03*
D22*
X308900Y-60960D02*
D03*
X275300D02*
D03*
X-306650D02*
D03*
X-273050D02*
D03*
D23*
X-272800Y53975D02*
D03*
X-289300D02*
D03*
X275300D02*
D03*
X291800D02*
D03*
D42*
X122900Y-98000D02*
D03*
X-120650D02*
D03*
D43*
X-226350Y72100D02*
X-209550Y88900D01*
X-166600D01*
X-226350Y38100D02*
Y72100D01*
X-166600Y88900D02*
X-164290Y86590D01*
Y69040D02*
X-152400Y57150D01*
X-164290Y69040D02*
Y86590D01*
X-152400Y57150D02*
X-71533D01*
X-120650Y-98000D02*
Y-38100D01*
X-120650Y-38100D02*
X-111900Y-29350D01*
X-57150D01*
Y116350D02*
X-52850Y120650D01*
X-57150Y69850D02*
Y116350D01*
X-57150Y-29350D02*
X-23150D01*
X-57150Y69850D02*
X-23150D01*
X-71533Y57150D02*
X-58833Y69850D01*
X-57150D01*
Y-29350D02*
X-57150Y-29350D01*
X-23150Y69850D02*
X-23150Y69850D01*
X25400Y69850D02*
Y116350D01*
X29700Y120650D01*
X177800Y38100D02*
X228600D01*
X129250Y88900D02*
X131560Y86590D01*
Y84340D02*
Y86590D01*
Y84340D02*
X177800Y38100D01*
X122900Y-98000D02*
Y-38100D01*
X59400Y-29350D02*
X114150D01*
X122900Y-38100D01*
X25400Y-29350D02*
X59400D01*
X25400Y69850D02*
X59400D01*
X61083D02*
X80133Y88900D01*
X129250D01*
X59400Y69850D02*
X61083D01*
X-120650Y-38100D02*
X-120650Y-38100D01*
D44*
X109220Y-127000D02*
X113150Y-123070D01*
X119380Y-127000D02*
X119650Y-126730D01*
Y-115600D01*
X-134330Y-127000D02*
X-130400Y-123070D01*
X-117400Y-123610D02*
X-114010Y-127000D01*
X-273050Y-88900D02*
Y-60960D01*
X275300Y-88900D02*
Y-60960D01*
X-117400Y-123610D02*
Y-115600D01*
X-130400Y-123070D02*
Y-115600D01*
X-123900Y-126730D02*
Y-115600D01*
X113150Y-123070D02*
Y-115600D01*
X126150Y-123610D02*
X129540Y-127000D01*
X126150Y-123610D02*
Y-115600D01*
X308900Y-60960D02*
X326100D01*
X-323850Y-60960D02*
X-323850Y-60960D01*
X-306650D01*
X108750Y-101600D02*
X119300D01*
X126500D02*
X137050D01*
X-124250D02*
X-120650Y-98000D01*
X-134800Y-101600D02*
X-124250D01*
X-120650Y-98000D02*
X-117050Y-101600D01*
X-106500D01*
X201400Y-15240D02*
X205210Y-19050D01*
X275300D01*
Y-38100D02*
Y-19050D01*
Y-60960D02*
Y-38100D01*
X-273050D02*
Y-19050D01*
Y-60960D02*
Y-38100D01*
Y-60960D02*
X-199150D01*
D45*
X59400Y69850D02*
D03*
X25400D02*
D03*
X59400Y-29350D02*
D03*
X25400D02*
D03*
X-57150D02*
D03*
X-23150Y-29350D02*
D03*
X-57150Y69850D02*
D03*
X-23150Y69850D02*
D03*
D46*
X-273050Y-88900D02*
D03*
X275300D02*
D03*
X29700Y120650D02*
D03*
X55100D02*
D03*
X-52850Y120650D02*
D03*
X-27450D02*
D03*
X228600Y38100D02*
D03*
X-226350D02*
D03*
X254000Y107950D02*
D03*
X-254000D02*
D03*
X-330200Y-260350D02*
D03*
X330200Y0D02*
D03*
X-330200D02*
D03*
Y-171450D02*
D03*
X330200Y-260350D02*
D03*
Y-171450D02*
D03*
D47*
X118450Y122900D02*
D03*
X-177400D02*
D03*
D48*
X129250Y88900D02*
D03*
X-166600D02*
D03*
D49*
X168850D02*
D03*
X-127000D02*
D03*
D50*
X330200Y107950D02*
D03*
X-330200D02*
D03*
Y-107950D02*
D03*
Y-323850D02*
D03*
X330200D02*
D03*
Y-107950D02*
D03*
D51*
X254000Y-44450D02*
D03*
X292100Y-120650D02*
D03*
X254000Y-196850D02*
D03*
X292100Y-273050D02*
D03*
X254000Y-349250D02*
D03*
X177800Y-44450D02*
D03*
X215900Y-120650D02*
D03*
X177800Y-196850D02*
D03*
X215900Y-273050D02*
D03*
X177800Y-349250D02*
D03*
X139700Y31750D02*
D03*
X101600Y-196850D02*
D03*
X139700Y-273050D02*
D03*
X101600Y-349250D02*
D03*
X63500Y31750D02*
D03*
Y-120650D02*
D03*
X25400Y-196850D02*
D03*
X63500Y-273050D02*
D03*
X25400Y-349250D02*
D03*
X-12700Y31750D02*
D03*
X-50800Y-44450D02*
D03*
X-12700Y-120650D02*
D03*
X-50800Y-196850D02*
D03*
X-12700Y-273050D02*
D03*
X-50800Y-349250D02*
D03*
X-88900Y31750D02*
D03*
Y-120650D02*
D03*
X-127000Y-196850D02*
D03*
X-88900Y-273050D02*
D03*
X-127000Y-349250D02*
D03*
X-165100Y31750D02*
D03*
X-203200Y-44450D02*
D03*
X-165100Y-120650D02*
D03*
X-203200Y-196850D02*
D03*
X-165100Y-273050D02*
D03*
X-203200Y-349250D02*
D03*
X-241300Y31750D02*
D03*
Y-120650D02*
D03*
X-279400Y-196850D02*
D03*
X-241300Y-273050D02*
D03*
X-279400Y-349250D02*
D03*
X-317500Y31750D02*
D03*
X-355600Y-44450D02*
D03*
Y-196850D02*
D03*
X-317500Y-273050D02*
D03*
D52*
X-12000Y-311150D02*
D03*
X36000D02*
D03*
X28001D02*
D03*
X-132000D02*
D03*
X-140000D02*
D03*
X-147999D02*
D03*
X12000D02*
D03*
X4001D02*
D03*
X-20000D02*
D03*
X148000D02*
D03*
X140000D02*
D03*
X132001D02*
D03*
X147999Y-234950D02*
D03*
X140000D02*
D03*
X132000D02*
D03*
X-12000D02*
D03*
X-20001D02*
D03*
X-148000Y-234950D02*
D03*
X-140000D02*
D03*
X-132000D02*
D03*
X-306500Y34925D02*
D03*
X308500Y35200D02*
D03*
X-134330Y-127000D02*
D03*
X-114010D02*
D03*
X-124170D02*
D03*
X119380D02*
D03*
X129540D02*
D03*
X109220D02*
D03*
X326100Y-60960D02*
D03*
X-323850Y-60960D02*
D03*
M02*
