G04*
G04 #@! TF.GenerationSoftware,Altium Limited,Altium Designer,24.2.2 (26)*
G04*
G04 Layer_Color=16711935*
%FSLAX44Y44*%
%MOMM*%
G71*
G04*
G04 #@! TF.SameCoordinates,D0D0D645-F3CD-4B60-A7FA-FB90DE8E9CDF*
G04*
G04*
G04 #@! TF.FilePolarity,Positive*
G04*
G01*
G75*
%ADD10C,0.2000*%
%ADD12C,0.1270*%
%ADD56C,0.1000*%
D10*
X157000Y-311050D02*
G03*
X157000Y-311050I-1000J0D01*
G01*
X87700Y88900D02*
G03*
X87700Y88900I-1000J0D01*
G01*
X-208150D02*
G03*
X-208150Y88900I-1000J0D01*
G01*
X113900Y-122600D02*
G03*
X113900Y-122600I-1000J0D01*
G01*
X321600Y-60960D02*
G03*
X321600Y-60960I-1000J0D01*
G01*
X-129650Y-122600D02*
G03*
X-129650Y-122600I-1000J0D01*
G01*
X-317350Y-60960D02*
G03*
X-317350Y-60960I-1000J0D01*
G01*
X157000Y-315050D02*
G03*
X157000Y-315050I-1000J0D01*
G01*
D12*
X76050Y-59750D02*
Y100250D01*
X8750Y-59750D02*
X76050D01*
X8750D02*
Y100250D01*
X76050D01*
X189000Y-303050D02*
Y-243050D01*
X-189000D02*
X189000D01*
X-189000Y-303050D02*
Y-243050D01*
Y-303050D02*
X189000D01*
X-73800Y100250D02*
X-6500D01*
X-73800Y-59750D02*
Y100250D01*
Y-59750D02*
X-6500D01*
Y100250D01*
X107400Y-86100D02*
X138400D01*
Y-117100D02*
Y-86100D01*
X107400Y-117100D02*
X138400D01*
X107400D02*
Y-86100D01*
X278850Y-68710D02*
X305350D01*
X278850D02*
Y-53210D01*
X305350D01*
Y-68710D02*
Y-53210D01*
X-136150Y-86100D02*
X-105150D01*
Y-117100D02*
Y-86100D01*
X-136150Y-117100D02*
X-105150D01*
X-136150D02*
Y-86100D01*
X-303100Y-53210D02*
X-276600D01*
Y-68710D02*
Y-53210D01*
X-303100Y-68710D02*
X-276600D01*
X-303100D02*
Y-53210D01*
X-189000Y-303050D02*
X189000D01*
Y-243050D01*
X-189000D02*
X189000D01*
X-189000Y-303050D02*
Y-243050D01*
D56*
X274550Y-42850D02*
X292050D01*
X274550Y-33350D02*
X292050D01*
X292050Y-42850D01*
X274550D02*
X274550Y-33350D01*
X274550Y-23800D02*
X292050Y-23800D01*
X274550Y-14300D02*
X292050Y-14300D01*
Y-23800D02*
Y-14300D01*
X274550Y-14300D02*
X274550Y-23800D01*
X-289800Y-14300D02*
X-272300D01*
X-289800Y-23800D02*
X-272300Y-23800D01*
X-289800Y-23800D02*
X-289800Y-14300D01*
X-272300Y-23800D02*
Y-14300D01*
X-289800Y-33350D02*
X-272300Y-33350D01*
X-289800Y-42850D02*
X-272300Y-42850D01*
X-289800Y-42850D02*
Y-33350D01*
X-272300Y-42850D02*
Y-33350D01*
X-272300Y49225D02*
Y58725D01*
X-289800Y49225D02*
Y58725D01*
Y49225D02*
X-272300Y49225D01*
X-289800Y58725D02*
X-272300D01*
X-290050Y30175D02*
X-272550D01*
X-290050Y39675D02*
X-272550Y39675D01*
Y30175D02*
Y39675D01*
X-290050Y30175D02*
Y39675D01*
X274550Y39950D02*
X292050D01*
X274550Y30450D02*
X292050Y30450D01*
X274550Y30450D02*
X274550Y39950D01*
X292050Y30450D02*
Y39950D01*
X274800Y49225D02*
Y58725D01*
X292300Y49225D02*
Y58725D01*
X274800Y58725D02*
X292300Y58725D01*
X274800Y49225D02*
X292300Y49225D01*
M02*
