G04*
G04 #@! TF.GenerationSoftware,Altium Limited,Altium Designer,24.2.2 (26)*
G04*
G04 Layer_Color=128*
%FSLAX44Y44*%
%MOMM*%
G71*
G04*
G04 #@! TF.SameCoordinates,D0D0D645-F3CD-4B60-A7FA-FB90DE8E9CDF*
G04*
G04*
G04 #@! TF.FilePolarity,Positive*
G04*
G01*
G75*
%ADD12C,0.1270*%
D12*
X51400Y69850D02*
X67400D01*
X59400Y61850D02*
Y77850D01*
X17400Y69850D02*
X33400D01*
X25400Y61850D02*
Y77850D01*
X51400Y-29350D02*
X67400D01*
X59400Y-37350D02*
Y-21350D01*
X17400Y-29350D02*
X33400D01*
X25400Y-37350D02*
Y-21350D01*
X-65150Y-29350D02*
X-49150D01*
X-57150Y-37350D02*
Y-21350D01*
X-31150Y-29350D02*
X-15150D01*
X-23150Y-37350D02*
Y-21350D01*
X-65150Y69850D02*
X-49150D01*
X-57150Y61850D02*
Y77850D01*
X-31150Y69850D02*
X-15150D01*
X-23150Y61850D02*
Y77850D01*
X-278130Y-88900D02*
X-267970D01*
X-273050Y-93980D02*
Y-83820D01*
X270220Y-88900D02*
X280380D01*
X275300Y-93980D02*
Y-83820D01*
X24620Y120650D02*
X34780D01*
X29700Y115570D02*
Y125730D01*
X50020Y120650D02*
X60180D01*
X55100Y115570D02*
Y125730D01*
X-57930Y120650D02*
X-47770D01*
X-52850Y115570D02*
Y125730D01*
X-32530Y120650D02*
X-22370D01*
X-27450Y115570D02*
Y125730D01*
X109150Y122900D02*
X127750D01*
X118450Y113600D02*
Y132200D01*
X119800Y88900D02*
X138700D01*
X129250Y79450D02*
Y98350D01*
X159400Y88900D02*
X178300D01*
X168850Y79450D02*
Y98350D01*
X223520Y38100D02*
X233680D01*
X228600Y33020D02*
Y43180D01*
X-186700Y122900D02*
X-168100D01*
X-177400Y113600D02*
Y132200D01*
X-176050Y88900D02*
X-157150D01*
X-166600Y79450D02*
Y98350D01*
X-136450Y88900D02*
X-117550D01*
X-127000Y79450D02*
Y98350D01*
X-231430Y38100D02*
X-221270D01*
X-226350Y33020D02*
Y43180D01*
X248920Y107950D02*
X259080D01*
X254000Y102870D02*
Y113030D01*
X-259080Y107950D02*
X-248920D01*
X-254000Y102870D02*
Y113030D01*
X-335280Y-260350D02*
X-325120D01*
X-330200Y-265430D02*
Y-255270D01*
X325120Y0D02*
X335280D01*
X330200Y-5080D02*
Y5080D01*
X-335280Y0D02*
X-325120D01*
X-330200Y-5080D02*
Y5080D01*
X-335280Y-171450D02*
X-325120D01*
X-330200Y-176530D02*
Y-166370D01*
X325120Y-260350D02*
X335280D01*
X330200Y-265430D02*
Y-255270D01*
X325120Y-171450D02*
X335280D01*
X330200Y-176530D02*
Y-166370D01*
X313200Y107950D02*
X347200D01*
X330200Y90950D02*
Y124950D01*
X-347200Y107950D02*
X-313200D01*
X-330200Y90950D02*
Y124950D01*
X-347200Y-107950D02*
X-313200D01*
X-330200Y-124950D02*
Y-90950D01*
X-347200Y-323850D02*
X-313200D01*
X-330200Y-340850D02*
Y-306850D01*
X313200Y-323850D02*
X347200D01*
X330200Y-340850D02*
Y-306850D01*
X313200Y-107950D02*
X347200D01*
X330200Y-124950D02*
Y-90950D01*
X252476Y-44450D02*
X255524D01*
X254000Y-45974D02*
Y-42926D01*
X290576Y-120650D02*
X293624D01*
X292100Y-122174D02*
Y-119126D01*
X252476Y-196850D02*
X255524D01*
X254000Y-198374D02*
Y-195326D01*
X290576Y-273050D02*
X293624D01*
X292100Y-274574D02*
Y-271526D01*
X252476Y-349250D02*
X255524D01*
X254000Y-350774D02*
Y-347726D01*
X176276Y-44450D02*
X179324D01*
X177800Y-45974D02*
Y-42926D01*
X214376Y-120650D02*
X217424D01*
X215900Y-122174D02*
Y-119126D01*
X176276Y-196850D02*
X179324D01*
X177800Y-198374D02*
Y-195326D01*
X214376Y-273050D02*
X217424D01*
X215900Y-274574D02*
Y-271526D01*
X176276Y-349250D02*
X179324D01*
X177800Y-350774D02*
Y-347726D01*
X138176Y31750D02*
X141224D01*
X139700Y30226D02*
Y33274D01*
X100076Y-196850D02*
X103124D01*
X101600Y-198374D02*
Y-195326D01*
X138176Y-273050D02*
X141224D01*
X139700Y-274574D02*
Y-271526D01*
X100076Y-349250D02*
X103124D01*
X101600Y-350774D02*
Y-347726D01*
X61976Y31750D02*
X65024D01*
X63500Y30226D02*
Y33274D01*
X61976Y-120650D02*
X65024D01*
X63500Y-122174D02*
Y-119126D01*
X23876Y-196850D02*
X26924D01*
X25400Y-198374D02*
Y-195326D01*
X61976Y-273050D02*
X65024D01*
X63500Y-274574D02*
Y-271526D01*
X23876Y-349250D02*
X26924D01*
X25400Y-350774D02*
Y-347726D01*
X-14224Y31750D02*
X-11176D01*
X-12700Y30226D02*
Y33274D01*
X-52324Y-44450D02*
X-49276D01*
X-50800Y-45974D02*
Y-42926D01*
X-14224Y-120650D02*
X-11176D01*
X-12700Y-122174D02*
Y-119126D01*
X-52324Y-196850D02*
X-49276D01*
X-50800Y-198374D02*
Y-195326D01*
X-14224Y-273050D02*
X-11176D01*
X-12700Y-274574D02*
Y-271526D01*
X-52324Y-349250D02*
X-49276D01*
X-50800Y-350774D02*
Y-347726D01*
X-90424Y31750D02*
X-87376D01*
X-88900Y30226D02*
Y33274D01*
X-90424Y-120650D02*
X-87376D01*
X-88900Y-122174D02*
Y-119126D01*
X-128524Y-196850D02*
X-125476D01*
X-127000Y-198374D02*
Y-195326D01*
X-90424Y-273050D02*
X-87376D01*
X-88900Y-274574D02*
Y-271526D01*
X-128524Y-349250D02*
X-125476D01*
X-127000Y-350774D02*
Y-347726D01*
X-166624Y31750D02*
X-163576D01*
X-165100Y30226D02*
Y33274D01*
X-204724Y-44450D02*
X-201676D01*
X-203200Y-45974D02*
Y-42926D01*
X-166624Y-120650D02*
X-163576D01*
X-165100Y-122174D02*
Y-119126D01*
X-204724Y-196850D02*
X-201676D01*
X-203200Y-198374D02*
Y-195326D01*
X-166624Y-273050D02*
X-163576D01*
X-165100Y-274574D02*
Y-271526D01*
X-204724Y-349250D02*
X-201676D01*
X-203200Y-350774D02*
Y-347726D01*
X-242824Y31750D02*
X-239776D01*
X-241300Y30226D02*
Y33274D01*
X-242824Y-120650D02*
X-239776D01*
X-241300Y-122174D02*
Y-119126D01*
X-280924Y-196850D02*
X-277876D01*
X-279400Y-198374D02*
Y-195326D01*
X-242824Y-273050D02*
X-239776D01*
X-241300Y-274574D02*
Y-271526D01*
X-280924Y-349250D02*
X-277876D01*
X-279400Y-350774D02*
Y-347726D01*
X-319024Y31750D02*
X-315976D01*
X-317500Y30226D02*
Y33274D01*
X-357124Y-44450D02*
X-354076D01*
X-355600Y-45974D02*
Y-42926D01*
X-357124Y-196850D02*
X-354076D01*
X-355600Y-198374D02*
Y-195326D01*
X-319024Y-273050D02*
X-315976D01*
X-317500Y-274574D02*
Y-271526D01*
X-13500Y-311150D02*
X-10500D01*
X-12000Y-312650D02*
Y-309650D01*
X34501Y-311150D02*
X37501D01*
X36000Y-312650D02*
Y-309650D01*
X26500Y-311150D02*
X29501D01*
X28001Y-312650D02*
Y-309650D01*
X-133499Y-311150D02*
X-130499D01*
X-132000Y-312650D02*
Y-309650D01*
X-141500Y-311150D02*
X-138499D01*
X-140000Y-312650D02*
Y-309650D01*
X-149500Y-311150D02*
X-146500D01*
X-147999Y-312650D02*
Y-309650D01*
X10501Y-311150D02*
X13500D01*
X12000Y-312650D02*
Y-309650D01*
X2501Y-311150D02*
X5501D01*
X4001Y-312650D02*
Y-309650D01*
X-21500Y-311150D02*
X-18499D01*
X-20000Y-312650D02*
Y-309650D01*
X146501Y-311150D02*
X149501D01*
X148000Y-312650D02*
Y-309650D01*
X138500Y-311150D02*
X141501D01*
X140000Y-312650D02*
Y-309650D01*
X130500Y-311150D02*
X133500D01*
X132001Y-312650D02*
Y-309650D01*
X146500Y-234950D02*
X149500D01*
X147999Y-236450D02*
Y-233450D01*
X138499Y-234950D02*
X141500D01*
X140000Y-236450D02*
Y-233450D01*
X130499Y-234950D02*
X133499D01*
X132000Y-236450D02*
Y-233450D01*
X-13500Y-234950D02*
X-10501D01*
X-12000Y-236450D02*
Y-233450D01*
X-21500Y-234950D02*
X-18500D01*
X-20001Y-236450D02*
Y-233450D01*
X-149500Y-234950D02*
X-146500D01*
X-148000Y-236450D02*
Y-233450D01*
X-141500Y-234950D02*
X-138500D01*
X-140000Y-236450D02*
Y-233450D01*
X-133500Y-234950D02*
X-130500D01*
X-132000Y-236450D02*
Y-233450D01*
X-308000Y34925D02*
X-305000D01*
X-306500Y33425D02*
Y36425D01*
X307000Y35200D02*
X310000D01*
X308500Y33700D02*
Y36700D01*
X-135830Y-127000D02*
X-132830D01*
X-134330Y-128500D02*
Y-125500D01*
X-115510Y-127000D02*
X-112510D01*
X-114010Y-128500D02*
Y-125500D01*
X-125670Y-127000D02*
X-122670D01*
X-124170Y-128500D02*
Y-125500D01*
X117880Y-127000D02*
X120880D01*
X119380Y-128500D02*
Y-125500D01*
X128040Y-127000D02*
X131040D01*
X129540Y-128500D02*
Y-125500D01*
X107720Y-127000D02*
X110720D01*
X109220Y-128500D02*
Y-125500D01*
X324600Y-60960D02*
X327600D01*
X326100Y-62460D02*
Y-59460D01*
X-325350Y-60960D02*
X-322350D01*
X-323850Y-62460D02*
Y-59460D01*
M02*
