G04*
G04 #@! TF.GenerationSoftware,Altium Limited,Altium Designer,24.2.2 (26)*
G04*
G04 Layer_Physical_Order=4*
G04 Layer_Color=16711680*
%FSLAX44Y44*%
%MOMM*%
G71*
G04*
G04 #@! TF.SameCoordinates,D0D0D645-F3CD-4B60-A7FA-FB90DE8E9CDF*
G04*
G04*
G04 #@! TF.FilePolarity,Positive*
G04*
G01*
G75*
%ADD12C,0.1270*%
%ADD14R,0.5000X2.0000*%
%ADD45C,2.4000*%
%ADD46C,1.5240*%
%ADD47C,1.8600*%
%ADD48R,2.2400X2.2400*%
%ADD49C,2.2400*%
%ADD50C,5.0800*%
%ADD51C,0.4572*%
%ADD52C,0.4524*%
G36*
X347406Y143304D02*
X351739Y141990D01*
X355733Y139855D01*
X359233Y136983D01*
X362105Y133483D01*
X364240Y129489D01*
X365554Y125156D01*
X365989Y120747D01*
X365969Y120650D01*
Y-336550D01*
X365989Y-336647D01*
X365554Y-341056D01*
X364240Y-345389D01*
X362105Y-349383D01*
X359233Y-352883D01*
X355733Y-355756D01*
X351739Y-357890D01*
X347406Y-359204D01*
X342998Y-359639D01*
X342900Y-359619D01*
X-342900D01*
X-342998Y-359639D01*
X-347406Y-359204D01*
X-351739Y-357890D01*
X-355733Y-355756D01*
X-359233Y-352883D01*
X-362105Y-349383D01*
X-364240Y-345389D01*
X-365554Y-341056D01*
X-365989Y-336647D01*
X-365969Y-336550D01*
Y-280475D01*
X-365847Y-280292D01*
X-365669Y-279400D01*
X-365847Y-278508D01*
X-365969Y-278325D01*
Y120650D01*
X-365989Y120747D01*
X-365554Y125156D01*
X-364240Y129489D01*
X-362105Y133483D01*
X-359233Y136983D01*
X-355733Y139855D01*
X-351739Y141990D01*
X-347406Y143304D01*
X-342998Y143739D01*
X-342900Y143719D01*
X342900D01*
X342998Y143739D01*
X347406Y143304D01*
D02*
G37*
%LPC*%
G36*
X-26313Y129286D02*
X-28587D01*
X-30783Y128698D01*
X-32753Y127561D01*
X-34361Y125953D01*
X-35498Y123983D01*
X-36086Y121787D01*
Y119513D01*
X-35498Y117317D01*
X-34361Y115347D01*
X-32753Y113740D01*
X-30783Y112603D01*
X-28587Y112014D01*
X-26313D01*
X-24117Y112603D01*
X-22147Y113740D01*
X-20540Y115347D01*
X-19403Y117317D01*
X-18814Y119513D01*
Y121787D01*
X-19403Y123983D01*
X-20540Y125953D01*
X-22147Y127561D01*
X-24117Y128698D01*
X-26313Y129286D01*
D02*
G37*
G36*
X-51713D02*
X-53987D01*
X-56183Y128698D01*
X-58153Y127561D01*
X-59760Y125953D01*
X-60897Y123983D01*
X-61486Y121787D01*
Y119513D01*
X-60897Y117317D01*
X-59760Y115347D01*
X-58153Y113740D01*
X-56183Y112603D01*
X-53987Y112014D01*
X-51713D01*
X-49517Y112603D01*
X-47547Y113740D01*
X-45939Y115347D01*
X-44802Y117317D01*
X-44214Y119513D01*
Y121787D01*
X-44802Y123983D01*
X-45939Y125953D01*
X-47547Y127561D01*
X-49517Y128698D01*
X-51713Y129286D01*
D02*
G37*
G36*
X56237Y129286D02*
X53963D01*
X51767Y128698D01*
X49797Y127561D01*
X48189Y125953D01*
X47052Y123983D01*
X46464Y121787D01*
Y119513D01*
X47052Y117317D01*
X48189Y115347D01*
X49797Y113740D01*
X51767Y112603D01*
X53963Y112014D01*
X56237D01*
X58433Y112603D01*
X60403Y113740D01*
X62010Y115347D01*
X63147Y117317D01*
X63736Y119513D01*
Y121787D01*
X63147Y123983D01*
X62010Y125953D01*
X60403Y127561D01*
X58433Y128698D01*
X56237Y129286D01*
D02*
G37*
G36*
X30837D02*
X28563D01*
X26367Y128698D01*
X24397Y127561D01*
X22789Y125953D01*
X21653Y123983D01*
X21064Y121787D01*
Y119513D01*
X21653Y117317D01*
X22789Y115347D01*
X24397Y113740D01*
X26367Y112603D01*
X28563Y112014D01*
X30837D01*
X33033Y112603D01*
X35003Y113740D01*
X36611Y115347D01*
X37747Y117317D01*
X38336Y119513D01*
Y121787D01*
X37747Y123983D01*
X36611Y125953D01*
X35003Y127561D01*
X33033Y128698D01*
X30837Y129286D01*
D02*
G37*
G36*
X120003Y134700D02*
X116896D01*
X113895Y133896D01*
X111205Y132342D01*
X109008Y130145D01*
X107454Y127455D01*
X106650Y124453D01*
Y121347D01*
X107454Y118345D01*
X109008Y115655D01*
X111205Y113458D01*
X113895Y111904D01*
X116896Y111100D01*
X120003D01*
X123005Y111904D01*
X125695Y113458D01*
X127892Y115655D01*
X129446Y118345D01*
X130250Y121347D01*
Y124453D01*
X129446Y127455D01*
X127892Y130145D01*
X125695Y132342D01*
X123005Y133896D01*
X120003Y134700D01*
D02*
G37*
G36*
X-175847D02*
X-178953D01*
X-181955Y133896D01*
X-184645Y132342D01*
X-186842Y130145D01*
X-188396Y127455D01*
X-189200Y124453D01*
Y121347D01*
X-188396Y118345D01*
X-186842Y115655D01*
X-184645Y113458D01*
X-181955Y111904D01*
X-178953Y111100D01*
X-175847D01*
X-172845Y111904D01*
X-170155Y113458D01*
X-167958Y115655D01*
X-166404Y118345D01*
X-165600Y121347D01*
Y124453D01*
X-166404Y127455D01*
X-167958Y130145D01*
X-170155Y132342D01*
X-172845Y133896D01*
X-175847Y134700D01*
D02*
G37*
G36*
X255137Y116586D02*
X252863D01*
X250667Y115997D01*
X248697Y114860D01*
X247090Y113253D01*
X245952Y111283D01*
X245364Y109087D01*
Y106813D01*
X245952Y104617D01*
X247090Y102647D01*
X248697Y101039D01*
X250667Y99902D01*
X252863Y99314D01*
X255137D01*
X257333Y99902D01*
X259303Y101039D01*
X260910Y102647D01*
X262048Y104617D01*
X262636Y106813D01*
Y109087D01*
X262048Y111283D01*
X260910Y113253D01*
X259303Y114860D01*
X257333Y115997D01*
X255137Y116586D01*
D02*
G37*
G36*
X-252863D02*
X-255137D01*
X-257333Y115997D01*
X-259303Y114860D01*
X-260910Y113253D01*
X-262048Y111283D01*
X-262636Y109087D01*
Y106813D01*
X-262048Y104617D01*
X-260910Y102647D01*
X-259303Y101039D01*
X-257333Y99902D01*
X-255137Y99314D01*
X-252863D01*
X-250667Y99902D01*
X-248697Y101039D01*
X-247090Y102647D01*
X-245952Y104617D01*
X-245364Y106813D01*
Y109087D01*
X-245952Y111283D01*
X-247090Y113253D01*
X-248697Y114860D01*
X-250667Y115997D01*
X-252863Y116586D01*
D02*
G37*
G36*
X170458Y101116D02*
X169358D01*
Y89408D01*
X181066D01*
Y90508D01*
X180233Y93615D01*
X178625Y96401D01*
X176351Y98675D01*
X173565Y100283D01*
X170458Y101116D01*
D02*
G37*
G36*
X168342D02*
X167242D01*
X164135Y100283D01*
X161349Y98675D01*
X159075Y96401D01*
X157466Y93615D01*
X156634Y90508D01*
Y89408D01*
X168342D01*
Y101116D01*
D02*
G37*
G36*
X-125392D02*
X-126492D01*
Y89408D01*
X-114784D01*
Y90508D01*
X-115617Y93615D01*
X-117225Y96401D01*
X-119499Y98675D01*
X-122285Y100283D01*
X-125392Y101116D01*
D02*
G37*
G36*
X-127508D02*
X-128608D01*
X-131715Y100283D01*
X-134501Y98675D01*
X-136775Y96401D01*
X-138384Y93615D01*
X-139216Y90508D01*
Y89408D01*
X-127508D01*
Y101116D01*
D02*
G37*
G36*
X332279Y134366D02*
X328121D01*
X324014Y133716D01*
X320060Y132431D01*
X316355Y130543D01*
X312991Y128099D01*
X310051Y125159D01*
X307607Y121795D01*
X305719Y118090D01*
X304434Y114136D01*
X303784Y110029D01*
Y105871D01*
X304434Y101764D01*
X305719Y97810D01*
X307607Y94105D01*
X310051Y90741D01*
X312991Y87801D01*
X316355Y85357D01*
X320060Y83469D01*
X324014Y82184D01*
X328121Y81534D01*
X332279D01*
X336386Y82184D01*
X340340Y83469D01*
X344045Y85357D01*
X347409Y87801D01*
X350349Y90741D01*
X352793Y94105D01*
X354681Y97810D01*
X355966Y101764D01*
X356616Y105871D01*
Y110029D01*
X355966Y114136D01*
X354681Y118090D01*
X352793Y121795D01*
X350349Y125159D01*
X347409Y128099D01*
X344045Y130543D01*
X340340Y132431D01*
X336386Y133716D01*
X332279Y134366D01*
D02*
G37*
G36*
X-328121D02*
X-332279D01*
X-336386Y133716D01*
X-340340Y132431D01*
X-344045Y130543D01*
X-347409Y128099D01*
X-350349Y125159D01*
X-352793Y121795D01*
X-354681Y118090D01*
X-355966Y114136D01*
X-356616Y110029D01*
Y105871D01*
X-355966Y101764D01*
X-354681Y97810D01*
X-352793Y94105D01*
X-350349Y90741D01*
X-347409Y87801D01*
X-344045Y85357D01*
X-340340Y83469D01*
X-336386Y82184D01*
X-332279Y81534D01*
X-328121D01*
X-324014Y82184D01*
X-320060Y83469D01*
X-316355Y85357D01*
X-312991Y87801D01*
X-310051Y90741D01*
X-307607Y94105D01*
X-305719Y97810D01*
X-304434Y101764D01*
X-303784Y105871D01*
Y110029D01*
X-304434Y114136D01*
X-305719Y118090D01*
X-307607Y121795D01*
X-310051Y125159D01*
X-312991Y128099D01*
X-316355Y130543D01*
X-320060Y132431D01*
X-324014Y133716D01*
X-328121Y134366D01*
D02*
G37*
G36*
X181066Y88392D02*
X169358D01*
Y76684D01*
X170458D01*
X173565Y77516D01*
X176351Y79125D01*
X178625Y81399D01*
X180233Y84185D01*
X181066Y87292D01*
Y88392D01*
D02*
G37*
G36*
X168342D02*
X156634D01*
Y87292D01*
X157466Y84185D01*
X159075Y81399D01*
X161349Y79125D01*
X164135Y77516D01*
X167242Y76684D01*
X168342D01*
Y88392D01*
D02*
G37*
G36*
X141466Y101116D02*
X117034D01*
Y76684D01*
X141466D01*
Y101116D01*
D02*
G37*
G36*
X-114784Y88392D02*
X-126492D01*
Y76684D01*
X-125392D01*
X-122285Y77516D01*
X-119499Y79125D01*
X-117225Y81399D01*
X-115617Y84185D01*
X-114784Y87292D01*
Y88392D01*
D02*
G37*
G36*
X-127508D02*
X-139216D01*
Y87292D01*
X-138384Y84185D01*
X-136775Y81399D01*
X-134501Y79125D01*
X-131715Y77516D01*
X-128608Y76684D01*
X-127508D01*
Y88392D01*
D02*
G37*
G36*
X-154384Y101116D02*
X-178816D01*
Y76684D01*
X-154384D01*
Y101116D01*
D02*
G37*
G36*
X-21437Y82866D02*
X-24864D01*
X-28174Y81979D01*
X-31142Y80265D01*
X-33565Y77842D01*
X-35279Y74874D01*
X-36166Y71564D01*
Y68136D01*
X-35279Y64826D01*
X-33565Y61858D01*
X-31142Y59435D01*
X-28174Y57721D01*
X-24864Y56834D01*
X-21437D01*
X-18126Y57721D01*
X-15158Y59435D01*
X-12735Y61858D01*
X-11021Y64826D01*
X-10134Y68136D01*
Y71564D01*
X-11021Y74874D01*
X-12735Y77842D01*
X-15158Y80265D01*
X-18126Y81979D01*
X-21437Y82866D01*
D02*
G37*
G36*
X61114Y82866D02*
X57686D01*
X54376Y81979D01*
X51408Y80265D01*
X48985Y77842D01*
X47271Y74874D01*
X46384Y71564D01*
Y68136D01*
X47271Y64826D01*
X48985Y61858D01*
X51408Y59435D01*
X54376Y57721D01*
X57686Y56834D01*
X61114D01*
X64424Y57721D01*
X67392Y59435D01*
X69815Y61858D01*
X71529Y64826D01*
X72416Y68136D01*
Y71564D01*
X71529Y74874D01*
X69815Y77842D01*
X67392Y80265D01*
X64424Y81979D01*
X61114Y82866D01*
D02*
G37*
G36*
X27114D02*
X23686D01*
X20376Y81979D01*
X17408Y80265D01*
X14985Y77842D01*
X13271Y74874D01*
X12384Y71564D01*
Y68136D01*
X13271Y64826D01*
X14985Y61858D01*
X17408Y59435D01*
X20376Y57721D01*
X23686Y56834D01*
X27114D01*
X30424Y57721D01*
X33392Y59435D01*
X35815Y61858D01*
X37529Y64826D01*
X38416Y68136D01*
Y71564D01*
X37529Y74874D01*
X35815Y77842D01*
X33392Y80265D01*
X30424Y81979D01*
X27114Y82866D01*
D02*
G37*
G36*
X-55436D02*
X-58864D01*
X-62174Y81979D01*
X-65142Y80265D01*
X-67565Y77842D01*
X-69279Y74874D01*
X-70166Y71564D01*
Y68136D01*
X-69279Y64826D01*
X-67565Y61858D01*
X-65142Y59435D01*
X-62174Y57721D01*
X-58864Y56834D01*
X-55436D01*
X-52126Y57721D01*
X-49158Y59435D01*
X-46735Y61858D01*
X-45021Y64826D01*
X-44134Y68136D01*
Y71564D01*
X-45021Y74874D01*
X-46735Y77842D01*
X-49158Y80265D01*
X-52126Y81979D01*
X-55436Y82866D01*
D02*
G37*
G36*
X309296Y39200D02*
X307704D01*
X306234Y38591D01*
X305109Y37466D01*
X304500Y35996D01*
Y34404D01*
X305109Y32934D01*
X306234Y31809D01*
X307704Y31200D01*
X309296D01*
X310766Y31809D01*
X311891Y32934D01*
X312500Y34404D01*
Y35996D01*
X311891Y37466D01*
X310766Y38591D01*
X309296Y39200D01*
D02*
G37*
G36*
X-305704Y38925D02*
X-307296D01*
X-308766Y38316D01*
X-309891Y37191D01*
X-310500Y35721D01*
Y34129D01*
X-309891Y32659D01*
X-308766Y31534D01*
X-307296Y30925D01*
X-305704D01*
X-304234Y31534D01*
X-303109Y32659D01*
X-302500Y34129D01*
Y35721D01*
X-303109Y37191D01*
X-304234Y38316D01*
X-305704Y38925D01*
D02*
G37*
G36*
X229737Y46736D02*
X227463D01*
X225267Y46147D01*
X223297Y45010D01*
X221689Y43403D01*
X220553Y41433D01*
X219964Y39237D01*
Y36963D01*
X220553Y34767D01*
X221689Y32797D01*
X223297Y31189D01*
X225267Y30052D01*
X227463Y29464D01*
X229737D01*
X231933Y30052D01*
X233903Y31189D01*
X235511Y32797D01*
X236647Y34767D01*
X237236Y36963D01*
Y39237D01*
X236647Y41433D01*
X235511Y43403D01*
X233903Y45010D01*
X231933Y46147D01*
X229737Y46736D01*
D02*
G37*
G36*
X-225213D02*
X-227487D01*
X-229683Y46147D01*
X-231653Y45010D01*
X-233261Y43403D01*
X-234398Y41433D01*
X-234986Y39237D01*
Y36963D01*
X-234398Y34767D01*
X-233261Y32797D01*
X-231653Y31189D01*
X-229683Y30052D01*
X-227487Y29464D01*
X-225213D01*
X-223017Y30052D01*
X-221047Y31189D01*
X-219440Y32797D01*
X-218303Y34767D01*
X-217714Y36963D01*
Y39237D01*
X-218303Y41433D01*
X-219440Y43403D01*
X-221047Y45010D01*
X-223017Y46147D01*
X-225213Y46736D01*
D02*
G37*
G36*
X331337Y8636D02*
X330708D01*
Y508D01*
X338836D01*
Y1137D01*
X338247Y3333D01*
X337110Y5303D01*
X335503Y6910D01*
X333533Y8048D01*
X331337Y8636D01*
D02*
G37*
G36*
X329692D02*
X329063D01*
X326867Y8048D01*
X324897Y6910D01*
X323289Y5303D01*
X322152Y3333D01*
X321564Y1137D01*
Y508D01*
X329692D01*
Y8636D01*
D02*
G37*
G36*
X-329063D02*
X-329692D01*
Y508D01*
X-321564D01*
Y1137D01*
X-322152Y3333D01*
X-323289Y5303D01*
X-324897Y6910D01*
X-326867Y8048D01*
X-329063Y8636D01*
D02*
G37*
G36*
X-330708D02*
X-331337D01*
X-333533Y8048D01*
X-335503Y6910D01*
X-337110Y5303D01*
X-338247Y3333D01*
X-338836Y1137D01*
Y508D01*
X-330708D01*
Y8636D01*
D02*
G37*
G36*
X338836Y-508D02*
X330708D01*
Y-8636D01*
X331337D01*
X333533Y-8048D01*
X335503Y-6910D01*
X337110Y-5303D01*
X338247Y-3333D01*
X338836Y-1137D01*
Y-508D01*
D02*
G37*
G36*
X329692D02*
X321564D01*
Y-1137D01*
X322152Y-3333D01*
X323289Y-5303D01*
X324897Y-6910D01*
X326867Y-8048D01*
X329063Y-8636D01*
X329692D01*
Y-508D01*
D02*
G37*
G36*
X-321564D02*
X-329692D01*
Y-8636D01*
X-329063D01*
X-326867Y-8048D01*
X-324897Y-6910D01*
X-323289Y-5303D01*
X-322152Y-3333D01*
X-321564Y-1137D01*
Y-508D01*
D02*
G37*
G36*
X-330708D02*
X-338836D01*
Y-1137D01*
X-338247Y-3333D01*
X-337110Y-5303D01*
X-335503Y-6910D01*
X-333533Y-8048D01*
X-331337Y-8636D01*
X-330708D01*
Y-508D01*
D02*
G37*
G36*
X61114Y-16334D02*
X57686D01*
X54376Y-17221D01*
X51408Y-18935D01*
X48985Y-21358D01*
X47271Y-24326D01*
X46384Y-27636D01*
Y-31064D01*
X47271Y-34374D01*
X48985Y-37342D01*
X51408Y-39765D01*
X54376Y-41479D01*
X57686Y-42366D01*
X61114D01*
X64424Y-41479D01*
X67392Y-39765D01*
X69815Y-37342D01*
X71529Y-34374D01*
X72416Y-31064D01*
Y-27636D01*
X71529Y-24326D01*
X69815Y-21358D01*
X67392Y-18935D01*
X64424Y-17221D01*
X61114Y-16334D01*
D02*
G37*
G36*
X27114D02*
X23686D01*
X20376Y-17221D01*
X17408Y-18935D01*
X14985Y-21358D01*
X13271Y-24326D01*
X12384Y-27636D01*
Y-31064D01*
X13271Y-34374D01*
X14985Y-37342D01*
X17408Y-39765D01*
X20376Y-41479D01*
X23686Y-42366D01*
X27114D01*
X30424Y-41479D01*
X33392Y-39765D01*
X35815Y-37342D01*
X37529Y-34374D01*
X38416Y-31064D01*
Y-27636D01*
X37529Y-24326D01*
X35815Y-21358D01*
X33392Y-18935D01*
X30424Y-17221D01*
X27114Y-16334D01*
D02*
G37*
G36*
X-55436D02*
X-58864D01*
X-62174Y-17221D01*
X-65142Y-18935D01*
X-67565Y-21358D01*
X-69279Y-24326D01*
X-70166Y-27636D01*
Y-31064D01*
X-69279Y-34374D01*
X-67565Y-37342D01*
X-65142Y-39765D01*
X-62174Y-41479D01*
X-58864Y-42366D01*
X-55436D01*
X-52126Y-41479D01*
X-49158Y-39765D01*
X-46735Y-37342D01*
X-45021Y-34374D01*
X-44134Y-31064D01*
Y-27636D01*
X-45021Y-24326D01*
X-46735Y-21358D01*
X-49158Y-18935D01*
X-52126Y-17221D01*
X-55436Y-16334D01*
D02*
G37*
G36*
X-21437Y-16334D02*
X-24864D01*
X-28174Y-17221D01*
X-31142Y-18935D01*
X-33565Y-21358D01*
X-35279Y-24326D01*
X-36166Y-27636D01*
Y-31064D01*
X-35279Y-34374D01*
X-33565Y-37342D01*
X-31142Y-39765D01*
X-28174Y-41479D01*
X-24864Y-42366D01*
X-21437D01*
X-18126Y-41479D01*
X-15158Y-39765D01*
X-12735Y-37342D01*
X-11021Y-34374D01*
X-10134Y-31064D01*
Y-27636D01*
X-11021Y-24326D01*
X-12735Y-21358D01*
X-15158Y-18935D01*
X-18126Y-17221D01*
X-21437Y-16334D01*
D02*
G37*
G36*
X-323054Y-56960D02*
X-324646D01*
X-326116Y-57569D01*
X-327241Y-58694D01*
X-327850Y-60164D01*
Y-61756D01*
X-327241Y-63226D01*
X-326116Y-64351D01*
X-324646Y-64960D01*
X-323054D01*
X-321584Y-64351D01*
X-320459Y-63226D01*
X-319850Y-61756D01*
Y-60164D01*
X-320459Y-58694D01*
X-321584Y-57569D01*
X-323054Y-56960D01*
D02*
G37*
G36*
X326896Y-56960D02*
X325304D01*
X323834Y-57569D01*
X322709Y-58694D01*
X322100Y-60164D01*
Y-61756D01*
X322709Y-63226D01*
X323834Y-64351D01*
X325304Y-64960D01*
X326896D01*
X328366Y-64351D01*
X329491Y-63226D01*
X330100Y-61756D01*
Y-60164D01*
X329491Y-58694D01*
X328366Y-57569D01*
X326896Y-56960D01*
D02*
G37*
G36*
X276437Y-80264D02*
X274163D01*
X271967Y-80852D01*
X269997Y-81989D01*
X268389Y-83597D01*
X267253Y-85567D01*
X266664Y-87763D01*
Y-90037D01*
X267253Y-92233D01*
X268389Y-94203D01*
X269997Y-95810D01*
X271967Y-96947D01*
X274163Y-97536D01*
X276437D01*
X278633Y-96947D01*
X280603Y-95810D01*
X282211Y-94203D01*
X283347Y-92233D01*
X283936Y-90037D01*
Y-87763D01*
X283347Y-85567D01*
X282211Y-83597D01*
X280603Y-81989D01*
X278633Y-80852D01*
X276437Y-80264D01*
D02*
G37*
G36*
X-271913D02*
X-274187D01*
X-276383Y-80852D01*
X-278353Y-81989D01*
X-279960Y-83597D01*
X-281098Y-85567D01*
X-281686Y-87763D01*
Y-90037D01*
X-281098Y-92233D01*
X-279960Y-94203D01*
X-278353Y-95810D01*
X-276383Y-96947D01*
X-274187Y-97536D01*
X-271913D01*
X-269717Y-96947D01*
X-267747Y-95810D01*
X-266140Y-94203D01*
X-265002Y-92233D01*
X-264414Y-90037D01*
Y-87763D01*
X-265002Y-85567D01*
X-266140Y-83597D01*
X-267747Y-81989D01*
X-269717Y-80852D01*
X-271913Y-80264D01*
D02*
G37*
G36*
X130336Y-123000D02*
X128744D01*
X127274Y-123609D01*
X126149Y-124734D01*
X125540Y-126204D01*
Y-127796D01*
X126149Y-129266D01*
X127274Y-130391D01*
X128744Y-131000D01*
X130336D01*
X131806Y-130391D01*
X132931Y-129266D01*
X133540Y-127796D01*
Y-126204D01*
X132931Y-124734D01*
X131806Y-123609D01*
X130336Y-123000D01*
D02*
G37*
G36*
X120176D02*
X118584D01*
X117114Y-123609D01*
X115989Y-124734D01*
X115380Y-126204D01*
Y-127796D01*
X115989Y-129266D01*
X117114Y-130391D01*
X118584Y-131000D01*
X120176D01*
X121646Y-130391D01*
X122771Y-129266D01*
X123380Y-127796D01*
Y-126204D01*
X122771Y-124734D01*
X121646Y-123609D01*
X120176Y-123000D01*
D02*
G37*
G36*
X110016D02*
X108424D01*
X106954Y-123609D01*
X105829Y-124734D01*
X105220Y-126204D01*
Y-127796D01*
X105829Y-129266D01*
X106954Y-130391D01*
X108424Y-131000D01*
X110016D01*
X111486Y-130391D01*
X112611Y-129266D01*
X113220Y-127796D01*
Y-126204D01*
X112611Y-124734D01*
X111486Y-123609D01*
X110016Y-123000D01*
D02*
G37*
G36*
X-113214D02*
X-114806D01*
X-116276Y-123609D01*
X-117401Y-124734D01*
X-118010Y-126204D01*
Y-127796D01*
X-117401Y-129266D01*
X-116276Y-130391D01*
X-114806Y-131000D01*
X-113214D01*
X-111744Y-130391D01*
X-110619Y-129266D01*
X-110010Y-127796D01*
Y-126204D01*
X-110619Y-124734D01*
X-111744Y-123609D01*
X-113214Y-123000D01*
D02*
G37*
G36*
X-123374D02*
X-124966D01*
X-126436Y-123609D01*
X-127561Y-124734D01*
X-128170Y-126204D01*
Y-127796D01*
X-127561Y-129266D01*
X-126436Y-130391D01*
X-124966Y-131000D01*
X-123374D01*
X-121904Y-130391D01*
X-120779Y-129266D01*
X-120170Y-127796D01*
Y-126204D01*
X-120779Y-124734D01*
X-121904Y-123609D01*
X-123374Y-123000D01*
D02*
G37*
G36*
X-133534D02*
X-135126D01*
X-136596Y-123609D01*
X-137721Y-124734D01*
X-138330Y-126204D01*
Y-127796D01*
X-137721Y-129266D01*
X-136596Y-130391D01*
X-135126Y-131000D01*
X-133534D01*
X-132064Y-130391D01*
X-130939Y-129266D01*
X-130330Y-127796D01*
Y-126204D01*
X-130939Y-124734D01*
X-132064Y-123609D01*
X-133534Y-123000D01*
D02*
G37*
G36*
X332279Y-81534D02*
X328121D01*
X324014Y-82184D01*
X320060Y-83469D01*
X316355Y-85357D01*
X312991Y-87801D01*
X310051Y-90741D01*
X307607Y-94105D01*
X305719Y-97810D01*
X304434Y-101764D01*
X303784Y-105871D01*
Y-110029D01*
X304434Y-114136D01*
X305719Y-118090D01*
X307607Y-121795D01*
X310051Y-125159D01*
X312991Y-128099D01*
X316355Y-130543D01*
X320060Y-132431D01*
X324014Y-133716D01*
X328121Y-134366D01*
X332279D01*
X336386Y-133716D01*
X340340Y-132431D01*
X344045Y-130543D01*
X347409Y-128099D01*
X350349Y-125159D01*
X352793Y-121795D01*
X354681Y-118090D01*
X355966Y-114136D01*
X356616Y-110029D01*
Y-105871D01*
X355966Y-101764D01*
X354681Y-97810D01*
X352793Y-94105D01*
X350349Y-90741D01*
X347409Y-87801D01*
X344045Y-85357D01*
X340340Y-83469D01*
X336386Y-82184D01*
X332279Y-81534D01*
D02*
G37*
G36*
X-328121D02*
X-332279D01*
X-336386Y-82184D01*
X-340340Y-83469D01*
X-344045Y-85357D01*
X-347409Y-87801D01*
X-350349Y-90741D01*
X-352793Y-94105D01*
X-354681Y-97810D01*
X-355966Y-101764D01*
X-356616Y-105871D01*
Y-110029D01*
X-355966Y-114136D01*
X-354681Y-118090D01*
X-352793Y-121795D01*
X-350349Y-125159D01*
X-347409Y-128099D01*
X-344045Y-130543D01*
X-340340Y-132431D01*
X-336386Y-133716D01*
X-332279Y-134366D01*
X-328121D01*
X-324014Y-133716D01*
X-320060Y-132431D01*
X-316355Y-130543D01*
X-312991Y-128099D01*
X-310051Y-125159D01*
X-307607Y-121795D01*
X-305719Y-118090D01*
X-304434Y-114136D01*
X-303784Y-110029D01*
Y-105871D01*
X-304434Y-101764D01*
X-305719Y-97810D01*
X-307607Y-94105D01*
X-310051Y-90741D01*
X-312991Y-87801D01*
X-316355Y-85357D01*
X-320060Y-83469D01*
X-324014Y-82184D01*
X-328121Y-81534D01*
D02*
G37*
G36*
X331337Y-162814D02*
X330708D01*
Y-170942D01*
X338836D01*
Y-170313D01*
X338247Y-168117D01*
X337110Y-166147D01*
X335503Y-164540D01*
X333533Y-163403D01*
X331337Y-162814D01*
D02*
G37*
G36*
X-329063D02*
X-329692D01*
Y-170942D01*
X-321564D01*
Y-170313D01*
X-322152Y-168117D01*
X-323289Y-166147D01*
X-324897Y-164540D01*
X-326867Y-163403D01*
X-329063Y-162814D01*
D02*
G37*
G36*
X-330708D02*
X-331337D01*
X-333533Y-163403D01*
X-335503Y-164540D01*
X-337110Y-166147D01*
X-338247Y-168117D01*
X-338836Y-170313D01*
Y-170942D01*
X-330708D01*
Y-162814D01*
D02*
G37*
G36*
X329692D02*
X329063D01*
X326867Y-163403D01*
X324897Y-164540D01*
X323289Y-166147D01*
X322152Y-168117D01*
X321564Y-170313D01*
Y-170942D01*
X329692D01*
Y-162814D01*
D02*
G37*
G36*
X338836Y-171958D02*
X330708D01*
Y-180086D01*
X331337D01*
X333533Y-179498D01*
X335503Y-178361D01*
X337110Y-176753D01*
X338247Y-174783D01*
X338836Y-172587D01*
Y-171958D01*
D02*
G37*
G36*
X329692D02*
X321564D01*
Y-172587D01*
X322152Y-174783D01*
X323289Y-176753D01*
X324897Y-178361D01*
X326867Y-179498D01*
X329063Y-180086D01*
X329692D01*
Y-171958D01*
D02*
G37*
G36*
X-321564D02*
X-329692D01*
Y-180086D01*
X-329063D01*
X-326867Y-179498D01*
X-324897Y-178361D01*
X-323289Y-176753D01*
X-322152Y-174783D01*
X-321564Y-172587D01*
Y-171958D01*
D02*
G37*
G36*
X-330708D02*
X-338836D01*
Y-172587D01*
X-338247Y-174783D01*
X-337110Y-176753D01*
X-335503Y-178361D01*
X-333533Y-179498D01*
X-331337Y-180086D01*
X-330708D01*
Y-171958D01*
D02*
G37*
G36*
X-11205Y-230950D02*
X-12796D01*
X-14266Y-231559D01*
X-15281Y-232573D01*
X-16000Y-232633D01*
X-16720Y-232573D01*
X-17735Y-231559D01*
X-19205Y-230950D01*
X-20796D01*
X-22266Y-231559D01*
X-23391Y-232684D01*
X-24000Y-234154D01*
Y-235746D01*
X-23391Y-237216D01*
X-22266Y-238341D01*
X-22553Y-239597D01*
X-22913Y-240034D01*
X-24484Y-240034D01*
X-24786Y-240034D01*
X-27492D01*
Y-251050D01*
Y-262066D01*
X-24786D01*
X-24484Y-262066D01*
X-23516D01*
X-23214Y-262066D01*
X-16786D01*
X-16484Y-262066D01*
X-15516D01*
X-15214Y-262066D01*
X-8786D01*
X-8484Y-262066D01*
X-7516D01*
X-7214Y-262066D01*
X-4508D01*
Y-251050D01*
Y-240034D01*
X-7214D01*
X-7516Y-240034D01*
X-8484D01*
X-8786Y-240034D01*
X-9088D01*
X-9448Y-239597D01*
X-9735Y-238341D01*
X-8609Y-237216D01*
X-8001Y-235746D01*
Y-234154D01*
X-8609Y-232684D01*
X-9735Y-231559D01*
X-11205Y-230950D01*
D02*
G37*
G36*
X148795D02*
X147204D01*
X145734Y-231559D01*
X144719Y-232573D01*
X144000Y-232633D01*
X143280Y-232573D01*
X142265Y-231559D01*
X140795Y-230950D01*
X139204D01*
X137734Y-231559D01*
X136719Y-232573D01*
X135999Y-232633D01*
X135280Y-232573D01*
X134265Y-231559D01*
X132795Y-230950D01*
X131204D01*
X129734Y-231559D01*
X128609Y-232684D01*
X127999Y-234154D01*
Y-235746D01*
X128609Y-237216D01*
X129734Y-238341D01*
X129447Y-239597D01*
X129087Y-240034D01*
X127516Y-240034D01*
X127214Y-240034D01*
X124508D01*
Y-251050D01*
Y-262066D01*
X127214D01*
X127516Y-262066D01*
X128484D01*
X128786Y-262066D01*
X135214D01*
X135516Y-262066D01*
X136484D01*
X136786Y-262066D01*
X143214D01*
X143516Y-262066D01*
X144484D01*
X144786Y-262066D01*
X151214D01*
X151516Y-262066D01*
X152484D01*
X152786Y-262066D01*
X155492D01*
Y-251050D01*
Y-240034D01*
X152786D01*
X152484Y-240034D01*
X151516D01*
X151214Y-240034D01*
X150912D01*
X150553Y-239597D01*
X150265Y-238341D01*
X151391Y-237216D01*
X152000Y-235746D01*
Y-234154D01*
X151391Y-232684D01*
X150265Y-231559D01*
X148795Y-230950D01*
D02*
G37*
G36*
X-131205Y-230950D02*
X-132796D01*
X-134266Y-231559D01*
X-135281Y-232573D01*
X-136000Y-232633D01*
X-136720Y-232573D01*
X-137734Y-231559D01*
X-139205Y-230950D01*
X-140796D01*
X-142266Y-231559D01*
X-143280Y-232573D01*
X-144000Y-232633D01*
X-144720Y-232573D01*
X-145734Y-231559D01*
X-147205Y-230950D01*
X-148796D01*
X-150266Y-231559D01*
X-151391Y-232684D01*
X-152000Y-234154D01*
Y-235746D01*
X-151391Y-237216D01*
X-150266Y-238341D01*
X-150553Y-239597D01*
X-150913Y-240034D01*
X-152484Y-240034D01*
X-152786Y-240034D01*
X-155492D01*
Y-251050D01*
Y-262066D01*
X-152786D01*
X-152484Y-262066D01*
X-151516D01*
X-151214Y-262066D01*
X-144786D01*
X-144484Y-262066D01*
X-143516D01*
X-143214Y-262066D01*
X-136786D01*
X-136484Y-262066D01*
X-135516D01*
X-135214Y-262066D01*
X-128786D01*
X-128484Y-262066D01*
X-127516D01*
X-127214Y-262066D01*
X-124508D01*
Y-251050D01*
Y-240034D01*
X-127214D01*
X-127516Y-240034D01*
X-128484D01*
X-128786Y-240034D01*
X-129088D01*
X-129447Y-239597D01*
X-129734Y-238341D01*
X-128609Y-237216D01*
X-128000Y-235746D01*
Y-234154D01*
X-128609Y-232684D01*
X-129734Y-231559D01*
X-131205Y-230950D01*
D02*
G37*
G36*
X120484Y-240034D02*
X119516D01*
X119214Y-240034D01*
X112786D01*
X112484Y-240034D01*
X111516D01*
X111214Y-240034D01*
X108508D01*
Y-251050D01*
Y-262066D01*
X111214D01*
X111516Y-262066D01*
X112484D01*
X112786Y-262066D01*
X119214D01*
X119516Y-262066D01*
X120484D01*
X120786Y-262066D01*
X123492D01*
Y-251050D01*
Y-240034D01*
X120786D01*
X120484Y-240034D01*
D02*
G37*
G36*
X104484D02*
X103516D01*
X103214Y-240034D01*
X96786D01*
X96484Y-240034D01*
X95516D01*
X95214Y-240034D01*
X92508D01*
Y-251050D01*
Y-262066D01*
X95214D01*
X95516Y-262066D01*
X96484D01*
X96786Y-262066D01*
X103214D01*
X103516Y-262066D01*
X104484D01*
X104786Y-262066D01*
X107492D01*
Y-251050D01*
Y-240034D01*
X104786D01*
X104484Y-240034D01*
D02*
G37*
G36*
X88484D02*
X87516D01*
X87214Y-240034D01*
X80786D01*
X80484Y-240034D01*
X79516D01*
X79214Y-240034D01*
X72786D01*
X72484Y-240034D01*
X71516D01*
X71214Y-240034D01*
X68508D01*
Y-251050D01*
Y-262066D01*
X71214D01*
X71516Y-262066D01*
X72484D01*
X72786Y-262066D01*
X79214D01*
X79516Y-262066D01*
X80484D01*
X80786Y-262066D01*
X87214D01*
X87516Y-262066D01*
X88484D01*
X88786Y-262066D01*
X91492D01*
Y-251050D01*
Y-240034D01*
X88786D01*
X88484Y-240034D01*
D02*
G37*
G36*
X64484D02*
X63516D01*
X63214Y-240034D01*
X56786D01*
X56484Y-240034D01*
X55516D01*
X55214Y-240034D01*
X48786D01*
X48484Y-240034D01*
X47516D01*
X47214Y-240034D01*
X44508D01*
Y-251050D01*
Y-262066D01*
X47214D01*
X47516Y-262066D01*
X48484D01*
X48786Y-262066D01*
X55214D01*
X55516Y-262066D01*
X56484D01*
X56786Y-262066D01*
X63214D01*
X63516Y-262066D01*
X64484D01*
X64786Y-262066D01*
X67492D01*
Y-251050D01*
Y-240034D01*
X64786D01*
X64484Y-240034D01*
D02*
G37*
G36*
X40484D02*
X39516D01*
X39214Y-240034D01*
X32786D01*
X32484Y-240034D01*
X31516D01*
X31214Y-240034D01*
X24786D01*
X24484Y-240034D01*
X23516D01*
X23214Y-240034D01*
X20508D01*
Y-251050D01*
Y-262066D01*
X23214D01*
X23516Y-262066D01*
X24484D01*
X24786Y-262066D01*
X31214D01*
X31516Y-262066D01*
X32484D01*
X32786Y-262066D01*
X39214D01*
X39516Y-262066D01*
X40484D01*
X40786Y-262066D01*
X43492D01*
Y-251050D01*
Y-240034D01*
X40786D01*
X40484Y-240034D01*
D02*
G37*
G36*
X16484D02*
X15516D01*
X15214Y-240034D01*
X8786D01*
X8484Y-240034D01*
X7516D01*
X7214Y-240034D01*
X786D01*
X484Y-240034D01*
X-484D01*
X-786Y-240034D01*
X-3492D01*
Y-251050D01*
Y-262066D01*
X-786D01*
X-484Y-262066D01*
X484D01*
X786Y-262066D01*
X7214D01*
X7516Y-262066D01*
X8484D01*
X8786Y-262066D01*
X15214D01*
X15516Y-262066D01*
X16484D01*
X16786Y-262066D01*
X19492D01*
Y-251050D01*
Y-240034D01*
X16786D01*
X16484Y-240034D01*
D02*
G37*
G36*
X-31516D02*
X-32484D01*
X-32786Y-240034D01*
X-39214D01*
X-39516Y-240034D01*
X-40484D01*
X-40786Y-240034D01*
X-47214D01*
X-47516Y-240034D01*
X-48484D01*
X-48786Y-240034D01*
X-51492D01*
Y-251050D01*
Y-262066D01*
X-48786D01*
X-48484Y-262066D01*
X-47516D01*
X-47214Y-262066D01*
X-40786D01*
X-40484Y-262066D01*
X-39516D01*
X-39214Y-262066D01*
X-32786D01*
X-32484Y-262066D01*
X-31516D01*
X-31214Y-262066D01*
X-28508D01*
Y-251050D01*
Y-240034D01*
X-31214D01*
X-31516Y-240034D01*
D02*
G37*
G36*
X-55516D02*
X-56484D01*
X-56786Y-240034D01*
X-63214D01*
X-63516Y-240034D01*
X-64484D01*
X-64786Y-240034D01*
X-71214D01*
X-71516Y-240034D01*
X-72484D01*
X-72786Y-240034D01*
X-75492D01*
Y-251050D01*
Y-262066D01*
X-72786D01*
X-72484Y-262066D01*
X-71516D01*
X-71214Y-262066D01*
X-64786D01*
X-64484Y-262066D01*
X-63516D01*
X-63214Y-262066D01*
X-56786D01*
X-56484Y-262066D01*
X-55516D01*
X-55214Y-262066D01*
X-52508D01*
Y-251050D01*
Y-240034D01*
X-55214D01*
X-55516Y-240034D01*
D02*
G37*
G36*
X-79516D02*
X-80484D01*
X-80786Y-240034D01*
X-87214D01*
X-87516Y-240034D01*
X-88484D01*
X-88786Y-240034D01*
X-95214D01*
X-95516Y-240034D01*
X-96484D01*
X-96786Y-240034D01*
X-99492D01*
Y-251050D01*
Y-262066D01*
X-96786D01*
X-96484Y-262066D01*
X-95516D01*
X-95214Y-262066D01*
X-88786D01*
X-88484Y-262066D01*
X-87516D01*
X-87214Y-262066D01*
X-80786D01*
X-80484Y-262066D01*
X-79516D01*
X-79214Y-262066D01*
X-76508D01*
Y-251050D01*
Y-240034D01*
X-79214D01*
X-79516Y-240034D01*
D02*
G37*
G36*
X-103516D02*
X-104484D01*
X-104786Y-240034D01*
X-111214D01*
X-111516Y-240034D01*
X-112484D01*
X-112786Y-240034D01*
X-119214D01*
X-119516Y-240034D01*
X-120484D01*
X-120786Y-240034D01*
X-123492D01*
Y-251050D01*
Y-262066D01*
X-120786D01*
X-120484Y-262066D01*
X-119516D01*
X-119214Y-262066D01*
X-112786D01*
X-112484Y-262066D01*
X-111516D01*
X-111214Y-262066D01*
X-104786D01*
X-104484Y-262066D01*
X-103516D01*
X-103214Y-262066D01*
X-100508D01*
Y-251050D01*
Y-240034D01*
X-103214D01*
X-103516Y-240034D01*
D02*
G37*
G36*
X156508Y-240034D02*
Y-250542D01*
X159516D01*
Y-240034D01*
X156508D01*
D02*
G37*
G36*
X-156508D02*
X-159516D01*
Y-250542D01*
X-156508D01*
Y-240034D01*
D02*
G37*
G36*
X331337Y-251714D02*
X330708D01*
Y-259842D01*
X338836D01*
Y-259213D01*
X338247Y-257017D01*
X337110Y-255047D01*
X335503Y-253440D01*
X333533Y-252302D01*
X331337Y-251714D01*
D02*
G37*
G36*
X-329063D02*
X-329692D01*
Y-259842D01*
X-321564D01*
Y-259213D01*
X-322152Y-257017D01*
X-323289Y-255047D01*
X-324897Y-253440D01*
X-326867Y-252302D01*
X-329063Y-251714D01*
D02*
G37*
G36*
X-330708D02*
X-331337D01*
X-333533Y-252302D01*
X-335503Y-253440D01*
X-337110Y-255047D01*
X-338247Y-257017D01*
X-338836Y-259213D01*
Y-259842D01*
X-330708D01*
Y-251714D01*
D02*
G37*
G36*
X329692D02*
X329063D01*
X326867Y-252302D01*
X324897Y-253440D01*
X323289Y-255047D01*
X322152Y-257017D01*
X321564Y-259213D01*
Y-259842D01*
X329692D01*
Y-251714D01*
D02*
G37*
G36*
X159516Y-251558D02*
X156508D01*
Y-262066D01*
X159516D01*
Y-251558D01*
D02*
G37*
G36*
X-156508D02*
X-159516D01*
Y-262066D01*
X-156508D01*
Y-251558D01*
D02*
G37*
G36*
X338836Y-260858D02*
X330708D01*
Y-268986D01*
X331337D01*
X333533Y-268398D01*
X335503Y-267260D01*
X337110Y-265653D01*
X338247Y-263683D01*
X338836Y-261487D01*
Y-260858D01*
D02*
G37*
G36*
X329692D02*
X321564D01*
Y-261487D01*
X322152Y-263683D01*
X323289Y-265653D01*
X324897Y-267260D01*
X326867Y-268398D01*
X329063Y-268986D01*
X329692D01*
Y-260858D01*
D02*
G37*
G36*
X-321564D02*
X-329692D01*
Y-268986D01*
X-329063D01*
X-326867Y-268398D01*
X-324897Y-267260D01*
X-323289Y-265653D01*
X-322152Y-263683D01*
X-321564Y-261487D01*
Y-260858D01*
D02*
G37*
G36*
X-330708D02*
X-338836D01*
Y-261487D01*
X-338247Y-263683D01*
X-337110Y-265653D01*
X-335503Y-267260D01*
X-333533Y-268398D01*
X-331337Y-268986D01*
X-330708D01*
Y-260858D01*
D02*
G37*
G36*
X-16484Y-284034D02*
Y-284034D01*
X-23214D01*
X-23516Y-284034D01*
X-24484D01*
X-24786Y-284034D01*
X-27492D01*
Y-295050D01*
Y-306066D01*
X-24786D01*
X-24484Y-306066D01*
X-23516D01*
X-22913Y-306066D01*
X-22553Y-306504D01*
X-22265Y-307759D01*
X-23391Y-308884D01*
X-24000Y-310354D01*
Y-311946D01*
X-23391Y-313416D01*
X-22265Y-314541D01*
X-20795Y-315150D01*
X-19204D01*
X-17734Y-314541D01*
X-16719Y-313527D01*
X-15999Y-313467D01*
X-15280Y-313527D01*
X-14265Y-314541D01*
X-12795Y-315150D01*
X-11204D01*
X-9734Y-314541D01*
X-8608Y-313416D01*
X-8000Y-311946D01*
Y-310354D01*
X-8608Y-308884D01*
X-9734Y-307759D01*
X-9552Y-306460D01*
X-9198Y-306066D01*
X-8484Y-306066D01*
X-7516D01*
X-7214Y-306066D01*
X-4508D01*
Y-295050D01*
Y-284034D01*
X-7214D01*
X-7516Y-284034D01*
X-8484D01*
X-8786Y-284034D01*
X-15516D01*
Y-284034D01*
X-16484D01*
D02*
G37*
G36*
X31516D02*
Y-284034D01*
X24786D01*
X24484Y-284034D01*
X23516D01*
X23214Y-284034D01*
X20508D01*
Y-295050D01*
Y-306066D01*
X23214D01*
X23516Y-306066D01*
X24484D01*
X24786Y-306066D01*
X25087D01*
X25447Y-306504D01*
X25735Y-307759D01*
X24609Y-308884D01*
X24000Y-310354D01*
Y-311946D01*
X24609Y-313416D01*
X25735Y-314541D01*
X27205Y-315150D01*
X28796D01*
X30266Y-314541D01*
X31281Y-313527D01*
X32001Y-313467D01*
X32720Y-313527D01*
X33735Y-314541D01*
X35205Y-315150D01*
X36796D01*
X38266Y-314541D01*
X39392Y-313416D01*
X40001Y-311946D01*
Y-310354D01*
X39392Y-308884D01*
X38266Y-307759D01*
X38448Y-306460D01*
X38802Y-306066D01*
X39516Y-306066D01*
X40484D01*
X40786Y-306066D01*
X43492D01*
Y-295050D01*
Y-284034D01*
X40786D01*
X40484Y-284034D01*
X39516D01*
X39214Y-284034D01*
X32484D01*
Y-284034D01*
X31516D01*
D02*
G37*
G36*
X152484Y-284034D02*
X151516D01*
X151214Y-284034D01*
X144786D01*
X144484Y-284034D01*
X143516D01*
X143214Y-284034D01*
X136786D01*
X136484Y-284034D01*
X135516D01*
X135214Y-284034D01*
X128786D01*
X128484Y-284034D01*
X127516D01*
X127214Y-284034D01*
X124508D01*
Y-295050D01*
Y-306066D01*
X127214D01*
X127516Y-306066D01*
X128484D01*
X129087Y-306066D01*
X129447Y-306504D01*
X129735Y-307759D01*
X128609Y-308884D01*
X128000Y-310354D01*
Y-311946D01*
X128609Y-313416D01*
X129735Y-314541D01*
X131205Y-315150D01*
X132796D01*
X134266Y-314541D01*
X135281Y-313527D01*
X136000Y-313467D01*
X136720Y-313527D01*
X137735Y-314541D01*
X139205Y-315150D01*
X140796D01*
X142266Y-314541D01*
X143281Y-313527D01*
X144001Y-313467D01*
X144720Y-313527D01*
X145735Y-314541D01*
X147205Y-315150D01*
X148796D01*
X150266Y-314541D01*
X151391Y-313416D01*
X152001Y-311946D01*
Y-310354D01*
X151391Y-308884D01*
X150266Y-307759D01*
X150448Y-306460D01*
X150802Y-306066D01*
X151516Y-306066D01*
X152484D01*
X152786Y-306066D01*
X155492D01*
Y-295050D01*
Y-284034D01*
X152786D01*
X152484Y-284034D01*
D02*
G37*
G36*
X120484D02*
X119516D01*
X119214Y-284034D01*
X112786D01*
X112484Y-284034D01*
X111516D01*
X111214Y-284034D01*
X108508D01*
Y-295050D01*
Y-306066D01*
X111214D01*
X111516Y-306066D01*
X112484D01*
X112786Y-306066D01*
X119214D01*
X119516Y-306066D01*
X120484D01*
X120786Y-306066D01*
X123492D01*
Y-295050D01*
Y-284034D01*
X120786D01*
X120484Y-284034D01*
D02*
G37*
G36*
X104484D02*
X103516D01*
X103214Y-284034D01*
X96786D01*
X96484Y-284034D01*
X95516D01*
X95214Y-284034D01*
X92508D01*
Y-295050D01*
Y-306066D01*
X95214D01*
X95516Y-306066D01*
X96484D01*
X96786Y-306066D01*
X103214D01*
X103516Y-306066D01*
X104484D01*
X104786Y-306066D01*
X107492D01*
Y-295050D01*
Y-284034D01*
X104786D01*
X104484Y-284034D01*
D02*
G37*
G36*
X88484D02*
X87516D01*
X87214Y-284034D01*
X80786D01*
X80484Y-284034D01*
X79516D01*
X79214Y-284034D01*
X72786D01*
X72484Y-284034D01*
X71516D01*
X71214Y-284034D01*
X68508D01*
Y-295050D01*
Y-306066D01*
X71214D01*
X71516Y-306066D01*
X72484D01*
X72786Y-306066D01*
X79214D01*
X79516Y-306066D01*
X80484D01*
X80786Y-306066D01*
X87214D01*
X87516Y-306066D01*
X88484D01*
X88786Y-306066D01*
X91492D01*
Y-295050D01*
Y-284034D01*
X88786D01*
X88484Y-284034D01*
D02*
G37*
G36*
X64484D02*
X63516D01*
X63214Y-284034D01*
X56786D01*
X56484Y-284034D01*
X55516D01*
X55214Y-284034D01*
X48786D01*
X48484Y-284034D01*
X47516D01*
X47214Y-284034D01*
X44508D01*
Y-295050D01*
Y-306066D01*
X47214D01*
X47516Y-306066D01*
X48484D01*
X48786Y-306066D01*
X55214D01*
X55516Y-306066D01*
X56484D01*
X56786Y-306066D01*
X63214D01*
X63516Y-306066D01*
X64484D01*
X64786Y-306066D01*
X67492D01*
Y-295050D01*
Y-284034D01*
X64786D01*
X64484Y-284034D01*
D02*
G37*
G36*
X16484D02*
X15516D01*
X15214Y-284034D01*
X8786D01*
X8484Y-284034D01*
X7516D01*
X7214Y-284034D01*
X786D01*
X484Y-284034D01*
X-484D01*
X-786Y-284034D01*
X-3492D01*
Y-295050D01*
Y-306066D01*
X-786D01*
X-484Y-306066D01*
X484D01*
X786Y-306066D01*
X1087D01*
X1447Y-306504D01*
X1735Y-307759D01*
X609Y-308884D01*
X0Y-310354D01*
Y-311946D01*
X609Y-313416D01*
X1735Y-314541D01*
X3205Y-315150D01*
X4796D01*
X6266Y-314541D01*
X7281Y-313527D01*
X8001Y-313467D01*
X8720Y-313527D01*
X9735Y-314541D01*
X11205Y-315150D01*
X12796D01*
X14266Y-314541D01*
X15391Y-313416D01*
X16000Y-311946D01*
Y-310354D01*
X15391Y-308884D01*
X14266Y-307759D01*
X14448Y-306460D01*
X14802Y-306066D01*
X15516Y-306066D01*
X16484D01*
X16786Y-306066D01*
X19492D01*
Y-295050D01*
Y-284034D01*
X16786D01*
X16484Y-284034D01*
D02*
G37*
G36*
X-31516D02*
X-32484D01*
X-32786Y-284034D01*
X-39214D01*
X-39516Y-284034D01*
X-40484D01*
X-40786Y-284034D01*
X-47214D01*
X-47516Y-284034D01*
X-48484D01*
X-48786Y-284034D01*
X-51492D01*
Y-295050D01*
Y-306066D01*
X-48786D01*
X-48484Y-306066D01*
X-47516D01*
X-47214Y-306066D01*
X-40786D01*
X-40484Y-306066D01*
X-39516D01*
X-39214Y-306066D01*
X-32786D01*
X-32484Y-306066D01*
X-31516D01*
X-31214Y-306066D01*
X-28508D01*
Y-295050D01*
Y-284034D01*
X-31214D01*
X-31516Y-284034D01*
D02*
G37*
G36*
X-55516D02*
X-56484D01*
X-56786Y-284034D01*
X-63214D01*
X-63516Y-284034D01*
X-64484D01*
X-64786Y-284034D01*
X-71214D01*
X-71516Y-284034D01*
X-72484D01*
X-72786Y-284034D01*
X-75492D01*
Y-295050D01*
Y-306066D01*
X-72786D01*
X-72484Y-306066D01*
X-71516D01*
X-71214Y-306066D01*
X-64786D01*
X-64484Y-306066D01*
X-63516D01*
X-63214Y-306066D01*
X-56786D01*
X-56484Y-306066D01*
X-55516D01*
X-55214Y-306066D01*
X-52508D01*
Y-295050D01*
Y-284034D01*
X-55214D01*
X-55516Y-284034D01*
D02*
G37*
G36*
X-79516D02*
X-80484D01*
X-80786Y-284034D01*
X-87214D01*
X-87516Y-284034D01*
X-88484D01*
X-88786Y-284034D01*
X-95214D01*
X-95516Y-284034D01*
X-96484D01*
X-96786Y-284034D01*
X-99492D01*
Y-295050D01*
Y-306066D01*
X-96786D01*
X-96484Y-306066D01*
X-95516D01*
X-95214Y-306066D01*
X-88786D01*
X-88484Y-306066D01*
X-87516D01*
X-87214Y-306066D01*
X-80786D01*
X-80484Y-306066D01*
X-79516D01*
X-79214Y-306066D01*
X-76508D01*
Y-295050D01*
Y-284034D01*
X-79214D01*
X-79516Y-284034D01*
D02*
G37*
G36*
X-103516D02*
X-104484D01*
X-104786Y-284034D01*
X-111214D01*
X-111516Y-284034D01*
X-112484D01*
X-112786Y-284034D01*
X-119214D01*
X-119516Y-284034D01*
X-120484D01*
X-120786Y-284034D01*
X-123492D01*
Y-295050D01*
Y-306066D01*
X-120786D01*
X-120484Y-306066D01*
X-119516D01*
X-119214Y-306066D01*
X-112786D01*
X-112484Y-306066D01*
X-111516D01*
X-111214Y-306066D01*
X-104786D01*
X-104484Y-306066D01*
X-103516D01*
X-103214Y-306066D01*
X-100508D01*
Y-295050D01*
Y-284034D01*
X-103214D01*
X-103516Y-284034D01*
D02*
G37*
G36*
X-127516D02*
X-128484D01*
X-128786Y-284034D01*
X-135214D01*
X-135516Y-284034D01*
X-136484D01*
X-136786Y-284034D01*
X-143214D01*
X-143516Y-284034D01*
X-144484D01*
X-144786Y-284034D01*
X-151214D01*
X-151516Y-284034D01*
X-152484D01*
X-152786Y-284034D01*
X-155492D01*
Y-295050D01*
Y-306066D01*
X-152786D01*
X-152484Y-306066D01*
X-151516D01*
X-151214Y-306066D01*
X-150913D01*
X-150553Y-306504D01*
X-150265Y-307759D01*
X-151391Y-308884D01*
X-152000Y-310354D01*
Y-311946D01*
X-151391Y-313416D01*
X-150265Y-314541D01*
X-148795Y-315150D01*
X-147204D01*
X-145734Y-314541D01*
X-144719Y-313527D01*
X-144000Y-313467D01*
X-143280Y-313527D01*
X-142265Y-314541D01*
X-140795Y-315150D01*
X-139204D01*
X-137734Y-314541D01*
X-136719Y-313527D01*
X-135999Y-313467D01*
X-135280Y-313527D01*
X-134265Y-314541D01*
X-132795Y-315150D01*
X-131204D01*
X-129734Y-314541D01*
X-128609Y-313416D01*
X-127999Y-311946D01*
Y-310354D01*
X-128609Y-308884D01*
X-129734Y-307759D01*
X-129552Y-306460D01*
X-129198Y-306066D01*
X-128484Y-306066D01*
X-127516D01*
X-127214Y-306066D01*
X-124508D01*
Y-295050D01*
Y-284034D01*
X-127214D01*
X-127516Y-284034D01*
D02*
G37*
G36*
X156508Y-284034D02*
Y-294542D01*
X159516D01*
Y-284034D01*
X156508D01*
D02*
G37*
G36*
X-156508D02*
X-159516D01*
Y-294542D01*
X-156508D01*
Y-284034D01*
D02*
G37*
G36*
X159516Y-295558D02*
X156508D01*
Y-306066D01*
X159516D01*
Y-295558D01*
D02*
G37*
G36*
X-156508D02*
X-159516D01*
Y-306066D01*
X-156508D01*
Y-295558D01*
D02*
G37*
G36*
X332279Y-297434D02*
X328121D01*
X324014Y-298084D01*
X320060Y-299369D01*
X316355Y-301257D01*
X312991Y-303701D01*
X310051Y-306641D01*
X307607Y-310005D01*
X305719Y-313710D01*
X304434Y-317664D01*
X303784Y-321771D01*
Y-325929D01*
X304434Y-330036D01*
X305719Y-333990D01*
X307607Y-337695D01*
X310051Y-341059D01*
X312991Y-343999D01*
X316355Y-346443D01*
X320060Y-348331D01*
X324014Y-349616D01*
X328121Y-350266D01*
X332279D01*
X336386Y-349616D01*
X340340Y-348331D01*
X344045Y-346443D01*
X347409Y-343999D01*
X350349Y-341059D01*
X352793Y-337695D01*
X354681Y-333990D01*
X355966Y-330036D01*
X356616Y-325929D01*
Y-321771D01*
X355966Y-317664D01*
X354681Y-313710D01*
X352793Y-310005D01*
X350349Y-306641D01*
X347409Y-303701D01*
X344045Y-301257D01*
X340340Y-299369D01*
X336386Y-298084D01*
X332279Y-297434D01*
D02*
G37*
G36*
X-328121D02*
X-332279D01*
X-336386Y-298084D01*
X-340340Y-299369D01*
X-344045Y-301257D01*
X-347409Y-303701D01*
X-350349Y-306641D01*
X-352793Y-310005D01*
X-354681Y-313710D01*
X-355966Y-317664D01*
X-356616Y-321771D01*
Y-325929D01*
X-355966Y-330036D01*
X-354681Y-333990D01*
X-352793Y-337695D01*
X-350349Y-341059D01*
X-347409Y-343999D01*
X-344045Y-346443D01*
X-340340Y-348331D01*
X-336386Y-349616D01*
X-332279Y-350266D01*
X-328121D01*
X-324014Y-349616D01*
X-320060Y-348331D01*
X-316355Y-346443D01*
X-312991Y-343999D01*
X-310051Y-341059D01*
X-307607Y-337695D01*
X-305719Y-333990D01*
X-304434Y-330036D01*
X-303784Y-325929D01*
Y-321771D01*
X-304434Y-317664D01*
X-305719Y-313710D01*
X-307607Y-310005D01*
X-310051Y-306641D01*
X-312991Y-303701D01*
X-316355Y-301257D01*
X-320060Y-299369D01*
X-324014Y-298084D01*
X-328121Y-297434D01*
D02*
G37*
%LPD*%
G36*
X-10597Y-236752D02*
X-10759Y-236939D01*
X-10901Y-237128D01*
X-11024Y-237318D01*
X-11128Y-237508D01*
X-11214Y-237700D01*
X-11280Y-237893D01*
X-11328Y-238087D01*
X-11356Y-238282D01*
X-11365Y-238478D01*
X-12636D01*
X-12645Y-238282D01*
X-12673Y-238087D01*
X-12721Y-237893D01*
X-12787Y-237700D01*
X-12873Y-237508D01*
X-12977Y-237318D01*
X-13100Y-237128D01*
X-13242Y-236939D01*
X-13404Y-236752D01*
X-13584Y-236565D01*
X-10417D01*
X-10597Y-236752D01*
D02*
G37*
G36*
X-18597D02*
X-18758Y-236939D01*
X-18901Y-237128D01*
X-19024Y-237318D01*
X-19128Y-237508D01*
X-19214Y-237700D01*
X-19280Y-237893D01*
X-19327Y-238087D01*
X-19356Y-238282D01*
X-19366Y-238478D01*
X-20635D01*
X-20645Y-238282D01*
X-20673Y-238087D01*
X-20721Y-237893D01*
X-20787Y-237700D01*
X-20873Y-237508D01*
X-20977Y-237318D01*
X-21100Y-237128D01*
X-21242Y-236939D01*
X-21404Y-236752D01*
X-21584Y-236565D01*
X-18417D01*
X-18597Y-236752D01*
D02*
G37*
G36*
X-11359Y-240058D02*
X-11340Y-240279D01*
X-11308Y-240474D01*
X-11264Y-240643D01*
X-11207Y-240786D01*
X-11137Y-240903D01*
X-11054Y-240994D01*
X-10959Y-241059D01*
X-10851Y-241098D01*
X-10731Y-241111D01*
X-13270D01*
X-13150Y-241098D01*
X-13042Y-241059D01*
X-12947Y-240994D01*
X-12864Y-240903D01*
X-12794Y-240786D01*
X-12737Y-240643D01*
X-12693Y-240474D01*
X-12661Y-240279D01*
X-12642Y-240058D01*
X-12636Y-239811D01*
X-11365D01*
X-11359Y-240058D01*
D02*
G37*
G36*
X-19359D02*
X-19340Y-240279D01*
X-19308Y-240474D01*
X-19264Y-240643D01*
X-19207Y-240786D01*
X-19137Y-240903D01*
X-19054Y-240994D01*
X-18959Y-241059D01*
X-18851Y-241098D01*
X-18730Y-241111D01*
X-21270D01*
X-21150Y-241098D01*
X-21042Y-241059D01*
X-20947Y-240994D01*
X-20864Y-240903D01*
X-20794Y-240786D01*
X-20737Y-240643D01*
X-20693Y-240474D01*
X-20661Y-240279D01*
X-20642Y-240058D01*
X-20635Y-239811D01*
X-19366D01*
X-19359Y-240058D01*
D02*
G37*
G36*
X149403Y-236752D02*
X149242Y-236939D01*
X149099Y-237128D01*
X148976Y-237318D01*
X148872Y-237508D01*
X148786Y-237700D01*
X148720Y-237893D01*
X148673Y-238087D01*
X148644Y-238282D01*
X148635Y-238478D01*
X147365D01*
X147355Y-238282D01*
X147327Y-238087D01*
X147279Y-237893D01*
X147213Y-237700D01*
X147127Y-237508D01*
X147023Y-237318D01*
X146900Y-237128D01*
X146757Y-236939D01*
X146596Y-236752D01*
X146416Y-236565D01*
X149583D01*
X149403Y-236752D01*
D02*
G37*
G36*
X141403D02*
X141242Y-236939D01*
X141099Y-237128D01*
X140976Y-237318D01*
X140872Y-237508D01*
X140786Y-237700D01*
X140720Y-237893D01*
X140673Y-238087D01*
X140644Y-238282D01*
X140634Y-238478D01*
X139365D01*
X139355Y-238282D01*
X139327Y-238087D01*
X139279Y-237893D01*
X139213Y-237700D01*
X139127Y-237508D01*
X139023Y-237318D01*
X138900Y-237128D01*
X138757Y-236939D01*
X138596Y-236752D01*
X138416Y-236565D01*
X141583D01*
X141403Y-236752D01*
D02*
G37*
G36*
X133403D02*
X133242Y-236939D01*
X133099Y-237128D01*
X132976Y-237318D01*
X132872Y-237508D01*
X132786Y-237700D01*
X132720Y-237893D01*
X132673Y-238087D01*
X132644Y-238282D01*
X132634Y-238478D01*
X131364D01*
X131355Y-238282D01*
X131327Y-238087D01*
X131279Y-237893D01*
X131213Y-237700D01*
X131127Y-237508D01*
X131023Y-237318D01*
X130900Y-237128D01*
X130758Y-236939D01*
X130596Y-236752D01*
X130416Y-236565D01*
X133583D01*
X133403Y-236752D01*
D02*
G37*
G36*
X148641Y-240058D02*
X148660Y-240279D01*
X148692Y-240474D01*
X148736Y-240643D01*
X148793Y-240786D01*
X148863Y-240903D01*
X148946Y-240994D01*
X149041Y-241059D01*
X149149Y-241098D01*
X149270Y-241111D01*
X146729D01*
X146850Y-241098D01*
X146958Y-241059D01*
X147053Y-240994D01*
X147136Y-240903D01*
X147206Y-240786D01*
X147263Y-240643D01*
X147307Y-240474D01*
X147339Y-240279D01*
X147358Y-240058D01*
X147365Y-239811D01*
X148635D01*
X148641Y-240058D01*
D02*
G37*
G36*
X140641D02*
X140660Y-240279D01*
X140692Y-240474D01*
X140736Y-240643D01*
X140793Y-240786D01*
X140863Y-240903D01*
X140946Y-240994D01*
X141041Y-241059D01*
X141149Y-241098D01*
X141270Y-241111D01*
X138729D01*
X138850Y-241098D01*
X138958Y-241059D01*
X139053Y-240994D01*
X139136Y-240903D01*
X139206Y-240786D01*
X139263Y-240643D01*
X139307Y-240474D01*
X139339Y-240279D01*
X139358Y-240058D01*
X139365Y-239811D01*
X140634D01*
X140641Y-240058D01*
D02*
G37*
G36*
X132641D02*
X132660Y-240279D01*
X132692Y-240474D01*
X132736Y-240643D01*
X132793Y-240786D01*
X132863Y-240903D01*
X132946Y-240994D01*
X133041Y-241059D01*
X133149Y-241098D01*
X133270Y-241111D01*
X130730D01*
X130850Y-241098D01*
X130958Y-241059D01*
X131053Y-240994D01*
X131136Y-240903D01*
X131206Y-240786D01*
X131263Y-240643D01*
X131307Y-240474D01*
X131339Y-240279D01*
X131358Y-240058D01*
X131364Y-239811D01*
X132634D01*
X132641Y-240058D01*
D02*
G37*
G36*
X-130597Y-236752D02*
X-130758Y-236939D01*
X-130900Y-237128D01*
X-131024Y-237318D01*
X-131128Y-237509D01*
X-131214Y-237700D01*
X-131280Y-237893D01*
X-131327Y-238087D01*
X-131356Y-238282D01*
X-131365Y-238478D01*
X-132635D01*
X-132645Y-238282D01*
X-132673Y-238087D01*
X-132721Y-237893D01*
X-132787Y-237700D01*
X-132872Y-237509D01*
X-132977Y-237318D01*
X-133100Y-237128D01*
X-133242Y-236939D01*
X-133403Y-236752D01*
X-133584Y-236565D01*
X-130417D01*
X-130597Y-236752D01*
D02*
G37*
G36*
X-138597D02*
X-138758Y-236939D01*
X-138900Y-237128D01*
X-139024Y-237318D01*
X-139128Y-237509D01*
X-139213Y-237700D01*
X-139280Y-237893D01*
X-139327Y-238087D01*
X-139356Y-238282D01*
X-139365Y-238478D01*
X-140635D01*
X-140645Y-238282D01*
X-140673Y-238087D01*
X-140721Y-237893D01*
X-140787Y-237700D01*
X-140872Y-237509D01*
X-140977Y-237318D01*
X-141100Y-237128D01*
X-141242Y-236939D01*
X-141403Y-236752D01*
X-141584Y-236565D01*
X-138417D01*
X-138597Y-236752D01*
D02*
G37*
G36*
X-146597D02*
X-146758Y-236939D01*
X-146901Y-237128D01*
X-147024Y-237318D01*
X-147128Y-237509D01*
X-147213Y-237700D01*
X-147280Y-237893D01*
X-147327Y-238087D01*
X-147356Y-238282D01*
X-147365Y-238478D01*
X-148635D01*
X-148645Y-238282D01*
X-148673Y-238087D01*
X-148721Y-237893D01*
X-148787Y-237700D01*
X-148872Y-237509D01*
X-148977Y-237318D01*
X-149100Y-237128D01*
X-149242Y-236939D01*
X-149403Y-236752D01*
X-149584Y-236565D01*
X-146417D01*
X-146597Y-236752D01*
D02*
G37*
G36*
X-131359Y-240058D02*
X-131340Y-240279D01*
X-131308Y-240474D01*
X-131264Y-240643D01*
X-131207Y-240786D01*
X-131137Y-240903D01*
X-131054Y-240994D01*
X-130959Y-241059D01*
X-130851Y-241098D01*
X-130730Y-241111D01*
X-133270D01*
X-133150Y-241098D01*
X-133042Y-241059D01*
X-132946Y-240994D01*
X-132864Y-240903D01*
X-132794Y-240786D01*
X-132737Y-240643D01*
X-132692Y-240474D01*
X-132661Y-240279D01*
X-132642Y-240058D01*
X-132635Y-239811D01*
X-131365D01*
X-131359Y-240058D01*
D02*
G37*
G36*
X-139359D02*
X-139340Y-240279D01*
X-139308Y-240474D01*
X-139264Y-240643D01*
X-139206Y-240786D01*
X-139137Y-240903D01*
X-139054Y-240994D01*
X-138959Y-241059D01*
X-138851Y-241098D01*
X-138730Y-241111D01*
X-141270D01*
X-141150Y-241098D01*
X-141042Y-241059D01*
X-140946Y-240994D01*
X-140864Y-240903D01*
X-140794Y-240786D01*
X-140737Y-240643D01*
X-140692Y-240474D01*
X-140661Y-240279D01*
X-140642Y-240058D01*
X-140635Y-239811D01*
X-139365D01*
X-139359Y-240058D01*
D02*
G37*
G36*
X-147359D02*
X-147340Y-240279D01*
X-147308Y-240474D01*
X-147264Y-240643D01*
X-147206Y-240786D01*
X-147137Y-240903D01*
X-147054Y-240994D01*
X-146959Y-241059D01*
X-146851Y-241098D01*
X-146730Y-241111D01*
X-149270D01*
X-149150Y-241098D01*
X-149042Y-241059D01*
X-148946Y-240994D01*
X-148864Y-240903D01*
X-148794Y-240786D01*
X-148737Y-240643D01*
X-148692Y-240474D01*
X-148661Y-240279D01*
X-148642Y-240058D01*
X-148635Y-239811D01*
X-147365D01*
X-147359Y-240058D01*
D02*
G37*
G36*
X-10850Y-305032D02*
X-10958Y-305070D01*
X-11053Y-305134D01*
X-11136Y-305223D01*
X-11206Y-305337D01*
X-11263Y-305477D01*
X-11307Y-305642D01*
X-11339Y-305832D01*
X-11358Y-306048D01*
X-11365Y-306290D01*
X-12635D01*
X-12641Y-306048D01*
X-12660Y-305832D01*
X-12692Y-305642D01*
X-12736Y-305477D01*
X-12793Y-305337D01*
X-12863Y-305223D01*
X-12946Y-305134D01*
X-13041Y-305070D01*
X-13149Y-305032D01*
X-13270Y-305019D01*
X-10730D01*
X-10850Y-305032D01*
D02*
G37*
G36*
X-18850D02*
X-18958Y-305070D01*
X-19053Y-305134D01*
X-19136Y-305223D01*
X-19206Y-305337D01*
X-19263Y-305477D01*
X-19307Y-305642D01*
X-19339Y-305832D01*
X-19358Y-306048D01*
X-19365Y-306290D01*
X-20635D01*
X-20641Y-306048D01*
X-20660Y-305832D01*
X-20692Y-305642D01*
X-20736Y-305477D01*
X-20793Y-305337D01*
X-20863Y-305223D01*
X-20946Y-305134D01*
X-21041Y-305070D01*
X-21149Y-305032D01*
X-21270Y-305019D01*
X-18729D01*
X-18850Y-305032D01*
D02*
G37*
G36*
X-11355Y-307818D02*
X-11327Y-308013D01*
X-11279Y-308207D01*
X-11213Y-308400D01*
X-11128Y-308592D01*
X-11023Y-308782D01*
X-10900Y-308972D01*
X-10758Y-309161D01*
X-10596Y-309348D01*
X-10416Y-309535D01*
X-13583D01*
X-13403Y-309348D01*
X-13242Y-309161D01*
X-13099Y-308972D01*
X-12976Y-308782D01*
X-12872Y-308592D01*
X-12786Y-308400D01*
X-12720Y-308207D01*
X-12672Y-308013D01*
X-12644Y-307818D01*
X-12635Y-307622D01*
X-11365D01*
X-11355Y-307818D01*
D02*
G37*
G36*
X-19355D02*
X-19327Y-308013D01*
X-19279Y-308207D01*
X-19213Y-308400D01*
X-19127Y-308592D01*
X-19023Y-308782D01*
X-18900Y-308972D01*
X-18757Y-309161D01*
X-18596Y-309348D01*
X-18416Y-309535D01*
X-21583D01*
X-21403Y-309348D01*
X-21242Y-309161D01*
X-21099Y-308972D01*
X-20976Y-308782D01*
X-20872Y-308592D01*
X-20786Y-308400D01*
X-20720Y-308207D01*
X-20673Y-308013D01*
X-20644Y-307818D01*
X-20635Y-307622D01*
X-19365D01*
X-19355Y-307818D01*
D02*
G37*
G36*
X37150Y-305032D02*
X37042Y-305070D01*
X36947Y-305134D01*
X36864Y-305223D01*
X36794Y-305337D01*
X36737Y-305477D01*
X36693Y-305642D01*
X36661Y-305832D01*
X36642Y-306048D01*
X36635Y-306290D01*
X35366D01*
X35359Y-306048D01*
X35340Y-305832D01*
X35308Y-305642D01*
X35264Y-305477D01*
X35207Y-305337D01*
X35137Y-305223D01*
X35054Y-305134D01*
X34959Y-305070D01*
X34851Y-305032D01*
X34731Y-305019D01*
X37271D01*
X37150Y-305032D01*
D02*
G37*
G36*
X29150D02*
X29042Y-305070D01*
X28947Y-305134D01*
X28864Y-305223D01*
X28794Y-305337D01*
X28737Y-305477D01*
X28693Y-305642D01*
X28661Y-305832D01*
X28642Y-306048D01*
X28635Y-306290D01*
X27366D01*
X27359Y-306048D01*
X27340Y-305832D01*
X27308Y-305642D01*
X27264Y-305477D01*
X27207Y-305337D01*
X27137Y-305223D01*
X27054Y-305134D01*
X26959Y-305070D01*
X26851Y-305032D01*
X26730Y-305019D01*
X29271D01*
X29150Y-305032D01*
D02*
G37*
G36*
X36645Y-307818D02*
X36673Y-308013D01*
X36721Y-308207D01*
X36787Y-308400D01*
X36873Y-308592D01*
X36977Y-308782D01*
X37100Y-308972D01*
X37243Y-309161D01*
X37404Y-309348D01*
X37584Y-309535D01*
X34417D01*
X34597Y-309348D01*
X34759Y-309161D01*
X34901Y-308972D01*
X35024Y-308782D01*
X35128Y-308592D01*
X35214Y-308400D01*
X35280Y-308207D01*
X35327Y-308013D01*
X35356Y-307818D01*
X35366Y-307622D01*
X36635D01*
X36645Y-307818D01*
D02*
G37*
G36*
X28645D02*
X28673Y-308013D01*
X28721Y-308207D01*
X28787Y-308400D01*
X28873Y-308592D01*
X28977Y-308782D01*
X29100Y-308972D01*
X29242Y-309161D01*
X29404Y-309348D01*
X29584Y-309535D01*
X26417D01*
X26597Y-309348D01*
X26758Y-309161D01*
X26901Y-308972D01*
X27024Y-308782D01*
X27128Y-308592D01*
X27214Y-308400D01*
X27280Y-308207D01*
X27328Y-308013D01*
X27356Y-307818D01*
X27366Y-307622D01*
X28635D01*
X28645Y-307818D01*
D02*
G37*
G36*
X149150Y-305032D02*
X149042Y-305070D01*
X148947Y-305134D01*
X148864Y-305223D01*
X148794Y-305337D01*
X148737Y-305477D01*
X148693Y-305642D01*
X148661Y-305832D01*
X148642Y-306048D01*
X148636Y-306290D01*
X147366D01*
X147359Y-306048D01*
X147340Y-305832D01*
X147308Y-305642D01*
X147264Y-305477D01*
X147207Y-305337D01*
X147137Y-305223D01*
X147054Y-305134D01*
X146959Y-305070D01*
X146851Y-305032D01*
X146730Y-305019D01*
X149270D01*
X149150Y-305032D01*
D02*
G37*
G36*
X141150D02*
X141042Y-305070D01*
X140947Y-305134D01*
X140864Y-305223D01*
X140794Y-305337D01*
X140737Y-305477D01*
X140693Y-305642D01*
X140661Y-305832D01*
X140642Y-306048D01*
X140635Y-306290D01*
X139366D01*
X139359Y-306048D01*
X139340Y-305832D01*
X139308Y-305642D01*
X139264Y-305477D01*
X139207Y-305337D01*
X139137Y-305223D01*
X139054Y-305134D01*
X138959Y-305070D01*
X138851Y-305032D01*
X138730Y-305019D01*
X141271D01*
X141150Y-305032D01*
D02*
G37*
G36*
X133150D02*
X133042Y-305070D01*
X132947Y-305134D01*
X132864Y-305223D01*
X132794Y-305337D01*
X132737Y-305477D01*
X132693Y-305642D01*
X132661Y-305832D01*
X132642Y-306048D01*
X132635Y-306290D01*
X131365D01*
X131359Y-306048D01*
X131340Y-305832D01*
X131308Y-305642D01*
X131264Y-305477D01*
X131207Y-305337D01*
X131137Y-305223D01*
X131054Y-305134D01*
X130959Y-305070D01*
X130851Y-305032D01*
X130730Y-305019D01*
X133271D01*
X133150Y-305032D01*
D02*
G37*
G36*
X148645Y-307818D02*
X148673Y-308013D01*
X148721Y-308207D01*
X148787Y-308400D01*
X148873Y-308592D01*
X148977Y-308782D01*
X149100Y-308972D01*
X149242Y-309161D01*
X149404Y-309348D01*
X149584Y-309535D01*
X146417D01*
X146597Y-309348D01*
X146758Y-309161D01*
X146901Y-308972D01*
X147024Y-308782D01*
X147128Y-308592D01*
X147214Y-308400D01*
X147280Y-308207D01*
X147327Y-308013D01*
X147356Y-307818D01*
X147366Y-307622D01*
X148636D01*
X148645Y-307818D01*
D02*
G37*
G36*
X140645D02*
X140673Y-308013D01*
X140721Y-308207D01*
X140787Y-308400D01*
X140873Y-308592D01*
X140977Y-308782D01*
X141100Y-308972D01*
X141243Y-309161D01*
X141404Y-309348D01*
X141584Y-309535D01*
X138417D01*
X138597Y-309348D01*
X138758Y-309161D01*
X138901Y-308972D01*
X139024Y-308782D01*
X139128Y-308592D01*
X139214Y-308400D01*
X139280Y-308207D01*
X139327Y-308013D01*
X139356Y-307818D01*
X139366Y-307622D01*
X140635D01*
X140645Y-307818D01*
D02*
G37*
G36*
X132645D02*
X132673Y-308013D01*
X132721Y-308207D01*
X132787Y-308400D01*
X132873Y-308592D01*
X132977Y-308782D01*
X133100Y-308972D01*
X133243Y-309161D01*
X133404Y-309348D01*
X133584Y-309535D01*
X130417D01*
X130597Y-309348D01*
X130758Y-309161D01*
X130901Y-308972D01*
X131024Y-308782D01*
X131128Y-308592D01*
X131214Y-308400D01*
X131280Y-308207D01*
X131327Y-308013D01*
X131356Y-307818D01*
X131365Y-307622D01*
X132635D01*
X132645Y-307818D01*
D02*
G37*
G36*
X13150Y-305032D02*
X13042Y-305070D01*
X12947Y-305134D01*
X12864Y-305223D01*
X12794Y-305337D01*
X12737Y-305477D01*
X12693Y-305642D01*
X12661Y-305832D01*
X12642Y-306048D01*
X12636Y-306290D01*
X11365D01*
X11359Y-306048D01*
X11340Y-305832D01*
X11308Y-305642D01*
X11264Y-305477D01*
X11207Y-305337D01*
X11137Y-305223D01*
X11054Y-305134D01*
X10959Y-305070D01*
X10851Y-305032D01*
X10731Y-305019D01*
X13270D01*
X13150Y-305032D01*
D02*
G37*
G36*
X5150D02*
X5042Y-305070D01*
X4947Y-305134D01*
X4864Y-305223D01*
X4794Y-305337D01*
X4737Y-305477D01*
X4693Y-305642D01*
X4661Y-305832D01*
X4642Y-306048D01*
X4636Y-306290D01*
X3365D01*
X3359Y-306048D01*
X3340Y-305832D01*
X3308Y-305642D01*
X3264Y-305477D01*
X3207Y-305337D01*
X3137Y-305223D01*
X3054Y-305134D01*
X2959Y-305070D01*
X2851Y-305032D01*
X2731Y-305019D01*
X5271D01*
X5150Y-305032D01*
D02*
G37*
G36*
X12645Y-307818D02*
X12673Y-308013D01*
X12721Y-308207D01*
X12787Y-308400D01*
X12873Y-308592D01*
X12977Y-308782D01*
X13100Y-308972D01*
X13242Y-309161D01*
X13404Y-309348D01*
X13584Y-309535D01*
X10417D01*
X10597Y-309348D01*
X10759Y-309161D01*
X10901Y-308972D01*
X11024Y-308782D01*
X11128Y-308592D01*
X11214Y-308400D01*
X11280Y-308207D01*
X11328Y-308013D01*
X11356Y-307818D01*
X11365Y-307622D01*
X12636D01*
X12645Y-307818D01*
D02*
G37*
G36*
X4645D02*
X4673Y-308013D01*
X4721Y-308207D01*
X4787Y-308400D01*
X4873Y-308592D01*
X4977Y-308782D01*
X5100Y-308972D01*
X5242Y-309161D01*
X5404Y-309348D01*
X5584Y-309535D01*
X2417D01*
X2597Y-309348D01*
X2758Y-309161D01*
X2901Y-308972D01*
X3024Y-308782D01*
X3128Y-308592D01*
X3214Y-308400D01*
X3280Y-308207D01*
X3327Y-308013D01*
X3356Y-307818D01*
X3365Y-307622D01*
X4636D01*
X4645Y-307818D01*
D02*
G37*
G36*
X-130850Y-305032D02*
X-130958Y-305070D01*
X-131053Y-305134D01*
X-131136Y-305223D01*
X-131206Y-305337D01*
X-131263Y-305477D01*
X-131307Y-305642D01*
X-131339Y-305832D01*
X-131358Y-306048D01*
X-131364Y-306290D01*
X-132634D01*
X-132641Y-306048D01*
X-132660Y-305832D01*
X-132692Y-305642D01*
X-132736Y-305477D01*
X-132793Y-305337D01*
X-132863Y-305223D01*
X-132946Y-305134D01*
X-133041Y-305070D01*
X-133149Y-305032D01*
X-133270Y-305019D01*
X-130730D01*
X-130850Y-305032D01*
D02*
G37*
G36*
X-138850D02*
X-138958Y-305070D01*
X-139053Y-305134D01*
X-139136Y-305223D01*
X-139206Y-305337D01*
X-139263Y-305477D01*
X-139307Y-305642D01*
X-139339Y-305832D01*
X-139358Y-306048D01*
X-139365Y-306290D01*
X-140634D01*
X-140641Y-306048D01*
X-140660Y-305832D01*
X-140692Y-305642D01*
X-140736Y-305477D01*
X-140793Y-305337D01*
X-140863Y-305223D01*
X-140946Y-305134D01*
X-141041Y-305070D01*
X-141149Y-305032D01*
X-141270Y-305019D01*
X-138729D01*
X-138850Y-305032D01*
D02*
G37*
G36*
X-146850D02*
X-146958Y-305070D01*
X-147053Y-305134D01*
X-147136Y-305223D01*
X-147206Y-305337D01*
X-147263Y-305477D01*
X-147307Y-305642D01*
X-147339Y-305832D01*
X-147358Y-306048D01*
X-147365Y-306290D01*
X-148635D01*
X-148641Y-306048D01*
X-148660Y-305832D01*
X-148692Y-305642D01*
X-148736Y-305477D01*
X-148793Y-305337D01*
X-148863Y-305223D01*
X-148946Y-305134D01*
X-149041Y-305070D01*
X-149149Y-305032D01*
X-149270Y-305019D01*
X-146729D01*
X-146850Y-305032D01*
D02*
G37*
G36*
X-131355Y-307818D02*
X-131327Y-308013D01*
X-131279Y-308207D01*
X-131213Y-308400D01*
X-131127Y-308592D01*
X-131023Y-308782D01*
X-130900Y-308972D01*
X-130758Y-309161D01*
X-130596Y-309348D01*
X-130416Y-309535D01*
X-133583D01*
X-133403Y-309348D01*
X-133242Y-309161D01*
X-133099Y-308972D01*
X-132976Y-308782D01*
X-132872Y-308592D01*
X-132786Y-308400D01*
X-132720Y-308207D01*
X-132673Y-308013D01*
X-132644Y-307818D01*
X-132634Y-307622D01*
X-131364D01*
X-131355Y-307818D01*
D02*
G37*
G36*
X-139355D02*
X-139327Y-308013D01*
X-139279Y-308207D01*
X-139213Y-308400D01*
X-139127Y-308592D01*
X-139023Y-308782D01*
X-138900Y-308972D01*
X-138757Y-309161D01*
X-138596Y-309348D01*
X-138416Y-309535D01*
X-141583D01*
X-141403Y-309348D01*
X-141242Y-309161D01*
X-141099Y-308972D01*
X-140976Y-308782D01*
X-140872Y-308592D01*
X-140786Y-308400D01*
X-140720Y-308207D01*
X-140673Y-308013D01*
X-140644Y-307818D01*
X-140634Y-307622D01*
X-139365D01*
X-139355Y-307818D01*
D02*
G37*
G36*
X-147355D02*
X-147327Y-308013D01*
X-147279Y-308207D01*
X-147213Y-308400D01*
X-147127Y-308592D01*
X-147023Y-308782D01*
X-146900Y-308972D01*
X-146757Y-309161D01*
X-146596Y-309348D01*
X-146416Y-309535D01*
X-149583D01*
X-149403Y-309348D01*
X-149242Y-309161D01*
X-149099Y-308972D01*
X-148976Y-308782D01*
X-148872Y-308592D01*
X-148786Y-308400D01*
X-148720Y-308207D01*
X-148673Y-308013D01*
X-148644Y-307818D01*
X-148635Y-307622D01*
X-147365D01*
X-147355Y-307818D01*
D02*
G37*
D12*
X-12000Y-295050D02*
X-12000Y-311150D01*
X36000Y-295050D02*
X36000Y-311150D01*
X28001Y-295050D02*
X28001Y-311150D01*
X-132000Y-295050D02*
X-132000Y-311150D01*
X-140000Y-295050D02*
X-140000Y-311150D01*
X-148000Y-295050D02*
X-147999Y-311150D01*
X12000Y-295050D02*
X12000Y-311150D01*
X4000Y-295050D02*
X4001Y-311150D01*
X-20000Y-295050D02*
X-20000Y-311150D01*
X148000Y-295050D02*
X148000Y-311150D01*
X140000Y-295050D02*
X140000Y-311150D01*
X132000Y-295050D02*
X132001Y-311150D01*
X147999Y-251050D02*
Y-234950D01*
X140000Y-251050D02*
Y-234950D01*
X132000Y-251050D02*
Y-234950D01*
X-12000Y-251050D02*
Y-234950D01*
X-20001Y-251050D02*
Y-234950D01*
X-132000Y-251050D02*
Y-234950D01*
X-140000Y-251050D02*
Y-234950D01*
X-148000Y-251050D02*
Y-234950D01*
D14*
X156000Y-295050D02*
D03*
Y-251050D02*
D03*
X148000Y-295050D02*
D03*
Y-251050D02*
D03*
X140000Y-295050D02*
D03*
Y-251050D02*
D03*
X132000Y-295050D02*
D03*
Y-251050D02*
D03*
X124000Y-295050D02*
D03*
Y-251050D02*
D03*
X116000Y-295050D02*
D03*
Y-251050D02*
D03*
X108000Y-295050D02*
D03*
Y-251050D02*
D03*
X100000Y-295050D02*
D03*
Y-251050D02*
D03*
X92000Y-295050D02*
D03*
Y-251050D02*
D03*
X84000Y-295050D02*
D03*
Y-251050D02*
D03*
X76000Y-295050D02*
D03*
Y-251050D02*
D03*
X68000Y-295050D02*
D03*
Y-251050D02*
D03*
X60000Y-295050D02*
D03*
Y-251050D02*
D03*
X52000Y-295050D02*
D03*
Y-251050D02*
D03*
X44000Y-295050D02*
D03*
Y-251050D02*
D03*
X36000Y-295050D02*
D03*
Y-251050D02*
D03*
X28000Y-295050D02*
D03*
Y-251050D02*
D03*
X20000Y-295050D02*
D03*
Y-251050D02*
D03*
X12000Y-295050D02*
D03*
Y-251050D02*
D03*
X4000Y-295050D02*
D03*
Y-251050D02*
D03*
X-4000Y-295050D02*
D03*
Y-251050D02*
D03*
X-12000Y-295050D02*
D03*
Y-251050D02*
D03*
X-20000Y-295050D02*
D03*
Y-251050D02*
D03*
X-28000Y-295050D02*
D03*
Y-251050D02*
D03*
X-36000Y-295050D02*
D03*
Y-251050D02*
D03*
X-44000Y-295050D02*
D03*
Y-251050D02*
D03*
X-52000Y-295050D02*
D03*
Y-251050D02*
D03*
X-60000Y-295050D02*
D03*
Y-251050D02*
D03*
X-68000Y-295050D02*
D03*
Y-251050D02*
D03*
X-76000Y-295050D02*
D03*
Y-251050D02*
D03*
X-84000Y-295050D02*
D03*
Y-251050D02*
D03*
X-92000Y-295050D02*
D03*
Y-251050D02*
D03*
X-100000Y-295050D02*
D03*
Y-251050D02*
D03*
X-108000Y-295050D02*
D03*
Y-251050D02*
D03*
X-116000Y-295050D02*
D03*
Y-251050D02*
D03*
X-124000Y-295050D02*
D03*
Y-251050D02*
D03*
X-132000Y-295050D02*
D03*
Y-251050D02*
D03*
X-140000Y-295050D02*
D03*
Y-251050D02*
D03*
X-148000Y-295050D02*
D03*
Y-251050D02*
D03*
X-156000Y-295050D02*
D03*
Y-251050D02*
D03*
D45*
X59400Y69850D02*
D03*
X25400D02*
D03*
X59400Y-29350D02*
D03*
X25400D02*
D03*
X-57150D02*
D03*
X-23150Y-29350D02*
D03*
X-57150Y69850D02*
D03*
X-23150Y69850D02*
D03*
D46*
X-273050Y-88900D02*
D03*
X275300D02*
D03*
X29700Y120650D02*
D03*
X55100D02*
D03*
X-52850Y120650D02*
D03*
X-27450D02*
D03*
X228600Y38100D02*
D03*
X-226350D02*
D03*
X254000Y107950D02*
D03*
X-254000D02*
D03*
X-330200Y-260350D02*
D03*
X330200Y0D02*
D03*
X-330200D02*
D03*
Y-171450D02*
D03*
X330200Y-260350D02*
D03*
Y-171450D02*
D03*
D47*
X118450Y122900D02*
D03*
X-177400D02*
D03*
D48*
X129250Y88900D02*
D03*
X-166600D02*
D03*
D49*
X168850D02*
D03*
X-127000D02*
D03*
D50*
X330200Y107950D02*
D03*
X-330200D02*
D03*
Y-107950D02*
D03*
Y-323850D02*
D03*
X330200D02*
D03*
Y-107950D02*
D03*
D51*
X254000Y-44450D02*
D03*
X292100Y-120650D02*
D03*
X254000Y-196850D02*
D03*
X292100Y-273050D02*
D03*
X254000Y-349250D02*
D03*
X177800Y-44450D02*
D03*
X215900Y-120650D02*
D03*
X177800Y-196850D02*
D03*
X215900Y-273050D02*
D03*
X177800Y-349250D02*
D03*
X139700Y31750D02*
D03*
X101600Y-196850D02*
D03*
X139700Y-273050D02*
D03*
X101600Y-349250D02*
D03*
X63500Y31750D02*
D03*
Y-120650D02*
D03*
X25400Y-196850D02*
D03*
X63500Y-273050D02*
D03*
X25400Y-349250D02*
D03*
X-12700Y31750D02*
D03*
X-50800Y-44450D02*
D03*
X-12700Y-120650D02*
D03*
X-50800Y-196850D02*
D03*
X-12700Y-273050D02*
D03*
X-50800Y-349250D02*
D03*
X-88900Y31750D02*
D03*
Y-120650D02*
D03*
X-127000Y-196850D02*
D03*
X-88900Y-273050D02*
D03*
X-127000Y-349250D02*
D03*
X-165100Y31750D02*
D03*
X-203200Y-44450D02*
D03*
X-165100Y-120650D02*
D03*
X-203200Y-196850D02*
D03*
X-165100Y-273050D02*
D03*
X-203200Y-349250D02*
D03*
X-241300Y31750D02*
D03*
Y-120650D02*
D03*
X-279400Y-196850D02*
D03*
X-241300Y-273050D02*
D03*
X-279400Y-349250D02*
D03*
X-317500Y31750D02*
D03*
X-355600Y-44450D02*
D03*
Y-196850D02*
D03*
X-317500Y-273050D02*
D03*
D52*
X-12000Y-311150D02*
D03*
X36000D02*
D03*
X28001D02*
D03*
X-132000D02*
D03*
X-140000D02*
D03*
X-147999D02*
D03*
X12000D02*
D03*
X4001D02*
D03*
X-20000D02*
D03*
X148000D02*
D03*
X140000D02*
D03*
X132001D02*
D03*
X147999Y-234950D02*
D03*
X140000D02*
D03*
X132000D02*
D03*
X-12000D02*
D03*
X-20001D02*
D03*
X-148000Y-234950D02*
D03*
X-140000D02*
D03*
X-132000D02*
D03*
X-306500Y34925D02*
D03*
X308500Y35200D02*
D03*
X-134330Y-127000D02*
D03*
X-114010D02*
D03*
X-124170D02*
D03*
X119380D02*
D03*
X129540D02*
D03*
X109220D02*
D03*
X326100Y-60960D02*
D03*
X-323850Y-60960D02*
D03*
M02*
