G04*
G04 #@! TF.GenerationSoftware,Altium Limited,Altium Designer,24.2.2 (26)*
G04*
G04 Layer_Physical_Order=3*
G04 Layer_Color=16440176*
%FSLAX44Y44*%
%MOMM*%
G71*
G04*
G04 #@! TF.SameCoordinates,D0D0D645-F3CD-4B60-A7FA-FB90DE8E9CDF*
G04*
G04*
G04 #@! TF.FilePolarity,Positive*
G04*
G01*
G75*
%ADD45C,2.4000*%
%ADD46C,1.5240*%
%ADD47C,1.8600*%
%ADD48R,2.2400X2.2400*%
%ADD49C,2.2400*%
%ADD50C,5.0800*%
%ADD51C,0.4572*%
%ADD52C,0.4524*%
G36*
X347406Y143304D02*
X351739Y141990D01*
X355733Y139855D01*
X359233Y136983D01*
X362105Y133483D01*
X364240Y129489D01*
X365554Y125156D01*
X365989Y120747D01*
X365969Y120650D01*
Y-336550D01*
X365989Y-336647D01*
X365554Y-341056D01*
X364240Y-345389D01*
X362105Y-349383D01*
X359233Y-352883D01*
X355733Y-355756D01*
X351739Y-357890D01*
X347406Y-359204D01*
X342998Y-359639D01*
X342900Y-359619D01*
X-342900D01*
X-342998Y-359639D01*
X-347406Y-359204D01*
X-351739Y-357890D01*
X-355733Y-355756D01*
X-359233Y-352883D01*
X-362105Y-349383D01*
X-364240Y-345389D01*
X-365554Y-341056D01*
X-365989Y-336647D01*
X-365969Y-336550D01*
Y-280475D01*
X-365847Y-280292D01*
X-365669Y-279400D01*
X-365847Y-278508D01*
X-365969Y-278325D01*
Y120650D01*
X-365989Y120747D01*
X-365554Y125156D01*
X-364240Y129489D01*
X-362105Y133483D01*
X-359233Y136983D01*
X-355733Y139855D01*
X-351739Y141990D01*
X-347406Y143304D01*
X-342998Y143739D01*
X-342900Y143719D01*
X342900D01*
X342998Y143739D01*
X347406Y143304D01*
D02*
G37*
%LPC*%
G36*
X56237Y129286D02*
X55608D01*
Y121158D01*
X63736D01*
Y121787D01*
X63147Y123983D01*
X62010Y125953D01*
X60403Y127561D01*
X58433Y128698D01*
X56237Y129286D01*
D02*
G37*
G36*
X54592D02*
X53963D01*
X51767Y128698D01*
X49797Y127561D01*
X48189Y125953D01*
X47052Y123983D01*
X46464Y121787D01*
Y121158D01*
X54592D01*
Y129286D01*
D02*
G37*
G36*
X-26313Y129286D02*
X-28587D01*
X-30783Y128698D01*
X-32753Y127561D01*
X-34361Y125953D01*
X-35498Y123983D01*
X-36086Y121787D01*
Y119513D01*
X-35498Y117317D01*
X-34361Y115347D01*
X-32753Y113740D01*
X-30783Y112603D01*
X-28587Y112014D01*
X-26313D01*
X-24117Y112603D01*
X-22147Y113740D01*
X-20540Y115347D01*
X-19403Y117317D01*
X-18814Y119513D01*
Y121787D01*
X-19403Y123983D01*
X-20540Y125953D01*
X-22147Y127561D01*
X-24117Y128698D01*
X-26313Y129286D01*
D02*
G37*
G36*
X-51713D02*
X-53987D01*
X-56183Y128698D01*
X-58153Y127561D01*
X-59760Y125953D01*
X-60897Y123983D01*
X-61486Y121787D01*
Y119513D01*
X-60897Y117317D01*
X-59760Y115347D01*
X-58153Y113740D01*
X-56183Y112603D01*
X-53987Y112014D01*
X-51713D01*
X-49517Y112603D01*
X-47547Y113740D01*
X-45939Y115347D01*
X-44802Y117317D01*
X-44214Y119513D01*
Y121787D01*
X-44802Y123983D01*
X-45939Y125953D01*
X-47547Y127561D01*
X-49517Y128698D01*
X-51713Y129286D01*
D02*
G37*
G36*
X63736Y120142D02*
X55608D01*
Y112014D01*
X56237D01*
X58433Y112603D01*
X60403Y113740D01*
X62010Y115347D01*
X63147Y117317D01*
X63736Y119513D01*
Y120142D01*
D02*
G37*
G36*
X54592D02*
X46464D01*
Y119513D01*
X47052Y117317D01*
X48189Y115347D01*
X49797Y113740D01*
X51767Y112603D01*
X53963Y112014D01*
X54592D01*
Y120142D01*
D02*
G37*
G36*
X30837Y129286D02*
X28563D01*
X26367Y128698D01*
X24397Y127561D01*
X22789Y125953D01*
X21653Y123983D01*
X21064Y121787D01*
Y119513D01*
X21653Y117317D01*
X22789Y115347D01*
X24397Y113740D01*
X26367Y112603D01*
X28563Y112014D01*
X30837D01*
X33033Y112603D01*
X35003Y113740D01*
X36611Y115347D01*
X37747Y117317D01*
X38336Y119513D01*
Y121787D01*
X37747Y123983D01*
X36611Y125953D01*
X35003Y127561D01*
X33033Y128698D01*
X30837Y129286D01*
D02*
G37*
G36*
X120003Y134700D02*
X116896D01*
X113895Y133896D01*
X111205Y132342D01*
X109008Y130145D01*
X107454Y127455D01*
X106650Y124453D01*
Y121347D01*
X107454Y118345D01*
X109008Y115655D01*
X111205Y113458D01*
X113895Y111904D01*
X116896Y111100D01*
X120003D01*
X123005Y111904D01*
X125695Y113458D01*
X127892Y115655D01*
X129446Y118345D01*
X130250Y121347D01*
Y124453D01*
X129446Y127455D01*
X127892Y130145D01*
X125695Y132342D01*
X123005Y133896D01*
X120003Y134700D01*
D02*
G37*
G36*
X-175847D02*
X-178953D01*
X-181955Y133896D01*
X-184645Y132342D01*
X-186842Y130145D01*
X-188396Y127455D01*
X-189200Y124453D01*
Y121347D01*
X-188396Y118345D01*
X-186842Y115655D01*
X-184645Y113458D01*
X-181955Y111904D01*
X-178953Y111100D01*
X-175847D01*
X-172845Y111904D01*
X-170155Y113458D01*
X-167958Y115655D01*
X-166404Y118345D01*
X-165600Y121347D01*
Y124453D01*
X-166404Y127455D01*
X-167958Y130145D01*
X-170155Y132342D01*
X-172845Y133896D01*
X-175847Y134700D01*
D02*
G37*
G36*
X255137Y116586D02*
X254508D01*
Y108458D01*
X262636D01*
Y109087D01*
X262048Y111283D01*
X260910Y113253D01*
X259303Y114860D01*
X257333Y115997D01*
X255137Y116586D01*
D02*
G37*
G36*
X253492D02*
X252863D01*
X250667Y115997D01*
X248697Y114860D01*
X247090Y113253D01*
X245952Y111283D01*
X245364Y109087D01*
Y108458D01*
X253492D01*
Y116586D01*
D02*
G37*
G36*
X262636Y107442D02*
X254508D01*
Y99314D01*
X255137D01*
X257333Y99902D01*
X259303Y101039D01*
X260910Y102647D01*
X262048Y104617D01*
X262636Y106813D01*
Y107442D01*
D02*
G37*
G36*
X253492D02*
X245364D01*
Y106813D01*
X245952Y104617D01*
X247090Y102647D01*
X248697Y101039D01*
X250667Y99902D01*
X252863Y99314D01*
X253492D01*
Y107442D01*
D02*
G37*
G36*
X-252863Y116586D02*
X-255137D01*
X-257333Y115997D01*
X-259303Y114860D01*
X-260910Y113253D01*
X-262048Y111283D01*
X-262636Y109087D01*
Y106813D01*
X-262048Y104617D01*
X-260910Y102647D01*
X-259303Y101039D01*
X-257333Y99902D01*
X-255137Y99314D01*
X-252863D01*
X-250667Y99902D01*
X-248697Y101039D01*
X-247090Y102647D01*
X-245952Y104617D01*
X-245364Y106813D01*
Y109087D01*
X-245952Y111283D01*
X-247090Y113253D01*
X-248697Y114860D01*
X-250667Y115997D01*
X-252863Y116586D01*
D02*
G37*
G36*
X332279Y134366D02*
X328121D01*
X324014Y133716D01*
X320060Y132431D01*
X316355Y130543D01*
X312991Y128099D01*
X310051Y125159D01*
X307607Y121795D01*
X305719Y118090D01*
X304434Y114136D01*
X303784Y110029D01*
Y105871D01*
X304434Y101764D01*
X305719Y97810D01*
X307607Y94105D01*
X310051Y90741D01*
X312991Y87801D01*
X316355Y85357D01*
X320060Y83469D01*
X324014Y82184D01*
X328121Y81534D01*
X332279D01*
X336386Y82184D01*
X340340Y83469D01*
X344045Y85357D01*
X347409Y87801D01*
X350349Y90741D01*
X352793Y94105D01*
X354681Y97810D01*
X355966Y101764D01*
X356616Y105871D01*
Y110029D01*
X355966Y114136D01*
X354681Y118090D01*
X352793Y121795D01*
X350349Y125159D01*
X347409Y128099D01*
X344045Y130543D01*
X340340Y132431D01*
X336386Y133716D01*
X332279Y134366D01*
D02*
G37*
G36*
X-328121D02*
X-332279D01*
X-336386Y133716D01*
X-340340Y132431D01*
X-344045Y130543D01*
X-347409Y128099D01*
X-350349Y125159D01*
X-352793Y121795D01*
X-354681Y118090D01*
X-355966Y114136D01*
X-356616Y110029D01*
Y105871D01*
X-355966Y101764D01*
X-354681Y97810D01*
X-352793Y94105D01*
X-350349Y90741D01*
X-347409Y87801D01*
X-344045Y85357D01*
X-340340Y83469D01*
X-336386Y82184D01*
X-332279Y81534D01*
X-328121D01*
X-324014Y82184D01*
X-320060Y83469D01*
X-316355Y85357D01*
X-312991Y87801D01*
X-310051Y90741D01*
X-307607Y94105D01*
X-305719Y97810D01*
X-304434Y101764D01*
X-303784Y105871D01*
Y110029D01*
X-304434Y114136D01*
X-305719Y118090D01*
X-307607Y121795D01*
X-310051Y125159D01*
X-312991Y128099D01*
X-316355Y130543D01*
X-320060Y132431D01*
X-324014Y133716D01*
X-328121Y134366D01*
D02*
G37*
G36*
X170458Y101116D02*
X167242D01*
X164135Y100283D01*
X161349Y98675D01*
X159075Y96401D01*
X157466Y93615D01*
X156634Y90508D01*
Y87292D01*
X157466Y84185D01*
X159075Y81399D01*
X161349Y79125D01*
X164135Y77516D01*
X167242Y76684D01*
X170458D01*
X173565Y77516D01*
X176351Y79125D01*
X178625Y81399D01*
X180233Y84185D01*
X181066Y87292D01*
Y90508D01*
X180233Y93615D01*
X178625Y96401D01*
X176351Y98675D01*
X173565Y100283D01*
X170458Y101116D01*
D02*
G37*
G36*
X141466D02*
X117034D01*
Y76684D01*
X141466D01*
Y101116D01*
D02*
G37*
G36*
X-125392D02*
X-128608D01*
X-131715Y100283D01*
X-134501Y98675D01*
X-136775Y96401D01*
X-138384Y93615D01*
X-139216Y90508D01*
Y87292D01*
X-138384Y84185D01*
X-136775Y81399D01*
X-134501Y79125D01*
X-131715Y77516D01*
X-128608Y76684D01*
X-125392D01*
X-122285Y77516D01*
X-119499Y79125D01*
X-117225Y81399D01*
X-115617Y84185D01*
X-114784Y87292D01*
Y90508D01*
X-115617Y93615D01*
X-117225Y96401D01*
X-119499Y98675D01*
X-122285Y100283D01*
X-125392Y101116D01*
D02*
G37*
G36*
X-154384D02*
X-178816D01*
Y76684D01*
X-154384D01*
Y101116D01*
D02*
G37*
G36*
X-21437Y82866D02*
X-24864D01*
X-28174Y81979D01*
X-31142Y80265D01*
X-33565Y77842D01*
X-35279Y74874D01*
X-36166Y71564D01*
Y68136D01*
X-35279Y64826D01*
X-33565Y61858D01*
X-31142Y59435D01*
X-28174Y57721D01*
X-24864Y56834D01*
X-21437D01*
X-18126Y57721D01*
X-15158Y59435D01*
X-12735Y61858D01*
X-11021Y64826D01*
X-10134Y68136D01*
Y71564D01*
X-11021Y74874D01*
X-12735Y77842D01*
X-15158Y80265D01*
X-18126Y81979D01*
X-21437Y82866D01*
D02*
G37*
G36*
X61114Y82866D02*
X57686D01*
X54376Y81979D01*
X51408Y80265D01*
X48985Y77842D01*
X47271Y74874D01*
X46384Y71564D01*
Y68136D01*
X47271Y64826D01*
X48985Y61858D01*
X51408Y59435D01*
X54376Y57721D01*
X57686Y56834D01*
X61114D01*
X64424Y57721D01*
X67392Y59435D01*
X69815Y61858D01*
X71529Y64826D01*
X72416Y68136D01*
Y71564D01*
X71529Y74874D01*
X69815Y77842D01*
X67392Y80265D01*
X64424Y81979D01*
X61114Y82866D01*
D02*
G37*
G36*
X27114D02*
X23686D01*
X20376Y81979D01*
X17408Y80265D01*
X14985Y77842D01*
X13271Y74874D01*
X12384Y71564D01*
Y68136D01*
X13271Y64826D01*
X14985Y61858D01*
X17408Y59435D01*
X20376Y57721D01*
X23686Y56834D01*
X27114D01*
X30424Y57721D01*
X33392Y59435D01*
X35815Y61858D01*
X37529Y64826D01*
X38416Y68136D01*
Y71564D01*
X37529Y74874D01*
X35815Y77842D01*
X33392Y80265D01*
X30424Y81979D01*
X27114Y82866D01*
D02*
G37*
G36*
X-55436D02*
X-58864D01*
X-62174Y81979D01*
X-65142Y80265D01*
X-67565Y77842D01*
X-69279Y74874D01*
X-70166Y71564D01*
Y68136D01*
X-69279Y64826D01*
X-67565Y61858D01*
X-65142Y59435D01*
X-62174Y57721D01*
X-58864Y56834D01*
X-55436D01*
X-52126Y57721D01*
X-49158Y59435D01*
X-46735Y61858D01*
X-45021Y64826D01*
X-44134Y68136D01*
Y71564D01*
X-45021Y74874D01*
X-46735Y77842D01*
X-49158Y80265D01*
X-52126Y81979D01*
X-55436Y82866D01*
D02*
G37*
G36*
X-305704Y38925D02*
X-307296D01*
X-308766Y38316D01*
X-309891Y37191D01*
X-310500Y35721D01*
Y34129D01*
X-309891Y32659D01*
X-308766Y31534D01*
X-307296Y30925D01*
X-305704D01*
X-304234Y31534D01*
X-303109Y32659D01*
X-302500Y34129D01*
Y35721D01*
X-303109Y37191D01*
X-304234Y38316D01*
X-305704Y38925D01*
D02*
G37*
G36*
X229737Y46736D02*
X227463D01*
X225267Y46147D01*
X223297Y45010D01*
X221689Y43403D01*
X220553Y41433D01*
X219964Y39237D01*
Y36963D01*
X220553Y34767D01*
X221689Y32797D01*
X223297Y31189D01*
X225267Y30052D01*
X227463Y29464D01*
X229737D01*
X231933Y30052D01*
X233903Y31189D01*
X235511Y32797D01*
X236647Y34767D01*
X237236Y36963D01*
Y39237D01*
X236647Y41433D01*
X235511Y43403D01*
X233903Y45010D01*
X231933Y46147D01*
X229737Y46736D01*
D02*
G37*
G36*
X-225213D02*
X-227487D01*
X-229683Y46147D01*
X-231653Y45010D01*
X-233261Y43403D01*
X-234398Y41433D01*
X-234986Y39237D01*
Y36963D01*
X-234398Y34767D01*
X-233261Y32797D01*
X-231653Y31189D01*
X-229683Y30052D01*
X-227487Y29464D01*
X-225213D01*
X-223017Y30052D01*
X-221047Y31189D01*
X-219440Y32797D01*
X-218303Y34767D01*
X-217714Y36963D01*
Y39237D01*
X-218303Y41433D01*
X-219440Y43403D01*
X-221047Y45010D01*
X-223017Y46147D01*
X-225213Y46736D01*
D02*
G37*
G36*
X140500Y35774D02*
X138900D01*
X137421Y35161D01*
X136289Y34029D01*
X135676Y32550D01*
Y30950D01*
X136289Y29471D01*
X137421Y28339D01*
X138900Y27726D01*
X140500D01*
X141979Y28339D01*
X143111Y29471D01*
X143724Y30950D01*
Y32550D01*
X143111Y34029D01*
X141979Y35161D01*
X140500Y35774D01*
D02*
G37*
G36*
X64300D02*
X62700D01*
X61221Y35161D01*
X60089Y34029D01*
X59476Y32550D01*
Y30950D01*
X60089Y29471D01*
X61221Y28339D01*
X62700Y27726D01*
X64300D01*
X65779Y28339D01*
X66911Y29471D01*
X67524Y30950D01*
Y32550D01*
X66911Y34029D01*
X65779Y35161D01*
X64300Y35774D01*
D02*
G37*
G36*
X-11900D02*
X-13500D01*
X-14979Y35161D01*
X-16111Y34029D01*
X-16724Y32550D01*
Y30950D01*
X-16111Y29471D01*
X-14979Y28339D01*
X-13500Y27726D01*
X-11900D01*
X-10421Y28339D01*
X-9289Y29471D01*
X-8676Y30950D01*
Y32550D01*
X-9289Y34029D01*
X-10421Y35161D01*
X-11900Y35774D01*
D02*
G37*
G36*
X-88100D02*
X-89700D01*
X-91179Y35161D01*
X-92311Y34029D01*
X-92924Y32550D01*
Y30950D01*
X-92311Y29471D01*
X-91179Y28339D01*
X-89700Y27726D01*
X-88100D01*
X-86621Y28339D01*
X-85489Y29471D01*
X-84876Y30950D01*
Y32550D01*
X-85489Y34029D01*
X-86621Y35161D01*
X-88100Y35774D01*
D02*
G37*
G36*
X-164300D02*
X-165900D01*
X-167379Y35161D01*
X-168511Y34029D01*
X-169124Y32550D01*
Y30950D01*
X-168511Y29471D01*
X-167379Y28339D01*
X-165900Y27726D01*
X-164300D01*
X-162821Y28339D01*
X-161689Y29471D01*
X-161076Y30950D01*
Y32550D01*
X-161689Y34029D01*
X-162821Y35161D01*
X-164300Y35774D01*
D02*
G37*
G36*
X-240500D02*
X-242100D01*
X-243579Y35161D01*
X-244711Y34029D01*
X-245324Y32550D01*
Y30950D01*
X-244711Y29471D01*
X-243579Y28339D01*
X-242100Y27726D01*
X-240500D01*
X-239021Y28339D01*
X-237889Y29471D01*
X-237276Y30950D01*
Y32550D01*
X-237889Y34029D01*
X-239021Y35161D01*
X-240500Y35774D01*
D02*
G37*
G36*
X-316700D02*
X-318300D01*
X-319779Y35161D01*
X-320911Y34029D01*
X-321524Y32550D01*
Y30950D01*
X-320911Y29471D01*
X-319779Y28339D01*
X-318300Y27726D01*
X-316700D01*
X-315221Y28339D01*
X-314089Y29471D01*
X-313476Y30950D01*
Y32550D01*
X-314089Y34029D01*
X-315221Y35161D01*
X-316700Y35774D01*
D02*
G37*
G36*
X331337Y8636D02*
X329063D01*
X326867Y8048D01*
X324897Y6910D01*
X323289Y5303D01*
X322152Y3333D01*
X321564Y1137D01*
Y-1137D01*
X322152Y-3333D01*
X323289Y-5303D01*
X324897Y-6910D01*
X326867Y-8048D01*
X329063Y-8636D01*
X331337D01*
X333533Y-8048D01*
X335503Y-6910D01*
X337110Y-5303D01*
X338247Y-3333D01*
X338836Y-1137D01*
Y1137D01*
X338247Y3333D01*
X337110Y5303D01*
X335503Y6910D01*
X333533Y8048D01*
X331337Y8636D01*
D02*
G37*
G36*
X-329063D02*
X-331337D01*
X-333533Y8048D01*
X-335503Y6910D01*
X-337110Y5303D01*
X-338247Y3333D01*
X-338836Y1137D01*
Y-1137D01*
X-338247Y-3333D01*
X-337110Y-5303D01*
X-335503Y-6910D01*
X-333533Y-8048D01*
X-331337Y-8636D01*
X-329063D01*
X-326867Y-8048D01*
X-324897Y-6910D01*
X-323289Y-5303D01*
X-322152Y-3333D01*
X-321564Y-1137D01*
Y1137D01*
X-322152Y3333D01*
X-323289Y5303D01*
X-324897Y6910D01*
X-326867Y8048D01*
X-329063Y8636D01*
D02*
G37*
G36*
X61114Y-16334D02*
X57686D01*
X54376Y-17221D01*
X51408Y-18935D01*
X48985Y-21358D01*
X47271Y-24326D01*
X46384Y-27636D01*
Y-31064D01*
X47271Y-34374D01*
X48985Y-37342D01*
X51408Y-39765D01*
X54376Y-41479D01*
X57686Y-42366D01*
X61114D01*
X64424Y-41479D01*
X67392Y-39765D01*
X69815Y-37342D01*
X71529Y-34374D01*
X72416Y-31064D01*
Y-27636D01*
X71529Y-24326D01*
X69815Y-21358D01*
X67392Y-18935D01*
X64424Y-17221D01*
X61114Y-16334D01*
D02*
G37*
G36*
X27114D02*
X23686D01*
X20376Y-17221D01*
X17408Y-18935D01*
X14985Y-21358D01*
X13271Y-24326D01*
X12384Y-27636D01*
Y-31064D01*
X13271Y-34374D01*
X14985Y-37342D01*
X17408Y-39765D01*
X20376Y-41479D01*
X23686Y-42366D01*
X27114D01*
X30424Y-41479D01*
X33392Y-39765D01*
X35815Y-37342D01*
X37529Y-34374D01*
X38416Y-31064D01*
Y-27636D01*
X37529Y-24326D01*
X35815Y-21358D01*
X33392Y-18935D01*
X30424Y-17221D01*
X27114Y-16334D01*
D02*
G37*
G36*
X-21437Y-16334D02*
X-24864D01*
X-28174Y-17221D01*
X-31142Y-18935D01*
X-33565Y-21358D01*
X-35279Y-24326D01*
X-36166Y-27636D01*
Y-31064D01*
X-35279Y-34374D01*
X-33565Y-37342D01*
X-31142Y-39765D01*
X-28174Y-41479D01*
X-24864Y-42366D01*
X-21437D01*
X-18126Y-41479D01*
X-15158Y-39765D01*
X-12735Y-37342D01*
X-11021Y-34374D01*
X-10134Y-31064D01*
Y-27636D01*
X-11021Y-24326D01*
X-12735Y-21358D01*
X-15158Y-18935D01*
X-18126Y-17221D01*
X-21437Y-16334D01*
D02*
G37*
G36*
X254800Y-40426D02*
X253200D01*
X251721Y-41039D01*
X250589Y-42171D01*
X249976Y-43650D01*
Y-45250D01*
X250589Y-46729D01*
X251721Y-47861D01*
X253200Y-48474D01*
X254800D01*
X256279Y-47861D01*
X257411Y-46729D01*
X258024Y-45250D01*
Y-43650D01*
X257411Y-42171D01*
X256279Y-41039D01*
X254800Y-40426D01*
D02*
G37*
G36*
X178600D02*
X177000D01*
X175521Y-41039D01*
X174389Y-42171D01*
X173776Y-43650D01*
Y-45250D01*
X174389Y-46729D01*
X175521Y-47861D01*
X177000Y-48474D01*
X178600D01*
X180079Y-47861D01*
X181211Y-46729D01*
X181824Y-45250D01*
Y-43650D01*
X181211Y-42171D01*
X180079Y-41039D01*
X178600Y-40426D01*
D02*
G37*
G36*
X-55436Y-16334D02*
X-58864D01*
X-62174Y-17221D01*
X-65142Y-18935D01*
X-67565Y-21358D01*
X-69279Y-24326D01*
X-70166Y-27636D01*
Y-31064D01*
X-69279Y-34374D01*
X-67565Y-37342D01*
X-65142Y-39765D01*
X-62174Y-41479D01*
X-58864Y-42366D01*
X-55667D01*
X-55111Y-42913D01*
X-54762Y-43500D01*
X-54824Y-43650D01*
Y-45250D01*
X-54211Y-46729D01*
X-53079Y-47861D01*
X-51600Y-48474D01*
X-50000D01*
X-48521Y-47861D01*
X-47389Y-46729D01*
X-46776Y-45250D01*
Y-43650D01*
X-47389Y-42171D01*
X-48521Y-41039D01*
X-48697Y-40966D01*
X-48858Y-40547D01*
X-48900Y-39507D01*
X-46735Y-37342D01*
X-45021Y-34374D01*
X-44134Y-31064D01*
Y-27636D01*
X-45021Y-24326D01*
X-46735Y-21358D01*
X-49158Y-18935D01*
X-52126Y-17221D01*
X-55436Y-16334D01*
D02*
G37*
G36*
X-202400Y-40426D02*
X-204000D01*
X-205479Y-41039D01*
X-206611Y-42171D01*
X-207224Y-43650D01*
Y-45250D01*
X-206611Y-46729D01*
X-205479Y-47861D01*
X-204000Y-48474D01*
X-202400D01*
X-200921Y-47861D01*
X-199789Y-46729D01*
X-199176Y-45250D01*
Y-43650D01*
X-199789Y-42171D01*
X-200921Y-41039D01*
X-202400Y-40426D01*
D02*
G37*
G36*
X-354800D02*
X-356400D01*
X-357879Y-41039D01*
X-359011Y-42171D01*
X-359624Y-43650D01*
Y-45250D01*
X-359011Y-46729D01*
X-357879Y-47861D01*
X-356400Y-48474D01*
X-354800D01*
X-353321Y-47861D01*
X-352189Y-46729D01*
X-351576Y-45250D01*
Y-43650D01*
X-352189Y-42171D01*
X-353321Y-41039D01*
X-354800Y-40426D01*
D02*
G37*
G36*
X-323054Y-56960D02*
X-324646D01*
X-326116Y-57569D01*
X-327241Y-58694D01*
X-327850Y-60164D01*
Y-61756D01*
X-327241Y-63226D01*
X-326116Y-64351D01*
X-324646Y-64960D01*
X-323054D01*
X-321584Y-64351D01*
X-320459Y-63226D01*
X-319850Y-61756D01*
Y-60164D01*
X-320459Y-58694D01*
X-321584Y-57569D01*
X-323054Y-56960D01*
D02*
G37*
G36*
X276437Y-80264D02*
X274163D01*
X271967Y-80852D01*
X269997Y-81989D01*
X268389Y-83597D01*
X267253Y-85567D01*
X266664Y-87763D01*
Y-90037D01*
X267253Y-92233D01*
X268389Y-94203D01*
X269997Y-95810D01*
X271967Y-96947D01*
X274163Y-97536D01*
X276437D01*
X278633Y-96947D01*
X280603Y-95810D01*
X282211Y-94203D01*
X283347Y-92233D01*
X283936Y-90037D01*
Y-87763D01*
X283347Y-85567D01*
X282211Y-83597D01*
X280603Y-81989D01*
X278633Y-80852D01*
X276437Y-80264D01*
D02*
G37*
G36*
X-271913D02*
X-274187D01*
X-276383Y-80852D01*
X-278353Y-81989D01*
X-279960Y-83597D01*
X-281098Y-85567D01*
X-281686Y-87763D01*
Y-90037D01*
X-281098Y-92233D01*
X-279960Y-94203D01*
X-278353Y-95810D01*
X-276383Y-96947D01*
X-274187Y-97536D01*
X-271913D01*
X-269717Y-96947D01*
X-267747Y-95810D01*
X-266140Y-94203D01*
X-265002Y-92233D01*
X-264414Y-90037D01*
Y-87763D01*
X-265002Y-85567D01*
X-266140Y-83597D01*
X-267747Y-81989D01*
X-269717Y-80852D01*
X-271913Y-80264D01*
D02*
G37*
G36*
X292900Y-116626D02*
X291300D01*
X289821Y-117239D01*
X288689Y-118371D01*
X288076Y-119850D01*
Y-121450D01*
X288689Y-122929D01*
X289821Y-124061D01*
X291300Y-124674D01*
X292900D01*
X294379Y-124061D01*
X295511Y-122929D01*
X296124Y-121450D01*
Y-119850D01*
X295511Y-118371D01*
X294379Y-117239D01*
X292900Y-116626D01*
D02*
G37*
G36*
X216700D02*
X215100D01*
X213621Y-117239D01*
X212489Y-118371D01*
X211876Y-119850D01*
Y-121450D01*
X212489Y-122929D01*
X213621Y-124061D01*
X215100Y-124674D01*
X216700D01*
X218179Y-124061D01*
X219311Y-122929D01*
X219924Y-121450D01*
Y-119850D01*
X219311Y-118371D01*
X218179Y-117239D01*
X216700Y-116626D01*
D02*
G37*
G36*
X64300D02*
X62700D01*
X61221Y-117239D01*
X60089Y-118371D01*
X59476Y-119850D01*
Y-121450D01*
X60089Y-122929D01*
X61221Y-124061D01*
X62700Y-124674D01*
X64300D01*
X65779Y-124061D01*
X66911Y-122929D01*
X67524Y-121450D01*
Y-119850D01*
X66911Y-118371D01*
X65779Y-117239D01*
X64300Y-116626D01*
D02*
G37*
G36*
X-11900D02*
X-13500D01*
X-14979Y-117239D01*
X-16111Y-118371D01*
X-16724Y-119850D01*
Y-121450D01*
X-16111Y-122929D01*
X-14979Y-124061D01*
X-13500Y-124674D01*
X-11900D01*
X-10421Y-124061D01*
X-9289Y-122929D01*
X-8676Y-121450D01*
Y-119850D01*
X-9289Y-118371D01*
X-10421Y-117239D01*
X-11900Y-116626D01*
D02*
G37*
G36*
X-88100D02*
X-89700D01*
X-91179Y-117239D01*
X-92311Y-118371D01*
X-92924Y-119850D01*
Y-121450D01*
X-92311Y-122929D01*
X-91179Y-124061D01*
X-89700Y-124674D01*
X-88100D01*
X-86621Y-124061D01*
X-85489Y-122929D01*
X-84876Y-121450D01*
Y-119850D01*
X-85489Y-118371D01*
X-86621Y-117239D01*
X-88100Y-116626D01*
D02*
G37*
G36*
X-164300D02*
X-165900D01*
X-167379Y-117239D01*
X-168511Y-118371D01*
X-169124Y-119850D01*
Y-121450D01*
X-168511Y-122929D01*
X-167379Y-124061D01*
X-165900Y-124674D01*
X-164300D01*
X-162821Y-124061D01*
X-161689Y-122929D01*
X-161076Y-121450D01*
Y-119850D01*
X-161689Y-118371D01*
X-162821Y-117239D01*
X-164300Y-116626D01*
D02*
G37*
G36*
X-240500D02*
X-242100D01*
X-243579Y-117239D01*
X-244711Y-118371D01*
X-245324Y-119850D01*
Y-121450D01*
X-244711Y-122929D01*
X-243579Y-124061D01*
X-242100Y-124674D01*
X-240500D01*
X-239021Y-124061D01*
X-237889Y-122929D01*
X-237276Y-121450D01*
Y-119850D01*
X-237889Y-118371D01*
X-239021Y-117239D01*
X-240500Y-116626D01*
D02*
G37*
G36*
X-113214Y-123000D02*
X-114806D01*
X-116276Y-123609D01*
X-117401Y-124734D01*
X-118010Y-126204D01*
Y-127796D01*
X-117401Y-129266D01*
X-116276Y-130391D01*
X-114806Y-131000D01*
X-113214D01*
X-111744Y-130391D01*
X-110619Y-129266D01*
X-110010Y-127796D01*
Y-126204D01*
X-110619Y-124734D01*
X-111744Y-123609D01*
X-113214Y-123000D01*
D02*
G37*
G36*
X-123374D02*
X-124966D01*
X-126436Y-123609D01*
X-127561Y-124734D01*
X-128170Y-126204D01*
Y-127796D01*
X-127561Y-129266D01*
X-126436Y-130391D01*
X-124966Y-131000D01*
X-123374D01*
X-121904Y-130391D01*
X-120779Y-129266D01*
X-120170Y-127796D01*
Y-126204D01*
X-120779Y-124734D01*
X-121904Y-123609D01*
X-123374Y-123000D01*
D02*
G37*
G36*
X-133534D02*
X-135126D01*
X-136596Y-123609D01*
X-137721Y-124734D01*
X-138330Y-126204D01*
Y-127796D01*
X-137721Y-129266D01*
X-136596Y-130391D01*
X-135126Y-131000D01*
X-133534D01*
X-132064Y-130391D01*
X-130939Y-129266D01*
X-130330Y-127796D01*
Y-126204D01*
X-130939Y-124734D01*
X-132064Y-123609D01*
X-133534Y-123000D01*
D02*
G37*
G36*
X332279Y-81534D02*
X328121D01*
X324014Y-82184D01*
X320060Y-83469D01*
X316355Y-85357D01*
X312991Y-87801D01*
X310051Y-90741D01*
X307607Y-94105D01*
X305719Y-97810D01*
X304434Y-101764D01*
X303784Y-105871D01*
Y-110029D01*
X304434Y-114136D01*
X305719Y-118090D01*
X307607Y-121795D01*
X310051Y-125159D01*
X312991Y-128099D01*
X316355Y-130543D01*
X320060Y-132431D01*
X324014Y-133716D01*
X328121Y-134366D01*
X332279D01*
X336386Y-133716D01*
X340340Y-132431D01*
X344045Y-130543D01*
X347409Y-128099D01*
X350349Y-125159D01*
X352793Y-121795D01*
X354681Y-118090D01*
X355966Y-114136D01*
X356616Y-110029D01*
Y-105871D01*
X355966Y-101764D01*
X354681Y-97810D01*
X352793Y-94105D01*
X350349Y-90741D01*
X347409Y-87801D01*
X344045Y-85357D01*
X340340Y-83469D01*
X336386Y-82184D01*
X332279Y-81534D01*
D02*
G37*
G36*
X-328121D02*
X-332279D01*
X-336386Y-82184D01*
X-340340Y-83469D01*
X-344045Y-85357D01*
X-347409Y-87801D01*
X-350349Y-90741D01*
X-352793Y-94105D01*
X-354681Y-97810D01*
X-355966Y-101764D01*
X-356616Y-105871D01*
Y-110029D01*
X-355966Y-114136D01*
X-354681Y-118090D01*
X-352793Y-121795D01*
X-350349Y-125159D01*
X-347409Y-128099D01*
X-344045Y-130543D01*
X-340340Y-132431D01*
X-336386Y-133716D01*
X-332279Y-134366D01*
X-328121D01*
X-324014Y-133716D01*
X-320060Y-132431D01*
X-316355Y-130543D01*
X-312991Y-128099D01*
X-310051Y-125159D01*
X-307607Y-121795D01*
X-305719Y-118090D01*
X-304434Y-114136D01*
X-303784Y-110029D01*
Y-105871D01*
X-304434Y-101764D01*
X-305719Y-97810D01*
X-307607Y-94105D01*
X-310051Y-90741D01*
X-312991Y-87801D01*
X-316355Y-85357D01*
X-320060Y-83469D01*
X-324014Y-82184D01*
X-328121Y-81534D01*
D02*
G37*
G36*
X331337Y-162814D02*
X329063D01*
X326867Y-163403D01*
X324897Y-164540D01*
X323289Y-166147D01*
X322152Y-168117D01*
X321564Y-170313D01*
Y-172587D01*
X322152Y-174783D01*
X323289Y-176753D01*
X324897Y-178361D01*
X326867Y-179498D01*
X329063Y-180086D01*
X331337D01*
X333533Y-179498D01*
X335503Y-178361D01*
X337110Y-176753D01*
X338247Y-174783D01*
X338836Y-172587D01*
Y-170313D01*
X338247Y-168117D01*
X337110Y-166147D01*
X335503Y-164540D01*
X333533Y-163403D01*
X331337Y-162814D01*
D02*
G37*
G36*
X-329063D02*
X-331337D01*
X-333533Y-163403D01*
X-335503Y-164540D01*
X-337110Y-166147D01*
X-338247Y-168117D01*
X-338836Y-170313D01*
Y-172587D01*
X-338247Y-174783D01*
X-337110Y-176753D01*
X-335503Y-178361D01*
X-333533Y-179498D01*
X-331337Y-180086D01*
X-329063D01*
X-326867Y-179498D01*
X-324897Y-178361D01*
X-323289Y-176753D01*
X-322152Y-174783D01*
X-321564Y-172587D01*
Y-170313D01*
X-322152Y-168117D01*
X-323289Y-166147D01*
X-324897Y-164540D01*
X-326867Y-163403D01*
X-329063Y-162814D01*
D02*
G37*
G36*
X254800Y-192826D02*
X253200D01*
X251721Y-193439D01*
X250589Y-194571D01*
X249976Y-196050D01*
Y-197650D01*
X250589Y-199129D01*
X251721Y-200261D01*
X253200Y-200874D01*
X254800D01*
X256279Y-200261D01*
X257411Y-199129D01*
X258024Y-197650D01*
Y-196050D01*
X257411Y-194571D01*
X256279Y-193439D01*
X254800Y-192826D01*
D02*
G37*
G36*
X178600D02*
X177000D01*
X175521Y-193439D01*
X174389Y-194571D01*
X173776Y-196050D01*
Y-197650D01*
X174389Y-199129D01*
X175521Y-200261D01*
X177000Y-200874D01*
X178600D01*
X180079Y-200261D01*
X181211Y-199129D01*
X181824Y-197650D01*
Y-196050D01*
X181211Y-194571D01*
X180079Y-193439D01*
X178600Y-192826D01*
D02*
G37*
G36*
X102400D02*
X100800D01*
X99321Y-193439D01*
X98189Y-194571D01*
X97576Y-196050D01*
Y-197650D01*
X98189Y-199129D01*
X99321Y-200261D01*
X100800Y-200874D01*
X102400D01*
X103879Y-200261D01*
X105011Y-199129D01*
X105624Y-197650D01*
Y-196050D01*
X105011Y-194571D01*
X103879Y-193439D01*
X102400Y-192826D01*
D02*
G37*
G36*
X26200D02*
X24600D01*
X23121Y-193439D01*
X21989Y-194571D01*
X21376Y-196050D01*
Y-197650D01*
X21989Y-199129D01*
X23121Y-200261D01*
X24600Y-200874D01*
X26200D01*
X27679Y-200261D01*
X28811Y-199129D01*
X29424Y-197650D01*
Y-196050D01*
X28811Y-194571D01*
X27679Y-193439D01*
X26200Y-192826D01*
D02*
G37*
G36*
X-50000D02*
X-51600D01*
X-53079Y-193439D01*
X-54211Y-194571D01*
X-54824Y-196050D01*
Y-197650D01*
X-54211Y-199129D01*
X-53079Y-200261D01*
X-51600Y-200874D01*
X-50000D01*
X-48521Y-200261D01*
X-47389Y-199129D01*
X-46776Y-197650D01*
Y-196050D01*
X-47389Y-194571D01*
X-48521Y-193439D01*
X-50000Y-192826D01*
D02*
G37*
G36*
X-126200D02*
X-127800D01*
X-129279Y-193439D01*
X-130411Y-194571D01*
X-131024Y-196050D01*
Y-197650D01*
X-130411Y-199129D01*
X-129279Y-200261D01*
X-127800Y-200874D01*
X-126200D01*
X-124721Y-200261D01*
X-123589Y-199129D01*
X-122976Y-197650D01*
Y-196050D01*
X-123589Y-194571D01*
X-124721Y-193439D01*
X-126200Y-192826D01*
D02*
G37*
G36*
X-202400D02*
X-204000D01*
X-205479Y-193439D01*
X-206611Y-194571D01*
X-207224Y-196050D01*
Y-197650D01*
X-206611Y-199129D01*
X-205479Y-200261D01*
X-204000Y-200874D01*
X-202400D01*
X-200921Y-200261D01*
X-199789Y-199129D01*
X-199176Y-197650D01*
Y-196050D01*
X-199789Y-194571D01*
X-200921Y-193439D01*
X-202400Y-192826D01*
D02*
G37*
G36*
X-278600D02*
X-280200D01*
X-281679Y-193439D01*
X-282811Y-194571D01*
X-283424Y-196050D01*
Y-197650D01*
X-282811Y-199129D01*
X-281679Y-200261D01*
X-280200Y-200874D01*
X-278600D01*
X-277121Y-200261D01*
X-275989Y-199129D01*
X-275376Y-197650D01*
Y-196050D01*
X-275989Y-194571D01*
X-277121Y-193439D01*
X-278600Y-192826D01*
D02*
G37*
G36*
X-354800D02*
X-356400D01*
X-357879Y-193439D01*
X-359011Y-194571D01*
X-359624Y-196050D01*
Y-197650D01*
X-359011Y-199129D01*
X-357879Y-200261D01*
X-356400Y-200874D01*
X-354800D01*
X-353321Y-200261D01*
X-352189Y-199129D01*
X-351576Y-197650D01*
Y-196050D01*
X-352189Y-194571D01*
X-353321Y-193439D01*
X-354800Y-192826D01*
D02*
G37*
G36*
X-11205Y-230950D02*
X-12796D01*
X-14266Y-231559D01*
X-15281Y-232573D01*
X-16000Y-232633D01*
X-16720Y-232573D01*
X-17735Y-231559D01*
X-19205Y-230950D01*
X-20796D01*
X-22266Y-231559D01*
X-23391Y-232684D01*
X-24000Y-234154D01*
Y-235746D01*
X-23391Y-237216D01*
X-22266Y-238341D01*
X-20796Y-238950D01*
X-19205D01*
X-17735Y-238341D01*
X-16720Y-237327D01*
X-16000Y-237267D01*
X-15281Y-237327D01*
X-14266Y-238341D01*
X-12796Y-238950D01*
X-11205D01*
X-9735Y-238341D01*
X-8609Y-237216D01*
X-8001Y-235746D01*
Y-234154D01*
X-8609Y-232684D01*
X-9735Y-231559D01*
X-11205Y-230950D01*
D02*
G37*
G36*
X148795D02*
X147204D01*
X145734Y-231559D01*
X144719Y-232573D01*
X144000Y-232633D01*
X143280Y-232573D01*
X142265Y-231559D01*
X140795Y-230950D01*
X139204D01*
X137734Y-231559D01*
X136719Y-232573D01*
X135999Y-232633D01*
X135280Y-232573D01*
X134265Y-231559D01*
X132795Y-230950D01*
X131204D01*
X129734Y-231559D01*
X128609Y-232684D01*
X127999Y-234154D01*
Y-235746D01*
X128609Y-237216D01*
X129734Y-238341D01*
X131204Y-238950D01*
X132795D01*
X134265Y-238341D01*
X135280Y-237327D01*
X135999Y-237267D01*
X136719Y-237327D01*
X137734Y-238341D01*
X139204Y-238950D01*
X140795D01*
X142265Y-238341D01*
X143280Y-237327D01*
X144000Y-237267D01*
X144719Y-237327D01*
X145734Y-238341D01*
X147204Y-238950D01*
X148795D01*
X150265Y-238341D01*
X151391Y-237216D01*
X152000Y-235746D01*
Y-234154D01*
X151391Y-232684D01*
X150265Y-231559D01*
X148795Y-230950D01*
D02*
G37*
G36*
X331337Y-251714D02*
X329063D01*
X326867Y-252302D01*
X324897Y-253440D01*
X323289Y-255047D01*
X322152Y-257017D01*
X321564Y-259213D01*
Y-261487D01*
X322152Y-263683D01*
X323289Y-265653D01*
X324897Y-267260D01*
X326867Y-268398D01*
X329063Y-268986D01*
X331337D01*
X333533Y-268398D01*
X335503Y-267260D01*
X337110Y-265653D01*
X338247Y-263683D01*
X338836Y-261487D01*
Y-259213D01*
X338247Y-257017D01*
X337110Y-255047D01*
X335503Y-253440D01*
X333533Y-252302D01*
X331337Y-251714D01*
D02*
G37*
G36*
X-329063D02*
X-331337D01*
X-333533Y-252302D01*
X-335503Y-253440D01*
X-337110Y-255047D01*
X-338247Y-257017D01*
X-338836Y-259213D01*
Y-261487D01*
X-338247Y-263683D01*
X-337110Y-265653D01*
X-335503Y-267260D01*
X-333533Y-268398D01*
X-331337Y-268986D01*
X-329063D01*
X-326867Y-268398D01*
X-324897Y-267260D01*
X-323289Y-265653D01*
X-322152Y-263683D01*
X-321564Y-261487D01*
Y-259213D01*
X-322152Y-257017D01*
X-323289Y-255047D01*
X-324897Y-253440D01*
X-326867Y-252302D01*
X-329063Y-251714D01*
D02*
G37*
G36*
X292900Y-269026D02*
X291300D01*
X289821Y-269639D01*
X288689Y-270771D01*
X288076Y-272250D01*
Y-273850D01*
X288689Y-275329D01*
X289821Y-276461D01*
X291300Y-277074D01*
X292900D01*
X294379Y-276461D01*
X295511Y-275329D01*
X296124Y-273850D01*
Y-272250D01*
X295511Y-270771D01*
X294379Y-269639D01*
X292900Y-269026D01*
D02*
G37*
G36*
X216700D02*
X215100D01*
X213621Y-269639D01*
X212489Y-270771D01*
X211876Y-272250D01*
Y-273850D01*
X212489Y-275329D01*
X213621Y-276461D01*
X215100Y-277074D01*
X216700D01*
X218179Y-276461D01*
X219311Y-275329D01*
X219924Y-273850D01*
Y-272250D01*
X219311Y-270771D01*
X218179Y-269639D01*
X216700Y-269026D01*
D02*
G37*
G36*
X140500D02*
X138900D01*
X137421Y-269639D01*
X136289Y-270771D01*
X135676Y-272250D01*
Y-273850D01*
X136289Y-275329D01*
X137421Y-276461D01*
X138900Y-277074D01*
X140500D01*
X141979Y-276461D01*
X143111Y-275329D01*
X143724Y-273850D01*
Y-272250D01*
X143111Y-270771D01*
X141979Y-269639D01*
X140500Y-269026D01*
D02*
G37*
G36*
X64300D02*
X62700D01*
X61221Y-269639D01*
X60089Y-270771D01*
X59476Y-272250D01*
Y-273850D01*
X60089Y-275329D01*
X61221Y-276461D01*
X62700Y-277074D01*
X64300D01*
X65779Y-276461D01*
X66911Y-275329D01*
X67524Y-273850D01*
Y-272250D01*
X66911Y-270771D01*
X65779Y-269639D01*
X64300Y-269026D01*
D02*
G37*
G36*
X-11900D02*
X-13500D01*
X-14979Y-269639D01*
X-16111Y-270771D01*
X-16724Y-272250D01*
Y-273850D01*
X-16111Y-275329D01*
X-14979Y-276461D01*
X-13500Y-277074D01*
X-11900D01*
X-10421Y-276461D01*
X-9289Y-275329D01*
X-8676Y-273850D01*
Y-272250D01*
X-9289Y-270771D01*
X-10421Y-269639D01*
X-11900Y-269026D01*
D02*
G37*
G36*
X-88100D02*
X-89700D01*
X-91179Y-269639D01*
X-92311Y-270771D01*
X-92924Y-272250D01*
Y-273850D01*
X-92311Y-275329D01*
X-91179Y-276461D01*
X-89700Y-277074D01*
X-88100D01*
X-86621Y-276461D01*
X-85489Y-275329D01*
X-84876Y-273850D01*
Y-272250D01*
X-85489Y-270771D01*
X-86621Y-269639D01*
X-88100Y-269026D01*
D02*
G37*
G36*
X-164300D02*
X-165900D01*
X-167379Y-269639D01*
X-168511Y-270771D01*
X-169124Y-272250D01*
Y-273850D01*
X-168511Y-275329D01*
X-167379Y-276461D01*
X-165900Y-277074D01*
X-164300D01*
X-162821Y-276461D01*
X-161689Y-275329D01*
X-161076Y-273850D01*
Y-272250D01*
X-161689Y-270771D01*
X-162821Y-269639D01*
X-164300Y-269026D01*
D02*
G37*
G36*
X-240500D02*
X-242100D01*
X-243579Y-269639D01*
X-244711Y-270771D01*
X-245324Y-272250D01*
Y-273850D01*
X-244711Y-275329D01*
X-243579Y-276461D01*
X-242100Y-277074D01*
X-240500D01*
X-239021Y-276461D01*
X-237889Y-275329D01*
X-237276Y-273850D01*
Y-272250D01*
X-237889Y-270771D01*
X-239021Y-269639D01*
X-240500Y-269026D01*
D02*
G37*
G36*
X-316700D02*
X-318300D01*
X-319779Y-269639D01*
X-320911Y-270771D01*
X-321524Y-272250D01*
Y-273850D01*
X-320911Y-275329D01*
X-319779Y-276461D01*
X-318300Y-277074D01*
X-316700D01*
X-315221Y-276461D01*
X-314089Y-275329D01*
X-313476Y-273850D01*
Y-272250D01*
X-314089Y-270771D01*
X-315221Y-269639D01*
X-316700Y-269026D01*
D02*
G37*
G36*
X36796Y-307150D02*
X35205D01*
X33735Y-307759D01*
X32720Y-308773D01*
X32001Y-308833D01*
X31281Y-308773D01*
X30266Y-307759D01*
X28796Y-307150D01*
X27205D01*
X25735Y-307759D01*
X24609Y-308884D01*
X24000Y-310354D01*
Y-311946D01*
X24609Y-313416D01*
X25735Y-314541D01*
X27205Y-315150D01*
X28796D01*
X30266Y-314541D01*
X31281Y-313527D01*
X32001Y-313467D01*
X32720Y-313527D01*
X33735Y-314541D01*
X35205Y-315150D01*
X36796D01*
X38266Y-314541D01*
X39392Y-313416D01*
X40001Y-311946D01*
Y-310354D01*
X39392Y-308884D01*
X38266Y-307759D01*
X36796Y-307150D01*
D02*
G37*
G36*
X-131204D02*
X-132795D01*
X-134265Y-307759D01*
X-135280Y-308773D01*
X-135999Y-308833D01*
X-136719Y-308773D01*
X-137734Y-307759D01*
X-139204Y-307150D01*
X-140795D01*
X-142265Y-307759D01*
X-143280Y-308773D01*
X-144000Y-308833D01*
X-144719Y-308773D01*
X-145734Y-307759D01*
X-147204Y-307150D01*
X-148795D01*
X-150265Y-307759D01*
X-151391Y-308884D01*
X-152000Y-310354D01*
Y-311946D01*
X-151391Y-313416D01*
X-150265Y-314541D01*
X-148795Y-315150D01*
X-147204D01*
X-145734Y-314541D01*
X-144719Y-313527D01*
X-144000Y-313467D01*
X-143280Y-313527D01*
X-142265Y-314541D01*
X-140795Y-315150D01*
X-139204D01*
X-137734Y-314541D01*
X-136719Y-313527D01*
X-135999Y-313467D01*
X-135280Y-313527D01*
X-134265Y-314541D01*
X-132795Y-315150D01*
X-131204D01*
X-129734Y-314541D01*
X-128609Y-313416D01*
X-127999Y-311946D01*
Y-310354D01*
X-128609Y-308884D01*
X-129734Y-307759D01*
X-131204Y-307150D01*
D02*
G37*
G36*
X12796D02*
X11205D01*
X9735Y-307759D01*
X8720Y-308773D01*
X8001Y-308833D01*
X7281Y-308773D01*
X6266Y-307759D01*
X4796Y-307150D01*
X3205D01*
X1735Y-307759D01*
X609Y-308884D01*
X0Y-310354D01*
Y-311946D01*
X609Y-313416D01*
X1735Y-314541D01*
X3205Y-315150D01*
X4796D01*
X6266Y-314541D01*
X7281Y-313527D01*
X8001Y-313467D01*
X8720Y-313527D01*
X9735Y-314541D01*
X11205Y-315150D01*
X12796D01*
X14266Y-314541D01*
X15391Y-313416D01*
X16000Y-311946D01*
Y-310354D01*
X15391Y-308884D01*
X14266Y-307759D01*
X12796Y-307150D01*
D02*
G37*
G36*
X332279Y-297434D02*
X328121D01*
X324014Y-298084D01*
X320060Y-299369D01*
X316355Y-301257D01*
X312991Y-303701D01*
X310051Y-306641D01*
X307607Y-310005D01*
X305719Y-313710D01*
X304434Y-317664D01*
X303784Y-321771D01*
Y-325929D01*
X304434Y-330036D01*
X305719Y-333990D01*
X307607Y-337695D01*
X310051Y-341059D01*
X312991Y-343999D01*
X316355Y-346443D01*
X320060Y-348331D01*
X324014Y-349616D01*
X328121Y-350266D01*
X332279D01*
X336386Y-349616D01*
X340340Y-348331D01*
X344045Y-346443D01*
X347409Y-343999D01*
X350349Y-341059D01*
X352793Y-337695D01*
X354681Y-333990D01*
X355966Y-330036D01*
X356616Y-325929D01*
Y-321771D01*
X355966Y-317664D01*
X354681Y-313710D01*
X352793Y-310005D01*
X350349Y-306641D01*
X347409Y-303701D01*
X344045Y-301257D01*
X340340Y-299369D01*
X336386Y-298084D01*
X332279Y-297434D01*
D02*
G37*
G36*
X-328121D02*
X-332279D01*
X-336386Y-298084D01*
X-340340Y-299369D01*
X-344045Y-301257D01*
X-347409Y-303701D01*
X-350349Y-306641D01*
X-352793Y-310005D01*
X-354681Y-313710D01*
X-355966Y-317664D01*
X-356616Y-321771D01*
Y-325929D01*
X-355966Y-330036D01*
X-354681Y-333990D01*
X-352793Y-337695D01*
X-350349Y-341059D01*
X-347409Y-343999D01*
X-344045Y-346443D01*
X-340340Y-348331D01*
X-336386Y-349616D01*
X-332279Y-350266D01*
X-328121D01*
X-324014Y-349616D01*
X-320060Y-348331D01*
X-316355Y-346443D01*
X-312991Y-343999D01*
X-310051Y-341059D01*
X-307607Y-337695D01*
X-305719Y-333990D01*
X-304434Y-330036D01*
X-303784Y-325929D01*
Y-321771D01*
X-304434Y-317664D01*
X-305719Y-313710D01*
X-307607Y-310005D01*
X-310051Y-306641D01*
X-312991Y-303701D01*
X-316355Y-301257D01*
X-320060Y-299369D01*
X-324014Y-298084D01*
X-328121Y-297434D01*
D02*
G37*
G36*
X254800Y-345226D02*
X253200D01*
X251721Y-345839D01*
X250589Y-346971D01*
X249976Y-348450D01*
Y-350050D01*
X250589Y-351529D01*
X251721Y-352661D01*
X253200Y-353274D01*
X254800D01*
X256279Y-352661D01*
X257411Y-351529D01*
X258024Y-350050D01*
Y-348450D01*
X257411Y-346971D01*
X256279Y-345839D01*
X254800Y-345226D01*
D02*
G37*
G36*
X178600D02*
X177000D01*
X175521Y-345839D01*
X174389Y-346971D01*
X173776Y-348450D01*
Y-350050D01*
X174389Y-351529D01*
X175521Y-352661D01*
X177000Y-353274D01*
X178600D01*
X180079Y-352661D01*
X181211Y-351529D01*
X181824Y-350050D01*
Y-348450D01*
X181211Y-346971D01*
X180079Y-345839D01*
X178600Y-345226D01*
D02*
G37*
G36*
X102400D02*
X100800D01*
X99321Y-345839D01*
X98189Y-346971D01*
X97576Y-348450D01*
Y-350050D01*
X98189Y-351529D01*
X99321Y-352661D01*
X100800Y-353274D01*
X102400D01*
X103879Y-352661D01*
X105011Y-351529D01*
X105624Y-350050D01*
Y-348450D01*
X105011Y-346971D01*
X103879Y-345839D01*
X102400Y-345226D01*
D02*
G37*
G36*
X26200D02*
X24600D01*
X23121Y-345839D01*
X21989Y-346971D01*
X21376Y-348450D01*
Y-350050D01*
X21989Y-351529D01*
X23121Y-352661D01*
X24600Y-353274D01*
X26200D01*
X27679Y-352661D01*
X28811Y-351529D01*
X29424Y-350050D01*
Y-348450D01*
X28811Y-346971D01*
X27679Y-345839D01*
X26200Y-345226D01*
D02*
G37*
G36*
X-50000D02*
X-51600D01*
X-53079Y-345839D01*
X-54211Y-346971D01*
X-54824Y-348450D01*
Y-350050D01*
X-54211Y-351529D01*
X-53079Y-352661D01*
X-51600Y-353274D01*
X-50000D01*
X-48521Y-352661D01*
X-47389Y-351529D01*
X-46776Y-350050D01*
Y-348450D01*
X-47389Y-346971D01*
X-48521Y-345839D01*
X-50000Y-345226D01*
D02*
G37*
G36*
X-126200D02*
X-127800D01*
X-129279Y-345839D01*
X-130411Y-346971D01*
X-131024Y-348450D01*
Y-350050D01*
X-130411Y-351529D01*
X-129279Y-352661D01*
X-127800Y-353274D01*
X-126200D01*
X-124721Y-352661D01*
X-123589Y-351529D01*
X-122976Y-350050D01*
Y-348450D01*
X-123589Y-346971D01*
X-124721Y-345839D01*
X-126200Y-345226D01*
D02*
G37*
G36*
X-202400D02*
X-204000D01*
X-205479Y-345839D01*
X-206611Y-346971D01*
X-207224Y-348450D01*
Y-350050D01*
X-206611Y-351529D01*
X-205479Y-352661D01*
X-204000Y-353274D01*
X-202400D01*
X-200921Y-352661D01*
X-199789Y-351529D01*
X-199176Y-350050D01*
Y-348450D01*
X-199789Y-346971D01*
X-200921Y-345839D01*
X-202400Y-345226D01*
D02*
G37*
G36*
X-278600D02*
X-280200D01*
X-281679Y-345839D01*
X-282811Y-346971D01*
X-283424Y-348450D01*
Y-350050D01*
X-282811Y-351529D01*
X-281679Y-352661D01*
X-280200Y-353274D01*
X-278600D01*
X-277121Y-352661D01*
X-275989Y-351529D01*
X-275376Y-350050D01*
Y-348450D01*
X-275989Y-346971D01*
X-277121Y-345839D01*
X-278600Y-345226D01*
D02*
G37*
%LPD*%
D45*
X59400Y69850D02*
D03*
X25400D02*
D03*
X59400Y-29350D02*
D03*
X25400D02*
D03*
X-57150D02*
D03*
X-23150Y-29350D02*
D03*
X-57150Y69850D02*
D03*
X-23150Y69850D02*
D03*
D46*
X-273050Y-88900D02*
D03*
X275300D02*
D03*
X29700Y120650D02*
D03*
X55100D02*
D03*
X-52850Y120650D02*
D03*
X-27450D02*
D03*
X228600Y38100D02*
D03*
X-226350D02*
D03*
X254000Y107950D02*
D03*
X-254000D02*
D03*
X-330200Y-260350D02*
D03*
X330200Y0D02*
D03*
X-330200D02*
D03*
Y-171450D02*
D03*
X330200Y-260350D02*
D03*
Y-171450D02*
D03*
D47*
X118450Y122900D02*
D03*
X-177400D02*
D03*
D48*
X129250Y88900D02*
D03*
X-166600D02*
D03*
D49*
X168850D02*
D03*
X-127000D02*
D03*
D50*
X330200Y107950D02*
D03*
X-330200D02*
D03*
Y-107950D02*
D03*
Y-323850D02*
D03*
X330200D02*
D03*
Y-107950D02*
D03*
D51*
X254000Y-44450D02*
D03*
X292100Y-120650D02*
D03*
X254000Y-196850D02*
D03*
X292100Y-273050D02*
D03*
X254000Y-349250D02*
D03*
X177800Y-44450D02*
D03*
X215900Y-120650D02*
D03*
X177800Y-196850D02*
D03*
X215900Y-273050D02*
D03*
X177800Y-349250D02*
D03*
X139700Y31750D02*
D03*
X101600Y-196850D02*
D03*
X139700Y-273050D02*
D03*
X101600Y-349250D02*
D03*
X63500Y31750D02*
D03*
Y-120650D02*
D03*
X25400Y-196850D02*
D03*
X63500Y-273050D02*
D03*
X25400Y-349250D02*
D03*
X-12700Y31750D02*
D03*
X-50800Y-44450D02*
D03*
X-12700Y-120650D02*
D03*
X-50800Y-196850D02*
D03*
X-12700Y-273050D02*
D03*
X-50800Y-349250D02*
D03*
X-88900Y31750D02*
D03*
Y-120650D02*
D03*
X-127000Y-196850D02*
D03*
X-88900Y-273050D02*
D03*
X-127000Y-349250D02*
D03*
X-165100Y31750D02*
D03*
X-203200Y-44450D02*
D03*
X-165100Y-120650D02*
D03*
X-203200Y-196850D02*
D03*
X-165100Y-273050D02*
D03*
X-203200Y-349250D02*
D03*
X-241300Y31750D02*
D03*
Y-120650D02*
D03*
X-279400Y-196850D02*
D03*
X-241300Y-273050D02*
D03*
X-279400Y-349250D02*
D03*
X-317500Y31750D02*
D03*
X-355600Y-44450D02*
D03*
Y-196850D02*
D03*
X-317500Y-273050D02*
D03*
D52*
X-12000Y-311150D02*
D03*
X36000D02*
D03*
X28001D02*
D03*
X-132000D02*
D03*
X-140000D02*
D03*
X-147999D02*
D03*
X12000D02*
D03*
X4001D02*
D03*
X-20000D02*
D03*
X148000D02*
D03*
X140000D02*
D03*
X132001D02*
D03*
X147999Y-234950D02*
D03*
X140000D02*
D03*
X132000D02*
D03*
X-12000D02*
D03*
X-20001D02*
D03*
X-148000Y-234950D02*
D03*
X-140000D02*
D03*
X-132000D02*
D03*
X-306500Y34925D02*
D03*
X308500Y35200D02*
D03*
X-134330Y-127000D02*
D03*
X-114010D02*
D03*
X-124170D02*
D03*
X119380D02*
D03*
X129540D02*
D03*
X109220D02*
D03*
X326100Y-60960D02*
D03*
X-323850Y-60960D02*
D03*
M02*
