M48
;Layer_Color=9474304
;FILE_FORMAT=4:4
METRIC,LZ
;TYPE=PLATED
T01F00S00C0.2540
T02F00S00C0.3000
T03F00S00C1.0160
T04F00S00C1.8900
T05F00S00C3.4000
;TYPE=NON_PLATED
T06F00S00C1.8600
%
T01
X000762Y000127
X0004445Y000762
X0010795
X001397Y000127
X005207
X005842
X0061595Y000762
X0067945
X0055245
X005842Y001397
X006477
X0061595Y002032
X0055245
X005207Y001397
X0048895Y002032
X0042545
X0036195
X0029845
X0023495
X0017145
X0010795
X001397Y001397
X000762
X000127
X0004445Y002032
T02
X001742Y000415
X001822
X001902
X001982
X002062
X002222
X002302
X002542
X002782
X002942
X003022
X003262
X003502
X003662
X003742
X00398024Y00041675
X004062Y000415
X004222
X004382
X004542
X004862
Y000855
X004782
X004702
X004622
X004542
X004462
X00438376Y00085324
X004302Y000855
X004222
X003982
X003742
X003502
X003342
X003262
X003182
X003102
X003022
X002942
X002782
X002542
X002462
X002302
X002062
X001742
X001902Y000572
X004702Y000702
T03
X001905Y-000127
X002159
X002413
X002667
X002921
X003175
X003429
X003683
X003937
X004191
X004445
X004699
Y000127
X004445
X004191
X003937
X003683
X003429
X003175
X002921
X002667
X002413
X002159
X001905
Y0012065
X002159
X002413
X002667
X002921
X003175
X003429
X003683
X003937
X004191
X004445
X004699
Y0014605
X004445
X004191
X003937
X003683
X003429
X003175
X002921
X002667
X002413
X002159
X001905
T04
X000747Y0004445
X001143
X005461
X005857
T05
X0Y0001905
X006604
Y0023495
X0
T06
X001251Y0007845
X005965
M30
