G04*
G04 #@! TF.GenerationSoftware,Altium Limited,Altium Designer,24.2.2 (26)*
G04*
G04 Layer_Color=32768*
%FSLAX44Y44*%
%MOMM*%
G71*
G04*
G04 #@! TF.SameCoordinates,D28C2298-B94A-46E3-96D8-F5CEDD955656*
G04*
G04*
G04 #@! TF.FilePolarity,Positive*
G04*
G01*
G75*
%ADD13C,0.1524*%
%ADD84C,0.1000*%
%ADD86C,0.0500*%
D13*
X297180Y175260D02*
X299974Y138430D01*
D84*
X670890Y144780D02*
X680390D01*
X675640Y149530D02*
X675640Y140030D01*
X670890Y266700D02*
X680390D01*
X675640Y271450D02*
X675640Y261950D01*
X472440Y156540D02*
Y166040D01*
X467690Y161290D02*
X477190Y161290D01*
X487680Y156540D02*
Y166040D01*
X482930Y161290D02*
X492430D01*
X548640Y156540D02*
Y166040D01*
X543890Y161290D02*
X553390D01*
X563880Y166040D02*
X563880Y156540D01*
X559130Y161290D02*
X568630Y161290D01*
X477520Y192250D02*
Y201750D01*
X472770Y197000D02*
X482270D01*
X558800Y201750D02*
X558800Y192250D01*
X554050Y197000D02*
X563550Y197000D01*
X411810Y286350D02*
X421310D01*
X416560Y281600D02*
Y291100D01*
X269240Y281600D02*
Y291100D01*
X264490Y286350D02*
X273990D01*
X172650Y215520D02*
Y225020D01*
X167900Y220270D02*
X177400D01*
X165100Y183210D02*
Y192710D01*
X160350Y187960D02*
X169850D01*
X180340Y183210D02*
Y192710D01*
X175590Y187960D02*
X185090D01*
X354330Y179400D02*
Y188900D01*
X349580Y184150D02*
X359080D01*
X262330Y401320D02*
X271830D01*
X267080Y396570D02*
Y406070D01*
X226390Y421640D02*
X235890D01*
X231140Y416890D02*
Y426390D01*
X226390Y436880D02*
X235890D01*
X231140Y432130D02*
Y441630D01*
X397510Y331800D02*
Y341300D01*
X392760Y336550D02*
X402260D01*
X367030Y331800D02*
Y341300D01*
X362280Y336550D02*
X371780D01*
X73510Y404540D02*
X83010D01*
X78260Y399790D02*
Y409290D01*
X377520Y336550D02*
X387020D01*
X382270Y331800D02*
Y341300D01*
X370840Y371170D02*
Y380670D01*
X366090Y375920D02*
X375590D01*
X370840Y386410D02*
Y395910D01*
X366090Y391160D02*
X375590Y391160D01*
X-24990Y213360D02*
X-15490Y213360D01*
X-20240Y208610D02*
Y218110D01*
X-5000Y208610D02*
Y218110D01*
X-9750Y213360D02*
X-250Y213360D01*
X-9750Y259080D02*
X-250D01*
X-5000Y263830D02*
X-5000Y254330D01*
X-24990Y259080D02*
X-15490D01*
X-20240Y254330D02*
Y263830D01*
X25480Y208360D02*
Y218360D01*
X20480Y213360D02*
X30480D01*
X25480Y264080D02*
X25480Y254080D01*
X20480Y259080D02*
X30480D01*
X331800Y346710D02*
X341300D01*
X336550Y341960D02*
Y351460D01*
X316560Y346710D02*
X326060D01*
X321310Y341960D02*
Y351460D01*
X119710Y134620D02*
X129210D01*
X124460Y129870D02*
Y139370D01*
X391490Y190500D02*
X400990D01*
X396240Y185750D02*
Y195250D01*
X264490Y250350D02*
X273990D01*
X269240Y245600D02*
Y255100D01*
X391490Y175260D02*
X400990D01*
X396240Y170510D02*
Y180010D01*
X215900Y129870D02*
Y139370D01*
X211150Y134620D02*
X220650D01*
X297180Y170510D02*
Y180010D01*
X292430Y175260D02*
X301930D01*
X416560Y245600D02*
Y255100D01*
X411810Y250350D02*
X421310D01*
X301320Y346710D02*
X310820D01*
X306070Y341960D02*
Y351460D01*
X334340Y184150D02*
X343840D01*
X339090Y179400D02*
Y188900D01*
D86*
X616590Y155080D02*
Y256480D01*
X700890D01*
Y155080D02*
Y256480D01*
X616590Y155080D02*
X700890D01*
X691140Y152280D02*
X691140Y137280D01*
X660140D02*
Y152280D01*
Y137280D02*
X691140D01*
X660140Y152280D02*
X691140Y152280D01*
Y259200D02*
Y274200D01*
X660140D02*
X660140Y259200D01*
X691140D01*
X660140Y274200D02*
X691140D01*
X503660Y203000D02*
X503660Y178000D01*
X532660Y178000D01*
Y203000D01*
X503660Y203000D02*
X532660Y203000D01*
X464940Y145790D02*
X479940Y145790D01*
X464940Y176790D02*
X479940Y176790D01*
X464940Y145790D02*
Y176790D01*
X479940Y145790D02*
Y176790D01*
X480180Y145790D02*
X495180Y145790D01*
X480180Y176790D02*
X495180Y176790D01*
X480180Y145790D02*
Y176790D01*
X495180Y145790D02*
Y176790D01*
X541140Y145790D02*
X556140Y145790D01*
X541140Y176790D02*
X556140Y176790D01*
X541140Y145790D02*
Y176790D01*
X556140Y145790D02*
Y176790D01*
X556380Y145790D02*
X571380Y145790D01*
X556380Y176790D02*
X571380Y176790D01*
X556380Y145790D02*
Y176790D01*
X571380Y145790D02*
Y176790D01*
X462020Y189500D02*
X493020D01*
X462020Y204500D02*
X493020Y204500D01*
X493020Y189500D02*
X493020Y204500D01*
X462020Y189500D02*
Y204500D01*
X543300D02*
X574300D01*
X543300Y189500D02*
X574300D01*
X543300D02*
Y204500D01*
X574300Y189500D02*
Y204500D01*
X374770Y321050D02*
Y352050D01*
X389770Y321050D02*
Y352050D01*
X374770Y321050D02*
X389770D01*
X374770Y352050D02*
X389770D01*
X432060Y278850D02*
Y293850D01*
X401060Y278850D02*
Y293850D01*
Y278850D02*
X432060D01*
X401060Y293850D02*
X432060D01*
X253740Y278850D02*
X284740D01*
X253740Y293850D02*
X284740D01*
Y278850D02*
Y293850D01*
X253740Y278850D02*
Y293850D01*
X165150Y204770D02*
X180150D01*
X165150Y235770D02*
X180150D01*
X165150Y204770D02*
Y235770D01*
X180150Y204770D02*
Y235770D01*
X157600Y172460D02*
X172600D01*
X157600Y203460D02*
X172600D01*
X157600Y172460D02*
Y203460D01*
X172600Y172460D02*
Y203460D01*
X172840Y203460D02*
X187840D01*
X172840Y172460D02*
X187840D01*
Y203460D01*
X172840Y172460D02*
X172840Y203460D01*
X152790Y411170D02*
X245990D01*
X152790Y353370D02*
X245990D01*
X152790D02*
Y411170D01*
X245990Y353370D02*
Y411170D01*
X301850Y219300D02*
X383950D01*
X301850Y301400D02*
X383950D01*
X301850Y219300D02*
Y301400D01*
X383950Y219300D02*
Y301400D01*
X346830Y168650D02*
X361830D01*
X346830Y199650D02*
X361830D01*
X346830Y168650D02*
Y199650D01*
X361830Y168650D02*
Y199650D01*
X282580Y393820D02*
X282580Y408820D01*
X251580Y393820D02*
Y408820D01*
Y393820D02*
X282580D01*
X251580Y408820D02*
X282580D01*
X215640Y414140D02*
Y429140D01*
X246640Y414140D02*
Y429140D01*
X215640D02*
X246640D01*
X215640Y414140D02*
X246640D01*
X215640Y429380D02*
Y444380D01*
X246640Y429380D02*
Y444380D01*
X215640D02*
X246640D01*
X215640Y429380D02*
X246640D01*
X194870Y414570D02*
Y451570D01*
X137870D02*
X194870D01*
X137870D02*
X137870Y414570D01*
X194870D01*
X390010Y352050D02*
X405010D01*
X390010Y321050D02*
X405010D01*
Y352050D01*
X390010Y321050D02*
Y352050D01*
X359530D02*
X374530D01*
X359530Y321050D02*
X374530D01*
Y352050D01*
X359530Y321050D02*
Y352050D01*
X119510Y415250D02*
Y452250D01*
X62510D02*
X119510D01*
X62510Y415250D02*
Y452250D01*
Y415250D02*
X119510D01*
X93760Y397040D02*
Y412040D01*
X62760Y397040D02*
Y412040D01*
Y397040D02*
X93760D01*
X62760Y412040D02*
X93760D01*
X355340Y368420D02*
X386340D01*
X355340Y383420D02*
X386340D01*
Y368420D02*
Y383420D01*
X355340D02*
X355340Y368420D01*
Y383660D02*
X386340D01*
X355340Y398660D02*
X386340D01*
Y383660D02*
Y398660D01*
X355340D02*
X355340Y383660D01*
X-27740Y197860D02*
X-27740Y228860D01*
X-12740Y197860D02*
Y228860D01*
X-27740Y197860D02*
X-12740D01*
X-27740Y228860D02*
X-12740Y228860D01*
X-12500Y228860D02*
X2500D01*
X-12500Y197860D02*
X2500Y197860D01*
Y228860D01*
X-12500D02*
X-12500Y197860D01*
X-12500Y243580D02*
Y274580D01*
X2500Y243580D02*
Y274580D01*
X-12500Y243580D02*
X2500D01*
X-12500Y274580D02*
X2500Y274580D01*
X-27740D02*
X-27740Y243580D01*
X-12740D02*
Y274580D01*
X-27740Y243580D02*
X-12740D01*
X-27740Y274580D02*
X-12740D01*
X6230Y230860D02*
X44730Y230860D01*
X6230Y195860D02*
X44730D01*
X6230D02*
Y230860D01*
X44730Y230860D02*
X44730Y195860D01*
X6230Y276580D02*
X44730D01*
X6230Y241580D02*
X44730Y241580D01*
X6230Y276580D02*
X6230Y241580D01*
X44730Y241580D02*
Y276580D01*
X591230Y32720D02*
X676230D01*
Y127720D01*
X591230D02*
X676230D01*
X591230Y32720D02*
Y127720D01*
X331590Y199650D02*
X346590D01*
X331590Y168650D02*
X346590D01*
X329050Y331210D02*
Y362210D01*
X344050Y331210D02*
Y362210D01*
X329050Y331210D02*
X344050D01*
X329050Y362210D02*
X344050D01*
X313810Y331210D02*
Y362210D01*
X328810Y331210D02*
Y362210D01*
X313810Y331210D02*
X328810D01*
X313810Y362210D02*
X328810D01*
X521700Y16300D02*
Y85300D01*
X138700D02*
X521700D01*
X138700Y16300D02*
Y85300D01*
Y16300D02*
X521700D01*
X108960Y127120D02*
Y142120D01*
X139960Y127120D02*
Y142120D01*
X108960D02*
X139960D01*
X108960Y127120D02*
X139960D01*
X411740Y183000D02*
Y198000D01*
X380740Y183000D02*
Y198000D01*
Y183000D02*
X411740D01*
X380740Y198000D02*
X411740D01*
X253740Y242850D02*
Y257850D01*
X284740Y242850D02*
Y257850D01*
X253740D02*
X284740D01*
X253740Y242850D02*
X284740D01*
X411740Y167760D02*
X411740Y182760D01*
X380740Y167760D02*
Y182760D01*
Y167760D02*
X411740D01*
X380740Y182760D02*
X411740D01*
X138700Y16300D02*
X521700D01*
Y85300D01*
X138700D02*
X521700D01*
X138700Y16300D02*
Y85300D01*
X200400Y142120D02*
X231400D01*
X200400Y127120D02*
X231400D01*
X200400D02*
Y142120D01*
X231400Y127120D02*
Y142120D01*
X151800Y161070D02*
X193500D01*
Y127070D02*
Y161070D01*
X151800Y127070D02*
X193500D01*
X151800D02*
Y161070D01*
X281680Y167760D02*
X312680D01*
X281680Y182760D02*
X312680D01*
Y167760D02*
Y182760D01*
X281680Y167760D02*
Y182760D01*
X401060Y257850D02*
X432060D01*
X401060Y242850D02*
X432060D01*
X401060D02*
Y257850D01*
X432060Y242850D02*
Y257850D01*
X298570Y331210D02*
Y362210D01*
X313570Y331210D02*
Y362210D01*
X298570Y331210D02*
X313570D01*
X298570Y362210D02*
X313570D01*
X346590Y168650D02*
Y199650D01*
X331590Y168650D02*
Y199650D01*
M02*
