G04*
G04 #@! TF.GenerationSoftware,Altium Limited,Altium Designer,24.2.2 (26)*
G04*
G04 Layer_Color=255*
%FSLAX44Y44*%
%MOMM*%
G71*
G04*
G04 #@! TF.SameCoordinates,D28C2298-B94A-46E3-96D8-F5CEDD955656*
G04*
G04*
G04 #@! TF.FilePolarity,Positive*
G04*
G01*
G75*
%ADD21C,1.5240*%
%ADD32R,0.5000X2.0000*%
%ADD64C,0.6500*%
%ADD65O,2.1000X1.0000*%
G04:AMPARAMS|DCode=66|XSize=1.8mm|YSize=1mm|CornerRadius=0.25mm|HoleSize=0mm|Usage=FLASHONLY|Rotation=180.000|XOffset=0mm|YOffset=0mm|HoleType=Round|Shape=RoundedRectangle|*
%AMROUNDEDRECTD66*
21,1,1.8000,0.5000,0,0,180.0*
21,1,1.3000,1.0000,0,0,180.0*
1,1,0.5000,-0.6500,0.2500*
1,1,0.5000,0.6500,0.2500*
1,1,0.5000,0.6500,-0.2500*
1,1,0.5000,-0.6500,-0.2500*
%
%ADD66ROUNDEDRECTD66*%
%ADD67C,1.0000*%
%ADD68C,0.4524*%
%ADD69C,5.0800*%
D21*
X0Y355600D02*
D03*
Y304800D02*
D03*
X25400Y355600D02*
D03*
Y304800D02*
D03*
X0Y381000D02*
D03*
Y330200D02*
D03*
X25400Y381000D02*
D03*
Y330200D02*
D03*
D32*
X406200Y28800D02*
D03*
X382200Y28800D02*
D03*
X390200D02*
D03*
X414200D02*
D03*
X486200D02*
D03*
Y72800D02*
D03*
X478200Y28800D02*
D03*
Y72800D02*
D03*
X470200Y28800D02*
D03*
Y72800D02*
D03*
X462200Y28800D02*
D03*
Y72800D02*
D03*
X454200Y28800D02*
D03*
Y72800D02*
D03*
X446200Y28800D02*
D03*
Y72800D02*
D03*
X438200Y28800D02*
D03*
Y72800D02*
D03*
X430200Y28800D02*
D03*
Y72800D02*
D03*
X422200Y28800D02*
D03*
Y72800D02*
D03*
X414200D02*
D03*
X406200Y72800D02*
D03*
X398200Y28800D02*
D03*
Y72800D02*
D03*
X390200Y72800D02*
D03*
X382200D02*
D03*
X374200Y28800D02*
D03*
Y72800D02*
D03*
X366200Y28800D02*
D03*
Y72800D02*
D03*
X358200Y28800D02*
D03*
Y72800D02*
D03*
X350200Y28800D02*
D03*
Y72800D02*
D03*
X342200Y28800D02*
D03*
Y72800D02*
D03*
X334200Y28800D02*
D03*
Y72800D02*
D03*
X326200Y28800D02*
D03*
Y72800D02*
D03*
X318200Y28800D02*
D03*
Y72800D02*
D03*
X310200Y28800D02*
D03*
Y72800D02*
D03*
X302200Y28800D02*
D03*
Y72800D02*
D03*
X294200Y28800D02*
D03*
Y72800D02*
D03*
X286200Y28800D02*
D03*
Y72800D02*
D03*
X278200Y28800D02*
D03*
Y72800D02*
D03*
X270200Y28800D02*
D03*
Y72800D02*
D03*
X262200Y28800D02*
D03*
Y72800D02*
D03*
X254200Y28800D02*
D03*
Y72800D02*
D03*
X246200Y28800D02*
D03*
Y72800D02*
D03*
X238200Y28800D02*
D03*
Y72800D02*
D03*
X230200Y28800D02*
D03*
Y72800D02*
D03*
X222200Y28800D02*
D03*
Y72800D02*
D03*
X214200Y28800D02*
D03*
Y72800D02*
D03*
X206200Y28800D02*
D03*
Y72800D02*
D03*
X198200Y28800D02*
D03*
Y72800D02*
D03*
X190200Y28800D02*
D03*
Y72800D02*
D03*
X182200Y28800D02*
D03*
Y72800D02*
D03*
X174200Y28800D02*
D03*
Y72800D02*
D03*
D64*
X635590Y176880D02*
D03*
Y234680D02*
D03*
D65*
X630590Y248980D02*
D03*
Y162580D02*
D03*
D66*
X672390Y248980D02*
D03*
Y162580D02*
D03*
D67*
X38100Y124460D02*
D03*
Y111760D02*
D03*
Y99060D02*
D03*
Y86360D02*
D03*
Y73660D02*
D03*
X25400Y124460D02*
D03*
Y111760D02*
D03*
Y99060D02*
D03*
Y86360D02*
D03*
Y73660D02*
D03*
D68*
X518160Y186500D02*
D03*
X518160Y194500D02*
D03*
D69*
X0Y431800D02*
D03*
X660400D02*
D03*
X0Y0D02*
D03*
X660400D02*
D03*
M02*
