G04*
G04 #@! TF.GenerationSoftware,Altium Limited,Altium Designer,24.2.2 (26)*
G04*
G04 Layer_Physical_Order=4*
G04 Layer_Color=16711680*
%FSLAX44Y44*%
%MOMM*%
G71*
G04*
G04 #@! TF.SameCoordinates,D28C2298-B94A-46E3-96D8-F5CEDD955656*
G04*
G04*
G04 #@! TF.FilePolarity,Positive*
G04*
G01*
G75*
%ADD11C,0.2540*%
%ADD13C,0.1524*%
%ADD14C,0.1270*%
%ADD21C,1.5240*%
%ADD32R,0.5000X2.0000*%
%ADD63C,0.1016*%
%ADD64C,0.6500*%
%ADD65O,2.1000X1.0000*%
G04:AMPARAMS|DCode=66|XSize=1.8mm|YSize=1mm|CornerRadius=0.25mm|HoleSize=0mm|Usage=FLASHONLY|Rotation=180.000|XOffset=0mm|YOffset=0mm|HoleType=Round|Shape=RoundedRectangle|*
%AMROUNDEDRECTD66*
21,1,1.8000,0.5000,0,0,180.0*
21,1,1.3000,1.0000,0,0,180.0*
1,1,0.5000,-0.6500,0.2500*
1,1,0.5000,0.6500,0.2500*
1,1,0.5000,0.6500,-0.2500*
1,1,0.5000,-0.6500,-0.2500*
%
%ADD66ROUNDEDRECTD66*%
%ADD67C,1.0000*%
%ADD68C,0.4524*%
%ADD69C,5.0800*%
%ADD70C,0.4572*%
G36*
X677606Y469694D02*
X681939Y468380D01*
X685933Y466245D01*
X689433Y463373D01*
X692306Y459873D01*
X694440Y455879D01*
X695754Y451546D01*
X696189Y447137D01*
X696169Y447040D01*
Y-10160D01*
X696189Y-10258D01*
X695754Y-14666D01*
X694440Y-18999D01*
X692306Y-22993D01*
X689433Y-26493D01*
X685933Y-29365D01*
X681939Y-31500D01*
X677606Y-32814D01*
X673197Y-33249D01*
X673100Y-33229D01*
X-12700D01*
X-12797Y-33249D01*
X-17206Y-32814D01*
X-21539Y-31500D01*
X-25533Y-29365D01*
X-29033Y-26493D01*
X-31906Y-22993D01*
X-34040Y-18999D01*
X-35354Y-14666D01*
X-35789Y-10258D01*
X-35769Y-10160D01*
Y447040D01*
X-35789Y447137D01*
X-35354Y451546D01*
X-34040Y455879D01*
X-31906Y459873D01*
X-29033Y463373D01*
X-25533Y466245D01*
X-21539Y468380D01*
X-17206Y469694D01*
X-12797Y470129D01*
X-12700Y470109D01*
X673100D01*
X673197Y470129D01*
X677606Y469694D01*
D02*
G37*
%LPC*%
G36*
X60561Y448575D02*
X58969D01*
X57499Y447966D01*
X56374Y446841D01*
X55765Y445371D01*
Y443779D01*
X56374Y442309D01*
X57499Y441184D01*
X58969Y440575D01*
X60561D01*
X62031Y441184D01*
X63156Y442309D01*
X63765Y443779D01*
Y445371D01*
X63156Y446841D01*
X62031Y447966D01*
X60561Y448575D01*
D02*
G37*
G36*
X123051Y448425D02*
X121459D01*
X119989Y447816D01*
X118864Y446691D01*
X118255Y445221D01*
Y443629D01*
X118864Y442159D01*
X119989Y441034D01*
X121459Y440425D01*
X123051D01*
X124521Y441034D01*
X125646Y442159D01*
X126255Y443629D01*
Y445221D01*
X125646Y446691D01*
X124521Y447816D01*
X123051Y448425D01*
D02*
G37*
G36*
X135921Y447895D02*
X134329D01*
X132859Y447286D01*
X131734Y446161D01*
X131125Y444691D01*
Y443099D01*
X131734Y441629D01*
X132859Y440504D01*
X134329Y439895D01*
X135921D01*
X137391Y440504D01*
X138516Y441629D01*
X139125Y443099D01*
Y444691D01*
X138516Y446161D01*
X137391Y447286D01*
X135921Y447895D01*
D02*
G37*
G36*
X198411Y447745D02*
X196819D01*
X195349Y447136D01*
X194224Y446011D01*
X193615Y444541D01*
Y442949D01*
X194224Y441479D01*
X195349Y440354D01*
X196819Y439745D01*
X198411D01*
X199881Y440354D01*
X201006Y441479D01*
X201615Y442949D01*
Y444541D01*
X201006Y446011D01*
X199881Y447136D01*
X198411Y447745D01*
D02*
G37*
G36*
X662479Y458216D02*
X658321D01*
X654214Y457566D01*
X650260Y456281D01*
X646555Y454393D01*
X643191Y451949D01*
X640251Y449009D01*
X637807Y445645D01*
X635919Y441940D01*
X634634Y437986D01*
X633984Y433879D01*
Y429721D01*
X634634Y425614D01*
X635919Y421660D01*
X637807Y417955D01*
X640251Y414591D01*
X643191Y411651D01*
X646555Y409207D01*
X650260Y407319D01*
X654214Y406034D01*
X658321Y405384D01*
X662479D01*
X666586Y406034D01*
X670540Y407319D01*
X674245Y409207D01*
X677609Y411651D01*
X680549Y414591D01*
X682993Y417955D01*
X684881Y421660D01*
X686166Y425614D01*
X686816Y429721D01*
Y433879D01*
X686166Y437986D01*
X684881Y441940D01*
X682993Y445645D01*
X680549Y449009D01*
X677609Y451949D01*
X674245Y454393D01*
X670540Y456281D01*
X666586Y457566D01*
X662479Y458216D01*
D02*
G37*
G36*
X2079D02*
X-2079D01*
X-6186Y457566D01*
X-10140Y456281D01*
X-13845Y454393D01*
X-17209Y451949D01*
X-20149Y449009D01*
X-22593Y445645D01*
X-24481Y441940D01*
X-25766Y437986D01*
X-26416Y433879D01*
Y429721D01*
X-25766Y425614D01*
X-24481Y421660D01*
X-22593Y417955D01*
X-20149Y414591D01*
X-17209Y411651D01*
X-13845Y409207D01*
X-10140Y407319D01*
X-6186Y406034D01*
X-2079Y405384D01*
X2079D01*
X6186Y406034D01*
X10140Y407319D01*
X13845Y409207D01*
X17209Y411651D01*
X20149Y414591D01*
X22593Y417955D01*
X24481Y421660D01*
X25766Y425614D01*
X26416Y429721D01*
Y433879D01*
X25766Y437986D01*
X24481Y441940D01*
X22593Y445645D01*
X20149Y449009D01*
X17209Y451949D01*
X13845Y454393D01*
X10140Y456281D01*
X6186Y457566D01*
X2079Y458216D01*
D02*
G37*
G36*
X286371Y405245D02*
X284779D01*
X283309Y404636D01*
X282184Y403511D01*
X281575Y402041D01*
Y400449D01*
X282184Y398979D01*
X283309Y397854D01*
X284779Y397245D01*
X286371D01*
X287841Y397854D01*
X288966Y398979D01*
X289575Y400449D01*
Y402041D01*
X288966Y403511D01*
X287841Y404636D01*
X286371Y405245D01*
D02*
G37*
G36*
X1137Y389636D02*
X508D01*
Y381508D01*
X8636D01*
Y382137D01*
X8048Y384333D01*
X6910Y386303D01*
X5303Y387910D01*
X3333Y389048D01*
X1137Y389636D01*
D02*
G37*
G36*
X-508D02*
X-1137D01*
X-3333Y389048D01*
X-5303Y387910D01*
X-6910Y386303D01*
X-8048Y384333D01*
X-8636Y382137D01*
Y381508D01*
X-508D01*
Y389636D01*
D02*
G37*
G36*
X26537D02*
X24263D01*
X22067Y389048D01*
X20097Y387910D01*
X18490Y386303D01*
X17352Y384333D01*
X16764Y382137D01*
Y379863D01*
X17352Y377667D01*
X18490Y375697D01*
X20097Y374090D01*
X22067Y372952D01*
X24263Y372364D01*
X26537D01*
X28733Y372952D01*
X30703Y374090D01*
X32311Y375697D01*
X33447Y377667D01*
X34036Y379863D01*
Y382137D01*
X33447Y384333D01*
X32311Y386303D01*
X30703Y387910D01*
X28733Y389048D01*
X26537Y389636D01*
D02*
G37*
G36*
X8636Y380492D02*
X508D01*
Y372364D01*
X1137D01*
X3333Y372952D01*
X5303Y374090D01*
X6910Y375697D01*
X8048Y377667D01*
X8636Y379863D01*
Y380492D01*
D02*
G37*
G36*
X-508D02*
X-8636D01*
Y379863D01*
X-8048Y377667D01*
X-6910Y375697D01*
X-5303Y374090D01*
X-3333Y372952D01*
X-1137Y372364D01*
X-508D01*
Y380492D01*
D02*
G37*
G36*
X337346Y373570D02*
X335754D01*
X334284Y372961D01*
X333159Y371836D01*
X332550Y370366D01*
Y368774D01*
X333159Y367304D01*
X334284Y366179D01*
X335754Y365570D01*
X337346D01*
X338816Y366179D01*
X339941Y367304D01*
X340550Y368774D01*
Y370366D01*
X339941Y371836D01*
X338816Y372961D01*
X337346Y373570D01*
D02*
G37*
G36*
X322106D02*
X320514D01*
X319044Y372961D01*
X317919Y371836D01*
X317310Y370366D01*
Y368774D01*
X317919Y367304D01*
X319044Y366179D01*
X320514Y365570D01*
X322106D01*
X323576Y366179D01*
X324701Y367304D01*
X325310Y368774D01*
Y370366D01*
X324701Y371836D01*
X323576Y372961D01*
X322106Y373570D01*
D02*
G37*
G36*
X306866D02*
X305274D01*
X303804Y372961D01*
X302679Y371836D01*
X302070Y370366D01*
Y368774D01*
X302679Y367304D01*
X303804Y366179D01*
X305274Y365570D01*
X306866D01*
X308336Y366179D01*
X309461Y367304D01*
X310070Y368774D01*
Y370366D01*
X309461Y371836D01*
X308336Y372961D01*
X306866Y373570D01*
D02*
G37*
G36*
X125256Y371030D02*
X123664D01*
X122194Y370421D01*
X121069Y369296D01*
X120460Y367826D01*
Y366234D01*
X121069Y364764D01*
X122194Y363639D01*
X123664Y363030D01*
X125256D01*
X126726Y363639D01*
X127851Y364764D01*
X128460Y366234D01*
Y367826D01*
X127851Y369296D01*
X126726Y370421D01*
X125256Y371030D01*
D02*
G37*
G36*
X149276Y367220D02*
X147684D01*
X146214Y366611D01*
X145089Y365486D01*
X144480Y364016D01*
Y362424D01*
X145089Y360954D01*
X146214Y359829D01*
X147684Y359220D01*
X149276D01*
X150746Y359829D01*
X151871Y360954D01*
X152480Y362424D01*
Y364016D01*
X151871Y365486D01*
X150746Y366611D01*
X149276Y367220D01*
D02*
G37*
G36*
X398306Y363410D02*
X396714D01*
X395244Y362801D01*
X394119Y361676D01*
X393510Y360206D01*
Y358614D01*
X394119Y357144D01*
X395244Y356019D01*
X396714Y355410D01*
X398306D01*
X399776Y356019D01*
X400901Y357144D01*
X401510Y358614D01*
Y360206D01*
X400901Y361676D01*
X399776Y362801D01*
X398306Y363410D01*
D02*
G37*
G36*
X383066D02*
X381474D01*
X380004Y362801D01*
X378879Y361676D01*
X378270Y360206D01*
Y358614D01*
X378879Y357144D01*
X380004Y356019D01*
X381474Y355410D01*
X383066D01*
X384536Y356019D01*
X385661Y357144D01*
X386270Y358614D01*
Y360206D01*
X385661Y361676D01*
X384536Y362801D01*
X383066Y363410D01*
D02*
G37*
G36*
X367826D02*
X366234D01*
X364764Y362801D01*
X363639Y361676D01*
X363030Y360206D01*
Y358614D01*
X363639Y357144D01*
X364764Y356019D01*
X366234Y355410D01*
X367826D01*
X369296Y356019D01*
X370421Y357144D01*
X371030Y358614D01*
Y360206D01*
X370421Y361676D01*
X369296Y362801D01*
X367826Y363410D01*
D02*
G37*
G36*
X26537Y364236D02*
X24263D01*
X22067Y363647D01*
X20097Y362510D01*
X18490Y360903D01*
X17352Y358933D01*
X16764Y356737D01*
Y354463D01*
X17352Y352267D01*
X18490Y350297D01*
X20097Y348689D01*
X22067Y347552D01*
X24263Y346964D01*
X26537D01*
X28733Y347552D01*
X30703Y348689D01*
X32311Y350297D01*
X33447Y352267D01*
X34036Y354463D01*
Y356737D01*
X33447Y358933D01*
X32311Y360903D01*
X30703Y362510D01*
X28733Y363647D01*
X26537Y364236D01*
D02*
G37*
G36*
X1137D02*
X-1137D01*
X-3333Y363647D01*
X-5303Y362510D01*
X-6910Y360903D01*
X-8048Y358933D01*
X-8636Y356737D01*
Y354463D01*
X-8048Y352267D01*
X-6910Y350297D01*
X-5303Y348689D01*
X-3333Y347552D01*
X-1137Y346964D01*
X1137D01*
X3333Y347552D01*
X5303Y348689D01*
X6910Y350297D01*
X8048Y352267D01*
X8636Y354463D01*
Y356737D01*
X8048Y358933D01*
X6910Y360903D01*
X5303Y362510D01*
X3333Y363647D01*
X1137Y364236D01*
D02*
G37*
G36*
X649056Y334260D02*
X647464D01*
X645994Y333651D01*
X644869Y332526D01*
X644260Y331056D01*
Y329464D01*
X644869Y327994D01*
X645994Y326869D01*
X647464Y326260D01*
X649056D01*
X650526Y326869D01*
X651651Y327994D01*
X652260Y329464D01*
Y331056D01*
X651651Y332526D01*
X650526Y333651D01*
X649056Y334260D01*
D02*
G37*
G36*
X26537Y338836D02*
X24263D01*
X22067Y338247D01*
X20097Y337110D01*
X18490Y335503D01*
X17352Y333533D01*
X16764Y331337D01*
Y329063D01*
X17352Y326867D01*
X18490Y324897D01*
X20097Y323289D01*
X22067Y322152D01*
X24263Y321564D01*
X26537D01*
X28733Y322152D01*
X30703Y323289D01*
X32311Y324897D01*
X33447Y326867D01*
X34036Y329063D01*
Y331337D01*
X33447Y333533D01*
X32311Y335503D01*
X30703Y337110D01*
X28733Y338247D01*
X26537Y338836D01*
D02*
G37*
G36*
X1137D02*
X-1137D01*
X-3333Y338247D01*
X-5303Y337110D01*
X-6910Y335503D01*
X-8048Y333533D01*
X-8636Y331337D01*
Y329063D01*
X-8048Y326867D01*
X-6910Y324897D01*
X-5303Y323289D01*
X-3333Y322152D01*
X-1137Y321564D01*
X1137D01*
X3333Y322152D01*
X5303Y323289D01*
X6910Y324897D01*
X8048Y326867D01*
X8636Y329063D01*
Y331337D01*
X8048Y333533D01*
X6910Y335503D01*
X5303Y337110D01*
X3333Y338247D01*
X1137Y338836D01*
D02*
G37*
G36*
X26537Y313436D02*
X24263D01*
X22067Y312847D01*
X20097Y311710D01*
X18490Y310103D01*
X17352Y308133D01*
X16764Y305937D01*
Y303663D01*
X17352Y301467D01*
X18490Y299497D01*
X20097Y297889D01*
X22067Y296752D01*
X24263Y296164D01*
X26537D01*
X28733Y296752D01*
X30703Y297889D01*
X32311Y299497D01*
X33447Y301467D01*
X34036Y303663D01*
Y305937D01*
X33447Y308133D01*
X32311Y310103D01*
X30703Y311710D01*
X28733Y312847D01*
X26537Y313436D01*
D02*
G37*
G36*
X1137D02*
X-1137D01*
X-3333Y312847D01*
X-5303Y311710D01*
X-6910Y310103D01*
X-8048Y308133D01*
X-8636Y305937D01*
Y303663D01*
X-8048Y301467D01*
X-6910Y299497D01*
X-5303Y297889D01*
X-3333Y296752D01*
X-1137Y296164D01*
X1137D01*
X3333Y296752D01*
X5303Y297889D01*
X6910Y299497D01*
X8048Y301467D01*
X8636Y303663D01*
Y305937D01*
X8048Y308133D01*
X6910Y310103D01*
X5303Y311710D01*
X3333Y312847D01*
X1137Y313436D01*
D02*
G37*
G36*
X440216Y290350D02*
X438624D01*
X437154Y289741D01*
X436029Y288616D01*
X435420Y287146D01*
Y285554D01*
X436029Y284084D01*
X437154Y282959D01*
X438624Y282350D01*
X440216D01*
X441686Y282959D01*
X442811Y284084D01*
X443420Y285554D01*
Y287146D01*
X442811Y288616D01*
X441686Y289741D01*
X440216Y290350D01*
D02*
G37*
G36*
X683715Y285195D02*
X682124D01*
X680654Y284586D01*
X679528Y283461D01*
X678919Y281991D01*
Y280399D01*
X679528Y278929D01*
X680654Y277804D01*
X682124Y277195D01*
X683715D01*
X685185Y277804D01*
X686310Y278929D01*
X686919Y280399D01*
Y281991D01*
X686310Y283461D01*
X685185Y284586D01*
X683715Y285195D01*
D02*
G37*
G36*
X48771Y272505D02*
X47179D01*
X45709Y271896D01*
X44584Y270771D01*
X43975Y269301D01*
Y267709D01*
X44584Y266239D01*
X45709Y265114D01*
X47179Y264505D01*
X48771D01*
X50241Y265114D01*
X51366Y266239D01*
X51975Y267709D01*
Y269301D01*
X51366Y270771D01*
X50241Y271896D01*
X48771Y272505D01*
D02*
G37*
G36*
X440216Y254350D02*
X438624D01*
X437154Y253741D01*
X436029Y252616D01*
X435420Y251146D01*
Y249554D01*
X436029Y248084D01*
X437154Y246959D01*
X438624Y246350D01*
X440216D01*
X441686Y246959D01*
X442811Y248084D01*
X443420Y249554D01*
Y251146D01*
X442811Y252616D01*
X441686Y253741D01*
X440216Y254350D01*
D02*
G37*
G36*
X678890Y255065D02*
X665890D01*
X664518Y254792D01*
X663355Y254015D01*
X662578Y252852D01*
X662305Y251480D01*
Y246480D01*
X662578Y245108D01*
X663355Y243945D01*
X664518Y243168D01*
X665890Y242895D01*
X678890D01*
X680262Y243168D01*
X681425Y243945D01*
X682202Y245108D01*
X682475Y246480D01*
Y251480D01*
X682202Y252852D01*
X681425Y254015D01*
X680262Y254792D01*
X678890Y255065D01*
D02*
G37*
G36*
X636090Y255114D02*
X625090D01*
X622743Y254647D01*
X620753Y253317D01*
X619423Y251327D01*
X618956Y248980D01*
X619423Y246633D01*
X620753Y244643D01*
X622743Y243313D01*
X625090Y242846D01*
X636090D01*
X638437Y243313D01*
X640427Y244643D01*
X641757Y246633D01*
X642224Y248980D01*
X641757Y251327D01*
X640427Y253317D01*
X638437Y254647D01*
X636090Y255114D01*
D02*
G37*
G36*
X636734Y240430D02*
X634446D01*
X632333Y239555D01*
X630715Y237937D01*
X629840Y235824D01*
Y233536D01*
X630715Y231423D01*
X632333Y229805D01*
X634446Y228930D01*
X636734D01*
X638847Y229805D01*
X640465Y231423D01*
X641340Y233536D01*
Y235824D01*
X640465Y237937D01*
X638847Y239555D01*
X636734Y240430D01*
D02*
G37*
G36*
X48771Y226785D02*
X47179D01*
X45709Y226176D01*
X44584Y225051D01*
X43975Y223581D01*
Y221989D01*
X44584Y220519D01*
X45709Y219394D01*
X47179Y218785D01*
X48771D01*
X50241Y219394D01*
X51366Y220519D01*
X51975Y221989D01*
Y223581D01*
X51366Y225051D01*
X50241Y226176D01*
X48771Y226785D01*
D02*
G37*
G36*
X330996Y219900D02*
X329404D01*
X327934Y219291D01*
X326809Y218166D01*
X326200Y216696D01*
Y215104D01*
X326809Y213634D01*
X327934Y212509D01*
X329404Y211900D01*
X330996D01*
X332466Y212509D01*
X333591Y213634D01*
X334200Y215104D01*
Y216696D01*
X333591Y218166D01*
X332466Y219291D01*
X330996Y219900D01*
D02*
G37*
G36*
X610776Y217280D02*
X609184D01*
X607714Y216671D01*
X606589Y215546D01*
X605980Y214076D01*
Y212484D01*
X606073Y212260D01*
X604996Y211540D01*
X604806Y211731D01*
X603336Y212340D01*
X601744D01*
X600274Y211731D01*
X599149Y210606D01*
X598540Y209136D01*
Y207544D01*
X599149Y206074D01*
X600274Y204949D01*
X601744Y204340D01*
X603336D01*
X604806Y204949D01*
X605931Y206074D01*
X606093Y206465D01*
X606163Y206497D01*
X636055D01*
X636122Y206467D01*
X636309Y206014D01*
X637434Y204889D01*
X638904Y204280D01*
X640496D01*
X641966Y204889D01*
X643091Y206014D01*
X643700Y207484D01*
Y209076D01*
X643091Y210546D01*
X641966Y211671D01*
X640496Y212280D01*
X638904D01*
X637434Y211671D01*
X636309Y210546D01*
X636147Y210155D01*
X636077Y210123D01*
X614139D01*
X613528Y211393D01*
X613980Y212484D01*
Y214076D01*
X613371Y215546D01*
X612246Y216671D01*
X610776Y217280D01*
D02*
G37*
G36*
X389416Y211010D02*
X387824D01*
X386354Y210401D01*
X385229Y209276D01*
X385001Y208726D01*
X384933Y208693D01*
X342777D01*
X342709Y208726D01*
X342481Y209276D01*
X341356Y210401D01*
X339886Y211010D01*
X338294D01*
X336824Y210401D01*
X335699Y209276D01*
X335090Y207806D01*
Y206214D01*
X335699Y204744D01*
X336824Y203619D01*
X338294Y203010D01*
X339886D01*
X341356Y203619D01*
X342481Y204744D01*
X342709Y205294D01*
X342777Y205327D01*
X384933D01*
X385001Y205294D01*
X385229Y204744D01*
X386354Y203619D01*
X387824Y203010D01*
X389416D01*
X390886Y203619D01*
X392011Y204744D01*
X392620Y206214D01*
Y207806D01*
X392011Y209276D01*
X390886Y210401D01*
X389416Y211010D01*
D02*
G37*
G36*
X459821Y201075D02*
X458229D01*
X456759Y200466D01*
X455634Y199341D01*
X455025Y197871D01*
Y196280D01*
X455634Y194809D01*
X456759Y193684D01*
X458229Y193075D01*
X459821D01*
X461291Y193684D01*
X462416Y194809D01*
X463025Y196280D01*
Y197871D01*
X462416Y199341D01*
X461291Y200466D01*
X459821Y201075D01*
D02*
G37*
G36*
X578091Y200925D02*
X576499D01*
X575029Y200316D01*
X573904Y199191D01*
X573295Y197721D01*
Y196129D01*
X573904Y194659D01*
X575029Y193534D01*
X576499Y192925D01*
X578091D01*
X579561Y193534D01*
X580686Y194659D01*
X581295Y196129D01*
Y197721D01*
X580686Y199191D01*
X579561Y200316D01*
X578091Y200925D01*
D02*
G37*
G36*
X518956Y198500D02*
X517364D01*
X515894Y197891D01*
X514769Y196766D01*
X514160Y195296D01*
Y193704D01*
X514769Y192234D01*
X515783Y191220D01*
X515843Y190500D01*
X515783Y189780D01*
X514769Y188766D01*
X514160Y187296D01*
Y185704D01*
X514769Y184234D01*
X515894Y183109D01*
X517364Y182500D01*
X518956D01*
X520426Y183109D01*
X521551Y184234D01*
X522160Y185704D01*
Y187296D01*
X521551Y188766D01*
X520537Y189780D01*
X520477Y190500D01*
X520537Y191220D01*
X521551Y192234D01*
X522160Y193704D01*
Y195296D01*
X521551Y196766D01*
X520426Y197891D01*
X518956Y198500D01*
D02*
G37*
G36*
X498636Y188150D02*
X497044D01*
X495574Y187541D01*
X494449Y186416D01*
X493840Y184946D01*
Y183354D01*
X494449Y181884D01*
X495574Y180759D01*
X497044Y180150D01*
X498636D01*
X500106Y180759D01*
X501231Y181884D01*
X501840Y183354D01*
Y184946D01*
X501231Y186416D01*
X500106Y187541D01*
X498636Y188150D01*
D02*
G37*
G36*
X461300Y380791D02*
X101600D01*
X100708Y380613D01*
X99952Y380108D01*
X88522Y368678D01*
X88017Y367922D01*
X87839Y367030D01*
Y195439D01*
X87834Y195426D01*
X86779Y194371D01*
X86170Y192901D01*
Y191310D01*
X86779Y189840D01*
X87286Y189332D01*
X87220Y188661D01*
X29970Y131410D01*
X29872Y131379D01*
X29684Y131221D01*
X29503Y131111D01*
X29247Y130996D01*
X28916Y130885D01*
X28510Y130786D01*
X28058Y130705D01*
X26179Y130563D01*
X25445Y130560D01*
X25246Y130476D01*
X24203D01*
X21992Y129560D01*
X20300Y127868D01*
X19384Y125657D01*
Y123263D01*
X20300Y121052D01*
X21992Y119360D01*
X23350Y118797D01*
Y117423D01*
X21992Y116860D01*
X20300Y115168D01*
X19384Y112957D01*
Y110563D01*
X20300Y108352D01*
X21992Y106660D01*
X23350Y106097D01*
Y104723D01*
X21992Y104160D01*
X20300Y102468D01*
X19384Y100257D01*
Y97863D01*
X20300Y95652D01*
X21992Y93960D01*
X23350Y93397D01*
Y92023D01*
X21992Y91460D01*
X20300Y89768D01*
X19384Y87557D01*
Y85163D01*
X20300Y82952D01*
X21992Y81260D01*
X23350Y80697D01*
Y79323D01*
X21992Y78760D01*
X20300Y77068D01*
X19384Y74857D01*
Y72463D01*
X20300Y70252D01*
X21992Y68560D01*
X24203Y67644D01*
X25246D01*
X25445Y67561D01*
X26190Y67557D01*
X27499Y67484D01*
X28034Y67419D01*
X28510Y67334D01*
X28916Y67235D01*
X29247Y67124D01*
X29503Y67009D01*
X29684Y66899D01*
X29872Y66740D01*
X29970Y66710D01*
X39005Y57675D01*
X39551Y57310D01*
X40195Y57182D01*
X50180D01*
X50824Y57310D01*
X51370Y57675D01*
X54085Y60390D01*
X54450Y60936D01*
X54578Y61580D01*
Y125858D01*
X92137Y163417D01*
X172435D01*
X172906Y162147D01*
X169923Y159163D01*
X151007D01*
X150939Y159196D01*
X150711Y159746D01*
X149586Y160871D01*
X148116Y161480D01*
X146524D01*
X145054Y160871D01*
X143929Y159746D01*
X143320Y158276D01*
Y156684D01*
X143929Y155214D01*
X145054Y154089D01*
X146524Y153480D01*
X148116D01*
X149586Y154089D01*
X150711Y155214D01*
X150939Y155764D01*
X151007Y155797D01*
X170620D01*
X171264Y155925D01*
X171811Y156290D01*
X175128Y159607D01*
X185927D01*
X186413Y158433D01*
X160323Y132343D01*
X151007D01*
X150939Y132376D01*
X150711Y132926D01*
X149586Y134051D01*
X148116Y134660D01*
X146524D01*
X145054Y134051D01*
X143929Y132926D01*
X143320Y131456D01*
Y129864D01*
X143929Y128394D01*
X145054Y127269D01*
X146524Y126660D01*
X148116D01*
X149586Y127269D01*
X150711Y128394D01*
X150939Y128944D01*
X151007Y128977D01*
X161020D01*
X161665Y129105D01*
X162211Y129470D01*
X189807Y157067D01*
X193911D01*
X194469Y155797D01*
X193980Y154616D01*
Y153024D01*
X194347Y152138D01*
X193615Y150868D01*
X191839D01*
X191195Y150740D01*
X190649Y150375D01*
X146130Y105856D01*
X145765Y105310D01*
X145637Y104666D01*
Y-17036D01*
X145765Y-17680D01*
X146130Y-18226D01*
X146874Y-18970D01*
X147420Y-19335D01*
X148064Y-19463D01*
X362853D01*
X363497Y-19335D01*
X364043Y-18970D01*
X364787Y-18226D01*
X365152Y-17680D01*
X365280Y-17036D01*
Y-13800D01*
X495300D01*
X496078Y-13478D01*
X506238Y-3318D01*
X506560Y-2540D01*
Y104140D01*
X506238Y104918D01*
X496078Y115078D01*
X495300Y115400D01*
X165822D01*
X165296Y116670D01*
X193842Y145216D01*
X204165D01*
X204809Y145344D01*
X205355Y145709D01*
X252273Y192627D01*
X304800D01*
X305444Y192755D01*
X305990Y193120D01*
X313543Y200672D01*
X313614Y200698D01*
X314164Y200470D01*
X315756D01*
X317226Y201079D01*
X318351Y202204D01*
X318960Y203674D01*
Y205266D01*
X318351Y206736D01*
X317226Y207861D01*
X315756Y208470D01*
X314164D01*
X312694Y207861D01*
X311569Y206736D01*
X310960Y205266D01*
Y203674D01*
X311188Y203124D01*
X311162Y203053D01*
X304103Y195993D01*
X300363D01*
X299877Y197167D01*
X303383Y200672D01*
X303454Y200698D01*
X304004Y200470D01*
X305596D01*
X307066Y201079D01*
X308191Y202204D01*
X308800Y203674D01*
Y205266D01*
X308191Y206736D01*
X307066Y207861D01*
X305596Y208470D01*
X304004D01*
X302534Y207861D01*
X301409Y206736D01*
X300800Y205266D01*
Y203674D01*
X301028Y203124D01*
X301002Y203053D01*
X296483Y198533D01*
X253373D01*
X252887Y199707D01*
X276287Y223107D01*
X290952D01*
X291021Y223074D01*
X291249Y222524D01*
X292374Y221399D01*
X293844Y220790D01*
X295436D01*
X296906Y221399D01*
X298031Y222524D01*
X298640Y223994D01*
Y225586D01*
X298031Y227056D01*
X296906Y228181D01*
X296021Y228548D01*
Y229922D01*
X296906Y230289D01*
X298031Y231414D01*
X298640Y232884D01*
Y234476D01*
X298031Y235946D01*
X296906Y237071D01*
X296021Y237438D01*
Y238812D01*
X296906Y239179D01*
X298031Y240304D01*
X298640Y241774D01*
Y243366D01*
X298031Y244836D01*
X296906Y245961D01*
X295436Y246570D01*
X293844D01*
X292374Y245961D01*
X291249Y244836D01*
X291021Y244286D01*
X290952Y244253D01*
X286530D01*
X286004Y245523D01*
X288461Y247981D01*
X302307D01*
X327958Y222330D01*
X328504Y221965D01*
X329148Y221837D01*
X347254D01*
X347898Y221965D01*
X348444Y222330D01*
X355012Y228898D01*
X355377Y229444D01*
X355505Y230088D01*
Y233621D01*
X356074Y234760D01*
X357666D01*
X359136Y235369D01*
X360261Y236494D01*
X360628Y237379D01*
X362002D01*
X362369Y236494D01*
X363494Y235369D01*
X364964Y234760D01*
X366556D01*
X368026Y235369D01*
X369151Y236494D01*
X369760Y237964D01*
Y239556D01*
X369151Y241026D01*
X368026Y242151D01*
X367476Y242379D01*
X367443Y242447D01*
Y275590D01*
X367315Y276234D01*
X366950Y276780D01*
X363140Y280590D01*
X362594Y280955D01*
X361950Y281083D01*
X323727D01*
X323659Y281116D01*
X323431Y281666D01*
X322306Y282791D01*
X320836Y283400D01*
X319244D01*
X317774Y282791D01*
X316649Y281666D01*
X316421Y281116D01*
X316353Y281083D01*
X247184D01*
X247176Y282350D01*
X248646Y282959D01*
X249771Y284084D01*
X250380Y285554D01*
Y287146D01*
X249771Y288616D01*
X248646Y289741D01*
X247176Y290350D01*
X245584D01*
X244114Y289741D01*
X242989Y288616D01*
X242380Y287146D01*
Y285554D01*
X242989Y284084D01*
X244114Y282959D01*
X245584Y282350D01*
X245576Y281083D01*
X200087D01*
X115558Y365613D01*
X115532Y365684D01*
X115760Y366234D01*
Y367826D01*
X115151Y369296D01*
X114026Y370421D01*
X112556Y371030D01*
X110964D01*
X109494Y370421D01*
X108369Y369296D01*
X107760Y367826D01*
Y366234D01*
X108369Y364764D01*
X109494Y363639D01*
X110964Y363030D01*
X112556D01*
X113106Y363258D01*
X113177Y363232D01*
X198200Y278210D01*
X198746Y277845D01*
X199390Y277717D01*
X313383D01*
X314017Y276447D01*
X313683Y276003D01*
X201725D01*
X201081Y275875D01*
X200535Y275510D01*
X114178Y189154D01*
X94535D01*
X93803Y190424D01*
X94170Y191310D01*
Y192901D01*
X93561Y194371D01*
X92506Y195426D01*
X92501Y195439D01*
Y366065D01*
X102565Y376129D01*
X460335D01*
X605975Y230489D01*
X605980Y230476D01*
Y229084D01*
X605975Y229071D01*
X592002Y215098D01*
X591497Y214342D01*
X591319Y213450D01*
Y190670D01*
X591497Y189778D01*
X592002Y189022D01*
X599279Y181745D01*
X599284Y181732D01*
Y180240D01*
X599893Y178770D01*
X601018Y177645D01*
X602488Y177036D01*
X604080D01*
X605550Y177645D01*
X606675Y178770D01*
X607284Y180240D01*
Y181832D01*
X606675Y183302D01*
X605550Y184427D01*
X604080Y185036D01*
X602588D01*
X602575Y185041D01*
X595981Y191635D01*
Y212484D01*
X609271Y225775D01*
X609284Y225780D01*
X610776D01*
X612246Y226389D01*
X613371Y227514D01*
X613980Y228984D01*
Y230576D01*
X613371Y232046D01*
X612357Y233060D01*
X612297Y233780D01*
X612357Y234500D01*
X613371Y235514D01*
X613980Y236984D01*
Y238576D01*
X613371Y240046D01*
X612246Y241171D01*
X610776Y241780D01*
X609184D01*
X607714Y241171D01*
X606589Y240046D01*
X606067Y238785D01*
X604807Y238249D01*
X462948Y380108D01*
X462192Y380613D01*
X461300Y380791D01*
D02*
G37*
G36*
X564751Y184035D02*
X563159D01*
X561689Y183426D01*
X560564Y182301D01*
X559955Y180831D01*
Y179239D01*
X560564Y177769D01*
X561689Y176644D01*
X563159Y176035D01*
X564751D01*
X566221Y176644D01*
X567346Y177769D01*
X567955Y179239D01*
Y180831D01*
X567346Y182301D01*
X566221Y183426D01*
X564751Y184035D01*
D02*
G37*
G36*
X473311D02*
X471719D01*
X470249Y183426D01*
X469124Y182301D01*
X468515Y180831D01*
Y179239D01*
X469124Y177769D01*
X470249Y176644D01*
X471719Y176035D01*
X473311D01*
X474781Y176644D01*
X475906Y177769D01*
X476515Y179239D01*
Y180831D01*
X475906Y182301D01*
X474781Y183426D01*
X473311Y184035D01*
D02*
G37*
G36*
X419896Y179260D02*
X418304D01*
X416834Y178651D01*
X415709Y177526D01*
X415100Y176056D01*
Y174464D01*
X415709Y172994D01*
X416834Y171869D01*
X418304Y171260D01*
X419896D01*
X421366Y171869D01*
X422491Y172994D01*
X423100Y174464D01*
Y176056D01*
X422491Y177526D01*
X421366Y178651D01*
X419896Y179260D01*
D02*
G37*
G36*
X275116D02*
X273524D01*
X272054Y178651D01*
X270929Y177526D01*
X270320Y176056D01*
Y174464D01*
X270929Y172994D01*
X272054Y171869D01*
X273524Y171260D01*
X275116D01*
X276586Y171869D01*
X277711Y172994D01*
X278320Y174464D01*
Y176056D01*
X277711Y177526D01*
X276586Y178651D01*
X275116Y179260D01*
D02*
G37*
G36*
X636734Y182630D02*
X634446D01*
X632333Y181755D01*
X630715Y180137D01*
X629840Y178024D01*
Y175736D01*
X630715Y173623D01*
X632333Y172005D01*
X634446Y171130D01*
X636734D01*
X638847Y172005D01*
X640465Y173623D01*
X641340Y175736D01*
Y178024D01*
X640465Y180137D01*
X638847Y181755D01*
X636734Y182630D01*
D02*
G37*
G36*
X610776Y177780D02*
X609184D01*
X607714Y177171D01*
X606589Y176046D01*
X605980Y174576D01*
Y172984D01*
X606589Y171514D01*
X607714Y170389D01*
X609184Y169780D01*
X610776D01*
X612246Y170389D01*
X613371Y171514D01*
X613980Y172984D01*
Y174576D01*
X613371Y176046D01*
X612246Y177171D01*
X610776Y177780D01*
D02*
G37*
G36*
X355126Y165290D02*
X353534D01*
X352064Y164681D01*
X350939Y163556D01*
X350330Y162086D01*
Y160494D01*
X350939Y159024D01*
X352064Y157899D01*
X353534Y157290D01*
X355126D01*
X356596Y157899D01*
X357721Y159024D01*
X358330Y160494D01*
Y162086D01*
X357721Y163556D01*
X356596Y164681D01*
X355126Y165290D01*
D02*
G37*
G36*
X339886D02*
X338294D01*
X336824Y164681D01*
X335699Y163556D01*
X335090Y162086D01*
Y160494D01*
X335699Y159024D01*
X336824Y157899D01*
X338294Y157290D01*
X339886D01*
X341356Y157899D01*
X342481Y159024D01*
X343090Y160494D01*
Y162086D01*
X342481Y163556D01*
X341356Y164681D01*
X339886Y165290D01*
D02*
G37*
G36*
X678890Y168665D02*
X665890D01*
X664518Y168392D01*
X663355Y167615D01*
X662578Y166452D01*
X662305Y165080D01*
Y160080D01*
X662578Y158708D01*
X663355Y157545D01*
X664518Y156768D01*
X665890Y156495D01*
X678890D01*
X680262Y156768D01*
X681425Y157545D01*
X682202Y158708D01*
X682475Y160080D01*
Y165080D01*
X682202Y166452D01*
X681425Y167615D01*
X680262Y168392D01*
X678890Y168665D01*
D02*
G37*
G36*
X636090Y168714D02*
X625090D01*
X622743Y168247D01*
X620753Y166917D01*
X619423Y164927D01*
X618956Y162580D01*
X619423Y160233D01*
X620753Y158243D01*
X622743Y156913D01*
X625090Y156446D01*
X636090D01*
X638437Y156913D01*
X640427Y158243D01*
X641757Y160233D01*
X642224Y162580D01*
X641757Y164927D01*
X640427Y166917D01*
X638437Y168247D01*
X636090Y168714D01*
D02*
G37*
G36*
X148116Y151320D02*
X146524D01*
X145054Y150711D01*
X143929Y149586D01*
X143320Y148116D01*
Y146524D01*
X143929Y145054D01*
X145054Y143929D01*
X146524Y143320D01*
X148116D01*
X149586Y143929D01*
X150711Y145054D01*
X151320Y146524D01*
Y148116D01*
X150711Y149586D01*
X149586Y150711D01*
X148116Y151320D01*
D02*
G37*
G36*
X106761Y138695D02*
X105169D01*
X103699Y138086D01*
X102574Y136961D01*
X101965Y135491D01*
Y133899D01*
X102574Y132429D01*
X103699Y131304D01*
X105169Y130695D01*
X106761D01*
X108231Y131304D01*
X109356Y132429D01*
X109965Y133899D01*
Y135491D01*
X109356Y136961D01*
X108231Y138086D01*
X106761Y138695D01*
D02*
G37*
G36*
X235191Y138545D02*
X233599D01*
X232129Y137936D01*
X231004Y136811D01*
X230395Y135341D01*
Y133749D01*
X231004Y132279D01*
X232129Y131154D01*
X233599Y130545D01*
X235191D01*
X236661Y131154D01*
X237786Y132279D01*
X238395Y133749D01*
Y135341D01*
X237786Y136811D01*
X236661Y137936D01*
X235191Y138545D01*
D02*
G37*
G36*
X684056Y136080D02*
X682464D01*
X680994Y135471D01*
X679869Y134346D01*
X679260Y132876D01*
Y131284D01*
X679869Y129814D01*
X680994Y128689D01*
X682464Y128080D01*
X684056D01*
X685526Y128689D01*
X686651Y129814D01*
X687260Y131284D01*
Y132876D01*
X686651Y134346D01*
X685526Y135471D01*
X684056Y136080D01*
D02*
G37*
G36*
X64296Y67500D02*
X62704D01*
X61234Y66891D01*
X60109Y65766D01*
X59500Y64296D01*
Y62704D01*
X60109Y61234D01*
X61234Y60109D01*
X62704Y59500D01*
X64296D01*
X65766Y60109D01*
X66891Y61234D01*
X67500Y62704D01*
Y64296D01*
X66891Y65766D01*
X65766Y66891D01*
X64296Y67500D01*
D02*
G37*
G36*
X662479Y26416D02*
X658321D01*
X654214Y25766D01*
X650260Y24481D01*
X646555Y22593D01*
X643191Y20149D01*
X640251Y17209D01*
X637807Y13845D01*
X635919Y10140D01*
X634634Y6186D01*
X633984Y2079D01*
Y-2079D01*
X634634Y-6186D01*
X635919Y-10140D01*
X637807Y-13845D01*
X640251Y-17209D01*
X643191Y-20149D01*
X646555Y-22593D01*
X650260Y-24481D01*
X654214Y-25766D01*
X658321Y-26416D01*
X662479D01*
X666586Y-25766D01*
X670540Y-24481D01*
X674245Y-22593D01*
X677609Y-20149D01*
X680549Y-17209D01*
X682993Y-13845D01*
X684881Y-10140D01*
X686166Y-6186D01*
X686816Y-2079D01*
Y2079D01*
X686166Y6186D01*
X684881Y10140D01*
X682993Y13845D01*
X680549Y17209D01*
X677609Y20149D01*
X674245Y22593D01*
X670540Y24481D01*
X666586Y25766D01*
X662479Y26416D01*
D02*
G37*
G36*
X2079D02*
X-2079D01*
X-6186Y25766D01*
X-10140Y24481D01*
X-13845Y22593D01*
X-17209Y20149D01*
X-20149Y17209D01*
X-22593Y13845D01*
X-24481Y10140D01*
X-25766Y6186D01*
X-26416Y2079D01*
Y-2079D01*
X-25766Y-6186D01*
X-24481Y-10140D01*
X-22593Y-13845D01*
X-20149Y-17209D01*
X-17209Y-20149D01*
X-13845Y-22593D01*
X-10140Y-24481D01*
X-6186Y-25766D01*
X-2079Y-26416D01*
X2079D01*
X6186Y-25766D01*
X10140Y-24481D01*
X13845Y-22593D01*
X17209Y-20149D01*
X20149Y-17209D01*
X22593Y-13845D01*
X24481Y-10140D01*
X25766Y-6186D01*
X26416Y-2079D01*
Y2079D01*
X25766Y6186D01*
X24481Y10140D01*
X22593Y13845D01*
X20149Y17209D01*
X17209Y20149D01*
X13845Y22593D01*
X10140Y24481D01*
X6186Y25766D01*
X2079Y26416D01*
D02*
G37*
%LPD*%
G36*
X604337Y209744D02*
X604504Y209603D01*
X604676Y209479D01*
X604854Y209371D01*
X605038Y209279D01*
X605227Y209205D01*
X605421Y209147D01*
X605621Y209105D01*
X605826Y209080D01*
X606037Y209072D01*
X606016Y207548D01*
X605806Y207540D01*
X605600Y207516D01*
X605400Y207475D01*
X605204Y207418D01*
X605014Y207345D01*
X604828Y207255D01*
X604647Y207150D01*
X604471Y207028D01*
X604300Y206890D01*
X604134Y206735D01*
X604176Y209902D01*
X604337Y209744D01*
D02*
G37*
G36*
X638064Y206718D02*
X637902Y206876D01*
X637736Y207017D01*
X637564Y207141D01*
X637386Y207249D01*
X637202Y207341D01*
X637014Y207415D01*
X636819Y207473D01*
X636619Y207515D01*
X636413Y207540D01*
X636203Y207548D01*
X636224Y209072D01*
X636434Y209080D01*
X636640Y209104D01*
X636840Y209145D01*
X637036Y209202D01*
X637226Y209275D01*
X637412Y209364D01*
X637593Y209470D01*
X637769Y209592D01*
X637940Y209730D01*
X638106Y209885D01*
X638064Y206718D01*
D02*
G37*
G36*
X387005Y205427D02*
X386818Y205607D01*
X386631Y205768D01*
X386442Y205910D01*
X386252Y206034D01*
X386062Y206138D01*
X385870Y206223D01*
X385677Y206290D01*
X385483Y206337D01*
X385288Y206366D01*
X385092Y206375D01*
Y207645D01*
X385288Y207654D01*
X385483Y207683D01*
X385677Y207730D01*
X385870Y207797D01*
X386062Y207882D01*
X386252Y207986D01*
X386442Y208110D01*
X386631Y208252D01*
X386818Y208413D01*
X387005Y208593D01*
Y205427D01*
D02*
G37*
G36*
X340892Y208413D02*
X341079Y208252D01*
X341268Y208110D01*
X341458Y207986D01*
X341648Y207882D01*
X341840Y207797D01*
X342033Y207730D01*
X342227Y207683D01*
X342422Y207654D01*
X342618Y207645D01*
Y206375D01*
X342422Y206366D01*
X342227Y206337D01*
X342033Y206290D01*
X341840Y206223D01*
X341648Y206138D01*
X341458Y206034D01*
X341268Y205910D01*
X341079Y205768D01*
X340892Y205607D01*
X340705Y205427D01*
Y208593D01*
X340892Y208413D01*
D02*
G37*
G36*
X114026Y366748D02*
X114045Y366502D01*
X114078Y366268D01*
X114125Y366046D01*
X114186Y365838D01*
X114261Y365642D01*
X114351Y365458D01*
X114454Y365288D01*
X114572Y365130D01*
X114704Y364984D01*
X113806Y364086D01*
X113660Y364218D01*
X113502Y364336D01*
X113332Y364440D01*
X113148Y364529D01*
X112952Y364604D01*
X112744Y364665D01*
X112522Y364712D01*
X112289Y364745D01*
X112042Y364764D01*
X111783Y364768D01*
X114022Y367007D01*
X114026Y366748D01*
D02*
G37*
G36*
X321842Y280803D02*
X322029Y280642D01*
X322218Y280500D01*
X322408Y280376D01*
X322598Y280272D01*
X322790Y280187D01*
X322983Y280120D01*
X323177Y280073D01*
X323372Y280044D01*
X323568Y280035D01*
Y278765D01*
X323372Y278755D01*
X323177Y278727D01*
X322983Y278680D01*
X322790Y278613D01*
X322598Y278528D01*
X322408Y278424D01*
X322218Y278300D01*
X322029Y278158D01*
X321842Y277997D01*
X321655Y277817D01*
Y280983D01*
X321842Y280803D01*
D02*
G37*
G36*
X318425Y278731D02*
X320017Y277138D01*
X319758Y277134D01*
X319512Y277115D01*
X319277Y277082D01*
X319056Y277035D01*
X318848Y276974D01*
X318652Y276899D01*
X318468Y276810D01*
X318298Y276706D01*
X318139Y276588D01*
X317994Y276456D01*
X317096Y277354D01*
X317228Y277500D01*
X317346Y277658D01*
X317449Y277828D01*
X317539Y278012D01*
X317614Y278208D01*
X317675Y278416D01*
X317676Y278421D01*
X317672Y278424D01*
X317482Y278528D01*
X317290Y278613D01*
X317097Y278680D01*
X316903Y278727D01*
X316708Y278755D01*
X316512Y278765D01*
Y280035D01*
X316708Y280044D01*
X316903Y280073D01*
X317097Y280120D01*
X317290Y280187D01*
X317482Y280272D01*
X317672Y280376D01*
X317862Y280500D01*
X318051Y280642D01*
X318238Y280803D01*
X318425Y280983D01*
Y278731D01*
D02*
G37*
G36*
X364077Y274893D02*
Y242447D01*
X364044Y242379D01*
X363494Y242151D01*
X362369Y241026D01*
X362002Y240141D01*
X360628D01*
X360261Y241026D01*
X359136Y242151D01*
X357666Y242760D01*
X356074D01*
X354604Y242151D01*
X353479Y241026D01*
X353112Y240141D01*
X351738D01*
X351371Y241026D01*
X350246Y242151D01*
X348776Y242760D01*
X347184D01*
X345714Y242151D01*
X344589Y241026D01*
X343980Y239556D01*
Y237964D01*
X344589Y236494D01*
X345714Y235369D01*
X347184Y234760D01*
X348776D01*
X349599Y233726D01*
Y231837D01*
X345505Y227743D01*
X330897D01*
X305990Y252650D01*
X305990Y252650D01*
X305246Y253394D01*
X304700Y253759D01*
X304056Y253887D01*
X286712D01*
X286068Y253759D01*
X285522Y253394D01*
X284778Y252650D01*
X284778Y252650D01*
X201451Y169323D01*
X90388D01*
X89744Y169195D01*
X89198Y168830D01*
X47070Y126702D01*
X46705Y126156D01*
X46577Y125512D01*
Y67188D01*
X46544Y67119D01*
X45994Y66891D01*
X44869Y65766D01*
X44260Y64296D01*
Y62704D01*
X44627Y61818D01*
X43895Y60548D01*
X40892D01*
X33188Y68253D01*
X33189Y68267D01*
X34496Y68756D01*
X34692Y68560D01*
X36903Y67644D01*
X37592D01*
Y73660D01*
X38100D01*
Y74168D01*
X44116D01*
Y74857D01*
X43200Y77068D01*
X41508Y78760D01*
X40150Y79323D01*
Y80697D01*
X41508Y81260D01*
X43200Y82952D01*
X44116Y85163D01*
Y87557D01*
X43200Y89768D01*
X41508Y91460D01*
X40150Y92023D01*
Y93397D01*
X41508Y93960D01*
X43200Y95652D01*
X44116Y97863D01*
Y100257D01*
X43200Y102468D01*
X41508Y104160D01*
X40150Y104723D01*
Y106097D01*
X41508Y106660D01*
X43200Y108352D01*
X44116Y110563D01*
Y112957D01*
X43200Y115168D01*
X41508Y116860D01*
X40150Y117423D01*
Y118797D01*
X41508Y119360D01*
X43200Y121052D01*
X44116Y123263D01*
Y125657D01*
X43200Y127868D01*
X41508Y129560D01*
X39297Y130476D01*
X36903D01*
X34692Y129560D01*
X34496Y129364D01*
X33189Y129853D01*
X33188Y129867D01*
X89108Y185787D01*
X114876D01*
X115520Y185915D01*
X116066Y186280D01*
X167552Y237766D01*
X168967Y237385D01*
X169334Y236499D01*
X170459Y235374D01*
X171929Y234765D01*
X173521D01*
X174991Y235374D01*
X176116Y236499D01*
X176725Y237969D01*
Y239561D01*
X176116Y241031D01*
X174991Y242156D01*
X174105Y242523D01*
X173724Y243938D01*
X202422Y272637D01*
X314960D01*
X315604Y272765D01*
X316150Y273130D01*
X318623Y275602D01*
X318694Y275628D01*
X319244Y275400D01*
X320836D01*
X322306Y276009D01*
X323431Y277134D01*
X323659Y277684D01*
X323727Y277717D01*
X361253D01*
X364077Y274893D01*
D02*
G37*
G36*
X293025Y240987D02*
X292838Y241167D01*
X292651Y241328D01*
X292462Y241470D01*
X292272Y241594D01*
X292082Y241698D01*
X291890Y241783D01*
X291697Y241850D01*
X291503Y241897D01*
X291308Y241926D01*
X291112Y241935D01*
Y243205D01*
X291308Y243214D01*
X291503Y243243D01*
X291697Y243290D01*
X291890Y243357D01*
X292082Y243442D01*
X292272Y243546D01*
X292462Y243670D01*
X292651Y243812D01*
X292838Y243973D01*
X293025Y244153D01*
Y240987D01*
D02*
G37*
G36*
X366404Y242092D02*
X366433Y241897D01*
X366480Y241703D01*
X366547Y241510D01*
X366632Y241318D01*
X366736Y241128D01*
X366860Y240938D01*
X367002Y240749D01*
X367163Y240562D01*
X367343Y240375D01*
X364177D01*
X364357Y240562D01*
X364518Y240749D01*
X364660Y240938D01*
X364784Y241128D01*
X364888Y241318D01*
X364973Y241510D01*
X365040Y241703D01*
X365087Y241897D01*
X365116Y242092D01*
X365125Y242288D01*
X366395D01*
X366404Y242092D01*
D02*
G37*
G36*
X356847Y236498D02*
X356588Y236494D01*
X356342Y236475D01*
X356107Y236442D01*
X355886Y236395D01*
X355678Y236334D01*
X355482Y236259D01*
X355298Y236169D01*
X355128Y236066D01*
X354969Y235948D01*
X354824Y235816D01*
X353926Y236714D01*
X354058Y236859D01*
X354176Y237018D01*
X354280Y237188D01*
X354369Y237372D01*
X354444Y237568D01*
X354505Y237776D01*
X354552Y237997D01*
X354585Y238232D01*
X354604Y238478D01*
X354608Y238737D01*
X356847Y236498D01*
D02*
G37*
G36*
X350246Y238478D02*
X350265Y238232D01*
X350298Y237997D01*
X350345Y237776D01*
X350406Y237568D01*
X350481Y237372D01*
X350570Y237188D01*
X350674Y237018D01*
X350792Y236859D01*
X350924Y236714D01*
X350026Y235816D01*
X349880Y235948D01*
X349722Y236066D01*
X349552Y236169D01*
X349368Y236259D01*
X349172Y236334D01*
X348964Y236395D01*
X348742Y236442D01*
X348508Y236475D01*
X348262Y236494D01*
X348003Y236498D01*
X350242Y238737D01*
X350246Y238478D01*
D02*
G37*
G36*
X293025Y232097D02*
X292838Y232277D01*
X292651Y232438D01*
X292462Y232580D01*
X292272Y232704D01*
X292082Y232808D01*
X291890Y232893D01*
X291697Y232960D01*
X291503Y233007D01*
X291308Y233036D01*
X291112Y233045D01*
Y234315D01*
X291308Y234324D01*
X291503Y234353D01*
X291697Y234400D01*
X291890Y234467D01*
X292082Y234552D01*
X292272Y234656D01*
X292462Y234780D01*
X292651Y234922D01*
X292838Y235083D01*
X293025Y235263D01*
Y232097D01*
D02*
G37*
G36*
X608775Y232786D02*
X609256Y232371D01*
X609397Y232269D01*
X609529Y232187D01*
X609650Y232123D01*
X609762Y232077D01*
X609865Y232050D01*
X609957Y232042D01*
X607718Y229803D01*
X607710Y229895D01*
X607683Y229998D01*
X607637Y230110D01*
X607573Y230231D01*
X607491Y230363D01*
X607389Y230504D01*
X607131Y230815D01*
X606974Y230985D01*
X606799Y231165D01*
X608595Y232961D01*
X608775Y232786D01*
D02*
G37*
G36*
X609957Y227518D02*
X609865Y227510D01*
X609762Y227483D01*
X609650Y227437D01*
X609529Y227373D01*
X609397Y227290D01*
X609256Y227189D01*
X608945Y226931D01*
X608775Y226774D01*
X608595Y226599D01*
X606799Y228395D01*
X606974Y228575D01*
X607389Y229056D01*
X607491Y229197D01*
X607573Y229329D01*
X607637Y229450D01*
X607683Y229562D01*
X607710Y229665D01*
X607718Y229757D01*
X609957Y227518D01*
D02*
G37*
G36*
X293025Y223207D02*
X292838Y223387D01*
X292651Y223548D01*
X292462Y223690D01*
X292272Y223814D01*
X292082Y223918D01*
X291890Y224003D01*
X291697Y224070D01*
X291503Y224117D01*
X291308Y224146D01*
X291112Y224155D01*
Y225425D01*
X291308Y225434D01*
X291503Y225463D01*
X291697Y225510D01*
X291890Y225577D01*
X292082Y225662D01*
X292272Y225766D01*
X292462Y225890D01*
X292651Y226032D01*
X292838Y226193D01*
X293025Y226373D01*
Y223207D01*
D02*
G37*
G36*
X314937Y202208D02*
X314678Y202204D01*
X314431Y202185D01*
X314198Y202152D01*
X313976Y202105D01*
X313768Y202044D01*
X313572Y201969D01*
X313388Y201880D01*
X313218Y201776D01*
X313060Y201658D01*
X312914Y201526D01*
X312016Y202424D01*
X312148Y202570D01*
X312266Y202728D01*
X312369Y202898D01*
X312459Y203082D01*
X312534Y203278D01*
X312595Y203486D01*
X312642Y203708D01*
X312675Y203941D01*
X312694Y204188D01*
X312698Y204447D01*
X314937Y202208D01*
D02*
G37*
G36*
X304777D02*
X304518Y202204D01*
X304272Y202185D01*
X304037Y202152D01*
X303816Y202105D01*
X303608Y202044D01*
X303412Y201969D01*
X303228Y201880D01*
X303058Y201776D01*
X302899Y201658D01*
X302754Y201526D01*
X301856Y202424D01*
X301988Y202570D01*
X302106Y202728D01*
X302209Y202898D01*
X302299Y203082D01*
X302374Y203278D01*
X302435Y203486D01*
X302482Y203708D01*
X302515Y203941D01*
X302534Y204188D01*
X302538Y204447D01*
X304777Y202208D01*
D02*
G37*
G36*
X91443Y195083D02*
X91490Y194449D01*
X91518Y194278D01*
X91553Y194127D01*
X91594Y193995D01*
X91641Y193884D01*
X91694Y193792D01*
X91753Y193721D01*
X88587D01*
X88646Y193792D01*
X88699Y193884D01*
X88746Y193995D01*
X88787Y194127D01*
X88822Y194278D01*
X88850Y194449D01*
X88888Y194852D01*
X88897Y195083D01*
X88900Y195335D01*
X91440D01*
X91443Y195083D01*
D02*
G37*
G36*
X602079Y184042D02*
X602560Y183627D01*
X602701Y183526D01*
X602833Y183443D01*
X602954Y183379D01*
X603066Y183333D01*
X603169Y183306D01*
X603261Y183298D01*
X601022Y181059D01*
X601014Y181151D01*
X600987Y181254D01*
X600941Y181366D01*
X600877Y181487D01*
X600794Y181619D01*
X600693Y181760D01*
X600435Y182071D01*
X600278Y182241D01*
X600103Y182421D01*
X601899Y184217D01*
X602079Y184042D01*
D02*
G37*
G36*
X149122Y158883D02*
X149309Y158722D01*
X149498Y158580D01*
X149688Y158456D01*
X149878Y158352D01*
X150070Y158267D01*
X150263Y158200D01*
X150457Y158153D01*
X150652Y158125D01*
X150848Y158115D01*
Y156845D01*
X150652Y156835D01*
X150457Y156807D01*
X150263Y156760D01*
X150070Y156693D01*
X149878Y156608D01*
X149688Y156504D01*
X149498Y156380D01*
X149309Y156238D01*
X149122Y156077D01*
X148935Y155897D01*
Y159063D01*
X149122Y158883D01*
D02*
G37*
G36*
X199782Y155223D02*
X199969Y155062D01*
X200158Y154920D01*
X200348Y154796D01*
X200538Y154692D01*
X200730Y154607D01*
X200923Y154540D01*
X201117Y154493D01*
X201312Y154465D01*
X201508Y154455D01*
Y153185D01*
X201312Y153175D01*
X201117Y153147D01*
X200923Y153100D01*
X200730Y153033D01*
X200538Y152948D01*
X200348Y152844D01*
X200158Y152720D01*
X199969Y152578D01*
X199782Y152417D01*
X199595Y152237D01*
Y155403D01*
X199782Y155223D01*
D02*
G37*
G36*
X149122Y132063D02*
X149309Y131902D01*
X149498Y131760D01*
X149688Y131636D01*
X149878Y131532D01*
X150070Y131447D01*
X150263Y131380D01*
X150457Y131333D01*
X150652Y131305D01*
X150848Y131295D01*
Y130025D01*
X150652Y130015D01*
X150457Y129987D01*
X150263Y129940D01*
X150070Y129873D01*
X149878Y129788D01*
X149688Y129684D01*
X149498Y129560D01*
X149309Y129418D01*
X149122Y129257D01*
X148935Y129077D01*
Y132243D01*
X149122Y132063D01*
D02*
G37*
G36*
X31477Y129639D02*
X31265Y129387D01*
X31077Y129076D01*
X30911Y128708D01*
X30768Y128282D01*
X30649Y127798D01*
X30553Y127256D01*
X30480Y126657D01*
X30403Y125283D01*
X30400Y124510D01*
X25450Y129460D01*
X26223Y129463D01*
X28196Y129613D01*
X28738Y129709D01*
X29222Y129828D01*
X29648Y129971D01*
X30016Y130136D01*
X30327Y130325D01*
X30579Y130537D01*
X31477Y129639D01*
D02*
G37*
G36*
X30403Y72837D02*
X30553Y70864D01*
X30649Y70322D01*
X30768Y69838D01*
X30911Y69412D01*
X31077Y69044D01*
X31265Y68733D01*
X31477Y68481D01*
X30579Y67583D01*
X30327Y67795D01*
X30016Y67983D01*
X29648Y68149D01*
X29222Y68292D01*
X28738Y68411D01*
X28196Y68507D01*
X27596Y68580D01*
X26223Y68657D01*
X25450Y68660D01*
X30400Y73610D01*
X30403Y72837D01*
D02*
G37*
G36*
X48905Y66832D02*
X48933Y66637D01*
X48980Y66443D01*
X49047Y66250D01*
X49132Y66058D01*
X49236Y65868D01*
X49360Y65678D01*
X49502Y65489D01*
X49663Y65302D01*
X49843Y65115D01*
X46677D01*
X46857Y65302D01*
X47018Y65489D01*
X47160Y65678D01*
X47284Y65868D01*
X47388Y66058D01*
X47473Y66250D01*
X47540Y66443D01*
X47587Y66637D01*
X47615Y66832D01*
X47625Y67028D01*
X48895D01*
X48905Y66832D01*
D02*
G37*
G36*
X455603Y43098D02*
X455442Y42911D01*
X455300Y42722D01*
X455176Y42532D01*
X455072Y42342D01*
X454987Y42150D01*
X454920Y41957D01*
X454873Y41763D01*
X454845Y41568D01*
X454835Y41372D01*
X453565D01*
X453555Y41568D01*
X453527Y41763D01*
X453480Y41957D01*
X453413Y42150D01*
X453328Y42342D01*
X453224Y42532D01*
X453100Y42722D01*
X452958Y42911D01*
X452797Y43098D01*
X452617Y43285D01*
X455783D01*
X455603Y43098D01*
D02*
G37*
G36*
X439603D02*
X439442Y42911D01*
X439300Y42722D01*
X439176Y42532D01*
X439072Y42342D01*
X438987Y42150D01*
X438920Y41957D01*
X438873Y41763D01*
X438844Y41568D01*
X438835Y41372D01*
X437565D01*
X437556Y41568D01*
X437527Y41763D01*
X437480Y41957D01*
X437413Y42150D01*
X437328Y42342D01*
X437224Y42532D01*
X437100Y42722D01*
X436958Y42911D01*
X436797Y43098D01*
X436617Y43285D01*
X439783D01*
X439603Y43098D01*
D02*
G37*
G36*
X423603D02*
X423442Y42911D01*
X423300Y42722D01*
X423176Y42532D01*
X423072Y42342D01*
X422987Y42150D01*
X422920Y41957D01*
X422873Y41763D01*
X422845Y41568D01*
X422835Y41372D01*
X421565D01*
X421555Y41568D01*
X421527Y41763D01*
X421480Y41957D01*
X421413Y42150D01*
X421328Y42342D01*
X421224Y42532D01*
X421100Y42722D01*
X420958Y42911D01*
X420797Y43098D01*
X420617Y43285D01*
X423783D01*
X423603Y43098D01*
D02*
G37*
G36*
X399603D02*
X399442Y42911D01*
X399300Y42722D01*
X399176Y42532D01*
X399072Y42342D01*
X398987Y42150D01*
X398920Y41957D01*
X398873Y41763D01*
X398844Y41568D01*
X398835Y41372D01*
X397565D01*
X397556Y41568D01*
X397527Y41763D01*
X397480Y41957D01*
X397413Y42150D01*
X397328Y42342D01*
X397224Y42532D01*
X397100Y42722D01*
X396958Y42911D01*
X396797Y43098D01*
X396617Y43285D01*
X399783D01*
X399603Y43098D01*
D02*
G37*
G36*
X375603D02*
X375442Y42911D01*
X375300Y42722D01*
X375176Y42532D01*
X375072Y42342D01*
X374987Y42150D01*
X374920Y41957D01*
X374873Y41763D01*
X374845Y41568D01*
X374835Y41372D01*
X373565D01*
X373555Y41568D01*
X373527Y41763D01*
X373480Y41957D01*
X373413Y42150D01*
X373328Y42342D01*
X373224Y42532D01*
X373100Y42722D01*
X372958Y42911D01*
X372797Y43098D01*
X372617Y43285D01*
X375783D01*
X375603Y43098D01*
D02*
G37*
G36*
X351603D02*
X351442Y42911D01*
X351300Y42722D01*
X351176Y42532D01*
X351072Y42342D01*
X350987Y42150D01*
X350920Y41957D01*
X350873Y41763D01*
X350844Y41568D01*
X350835Y41372D01*
X349565D01*
X349556Y41568D01*
X349527Y41763D01*
X349480Y41957D01*
X349413Y42150D01*
X349328Y42342D01*
X349224Y42532D01*
X349100Y42722D01*
X348958Y42911D01*
X348797Y43098D01*
X348617Y43285D01*
X351783D01*
X351603Y43098D01*
D02*
G37*
G36*
X327603D02*
X327442Y42911D01*
X327300Y42722D01*
X327176Y42532D01*
X327072Y42342D01*
X326987Y42150D01*
X326920Y41957D01*
X326873Y41763D01*
X326844Y41568D01*
X326835Y41372D01*
X325565D01*
X325555Y41568D01*
X325527Y41763D01*
X325480Y41957D01*
X325413Y42150D01*
X325328Y42342D01*
X325224Y42532D01*
X325100Y42722D01*
X324958Y42911D01*
X324797Y43098D01*
X324617Y43285D01*
X327783D01*
X327603Y43098D01*
D02*
G37*
G36*
X454841Y39792D02*
X454860Y39571D01*
X454892Y39376D01*
X454937Y39207D01*
X454994Y39064D01*
X455064Y38947D01*
X455146Y38856D01*
X455241Y38791D01*
X455349Y38752D01*
X455470Y38739D01*
X452930D01*
X453051Y38752D01*
X453159Y38791D01*
X453254Y38856D01*
X453336Y38947D01*
X453406Y39064D01*
X453463Y39207D01*
X453508Y39376D01*
X453540Y39571D01*
X453559Y39792D01*
X453565Y40040D01*
X454835D01*
X454841Y39792D01*
D02*
G37*
G36*
X398841D02*
X398860Y39571D01*
X398892Y39376D01*
X398937Y39207D01*
X398994Y39064D01*
X399064Y38947D01*
X399146Y38856D01*
X399241Y38791D01*
X399349Y38752D01*
X399470Y38739D01*
X396930D01*
X397051Y38752D01*
X397159Y38791D01*
X397254Y38856D01*
X397336Y38947D01*
X397406Y39064D01*
X397463Y39207D01*
X397508Y39376D01*
X397540Y39571D01*
X397559Y39792D01*
X397565Y40040D01*
X398835D01*
X398841Y39792D01*
D02*
G37*
G36*
X438841Y39792D02*
X438860Y39571D01*
X438892Y39376D01*
X438937Y39207D01*
X438994Y39064D01*
X439064Y38947D01*
X439146Y38856D01*
X439241Y38791D01*
X439349Y38752D01*
X439470Y38739D01*
X436930D01*
X437051Y38752D01*
X437159Y38791D01*
X437254Y38856D01*
X437336Y38947D01*
X437406Y39064D01*
X437463Y39207D01*
X437508Y39376D01*
X437540Y39571D01*
X437559Y39792D01*
X437565Y40040D01*
X438835D01*
X438841Y39792D01*
D02*
G37*
G36*
X422841D02*
X422860Y39571D01*
X422892Y39376D01*
X422937Y39207D01*
X422994Y39064D01*
X423064Y38947D01*
X423146Y38856D01*
X423241Y38791D01*
X423349Y38752D01*
X423470Y38739D01*
X420930D01*
X421051Y38752D01*
X421159Y38791D01*
X421254Y38856D01*
X421336Y38947D01*
X421406Y39064D01*
X421463Y39207D01*
X421508Y39376D01*
X421540Y39571D01*
X421559Y39792D01*
X421565Y40040D01*
X422835D01*
X422841Y39792D01*
D02*
G37*
G36*
X374841D02*
X374860Y39571D01*
X374892Y39376D01*
X374937Y39207D01*
X374994Y39064D01*
X375064Y38947D01*
X375146Y38856D01*
X375241Y38791D01*
X375349Y38752D01*
X375470Y38739D01*
X372930D01*
X373051Y38752D01*
X373159Y38791D01*
X373254Y38856D01*
X373336Y38947D01*
X373406Y39064D01*
X373463Y39207D01*
X373508Y39376D01*
X373540Y39571D01*
X373559Y39792D01*
X373565Y40040D01*
X374835D01*
X374841Y39792D01*
D02*
G37*
G36*
X350841D02*
X350860Y39571D01*
X350892Y39376D01*
X350937Y39207D01*
X350994Y39064D01*
X351064Y38947D01*
X351146Y38856D01*
X351241Y38791D01*
X351349Y38752D01*
X351470Y38739D01*
X348930D01*
X349051Y38752D01*
X349159Y38791D01*
X349254Y38856D01*
X349336Y38947D01*
X349406Y39064D01*
X349463Y39207D01*
X349508Y39376D01*
X349540Y39571D01*
X349559Y39792D01*
X349565Y40040D01*
X350835D01*
X350841Y39792D01*
D02*
G37*
G36*
X326841D02*
X326860Y39571D01*
X326892Y39376D01*
X326937Y39207D01*
X326994Y39064D01*
X327064Y38947D01*
X327146Y38856D01*
X327241Y38791D01*
X327349Y38752D01*
X327470Y38739D01*
X324930D01*
X325051Y38752D01*
X325159Y38791D01*
X325254Y38856D01*
X325336Y38947D01*
X325406Y39064D01*
X325463Y39207D01*
X325508Y39376D01*
X325540Y39571D01*
X325559Y39792D01*
X325565Y40040D01*
X326835D01*
X326841Y39792D01*
D02*
G37*
G36*
X505460Y104140D02*
Y-2540D01*
X495300Y-12700D01*
X365280D01*
Y8617D01*
X365404Y8700D01*
X366996D01*
X368466Y9309D01*
X369591Y10434D01*
X370200Y11904D01*
Y13496D01*
X369591Y14966D01*
X368466Y16091D01*
X368754Y17346D01*
X369113Y17784D01*
X370684Y17784D01*
X370986Y17784D01*
X377414D01*
X377716Y17784D01*
X378684D01*
X378986Y17784D01*
X385414D01*
X385716Y17784D01*
X386684D01*
X386986Y17784D01*
X393414D01*
X393716Y17784D01*
X394986Y17784D01*
X401414D01*
X401716Y17784D01*
X402684D01*
X402986Y17784D01*
X409414D01*
X410684Y17784D01*
X410986Y17784D01*
X417414D01*
X417716Y17784D01*
X418684D01*
X418986Y17784D01*
X425414D01*
X425716Y17784D01*
X426684D01*
X426986Y17784D01*
X433414D01*
X433716Y17784D01*
X434684D01*
X434986Y17784D01*
X441414D01*
X441716Y17784D01*
X442986Y17784D01*
X449414D01*
X449716Y17784D01*
X450684D01*
X450986Y17784D01*
X457414D01*
X458684Y17784D01*
X458986Y17784D01*
X461559D01*
X461559Y17802D01*
X461540Y18018D01*
X461508Y18208D01*
X461463Y18373D01*
X461406Y18513D01*
X461336Y18627D01*
X461254Y18716D01*
X461159Y18780D01*
X461051Y18818D01*
X460930Y18830D01*
X461692D01*
Y28800D01*
Y39816D01*
X458986D01*
X457716Y39816D01*
X457414Y39816D01*
X457113D01*
X456753Y40253D01*
X456466Y41509D01*
X457591Y42634D01*
X458200Y44104D01*
Y45696D01*
X457591Y47166D01*
X456466Y48291D01*
X454996Y48900D01*
X453404D01*
X451934Y48291D01*
X450809Y47166D01*
X450200Y45696D01*
Y44104D01*
X450809Y42634D01*
X451934Y41509D01*
X451647Y40253D01*
X451287Y39816D01*
X449716Y39816D01*
X449414Y39816D01*
X442986D01*
X442684Y39816D01*
X441113Y39816D01*
X440753Y40253D01*
X440466Y41509D01*
X441591Y42634D01*
X442200Y44104D01*
Y45696D01*
X441591Y47166D01*
X440466Y48291D01*
X438996Y48900D01*
X437404D01*
X435934Y48291D01*
X434809Y47166D01*
X434200Y45696D01*
Y44104D01*
X434809Y42634D01*
X435934Y41509D01*
X435647Y40253D01*
X435287Y39816D01*
X433716Y39816D01*
X433414Y39816D01*
X426986D01*
X426684Y39816D01*
X425716D01*
X425414Y39816D01*
X425112D01*
X424753Y40253D01*
X424466Y41509D01*
X425591Y42634D01*
X426200Y44104D01*
Y45696D01*
X425591Y47166D01*
X424466Y48291D01*
X422996Y48900D01*
X421404D01*
X419934Y48291D01*
X418809Y47166D01*
X418200Y45696D01*
Y44104D01*
X418809Y42634D01*
X419934Y41509D01*
X419647Y40253D01*
X419287Y39816D01*
X417716Y39816D01*
X417414Y39816D01*
X410986D01*
X409716Y39816D01*
X409414Y39816D01*
X402986D01*
X402684Y39816D01*
X401716D01*
X401414Y39816D01*
X401113D01*
X400753Y40253D01*
X400466Y41509D01*
X401591Y42634D01*
X402200Y44104D01*
Y45696D01*
X401591Y47166D01*
X400466Y48291D01*
X398996Y48900D01*
X397404D01*
X395934Y48291D01*
X394809Y47166D01*
X394200Y45696D01*
Y44104D01*
X394809Y42634D01*
X395934Y41509D01*
X395647Y40253D01*
X395287Y39816D01*
X394684Y39816D01*
X393414Y39816D01*
X386986D01*
X386684Y39816D01*
X385716D01*
X385414Y39816D01*
X378986D01*
X378684Y39816D01*
X377716D01*
X377414Y39816D01*
X377113D01*
X376753Y40253D01*
X376466Y41509D01*
X377591Y42634D01*
X378200Y44104D01*
Y45696D01*
X377591Y47166D01*
X376466Y48291D01*
X374996Y48900D01*
X373404D01*
X371934Y48291D01*
X370809Y47166D01*
X370200Y45696D01*
Y44104D01*
X370809Y42634D01*
X371934Y41509D01*
X371647Y40253D01*
X371287Y39816D01*
X369716Y39816D01*
X369414Y39816D01*
X362684D01*
Y39816D01*
X361716D01*
Y39816D01*
X354986D01*
X354684Y39816D01*
X353716D01*
X353414Y39816D01*
X353113D01*
X352753Y40253D01*
X352466Y41509D01*
X353591Y42634D01*
X354200Y44104D01*
Y45696D01*
X353591Y47166D01*
X352466Y48291D01*
X350996Y48900D01*
X349404D01*
X347934Y48291D01*
X346809Y47166D01*
X346200Y45696D01*
Y44104D01*
X346809Y42634D01*
X347934Y41509D01*
X347647Y40253D01*
X347287Y39816D01*
X345716Y39816D01*
X345414Y39816D01*
X338684D01*
Y39816D01*
X337716D01*
Y39816D01*
X330986D01*
X330684Y39816D01*
X329716D01*
X329414Y39816D01*
X329113D01*
X328753Y40253D01*
X328466Y41509D01*
X329591Y42634D01*
X330200Y44104D01*
Y45696D01*
X329591Y47166D01*
X328466Y48291D01*
X326996Y48900D01*
X325404D01*
X323934Y48291D01*
X322809Y47166D01*
X322200Y45696D01*
Y44104D01*
X322809Y42634D01*
X323934Y41509D01*
X323647Y40253D01*
X323287Y39816D01*
X321716Y39816D01*
X321414Y39816D01*
X318708D01*
Y28800D01*
Y18830D01*
X319470D01*
X319349Y18818D01*
X319241Y18780D01*
X319146Y18716D01*
X319064Y18627D01*
X318994Y18513D01*
X318937Y18373D01*
X318892Y18208D01*
X318860Y18018D01*
X318841Y17802D01*
X318841Y17784D01*
X321414D01*
X321716Y17784D01*
X322684D01*
X322986Y17784D01*
X329414D01*
X329716Y17784D01*
X330684D01*
X330986Y17784D01*
X332703D01*
X332955Y16514D01*
X331934Y16091D01*
X330809Y14966D01*
X330200Y13496D01*
Y11904D01*
X330809Y10434D01*
X331934Y9309D01*
X333404Y8700D01*
X334996D01*
X336466Y9309D01*
X337480Y10323D01*
X338200Y10383D01*
X338920Y10323D01*
X339934Y9309D01*
X341404Y8700D01*
X342996D01*
X344466Y9309D01*
X345591Y10434D01*
X346200Y11904D01*
Y13496D01*
X345591Y14966D01*
X344466Y16091D01*
X343445Y16514D01*
X343697Y17784D01*
X345414D01*
X345716Y17784D01*
X346684D01*
X346986Y17784D01*
X353414D01*
X353716Y17784D01*
X354684D01*
X355287Y17784D01*
X355646Y17346D01*
X355934Y16091D01*
X354809Y14966D01*
X354200Y13496D01*
Y11904D01*
X354809Y10434D01*
X355934Y9309D01*
X357404Y8700D01*
X358996D01*
X359374Y8447D01*
Y-12700D01*
X165100D01*
X154940Y-2540D01*
Y104140D01*
X165100Y114300D01*
X495300D01*
X505460Y104140D01*
D02*
G37*
G36*
X367349Y18818D02*
X367241Y18780D01*
X367146Y18716D01*
X367064Y18627D01*
X366994Y18513D01*
X366937Y18373D01*
X366892Y18208D01*
X366860Y18018D01*
X366841Y17802D01*
X366835Y17560D01*
X365565D01*
X365559Y17802D01*
X365540Y18018D01*
X365508Y18208D01*
X365463Y18373D01*
X365406Y18513D01*
X365336Y18627D01*
X365254Y18716D01*
X365159Y18780D01*
X365051Y18818D01*
X364930Y18830D01*
X367470D01*
X367349Y18818D01*
D02*
G37*
G36*
X359349D02*
X359241Y18780D01*
X359146Y18716D01*
X359064Y18627D01*
X358994Y18513D01*
X358937Y18373D01*
X358892Y18208D01*
X358860Y18018D01*
X358841Y17802D01*
X358835Y17560D01*
X357565D01*
X357559Y17802D01*
X357540Y18018D01*
X357508Y18208D01*
X357463Y18373D01*
X357406Y18513D01*
X357336Y18627D01*
X357254Y18716D01*
X357159Y18780D01*
X357051Y18818D01*
X356930Y18830D01*
X359470D01*
X359349Y18818D01*
D02*
G37*
G36*
X366844Y16032D02*
X366873Y15837D01*
X366920Y15643D01*
X366987Y15450D01*
X367072Y15258D01*
X367176Y15068D01*
X367300Y14878D01*
X367442Y14689D01*
X367603Y14502D01*
X367783Y14315D01*
X364617D01*
X364797Y14502D01*
X364958Y14689D01*
X365100Y14878D01*
X365224Y15068D01*
X365328Y15258D01*
X365413Y15450D01*
X365480Y15643D01*
X365527Y15837D01*
X365555Y16032D01*
X365565Y16228D01*
X366835D01*
X366844Y16032D01*
D02*
G37*
G36*
X358844D02*
X358873Y15837D01*
X358920Y15643D01*
X358987Y15450D01*
X359072Y15258D01*
X359176Y15068D01*
X359300Y14878D01*
X359442Y14689D01*
X359603Y14502D01*
X359783Y14315D01*
X356617D01*
X356797Y14502D01*
X356958Y14689D01*
X357100Y14878D01*
X357224Y15068D01*
X357328Y15258D01*
X357413Y15450D01*
X357480Y15643D01*
X357527Y15837D01*
X357556Y16032D01*
X357565Y16228D01*
X358835D01*
X358844Y16032D01*
D02*
G37*
G36*
X340176Y15458D02*
X340328Y15351D01*
X340498Y15257D01*
X340686Y15176D01*
X340890Y15108D01*
X341113Y15053D01*
X341353Y15011D01*
X341610Y14982D01*
X341885Y14965D01*
X342177Y14962D01*
X339938Y12723D01*
X339935Y13015D01*
X339889Y13547D01*
X339847Y13787D01*
X339792Y14010D01*
X339724Y14215D01*
X339643Y14402D01*
X339549Y14572D01*
X339442Y14724D01*
X339323Y14859D01*
X340041Y15577D01*
X340176Y15458D01*
D02*
G37*
G36*
X337077Y14859D02*
X336958Y14724D01*
X336851Y14572D01*
X336757Y14402D01*
X336676Y14215D01*
X336608Y14010D01*
X336553Y13787D01*
X336511Y13547D01*
X336482Y13290D01*
X336465Y13015D01*
X336462Y12723D01*
X334223Y14962D01*
X334515Y14965D01*
X335047Y15011D01*
X335287Y15053D01*
X335510Y15108D01*
X335714Y15176D01*
X335902Y15257D01*
X336072Y15351D01*
X336224Y15458D01*
X336359Y15577D01*
X337077Y14859D01*
D02*
G37*
G36*
X366177Y10438D02*
X365918Y10434D01*
X365672Y10415D01*
X365438Y10382D01*
X365216Y10335D01*
X365008Y10274D01*
X364812Y10199D01*
X364628Y10109D01*
X364458Y10006D01*
X364300Y9888D01*
X364154Y9756D01*
X363256Y10654D01*
X363388Y10799D01*
X363506Y10958D01*
X363610Y11128D01*
X363699Y11312D01*
X363774Y11508D01*
X363835Y11716D01*
X363882Y11938D01*
X363915Y12171D01*
X363934Y12418D01*
X363938Y12677D01*
X366177Y10438D01*
D02*
G37*
G36*
X360466Y12418D02*
X360485Y12171D01*
X360518Y11938D01*
X360565Y11716D01*
X360626Y11508D01*
X360701Y11312D01*
X360790Y11128D01*
X360894Y10958D01*
X361012Y10799D01*
X361144Y10654D01*
X360246Y9756D01*
X360100Y9888D01*
X359942Y10006D01*
X359772Y10109D01*
X359588Y10199D01*
X359392Y10274D01*
X359184Y10335D01*
X358963Y10382D01*
X358728Y10415D01*
X358482Y10434D01*
X358223Y10438D01*
X360462Y12677D01*
X360466Y12418D01*
D02*
G37*
%LPC*%
G36*
X353856Y275780D02*
X352264D01*
X350794Y275171D01*
X349669Y274046D01*
X349060Y272576D01*
Y270984D01*
X349669Y269514D01*
X350794Y268389D01*
X352264Y267780D01*
X353856D01*
X355326Y268389D01*
X356451Y269514D01*
X357060Y270984D01*
Y272576D01*
X356451Y274046D01*
X355326Y275171D01*
X353856Y275780D01*
D02*
G37*
G36*
X343696D02*
X342104D01*
X340634Y275171D01*
X339509Y274046D01*
X338900Y272576D01*
Y270984D01*
X339509Y269514D01*
X340634Y268389D01*
X342104Y267780D01*
X343696D01*
X345166Y268389D01*
X346291Y269514D01*
X346900Y270984D01*
Y272576D01*
X346291Y274046D01*
X345166Y275171D01*
X343696Y275780D01*
D02*
G37*
G36*
X333536D02*
X331944D01*
X330474Y275171D01*
X329349Y274046D01*
X328740Y272576D01*
Y270984D01*
X329349Y269514D01*
X330474Y268389D01*
X331944Y267780D01*
X333536D01*
X335006Y268389D01*
X336131Y269514D01*
X336740Y270984D01*
Y272576D01*
X336131Y274046D01*
X335006Y275171D01*
X333536Y275780D01*
D02*
G37*
G36*
X353856Y264350D02*
X352264D01*
X350794Y263741D01*
X349669Y262616D01*
X349060Y261146D01*
Y259554D01*
X349669Y258084D01*
X350794Y256959D01*
X352264Y256350D01*
X353856D01*
X355326Y256959D01*
X356451Y258084D01*
X357060Y259554D01*
Y261146D01*
X356451Y262616D01*
X355326Y263741D01*
X353856Y264350D01*
D02*
G37*
G36*
X343696D02*
X342104D01*
X340634Y263741D01*
X339509Y262616D01*
X338900Y261146D01*
Y259554D01*
X339509Y258084D01*
X340634Y256959D01*
X342104Y256350D01*
X343696D01*
X345166Y256959D01*
X346291Y258084D01*
X346900Y259554D01*
Y261146D01*
X346291Y262616D01*
X345166Y263741D01*
X343696Y264350D01*
D02*
G37*
G36*
X333536D02*
X331944D01*
X330474Y263741D01*
X329349Y262616D01*
X328740Y261146D01*
Y259554D01*
X329349Y258084D01*
X330474Y256959D01*
X331944Y256350D01*
X333536D01*
X335006Y256959D01*
X336131Y258084D01*
X336740Y259554D01*
Y261146D01*
X336131Y262616D01*
X335006Y263741D01*
X333536Y264350D01*
D02*
G37*
G36*
X247176Y254350D02*
X245584D01*
X244114Y253741D01*
X242989Y252616D01*
X242380Y251146D01*
Y249554D01*
X242989Y248084D01*
X244114Y246959D01*
X245584Y246350D01*
X247176D01*
X248646Y246959D01*
X249771Y248084D01*
X250380Y249554D01*
Y251146D01*
X249771Y252616D01*
X248646Y253741D01*
X247176Y254350D01*
D02*
G37*
G36*
X353856Y252920D02*
X352264D01*
X350794Y252311D01*
X349669Y251186D01*
X349060Y249716D01*
Y248124D01*
X349669Y246654D01*
X350794Y245529D01*
X352264Y244920D01*
X353856D01*
X355326Y245529D01*
X356451Y246654D01*
X357060Y248124D01*
Y249716D01*
X356451Y251186D01*
X355326Y252311D01*
X353856Y252920D01*
D02*
G37*
G36*
X343696D02*
X342104D01*
X340634Y252311D01*
X339509Y251186D01*
X338900Y249716D01*
Y248124D01*
X339509Y246654D01*
X340634Y245529D01*
X342104Y244920D01*
X343696D01*
X345166Y245529D01*
X346291Y246654D01*
X346900Y248124D01*
Y249716D01*
X346291Y251186D01*
X345166Y252311D01*
X343696Y252920D01*
D02*
G37*
G36*
X333536D02*
X331944D01*
X330474Y252311D01*
X329349Y251186D01*
X328740Y249716D01*
Y248124D01*
X329349Y246654D01*
X330474Y245529D01*
X331944Y244920D01*
X333536D01*
X335006Y245529D01*
X336131Y246654D01*
X336740Y248124D01*
Y249716D01*
X336131Y251186D01*
X335006Y252311D01*
X333536Y252920D01*
D02*
G37*
G36*
X44116Y73152D02*
X38608D01*
Y67644D01*
X39297D01*
X41508Y68560D01*
X43200Y70252D01*
X44116Y72463D01*
Y73152D01*
D02*
G37*
G36*
X478996Y92900D02*
X477404D01*
X475934Y92291D01*
X474920Y91277D01*
X474200Y91217D01*
X473480Y91277D01*
X472466Y92291D01*
X470996Y92900D01*
X469404D01*
X467934Y92291D01*
X466920Y91277D01*
X466200Y91217D01*
X465480Y91277D01*
X464466Y92291D01*
X462996Y92900D01*
X461404D01*
X459934Y92291D01*
X458809Y91166D01*
X458200Y89696D01*
Y88104D01*
X458809Y86634D01*
X459934Y85509D01*
X459647Y84253D01*
X459287Y83816D01*
X458684Y83816D01*
X457414Y83816D01*
X450986D01*
X450684Y83816D01*
X449716D01*
X449414Y83816D01*
X442986D01*
X441716Y83816D01*
X441414Y83816D01*
X434986D01*
X434684Y83816D01*
X433716D01*
X433414Y83816D01*
X426986D01*
X426684Y83816D01*
X425716D01*
X425414Y83816D01*
X418986D01*
X418684Y83816D01*
X417716D01*
X417414Y83816D01*
X410986D01*
X410684Y83816D01*
X409414Y83816D01*
X402986D01*
X402684Y83816D01*
X401716D01*
X401414Y83816D01*
X394986D01*
X393716Y83816D01*
X393414Y83816D01*
X386986D01*
X386684Y83816D01*
X385716D01*
X385414Y83816D01*
X378986D01*
X378684Y83816D01*
X377716D01*
X377414Y83816D01*
X370986D01*
X370684Y83816D01*
X369716D01*
X369414Y83816D01*
X362986D01*
X362684Y83816D01*
X361716D01*
X361414Y83816D01*
X354986D01*
X354684Y83816D01*
X353716D01*
X353414Y83816D01*
X346986D01*
X346684Y83816D01*
X345716D01*
X345414Y83816D01*
X338986D01*
X338684Y83816D01*
X337716D01*
X337414Y83816D01*
X330986D01*
X330684Y83816D01*
X329716D01*
X329414Y83816D01*
X322986D01*
X322684Y83816D01*
X321716D01*
X321414Y83816D01*
X321113D01*
X320753Y84253D01*
X320466Y85509D01*
X321591Y86634D01*
X322200Y88104D01*
Y89696D01*
X321591Y91166D01*
X320466Y92291D01*
X318996Y92900D01*
X317404D01*
X315934Y92291D01*
X314920Y91277D01*
X314200Y91217D01*
X313480Y91277D01*
X312466Y92291D01*
X310996Y92900D01*
X309404D01*
X307934Y92291D01*
X306809Y91166D01*
X306200Y89696D01*
Y88104D01*
X306809Y86634D01*
X307934Y85509D01*
X307647Y84253D01*
X307287Y83816D01*
X305716Y83816D01*
X305414Y83816D01*
X298986D01*
X298684Y83816D01*
X297716D01*
X297414Y83816D01*
X290986D01*
X290684Y83816D01*
X289716D01*
X289414Y83816D01*
X282986D01*
X282684Y83816D01*
X281716D01*
X281414Y83816D01*
X274986D01*
X274684Y83816D01*
X273716D01*
X273414Y83816D01*
X266986D01*
X266684Y83816D01*
X265414Y83816D01*
X258986D01*
X258684Y83816D01*
X257716D01*
X257414Y83816D01*
X250986D01*
X249716Y83816D01*
X249414Y83816D01*
X242986D01*
X242684Y83816D01*
X241716D01*
X241414Y83816D01*
X234986D01*
X234684Y83816D01*
X233716D01*
X233414Y83816D01*
X226986D01*
X226684Y83816D01*
X225716D01*
X225414Y83816D01*
X218986D01*
X218684Y83816D01*
X217414Y83816D01*
X210986D01*
X210684Y83816D01*
X209716D01*
X209414Y83816D01*
X202986D01*
X201716Y83816D01*
X201414Y83816D01*
X198841D01*
X198841Y83792D01*
X198860Y83571D01*
X198892Y83376D01*
X198937Y83207D01*
X198994Y83064D01*
X199064Y82947D01*
X199146Y82856D01*
X199241Y82791D01*
X199349Y82752D01*
X199470Y82739D01*
X198708D01*
Y72800D01*
Y61784D01*
X201414D01*
X202684Y61784D01*
X203287Y61784D01*
X203646Y61346D01*
X203934Y60091D01*
X202809Y58966D01*
X202200Y57496D01*
Y55904D01*
X202809Y54434D01*
X203934Y53309D01*
X205404Y52700D01*
X206996D01*
X208466Y53309D01*
X209591Y54434D01*
X210200Y55904D01*
Y57496D01*
X209591Y58966D01*
X208466Y60091D01*
X208754Y61346D01*
X209113Y61784D01*
X210684Y61784D01*
X210986Y61784D01*
X217414D01*
X217716Y61784D01*
X218986Y61784D01*
X225414D01*
X225716Y61784D01*
X226684D01*
X227287Y61784D01*
X227646Y61347D01*
X227934Y60091D01*
X226809Y58966D01*
X226200Y57496D01*
Y55904D01*
X226809Y54434D01*
X227934Y53309D01*
X229404Y52700D01*
X230996D01*
X232466Y53309D01*
X233591Y54434D01*
X234200Y55904D01*
Y57496D01*
X233591Y58966D01*
X232466Y60091D01*
X232754Y61347D01*
X233113Y61784D01*
X234684Y61784D01*
X234986Y61784D01*
X241414D01*
X241716Y61784D01*
X242684D01*
X242986Y61784D01*
X249414D01*
X250684Y61784D01*
X251287Y61784D01*
X251646Y61346D01*
X251934Y60091D01*
X250809Y58966D01*
X250200Y57496D01*
Y55904D01*
X250809Y54434D01*
X251934Y53309D01*
X253404Y52700D01*
X254996D01*
X256466Y53309D01*
X257591Y54434D01*
X258200Y55904D01*
Y57496D01*
X257591Y58966D01*
X256466Y60091D01*
X256754Y61346D01*
X257113Y61784D01*
X258684Y61784D01*
X258986Y61784D01*
X265414D01*
X265716Y61784D01*
X266986Y61784D01*
X273414D01*
X273716Y61784D01*
X274684D01*
X275287Y61784D01*
X275646Y61347D01*
X275934Y60091D01*
X274809Y58966D01*
X274200Y57496D01*
Y55904D01*
X274809Y54434D01*
X275934Y53309D01*
X277404Y52700D01*
X278996D01*
X280466Y53309D01*
X281591Y54434D01*
X282200Y55904D01*
Y57496D01*
X281591Y58966D01*
X280466Y60091D01*
X280754Y61347D01*
X281113Y61784D01*
X282684Y61784D01*
X282986Y61784D01*
X289414D01*
X289716Y61784D01*
X290684D01*
X290986Y61784D01*
X297414D01*
X297716Y61784D01*
X298684D01*
X299287Y61784D01*
X299646Y61347D01*
X299934Y60091D01*
X298809Y58966D01*
X298200Y57496D01*
Y55904D01*
X298809Y54434D01*
X299934Y53309D01*
X301404Y52700D01*
X302996D01*
X304466Y53309D01*
X305591Y54434D01*
X306200Y55904D01*
Y57496D01*
X305591Y58966D01*
X304466Y60091D01*
X304754Y61347D01*
X305113Y61784D01*
X306684Y61784D01*
X306986Y61784D01*
X313414D01*
X313716Y61784D01*
X314684D01*
X314986Y61784D01*
X321414D01*
X321716Y61784D01*
X322684D01*
X323287Y61784D01*
X323646Y61347D01*
X323934Y60091D01*
X322809Y58966D01*
X322200Y57496D01*
Y55904D01*
X322809Y54434D01*
X323934Y53309D01*
X325404Y52700D01*
X326996D01*
X328466Y53309D01*
X329591Y54434D01*
X330200Y55904D01*
Y57496D01*
X329591Y58966D01*
X328466Y60091D01*
X328754Y61347D01*
X329113Y61784D01*
X330684Y61784D01*
X330986Y61784D01*
X337414D01*
X337716Y61784D01*
X338684D01*
X338986Y61784D01*
X345414D01*
X345716Y61784D01*
X346684D01*
X347287Y61784D01*
X347646Y61347D01*
X347934Y60091D01*
X346809Y58966D01*
X346200Y57496D01*
Y55904D01*
X346809Y54434D01*
X347934Y53309D01*
X349404Y52700D01*
X350996D01*
X352466Y53309D01*
X353591Y54434D01*
X354200Y55904D01*
Y57496D01*
X353591Y58966D01*
X352466Y60091D01*
X352754Y61347D01*
X353113Y61784D01*
X354684Y61784D01*
X354986Y61784D01*
X361414D01*
X361716Y61784D01*
X362684D01*
X362986Y61784D01*
X369414D01*
X369716Y61784D01*
X370684D01*
X371287Y61784D01*
X371646Y61347D01*
X371934Y60091D01*
X370809Y58966D01*
X370200Y57496D01*
Y55904D01*
X370809Y54434D01*
X371934Y53309D01*
X373404Y52700D01*
X374996D01*
X376466Y53309D01*
X377591Y54434D01*
X378200Y55904D01*
Y57496D01*
X377591Y58966D01*
X376466Y60091D01*
X376754Y61347D01*
X377113Y61784D01*
X378684Y61784D01*
X378986Y61784D01*
X385414D01*
X385716Y61784D01*
X386684D01*
X386986Y61784D01*
X393414D01*
X394684Y61784D01*
X395287Y61784D01*
X395646Y61346D01*
X395934Y60091D01*
X394809Y58966D01*
X394200Y57496D01*
Y55904D01*
X394809Y54434D01*
X395934Y53309D01*
X397404Y52700D01*
X398996D01*
X400466Y53309D01*
X401591Y54434D01*
X402200Y55904D01*
Y57496D01*
X401591Y58966D01*
X400466Y60091D01*
X400754Y61346D01*
X401113Y61784D01*
X402684Y61784D01*
X402986Y61784D01*
X409414D01*
X409716Y61784D01*
X410986Y61784D01*
X417414D01*
X417716Y61784D01*
X418684D01*
X419287Y61784D01*
X419646Y61347D01*
X419934Y60091D01*
X418809Y58966D01*
X418200Y57496D01*
Y55904D01*
X418809Y54434D01*
X419934Y53309D01*
X421404Y52700D01*
X422996D01*
X424466Y53309D01*
X425591Y54434D01*
X426200Y55904D01*
Y57496D01*
X425591Y58966D01*
X424466Y60091D01*
X424754Y61347D01*
X425113Y61784D01*
X426684Y61784D01*
X426986Y61784D01*
X433414D01*
X433716Y61784D01*
X434684D01*
X435287Y61784D01*
X435646Y61347D01*
X435934Y60091D01*
X434809Y58966D01*
X434200Y57496D01*
Y55904D01*
X434809Y54434D01*
X435934Y53309D01*
X437404Y52700D01*
X438996D01*
X440466Y53309D01*
X441591Y54434D01*
X442200Y55904D01*
Y57496D01*
X441591Y58966D01*
X440466Y60091D01*
X440754Y61347D01*
X441113Y61784D01*
X442684Y61784D01*
X442986Y61784D01*
X449414D01*
X449716Y61784D01*
X450684D01*
X451287Y61784D01*
X451646Y61346D01*
X451934Y60091D01*
X450809Y58966D01*
X450200Y57496D01*
Y55904D01*
X450809Y54434D01*
X451934Y53309D01*
X453404Y52700D01*
X454996D01*
X456466Y53309D01*
X457591Y54434D01*
X458200Y55904D01*
Y57496D01*
X457591Y58966D01*
X456466Y60091D01*
X456754Y61346D01*
X457113Y61784D01*
X457716Y61784D01*
X458986Y61784D01*
X465414D01*
X465716Y61784D01*
X466684D01*
X466986Y61784D01*
X473414D01*
X473716Y61784D01*
X474684D01*
X474986Y61784D01*
X481414D01*
X481716Y61784D01*
X482684D01*
X483287Y61784D01*
X483646Y61347D01*
X483934Y60091D01*
X482809Y58966D01*
X482200Y57496D01*
Y55904D01*
X482809Y54434D01*
X483934Y53309D01*
X485404Y52700D01*
X486996D01*
X488466Y53309D01*
X489591Y54434D01*
X490200Y55904D01*
Y57496D01*
X489591Y58966D01*
X488466Y60091D01*
X488754Y61347D01*
X489113Y61784D01*
X489716D01*
Y83816D01*
X482986D01*
X482684Y83816D01*
X481716D01*
X481414Y83816D01*
X481113D01*
X480753Y84253D01*
X480466Y85509D01*
X481591Y86634D01*
X482200Y88104D01*
Y89696D01*
X481591Y91166D01*
X480466Y92291D01*
X478996Y92900D01*
D02*
G37*
G36*
X194684Y83816D02*
X193716D01*
X193414Y83816D01*
X190841D01*
X190841Y83792D01*
X190860Y83571D01*
X190892Y83376D01*
X190937Y83207D01*
X190994Y83064D01*
X191064Y82947D01*
X191146Y82856D01*
X191241Y82791D01*
X191349Y82752D01*
X191470Y82739D01*
X190708D01*
Y72800D01*
Y61784D01*
X193414D01*
X193716Y61784D01*
X194684D01*
X194986Y61784D01*
X197692D01*
Y72800D01*
Y82739D01*
X196930D01*
X197051Y82752D01*
X197159Y82791D01*
X197254Y82856D01*
X197336Y82947D01*
X197406Y83064D01*
X197463Y83207D01*
X197508Y83376D01*
X197540Y83571D01*
X197559Y83792D01*
X197559Y83816D01*
X194986D01*
X194684Y83816D01*
D02*
G37*
G36*
X186684D02*
X185716D01*
X185414Y83816D01*
X182841D01*
X182841Y83792D01*
X182860Y83571D01*
X182892Y83376D01*
X182937Y83207D01*
X182994Y83064D01*
X183064Y82947D01*
X183146Y82856D01*
X183241Y82791D01*
X183349Y82752D01*
X183470Y82739D01*
X182708D01*
Y72800D01*
Y61784D01*
X185414D01*
X185716Y61784D01*
X186684D01*
X186986Y61784D01*
X189692D01*
Y72800D01*
Y82739D01*
X188930D01*
X189051Y82752D01*
X189159Y82791D01*
X189254Y82856D01*
X189336Y82947D01*
X189406Y83064D01*
X189463Y83207D01*
X189508Y83376D01*
X189540Y83571D01*
X189559Y83792D01*
X189559Y83816D01*
X186986D01*
X186684Y83816D01*
D02*
G37*
G36*
X178684D02*
X177716D01*
X177414Y83816D01*
X170684D01*
Y61784D01*
X171287D01*
X171646Y61347D01*
X171934Y60091D01*
X170809Y58966D01*
X170200Y57496D01*
Y55904D01*
X170809Y54434D01*
X171934Y53309D01*
X173404Y52700D01*
X174996D01*
X176466Y53309D01*
X177591Y54434D01*
X178200Y55904D01*
Y57496D01*
X177591Y58966D01*
X176466Y60091D01*
X176754Y61347D01*
X177113Y61784D01*
X178684Y61784D01*
X178986Y61784D01*
X181692D01*
Y72800D01*
Y82739D01*
X180930D01*
X181051Y82752D01*
X181159Y82791D01*
X181254Y82856D01*
X181336Y82947D01*
X181406Y83064D01*
X181463Y83207D01*
X181508Y83376D01*
X181540Y83571D01*
X181559Y83792D01*
X181559Y83816D01*
X178986D01*
X178684Y83816D01*
D02*
G37*
G36*
X486996Y48900D02*
X485404D01*
X483934Y48291D01*
X482809Y47166D01*
X482200Y45696D01*
Y44104D01*
X482809Y42634D01*
X483934Y41509D01*
X483647Y40253D01*
X483287Y39816D01*
X481716Y39816D01*
X481414Y39816D01*
X478708D01*
Y28800D01*
Y18830D01*
X479470D01*
X479349Y18818D01*
X479241Y18780D01*
X479146Y18716D01*
X479064Y18627D01*
X478994Y18513D01*
X478937Y18373D01*
X478892Y18208D01*
X478860Y18018D01*
X478841Y17802D01*
X478841Y17784D01*
X481414D01*
X481716Y17784D01*
X482684D01*
X482986Y17784D01*
X489716D01*
Y39816D01*
X489113D01*
X488753Y40253D01*
X488466Y41509D01*
X489591Y42634D01*
X490200Y44104D01*
Y45696D01*
X489591Y47166D01*
X488466Y48291D01*
X486996Y48900D01*
D02*
G37*
G36*
X302996D02*
X301404D01*
X299934Y48291D01*
X298809Y47166D01*
X298200Y45696D01*
Y44104D01*
X298809Y42634D01*
X299934Y41509D01*
X299647Y40253D01*
X299287Y39816D01*
X297716Y39816D01*
X297414Y39816D01*
X290986D01*
X290684Y39816D01*
X289716D01*
X289414Y39816D01*
X282986D01*
X282684Y39816D01*
X281716D01*
X281414Y39816D01*
X281112D01*
X280753Y40253D01*
X280466Y41509D01*
X281591Y42634D01*
X282200Y44104D01*
Y45696D01*
X281591Y47166D01*
X280466Y48291D01*
X278996Y48900D01*
X277404D01*
X275934Y48291D01*
X274809Y47166D01*
X274200Y45696D01*
Y44104D01*
X274809Y42634D01*
X275934Y41509D01*
X275647Y40253D01*
X275287Y39816D01*
X273716Y39816D01*
X273414Y39816D01*
X266986D01*
X265716Y39816D01*
X265414Y39816D01*
X258986D01*
X258684Y39816D01*
X257716D01*
X257414Y39816D01*
X257113D01*
X256753Y40253D01*
X256466Y41509D01*
X257591Y42634D01*
X258200Y44104D01*
Y45696D01*
X257591Y47166D01*
X256466Y48291D01*
X254996Y48900D01*
X253404D01*
X251934Y48291D01*
X250809Y47166D01*
X250200Y45696D01*
Y44104D01*
X250809Y42634D01*
X251934Y41509D01*
X251647Y40253D01*
X251287Y39816D01*
X250684Y39816D01*
X249414Y39816D01*
X242986D01*
X242684Y39816D01*
X241716D01*
X241414Y39816D01*
X234986D01*
X234684Y39816D01*
X233716D01*
X233414Y39816D01*
X233113D01*
X232753Y40253D01*
X232466Y41509D01*
X233591Y42634D01*
X234200Y44104D01*
Y45696D01*
X233591Y47166D01*
X232466Y48291D01*
X230996Y48900D01*
X229404D01*
X227934Y48291D01*
X226809Y47166D01*
X226200Y45696D01*
Y44104D01*
X226809Y42634D01*
X227934Y41509D01*
X227647Y40253D01*
X227287Y39816D01*
X225716Y39816D01*
X225414Y39816D01*
X218986D01*
X217716Y39816D01*
X217414Y39816D01*
X210986D01*
X210684Y39816D01*
X209716D01*
X209414Y39816D01*
X209113D01*
X208753Y40253D01*
X208466Y41509D01*
X209591Y42634D01*
X210200Y44104D01*
Y45696D01*
X209591Y47166D01*
X208466Y48291D01*
X206996Y48900D01*
X205404D01*
X203934Y48291D01*
X202809Y47166D01*
X202200Y45696D01*
Y44104D01*
X202809Y42634D01*
X203934Y41509D01*
X203647Y40253D01*
X203287Y39816D01*
X202684Y39816D01*
X201414Y39816D01*
X194986D01*
X194684Y39816D01*
X193716D01*
X193414Y39816D01*
X186986D01*
X186684Y39816D01*
X185716D01*
X185414Y39816D01*
X178986D01*
X178684Y39816D01*
X177716D01*
X177414Y39816D01*
X177113D01*
X176753Y40253D01*
X176466Y41509D01*
X177591Y42634D01*
X178200Y44104D01*
Y45696D01*
X177591Y47166D01*
X176466Y48291D01*
X174996Y48900D01*
X173404D01*
X171934Y48291D01*
X170809Y47166D01*
X170200Y45696D01*
Y44104D01*
X170809Y42634D01*
X171934Y41509D01*
X171647Y40253D01*
X171287Y39816D01*
X170684D01*
Y17784D01*
X177414D01*
X177716Y17784D01*
X178684D01*
X179287Y17784D01*
X179646Y17346D01*
X179934Y16091D01*
X178809Y14966D01*
X178200Y13496D01*
Y11904D01*
X178809Y10434D01*
X179934Y9309D01*
X181404Y8700D01*
X182996D01*
X184466Y9309D01*
X185480Y10323D01*
X186200Y10383D01*
X186920Y10323D01*
X187934Y9309D01*
X189404Y8700D01*
X190996D01*
X192466Y9309D01*
X193480Y10323D01*
X194200Y10383D01*
X194920Y10323D01*
X195934Y9309D01*
X197404Y8700D01*
X198996D01*
X200466Y9309D01*
X201591Y10434D01*
X202200Y11904D01*
Y13496D01*
X201591Y14966D01*
X200466Y16091D01*
X200754Y17346D01*
X201113Y17784D01*
X201716Y17784D01*
X202986Y17784D01*
X209414D01*
X209716Y17784D01*
X210684D01*
X210986Y17784D01*
X217414D01*
X218684Y17784D01*
X218986Y17784D01*
X225414D01*
X225716Y17784D01*
X226684D01*
X226986Y17784D01*
X233414D01*
X233716Y17784D01*
X234684D01*
X234986Y17784D01*
X241414D01*
X241716Y17784D01*
X242684D01*
X242986Y17784D01*
X249414D01*
X249716Y17784D01*
X250986Y17784D01*
X257414D01*
X257716Y17784D01*
X258684D01*
X258986Y17784D01*
X265414D01*
X266684Y17784D01*
X266986Y17784D01*
X273414D01*
X273716Y17784D01*
X274684D01*
X274986Y17784D01*
X281414D01*
X281716Y17784D01*
X282684D01*
X282986Y17784D01*
X289414D01*
X289716Y17784D01*
X290684D01*
X290986Y17784D01*
X297414D01*
X297716Y17784D01*
X298684D01*
X298986Y17784D01*
X305414D01*
X305716Y17784D01*
X306684D01*
X306986Y17784D01*
X309559D01*
X309559Y17802D01*
X309540Y18018D01*
X309508Y18208D01*
X309463Y18373D01*
X309406Y18513D01*
X309336Y18627D01*
X309254Y18716D01*
X309159Y18780D01*
X309051Y18818D01*
X308930Y18830D01*
X309692D01*
Y28800D01*
Y39816D01*
X306986D01*
X306684Y39816D01*
X305716D01*
X305414Y39816D01*
X305112D01*
X304753Y40253D01*
X304466Y41509D01*
X305591Y42634D01*
X306200Y44104D01*
Y45696D01*
X305591Y47166D01*
X304466Y48291D01*
X302996Y48900D01*
D02*
G37*
G36*
X474684Y39816D02*
X473716D01*
X473414Y39816D01*
X470708D01*
Y28800D01*
Y18830D01*
X471470D01*
X471349Y18818D01*
X471241Y18780D01*
X471146Y18716D01*
X471064Y18627D01*
X470994Y18513D01*
X470937Y18373D01*
X470892Y18208D01*
X470860Y18018D01*
X470841Y17802D01*
X470841Y17784D01*
X473414D01*
X473716Y17784D01*
X474684D01*
X474986Y17784D01*
X477559D01*
X477559Y17802D01*
X477540Y18018D01*
X477508Y18208D01*
X477463Y18373D01*
X477406Y18513D01*
X477336Y18627D01*
X477254Y18716D01*
X477159Y18780D01*
X477051Y18818D01*
X476930Y18830D01*
X477692D01*
Y28800D01*
Y39816D01*
X474986D01*
X474684Y39816D01*
D02*
G37*
G36*
X466684D02*
X465716D01*
X465414Y39816D01*
X462708D01*
Y28800D01*
Y18830D01*
X463470D01*
X463349Y18818D01*
X463241Y18780D01*
X463146Y18716D01*
X463064Y18627D01*
X462994Y18513D01*
X462937Y18373D01*
X462892Y18208D01*
X462860Y18018D01*
X462841Y17802D01*
X462841Y17784D01*
X465414D01*
X465716Y17784D01*
X466684D01*
X466986Y17784D01*
X469559D01*
X469559Y17802D01*
X469540Y18018D01*
X469508Y18208D01*
X469463Y18373D01*
X469406Y18513D01*
X469336Y18627D01*
X469254Y18716D01*
X469159Y18780D01*
X469051Y18818D01*
X468930Y18830D01*
X469692D01*
Y28800D01*
Y39816D01*
X466986D01*
X466684Y39816D01*
D02*
G37*
G36*
X314684D02*
X313716D01*
X313414Y39816D01*
X310708D01*
Y28800D01*
Y18830D01*
X311470D01*
X311349Y18818D01*
X311241Y18780D01*
X311146Y18716D01*
X311064Y18627D01*
X310994Y18513D01*
X310937Y18373D01*
X310892Y18208D01*
X310860Y18018D01*
X310841Y17802D01*
X310841Y17784D01*
X313414D01*
X313716Y17784D01*
X314684D01*
X314986Y17784D01*
X317559D01*
X317559Y17802D01*
X317540Y18018D01*
X317508Y18208D01*
X317463Y18373D01*
X317406Y18513D01*
X317336Y18627D01*
X317254Y18716D01*
X317159Y18780D01*
X317051Y18818D01*
X316930Y18830D01*
X317692D01*
Y28800D01*
Y39816D01*
X314986D01*
X314684Y39816D01*
D02*
G37*
G36*
X376716Y9080D02*
X375124D01*
X373654Y8471D01*
X372529Y7346D01*
X371920Y5876D01*
Y4284D01*
X372529Y2814D01*
X373654Y1689D01*
X375124Y1080D01*
X376716D01*
X378186Y1689D01*
X379311Y2814D01*
X379920Y4284D01*
Y5876D01*
X379311Y7346D01*
X378186Y8471D01*
X376716Y9080D01*
D02*
G37*
G36*
X351316D02*
X349724D01*
X348254Y8471D01*
X347129Y7346D01*
X346520Y5876D01*
Y4284D01*
X347129Y2814D01*
X348254Y1689D01*
X349724Y1080D01*
X351316D01*
X352786Y1689D01*
X353911Y2814D01*
X354520Y4284D01*
Y5876D01*
X353911Y7346D01*
X352786Y8471D01*
X351316Y9080D01*
D02*
G37*
G36*
X325916D02*
X324324D01*
X322854Y8471D01*
X321729Y7346D01*
X321120Y5876D01*
Y4284D01*
X321729Y2814D01*
X322854Y1689D01*
X324324Y1080D01*
X325916D01*
X327386Y1689D01*
X328511Y2814D01*
X329120Y4284D01*
Y5876D01*
X328511Y7346D01*
X327386Y8471D01*
X325916Y9080D01*
D02*
G37*
%LPD*%
G36*
X479603Y87098D02*
X479442Y86911D01*
X479300Y86722D01*
X479176Y86532D01*
X479072Y86342D01*
X478987Y86150D01*
X478920Y85957D01*
X478873Y85763D01*
X478844Y85568D01*
X478835Y85372D01*
X477565D01*
X477556Y85568D01*
X477527Y85763D01*
X477480Y85957D01*
X477413Y86150D01*
X477328Y86342D01*
X477224Y86532D01*
X477100Y86722D01*
X476958Y86911D01*
X476797Y87098D01*
X476617Y87285D01*
X479783D01*
X479603Y87098D01*
D02*
G37*
G36*
X471603D02*
X471442Y86911D01*
X471300Y86722D01*
X471176Y86532D01*
X471072Y86342D01*
X470987Y86150D01*
X470920Y85957D01*
X470873Y85763D01*
X470844Y85568D01*
X470835Y85372D01*
X469565D01*
X469556Y85568D01*
X469527Y85763D01*
X469480Y85957D01*
X469413Y86150D01*
X469328Y86342D01*
X469224Y86532D01*
X469100Y86722D01*
X468958Y86911D01*
X468797Y87098D01*
X468617Y87285D01*
X471783D01*
X471603Y87098D01*
D02*
G37*
G36*
X463603D02*
X463442Y86911D01*
X463300Y86722D01*
X463176Y86532D01*
X463072Y86342D01*
X462987Y86150D01*
X462920Y85957D01*
X462873Y85763D01*
X462845Y85568D01*
X462835Y85372D01*
X461565D01*
X461555Y85568D01*
X461527Y85763D01*
X461480Y85957D01*
X461413Y86150D01*
X461328Y86342D01*
X461224Y86532D01*
X461100Y86722D01*
X460958Y86911D01*
X460797Y87098D01*
X460617Y87285D01*
X463783D01*
X463603Y87098D01*
D02*
G37*
G36*
X319603D02*
X319442Y86911D01*
X319300Y86722D01*
X319176Y86532D01*
X319072Y86342D01*
X318987Y86150D01*
X318920Y85957D01*
X318873Y85763D01*
X318845Y85568D01*
X318835Y85372D01*
X317565D01*
X317556Y85568D01*
X317527Y85763D01*
X317480Y85957D01*
X317413Y86150D01*
X317328Y86342D01*
X317224Y86532D01*
X317100Y86722D01*
X316958Y86911D01*
X316797Y87098D01*
X316617Y87285D01*
X319783D01*
X319603Y87098D01*
D02*
G37*
G36*
X311603D02*
X311442Y86911D01*
X311300Y86722D01*
X311176Y86532D01*
X311072Y86342D01*
X310987Y86150D01*
X310920Y85957D01*
X310873Y85763D01*
X310844Y85568D01*
X310835Y85372D01*
X309565D01*
X309555Y85568D01*
X309527Y85763D01*
X309480Y85957D01*
X309413Y86150D01*
X309328Y86342D01*
X309224Y86532D01*
X309100Y86722D01*
X308958Y86911D01*
X308797Y87098D01*
X308617Y87285D01*
X311783D01*
X311603Y87098D01*
D02*
G37*
G36*
X478841Y83792D02*
X478860Y83571D01*
X478892Y83376D01*
X478937Y83207D01*
X478994Y83064D01*
X479064Y82947D01*
X479146Y82856D01*
X479241Y82791D01*
X479349Y82752D01*
X479470Y82739D01*
X476930D01*
X477051Y82752D01*
X477159Y82791D01*
X477254Y82856D01*
X477336Y82947D01*
X477406Y83064D01*
X477463Y83207D01*
X477508Y83376D01*
X477540Y83571D01*
X477559Y83792D01*
X477565Y84039D01*
X478835D01*
X478841Y83792D01*
D02*
G37*
G36*
X470841D02*
X470860Y83571D01*
X470892Y83376D01*
X470937Y83207D01*
X470994Y83064D01*
X471064Y82947D01*
X471146Y82856D01*
X471241Y82791D01*
X471349Y82752D01*
X471470Y82739D01*
X468930D01*
X469051Y82752D01*
X469159Y82791D01*
X469254Y82856D01*
X469336Y82947D01*
X469406Y83064D01*
X469463Y83207D01*
X469508Y83376D01*
X469540Y83571D01*
X469559Y83792D01*
X469565Y84039D01*
X470835D01*
X470841Y83792D01*
D02*
G37*
G36*
X462841D02*
X462860Y83571D01*
X462892Y83376D01*
X462937Y83207D01*
X462994Y83064D01*
X463064Y82947D01*
X463146Y82856D01*
X463241Y82791D01*
X463349Y82752D01*
X463470Y82739D01*
X460930D01*
X461051Y82752D01*
X461159Y82791D01*
X461254Y82856D01*
X461336Y82947D01*
X461406Y83064D01*
X461463Y83207D01*
X461508Y83376D01*
X461540Y83571D01*
X461559Y83792D01*
X461565Y84039D01*
X462835D01*
X462841Y83792D01*
D02*
G37*
G36*
X318841D02*
X318860Y83571D01*
X318892Y83376D01*
X318937Y83207D01*
X318994Y83064D01*
X319064Y82947D01*
X319146Y82856D01*
X319241Y82791D01*
X319349Y82752D01*
X319470Y82739D01*
X316930D01*
X317051Y82752D01*
X317159Y82791D01*
X317254Y82856D01*
X317336Y82947D01*
X317406Y83064D01*
X317463Y83207D01*
X317508Y83376D01*
X317540Y83571D01*
X317559Y83792D01*
X317565Y84039D01*
X318835D01*
X318841Y83792D01*
D02*
G37*
G36*
X310841D02*
X310860Y83571D01*
X310892Y83376D01*
X310937Y83207D01*
X310994Y83064D01*
X311064Y82947D01*
X311146Y82856D01*
X311241Y82791D01*
X311349Y82752D01*
X311470Y82739D01*
X308930D01*
X309051Y82752D01*
X309159Y82791D01*
X309254Y82856D01*
X309336Y82947D01*
X309406Y83064D01*
X309463Y83207D01*
X309508Y83376D01*
X309540Y83571D01*
X309559Y83792D01*
X309565Y84039D01*
X310835D01*
X310841Y83792D01*
D02*
G37*
G36*
X487349Y62818D02*
X487241Y62780D01*
X487146Y62716D01*
X487064Y62627D01*
X486994Y62513D01*
X486937Y62373D01*
X486892Y62208D01*
X486860Y62018D01*
X486841Y61802D01*
X486835Y61561D01*
X485565D01*
X485559Y61802D01*
X485540Y62018D01*
X485508Y62208D01*
X485463Y62373D01*
X485406Y62513D01*
X485336Y62627D01*
X485254Y62716D01*
X485159Y62780D01*
X485051Y62818D01*
X484930Y62831D01*
X487470D01*
X487349Y62818D01*
D02*
G37*
G36*
X439349D02*
X439241Y62780D01*
X439146Y62716D01*
X439064Y62627D01*
X438994Y62513D01*
X438937Y62373D01*
X438892Y62208D01*
X438860Y62018D01*
X438841Y61802D01*
X438835Y61561D01*
X437565D01*
X437559Y61802D01*
X437540Y62018D01*
X437508Y62208D01*
X437463Y62373D01*
X437406Y62513D01*
X437336Y62627D01*
X437254Y62716D01*
X437159Y62780D01*
X437051Y62818D01*
X436930Y62831D01*
X439470D01*
X439349Y62818D01*
D02*
G37*
G36*
X423349D02*
X423241Y62780D01*
X423146Y62716D01*
X423064Y62627D01*
X422994Y62513D01*
X422937Y62373D01*
X422892Y62208D01*
X422860Y62018D01*
X422841Y61802D01*
X422835Y61561D01*
X421565D01*
X421559Y61802D01*
X421540Y62018D01*
X421508Y62208D01*
X421463Y62373D01*
X421406Y62513D01*
X421336Y62627D01*
X421254Y62716D01*
X421159Y62780D01*
X421051Y62818D01*
X420930Y62831D01*
X423470D01*
X423349Y62818D01*
D02*
G37*
G36*
X375349D02*
X375241Y62780D01*
X375146Y62716D01*
X375064Y62627D01*
X374994Y62513D01*
X374937Y62373D01*
X374892Y62208D01*
X374860Y62018D01*
X374841Y61802D01*
X374835Y61561D01*
X373565D01*
X373559Y61802D01*
X373540Y62018D01*
X373508Y62208D01*
X373463Y62373D01*
X373406Y62513D01*
X373336Y62627D01*
X373254Y62716D01*
X373159Y62780D01*
X373051Y62818D01*
X372930Y62831D01*
X375470D01*
X375349Y62818D01*
D02*
G37*
G36*
X351349D02*
X351241Y62780D01*
X351146Y62716D01*
X351064Y62627D01*
X350994Y62513D01*
X350937Y62373D01*
X350892Y62208D01*
X350860Y62018D01*
X350841Y61802D01*
X350835Y61561D01*
X349565D01*
X349559Y61802D01*
X349540Y62018D01*
X349508Y62208D01*
X349463Y62373D01*
X349406Y62513D01*
X349336Y62627D01*
X349254Y62716D01*
X349159Y62780D01*
X349051Y62818D01*
X348930Y62831D01*
X351470D01*
X351349Y62818D01*
D02*
G37*
G36*
X327349D02*
X327241Y62780D01*
X327146Y62716D01*
X327064Y62627D01*
X326994Y62513D01*
X326937Y62373D01*
X326892Y62208D01*
X326860Y62018D01*
X326841Y61802D01*
X326835Y61561D01*
X325565D01*
X325559Y61802D01*
X325540Y62018D01*
X325508Y62208D01*
X325463Y62373D01*
X325406Y62513D01*
X325336Y62627D01*
X325254Y62716D01*
X325159Y62780D01*
X325051Y62818D01*
X324930Y62831D01*
X327470D01*
X327349Y62818D01*
D02*
G37*
G36*
X303349D02*
X303241Y62780D01*
X303146Y62716D01*
X303064Y62627D01*
X302994Y62513D01*
X302937Y62373D01*
X302892Y62208D01*
X302860Y62018D01*
X302841Y61802D01*
X302835Y61561D01*
X301565D01*
X301559Y61802D01*
X301540Y62018D01*
X301508Y62208D01*
X301463Y62373D01*
X301406Y62513D01*
X301336Y62627D01*
X301254Y62716D01*
X301159Y62780D01*
X301051Y62818D01*
X300930Y62831D01*
X303470D01*
X303349Y62818D01*
D02*
G37*
G36*
X279349D02*
X279241Y62780D01*
X279146Y62716D01*
X279064Y62627D01*
X278994Y62513D01*
X278937Y62373D01*
X278892Y62208D01*
X278860Y62018D01*
X278841Y61802D01*
X278835Y61561D01*
X277565D01*
X277559Y61802D01*
X277540Y62018D01*
X277508Y62208D01*
X277463Y62373D01*
X277406Y62513D01*
X277336Y62627D01*
X277254Y62716D01*
X277159Y62780D01*
X277051Y62818D01*
X276930Y62831D01*
X279470D01*
X279349Y62818D01*
D02*
G37*
G36*
X231349D02*
X231241Y62780D01*
X231146Y62716D01*
X231064Y62627D01*
X230994Y62513D01*
X230937Y62373D01*
X230892Y62208D01*
X230860Y62018D01*
X230841Y61802D01*
X230835Y61561D01*
X229565D01*
X229559Y61802D01*
X229540Y62018D01*
X229508Y62208D01*
X229463Y62373D01*
X229406Y62513D01*
X229336Y62627D01*
X229254Y62716D01*
X229159Y62780D01*
X229051Y62818D01*
X228930Y62831D01*
X231470D01*
X231349Y62818D01*
D02*
G37*
G36*
X455349Y62818D02*
X455241Y62780D01*
X455146Y62716D01*
X455064Y62627D01*
X454994Y62513D01*
X454937Y62373D01*
X454892Y62208D01*
X454860Y62018D01*
X454841Y61802D01*
X454835Y61561D01*
X453565D01*
X453559Y61802D01*
X453540Y62018D01*
X453508Y62208D01*
X453463Y62373D01*
X453406Y62513D01*
X453336Y62627D01*
X453254Y62716D01*
X453159Y62780D01*
X453051Y62818D01*
X452930Y62831D01*
X455470D01*
X455349Y62818D01*
D02*
G37*
G36*
X399349D02*
X399241Y62780D01*
X399146Y62716D01*
X399064Y62627D01*
X398994Y62513D01*
X398937Y62373D01*
X398892Y62208D01*
X398860Y62018D01*
X398841Y61802D01*
X398835Y61561D01*
X397565D01*
X397559Y61802D01*
X397540Y62018D01*
X397508Y62208D01*
X397463Y62373D01*
X397406Y62513D01*
X397336Y62627D01*
X397254Y62716D01*
X397159Y62780D01*
X397051Y62818D01*
X396930Y62831D01*
X399470D01*
X399349Y62818D01*
D02*
G37*
G36*
X255349D02*
X255241Y62780D01*
X255146Y62716D01*
X255064Y62627D01*
X254994Y62513D01*
X254937Y62373D01*
X254892Y62208D01*
X254860Y62018D01*
X254841Y61802D01*
X254835Y61561D01*
X253565D01*
X253559Y61802D01*
X253540Y62018D01*
X253508Y62208D01*
X253463Y62373D01*
X253406Y62513D01*
X253336Y62627D01*
X253254Y62716D01*
X253159Y62780D01*
X253051Y62818D01*
X252930Y62831D01*
X255470D01*
X255349Y62818D01*
D02*
G37*
G36*
X207349D02*
X207241Y62780D01*
X207146Y62716D01*
X207064Y62627D01*
X206994Y62513D01*
X206937Y62373D01*
X206892Y62208D01*
X206860Y62018D01*
X206841Y61802D01*
X206835Y61561D01*
X205565D01*
X205559Y61802D01*
X205540Y62018D01*
X205508Y62208D01*
X205463Y62373D01*
X205406Y62513D01*
X205336Y62627D01*
X205254Y62716D01*
X205159Y62780D01*
X205051Y62818D01*
X204930Y62831D01*
X207470D01*
X207349Y62818D01*
D02*
G37*
G36*
X486844Y60032D02*
X486873Y59837D01*
X486920Y59643D01*
X486987Y59450D01*
X487072Y59258D01*
X487176Y59068D01*
X487300Y58878D01*
X487442Y58689D01*
X487603Y58502D01*
X487783Y58315D01*
X484617D01*
X484797Y58502D01*
X484958Y58689D01*
X485100Y58878D01*
X485224Y59068D01*
X485328Y59258D01*
X485413Y59450D01*
X485480Y59643D01*
X485527Y59837D01*
X485555Y60032D01*
X485565Y60228D01*
X486835D01*
X486844Y60032D01*
D02*
G37*
G36*
X454845D02*
X454873Y59837D01*
X454920Y59643D01*
X454987Y59450D01*
X455072Y59258D01*
X455176Y59068D01*
X455300Y58878D01*
X455442Y58689D01*
X455603Y58502D01*
X455783Y58315D01*
X452617D01*
X452797Y58502D01*
X452958Y58689D01*
X453100Y58878D01*
X453224Y59068D01*
X453328Y59258D01*
X453413Y59450D01*
X453480Y59643D01*
X453527Y59837D01*
X453555Y60032D01*
X453565Y60228D01*
X454835D01*
X454845Y60032D01*
D02*
G37*
G36*
X438844D02*
X438873Y59837D01*
X438920Y59643D01*
X438987Y59450D01*
X439072Y59258D01*
X439176Y59068D01*
X439300Y58878D01*
X439442Y58689D01*
X439603Y58502D01*
X439783Y58315D01*
X436617D01*
X436797Y58502D01*
X436958Y58689D01*
X437100Y58878D01*
X437224Y59068D01*
X437328Y59258D01*
X437413Y59450D01*
X437480Y59643D01*
X437527Y59837D01*
X437556Y60032D01*
X437565Y60228D01*
X438835D01*
X438844Y60032D01*
D02*
G37*
G36*
X422845D02*
X422873Y59837D01*
X422920Y59643D01*
X422987Y59450D01*
X423072Y59258D01*
X423176Y59068D01*
X423300Y58878D01*
X423442Y58689D01*
X423603Y58502D01*
X423783Y58315D01*
X420617D01*
X420797Y58502D01*
X420958Y58689D01*
X421100Y58878D01*
X421224Y59068D01*
X421328Y59258D01*
X421413Y59450D01*
X421480Y59643D01*
X421527Y59837D01*
X421555Y60032D01*
X421565Y60228D01*
X422835D01*
X422845Y60032D01*
D02*
G37*
G36*
X398844D02*
X398873Y59837D01*
X398920Y59643D01*
X398987Y59450D01*
X399072Y59258D01*
X399176Y59068D01*
X399300Y58878D01*
X399442Y58689D01*
X399603Y58502D01*
X399783Y58315D01*
X396617D01*
X396797Y58502D01*
X396958Y58689D01*
X397100Y58878D01*
X397224Y59068D01*
X397328Y59258D01*
X397413Y59450D01*
X397480Y59643D01*
X397527Y59837D01*
X397556Y60032D01*
X397565Y60228D01*
X398835D01*
X398844Y60032D01*
D02*
G37*
G36*
X374845D02*
X374873Y59837D01*
X374920Y59643D01*
X374987Y59450D01*
X375072Y59258D01*
X375176Y59068D01*
X375300Y58878D01*
X375442Y58689D01*
X375603Y58502D01*
X375783Y58315D01*
X372617D01*
X372797Y58502D01*
X372958Y58689D01*
X373100Y58878D01*
X373224Y59068D01*
X373328Y59258D01*
X373413Y59450D01*
X373480Y59643D01*
X373527Y59837D01*
X373555Y60032D01*
X373565Y60228D01*
X374835D01*
X374845Y60032D01*
D02*
G37*
G36*
X350844D02*
X350873Y59837D01*
X350920Y59643D01*
X350987Y59450D01*
X351072Y59258D01*
X351176Y59068D01*
X351300Y58878D01*
X351442Y58689D01*
X351603Y58502D01*
X351783Y58315D01*
X348617D01*
X348797Y58502D01*
X348958Y58689D01*
X349100Y58878D01*
X349224Y59068D01*
X349328Y59258D01*
X349413Y59450D01*
X349480Y59643D01*
X349527Y59837D01*
X349556Y60032D01*
X349565Y60228D01*
X350835D01*
X350844Y60032D01*
D02*
G37*
G36*
X326844D02*
X326873Y59837D01*
X326920Y59643D01*
X326987Y59450D01*
X327072Y59258D01*
X327176Y59068D01*
X327300Y58878D01*
X327442Y58689D01*
X327603Y58502D01*
X327783Y58315D01*
X324617D01*
X324797Y58502D01*
X324958Y58689D01*
X325100Y58878D01*
X325224Y59068D01*
X325328Y59258D01*
X325413Y59450D01*
X325480Y59643D01*
X325527Y59837D01*
X325555Y60032D01*
X325565Y60228D01*
X326835D01*
X326844Y60032D01*
D02*
G37*
G36*
X302845D02*
X302873Y59837D01*
X302920Y59643D01*
X302987Y59450D01*
X303072Y59258D01*
X303176Y59068D01*
X303300Y58878D01*
X303442Y58689D01*
X303603Y58502D01*
X303783Y58315D01*
X300617D01*
X300797Y58502D01*
X300958Y58689D01*
X301100Y58878D01*
X301224Y59068D01*
X301328Y59258D01*
X301413Y59450D01*
X301480Y59643D01*
X301527Y59837D01*
X301556Y60032D01*
X301565Y60228D01*
X302835D01*
X302845Y60032D01*
D02*
G37*
G36*
X278845D02*
X278873Y59837D01*
X278920Y59643D01*
X278987Y59450D01*
X279072Y59258D01*
X279176Y59068D01*
X279300Y58878D01*
X279442Y58689D01*
X279603Y58502D01*
X279783Y58315D01*
X276617D01*
X276797Y58502D01*
X276958Y58689D01*
X277100Y58878D01*
X277224Y59068D01*
X277328Y59258D01*
X277413Y59450D01*
X277480Y59643D01*
X277527Y59837D01*
X277556Y60032D01*
X277565Y60228D01*
X278835D01*
X278845Y60032D01*
D02*
G37*
G36*
X254844D02*
X254873Y59837D01*
X254920Y59643D01*
X254987Y59450D01*
X255072Y59258D01*
X255176Y59068D01*
X255300Y58878D01*
X255442Y58689D01*
X255603Y58502D01*
X255783Y58315D01*
X252617D01*
X252797Y58502D01*
X252958Y58689D01*
X253100Y58878D01*
X253224Y59068D01*
X253328Y59258D01*
X253413Y59450D01*
X253480Y59643D01*
X253527Y59837D01*
X253556Y60032D01*
X253565Y60228D01*
X254835D01*
X254844Y60032D01*
D02*
G37*
G36*
X230844D02*
X230873Y59837D01*
X230920Y59643D01*
X230987Y59450D01*
X231072Y59258D01*
X231176Y59068D01*
X231300Y58878D01*
X231442Y58689D01*
X231603Y58502D01*
X231783Y58315D01*
X228617D01*
X228797Y58502D01*
X228958Y58689D01*
X229100Y58878D01*
X229224Y59068D01*
X229328Y59258D01*
X229413Y59450D01*
X229480Y59643D01*
X229527Y59837D01*
X229555Y60032D01*
X229565Y60228D01*
X230835D01*
X230844Y60032D01*
D02*
G37*
G36*
X206845D02*
X206873Y59837D01*
X206920Y59643D01*
X206987Y59450D01*
X207072Y59258D01*
X207176Y59068D01*
X207300Y58878D01*
X207442Y58689D01*
X207603Y58502D01*
X207783Y58315D01*
X204617D01*
X204797Y58502D01*
X204958Y58689D01*
X205100Y58878D01*
X205224Y59068D01*
X205328Y59258D01*
X205413Y59450D01*
X205480Y59643D01*
X205527Y59837D01*
X205555Y60032D01*
X205565Y60228D01*
X206835D01*
X206845Y60032D01*
D02*
G37*
G36*
X175349Y62818D02*
X175241Y62780D01*
X175146Y62716D01*
X175064Y62627D01*
X174994Y62513D01*
X174937Y62373D01*
X174892Y62208D01*
X174860Y62018D01*
X174841Y61802D01*
X174835Y61561D01*
X173565D01*
X173559Y61802D01*
X173540Y62018D01*
X173508Y62208D01*
X173463Y62373D01*
X173406Y62513D01*
X173336Y62627D01*
X173254Y62716D01*
X173159Y62780D01*
X173051Y62818D01*
X172930Y62831D01*
X175470D01*
X175349Y62818D01*
D02*
G37*
G36*
X174844Y60032D02*
X174873Y59837D01*
X174920Y59643D01*
X174987Y59450D01*
X175072Y59258D01*
X175176Y59068D01*
X175300Y58878D01*
X175442Y58689D01*
X175603Y58502D01*
X175783Y58315D01*
X172617D01*
X172797Y58502D01*
X172958Y58689D01*
X173100Y58878D01*
X173224Y59068D01*
X173328Y59258D01*
X173413Y59450D01*
X173480Y59643D01*
X173527Y59837D01*
X173556Y60032D01*
X173565Y60228D01*
X174835D01*
X174844Y60032D01*
D02*
G37*
G36*
X487603Y43098D02*
X487442Y42911D01*
X487300Y42722D01*
X487176Y42532D01*
X487072Y42342D01*
X486987Y42150D01*
X486920Y41957D01*
X486873Y41763D01*
X486844Y41568D01*
X486835Y41372D01*
X485565D01*
X485555Y41568D01*
X485527Y41763D01*
X485480Y41957D01*
X485413Y42150D01*
X485328Y42342D01*
X485224Y42532D01*
X485100Y42722D01*
X484958Y42911D01*
X484797Y43098D01*
X484617Y43285D01*
X487783D01*
X487603Y43098D01*
D02*
G37*
G36*
X486841Y39792D02*
X486860Y39571D01*
X486892Y39376D01*
X486937Y39207D01*
X486994Y39064D01*
X487064Y38947D01*
X487146Y38856D01*
X487241Y38791D01*
X487349Y38752D01*
X487470Y38739D01*
X484930D01*
X485051Y38752D01*
X485159Y38791D01*
X485254Y38856D01*
X485336Y38947D01*
X485406Y39064D01*
X485463Y39207D01*
X485508Y39376D01*
X485540Y39571D01*
X485559Y39792D01*
X485565Y40040D01*
X486835D01*
X486841Y39792D01*
D02*
G37*
G36*
X303603Y43098D02*
X303442Y42911D01*
X303300Y42722D01*
X303176Y42532D01*
X303072Y42342D01*
X302987Y42150D01*
X302920Y41957D01*
X302873Y41763D01*
X302845Y41568D01*
X302835Y41372D01*
X301565D01*
X301556Y41568D01*
X301527Y41763D01*
X301480Y41957D01*
X301413Y42150D01*
X301328Y42342D01*
X301224Y42532D01*
X301100Y42722D01*
X300958Y42911D01*
X300797Y43098D01*
X300617Y43285D01*
X303783D01*
X303603Y43098D01*
D02*
G37*
G36*
X279603D02*
X279442Y42911D01*
X279300Y42722D01*
X279176Y42532D01*
X279072Y42342D01*
X278987Y42150D01*
X278920Y41957D01*
X278873Y41763D01*
X278845Y41568D01*
X278835Y41372D01*
X277565D01*
X277556Y41568D01*
X277527Y41763D01*
X277480Y41957D01*
X277413Y42150D01*
X277328Y42342D01*
X277224Y42532D01*
X277100Y42722D01*
X276958Y42911D01*
X276797Y43098D01*
X276617Y43285D01*
X279783D01*
X279603Y43098D01*
D02*
G37*
G36*
X255603D02*
X255442Y42911D01*
X255300Y42722D01*
X255176Y42532D01*
X255072Y42342D01*
X254987Y42150D01*
X254920Y41957D01*
X254873Y41763D01*
X254844Y41568D01*
X254835Y41372D01*
X253565D01*
X253556Y41568D01*
X253527Y41763D01*
X253480Y41957D01*
X253413Y42150D01*
X253328Y42342D01*
X253224Y42532D01*
X253100Y42722D01*
X252958Y42911D01*
X252797Y43098D01*
X252617Y43285D01*
X255783D01*
X255603Y43098D01*
D02*
G37*
G36*
X231603D02*
X231442Y42911D01*
X231300Y42722D01*
X231176Y42532D01*
X231072Y42342D01*
X230987Y42150D01*
X230920Y41957D01*
X230873Y41763D01*
X230844Y41568D01*
X230835Y41372D01*
X229565D01*
X229555Y41568D01*
X229527Y41763D01*
X229480Y41957D01*
X229413Y42150D01*
X229328Y42342D01*
X229224Y42532D01*
X229100Y42722D01*
X228958Y42911D01*
X228797Y43098D01*
X228617Y43285D01*
X231783D01*
X231603Y43098D01*
D02*
G37*
G36*
X207603D02*
X207442Y42911D01*
X207300Y42722D01*
X207176Y42532D01*
X207072Y42342D01*
X206987Y42150D01*
X206920Y41957D01*
X206873Y41763D01*
X206845Y41568D01*
X206835Y41372D01*
X205565D01*
X205555Y41568D01*
X205527Y41763D01*
X205480Y41957D01*
X205413Y42150D01*
X205328Y42342D01*
X205224Y42532D01*
X205100Y42722D01*
X204958Y42911D01*
X204797Y43098D01*
X204617Y43285D01*
X207783D01*
X207603Y43098D01*
D02*
G37*
G36*
X175603D02*
X175442Y42911D01*
X175300Y42722D01*
X175176Y42532D01*
X175072Y42342D01*
X174987Y42150D01*
X174920Y41957D01*
X174873Y41763D01*
X174844Y41568D01*
X174835Y41372D01*
X173565D01*
X173556Y41568D01*
X173527Y41763D01*
X173480Y41957D01*
X173413Y42150D01*
X173328Y42342D01*
X173224Y42532D01*
X173100Y42722D01*
X172958Y42911D01*
X172797Y43098D01*
X172617Y43285D01*
X175783D01*
X175603Y43098D01*
D02*
G37*
G36*
X254841Y39792D02*
X254860Y39571D01*
X254892Y39376D01*
X254937Y39207D01*
X254994Y39064D01*
X255064Y38947D01*
X255146Y38856D01*
X255241Y38791D01*
X255349Y38752D01*
X255470Y38739D01*
X252930D01*
X253051Y38752D01*
X253159Y38791D01*
X253254Y38856D01*
X253336Y38947D01*
X253406Y39064D01*
X253463Y39207D01*
X253508Y39376D01*
X253540Y39571D01*
X253559Y39792D01*
X253565Y40040D01*
X254835D01*
X254841Y39792D01*
D02*
G37*
G36*
X206841D02*
X206860Y39571D01*
X206892Y39376D01*
X206937Y39207D01*
X206994Y39064D01*
X207064Y38947D01*
X207146Y38856D01*
X207241Y38791D01*
X207349Y38752D01*
X207470Y38739D01*
X204930D01*
X205051Y38752D01*
X205159Y38791D01*
X205254Y38856D01*
X205336Y38947D01*
X205406Y39064D01*
X205463Y39207D01*
X205508Y39376D01*
X205540Y39571D01*
X205559Y39792D01*
X205565Y40040D01*
X206835D01*
X206841Y39792D01*
D02*
G37*
G36*
X302841Y39792D02*
X302860Y39571D01*
X302892Y39376D01*
X302937Y39207D01*
X302994Y39064D01*
X303064Y38947D01*
X303146Y38856D01*
X303241Y38791D01*
X303349Y38752D01*
X303470Y38739D01*
X300930D01*
X301051Y38752D01*
X301159Y38791D01*
X301254Y38856D01*
X301336Y38947D01*
X301406Y39064D01*
X301463Y39207D01*
X301508Y39376D01*
X301540Y39571D01*
X301559Y39792D01*
X301565Y40040D01*
X302835D01*
X302841Y39792D01*
D02*
G37*
G36*
X278841D02*
X278860Y39571D01*
X278892Y39376D01*
X278937Y39207D01*
X278994Y39064D01*
X279064Y38947D01*
X279146Y38856D01*
X279241Y38791D01*
X279349Y38752D01*
X279470Y38739D01*
X276930D01*
X277051Y38752D01*
X277159Y38791D01*
X277254Y38856D01*
X277336Y38947D01*
X277406Y39064D01*
X277463Y39207D01*
X277508Y39376D01*
X277540Y39571D01*
X277559Y39792D01*
X277565Y40040D01*
X278835D01*
X278841Y39792D01*
D02*
G37*
G36*
X230841D02*
X230860Y39571D01*
X230892Y39376D01*
X230937Y39207D01*
X230994Y39064D01*
X231064Y38947D01*
X231146Y38856D01*
X231241Y38791D01*
X231349Y38752D01*
X231470Y38739D01*
X228930D01*
X229051Y38752D01*
X229159Y38791D01*
X229254Y38856D01*
X229336Y38947D01*
X229406Y39064D01*
X229463Y39207D01*
X229508Y39376D01*
X229540Y39571D01*
X229559Y39792D01*
X229565Y40040D01*
X230835D01*
X230841Y39792D01*
D02*
G37*
G36*
X174841D02*
X174860Y39571D01*
X174892Y39376D01*
X174937Y39207D01*
X174994Y39064D01*
X175064Y38947D01*
X175146Y38856D01*
X175241Y38791D01*
X175349Y38752D01*
X175470Y38739D01*
X172930D01*
X173051Y38752D01*
X173159Y38791D01*
X173254Y38856D01*
X173336Y38947D01*
X173406Y39064D01*
X173463Y39207D01*
X173508Y39376D01*
X173540Y39571D01*
X173559Y39792D01*
X173565Y40040D01*
X174835D01*
X174841Y39792D01*
D02*
G37*
G36*
X199349Y18818D02*
X199241Y18780D01*
X199146Y18716D01*
X199064Y18627D01*
X198994Y18513D01*
X198937Y18373D01*
X198892Y18208D01*
X198860Y18018D01*
X198841Y17802D01*
X198835Y17560D01*
X197565D01*
X197559Y17802D01*
X197540Y18018D01*
X197508Y18208D01*
X197463Y18373D01*
X197406Y18513D01*
X197336Y18627D01*
X197254Y18716D01*
X197159Y18780D01*
X197051Y18818D01*
X196930Y18830D01*
X199470D01*
X199349Y18818D01*
D02*
G37*
G36*
X191349D02*
X191241Y18780D01*
X191146Y18716D01*
X191064Y18627D01*
X190994Y18513D01*
X190937Y18373D01*
X190892Y18208D01*
X190860Y18018D01*
X190841Y17802D01*
X190835Y17560D01*
X189565D01*
X189559Y17802D01*
X189540Y18018D01*
X189508Y18208D01*
X189463Y18373D01*
X189406Y18513D01*
X189336Y18627D01*
X189254Y18716D01*
X189159Y18780D01*
X189051Y18818D01*
X188930Y18830D01*
X191470D01*
X191349Y18818D01*
D02*
G37*
G36*
X183349D02*
X183241Y18780D01*
X183146Y18716D01*
X183064Y18627D01*
X182994Y18513D01*
X182937Y18373D01*
X182892Y18208D01*
X182860Y18018D01*
X182841Y17802D01*
X182835Y17560D01*
X181565D01*
X181559Y17802D01*
X181540Y18018D01*
X181508Y18208D01*
X181463Y18373D01*
X181406Y18513D01*
X181336Y18627D01*
X181254Y18716D01*
X181159Y18780D01*
X181051Y18818D01*
X180930Y18830D01*
X183470D01*
X183349Y18818D01*
D02*
G37*
G36*
X198845Y16032D02*
X198873Y15837D01*
X198920Y15643D01*
X198987Y15450D01*
X199072Y15258D01*
X199176Y15068D01*
X199300Y14878D01*
X199442Y14689D01*
X199603Y14502D01*
X199783Y14315D01*
X196617D01*
X196797Y14502D01*
X196958Y14689D01*
X197100Y14878D01*
X197224Y15068D01*
X197328Y15258D01*
X197413Y15450D01*
X197480Y15643D01*
X197527Y15837D01*
X197556Y16032D01*
X197565Y16228D01*
X198835D01*
X198845Y16032D01*
D02*
G37*
G36*
X190844D02*
X190873Y15837D01*
X190920Y15643D01*
X190987Y15450D01*
X191072Y15258D01*
X191176Y15068D01*
X191300Y14878D01*
X191442Y14689D01*
X191603Y14502D01*
X191783Y14315D01*
X188617D01*
X188797Y14502D01*
X188958Y14689D01*
X189100Y14878D01*
X189224Y15068D01*
X189328Y15258D01*
X189413Y15450D01*
X189480Y15643D01*
X189527Y15837D01*
X189555Y16032D01*
X189565Y16228D01*
X190835D01*
X190844Y16032D01*
D02*
G37*
G36*
X182845D02*
X182873Y15837D01*
X182920Y15643D01*
X182987Y15450D01*
X183072Y15258D01*
X183176Y15068D01*
X183300Y14878D01*
X183442Y14689D01*
X183603Y14502D01*
X183783Y14315D01*
X180617D01*
X180797Y14502D01*
X180958Y14689D01*
X181100Y14878D01*
X181224Y15068D01*
X181328Y15258D01*
X181413Y15450D01*
X181480Y15643D01*
X181527Y15837D01*
X181556Y16032D01*
X181565Y16228D01*
X182835D01*
X182845Y16032D01*
D02*
G37*
D11*
X101600Y378460D02*
X461300D01*
X609980Y229780D01*
X593650Y190670D02*
X603284Y181036D01*
X593650Y190670D02*
Y213450D01*
X609980Y229780D01*
X90170Y367030D02*
X101600Y378460D01*
X90170Y192106D02*
Y367030D01*
D13*
X639670Y208310D02*
X639700Y208280D01*
X602570Y208310D02*
X639670D01*
X602540Y208340D02*
X602570Y208310D01*
D14*
X25400Y73660D02*
X40195Y58865D01*
X25400Y124460D02*
X88411Y187471D01*
X314960Y274320D02*
X320040Y279400D01*
X201725Y274320D02*
X314960D01*
X114876Y187471D02*
X201725Y274320D01*
X88411Y187471D02*
X114876D01*
X353822Y235712D02*
X356870Y238760D01*
X353822Y230088D02*
Y235712D01*
X347254Y223520D02*
X353822Y230088D01*
X329148Y223520D02*
X347254D01*
X303004Y249664D02*
X329148Y223520D01*
X287764Y249664D02*
X303004D01*
X203200Y165100D02*
X287764Y249664D01*
X91440Y165100D02*
X203200D01*
X52895Y126555D02*
X91440Y165100D01*
X52895Y61580D02*
Y126555D01*
X50180Y58865D02*
X52895Y61580D01*
X40195Y58865D02*
X50180D01*
X347980Y238760D02*
X351282Y235458D01*
X149860Y-14496D02*
X150604Y-15240D01*
X360313D02*
X361057Y-14496D01*
X362853Y-17780D02*
X363597Y-17036D01*
X147320D02*
Y104666D01*
Y-17036D02*
X148064Y-17780D01*
X362853D01*
X150604Y-15240D02*
X360313D01*
X361057Y-14496D02*
Y9843D01*
X363597Y-17036D02*
Y10097D01*
X149860Y-14496D02*
Y103614D01*
X251576Y194310D02*
X304800D01*
X149860Y103614D02*
X193145Y146899D01*
X250883Y196850D02*
X297180D01*
X203218Y149185D02*
X250883Y196850D01*
X193145Y146899D02*
X204165D01*
X147320Y104666D02*
X191839Y149185D01*
X203218D01*
X204165Y146899D02*
X251576Y194310D01*
X48260Y63500D02*
Y125512D01*
X90388Y167640D01*
X202148D01*
X285968Y251460D01*
X285968D01*
X286712Y252204D01*
X304056D01*
X304800Y251460D01*
X304800D01*
X330200Y226060D01*
X346202D01*
X351282Y231140D01*
Y235458D01*
X320040Y279400D02*
X361950D01*
X199390D02*
X320040D01*
X478200Y12700D02*
Y28800D01*
X470200Y12700D02*
Y28800D01*
X462200Y12700D02*
Y28800D01*
X318200Y12700D02*
Y28800D01*
X310200Y12700D02*
Y28800D01*
X182200Y72800D02*
Y88900D01*
X190200Y72800D02*
Y88900D01*
X198200Y72800D02*
Y88900D01*
X318200Y72800D02*
Y88900D01*
X310200Y72800D02*
Y88900D01*
X478200Y72800D02*
Y88900D01*
X470200Y72800D02*
Y88900D01*
X462200Y72800D02*
Y88900D01*
X198200Y12700D02*
Y28800D01*
X190200Y12700D02*
Y28800D01*
X182200Y12700D02*
Y28800D01*
X111760Y367030D02*
X199390Y279400D01*
X285750Y242570D02*
X294640D01*
X204470Y161290D02*
X285750Y242570D01*
X170620Y157480D02*
X174430Y161290D01*
X147320Y157480D02*
X170620D01*
X174430Y161290D02*
X204470D01*
X280670Y233680D02*
X294640D01*
X205740Y158750D02*
X280670Y233680D01*
X161020Y130660D02*
X189110Y158750D01*
X147320Y130660D02*
X161020D01*
X189110Y158750D02*
X205740D01*
X204620Y153820D02*
X275590Y224790D01*
X294640D01*
X197980Y153820D02*
X204620D01*
X358200Y28800D02*
X358200Y28800D01*
X358200Y12700D02*
Y28800D01*
Y12700D02*
X361057Y9843D01*
X366200Y12700D02*
Y28800D01*
X363597Y10097D02*
X366200Y12700D01*
X304800Y194310D02*
X314960Y204470D01*
X297180Y196850D02*
X304800Y204470D01*
X398200Y56700D02*
Y72800D01*
X422200Y56700D02*
Y72800D01*
X438200Y56700D02*
Y72800D01*
X454200Y56700D02*
Y72800D01*
X374200Y56700D02*
Y72800D01*
X326200Y56700D02*
Y72800D01*
X350200Y56700D02*
Y72800D01*
X174200Y56700D02*
Y72800D01*
X206200Y56700D02*
Y72800D01*
X230200Y56700D02*
Y72800D01*
X254200Y56700D02*
Y72800D01*
X278200Y56700D02*
Y72800D01*
X302200Y56700D02*
Y72800D01*
X486200Y56700D02*
Y72800D01*
X398200Y28800D02*
Y44900D01*
X374200Y28800D02*
Y44900D01*
X350200Y28800D02*
Y44900D01*
X326200Y28800D02*
Y44900D01*
X302200Y28800D02*
Y44900D01*
X278200Y28800D02*
Y44900D01*
X174200Y28800D02*
Y44900D01*
X206200Y28800D02*
Y44900D01*
X230200Y28800D02*
Y44900D01*
X254200Y28800D02*
Y44900D01*
X486200Y28800D02*
Y44900D01*
X454200Y28800D02*
Y44900D01*
X438200Y28800D02*
Y44900D01*
X422200Y28800D02*
Y44900D01*
X361950Y279400D02*
X365760Y275590D01*
Y238760D02*
Y275590D01*
X339090Y207010D02*
X388620D01*
D21*
X0Y355600D02*
D03*
Y304800D02*
D03*
X25400Y355600D02*
D03*
Y304800D02*
D03*
X0Y381000D02*
D03*
Y330200D02*
D03*
X25400Y381000D02*
D03*
Y330200D02*
D03*
D32*
X406200Y28800D02*
D03*
X382200Y28800D02*
D03*
X390200D02*
D03*
X414200D02*
D03*
X486200D02*
D03*
Y72800D02*
D03*
X478200Y28800D02*
D03*
Y72800D02*
D03*
X470200Y28800D02*
D03*
Y72800D02*
D03*
X462200Y28800D02*
D03*
Y72800D02*
D03*
X454200Y28800D02*
D03*
Y72800D02*
D03*
X446200Y28800D02*
D03*
Y72800D02*
D03*
X438200Y28800D02*
D03*
Y72800D02*
D03*
X430200Y28800D02*
D03*
Y72800D02*
D03*
X422200Y28800D02*
D03*
Y72800D02*
D03*
X414200D02*
D03*
X406200Y72800D02*
D03*
X398200Y28800D02*
D03*
Y72800D02*
D03*
X390200Y72800D02*
D03*
X382200D02*
D03*
X374200Y28800D02*
D03*
Y72800D02*
D03*
X366200Y28800D02*
D03*
Y72800D02*
D03*
X358200Y28800D02*
D03*
Y72800D02*
D03*
X350200Y28800D02*
D03*
Y72800D02*
D03*
X342200Y28800D02*
D03*
Y72800D02*
D03*
X334200Y28800D02*
D03*
Y72800D02*
D03*
X326200Y28800D02*
D03*
Y72800D02*
D03*
X318200Y28800D02*
D03*
Y72800D02*
D03*
X310200Y28800D02*
D03*
Y72800D02*
D03*
X302200Y28800D02*
D03*
Y72800D02*
D03*
X294200Y28800D02*
D03*
Y72800D02*
D03*
X286200Y28800D02*
D03*
Y72800D02*
D03*
X278200Y28800D02*
D03*
Y72800D02*
D03*
X270200Y28800D02*
D03*
Y72800D02*
D03*
X262200Y28800D02*
D03*
Y72800D02*
D03*
X254200Y28800D02*
D03*
Y72800D02*
D03*
X246200Y28800D02*
D03*
Y72800D02*
D03*
X238200Y28800D02*
D03*
Y72800D02*
D03*
X230200Y28800D02*
D03*
Y72800D02*
D03*
X222200Y28800D02*
D03*
Y72800D02*
D03*
X214200Y28800D02*
D03*
Y72800D02*
D03*
X206200Y28800D02*
D03*
Y72800D02*
D03*
X198200Y28800D02*
D03*
Y72800D02*
D03*
X190200Y28800D02*
D03*
Y72800D02*
D03*
X182200Y28800D02*
D03*
Y72800D02*
D03*
X174200Y28800D02*
D03*
Y72800D02*
D03*
D63*
X334200Y12700D02*
X336930Y15430D01*
Y18713D01*
X336335Y19308D02*
X336930Y18713D01*
X339470D02*
X340065Y19308D01*
X339470Y15430D02*
X342200Y12700D01*
X340065Y19308D02*
X340208D01*
X334200Y21300D02*
Y28800D01*
X339470Y15430D02*
Y18713D01*
X334200Y21300D02*
X336192Y19308D01*
X336335D01*
X340208D02*
X342200Y21300D01*
Y28800D01*
D64*
X635590Y176880D02*
D03*
Y234680D02*
D03*
D65*
X630590Y248980D02*
D03*
Y162580D02*
D03*
D66*
X672390Y248980D02*
D03*
Y162580D02*
D03*
D67*
X38100Y124460D02*
D03*
Y111760D02*
D03*
Y99060D02*
D03*
Y86360D02*
D03*
Y73660D02*
D03*
X25400Y124460D02*
D03*
Y111760D02*
D03*
Y99060D02*
D03*
Y86360D02*
D03*
Y73660D02*
D03*
D68*
X518160Y186500D02*
D03*
X518160Y194500D02*
D03*
X609980Y213280D02*
D03*
X639700Y208280D02*
D03*
X602540Y208340D02*
D03*
X609980Y237780D02*
D03*
Y173780D02*
D03*
X603284Y181036D02*
D03*
X609980Y229780D02*
D03*
X683260Y132080D02*
D03*
X682919Y281195D02*
D03*
X648260Y330260D02*
D03*
X459025Y197075D02*
D03*
X577295Y196925D02*
D03*
X472515Y180035D02*
D03*
X563955D02*
D03*
X497840Y184150D02*
D03*
X353060Y248920D02*
D03*
Y260350D02*
D03*
Y271780D02*
D03*
X332740Y248920D02*
D03*
Y260350D02*
D03*
Y271780D02*
D03*
X148480Y363220D02*
D03*
X306070Y369570D02*
D03*
X347980Y238760D02*
D03*
X342900Y260350D02*
D03*
Y248920D02*
D03*
Y271780D02*
D03*
X325120Y5080D02*
D03*
X350520D02*
D03*
X375920D02*
D03*
X63500Y63500D02*
D03*
X48260D02*
D03*
X356870Y238760D02*
D03*
X320040Y279400D02*
D03*
X318200Y88900D02*
D03*
X310200D02*
D03*
X478200D02*
D03*
X470200D02*
D03*
X462200D02*
D03*
X198200Y12700D02*
D03*
X190200D02*
D03*
X182200D02*
D03*
X478200D02*
D03*
X470200D02*
D03*
X462200D02*
D03*
X318200D02*
D03*
X310200D02*
D03*
X198200Y88900D02*
D03*
X190200D02*
D03*
X182200D02*
D03*
X334200Y12700D02*
D03*
X342200D02*
D03*
X111760Y367030D02*
D03*
X90170Y192106D02*
D03*
X294640Y242570D02*
D03*
Y233680D02*
D03*
Y224790D02*
D03*
X358200Y12700D02*
D03*
X366200D02*
D03*
X314960Y204470D02*
D03*
X304800D02*
D03*
X398200Y44900D02*
D03*
X454200D02*
D03*
X438200D02*
D03*
X422200D02*
D03*
X398200Y56700D02*
D03*
X422200D02*
D03*
X438200D02*
D03*
X454200D02*
D03*
X174200Y44900D02*
D03*
Y56700D02*
D03*
X206200D02*
D03*
Y44900D02*
D03*
X230200D02*
D03*
Y56700D02*
D03*
X254200D02*
D03*
Y44900D02*
D03*
X278200D02*
D03*
Y56700D02*
D03*
X302200D02*
D03*
Y44900D02*
D03*
X326200D02*
D03*
Y56700D02*
D03*
X350200D02*
D03*
X374200D02*
D03*
X486200D02*
D03*
Y44900D02*
D03*
X350200D02*
D03*
X374200D02*
D03*
X197980Y153820D02*
D03*
X147320Y130660D02*
D03*
X124460Y367030D02*
D03*
X285575Y401245D02*
D03*
X172725Y238765D02*
D03*
X147320Y157480D02*
D03*
X234395Y134545D02*
D03*
X105965Y134695D02*
D03*
X147320Y147320D02*
D03*
X197615Y443745D02*
D03*
X135125Y443895D02*
D03*
X122255Y444425D02*
D03*
X59765Y444575D02*
D03*
X47975Y268505D02*
D03*
X47975Y222785D02*
D03*
X330200Y215900D02*
D03*
X388620Y207010D02*
D03*
X339090D02*
D03*
X365760Y238760D02*
D03*
X274320Y175260D02*
D03*
X419100D02*
D03*
X354330Y161290D02*
D03*
X339090D02*
D03*
X246380Y286350D02*
D03*
Y250350D02*
D03*
X336550Y369570D02*
D03*
X321310D02*
D03*
X397510Y359410D02*
D03*
X382270D02*
D03*
X367030D02*
D03*
X439420Y286350D02*
D03*
X439420Y250350D02*
D03*
D69*
X0Y431800D02*
D03*
X660400D02*
D03*
X0Y0D02*
D03*
X660400D02*
D03*
D70*
X400050Y163830D02*
D03*
X298450Y367030D02*
D03*
X501650D02*
D03*
Y163830D02*
D03*
X603250D02*
D03*
Y367030D02*
D03*
X298450Y163830D02*
D03*
X400050Y367030D02*
D03*
X552450Y62230D02*
D03*
Y265430D02*
D03*
X450850D02*
D03*
X196850Y367030D02*
D03*
M02*
