G04*
G04 #@! TF.GenerationSoftware,Altium Limited,Altium Designer,24.2.2 (26)*
G04*
G04 Layer_Color=65535*
%FSLAX44Y44*%
%MOMM*%
G71*
G04*
G04 #@! TF.SameCoordinates,D28C2298-B94A-46E3-96D8-F5CEDD955656*
G04*
G04*
G04 #@! TF.FilePolarity,Positive*
G04*
G01*
G75*
%ADD10C,0.2000*%
%ADD11C,0.2540*%
%ADD12C,0.2500*%
%ADD13C,0.1524*%
%ADD14C,0.1270*%
D10*
X613390Y173280D02*
G03*
X613390Y173280I-1000J0D01*
G01*
X501410Y197000D02*
G03*
X501410Y197000I-1000J0D01*
G01*
X299150Y286350D02*
G03*
X299150Y286350I-1000J0D01*
G01*
X148240Y401320D02*
G03*
X148240Y401320I-1000J0D01*
G01*
X123010Y422750D02*
G03*
X123010Y422750I-1000J0D01*
G01*
X198370Y422070D02*
G03*
X198370Y422070I-1000J0D01*
G01*
X662230Y41820D02*
G03*
X662230Y41820I-1000J0D01*
G01*
X487200Y12800D02*
G03*
X487200Y12800I-1000J0D01*
G01*
X162150Y166220D02*
G03*
X162150Y166220I-1000J0D01*
G01*
X645890Y250480D02*
X658390Y250480D01*
X645890Y161080D02*
X658390D01*
X685590D02*
X694580Y161080D01*
X685590Y250480D02*
X694580Y250480D01*
X18480Y244080D02*
X28480D01*
X18480D02*
Y252080D01*
X18480Y274080D02*
X28480D01*
X18480Y266080D02*
X18480Y274080D01*
Y198360D02*
X28480D01*
X18480Y206360D02*
X18480Y198360D01*
Y228360D02*
X28480Y228360D01*
X18480Y220360D02*
Y228360D01*
D11*
X529590Y165100D02*
G03*
X529590Y165100I-11430J0D01*
G01*
X123190Y402000D02*
G03*
X123190Y402000I-11430J0D01*
G01*
X529590Y215900D02*
G03*
X529590Y215900I-11430J0D01*
G01*
X683260Y86570D02*
X685800Y89110D01*
X683260Y86570D02*
X688340D01*
X685800Y89110D02*
X688340Y86570D01*
X685800Y73870D02*
Y86570D01*
Y71330D02*
X688340Y73870D01*
X683260Y73870D02*
X685800Y71330D01*
X683260Y73870D02*
X688340Y73870D01*
X283972Y162560D02*
X347472D01*
X410972D01*
X283972Y114300D02*
X347472D01*
X410972D01*
D12*
X38730Y241080D02*
G03*
X38730Y241080I-1250J0D01*
G01*
X38730Y195360D02*
G03*
X38730Y195360I-1250J0D01*
G01*
D13*
X-31750Y35560D02*
X15240D01*
X-31750Y162560D02*
X15240D01*
X133784Y463801D02*
Y453644D01*
X138863D01*
X140555Y455337D01*
Y457030D01*
X138863Y458722D01*
X133784D01*
X138863D01*
X140555Y460415D01*
Y462108D01*
X138863Y463801D01*
X133784D01*
X149019D02*
X145634D01*
X143941Y462108D01*
Y455337D01*
X145634Y453644D01*
X149019D01*
X150712Y455337D01*
Y462108D01*
X149019Y463801D01*
X159176D02*
X155791D01*
X154098Y462108D01*
Y455337D01*
X155791Y453644D01*
X159176D01*
X160869Y455337D01*
Y462108D01*
X159176Y463801D01*
X164254D02*
X171026D01*
X167640D01*
Y453644D01*
X181182Y462108D02*
X179489Y463801D01*
X176104D01*
X174411Y462108D01*
Y460415D01*
X176104Y458722D01*
X179489D01*
X181182Y457030D01*
Y455337D01*
X179489Y453644D01*
X176104D01*
X174411Y455337D01*
X191339Y463801D02*
X184568D01*
Y453644D01*
X191339D01*
X184568Y458722D02*
X187953D01*
X194725Y463801D02*
Y453644D01*
X201496D01*
X504618Y145626D02*
X506311Y147318D01*
X509696D01*
X511389Y145626D01*
Y143933D01*
X509696Y142240D01*
X508003D01*
X509696D01*
X511389Y140547D01*
Y138854D01*
X509696Y137162D01*
X506311D01*
X504618Y138854D01*
X514774Y147318D02*
Y140547D01*
X518160Y137162D01*
X521546Y140547D01*
Y147318D01*
X524931Y145626D02*
X526624Y147318D01*
X530009D01*
X531702Y145626D01*
Y143933D01*
X530009Y142240D01*
X528317D01*
X530009D01*
X531702Y140547D01*
Y138854D01*
X530009Y137162D01*
X526624D01*
X524931Y138854D01*
X516467Y243838D02*
X509696D01*
Y238760D01*
X513082Y240453D01*
X514774D01*
X516467Y238760D01*
Y235374D01*
X514774Y233682D01*
X511389D01*
X509696Y235374D01*
X519853Y243838D02*
Y237067D01*
X523238Y233682D01*
X526624Y237067D01*
Y243838D01*
X679704Y98218D02*
X688168D01*
X689861Y99910D01*
Y103296D01*
X688168Y104989D01*
X679704D01*
X681397Y115146D02*
X679704Y113453D01*
Y110067D01*
X681397Y108375D01*
X683090D01*
X684782Y110067D01*
Y113453D01*
X686475Y115146D01*
X688168D01*
X689861Y113453D01*
Y110067D01*
X688168Y108375D01*
X679704Y118531D02*
X689861D01*
Y123610D01*
X688168Y125302D01*
X686475D01*
X684782Y123610D01*
Y118531D01*
Y123610D01*
X683090Y125302D01*
X681397D01*
X679704Y123610D01*
Y118531D01*
X689861Y30486D02*
X679704D01*
Y35564D01*
X681397Y37257D01*
X684782D01*
X686475Y35564D01*
Y30486D01*
Y33871D02*
X689861Y37257D01*
Y40642D02*
X683090D01*
X679704Y44028D01*
X683090Y47414D01*
X689861D01*
X684782D01*
Y40642D01*
X679704Y50799D02*
Y54185D01*
Y52492D01*
X689861D01*
Y50799D01*
Y54185D01*
X679704Y59263D02*
X689861D01*
Y66034D01*
X67564Y453644D02*
Y463801D01*
X72642D01*
X74335Y462108D01*
Y458722D01*
X72642Y457030D01*
X67564D01*
X70950D02*
X74335Y453644D01*
X84492Y463801D02*
X77721D01*
Y453644D01*
X84492D01*
X77721Y458722D02*
X81106D01*
X94649Y462108D02*
X92956Y463801D01*
X89570D01*
X87877Y462108D01*
Y460415D01*
X89570Y458722D01*
X92956D01*
X94649Y457030D01*
Y455337D01*
X92956Y453644D01*
X89570D01*
X87877Y455337D01*
X104805Y463801D02*
X98034D01*
Y453644D01*
X104805D01*
X98034Y458722D02*
X101420D01*
X108191Y463801D02*
X114962D01*
X111576D01*
Y453644D01*
X229619Y289736D02*
X227927Y291428D01*
X224541D01*
X222848Y289736D01*
Y282964D01*
X224541Y281272D01*
X227927D01*
X229619Y282964D01*
X233005Y291428D02*
X239776D01*
Y289736D01*
X233005Y282964D01*
Y281272D01*
X390316Y386082D02*
Y396238D01*
X395394D01*
X397087Y394546D01*
Y391160D01*
X395394Y389467D01*
X390316D01*
X393702D02*
X397087Y386082D01*
X400473Y396238D02*
X407244D01*
Y394546D01*
X400473Y387774D01*
Y386082D01*
X390316Y370842D02*
Y380998D01*
X395394D01*
X397087Y379306D01*
Y375920D01*
X395394Y374227D01*
X390316D01*
X393702D02*
X397087Y370842D01*
X407244Y380998D02*
X400473D01*
Y375920D01*
X403858Y377613D01*
X405551D01*
X407244Y375920D01*
Y372534D01*
X405551Y370842D01*
X402166D01*
X400473Y372534D01*
X73662Y248076D02*
X83818D01*
Y253154D01*
X82126Y254847D01*
X75354D01*
X73662Y253154D01*
Y248076D01*
X83818Y265004D02*
Y258233D01*
X77047Y265004D01*
X75354D01*
X73662Y263311D01*
Y259926D01*
X75354Y258233D01*
X492758Y113034D02*
X482602D01*
Y118112D01*
X484294Y119805D01*
X487680D01*
X489373Y118112D01*
Y113034D01*
Y116420D02*
X492758Y119805D01*
Y123191D02*
Y126576D01*
Y124884D01*
X482602D01*
X484294Y123191D01*
X492758Y136733D02*
X482602D01*
X487680Y131655D01*
Y138426D01*
X553718Y113034D02*
X543562D01*
Y118112D01*
X545254Y119805D01*
X548640D01*
X550333Y118112D01*
Y113034D01*
Y116420D02*
X553718Y119805D01*
Y123191D02*
Y126576D01*
Y124884D01*
X543562D01*
X545254Y123191D01*
Y131655D02*
X543562Y133348D01*
Y136733D01*
X545254Y138426D01*
X546947D01*
X548640Y136733D01*
Y135040D01*
Y136733D01*
X550333Y138426D01*
X552026D01*
X553718Y136733D01*
Y133348D01*
X552026Y131655D01*
X253156Y431802D02*
Y441958D01*
X258234D01*
X259927Y440266D01*
Y436880D01*
X258234Y435187D01*
X253156D01*
X256542D02*
X259927Y431802D01*
X270084Y441958D02*
X266698Y440266D01*
X263313Y436880D01*
Y433494D01*
X265006Y431802D01*
X268391D01*
X270084Y433494D01*
Y435187D01*
X268391Y436880D01*
X263313D01*
X42336Y398782D02*
Y408938D01*
X47414D01*
X49107Y407246D01*
Y403860D01*
X47414Y402167D01*
X42336D01*
X45722D02*
X49107Y398782D01*
X57571D02*
Y408938D01*
X52493Y403860D01*
X59264D01*
X470749Y215626D02*
X469056Y217318D01*
X465671D01*
X463978Y215626D01*
Y208855D01*
X465671Y207162D01*
X469056D01*
X470749Y208855D01*
X480905Y207162D02*
X474134D01*
X480905Y213933D01*
Y215626D01*
X479213Y217318D01*
X475827D01*
X474134Y215626D01*
X484291D02*
X485984Y217318D01*
X489370D01*
X491062Y215626D01*
Y208855D01*
X489370Y207162D01*
X485984D01*
X484291Y208855D01*
Y215626D01*
X552875D02*
X551183Y217318D01*
X547797D01*
X546104Y215626D01*
Y208855D01*
X547797Y207162D01*
X551183D01*
X552875Y208855D01*
X556261Y207162D02*
X559646D01*
X557954D01*
Y217318D01*
X556261Y215626D01*
X564725Y208855D02*
X566418Y207162D01*
X569803D01*
X571496Y208855D01*
Y215626D01*
X569803Y217318D01*
X566418D01*
X564725Y215626D01*
Y213933D01*
X566418Y212240D01*
X571496D01*
X425874Y330875D02*
X424182Y329182D01*
Y325797D01*
X425874Y324104D01*
X432646D01*
X434338Y325797D01*
Y329182D01*
X432646Y330875D01*
X434338Y334261D02*
Y337646D01*
Y335953D01*
X424182D01*
X425874Y334261D01*
X643469Y139702D02*
Y149858D01*
X648547D01*
X650240Y148166D01*
Y144780D01*
X648547Y143087D01*
X643469D01*
X646854D02*
X650240Y139702D01*
X653626D02*
X657011D01*
X655318D01*
Y149858D01*
X653626Y148166D01*
X639236Y261622D02*
Y271778D01*
X644314D01*
X646007Y270086D01*
Y266700D01*
X644314Y265007D01*
X639236D01*
X642622D02*
X646007Y261622D01*
X656164D02*
X649393D01*
X656164Y268393D01*
Y270086D01*
X654471Y271778D01*
X651086D01*
X649393Y270086D01*
X68578Y243844D02*
X58422D01*
Y248923D01*
X60114Y250615D01*
X63500D01*
X65193Y248923D01*
Y243844D01*
Y247230D02*
X68578Y250615D01*
Y254001D02*
Y257386D01*
Y255694D01*
X58422D01*
X60114Y254001D01*
X68578Y269236D02*
Y262465D01*
X61807Y269236D01*
X60114D01*
X58422Y267543D01*
Y264158D01*
X60114Y262465D01*
X68578Y204897D02*
X58422D01*
Y209975D01*
X60114Y211668D01*
X63500D01*
X65193Y209975D01*
Y204897D01*
Y208283D02*
X68578Y211668D01*
Y215054D02*
Y218439D01*
Y216746D01*
X58422D01*
X60114Y215054D01*
X68578Y223518D02*
Y226903D01*
Y225210D01*
X58422D01*
X60114Y223518D01*
X97366Y215900D02*
X90594D01*
X88902Y214207D01*
Y210822D01*
X90594Y209129D01*
X97366D01*
X99058Y210822D01*
Y214207D01*
X95673Y212514D02*
X99058Y215900D01*
Y214207D02*
X97366Y215900D01*
X99058Y219286D02*
Y222671D01*
Y220978D01*
X88902D01*
X90594Y219286D01*
X97366Y254847D02*
X90594D01*
X88902Y253154D01*
Y249769D01*
X90594Y248076D01*
X97366D01*
X99058Y249769D01*
Y253154D01*
X95673Y251462D02*
X99058Y254847D01*
Y253154D02*
X97366Y254847D01*
X99058Y265004D02*
Y258233D01*
X92287Y265004D01*
X90594D01*
X88902Y263311D01*
Y259926D01*
X90594Y258233D01*
X73662Y209129D02*
X83818D01*
Y214207D01*
X82126Y215900D01*
X75354D01*
X73662Y214207D01*
Y209129D01*
X83818Y219286D02*
Y222671D01*
Y220978D01*
X73662D01*
X75354Y219286D01*
X146725Y102359D02*
X143340D01*
X145032D01*
Y93895D01*
X143340Y92202D01*
X141647D01*
X139954Y93895D01*
X156882Y92202D02*
X150111D01*
X156882Y98973D01*
Y100666D01*
X155189Y102359D01*
X151804D01*
X150111Y100666D01*
X259929Y170178D02*
X266700Y160022D01*
Y170178D02*
X259929Y160022D01*
X270086D02*
X273471D01*
X271778D01*
Y170178D01*
X270086Y168486D01*
X474136Y232408D02*
Y223944D01*
X475829Y222252D01*
X479214D01*
X480907Y223944D01*
Y232408D01*
X489371Y222252D02*
Y232408D01*
X484293Y227330D01*
X491064D01*
X164256Y121918D02*
Y113454D01*
X165949Y111762D01*
X169334D01*
X171027Y113454D01*
Y121918D01*
X174413Y120226D02*
X176106Y121918D01*
X179491D01*
X181184Y120226D01*
Y118533D01*
X179491Y116840D01*
X177798D01*
X179491D01*
X181184Y115147D01*
Y113454D01*
X179491Y111762D01*
X176106D01*
X174413Y113454D01*
X189656Y347978D02*
Y339514D01*
X191349Y337822D01*
X194734D01*
X196427Y339514D01*
Y347978D01*
X206584Y337822D02*
X199813D01*
X206584Y344593D01*
Y346286D01*
X204891Y347978D01*
X201506D01*
X199813Y346286D01*
X295489Y312418D02*
Y303954D01*
X297182Y302262D01*
X300567D01*
X302260Y303954D01*
Y312418D01*
X305646Y302262D02*
X309031D01*
X307338D01*
Y312418D01*
X305646Y310726D01*
X190504Y182882D02*
Y193038D01*
X195583D01*
X197275Y191346D01*
Y187960D01*
X195583Y186267D01*
X190504D01*
X193890D02*
X197275Y182882D01*
X200661D02*
X204046D01*
X202354D01*
Y193038D01*
X200661Y191346D01*
X209125D02*
X210818Y193038D01*
X214203D01*
X215896Y191346D01*
Y184574D01*
X214203Y182882D01*
X210818D01*
X209125Y184574D01*
Y191346D01*
X137586Y182882D02*
Y193038D01*
X142664D01*
X144357Y191346D01*
Y187960D01*
X142664Y186267D01*
X137586D01*
X140972D02*
X144357Y182882D01*
X147743Y184574D02*
X149436Y182882D01*
X152821D01*
X154514Y184574D01*
Y191346D01*
X152821Y193038D01*
X149436D01*
X147743Y191346D01*
Y189653D01*
X149436Y187960D01*
X154514D01*
X416986Y185422D02*
Y195578D01*
X422064D01*
X423757Y193886D01*
Y190500D01*
X422064Y188807D01*
X416986D01*
X420372D02*
X423757Y185422D01*
X427143Y193886D02*
X428836Y195578D01*
X432221D01*
X433914Y193886D01*
Y192193D01*
X432221Y190500D01*
X433914Y188807D01*
Y187114D01*
X432221Y185422D01*
X428836D01*
X427143Y187114D01*
Y188807D01*
X428836Y190500D01*
X427143Y192193D01*
Y193886D01*
X428836Y190500D02*
X432221D01*
X253156Y416562D02*
Y426718D01*
X258234D01*
X259927Y425026D01*
Y421640D01*
X258234Y419947D01*
X253156D01*
X256542D02*
X259927Y416562D01*
X263313Y425026D02*
X265006Y426718D01*
X268391D01*
X270084Y425026D01*
Y423333D01*
X268391Y421640D01*
X266698D01*
X268391D01*
X270084Y419947D01*
Y418254D01*
X268391Y416562D01*
X265006D01*
X263313Y418254D01*
X467362Y102029D02*
X477518D01*
Y108800D01*
X467362Y118957D02*
Y112186D01*
X477518D01*
Y118957D01*
X472440Y112186D02*
Y115572D01*
X467362Y122343D02*
X477518D01*
Y127421D01*
X475826Y129114D01*
X469054D01*
X467362Y127421D01*
Y122343D01*
X477518Y139271D02*
Y132500D01*
X470747Y139271D01*
X469054D01*
X467362Y137578D01*
Y134192D01*
X469054Y132500D01*
X558802Y108802D02*
X568958D01*
Y115573D01*
X558802Y125730D02*
Y118959D01*
X568958D01*
Y125730D01*
X563880Y118959D02*
Y122344D01*
X558802Y129116D02*
X568958D01*
Y134194D01*
X567266Y135887D01*
X560494D01*
X558802Y134194D01*
Y129116D01*
X568958Y139272D02*
Y142658D01*
Y140965D01*
X558802D01*
X560494Y139272D01*
X143935Y221826D02*
X142242Y223518D01*
X138857D01*
X137164Y221826D01*
Y215054D01*
X138857Y213362D01*
X142242D01*
X143935Y215054D01*
X147321Y213362D02*
X150706D01*
X149014D01*
Y223518D01*
X147321Y221826D01*
X155785D02*
X157478Y223518D01*
X160863D01*
X162556Y221826D01*
Y220133D01*
X160863Y218440D01*
X162556Y216747D01*
Y215054D01*
X160863Y213362D01*
X157478D01*
X155785Y215054D01*
Y216747D01*
X157478Y218440D01*
X155785Y220133D01*
Y221826D01*
X157478Y218440D02*
X160863D01*
X212515Y155786D02*
X210823Y157478D01*
X207437D01*
X205744Y155786D01*
Y149014D01*
X207437Y147322D01*
X210823D01*
X212515Y149014D01*
X215901Y147322D02*
X219286D01*
X217594D01*
Y157478D01*
X215901Y155786D01*
X224365Y157478D02*
X231136D01*
Y155786D01*
X224365Y149014D01*
Y147322D01*
X117007Y157562D02*
X115314Y159255D01*
X111929D01*
X110236Y157562D01*
Y150791D01*
X111929Y149098D01*
X115314D01*
X117007Y150791D01*
X120393Y149098D02*
X123778D01*
X122086D01*
Y159255D01*
X120393Y157562D01*
X135628Y159255D02*
X132242Y157562D01*
X128857Y154176D01*
Y150791D01*
X130549Y149098D01*
X133935D01*
X135628Y150791D01*
Y152484D01*
X133935Y154176D01*
X128857D01*
X432225Y178646D02*
X430532Y180338D01*
X427147D01*
X425454Y178646D01*
Y171874D01*
X427147Y170182D01*
X430532D01*
X432225Y171874D01*
X435611Y170182D02*
X438996D01*
X437304D01*
Y180338D01*
X435611Y178646D01*
X450846Y180338D02*
X444075D01*
Y175260D01*
X447460Y176953D01*
X449153D01*
X450846Y175260D01*
Y171874D01*
X449153Y170182D01*
X445768D01*
X444075Y171874D01*
X291255Y193886D02*
X289562Y195578D01*
X286177D01*
X284484Y193886D01*
Y187114D01*
X286177Y185422D01*
X289562D01*
X291255Y187114D01*
X294641Y185422D02*
X298026D01*
X296334D01*
Y195578D01*
X294641Y193886D01*
X308183Y185422D02*
Y195578D01*
X303105Y190500D01*
X309876D01*
X262295Y389718D02*
X260602Y391411D01*
X257217D01*
X255524Y389718D01*
Y382947D01*
X257217Y381254D01*
X260602D01*
X262295Y382947D01*
X265681Y381254D02*
X269066D01*
X267374D01*
Y391411D01*
X265681Y389718D01*
X274145D02*
X275837Y391411D01*
X279223D01*
X280916Y389718D01*
Y388025D01*
X279223Y386332D01*
X277530D01*
X279223D01*
X280916Y384640D01*
Y382947D01*
X279223Y381254D01*
X275837D01*
X274145Y382947D01*
X367454Y178225D02*
X365762Y176532D01*
Y173147D01*
X367454Y171454D01*
X374226D01*
X375918Y173147D01*
Y176532D01*
X374226Y178225D01*
X375918Y181611D02*
Y184996D01*
Y183304D01*
X365762D01*
X367454Y181611D01*
X375918Y196846D02*
Y190075D01*
X369147Y196846D01*
X367454D01*
X365762Y195153D01*
Y191768D01*
X367454Y190075D01*
X302432Y381675D02*
X300739Y379982D01*
Y376597D01*
X302432Y374904D01*
X309203D01*
X310896Y376597D01*
Y379982D01*
X309203Y381675D01*
X310896Y385061D02*
Y388446D01*
Y386754D01*
X300739D01*
X302432Y385061D01*
X310896Y393525D02*
Y396910D01*
Y395217D01*
X300739D01*
X302432Y393525D01*
X410634Y330875D02*
X408942Y329182D01*
Y325797D01*
X410634Y324104D01*
X417406D01*
X419098Y325797D01*
Y329182D01*
X417406Y330875D01*
X419098Y334261D02*
Y337646D01*
Y335953D01*
X408942D01*
X410634Y334261D01*
Y342725D02*
X408942Y344417D01*
Y347803D01*
X410634Y349496D01*
X417406D01*
X419098Y347803D01*
Y344417D01*
X417406Y342725D01*
X410634D01*
X332912Y381675D02*
X331219Y379982D01*
Y376597D01*
X332912Y374904D01*
X339683D01*
X341376Y376597D01*
Y379982D01*
X339683Y381675D01*
Y385061D02*
X341376Y386754D01*
Y390139D01*
X339683Y391832D01*
X332912D01*
X331219Y390139D01*
Y386754D01*
X332912Y385061D01*
X334605D01*
X336298Y386754D01*
Y391832D01*
X317672Y381675D02*
X315979Y379982D01*
Y376597D01*
X317672Y374904D01*
X324443D01*
X326136Y376597D01*
Y379982D01*
X324443Y381675D01*
X317672Y385061D02*
X315979Y386754D01*
Y390139D01*
X317672Y391832D01*
X319365D01*
X321058Y390139D01*
X322750Y391832D01*
X324443D01*
X326136Y390139D01*
Y386754D01*
X324443Y385061D01*
X322750D01*
X321058Y386754D01*
X319365Y385061D01*
X317672D01*
X321058Y386754D02*
Y390139D01*
X229619Y253736D02*
X227927Y255428D01*
X224541D01*
X222848Y253736D01*
Y246964D01*
X224541Y245272D01*
X227927D01*
X229619Y246964D01*
X239776Y255428D02*
X236390Y253736D01*
X233005Y250350D01*
Y246964D01*
X234698Y245272D01*
X238083D01*
X239776Y246964D01*
Y248657D01*
X238083Y250350D01*
X233005D01*
X319194Y182457D02*
X317502Y180764D01*
Y177379D01*
X319194Y175686D01*
X325966D01*
X327658Y177379D01*
Y180764D01*
X325966Y182457D01*
X317502Y192614D02*
Y185843D01*
X322580D01*
X320887Y189228D01*
Y190921D01*
X322580Y192614D01*
X325966D01*
X327658Y190921D01*
Y187536D01*
X325966Y185843D01*
X452795Y254846D02*
X451102Y256538D01*
X447717D01*
X446024Y254846D01*
Y248074D01*
X447717Y246382D01*
X451102D01*
X452795Y248074D01*
X461259Y246382D02*
Y256538D01*
X456181Y251460D01*
X462952D01*
X452795Y290406D02*
X451102Y292098D01*
X447717D01*
X446024Y290406D01*
Y283634D01*
X447717Y281942D01*
X451102D01*
X452795Y283634D01*
X456181Y290406D02*
X457873Y292098D01*
X461259D01*
X462952Y290406D01*
Y288713D01*
X461259Y287020D01*
X459566D01*
X461259D01*
X462952Y285327D01*
Y283634D01*
X461259Y281942D01*
X457873D01*
X456181Y283634D01*
X441114Y330875D02*
X439422Y329182D01*
Y325797D01*
X441114Y324104D01*
X447886D01*
X449578Y325797D01*
Y329182D01*
X447886Y330875D01*
X449578Y341032D02*
Y334261D01*
X442807Y341032D01*
X441114D01*
X439422Y339339D01*
Y335953D01*
X441114Y334261D01*
X28787Y48258D02*
X25402D01*
X27094D01*
Y39794D01*
X25402Y38102D01*
X23709D01*
X22016Y39794D01*
X37251Y38102D02*
Y48258D01*
X32173Y43180D01*
X38944D01*
X610447Y271778D02*
X607062D01*
X608754D01*
Y263314D01*
X607062Y261622D01*
X605369D01*
X603676Y263314D01*
X613833Y270086D02*
X615526Y271778D01*
X618911D01*
X620604Y270086D01*
Y268393D01*
X618911Y266700D01*
X617218D01*
X618911D01*
X620604Y265007D01*
Y263314D01*
X618911Y261622D01*
X615526D01*
X613833Y263314D01*
D14*
X508160Y201700D02*
X528160D01*
X508160Y179300D02*
X528160Y179300D01*
X472440Y162540D02*
X474940Y160040D01*
X469940Y160040D02*
X474940Y160040D01*
X469940Y160040D02*
X472440Y162540D01*
X563880Y162540D02*
X566380Y160040D01*
X561380D02*
X566380D01*
X561380D02*
X563880Y162540D01*
X307900Y290550D02*
Y295350D01*
Y225350D02*
Y230150D01*
X377900Y290550D02*
Y295350D01*
Y225350D02*
Y230150D01*
X307900Y295350D02*
X312700D01*
X307900Y225350D02*
X312700D01*
X373100Y295350D02*
X377900D01*
X373100Y225350D02*
X377900D01*
X172990Y355870D02*
X225790D01*
X172990Y408670D02*
X225790D01*
X70010Y417550D02*
X112010D01*
X70010Y449950D02*
X112010D01*
Y428750D02*
Y438750D01*
X70010Y428750D02*
Y438750D01*
X145370Y416870D02*
X187370D01*
X145370Y449270D02*
X187370D01*
X187370Y428070D02*
Y438070D01*
X145370Y428070D02*
Y438070D01*
X615730Y35220D02*
X651730D01*
X615730Y125220D02*
X651730D01*
X615730Y114420D02*
Y125220D01*
Y35220D02*
Y46020D01*
X651730Y114420D02*
Y125220D01*
Y35220D02*
Y46020D01*
X-7500Y260330D02*
X-5000Y257830D01*
X-7500Y260330D02*
X-2500D01*
X-5000Y257830D02*
X-2500Y260330D01*
X-5000Y212110D02*
X-2500Y214610D01*
X-7500D02*
X-2500D01*
X-7500D02*
X-5000Y212110D01*
X141200Y20800D02*
Y41450D01*
Y60150D02*
Y80800D01*
X168500D01*
X519200Y20800D02*
Y80800D01*
X491900D02*
X519200D01*
X141200Y20800D02*
X168500D01*
X491900D02*
X519200D01*
X171200Y158570D02*
X174100D01*
X171200Y129570D02*
X174100D01*
M02*
