G04*
G04 #@! TF.GenerationSoftware,Altium Limited,Altium Designer,24.2.2 (26)*
G04*
G04 Layer_Color=32896*
%FSLAX44Y44*%
%MOMM*%
G71*
G04*
G04 #@! TF.SameCoordinates,D28C2298-B94A-46E3-96D8-F5CEDD955656*
G04*
G04*
G04 #@! TF.FilePolarity,Positive*
G04*
G01*
G75*
%ADD10C,0.2000*%
%ADD11C,0.2540*%
%ADD13C,0.1524*%
%ADD14C,0.1270*%
%ADD83C,0.1778*%
G36*
X419135Y456070D02*
X419885D01*
Y455820D01*
X420635D01*
Y455570D01*
X421135D01*
Y455320D01*
X421635D01*
Y455070D01*
X421885D01*
Y454820D01*
X422385D01*
Y454570D01*
X422635D01*
Y454320D01*
X422885Y454320D01*
Y454070D01*
X423135D01*
Y453820D01*
X423385D01*
X423385Y453570D01*
X423635D01*
Y453320D01*
X423885D01*
Y452820D01*
X424135D01*
Y452570D01*
X424385D01*
X424385Y452070D01*
X424635D01*
Y451570D01*
X424885Y451570D01*
X424885Y450820D01*
X425135D01*
X425135Y449820D01*
X425385D01*
Y416070D01*
X425135D01*
X425135Y415070D01*
X424885Y415070D01*
Y414570D01*
X424635D01*
X424635Y413820D01*
X424385Y413820D01*
Y413570D01*
X424135D01*
X424135Y413070D01*
X423885Y413070D01*
X423885Y412820D01*
X423635D01*
Y412320D01*
X423385D01*
Y412070D01*
X423135D01*
X423135Y411820D01*
X422885D01*
Y411570D01*
X422635Y411570D01*
Y411320D01*
X422135Y411320D01*
Y411070D01*
X421885Y411070D01*
X421885Y410820D01*
X421385Y410820D01*
Y410570D01*
X420885Y410570D01*
Y410320D01*
X420385D01*
Y410070D01*
X419885D01*
X419885Y409820D01*
X418885D01*
Y409570D01*
X370635D01*
Y409820D01*
X369885Y409820D01*
Y410070D01*
X369135Y410070D01*
X369135Y410320D01*
X368635Y410320D01*
Y410570D01*
X368135Y410570D01*
Y410820D01*
X367635D01*
Y411070D01*
X367385D01*
Y411320D01*
X367135D01*
Y411570D01*
X366885Y411570D01*
Y411820D01*
X366635Y411820D01*
X366635Y412070D01*
X366385D01*
Y412320D01*
X366135Y412320D01*
Y412570D01*
X365885D01*
Y412820D01*
X365635D01*
Y413320D01*
X365385D01*
Y413570D01*
X365135D01*
Y414070D01*
X364885D01*
Y414570D01*
X364635D01*
X364635Y415320D01*
X364385D01*
Y416570D01*
X364135D01*
Y430320D01*
Y430570D01*
Y449320D01*
X364385Y449320D01*
Y450570D01*
X364635D01*
Y451320D01*
X364885D01*
Y451820D01*
X365135D01*
Y452320D01*
X365385D01*
Y452820D01*
X365635D01*
Y453070D01*
X365885D01*
Y453320D01*
X366135D01*
Y453820D01*
X366385D01*
X366385Y454070D01*
X366635D01*
Y454320D01*
X366885D01*
Y454570D01*
X367385Y454570D01*
X367385Y454820D01*
X367635D01*
Y455070D01*
X368135D01*
Y455320D01*
X368385D01*
Y455570D01*
X368885D01*
Y455820D01*
X369635D01*
Y456070D01*
X370385D01*
Y456320D01*
X419135D01*
X419135Y456070D01*
D02*
G37*
%LPC*%
G36*
X417635Y452820D02*
X371885D01*
Y452570D01*
X370635D01*
Y452320D01*
X370135D01*
Y452070D01*
X369885D01*
Y451820D01*
X369385D01*
Y451570D01*
X369135D01*
Y451320D01*
X368885D01*
Y451070D01*
X368635D01*
Y450570D01*
X368385D01*
Y450070D01*
X368135D01*
Y449570D01*
X367885D01*
Y416320D01*
X368135D01*
Y415820D01*
X368385D01*
Y415320D01*
X368635D01*
Y415070D01*
X368885D01*
Y414570D01*
X369135D01*
Y414320D01*
X369635D01*
Y414070D01*
X369885D01*
Y413820D01*
X370385D01*
Y413570D01*
X370885D01*
Y413320D01*
X372385D01*
Y413070D01*
X417135D01*
Y413320D01*
X418635D01*
Y413570D01*
X419385D01*
Y413820D01*
X419635D01*
Y414070D01*
X420135D01*
Y414320D01*
X420385D01*
Y414570D01*
X420635D01*
Y414820D01*
X420885D01*
Y415320D01*
X421135D01*
Y415570D01*
X421385Y415570D01*
Y416320D01*
X421635D01*
Y417570D01*
X421885D01*
Y448320D01*
X421635D01*
Y449820D01*
X421385D01*
Y450320D01*
X421135D01*
Y450820D01*
X420885D01*
Y451070D01*
X420635D01*
Y451320D01*
X420385D01*
Y451570D01*
X420135D01*
Y451820D01*
X419885D01*
Y452070D01*
X419385D01*
Y452320D01*
X418885D01*
Y452570D01*
X417635D01*
Y452820D01*
D02*
G37*
%LPD*%
G36*
X393885Y418570D02*
X388385D01*
Y420320D01*
X392135D01*
Y432070D01*
X391885Y432070D01*
Y432320D01*
X391635D01*
Y432570D01*
X391385D01*
Y432820D01*
X391135D01*
Y433070D01*
X390885Y433070D01*
X390885Y433320D01*
X390635D01*
X390635Y433570D01*
X390385D01*
Y433820D01*
X389885D01*
Y434070D01*
X389635D01*
Y434320D01*
X389385D01*
Y434570D01*
X389135D01*
Y434820D01*
X388885D01*
X388885Y435070D01*
X388635D01*
Y435320D01*
X388385D01*
Y435570D01*
X388135Y435570D01*
X388135Y435820D01*
X387885D01*
Y436070D01*
X387635D01*
Y436320D01*
X387135D01*
Y436570D01*
X386885D01*
Y436820D01*
X386635D01*
Y437070D01*
X386385D01*
Y437320D01*
X386135Y437320D01*
Y437570D01*
X385885D01*
Y437820D01*
X385635D01*
Y438070D01*
X385385D01*
Y438320D01*
X385135D01*
X385135Y438570D01*
X384885D01*
X384885Y438820D01*
X384385Y438820D01*
Y439070D01*
X384135D01*
Y439320D01*
X383885D01*
Y439570D01*
X383635D01*
Y439820D01*
X383385D01*
X383385Y440070D01*
X383135D01*
Y440320D01*
X382885D01*
Y440570D01*
X382635D01*
Y440820D01*
X382135D01*
X382135Y440320D01*
X381885D01*
Y439570D01*
X381635D01*
X381635Y438820D01*
X381385D01*
Y438070D01*
X381135D01*
Y437320D01*
X380885Y437320D01*
X380885Y436320D01*
X380635D01*
Y435570D01*
X380385Y435570D01*
X380385Y434820D01*
X380135D01*
X380135Y434070D01*
X379885D01*
Y433320D01*
X379635D01*
X379635Y432570D01*
X379385D01*
X379385Y431820D01*
X379135D01*
X379135Y430820D01*
X378885D01*
Y430070D01*
X378635D01*
X378635Y429320D01*
X378385D01*
X378385Y428570D01*
X378135D01*
Y427820D01*
X377885Y427820D01*
Y427070D01*
X377635D01*
Y426320D01*
X377385Y426320D01*
X377385Y425570D01*
X377135D01*
X377135Y424570D01*
X376885Y424570D01*
X376885Y423820D01*
X376635D01*
Y423070D01*
X376385D01*
Y422320D01*
X376135D01*
Y421570D01*
X375885D01*
Y421320D01*
X377635D01*
Y419570D01*
X370385D01*
Y421320D01*
X375135D01*
X375135Y422320D01*
X375385D01*
Y423070D01*
X375635D01*
X375635Y423820D01*
X375885D01*
X375885Y424570D01*
X376135D01*
Y425320D01*
X376385Y425320D01*
Y426070D01*
X376635Y426070D01*
Y426820D01*
X376885Y426820D01*
X376885Y427570D01*
X377135D01*
X377135Y428320D01*
X377385D01*
X377385Y429070D01*
X377635D01*
X377635Y430070D01*
X377885D01*
Y430820D01*
X378135D01*
Y431570D01*
X378385D01*
Y432320D01*
X378635D01*
X378635Y433070D01*
X378885D01*
Y433820D01*
X379135D01*
Y434570D01*
X379385Y434570D01*
X379385Y435320D01*
X379635D01*
X379635Y436320D01*
X379885Y436320D01*
X379885Y437070D01*
X380135D01*
Y437820D01*
X380385D01*
Y438570D01*
X380635D01*
Y439320D01*
X380885D01*
X380885Y440070D01*
X381135D01*
Y440820D01*
X381385D01*
Y441570D01*
X381635D01*
Y442320D01*
X381885D01*
Y443320D01*
X382135Y443320D01*
Y444070D01*
X382385D01*
Y444820D01*
X382635D01*
X382635Y445570D01*
X382885D01*
X382885Y446320D01*
X383385D01*
Y446070D01*
X383635D01*
Y445820D01*
X383885D01*
Y445570D01*
X384135D01*
Y445320D01*
X384385D01*
Y445070D01*
X384635D01*
Y444820D01*
X384885D01*
Y444570D01*
X385135D01*
Y444320D01*
X385385Y444320D01*
Y444070D01*
X385635D01*
Y443820D01*
X385885D01*
Y443570D01*
X386135D01*
Y443320D01*
X386385D01*
X386385Y443070D01*
X386635D01*
Y442820D01*
X386885D01*
Y442570D01*
X387135D01*
X387135Y442320D01*
X387385D01*
Y442070D01*
X387635D01*
Y441820D01*
X387885D01*
X387885Y441570D01*
X388135D01*
Y441320D01*
X388385D01*
Y441070D01*
X388635D01*
Y440820D01*
X388885D01*
X388885Y440570D01*
X389135D01*
Y440320D01*
X389385D01*
Y440070D01*
X389635Y440070D01*
Y439820D01*
X389885Y439820D01*
X389885Y439570D01*
X390135D01*
Y439320D01*
X390385D01*
X390385Y439070D01*
X390635D01*
Y438820D01*
X390885D01*
Y438570D01*
X391135D01*
X391135Y438320D01*
X391385D01*
Y438070D01*
X391635D01*
Y437820D01*
X391885D01*
Y437570D01*
X392135D01*
Y448320D01*
X387635Y448320D01*
Y450070D01*
X393885Y450070D01*
Y418570D01*
D02*
G37*
G36*
X401885Y448320D02*
X397635D01*
Y448070D01*
X397385D01*
Y437820D01*
X397885D01*
Y438070D01*
X398135D01*
Y438320D01*
X398385D01*
Y438570D01*
X398635D01*
Y438820D01*
X398885D01*
Y439070D01*
X399135D01*
Y439320D01*
X399385D01*
Y439570D01*
X399635D01*
X399635Y439820D01*
X399885Y439820D01*
Y440070D01*
X400135D01*
Y440320D01*
X400385D01*
Y440570D01*
X400635D01*
Y440820D01*
X400885D01*
Y441070D01*
X401135D01*
Y441320D01*
X401385D01*
Y441570D01*
X401635D01*
Y441820D01*
X401885D01*
Y442070D01*
X402135D01*
X402135Y442320D01*
X402385D01*
Y442570D01*
X402635Y442570D01*
Y442820D01*
X402885D01*
Y443070D01*
X403135D01*
Y443320D01*
X403385D01*
Y443570D01*
X403635D01*
Y443820D01*
X403885D01*
Y444070D01*
X404135D01*
Y444320D01*
X404385D01*
Y444570D01*
X404635D01*
Y444820D01*
X404885D01*
X404885Y445070D01*
X405135Y445070D01*
Y445320D01*
X405385D01*
Y445570D01*
X405635D01*
Y445820D01*
X405885D01*
Y446070D01*
X406135D01*
Y446320D01*
X406635D01*
Y445820D01*
X406885D01*
X406885Y445070D01*
X407135D01*
Y444320D01*
X407385D01*
X407385Y443320D01*
X407635Y443320D01*
Y442570D01*
X407885Y442570D01*
Y441820D01*
X408135D01*
Y441070D01*
X408385D01*
Y440320D01*
X408635D01*
X408635Y439570D01*
X408885D01*
Y438820D01*
X409135D01*
X409135Y438070D01*
X409385D01*
Y437320D01*
X409635D01*
Y436320D01*
X409885D01*
Y435570D01*
X410135Y435570D01*
Y434820D01*
X410385Y434820D01*
X410385Y434070D01*
X410635D01*
Y433320D01*
X410885D01*
Y432570D01*
X411135D01*
Y431820D01*
X411385D01*
Y431070D01*
X411635D01*
X411635Y430320D01*
X411885D01*
Y429320D01*
X412135D01*
Y428570D01*
X412385D01*
Y427820D01*
X412635Y427820D01*
Y427070D01*
X412885D01*
Y426320D01*
X413135D01*
X413135Y425570D01*
X413385D01*
X413385Y424820D01*
X413635Y424820D01*
Y424070D01*
X413885D01*
X413885Y423320D01*
X414135D01*
Y422320D01*
X414385D01*
Y421570D01*
X414635D01*
Y421320D01*
X419135D01*
X419135Y419570D01*
X411885D01*
X411885Y421320D01*
X413635D01*
Y421820D01*
X413385Y421820D01*
Y422570D01*
X413135D01*
Y423320D01*
X412885Y423320D01*
X412885Y424070D01*
X412635D01*
X412635Y424820D01*
X412385D01*
Y425570D01*
X412135D01*
Y426320D01*
X411885D01*
X411885Y427320D01*
X411635D01*
Y428070D01*
X411385D01*
Y428820D01*
X411135Y428820D01*
Y429570D01*
X410885D01*
Y430320D01*
X410635Y430320D01*
Y431070D01*
X410385D01*
Y432070D01*
X410135Y432070D01*
Y432820D01*
X409885D01*
X409885Y433570D01*
X409635D01*
Y434320D01*
X409385D01*
X409385Y435070D01*
X409135D01*
Y435820D01*
X408885D01*
Y436570D01*
X408635Y436570D01*
X408635Y437570D01*
X408385D01*
Y438320D01*
X408135D01*
Y439070D01*
X407885D01*
Y439820D01*
X407635Y439820D01*
Y440570D01*
X407385D01*
Y440820D01*
X407135Y440820D01*
Y440570D01*
X406635D01*
Y440320D01*
X406385D01*
Y440070D01*
X406135D01*
Y439820D01*
X405885D01*
X405885Y439570D01*
X405635D01*
Y439320D01*
X405385D01*
Y439070D01*
X405135D01*
Y438820D01*
X404885Y438820D01*
Y438570D01*
X404635D01*
Y438320D01*
X404385Y438320D01*
Y438070D01*
X403885D01*
Y437820D01*
X403635D01*
Y437570D01*
X403385D01*
Y437320D01*
X403135D01*
Y437070D01*
X402885D01*
Y436820D01*
X402635D01*
Y436570D01*
X402385D01*
Y436320D01*
X402135D01*
Y436070D01*
X401885D01*
Y435820D01*
X401635D01*
Y435570D01*
X401135D01*
Y435320D01*
X400885D01*
Y435070D01*
X400635D01*
Y434820D01*
X400385D01*
Y434570D01*
X400135D01*
Y434320D01*
X399885D01*
Y434070D01*
X399635D01*
X399635Y433820D01*
X399385D01*
Y433570D01*
X399135D01*
Y433320D01*
X398885D01*
Y433070D01*
X398385D01*
Y432820D01*
X398135Y432820D01*
Y432570D01*
X397885D01*
Y432320D01*
X397635Y432320D01*
Y432070D01*
X397385D01*
Y420570D01*
X397635Y420570D01*
Y420320D01*
X401135D01*
Y418570D01*
X395635Y418570D01*
Y419320D01*
Y419570D01*
Y450070D01*
X401885D01*
Y448320D01*
D02*
G37*
D10*
X487200Y8800D02*
G03*
X487200Y8800I-1000J0D01*
G01*
D11*
X422910Y398780D02*
X435610Y411480D01*
X237490Y467360D02*
X422910Y467360D01*
X435610Y454660D02*
X435610Y411480D01*
X422910Y467360D02*
X435610Y454660D01*
X224790Y454660D02*
X237490Y467360D01*
X224790Y411480D02*
X237490Y398780D01*
Y398780D02*
X422910Y398780D01*
X224790Y411480D02*
X224790Y454660D01*
D13*
X687321Y239596D02*
X677164D01*
Y234517D01*
X678857Y232825D01*
X682242D01*
X683935Y234517D01*
Y239596D01*
X677164Y229439D02*
X687321D01*
X683935Y226053D01*
X687321Y222668D01*
X677164D01*
X687321Y219282D02*
X677164D01*
Y214204D01*
X678857Y212511D01*
X682242D01*
X683935Y214204D01*
Y219282D01*
Y215897D02*
X687321Y212511D01*
X677164Y198969D02*
X687321D01*
Y193890D01*
X685628Y192198D01*
X678857D01*
X677164Y193890D01*
Y198969D01*
Y188812D02*
X687321D01*
Y183734D01*
X685628Y182041D01*
X683935D01*
X682242Y183734D01*
Y188812D01*
Y183734D01*
X680550Y182041D01*
X678857D01*
X677164Y183734D01*
Y188812D01*
X678857Y171884D02*
X677164Y173577D01*
Y176963D01*
X678857Y178655D01*
X685628D01*
X687321Y176963D01*
Y173577D01*
X685628Y171884D01*
X682242D01*
Y175270D01*
X-677Y219292D02*
X1016Y217599D01*
Y214214D01*
X-677Y212521D01*
X-7448D01*
X-9141Y214214D01*
Y217599D01*
X-7448Y219292D01*
X1016Y227756D02*
Y224370D01*
X-677Y222678D01*
X-7448D01*
X-9141Y224370D01*
Y227756D01*
X-7448Y229449D01*
X-677D01*
X1016Y227756D01*
X-9141Y232834D02*
X1016D01*
X-2370Y236220D01*
X1016Y239606D01*
X-9141D01*
Y242991D02*
X1016D01*
X-2370Y246377D01*
X1016Y249762D01*
X-9141D01*
X-677Y259919D02*
X1016Y258226D01*
Y254841D01*
X-677Y253148D01*
X-2370D01*
X-4062Y254841D01*
Y258226D01*
X-5755Y259919D01*
X-7448D01*
X-9141Y258226D01*
Y254841D01*
X-7448Y253148D01*
X-18457Y201511D02*
X-16764Y199818D01*
Y196432D01*
X-18457Y194739D01*
X-20150D01*
X-21842Y196432D01*
Y199818D01*
X-23535Y201511D01*
X-25228D01*
X-26921Y199818D01*
Y196432D01*
X-25228Y194739D01*
X-16764Y204896D02*
Y211667D01*
Y208282D01*
X-26921D01*
Y215053D02*
X-20150D01*
X-16764Y218438D01*
X-20150Y221824D01*
X-26921D01*
X-21842D01*
Y215053D01*
X-16764Y225210D02*
Y231981D01*
Y228595D01*
X-26921D01*
X-26921Y245538D02*
X-20150D01*
X-16764Y248923D01*
X-20150Y252309D01*
X-26921D01*
X-21842D01*
Y245538D01*
X-18457Y262465D02*
X-16764Y260773D01*
Y257387D01*
X-18457Y255694D01*
X-25228D01*
X-26921Y257387D01*
Y260773D01*
X-25228Y262465D01*
X-16764Y265851D02*
Y272622D01*
Y269237D01*
X-26921D01*
X39119Y306493D02*
X49276D01*
X44198Y301414D01*
Y308186D01*
X39119Y333586D02*
Y326814D01*
X45890Y333586D01*
X47583D01*
X49276Y331893D01*
Y328507D01*
X47583Y326814D01*
X47583Y352214D02*
X49276Y353907D01*
Y357293D01*
X47583Y358985D01*
X40812D01*
X39119Y357293D01*
Y353907D01*
X40812Y352214D01*
X47583D01*
X-16764Y308186D02*
Y301414D01*
X-21842D01*
X-20150Y304800D01*
Y306493D01*
X-21842Y308186D01*
X-25228D01*
X-26921Y306493D01*
Y303107D01*
X-25228Y301414D01*
X-18457Y326814D02*
X-16764Y328507D01*
Y331893D01*
X-18457Y333586D01*
X-20150D01*
X-21842Y331893D01*
Y330200D01*
Y331893D01*
X-23535Y333586D01*
X-25228D01*
X-26921Y331893D01*
Y328507D01*
X-25228Y326814D01*
X-26921Y353907D02*
Y357293D01*
Y355600D01*
X-16764D01*
X-18457Y353907D01*
Y367458D02*
X-16764Y369151D01*
Y372536D01*
X-18457Y374229D01*
X-20150D01*
X-21842Y372536D01*
Y370843D01*
Y372536D01*
X-23535Y374229D01*
X-25228D01*
X-26921Y372536D01*
Y369151D01*
X-25228Y367458D01*
X-16764Y377614D02*
X-23535D01*
X-26921Y381000D01*
X-23535Y384385D01*
X-16764D01*
X-18457Y387771D02*
X-16764Y389464D01*
Y392850D01*
X-18457Y394542D01*
X-20150D01*
X-21842Y392850D01*
Y391157D01*
Y392850D01*
X-23535Y394542D01*
X-25228D01*
X-26921Y392850D01*
Y389464D01*
X-25228Y387771D01*
X47583Y374229D02*
X49276Y372536D01*
Y369151D01*
X47583Y367458D01*
X40812D01*
X39119Y369151D01*
Y372536D01*
X40812Y374229D01*
X44198D01*
Y370843D01*
X39119Y377614D02*
X49276D01*
X39119Y384386D01*
X49276D01*
Y387771D02*
X39119D01*
Y392850D01*
X40812Y394542D01*
X47583D01*
X49276Y392850D01*
Y387771D01*
X-18457Y92289D02*
X-16764Y90596D01*
Y87211D01*
X-18457Y85518D01*
X-20150D01*
X-21842Y87211D01*
Y90596D01*
X-23535Y92289D01*
X-25228D01*
X-26921Y90596D01*
Y87211D01*
X-25228Y85518D01*
X-16764Y95674D02*
X-26921D01*
X-23535Y99060D01*
X-26921Y102445D01*
X-16764D01*
Y105831D02*
X-26921D01*
Y110910D01*
X-25228Y112602D01*
X-18457D01*
X-16764Y110910D01*
Y105831D01*
X513675Y102359D02*
X517060D01*
X515368D01*
Y93895D01*
X517060Y92202D01*
X518753D01*
X520446Y93895D01*
X510289Y92202D02*
X506904D01*
X508596D01*
Y102359D01*
X510289Y100666D01*
D14*
X141200Y20800D02*
X168500D01*
X491900D02*
X519200D01*
Y41600D01*
Y60000D02*
Y80800D01*
X141200D02*
X168500D01*
X491900D02*
X519200D01*
X141200Y20800D02*
Y80800D01*
D83*
X349367Y456991D02*
Y455722D01*
X346827Y453182D01*
X344288Y455722D01*
Y456991D01*
X346827Y453182D02*
Y449374D01*
X337940Y456991D02*
X340480D01*
X341749Y455722D01*
Y450643D01*
X340480Y449374D01*
X337940D01*
X336671Y450643D01*
Y455722D01*
X337940Y456991D01*
X334132D02*
Y451913D01*
X331592Y449374D01*
X329053Y451913D01*
Y456991D01*
X326514Y449374D02*
Y454452D01*
X323975Y456991D01*
X321436Y454452D01*
Y449374D01*
Y453182D01*
X326514D01*
X318896Y449374D02*
Y456991D01*
X313818Y449374D01*
Y456991D01*
X311279D02*
Y455722D01*
X308740Y453182D01*
X306201Y455722D01*
Y456991D01*
X308740Y453182D02*
Y449374D01*
X296044D02*
Y456991D01*
X293505Y454452D01*
X290965Y456991D01*
Y449374D01*
X284618Y456991D02*
X287157D01*
X288426Y455722D01*
Y450643D01*
X287157Y449374D01*
X284618D01*
X283348Y450643D01*
Y455722D01*
X284618Y456991D01*
X280809D02*
Y449374D01*
X275730D01*
X273191Y456991D02*
X270652D01*
X271922D01*
Y449374D01*
X273191D01*
X270652D01*
X266843D02*
Y456991D01*
X261765Y449374D01*
Y456991D01*
X259226Y449374D02*
Y454452D01*
X256687Y456991D01*
X254147Y454452D01*
Y449374D01*
Y453182D01*
X259226D01*
X349367Y443583D02*
Y435965D01*
X345558D01*
X344288Y437235D01*
Y438505D01*
X345558Y439774D01*
X349367D01*
X345558D01*
X344288Y441044D01*
Y442313D01*
X345558Y443583D01*
X349367D01*
X341749D02*
Y435965D01*
X336671D01*
X334132D02*
Y441044D01*
X331592Y443583D01*
X329053Y441044D01*
Y435965D01*
Y439774D01*
X334132D01*
X326514Y443583D02*
Y435965D01*
Y438505D01*
X321436Y443583D01*
X325244Y439774D01*
X321436Y435965D01*
X313818Y443583D02*
X318896D01*
Y435965D01*
X313818D01*
X318896Y439774D02*
X316357D01*
X298583Y442313D02*
X299853Y443583D01*
X302392D01*
X303661Y442313D01*
Y441044D01*
X302392Y439774D01*
X299853D01*
X298583Y438505D01*
Y437235D01*
X299853Y435965D01*
X302392D01*
X303661Y437235D01*
X296044Y435965D02*
Y441044D01*
X293505Y443583D01*
X290965Y441044D01*
Y435965D01*
Y439774D01*
X296044D01*
X288426Y435965D02*
Y443583D01*
X283348Y435965D01*
Y443583D01*
X280809D02*
Y435965D01*
X277000D01*
X275730Y437235D01*
Y442313D01*
X277000Y443583D01*
X280809D01*
X268113D02*
X273191D01*
Y435965D01*
X268113D01*
X273191Y439774D02*
X270652D01*
X265574Y435965D02*
Y443583D01*
X261765D01*
X260495Y442313D01*
Y439774D01*
X261765Y438505D01*
X265574D01*
X263034D02*
X260495Y435965D01*
X252878Y442313D02*
X254147Y443583D01*
X256687D01*
X257956Y442313D01*
Y441044D01*
X256687Y439774D01*
X254147D01*
X252878Y438505D01*
Y437235D01*
X254147Y435965D01*
X256687D01*
X257956Y437235D01*
X344288Y428905D02*
X345558Y430175D01*
X348097D01*
X349367Y428905D01*
Y427635D01*
X348097Y426366D01*
X345558D01*
X344288Y425096D01*
Y423827D01*
X345558Y422557D01*
X348097D01*
X349367Y423827D01*
X341749Y422557D02*
Y430175D01*
X337940D01*
X336671Y428905D01*
Y426366D01*
X337940Y425096D01*
X341749D01*
X334132Y422557D02*
Y430175D01*
X330323D01*
X329053Y428905D01*
Y426366D01*
X330323Y425096D01*
X334132D01*
X331592D02*
X329053Y422557D01*
X326514Y430175D02*
X323975D01*
X325244D01*
Y422557D01*
X326514D01*
X323975D01*
X320166D02*
Y430175D01*
X315088Y422557D01*
Y430175D01*
X307470Y428905D02*
X308740Y430175D01*
X311279D01*
X312549Y428905D01*
Y423827D01*
X311279Y422557D01*
X308740D01*
X307470Y423827D01*
Y426366D01*
X310009D01*
X292235Y422557D02*
X297313D01*
X292235Y427635D01*
Y428905D01*
X293505Y430175D01*
X296044D01*
X297313Y428905D01*
X289696D02*
X288426Y430175D01*
X285887D01*
X284618Y428905D01*
Y423827D01*
X285887Y422557D01*
X288426D01*
X289696Y423827D01*
Y428905D01*
X277000Y422557D02*
X282078D01*
X277000Y427635D01*
Y428905D01*
X278270Y430175D01*
X280809D01*
X282078Y428905D01*
X270652Y422557D02*
Y430175D01*
X274461Y426366D01*
X269382D01*
X349367Y416767D02*
X344288D01*
X346827D01*
Y409149D01*
X336671Y415497D02*
X337940Y416767D01*
X340480D01*
X341749Y415497D01*
Y410419D01*
X340480Y409149D01*
X337940D01*
X336671Y410419D01*
Y412958D01*
X339210D01*
X334132Y416767D02*
X331592D01*
X332862D01*
Y409149D01*
X334132D01*
X331592D01*
X322705Y415497D02*
X323975Y416767D01*
X326514D01*
X327784Y415497D01*
Y414227D01*
X326514Y412958D01*
X323975D01*
X322705Y411688D01*
Y410419D01*
X323975Y409149D01*
X326514D01*
X327784Y410419D01*
X312549Y416767D02*
Y410419D01*
X311279Y409149D01*
X308740D01*
X307470Y410419D01*
Y416767D01*
X299853Y415497D02*
X301122Y416767D01*
X303661D01*
X304931Y415497D01*
Y414227D01*
X303661Y412958D01*
X301122D01*
X299853Y411688D01*
Y410419D01*
X301122Y409149D01*
X303661D01*
X304931Y410419D01*
X297313Y416767D02*
Y409149D01*
X293505D01*
X292235Y410419D01*
Y411688D01*
X293505Y412958D01*
X297313D01*
X293505D01*
X292235Y414227D01*
Y415497D01*
X293505Y416767D01*
X297313D01*
X284618Y409149D02*
X289696D01*
X284618Y414227D01*
Y415497D01*
X285887Y416767D01*
X288426D01*
X289696Y415497D01*
X277000D02*
X278270Y416767D01*
X280809D01*
X282078Y415497D01*
Y410419D01*
X280809Y409149D01*
X278270D01*
X277000Y410419D01*
X274461Y409149D02*
Y414227D01*
X271922Y416767D01*
X269382Y414227D01*
Y409149D01*
Y412958D01*
X274461D01*
X266843Y409149D02*
Y416767D01*
X261765Y409149D01*
Y416767D01*
X251608D02*
Y411688D01*
X249069Y409149D01*
X246530Y411688D01*
Y416767D01*
X238912Y409149D02*
X243991D01*
X238912Y414227D01*
Y415497D01*
X240182Y416767D01*
X242721D01*
X243991Y415497D01*
M02*
