G04*
G04 #@! TF.GenerationSoftware,Altium Limited,Altium Designer,24.2.2 (26)*
G04*
G04 Layer_Color=16711935*
%FSLAX44Y44*%
%MOMM*%
G71*
G04*
G04 #@! TF.SameCoordinates,D28C2298-B94A-46E3-96D8-F5CEDD955656*
G04*
G04*
G04 #@! TF.FilePolarity,Positive*
G04*
G01*
G75*
%ADD10C,0.2000*%
%ADD14C,0.1270*%
%ADD84C,0.1000*%
%ADD85C,0.0846*%
D10*
X613390Y173280D02*
G03*
X613390Y173280I-1000J0D01*
G01*
X501410Y197000D02*
G03*
X501410Y197000I-1000J0D01*
G01*
X299150Y286350D02*
G03*
X299150Y286350I-1000J0D01*
G01*
X148240Y401320D02*
G03*
X148240Y401320I-1000J0D01*
G01*
X123010Y422750D02*
G03*
X123010Y422750I-1000J0D01*
G01*
X198370Y422070D02*
G03*
X198370Y422070I-1000J0D01*
G01*
X662230Y41820D02*
G03*
X662230Y41820I-1000J0D01*
G01*
X487200Y12800D02*
G03*
X487200Y12800I-1000J0D01*
G01*
X162150Y166220D02*
G03*
X162150Y166220I-1000J0D01*
G01*
X487200Y8800D02*
G03*
X487200Y8800I-1000J0D01*
G01*
D14*
X508160Y200500D02*
X528160D01*
X508160Y180500D02*
X528160D01*
X508160D02*
Y200500D01*
X528160Y180500D02*
Y200500D01*
X307900Y225350D02*
Y295350D01*
X377900Y225350D02*
Y295350D01*
X307900D02*
X377900D01*
X307900Y225350D02*
X377900D01*
X225790Y355870D02*
Y408670D01*
X172990Y355870D02*
Y408670D01*
Y355870D02*
X225790D01*
X172990Y408670D02*
X225790D01*
X70010Y417750D02*
X112010D01*
X70010D02*
Y449750D01*
X112010D01*
Y417750D02*
Y449750D01*
X145370Y417070D02*
X187370D01*
X145370Y449070D02*
X145370Y417070D01*
X145370Y449070D02*
X187370D01*
Y417070D02*
Y449070D01*
X615730Y35220D02*
X651730D01*
X615730D02*
Y125220D01*
X651730D01*
Y35220D02*
Y125220D01*
X519200Y20800D02*
Y80800D01*
X141200D02*
X519200D01*
X141200Y20800D02*
Y80800D01*
Y20800D02*
X519200D01*
X164650Y129570D02*
Y158570D01*
X180650D01*
Y129570D02*
Y158570D01*
X164650Y129570D02*
X180650D01*
X141200Y20800D02*
X519200D01*
Y80800D01*
X141200D02*
X519200D01*
X141200Y20800D02*
Y80800D01*
D84*
X698390Y250480D02*
Y289780D01*
X624890Y161080D02*
X698390D01*
Y250480D01*
X624890D02*
X698390D01*
X624890Y161080D02*
Y250480D01*
X684390Y140030D02*
X684390Y149530D01*
X666890Y140030D02*
X666890Y149530D01*
X666890Y140030D02*
X684390D01*
X666890Y149530D02*
X684390D01*
X684390Y261950D02*
X684390Y271450D01*
X666890Y261950D02*
Y271450D01*
Y261950D02*
X684390D01*
X666890Y271450D02*
X684390D01*
X467690Y152540D02*
X477190Y152540D01*
X467690Y170040D02*
X477190D01*
X467690Y152540D02*
Y170040D01*
X477190Y152540D02*
Y170040D01*
X482930Y152540D02*
X492430Y152540D01*
X482930Y170040D02*
X492430Y170040D01*
X482930Y170040D02*
X482930Y152540D01*
X492430Y152540D02*
Y170040D01*
X543890Y152540D02*
X553390D01*
X543890Y170040D02*
X553390D01*
X543890D02*
X543890Y152540D01*
X553390D02*
Y170040D01*
X559130Y152540D02*
X568630Y152540D01*
X559130Y170040D02*
X568630D01*
X559130Y152540D02*
Y170040D01*
X568630Y152540D02*
Y170040D01*
X468770Y192250D02*
X486270D01*
X468770Y201750D02*
X486270Y201750D01*
Y192250D02*
Y201750D01*
X468770Y201750D02*
X468770Y192250D01*
X550050Y201750D02*
X567550D01*
X550050Y192250D02*
X567550Y192250D01*
X550050Y192250D02*
Y201750D01*
X567550Y192250D02*
Y201750D01*
X175590Y179210D02*
X175590Y196710D01*
X185090D02*
X185090Y179210D01*
X175590D02*
X185090D01*
X175590Y196710D02*
X185090D01*
X169850Y179210D02*
X169850Y196710D01*
X160350Y179210D02*
Y196710D01*
X169850D01*
X160350Y179210D02*
X169850D01*
X177400Y211520D02*
Y229020D01*
X167900Y211520D02*
Y229020D01*
X177400D01*
X167900Y211520D02*
X177400D01*
X260490Y281600D02*
Y291100D01*
X277990Y281600D02*
Y291100D01*
X260490D02*
X277990D01*
X260490Y281600D02*
X277990D01*
X407810Y291100D02*
X425310D01*
X407810Y281600D02*
X425310D01*
X407810D02*
Y291100D01*
X425310Y281600D02*
Y291100D01*
X377520Y345300D02*
X387020D01*
X377520Y327800D02*
X387020D01*
Y345300D01*
X377520Y327800D02*
Y345300D01*
X69510Y409290D02*
X87010D01*
X69510Y399790D02*
X87010Y399790D01*
X69510Y399790D02*
Y409290D01*
X87010Y399790D02*
Y409290D01*
X362280Y327800D02*
Y345300D01*
X371780Y327800D02*
Y345300D01*
X362280Y327800D02*
X371780D01*
X362280Y345300D02*
X371780D01*
X392760Y327800D02*
X392760Y345300D01*
X402260D02*
X402260Y327800D01*
X392760D02*
X402260D01*
X392760Y345300D02*
X402260D01*
X222390Y432130D02*
X239890D01*
X222390Y441630D02*
X239890Y441630D01*
Y432130D02*
Y441630D01*
X222390Y432130D02*
Y441630D01*
Y416890D02*
X239890D01*
X222390Y426390D02*
X239890Y426390D01*
Y416890D02*
Y426390D01*
X222390Y416890D02*
Y426390D01*
X258330Y406070D02*
X275830D01*
X258330Y396570D02*
X275830D01*
X258330D02*
Y406070D01*
X275830Y396570D02*
Y406070D01*
X359080Y175400D02*
Y192900D01*
X349580Y175400D02*
Y192900D01*
X359080D01*
X349580Y175400D02*
X359080D01*
X32480Y274280D02*
X32480Y243880D01*
X18480Y274280D02*
X18480Y243880D01*
X32480Y243880D01*
X18480Y274280D02*
X32480Y274280D01*
X32480Y198160D02*
Y228560D01*
X18480Y198160D02*
Y228560D01*
Y198160D02*
X32480Y198160D01*
X18480Y228560D02*
X32480Y228560D01*
X-24990Y267830D02*
X-15490Y267830D01*
X-24990Y250330D02*
X-15490D01*
Y267830D01*
X-24990Y267830D02*
X-24990Y250330D01*
X-9750Y267830D02*
X-250D01*
X-9750Y250330D02*
X-250Y250330D01*
X-250Y267830D02*
X-250Y250330D01*
X-9750Y250330D02*
Y267830D01*
X-9750Y204610D02*
Y222110D01*
X-250Y204610D02*
X-250Y222110D01*
X-9750Y204610D02*
X-250Y204610D01*
X-9750Y222110D02*
X-250D01*
X-24990Y222110D02*
X-15490Y222110D01*
X-24990Y204610D02*
X-15490Y204610D01*
Y222110D01*
X-24990Y222110D02*
X-24990Y204610D01*
X362090Y386410D02*
Y395910D01*
X379590Y386410D02*
X379590Y395910D01*
X362090Y395910D02*
X379590Y395910D01*
X362090Y386410D02*
X379590D01*
X362090Y371170D02*
Y380670D01*
X379590Y371170D02*
X379590Y380670D01*
X362090D02*
X379590D01*
X362090Y371170D02*
X379590D01*
X387490Y180010D02*
X404990D01*
X387490Y170510D02*
X404990D01*
X387490D02*
Y180010D01*
X404990Y170510D02*
Y180010D01*
X260490Y245600D02*
X277990D01*
X260490Y255100D02*
X277990D01*
Y245600D02*
Y255100D01*
X260490Y245600D02*
Y255100D01*
X387490Y195250D02*
X404990D01*
X387490Y185750D02*
X404990Y185750D01*
X387490Y185750D02*
Y195250D01*
X404990Y185750D02*
Y195250D01*
X115710Y129870D02*
X133210D01*
X115710Y139370D02*
X133210D01*
Y129870D02*
Y139370D01*
X115710Y129870D02*
Y139370D01*
X316560Y355460D02*
X326060D01*
X316560Y337960D02*
X326060D01*
X326060Y355460D02*
X326060Y337960D01*
X316560D02*
X316560Y355460D01*
X331800D02*
X341300D01*
X331800Y337960D02*
X341300D01*
Y355460D01*
X331800Y337960D02*
Y355460D01*
X334340Y175400D02*
X343840D01*
X334340Y192900D02*
X343840D01*
X334340Y175400D02*
Y192900D01*
X343840Y175400D02*
Y192900D01*
X301320Y355460D02*
X310820D01*
X301320Y337960D02*
X310820D01*
Y355460D01*
X301320Y337960D02*
Y355460D01*
X425310Y245600D02*
Y255100D01*
X407810Y245600D02*
Y255100D01*
Y245600D02*
X425310D01*
X407810Y255100D02*
X425310D01*
X288430Y170510D02*
Y180010D01*
X305930Y170510D02*
Y180010D01*
X288430Y180010D02*
X305930Y180010D01*
X288430Y170510D02*
X305930Y170510D01*
X224650Y129870D02*
Y139370D01*
X207150Y129870D02*
Y139370D01*
Y129870D02*
X224650D01*
X207150Y139370D02*
X224650D01*
D85*
X697390Y259780D02*
X693327D01*
Y261811D01*
X694004Y262488D01*
X695359D01*
X696036Y261811D01*
Y259780D01*
X694004Y266551D02*
X693327Y265874D01*
Y264520D01*
X694004Y263843D01*
X696713D01*
X697390Y264520D01*
Y265874D01*
X696713Y266551D01*
X693327Y267905D02*
X697390D01*
Y269937D01*
X696713Y270614D01*
X696036D01*
X695359Y269937D01*
Y267905D01*
Y269937D01*
X694681Y270614D01*
X694004D01*
X693327Y269937D01*
Y267905D01*
Y278739D02*
Y276031D01*
X697390D01*
Y278739D01*
X695359Y276031D02*
Y277385D01*
X693327Y280093D02*
X697390D01*
Y282125D01*
X696713Y282802D01*
X694004D01*
X693327Y282125D01*
Y280093D01*
X694004Y286864D02*
X693327Y286187D01*
Y284833D01*
X694004Y284156D01*
X696713D01*
X697390Y284833D01*
Y286187D01*
X696713Y286864D01*
X695359D01*
Y285510D01*
X693327Y290927D02*
Y288219D01*
X697390D01*
Y290927D01*
X695359Y288219D02*
Y289573D01*
M02*
