G04*
G04 #@! TF.GenerationSoftware,Altium Limited,Altium Designer,24.2.2 (26)*
G04*
G04 Layer_Color=2752767*
%FSLAX44Y44*%
%MOMM*%
G71*
G04*
G04 #@! TF.SameCoordinates,D28C2298-B94A-46E3-96D8-F5CEDD955656*
G04*
G04*
G04 #@! TF.FilePolarity,Positive*
G04*
G01*
G75*
%ADD14C,0.1270*%
%ADD63C,0.1016*%
%ADD87C,0.1693*%
D14*
X635590Y171800D02*
X638130Y174340D01*
X640670D01*
X638130Y176880D01*
X640670Y179420D01*
X638130D01*
X635590Y181960D01*
X633050Y179420D01*
X630510D01*
X633050Y176880D01*
X630510Y174340D01*
X633050D01*
X635590Y171800D01*
Y229600D02*
X638130Y232140D01*
X640670D01*
X638130Y234680D01*
X640670Y237220D01*
X638130D01*
X635590Y239760D01*
X633050Y237220D01*
X630510D01*
X633050Y234680D01*
X630510Y232140D01*
X633050D01*
X635590Y229600D01*
X630590Y243900D02*
X625510Y254060D01*
X635670D01*
X630590Y243900D01*
Y157500D02*
X625510Y167660D01*
X635670D01*
X630590Y157500D01*
X667310Y243900D02*
X669850Y248980D01*
X667310Y254060D01*
X672390Y251520D01*
X677470Y254060D01*
X674930Y248980D01*
X677470Y243900D01*
X672390Y246440D01*
X667310Y243900D01*
Y157500D02*
X669850Y162580D01*
X667310Y167660D01*
X672390Y165120D01*
X677470Y167660D01*
X674930Y162580D01*
X677470Y157500D01*
X672390Y160040D01*
X667310Y157500D01*
X33020Y119380D02*
Y129540D01*
X43180D01*
Y119380D01*
X33020D01*
Y106680D02*
Y116840D01*
X43180D01*
Y106680D01*
X33020D01*
Y93980D02*
Y104140D01*
X43180D01*
Y93980D01*
X33020D01*
Y81280D02*
Y91440D01*
X43180D01*
Y81280D01*
X33020D01*
Y68580D02*
Y78740D01*
X43180D01*
Y68580D01*
X33020D01*
X20320Y119380D02*
Y129540D01*
X30480D01*
Y119380D01*
X20320D01*
Y106680D02*
Y116840D01*
X30480D01*
Y106680D01*
X20320D01*
Y93980D02*
Y104140D01*
X30480D01*
Y93980D01*
X20320D01*
Y81280D02*
Y91440D01*
X30480D01*
Y81280D01*
X20320D01*
Y68580D02*
Y78740D01*
X30480D01*
Y68580D01*
X20320D01*
X-5080Y426720D02*
Y436880D01*
X5080D01*
Y426720D01*
X-5080D01*
X-3048Y428752D02*
Y434848D01*
X3048D01*
Y428752D01*
X-3048D01*
X655320Y426720D02*
Y436880D01*
X665480D01*
Y426720D01*
X655320D01*
X657352Y428752D02*
Y434848D01*
X663448D01*
Y428752D01*
X657352D01*
X-5080Y-5080D02*
Y5080D01*
X5080D01*
Y-5080D01*
X-5080D01*
X-3048Y-3048D02*
Y3048D01*
X3048D01*
Y-3048D01*
X-3048D01*
X655320Y-5080D02*
Y5080D01*
X665480D01*
Y-5080D01*
X655320D01*
X657352Y-3048D02*
Y3048D01*
X663448D01*
Y-3048D01*
X657352D01*
X397510Y161290D02*
Y158750D01*
X402590D01*
Y161290D01*
X405130D01*
Y166370D01*
X402590D01*
Y168910D01*
X397510D01*
Y166370D01*
X394970D01*
Y161290D01*
X397510D01*
X295910Y364490D02*
Y361950D01*
X300990D01*
Y364490D01*
X303530D01*
Y369570D01*
X300990D01*
Y372110D01*
X295910D01*
Y369570D01*
X293370D01*
Y364490D01*
X295910D01*
X499110D02*
Y361950D01*
X504190D01*
Y364490D01*
X506730D01*
Y369570D01*
X504190D01*
Y372110D01*
X499110D01*
Y369570D01*
X496570D01*
Y364490D01*
X499110D01*
Y161290D02*
Y158750D01*
X504190D01*
Y161290D01*
X506730D01*
Y166370D01*
X504190D01*
Y168910D01*
X499110D01*
Y166370D01*
X496570D01*
Y161290D01*
X499110D01*
X600710D02*
Y158750D01*
X605790D01*
Y161290D01*
X608330D01*
Y166370D01*
X605790D01*
Y168910D01*
X600710D01*
Y166370D01*
X598170D01*
Y161290D01*
X600710D01*
Y364490D02*
Y361950D01*
X605790D01*
Y364490D01*
X608330D01*
Y369570D01*
X605790D01*
Y372110D01*
X600710D01*
Y369570D01*
X598170D01*
Y364490D01*
X600710D01*
X295910Y161290D02*
Y158750D01*
X300990D01*
Y161290D01*
X303530D01*
Y166370D01*
X300990D01*
Y168910D01*
X295910D01*
Y166370D01*
X293370D01*
Y161290D01*
X295910D01*
X397510Y364490D02*
Y361950D01*
X402590D01*
Y364490D01*
X405130D01*
Y369570D01*
X402590D01*
Y372110D01*
X397510D01*
Y369570D01*
X394970D01*
Y364490D01*
X397510D01*
X549910Y59690D02*
Y57150D01*
X554990D01*
Y59690D01*
X557530D01*
Y64770D01*
X554990D01*
Y67310D01*
X549910D01*
Y64770D01*
X547370D01*
Y59690D01*
X549910D01*
Y262890D02*
Y260350D01*
X554990D01*
Y262890D01*
X557530D01*
Y267970D01*
X554990D01*
Y270510D01*
X549910D01*
Y267970D01*
X547370D01*
Y262890D01*
X549910D01*
X448310D02*
Y260350D01*
X453390D01*
Y262890D01*
X455930D01*
Y267970D01*
X453390D01*
Y270510D01*
X448310D01*
Y267970D01*
X445770D01*
Y262890D01*
X448310D01*
X194310Y364490D02*
Y361950D01*
X199390D01*
Y364490D01*
X201930D01*
Y369570D01*
X199390D01*
Y372110D01*
X194310D01*
Y369570D01*
X191770D01*
Y364490D01*
X194310D01*
D63*
X521208Y186500D02*
G03*
X521208Y186500I-3048J0D01*
G01*
X521208Y194500D02*
G03*
X521208Y194500I-3048J0D01*
G01*
X613028Y213280D02*
G03*
X613028Y213280I-3048J0D01*
G01*
X642748Y208280D02*
G03*
X642748Y208280I-3048J0D01*
G01*
X605588Y208340D02*
G03*
X605588Y208340I-3048J0D01*
G01*
X613028Y237780D02*
G03*
X613028Y237780I-3048J0D01*
G01*
Y173780D02*
G03*
X613028Y173780I-3048J0D01*
G01*
X606332Y181036D02*
G03*
X606332Y181036I-3048J0D01*
G01*
X613028Y229780D02*
G03*
X613028Y229780I-3048J0D01*
G01*
X686308Y132080D02*
G03*
X686308Y132080I-3048J0D01*
G01*
X685967Y281195D02*
G03*
X685967Y281195I-3048J0D01*
G01*
X651308Y330260D02*
G03*
X651308Y330260I-3048J0D01*
G01*
X462073Y197075D02*
G03*
X462073Y197075I-3048J0D01*
G01*
X580343Y196925D02*
G03*
X580343Y196925I-3048J0D01*
G01*
X475563Y180035D02*
G03*
X475563Y180035I-3048J0D01*
G01*
X567003D02*
G03*
X567003Y180035I-3048J0D01*
G01*
X500888Y184150D02*
G03*
X500888Y184150I-3048J0D01*
G01*
X356108Y248920D02*
G03*
X356108Y248920I-3048J0D01*
G01*
Y260350D02*
G03*
X356108Y260350I-3048J0D01*
G01*
Y271780D02*
G03*
X356108Y271780I-3048J0D01*
G01*
X335788Y248920D02*
G03*
X335788Y248920I-3048J0D01*
G01*
Y260350D02*
G03*
X335788Y260350I-3048J0D01*
G01*
Y271780D02*
G03*
X335788Y271780I-3048J0D01*
G01*
X151528Y363220D02*
G03*
X151528Y363220I-3048J0D01*
G01*
X309118Y369570D02*
G03*
X309118Y369570I-3048J0D01*
G01*
X351028Y238760D02*
G03*
X351028Y238760I-3048J0D01*
G01*
X345948Y260350D02*
G03*
X345948Y260350I-3048J0D01*
G01*
Y248920D02*
G03*
X345948Y248920I-3048J0D01*
G01*
Y271780D02*
G03*
X345948Y271780I-3048J0D01*
G01*
X328168Y5080D02*
G03*
X328168Y5080I-3048J0D01*
G01*
X353568D02*
G03*
X353568Y5080I-3048J0D01*
G01*
X378968D02*
G03*
X378968Y5080I-3048J0D01*
G01*
X66548Y63500D02*
G03*
X66548Y63500I-3048J0D01*
G01*
X51308D02*
G03*
X51308Y63500I-3048J0D01*
G01*
X359918Y238760D02*
G03*
X359918Y238760I-3048J0D01*
G01*
X323088Y279400D02*
G03*
X323088Y279400I-3048J0D01*
G01*
X321248Y88900D02*
G03*
X321248Y88900I-3048J0D01*
G01*
X313248D02*
G03*
X313248Y88900I-3048J0D01*
G01*
X481248D02*
G03*
X481248Y88900I-3048J0D01*
G01*
X473248D02*
G03*
X473248Y88900I-3048J0D01*
G01*
X465248D02*
G03*
X465248Y88900I-3048J0D01*
G01*
X201248Y12700D02*
G03*
X201248Y12700I-3048J0D01*
G01*
X193248D02*
G03*
X193248Y12700I-3048J0D01*
G01*
X185248D02*
G03*
X185248Y12700I-3048J0D01*
G01*
X481248D02*
G03*
X481248Y12700I-3048J0D01*
G01*
X473248D02*
G03*
X473248Y12700I-3048J0D01*
G01*
X465248D02*
G03*
X465248Y12700I-3048J0D01*
G01*
X321248D02*
G03*
X321248Y12700I-3048J0D01*
G01*
X313248D02*
G03*
X313248Y12700I-3048J0D01*
G01*
X201248Y88900D02*
G03*
X201248Y88900I-3048J0D01*
G01*
X193248D02*
G03*
X193248Y88900I-3048J0D01*
G01*
X185248D02*
G03*
X185248Y88900I-3048J0D01*
G01*
X337248Y12700D02*
G03*
X337248Y12700I-3048J0D01*
G01*
X345248D02*
G03*
X345248Y12700I-3048J0D01*
G01*
X114808Y367030D02*
G03*
X114808Y367030I-3048J0D01*
G01*
X93218Y192106D02*
G03*
X93218Y192106I-3048J0D01*
G01*
X297688Y242570D02*
G03*
X297688Y242570I-3048J0D01*
G01*
Y233680D02*
G03*
X297688Y233680I-3048J0D01*
G01*
Y224790D02*
G03*
X297688Y224790I-3048J0D01*
G01*
X361248Y12700D02*
G03*
X361248Y12700I-3048J0D01*
G01*
X369248D02*
G03*
X369248Y12700I-3048J0D01*
G01*
X318008Y204470D02*
G03*
X318008Y204470I-3048J0D01*
G01*
X307848D02*
G03*
X307848Y204470I-3048J0D01*
G01*
X401248Y44900D02*
G03*
X401248Y44900I-3048J0D01*
G01*
X457248D02*
G03*
X457248Y44900I-3048J0D01*
G01*
X441248D02*
G03*
X441248Y44900I-3048J0D01*
G01*
X425248D02*
G03*
X425248Y44900I-3048J0D01*
G01*
X401248Y56700D02*
G03*
X401248Y56700I-3048J0D01*
G01*
X425248D02*
G03*
X425248Y56700I-3048J0D01*
G01*
X441248D02*
G03*
X441248Y56700I-3048J0D01*
G01*
X457248D02*
G03*
X457248Y56700I-3048J0D01*
G01*
X177248Y44900D02*
G03*
X177248Y44900I-3048J0D01*
G01*
Y56700D02*
G03*
X177248Y56700I-3048J0D01*
G01*
X209248D02*
G03*
X209248Y56700I-3048J0D01*
G01*
Y44900D02*
G03*
X209248Y44900I-3048J0D01*
G01*
X233248D02*
G03*
X233248Y44900I-3048J0D01*
G01*
Y56700D02*
G03*
X233248Y56700I-3048J0D01*
G01*
X257248D02*
G03*
X257248Y56700I-3048J0D01*
G01*
Y44900D02*
G03*
X257248Y44900I-3048J0D01*
G01*
X281248D02*
G03*
X281248Y44900I-3048J0D01*
G01*
Y56700D02*
G03*
X281248Y56700I-3048J0D01*
G01*
X305248D02*
G03*
X305248Y56700I-3048J0D01*
G01*
Y44900D02*
G03*
X305248Y44900I-3048J0D01*
G01*
X329248D02*
G03*
X329248Y44900I-3048J0D01*
G01*
Y56700D02*
G03*
X329248Y56700I-3048J0D01*
G01*
X353248D02*
G03*
X353248Y56700I-3048J0D01*
G01*
X377248D02*
G03*
X377248Y56700I-3048J0D01*
G01*
X489248D02*
G03*
X489248Y56700I-3048J0D01*
G01*
Y44900D02*
G03*
X489248Y44900I-3048J0D01*
G01*
X353248D02*
G03*
X353248Y44900I-3048J0D01*
G01*
X377248D02*
G03*
X377248Y44900I-3048J0D01*
G01*
X201028Y153820D02*
G03*
X201028Y153820I-3048J0D01*
G01*
X150368Y130660D02*
G03*
X150368Y130660I-3048J0D01*
G01*
X127508Y367030D02*
G03*
X127508Y367030I-3048J0D01*
G01*
X288623Y401245D02*
G03*
X288623Y401245I-3048J0D01*
G01*
X175773Y238765D02*
G03*
X175773Y238765I-3048J0D01*
G01*
X150368Y157480D02*
G03*
X150368Y157480I-3048J0D01*
G01*
X237443Y134545D02*
G03*
X237443Y134545I-3048J0D01*
G01*
X109013Y134695D02*
G03*
X109013Y134695I-3048J0D01*
G01*
X150368Y147320D02*
G03*
X150368Y147320I-3048J0D01*
G01*
X200663Y443745D02*
G03*
X200663Y443745I-3048J0D01*
G01*
X138173Y443895D02*
G03*
X138173Y443895I-3048J0D01*
G01*
X125303Y444425D02*
G03*
X125303Y444425I-3048J0D01*
G01*
X62813Y444575D02*
G03*
X62813Y444575I-3048J0D01*
G01*
X51023Y268505D02*
G03*
X51023Y268505I-3048J0D01*
G01*
X51023Y222785D02*
G03*
X51023Y222785I-3048J0D01*
G01*
X333248Y215900D02*
G03*
X333248Y215900I-3048J0D01*
G01*
X391668Y207010D02*
G03*
X391668Y207010I-3048J0D01*
G01*
X342138D02*
G03*
X342138Y207010I-3048J0D01*
G01*
X368808Y238760D02*
G03*
X368808Y238760I-3048J0D01*
G01*
X277368Y175260D02*
G03*
X277368Y175260I-3048J0D01*
G01*
X422148D02*
G03*
X422148Y175260I-3048J0D01*
G01*
X357378Y161290D02*
G03*
X357378Y161290I-3048J0D01*
G01*
X342138D02*
G03*
X342138Y161290I-3048J0D01*
G01*
X249428Y286350D02*
G03*
X249428Y286350I-3048J0D01*
G01*
Y250350D02*
G03*
X249428Y250350I-3048J0D01*
G01*
X339598Y369570D02*
G03*
X339598Y369570I-3048J0D01*
G01*
X324358D02*
G03*
X324358Y369570I-3048J0D01*
G01*
X400558Y359410D02*
G03*
X400558Y359410I-3048J0D01*
G01*
X385318D02*
G03*
X385318Y359410I-3048J0D01*
G01*
X370078D02*
G03*
X370078Y359410I-3048J0D01*
G01*
X442468Y286350D02*
G03*
X442468Y286350I-3048J0D01*
G01*
X442468Y250350D02*
G03*
X442468Y250350I-3048J0D01*
G01*
D87*
X523240Y186500D02*
G03*
X523240Y186500I-5080J0D01*
G01*
X523240Y194500D02*
G03*
X523240Y194500I-5080J0D01*
G01*
X5080Y355600D02*
G03*
X5080Y355600I-5080J0D01*
G01*
Y304800D02*
G03*
X5080Y304800I-5080J0D01*
G01*
X30480Y355600D02*
G03*
X30480Y355600I-5080J0D01*
G01*
Y304800D02*
G03*
X30480Y304800I-5080J0D01*
G01*
X5080Y381000D02*
G03*
X5080Y381000I-5080J0D01*
G01*
Y330200D02*
G03*
X5080Y330200I-5080J0D01*
G01*
X30480Y381000D02*
G03*
X30480Y381000I-5080J0D01*
G01*
Y330200D02*
G03*
X30480Y330200I-5080J0D01*
G01*
X615060Y213280D02*
G03*
X615060Y213280I-5080J0D01*
G01*
X644780Y208280D02*
G03*
X644780Y208280I-5080J0D01*
G01*
X607620Y208340D02*
G03*
X607620Y208340I-5080J0D01*
G01*
X615060Y237780D02*
G03*
X615060Y237780I-5080J0D01*
G01*
Y173780D02*
G03*
X615060Y173780I-5080J0D01*
G01*
X608364Y181036D02*
G03*
X608364Y181036I-5080J0D01*
G01*
X615060Y229780D02*
G03*
X615060Y229780I-5080J0D01*
G01*
X688340Y132080D02*
G03*
X688340Y132080I-5080J0D01*
G01*
X687999Y281195D02*
G03*
X687999Y281195I-5080J0D01*
G01*
X653340Y330260D02*
G03*
X653340Y330260I-5080J0D01*
G01*
X464105Y197075D02*
G03*
X464105Y197075I-5080J0D01*
G01*
X582375Y196925D02*
G03*
X582375Y196925I-5080J0D01*
G01*
X477595Y180035D02*
G03*
X477595Y180035I-5080J0D01*
G01*
X569035D02*
G03*
X569035Y180035I-5080J0D01*
G01*
X502920Y184150D02*
G03*
X502920Y184150I-5080J0D01*
G01*
X358140Y248920D02*
G03*
X358140Y248920I-5080J0D01*
G01*
Y260350D02*
G03*
X358140Y260350I-5080J0D01*
G01*
Y271780D02*
G03*
X358140Y271780I-5080J0D01*
G01*
X337820Y248920D02*
G03*
X337820Y248920I-5080J0D01*
G01*
Y260350D02*
G03*
X337820Y260350I-5080J0D01*
G01*
Y271780D02*
G03*
X337820Y271780I-5080J0D01*
G01*
X153560Y363220D02*
G03*
X153560Y363220I-5080J0D01*
G01*
X311150Y369570D02*
G03*
X311150Y369570I-5080J0D01*
G01*
X353060Y238760D02*
G03*
X353060Y238760I-5080J0D01*
G01*
X347980Y260350D02*
G03*
X347980Y260350I-5080J0D01*
G01*
Y248920D02*
G03*
X347980Y248920I-5080J0D01*
G01*
Y271780D02*
G03*
X347980Y271780I-5080J0D01*
G01*
X330200Y5080D02*
G03*
X330200Y5080I-5080J0D01*
G01*
X355600D02*
G03*
X355600Y5080I-5080J0D01*
G01*
X381000D02*
G03*
X381000Y5080I-5080J0D01*
G01*
X68580Y63500D02*
G03*
X68580Y63500I-5080J0D01*
G01*
X53340D02*
G03*
X53340Y63500I-5080J0D01*
G01*
X361950Y238760D02*
G03*
X361950Y238760I-5080J0D01*
G01*
X325120Y279400D02*
G03*
X325120Y279400I-5080J0D01*
G01*
X323280Y88900D02*
G03*
X323280Y88900I-5080J0D01*
G01*
X315280D02*
G03*
X315280Y88900I-5080J0D01*
G01*
X483280D02*
G03*
X483280Y88900I-5080J0D01*
G01*
X475280D02*
G03*
X475280Y88900I-5080J0D01*
G01*
X467280D02*
G03*
X467280Y88900I-5080J0D01*
G01*
X203280Y12700D02*
G03*
X203280Y12700I-5080J0D01*
G01*
X195280D02*
G03*
X195280Y12700I-5080J0D01*
G01*
X187280D02*
G03*
X187280Y12700I-5080J0D01*
G01*
X483280D02*
G03*
X483280Y12700I-5080J0D01*
G01*
X475280D02*
G03*
X475280Y12700I-5080J0D01*
G01*
X467280D02*
G03*
X467280Y12700I-5080J0D01*
G01*
X323280D02*
G03*
X323280Y12700I-5080J0D01*
G01*
X315280D02*
G03*
X315280Y12700I-5080J0D01*
G01*
X203280Y88900D02*
G03*
X203280Y88900I-5080J0D01*
G01*
X195280D02*
G03*
X195280Y88900I-5080J0D01*
G01*
X187280D02*
G03*
X187280Y88900I-5080J0D01*
G01*
X339280Y12700D02*
G03*
X339280Y12700I-5080J0D01*
G01*
X347280D02*
G03*
X347280Y12700I-5080J0D01*
G01*
X116840Y367030D02*
G03*
X116840Y367030I-5080J0D01*
G01*
X95250Y192106D02*
G03*
X95250Y192106I-5080J0D01*
G01*
X299720Y242570D02*
G03*
X299720Y242570I-5080J0D01*
G01*
Y233680D02*
G03*
X299720Y233680I-5080J0D01*
G01*
Y224790D02*
G03*
X299720Y224790I-5080J0D01*
G01*
X363280Y12700D02*
G03*
X363280Y12700I-5080J0D01*
G01*
X371280D02*
G03*
X371280Y12700I-5080J0D01*
G01*
X320040Y204470D02*
G03*
X320040Y204470I-5080J0D01*
G01*
X309880D02*
G03*
X309880Y204470I-5080J0D01*
G01*
X403280Y44900D02*
G03*
X403280Y44900I-5080J0D01*
G01*
X459280D02*
G03*
X459280Y44900I-5080J0D01*
G01*
X443280D02*
G03*
X443280Y44900I-5080J0D01*
G01*
X427280D02*
G03*
X427280Y44900I-5080J0D01*
G01*
X403280Y56700D02*
G03*
X403280Y56700I-5080J0D01*
G01*
X427280D02*
G03*
X427280Y56700I-5080J0D01*
G01*
X443280D02*
G03*
X443280Y56700I-5080J0D01*
G01*
X459280D02*
G03*
X459280Y56700I-5080J0D01*
G01*
X179280Y44900D02*
G03*
X179280Y44900I-5080J0D01*
G01*
Y56700D02*
G03*
X179280Y56700I-5080J0D01*
G01*
X211280D02*
G03*
X211280Y56700I-5080J0D01*
G01*
Y44900D02*
G03*
X211280Y44900I-5080J0D01*
G01*
X235280D02*
G03*
X235280Y44900I-5080J0D01*
G01*
Y56700D02*
G03*
X235280Y56700I-5080J0D01*
G01*
X259280D02*
G03*
X259280Y56700I-5080J0D01*
G01*
Y44900D02*
G03*
X259280Y44900I-5080J0D01*
G01*
X283280D02*
G03*
X283280Y44900I-5080J0D01*
G01*
Y56700D02*
G03*
X283280Y56700I-5080J0D01*
G01*
X307280D02*
G03*
X307280Y56700I-5080J0D01*
G01*
Y44900D02*
G03*
X307280Y44900I-5080J0D01*
G01*
X331280D02*
G03*
X331280Y44900I-5080J0D01*
G01*
Y56700D02*
G03*
X331280Y56700I-5080J0D01*
G01*
X355280D02*
G03*
X355280Y56700I-5080J0D01*
G01*
X379280D02*
G03*
X379280Y56700I-5080J0D01*
G01*
X491280D02*
G03*
X491280Y56700I-5080J0D01*
G01*
Y44900D02*
G03*
X491280Y44900I-5080J0D01*
G01*
X355280D02*
G03*
X355280Y44900I-5080J0D01*
G01*
X379280D02*
G03*
X379280Y44900I-5080J0D01*
G01*
X203060Y153820D02*
G03*
X203060Y153820I-5080J0D01*
G01*
X152400Y130660D02*
G03*
X152400Y130660I-5080J0D01*
G01*
X129540Y367030D02*
G03*
X129540Y367030I-5080J0D01*
G01*
X290655Y401245D02*
G03*
X290655Y401245I-5080J0D01*
G01*
X177805Y238765D02*
G03*
X177805Y238765I-5080J0D01*
G01*
X152400Y157480D02*
G03*
X152400Y157480I-5080J0D01*
G01*
X239475Y134545D02*
G03*
X239475Y134545I-5080J0D01*
G01*
X111045Y134695D02*
G03*
X111045Y134695I-5080J0D01*
G01*
X152400Y147320D02*
G03*
X152400Y147320I-5080J0D01*
G01*
X202695Y443745D02*
G03*
X202695Y443745I-5080J0D01*
G01*
X140205Y443895D02*
G03*
X140205Y443895I-5080J0D01*
G01*
X127335Y444425D02*
G03*
X127335Y444425I-5080J0D01*
G01*
X64845Y444575D02*
G03*
X64845Y444575I-5080J0D01*
G01*
X53055Y268505D02*
G03*
X53055Y268505I-5080J0D01*
G01*
X53055Y222785D02*
G03*
X53055Y222785I-5080J0D01*
G01*
X335280Y215900D02*
G03*
X335280Y215900I-5080J0D01*
G01*
X393700Y207010D02*
G03*
X393700Y207010I-5080J0D01*
G01*
X344170D02*
G03*
X344170Y207010I-5080J0D01*
G01*
X370840Y238760D02*
G03*
X370840Y238760I-5080J0D01*
G01*
X279400Y175260D02*
G03*
X279400Y175260I-5080J0D01*
G01*
X424180D02*
G03*
X424180Y175260I-5080J0D01*
G01*
X359410Y161290D02*
G03*
X359410Y161290I-5080J0D01*
G01*
X344170D02*
G03*
X344170Y161290I-5080J0D01*
G01*
X251460Y286350D02*
G03*
X251460Y286350I-5080J0D01*
G01*
Y250350D02*
G03*
X251460Y250350I-5080J0D01*
G01*
X341630Y369570D02*
G03*
X341630Y369570I-5080J0D01*
G01*
X326390D02*
G03*
X326390Y369570I-5080J0D01*
G01*
X402590Y359410D02*
G03*
X402590Y359410I-5080J0D01*
G01*
X387350D02*
G03*
X387350Y359410I-5080J0D01*
G01*
X372110D02*
G03*
X372110Y359410I-5080J0D01*
G01*
X444500Y286350D02*
G03*
X444500Y286350I-5080J0D01*
G01*
X444500Y250350D02*
G03*
X444500Y250350I-5080J0D01*
G01*
M02*
