G04*
G04 #@! TF.GenerationSoftware,Altium Limited,Altium Designer,24.2.2 (26)*
G04*
G04 Layer_Color=8388736*
%FSLAX44Y44*%
%MOMM*%
G71*
G04*
G04 #@! TF.SameCoordinates,D28C2298-B94A-46E3-96D8-F5CEDD955656*
G04*
G04*
G04 #@! TF.FilePolarity,Negative*
G04*
G01*
G75*
%ADD34R,1.3000X0.4500*%
%ADD35R,1.3000X0.7500*%
%ADD36R,1.2000X1.1500*%
G04:AMPARAMS|DCode=37|XSize=0.6mm|YSize=0.45mm|CornerRadius=0.0825mm|HoleSize=0mm|Usage=FLASHONLY|Rotation=0.000|XOffset=0mm|YOffset=0mm|HoleType=Round|Shape=RoundedRectangle|*
%AMROUNDEDRECTD37*
21,1,0.6000,0.2850,0,0,0.0*
21,1,0.4350,0.4500,0,0,0.0*
1,1,0.1650,0.2175,-0.1425*
1,1,0.1650,-0.2175,-0.1425*
1,1,0.1650,-0.2175,0.1425*
1,1,0.1650,0.2175,0.1425*
%
%ADD37ROUNDEDRECTD37*%
%ADD38R,1.1500X1.7500*%
%ADD39R,0.9500X0.9500*%
%ADD40R,1.1500X1.2000*%
%ADD41C,1.6740*%
%ADD42R,1.1500X1.1000*%
G04:AMPARAMS|DCode=43|XSize=0.3mm|YSize=0.94mm|CornerRadius=0.075mm|HoleSize=0mm|Usage=FLASHONLY|Rotation=0.000|XOffset=0mm|YOffset=0mm|HoleType=Round|Shape=RoundedRectangle|*
%AMROUNDEDRECTD43*
21,1,0.3000,0.7900,0,0,0.0*
21,1,0.1500,0.9400,0,0,0.0*
1,1,0.1500,0.0750,-0.3950*
1,1,0.1500,-0.0750,-0.3950*
1,1,0.1500,-0.0750,0.3950*
1,1,0.1500,0.0750,0.3950*
%
%ADD43ROUNDEDRECTD43*%
%ADD44R,3.2000X3.2000*%
G04:AMPARAMS|DCode=45|XSize=0.94mm|YSize=0.3mm|CornerRadius=0.075mm|HoleSize=0mm|Usage=FLASHONLY|Rotation=0.000|XOffset=0mm|YOffset=0mm|HoleType=Round|Shape=RoundedRectangle|*
%AMROUNDEDRECTD45*
21,1,0.9400,0.1500,0,0,0.0*
21,1,0.7900,0.3000,0,0,0.0*
1,1,0.1500,0.3950,-0.0750*
1,1,0.1500,-0.3950,-0.0750*
1,1,0.1500,-0.3950,0.0750*
1,1,0.1500,0.3950,0.0750*
%
%ADD45ROUNDEDRECTD45*%
G04:AMPARAMS|DCode=46|XSize=1.76mm|YSize=0.73mm|CornerRadius=0.1475mm|HoleSize=0mm|Usage=FLASHONLY|Rotation=0.000|XOffset=0mm|YOffset=0mm|HoleType=Round|Shape=RoundedRectangle|*
%AMROUNDEDRECTD46*
21,1,1.7600,0.4350,0,0,0.0*
21,1,1.4650,0.7300,0,0,0.0*
1,1,0.2950,0.7325,-0.2175*
1,1,0.2950,-0.7325,-0.2175*
1,1,0.2950,-0.7325,0.2175*
1,1,0.2950,0.7325,0.2175*
%
%ADD46ROUNDEDRECTD46*%
%ADD47R,1.1000X1.1500*%
%ADD48R,1.2000X0.8000*%
%ADD49R,2.6500X1.3500*%
%ADD50R,1.1500X0.7500*%
%ADD51R,5.6880X2.2082*%
%ADD52R,0.6500X2.1500*%
G04:AMPARAMS|DCode=53|XSize=1.52mm|YSize=0.63mm|CornerRadius=0.099mm|HoleSize=0mm|Usage=FLASHONLY|Rotation=0.000|XOffset=0mm|YOffset=0mm|HoleType=Round|Shape=RoundedRectangle|*
%AMROUNDEDRECTD53*
21,1,1.5200,0.4320,0,0,0.0*
21,1,1.3220,0.6300,0,0,0.0*
1,1,0.1980,0.6610,-0.2160*
1,1,0.1980,-0.6610,-0.2160*
1,1,0.1980,-0.6610,0.2160*
1,1,0.1980,0.6610,0.2160*
%
%ADD53ROUNDEDRECTD53*%
%ADD54C,0.8000*%
%ADD55O,2.2500X1.1500*%
G04:AMPARAMS|DCode=56|XSize=1.95mm|YSize=1.15mm|CornerRadius=0.325mm|HoleSize=0mm|Usage=FLASHONLY|Rotation=180.000|XOffset=0mm|YOffset=0mm|HoleType=Round|Shape=RoundedRectangle|*
%AMROUNDEDRECTD56*
21,1,1.9500,0.5000,0,0,180.0*
21,1,1.3000,1.1500,0,0,180.0*
1,1,0.6500,-0.6500,0.2500*
1,1,0.6500,0.6500,0.2500*
1,1,0.6500,0.6500,-0.2500*
1,1,0.6500,-0.6500,-0.2500*
%
%ADD56ROUNDEDRECTD56*%
%ADD57C,1.1500*%
%ADD58C,5.2300*%
%ADD59C,0.6072*%
D34*
X624840Y188280D02*
D03*
Y193280D02*
D03*
Y198280D02*
D03*
Y223280D02*
D03*
Y218280D02*
D03*
Y213280D02*
D03*
Y203280D02*
D03*
Y208280D02*
D03*
D35*
Y229780D02*
D03*
Y181780D02*
D03*
Y237780D02*
D03*
Y173780D02*
D03*
D36*
X683640Y144780D02*
D03*
X667640D02*
D03*
X683640Y266700D02*
D03*
X667640D02*
D03*
X70260Y404540D02*
D03*
X86260D02*
D03*
X239140Y436880D02*
D03*
X223140D02*
D03*
X239140Y421640D02*
D03*
X223140D02*
D03*
X362840Y391160D02*
D03*
X378840D02*
D03*
X362840Y375920D02*
D03*
X378840D02*
D03*
X388240Y190500D02*
D03*
X404240D02*
D03*
D37*
X508410Y197000D02*
D03*
X508410Y190500D02*
D03*
Y184000D02*
D03*
X527910D02*
D03*
Y190500D02*
D03*
Y197000D02*
D03*
D38*
X518160Y190500D02*
D03*
D39*
X472440Y153040D02*
D03*
Y169540D02*
D03*
X563880Y153040D02*
D03*
X563880Y169540D02*
D03*
X-5000Y267330D02*
D03*
X-5000Y250830D02*
D03*
X-5000Y205110D02*
D03*
Y221610D02*
D03*
D40*
X487680Y153290D02*
D03*
Y169290D02*
D03*
X548640Y153290D02*
D03*
Y169290D02*
D03*
X180340Y179960D02*
D03*
Y195960D02*
D03*
X165100Y195960D02*
D03*
X165100Y179960D02*
D03*
X-20240Y267080D02*
D03*
Y251080D02*
D03*
X-20240Y221360D02*
D03*
X-20240Y205360D02*
D03*
D41*
X518160Y165100D02*
D03*
X111760Y402000D02*
D03*
X518160Y215900D02*
D03*
X0Y355600D02*
D03*
Y304800D02*
D03*
X25400Y355600D02*
D03*
Y304800D02*
D03*
X0Y381000D02*
D03*
Y330200D02*
D03*
X25400Y381000D02*
D03*
Y330200D02*
D03*
D42*
X485520Y197000D02*
D03*
X469520D02*
D03*
X550800D02*
D03*
X566800D02*
D03*
X261240Y286350D02*
D03*
X277240D02*
D03*
X408560D02*
D03*
X424560D02*
D03*
X259080Y401320D02*
D03*
X275080D02*
D03*
X388240Y175260D02*
D03*
X404240D02*
D03*
X277240Y250350D02*
D03*
X261240D02*
D03*
X132460Y134620D02*
D03*
X116460D02*
D03*
X424560Y250350D02*
D03*
X408560D02*
D03*
X289180Y175260D02*
D03*
X305180D02*
D03*
X223900Y134620D02*
D03*
X207900D02*
D03*
D43*
X348900Y294700D02*
D03*
X344900D02*
D03*
X316900D02*
D03*
X320900D02*
D03*
X324900D02*
D03*
X328900D02*
D03*
X332900D02*
D03*
X336900D02*
D03*
X340900D02*
D03*
X352900D02*
D03*
X356900D02*
D03*
X360900D02*
D03*
X364900D02*
D03*
X368900D02*
D03*
Y226000D02*
D03*
X364900D02*
D03*
X360900D02*
D03*
X356900D02*
D03*
X352900D02*
D03*
X348900D02*
D03*
X344900D02*
D03*
X340900D02*
D03*
X336900D02*
D03*
X332900D02*
D03*
X328900D02*
D03*
X324900D02*
D03*
X320900D02*
D03*
X316900D02*
D03*
D44*
X342900Y260350D02*
D03*
D45*
X377250Y286350D02*
D03*
Y282350D02*
D03*
Y278350D02*
D03*
Y274350D02*
D03*
Y270350D02*
D03*
Y266350D02*
D03*
Y262350D02*
D03*
Y258350D02*
D03*
Y254350D02*
D03*
Y250350D02*
D03*
Y246350D02*
D03*
Y242350D02*
D03*
Y238350D02*
D03*
Y234350D02*
D03*
X308550D02*
D03*
Y238350D02*
D03*
Y242350D02*
D03*
Y246350D02*
D03*
Y250350D02*
D03*
Y254350D02*
D03*
Y258350D02*
D03*
Y262350D02*
D03*
Y266350D02*
D03*
Y270350D02*
D03*
Y274350D02*
D03*
Y286350D02*
D03*
Y278350D02*
D03*
Y282350D02*
D03*
D46*
X235440Y401320D02*
D03*
Y388620D02*
D03*
Y375920D02*
D03*
Y363220D02*
D03*
X163340D02*
D03*
Y375920D02*
D03*
Y388620D02*
D03*
Y401320D02*
D03*
D47*
X172650Y228270D02*
D03*
Y212270D02*
D03*
X382270Y344550D02*
D03*
Y328550D02*
D03*
X367030D02*
D03*
Y344550D02*
D03*
X397510Y328550D02*
D03*
Y344550D02*
D03*
X354330Y192150D02*
D03*
Y176150D02*
D03*
X321310Y354710D02*
D03*
Y338710D02*
D03*
X336550Y354710D02*
D03*
Y338710D02*
D03*
X339090Y176150D02*
D03*
Y192150D02*
D03*
X306070Y354710D02*
D03*
Y338710D02*
D03*
D48*
X111760Y423000D02*
D03*
X70260D02*
D03*
X111760Y444500D02*
D03*
X70260D02*
D03*
X187120Y422320D02*
D03*
X145620D02*
D03*
X187120Y443820D02*
D03*
X145620D02*
D03*
D49*
X606230Y105220D02*
D03*
X606230Y80220D02*
D03*
X606230Y55220D02*
D03*
X661230Y105220D02*
D03*
Y80220D02*
D03*
Y55220D02*
D03*
D50*
X37480Y249580D02*
D03*
X37480Y268580D02*
D03*
X13480Y259080D02*
D03*
X37480Y203860D02*
D03*
Y222860D02*
D03*
X13480Y213360D02*
D03*
D51*
X394970Y138430D02*
D03*
X299974D02*
D03*
D52*
X174200Y72800D02*
D03*
Y28800D02*
D03*
X182200Y72800D02*
D03*
Y28800D02*
D03*
X190200Y72800D02*
D03*
Y28800D02*
D03*
X198200Y72800D02*
D03*
Y28800D02*
D03*
X206200Y72800D02*
D03*
Y28800D02*
D03*
X214200Y72800D02*
D03*
Y28800D02*
D03*
X222200Y72800D02*
D03*
Y28800D02*
D03*
X230200Y72800D02*
D03*
Y28800D02*
D03*
X238200Y72800D02*
D03*
Y28800D02*
D03*
X246200Y72800D02*
D03*
Y28800D02*
D03*
X254200Y72800D02*
D03*
Y28800D02*
D03*
X262200Y72800D02*
D03*
Y28800D02*
D03*
X270200Y72800D02*
D03*
Y28800D02*
D03*
X278200Y72800D02*
D03*
Y28800D02*
D03*
X286200Y72800D02*
D03*
Y28800D02*
D03*
X294200Y72800D02*
D03*
Y28800D02*
D03*
X302200Y72800D02*
D03*
Y28800D02*
D03*
X310200Y72800D02*
D03*
Y28800D02*
D03*
X318200Y72800D02*
D03*
Y28800D02*
D03*
X326200Y72800D02*
D03*
Y28800D02*
D03*
X334200Y72800D02*
D03*
Y28800D02*
D03*
X342200Y72800D02*
D03*
Y28800D02*
D03*
X350200Y72800D02*
D03*
Y28800D02*
D03*
X358200Y72800D02*
D03*
Y28800D02*
D03*
X366200Y72800D02*
D03*
Y28800D02*
D03*
X374200Y72800D02*
D03*
Y28800D02*
D03*
X382200Y72800D02*
D03*
Y28800D02*
D03*
X390200Y72800D02*
D03*
Y28800D02*
D03*
X398200Y72800D02*
D03*
Y28800D02*
D03*
X406200Y72800D02*
D03*
Y28800D02*
D03*
X414200Y72800D02*
D03*
Y28800D02*
D03*
X422200Y72800D02*
D03*
Y28800D02*
D03*
X430200Y72800D02*
D03*
Y28800D02*
D03*
X438200Y72800D02*
D03*
Y28800D02*
D03*
X446200Y72800D02*
D03*
Y28800D02*
D03*
X454200Y72800D02*
D03*
Y28800D02*
D03*
X462200Y72800D02*
D03*
Y28800D02*
D03*
X470200Y72800D02*
D03*
Y28800D02*
D03*
X478200Y72800D02*
D03*
Y28800D02*
D03*
X486200Y72800D02*
D03*
Y28800D02*
D03*
D53*
X161150Y153820D02*
D03*
Y147320D02*
D03*
Y140820D02*
D03*
Y134320D02*
D03*
X184150D02*
D03*
Y140820D02*
D03*
Y147320D02*
D03*
Y153820D02*
D03*
D54*
X635590Y176880D02*
D03*
Y234680D02*
D03*
D55*
X630590Y248980D02*
D03*
Y162580D02*
D03*
D56*
X672390Y248980D02*
D03*
Y162580D02*
D03*
D57*
X38100Y124460D02*
D03*
Y111760D02*
D03*
Y99060D02*
D03*
Y86360D02*
D03*
Y73660D02*
D03*
X25400Y124460D02*
D03*
Y111760D02*
D03*
Y99060D02*
D03*
Y86360D02*
D03*
Y73660D02*
D03*
D58*
X0Y431800D02*
D03*
X660400D02*
D03*
X0Y0D02*
D03*
X660400D02*
D03*
D59*
X400050Y163830D02*
D03*
X298450Y367030D02*
D03*
X501650D02*
D03*
Y163830D02*
D03*
X603250D02*
D03*
Y367030D02*
D03*
X298450Y163830D02*
D03*
X400050Y367030D02*
D03*
X552450Y62230D02*
D03*
Y265430D02*
D03*
X450850D02*
D03*
X196850Y367030D02*
D03*
M02*
