G04*
G04 #@! TF.GenerationSoftware,Altium Limited,Altium Designer,24.2.2 (26)*
G04*
G04 Layer_Color=128*
%FSLAX44Y44*%
%MOMM*%
G71*
G04*
G04 #@! TF.SameCoordinates,D28C2298-B94A-46E3-96D8-F5CEDD955656*
G04*
G04*
G04 #@! TF.FilePolarity,Positive*
G04*
G01*
G75*
%ADD14C,0.1270*%
D14*
X632340Y176880D02*
X638840D01*
X635590Y173630D02*
Y180130D01*
X632340Y234680D02*
X638840D01*
X635590Y231430D02*
Y237930D01*
X627590Y248980D02*
X633590D01*
X630590Y245980D02*
Y251980D01*
X627590Y162580D02*
X633590D01*
X630590Y159580D02*
Y165580D01*
X669390Y248980D02*
X675390D01*
X672390Y245980D02*
Y251980D01*
X669390Y162580D02*
X675390D01*
X672390Y159580D02*
Y165580D01*
X34600Y124460D02*
X41600D01*
X38100Y120960D02*
Y127960D01*
X34600Y111760D02*
X41600D01*
X38100Y108260D02*
Y115260D01*
X34600Y99060D02*
X41600D01*
X38100Y95560D02*
Y102560D01*
X34600Y86360D02*
X41600D01*
X38100Y82860D02*
Y89860D01*
X34600Y73660D02*
X41600D01*
X38100Y70160D02*
Y77160D01*
X21900Y124460D02*
X28900D01*
X25400Y120960D02*
Y127960D01*
X21900Y111760D02*
X28900D01*
X25400Y108260D02*
Y115260D01*
X21900Y99060D02*
X28900D01*
X25400Y95560D02*
Y102560D01*
X21900Y86360D02*
X28900D01*
X25400Y82860D02*
Y89860D01*
X21900Y73660D02*
X28900D01*
X25400Y70160D02*
Y77160D01*
X516660Y186500D02*
X519660D01*
X518160Y185000D02*
Y188000D01*
X516660Y194500D02*
X519660D01*
X518160Y193000D02*
Y196000D01*
X-17000Y431800D02*
X17000D01*
X0Y414800D02*
Y448800D01*
X643400Y431800D02*
X677400D01*
X660400Y414800D02*
Y448800D01*
X-5080Y355600D02*
X5080D01*
X0Y350520D02*
Y360680D01*
X-5080Y304800D02*
X5080D01*
X0Y299720D02*
Y309880D01*
X20320Y355600D02*
X30480D01*
X25400Y350520D02*
Y360680D01*
X20320Y304800D02*
X30480D01*
X25400Y299720D02*
Y309880D01*
X-5080Y381000D02*
X5080D01*
X0Y375920D02*
Y386080D01*
X-5080Y330200D02*
X5080D01*
X0Y325120D02*
Y335280D01*
X20320Y381000D02*
X30480D01*
X25400Y375920D02*
Y386080D01*
X20320Y330200D02*
X30480D01*
X25400Y325120D02*
Y335280D01*
X-17000Y0D02*
X17000D01*
X0Y-17000D02*
Y17000D01*
X643400Y0D02*
X677400D01*
X660400Y-17000D02*
Y17000D01*
X608480Y213280D02*
X611480D01*
X609980Y211780D02*
Y214780D01*
X638200Y208280D02*
X641200D01*
X639700Y206780D02*
Y209780D01*
X601040Y208340D02*
X604040D01*
X602540Y206840D02*
Y209840D01*
X608480Y237780D02*
X611480D01*
X609980Y236280D02*
Y239280D01*
X608480Y173780D02*
X611480D01*
X609980Y172280D02*
Y175280D01*
X601784Y181036D02*
X604784D01*
X603284Y179536D02*
Y182536D01*
X608480Y229780D02*
X611480D01*
X609980Y228280D02*
Y231280D01*
X681760Y132080D02*
X684760D01*
X683260Y130580D02*
Y133580D01*
X681419Y281195D02*
X684419D01*
X682919Y279695D02*
Y282695D01*
X646760Y330260D02*
X649760D01*
X648260Y328760D02*
Y331760D01*
X398526Y163830D02*
X401574D01*
X400050Y162306D02*
Y165354D01*
X296926Y367030D02*
X299974D01*
X298450Y365506D02*
Y368554D01*
X500126Y367030D02*
X503174D01*
X501650Y365506D02*
Y368554D01*
X500126Y163830D02*
X503174D01*
X501650Y162306D02*
Y165354D01*
X601726Y163830D02*
X604774D01*
X603250Y162306D02*
Y165354D01*
X601726Y367030D02*
X604774D01*
X603250Y365506D02*
Y368554D01*
X296926Y163830D02*
X299974D01*
X298450Y162306D02*
Y165354D01*
X398526Y367030D02*
X401574D01*
X400050Y365506D02*
Y368554D01*
X550926Y62230D02*
X553974D01*
X552450Y60706D02*
Y63754D01*
X550926Y265430D02*
X553974D01*
X552450Y263906D02*
Y266954D01*
X449326Y265430D02*
X452374D01*
X450850Y263906D02*
Y266954D01*
X195326Y367030D02*
X198374D01*
X196850Y365506D02*
Y368554D01*
X457525Y197075D02*
X460525D01*
X459025Y195575D02*
Y198575D01*
X575795Y196925D02*
X578795D01*
X577295Y195425D02*
Y198425D01*
X471015Y180035D02*
X474015D01*
X472515Y178535D02*
Y181535D01*
X562455Y180035D02*
X565455D01*
X563955Y178535D02*
Y181535D01*
X496340Y184150D02*
X499340D01*
X497840Y182650D02*
Y185650D01*
X351560Y248920D02*
X354560D01*
X353060Y247420D02*
Y250420D01*
X351560Y260350D02*
X354560D01*
X353060Y258850D02*
Y261850D01*
X351560Y271780D02*
X354560D01*
X353060Y270280D02*
Y273280D01*
X331240Y248920D02*
X334240D01*
X332740Y247420D02*
Y250420D01*
X331240Y260350D02*
X334240D01*
X332740Y258850D02*
Y261850D01*
X331240Y271780D02*
X334240D01*
X332740Y270280D02*
Y273280D01*
X146980Y363220D02*
X149980D01*
X148480Y361720D02*
Y364720D01*
X304570Y369570D02*
X307570D01*
X306070Y368070D02*
Y371070D01*
X346480Y238760D02*
X349480D01*
X347980Y237260D02*
Y240260D01*
X341400Y260350D02*
X344400D01*
X342900Y258850D02*
Y261850D01*
X341400Y248920D02*
X344400D01*
X342900Y247420D02*
Y250420D01*
X341400Y271780D02*
X344400D01*
X342900Y270280D02*
Y273280D01*
X323620Y5080D02*
X326620D01*
X325120Y3580D02*
Y6580D01*
X349020Y5080D02*
X352020D01*
X350520Y3580D02*
Y6580D01*
X374420Y5080D02*
X377420D01*
X375920Y3580D02*
Y6580D01*
X62000Y63500D02*
X65000D01*
X63500Y62000D02*
Y65000D01*
X46760Y63500D02*
X49760D01*
X48260Y62000D02*
Y65000D01*
X355370Y238760D02*
X358370D01*
X356870Y237260D02*
Y240260D01*
X318540Y279400D02*
X321540D01*
X320040Y277900D02*
Y280900D01*
X316700Y88900D02*
X319700D01*
X318200Y87400D02*
Y90400D01*
X308700Y88900D02*
X311700D01*
X310200Y87400D02*
Y90400D01*
X476700Y88900D02*
X479700D01*
X478200Y87400D02*
Y90400D01*
X468700Y88900D02*
X471700D01*
X470200Y87400D02*
Y90400D01*
X460700Y88900D02*
X463700D01*
X462200Y87400D02*
Y90400D01*
X196700Y12700D02*
X199700D01*
X198200Y11200D02*
Y14200D01*
X188700Y12700D02*
X191700D01*
X190200Y11200D02*
Y14200D01*
X180700Y12700D02*
X183700D01*
X182200Y11200D02*
Y14200D01*
X476700Y12700D02*
X479700D01*
X478200Y11200D02*
Y14200D01*
X468700Y12700D02*
X471700D01*
X470200Y11200D02*
Y14200D01*
X460700Y12700D02*
X463700D01*
X462200Y11200D02*
Y14200D01*
X316700Y12700D02*
X319700D01*
X318200Y11200D02*
Y14200D01*
X308700Y12700D02*
X311700D01*
X310200Y11200D02*
Y14200D01*
X196700Y88900D02*
X199700D01*
X198200Y87400D02*
Y90400D01*
X188700Y88900D02*
X191700D01*
X190200Y87400D02*
Y90400D01*
X180700Y88900D02*
X183700D01*
X182200Y87400D02*
Y90400D01*
X332700Y12700D02*
X335700D01*
X334200Y11200D02*
Y14200D01*
X340700Y12700D02*
X343700D01*
X342200Y11200D02*
Y14200D01*
X110260Y367030D02*
X113260D01*
X111760Y365530D02*
Y368530D01*
X88670Y192106D02*
X91670D01*
X90170Y190606D02*
Y193606D01*
X293140Y242570D02*
X296140D01*
X294640Y241070D02*
Y244070D01*
X293140Y233680D02*
X296140D01*
X294640Y232180D02*
Y235180D01*
X293140Y224790D02*
X296140D01*
X294640Y223290D02*
Y226290D01*
X356700Y12700D02*
X359700D01*
X358200Y11200D02*
Y14200D01*
X364700Y12700D02*
X367700D01*
X366200Y11200D02*
Y14200D01*
X313460Y204470D02*
X316460D01*
X314960Y202970D02*
Y205970D01*
X303300Y204470D02*
X306300D01*
X304800Y202970D02*
Y205970D01*
X396700Y44900D02*
X399700D01*
X398200Y43400D02*
Y46400D01*
X452700Y44900D02*
X455700D01*
X454200Y43400D02*
Y46400D01*
X436700Y44900D02*
X439700D01*
X438200Y43400D02*
Y46400D01*
X420700Y44900D02*
X423700D01*
X422200Y43400D02*
Y46400D01*
X396700Y56700D02*
X399700D01*
X398200Y55200D02*
Y58200D01*
X420700Y56700D02*
X423700D01*
X422200Y55200D02*
Y58200D01*
X436700Y56700D02*
X439700D01*
X438200Y55200D02*
Y58200D01*
X452700Y56700D02*
X455700D01*
X454200Y55200D02*
Y58200D01*
X172700Y44900D02*
X175700D01*
X174200Y43400D02*
Y46400D01*
X172700Y56700D02*
X175700D01*
X174200Y55200D02*
Y58200D01*
X204700Y56700D02*
X207700D01*
X206200Y55200D02*
Y58200D01*
X204700Y44900D02*
X207700D01*
X206200Y43400D02*
Y46400D01*
X228700Y44900D02*
X231700D01*
X230200Y43400D02*
Y46400D01*
X228700Y56700D02*
X231700D01*
X230200Y55200D02*
Y58200D01*
X252700Y56700D02*
X255700D01*
X254200Y55200D02*
Y58200D01*
X252700Y44900D02*
X255700D01*
X254200Y43400D02*
Y46400D01*
X276700Y44900D02*
X279700D01*
X278200Y43400D02*
Y46400D01*
X276700Y56700D02*
X279700D01*
X278200Y55200D02*
Y58200D01*
X300700Y56700D02*
X303700D01*
X302200Y55200D02*
Y58200D01*
X300700Y44900D02*
X303700D01*
X302200Y43400D02*
Y46400D01*
X324700Y44900D02*
X327700D01*
X326200Y43400D02*
Y46400D01*
X324700Y56700D02*
X327700D01*
X326200Y55200D02*
Y58200D01*
X348700Y56700D02*
X351700D01*
X350200Y55200D02*
Y58200D01*
X372700Y56700D02*
X375700D01*
X374200Y55200D02*
Y58200D01*
X484700Y56700D02*
X487700D01*
X486200Y55200D02*
Y58200D01*
X484700Y44900D02*
X487700D01*
X486200Y43400D02*
Y46400D01*
X348700Y44900D02*
X351700D01*
X350200Y43400D02*
Y46400D01*
X372700Y44900D02*
X375700D01*
X374200Y43400D02*
Y46400D01*
X196480Y153820D02*
X199480D01*
X197980Y152320D02*
Y155320D01*
X145820Y130660D02*
X148820D01*
X147320Y129160D02*
Y132160D01*
X122960Y367030D02*
X125960D01*
X124460Y365530D02*
Y368530D01*
X284075Y401245D02*
X287075D01*
X285575Y399745D02*
Y402745D01*
X171225Y238765D02*
X174225D01*
X172725Y237265D02*
Y240265D01*
X145820Y157480D02*
X148820D01*
X147320Y155980D02*
Y158980D01*
X232895Y134545D02*
X235895D01*
X234395Y133045D02*
Y136045D01*
X104465Y134695D02*
X107465D01*
X105965Y133195D02*
Y136195D01*
X145820Y147320D02*
X148820D01*
X147320Y145820D02*
Y148820D01*
X196115Y443745D02*
X199115D01*
X197615Y442245D02*
Y445245D01*
X133625Y443895D02*
X136625D01*
X135125Y442395D02*
Y445395D01*
X120755Y444425D02*
X123755D01*
X122255Y442925D02*
Y445925D01*
X58265Y444575D02*
X61265D01*
X59765Y443075D02*
Y446075D01*
X46475Y268505D02*
X49475D01*
X47975Y267005D02*
Y270005D01*
X46475Y222785D02*
X49475D01*
X47975Y221285D02*
Y224285D01*
X328700Y215900D02*
X331700D01*
X330200Y214400D02*
Y217400D01*
X387120Y207010D02*
X390120D01*
X388620Y205510D02*
Y208510D01*
X337590Y207010D02*
X340590D01*
X339090Y205510D02*
Y208510D01*
X364260Y238760D02*
X367260D01*
X365760Y237260D02*
Y240260D01*
X272820Y175260D02*
X275820D01*
X274320Y173760D02*
Y176760D01*
X417600Y175260D02*
X420600D01*
X419100Y173760D02*
Y176760D01*
X352830Y161290D02*
X355830D01*
X354330Y159790D02*
Y162790D01*
X337590Y161290D02*
X340590D01*
X339090Y159790D02*
Y162790D01*
X244880Y286350D02*
X247880D01*
X246380Y284850D02*
Y287850D01*
X244880Y250350D02*
X247880D01*
X246380Y248850D02*
Y251850D01*
X335050Y369570D02*
X338050D01*
X336550Y368070D02*
Y371070D01*
X319810Y369570D02*
X322810D01*
X321310Y368070D02*
Y371070D01*
X396010Y359410D02*
X399010D01*
X397510Y357910D02*
Y360910D01*
X380770Y359410D02*
X383770D01*
X382270Y357910D02*
Y360910D01*
X365530Y359410D02*
X368530D01*
X367030Y357910D02*
Y360910D01*
X437920Y286350D02*
X440920D01*
X439420Y284850D02*
Y287850D01*
X437920Y250350D02*
X440920D01*
X439420Y248850D02*
Y251850D01*
M02*
