M48
;Layer_Color=9474304
;FILE_FORMAT=4:4
METRIC,LZ
;TYPE=PLATED
T01F00S00C0.3000
T02F00S00C0.3048
T03F00S00C0.8000
T04F00S00C1.0160
T05F00S00C3.4000
%
T01
X00254Y-000635
Y-000508
Y-0001905
Y-0000635
X002921
Y-00022098
Y-000508
Y00022352
X0023622Y000508
X00219928Y00050897
X00199928
X0018415Y000508
X0014605
X00130077Y00050897
X00110077
X0009398Y000508
X00132Y000127
X0014
X00148
X0020066Y-0000889
X0020828Y-0001651
X0020066Y-0005334
X0020828Y-0006096
X00148Y-000635
X0014
X00132
X0007188Y-000889
X0004318Y-000762
X0002032
X00012Y-00066
X00004
X-00012Y-000635
X-0002
X-0000838Y-000889
X00004Y-00025
X00012
X-00012Y000127
X-0002
X-0005334Y0002794
X-000635
Y0004572
X-0005334
X-0008128Y000635
Y0007366
X-0011335Y0007239
Y000635
Y0005334
Y0004445
X-0015114Y00046
Y0002822
X-00148Y000127
X-0014
X-00132
Y-000635
X-0014
X-00148
X-002032Y0004445
Y0005334
Y000635
Y0007239
X-0024892Y00074295
Y00064135
T02
X0024765Y-000381
X0032385
X0036195Y000381
X0028575
X0032385Y001143
X0024765
X0017145
X0009525
X0001905
X-0005715
X-0013335
X-0001905Y000381
X0005715
X0020955
X0017145Y-000381
X-0020955
X-0028575
X-0036195
X-0032385Y000381
X-0024765
X-0020955Y001143
X-0028575
X-0036195
T03
X00220025Y0009525
X00200025
X00130175
X00110175
X-00110175
X-00130175
X-00200025
X-00220025
T04
X0023495Y-0009525
X0026035
Y000254
X0023495
T05
X003302Y-000762
X003302Y0014605
X-003302
X-003302Y-000762
M30
