G04*
G04 #@! TF.GenerationSoftware,Altium Limited,Altium Designer,24.2.2 (26)*
G04*
G04 Layer_Color=8388736*
%FSLAX44Y44*%
%MOMM*%
G71*
G04*
G04 #@! TF.SameCoordinates,F7EBB540-B4CE-4F1F-BB4A-EDFB59B12267*
G04*
G04*
G04 #@! TF.FilePolarity,Negative*
G04*
G01*
G75*
%ADD43R,1.3000X0.7500*%
%ADD44R,1.3000X0.4500*%
%ADD45R,1.1500X1.2000*%
%ADD46R,1.2000X1.1500*%
%ADD47R,1.8500X1.6500*%
%ADD48R,0.7500X1.1500*%
%ADD49R,1.2676X0.5056*%
%ADD50R,1.1500X1.1000*%
%ADD51R,0.9500X0.9500*%
%ADD52R,2.0500X1.5500*%
%ADD53R,1.5500X1.3500*%
%ADD54R,1.1900X1.1500*%
%ADD55R,1.6500X0.9500*%
%ADD56R,1.5500X1.4500*%
%ADD57R,5.6880X2.2082*%
%ADD58R,1.1000X1.1500*%
G04:AMPARAMS|DCode=59|XSize=1.3mm|YSize=0.65mm|CornerRadius=0.1375mm|HoleSize=0mm|Usage=FLASHONLY|Rotation=270.000|XOffset=0mm|YOffset=0mm|HoleType=Round|Shape=RoundedRectangle|*
%AMROUNDEDRECTD59*
21,1,1.3000,0.3750,0,0,270.0*
21,1,1.0250,0.6500,0,0,270.0*
1,1,0.2750,-0.1875,-0.5125*
1,1,0.2750,-0.1875,0.5125*
1,1,0.2750,0.1875,0.5125*
1,1,0.2750,0.1875,-0.5125*
%
%ADD59ROUNDEDRECTD59*%
G04:AMPARAMS|DCode=60|XSize=1.52mm|YSize=0.63mm|CornerRadius=0.099mm|HoleSize=0mm|Usage=FLASHONLY|Rotation=0.000|XOffset=0mm|YOffset=0mm|HoleType=Round|Shape=RoundedRectangle|*
%AMROUNDEDRECTD60*
21,1,1.5200,0.4320,0,0,0.0*
21,1,1.3220,0.6300,0,0,0.0*
1,1,0.1980,0.6610,-0.2160*
1,1,0.1980,-0.6610,-0.2160*
1,1,0.1980,-0.6610,0.2160*
1,1,0.1980,0.6610,0.2160*
%
%ADD60ROUNDEDRECTD60*%
%ADD61R,1.3500X2.6500*%
%ADD62R,0.9500X0.9500*%
%ADD63R,1.1500X1.7500*%
G04:AMPARAMS|DCode=64|XSize=0.6mm|YSize=0.45mm|CornerRadius=0.0825mm|HoleSize=0mm|Usage=FLASHONLY|Rotation=0.000|XOffset=0mm|YOffset=0mm|HoleType=Round|Shape=RoundedRectangle|*
%AMROUNDEDRECTD64*
21,1,0.6000,0.2850,0,0,0.0*
21,1,0.4350,0.4500,0,0,0.0*
1,1,0.1650,0.2175,-0.1425*
1,1,0.1650,-0.2175,-0.1425*
1,1,0.1650,-0.2175,0.1425*
1,1,0.1650,0.2175,0.1425*
%
%ADD64ROUNDEDRECTD64*%
%ADD65C,1.6740*%
%ADD66R,1.2000X0.8000*%
%ADD67R,3.2000X3.2000*%
G04:AMPARAMS|DCode=68|XSize=0.94mm|YSize=0.3mm|CornerRadius=0.075mm|HoleSize=0mm|Usage=FLASHONLY|Rotation=0.000|XOffset=0mm|YOffset=0mm|HoleType=Round|Shape=RoundedRectangle|*
%AMROUNDEDRECTD68*
21,1,0.9400,0.1500,0,0,0.0*
21,1,0.7900,0.3000,0,0,0.0*
1,1,0.1500,0.3950,-0.0750*
1,1,0.1500,-0.3950,-0.0750*
1,1,0.1500,-0.3950,0.0750*
1,1,0.1500,0.3950,0.0750*
%
%ADD68ROUNDEDRECTD68*%
G04:AMPARAMS|DCode=69|XSize=0.3mm|YSize=0.94mm|CornerRadius=0.075mm|HoleSize=0mm|Usage=FLASHONLY|Rotation=0.000|XOffset=0mm|YOffset=0mm|HoleType=Round|Shape=RoundedRectangle|*
%AMROUNDEDRECTD69*
21,1,0.3000,0.7900,0,0,0.0*
21,1,0.1500,0.9400,0,0,0.0*
1,1,0.1500,0.0750,-0.3950*
1,1,0.1500,-0.0750,-0.3950*
1,1,0.1500,-0.0750,0.3950*
1,1,0.1500,0.0750,0.3950*
%
%ADD69ROUNDEDRECTD69*%
G04:AMPARAMS|DCode=70|XSize=1.76mm|YSize=0.73mm|CornerRadius=0.1475mm|HoleSize=0mm|Usage=FLASHONLY|Rotation=0.000|XOffset=0mm|YOffset=0mm|HoleType=Round|Shape=RoundedRectangle|*
%AMROUNDEDRECTD70*
21,1,1.7600,0.4350,0,0,0.0*
21,1,1.4650,0.7300,0,0,0.0*
1,1,0.2950,0.7325,-0.2175*
1,1,0.2950,-0.7325,-0.2175*
1,1,0.2950,-0.7325,0.2175*
1,1,0.2950,0.7325,0.2175*
%
%ADD70ROUNDEDRECTD70*%
%ADD71R,1.1500X0.7500*%
%ADD72R,0.6500X2.1500*%
G04:AMPARAMS|DCode=73|XSize=1.95mm|YSize=1.15mm|CornerRadius=0.325mm|HoleSize=0mm|Usage=FLASHONLY|Rotation=180.000|XOffset=0mm|YOffset=0mm|HoleType=Round|Shape=RoundedRectangle|*
%AMROUNDEDRECTD73*
21,1,1.9500,0.5000,0,0,180.0*
21,1,1.3000,1.1500,0,0,180.0*
1,1,0.6500,-0.6500,0.2500*
1,1,0.6500,0.6500,0.2500*
1,1,0.6500,0.6500,-0.2500*
1,1,0.6500,-0.6500,-0.2500*
%
%ADD73ROUNDEDRECTD73*%
%ADD74O,2.2500X1.1500*%
%ADD75C,0.8000*%
%ADD76O,2.0550X1.5470*%
%ADD77R,2.0550X1.5470*%
%ADD78C,1.1500*%
%ADD79C,5.2300*%
%ADD80C,0.6072*%
G36*
X464000Y215160D02*
X459500D01*
Y220660D01*
X464000D01*
Y215160D01*
D02*
G37*
G36*
X459000D02*
X454500D01*
Y220660D01*
X459000D01*
Y215160D01*
D02*
G37*
G36*
X454000D02*
X449500D01*
Y220660D01*
X454000D01*
Y215160D01*
D02*
G37*
G36*
X471750Y213410D02*
X466250D01*
Y217910D01*
X471750D01*
Y213410D01*
D02*
G37*
G36*
X447250D02*
X441750D01*
Y217910D01*
X447250D01*
Y213410D01*
D02*
G37*
G36*
X471750Y208410D02*
X466250D01*
Y212910D01*
X471750D01*
Y208410D01*
D02*
G37*
G36*
X447250D02*
X441750D01*
Y212910D01*
X447250D01*
Y208410D01*
D02*
G37*
G36*
X471750Y203410D02*
X466250D01*
Y207910D01*
X471750D01*
Y203410D01*
D02*
G37*
G36*
X447250D02*
X441750D01*
Y207910D01*
X447250D01*
Y203410D01*
D02*
G37*
G36*
X471750Y198410D02*
X466250D01*
Y202910D01*
X471750D01*
Y198410D01*
D02*
G37*
G36*
X447250D02*
X441750D01*
Y202910D01*
X447250D01*
Y198410D01*
D02*
G37*
G36*
X471750Y193410D02*
X466250D01*
Y197910D01*
X471750D01*
Y193410D01*
D02*
G37*
G36*
X447250D02*
X441750D01*
Y197910D01*
X447250D01*
Y193410D01*
D02*
G37*
G36*
X464000Y190660D02*
X459500D01*
Y196160D01*
X464000D01*
Y190660D01*
D02*
G37*
G36*
X459000D02*
X454500D01*
Y196160D01*
X459000D01*
Y190660D01*
D02*
G37*
G36*
X454000D02*
X449500D01*
Y196160D01*
X454000D01*
Y190660D01*
D02*
G37*
D43*
X624840Y295700D02*
D03*
Y359700D02*
D03*
Y303700D02*
D03*
Y351700D02*
D03*
D44*
Y330200D02*
D03*
Y325200D02*
D03*
Y335200D02*
D03*
Y340200D02*
D03*
Y345200D02*
D03*
Y320200D02*
D03*
Y315200D02*
D03*
Y310200D02*
D03*
D45*
X497840Y324040D02*
D03*
Y308040D02*
D03*
X558800Y324040D02*
D03*
Y308040D02*
D03*
X40640Y423800D02*
D03*
X40640Y439800D02*
D03*
X81280Y46100D02*
D03*
Y30100D02*
D03*
X-20240Y205360D02*
D03*
Y221360D02*
D03*
Y251080D02*
D03*
Y267080D02*
D03*
X96520Y30100D02*
D03*
Y46100D02*
D03*
D46*
X378840Y375920D02*
D03*
X362840D02*
D03*
X378840Y391160D02*
D03*
X362840D02*
D03*
X169038Y312420D02*
D03*
X185038D02*
D03*
X149478Y327660D02*
D03*
X133478D02*
D03*
X149478Y312420D02*
D03*
X133478Y312420D02*
D03*
X670310Y266620D02*
D03*
X686310D02*
D03*
X518540Y284480D02*
D03*
X502540D02*
D03*
X518540Y269240D02*
D03*
X502540D02*
D03*
X660020Y76200D02*
D03*
X676020D02*
D03*
X670560Y388540D02*
D03*
X686560D02*
D03*
X201550Y420370D02*
D03*
X217550D02*
D03*
Y435610D02*
D03*
X201550D02*
D03*
X388240Y190500D02*
D03*
X404240D02*
D03*
D47*
X159258Y247620D02*
D03*
Y148620D02*
D03*
D48*
X177038Y269940D02*
D03*
X167538Y293940D02*
D03*
X186538D02*
D03*
D49*
X640080Y91440D02*
D03*
Y78232D02*
D03*
X620776D02*
D03*
Y84836D02*
D03*
Y91440D02*
D03*
D50*
X660020Y93980D02*
D03*
X676020D02*
D03*
X576960Y351750D02*
D03*
X560960D02*
D03*
X289180Y175260D02*
D03*
X305180D02*
D03*
X410720Y215660D02*
D03*
X426720D02*
D03*
X424560Y286350D02*
D03*
X408560D02*
D03*
X37720Y-17780D02*
D03*
X53720D02*
D03*
X140080Y-15240D02*
D03*
X124080D02*
D03*
X253490Y400050D02*
D03*
X237490D02*
D03*
X479680Y351750D02*
D03*
X495680D02*
D03*
X424560Y250350D02*
D03*
X408560D02*
D03*
X261240D02*
D03*
X277240D02*
D03*
X261240Y286350D02*
D03*
X277240D02*
D03*
X404240Y175260D02*
D03*
X388240D02*
D03*
D51*
X482600Y324290D02*
D03*
Y307790D02*
D03*
X574040Y324290D02*
D03*
Y307790D02*
D03*
X-5000Y205110D02*
D03*
Y221610D02*
D03*
X-5000Y250830D02*
D03*
Y267330D02*
D03*
D52*
X680720Y246380D02*
D03*
X670720Y114880D02*
D03*
D53*
X539220Y130280D02*
D03*
D54*
X535520Y144780D02*
D03*
D55*
X647820Y177680D02*
D03*
Y155680D02*
D03*
Y133680D02*
D03*
Y122680D02*
D03*
Y199680D02*
D03*
X643820Y188680D02*
D03*
X649820Y166680D02*
D03*
Y144680D02*
D03*
D56*
X539220Y187780D02*
D03*
D57*
X299974Y138430D02*
D03*
X394970D02*
D03*
D58*
X339090Y176150D02*
D03*
Y192150D02*
D03*
X354330Y176150D02*
D03*
Y192150D02*
D03*
X461750Y249060D02*
D03*
Y233060D02*
D03*
X397510Y344550D02*
D03*
Y328550D02*
D03*
X382270Y344550D02*
D03*
Y328550D02*
D03*
X367030Y344550D02*
D03*
Y328550D02*
D03*
X306070Y354710D02*
D03*
Y338710D02*
D03*
X336550Y354710D02*
D03*
Y338710D02*
D03*
X321310Y354710D02*
D03*
Y338710D02*
D03*
X88830Y62410D02*
D03*
Y78410D02*
D03*
D59*
X147978Y291740D02*
D03*
X134978D02*
D03*
X141478Y272140D02*
D03*
D60*
X100630Y4260D02*
D03*
Y-2240D02*
D03*
Y-8740D02*
D03*
Y-15240D02*
D03*
X77630D02*
D03*
Y-8740D02*
D03*
Y-2240D02*
D03*
Y4260D02*
D03*
D61*
X601580Y55440D02*
D03*
X576580D02*
D03*
X551580D02*
D03*
X601580Y440D02*
D03*
X576580D02*
D03*
X551580D02*
D03*
D62*
X659770Y60960D02*
D03*
X676270D02*
D03*
D63*
X528320Y345250D02*
D03*
D64*
X538070Y351750D02*
D03*
Y345250D02*
D03*
Y338750D02*
D03*
X518570D02*
D03*
Y345250D02*
D03*
Y351750D02*
D03*
D65*
X528320Y370650D02*
D03*
X528320Y319850D02*
D03*
X60960Y431800D02*
D03*
X241300Y711200D02*
D03*
X266700D02*
D03*
X292100D02*
D03*
X317500D02*
D03*
X342900D02*
D03*
X368300D02*
D03*
X393700D02*
D03*
X419100D02*
D03*
X444500D02*
D03*
X469900D02*
D03*
X495300D02*
D03*
X520700D02*
D03*
Y508000D02*
D03*
X495300D02*
D03*
X469900D02*
D03*
X444500D02*
D03*
X419100D02*
D03*
X393700D02*
D03*
X368300D02*
D03*
X342900D02*
D03*
X317500D02*
D03*
X292100D02*
D03*
X266700D02*
D03*
X241300D02*
D03*
X215900D02*
D03*
X190500D02*
D03*
X165100D02*
D03*
X139700D02*
D03*
D66*
X19460Y472440D02*
D03*
X-22040Y472440D02*
D03*
X19460Y493940D02*
D03*
X-22040D02*
D03*
X93980Y472440D02*
D03*
X52480D02*
D03*
X93980Y493940D02*
D03*
X52480D02*
D03*
D67*
X342900Y260350D02*
D03*
D68*
X377250Y286350D02*
D03*
Y282350D02*
D03*
Y278350D02*
D03*
Y274350D02*
D03*
Y270350D02*
D03*
Y266350D02*
D03*
Y262350D02*
D03*
Y258350D02*
D03*
Y254350D02*
D03*
Y250350D02*
D03*
Y246350D02*
D03*
Y242350D02*
D03*
Y238350D02*
D03*
Y234350D02*
D03*
X308550D02*
D03*
Y238350D02*
D03*
Y242350D02*
D03*
Y246350D02*
D03*
Y250350D02*
D03*
Y254350D02*
D03*
Y258350D02*
D03*
Y262350D02*
D03*
Y266350D02*
D03*
Y270350D02*
D03*
Y274350D02*
D03*
Y278350D02*
D03*
Y282350D02*
D03*
Y286350D02*
D03*
D69*
X316900Y294700D02*
D03*
X320900D02*
D03*
X324900D02*
D03*
X328900D02*
D03*
X332900D02*
D03*
X336900D02*
D03*
X340900D02*
D03*
X344900D02*
D03*
X348900D02*
D03*
X352900D02*
D03*
X356900D02*
D03*
X360900D02*
D03*
X364900D02*
D03*
X368900D02*
D03*
Y226000D02*
D03*
X364900D02*
D03*
X360900D02*
D03*
X356900D02*
D03*
X352900D02*
D03*
X348900D02*
D03*
X344900D02*
D03*
X340900D02*
D03*
X336900D02*
D03*
X332900D02*
D03*
X328900D02*
D03*
X324900D02*
D03*
X320900D02*
D03*
X316900D02*
D03*
D70*
X213850Y400050D02*
D03*
X213850Y387350D02*
D03*
Y374650D02*
D03*
X213850Y361950D02*
D03*
X141750D02*
D03*
X141750Y374650D02*
D03*
Y387350D02*
D03*
X141750Y400050D02*
D03*
D71*
X13480Y213360D02*
D03*
X37480Y222860D02*
D03*
Y203860D02*
D03*
X13480Y259080D02*
D03*
X37480Y268580D02*
D03*
Y249580D02*
D03*
D72*
X174200Y72800D02*
D03*
Y28800D02*
D03*
X182200Y72800D02*
D03*
Y28800D02*
D03*
X190200Y72800D02*
D03*
Y28800D02*
D03*
X198200Y72800D02*
D03*
Y28800D02*
D03*
X206200Y72800D02*
D03*
Y28800D02*
D03*
X214200Y72800D02*
D03*
Y28800D02*
D03*
X222200Y72800D02*
D03*
Y28800D02*
D03*
X230200Y72800D02*
D03*
Y28800D02*
D03*
X238200Y72800D02*
D03*
Y28800D02*
D03*
X246200Y72800D02*
D03*
Y28800D02*
D03*
X254200Y72800D02*
D03*
Y28800D02*
D03*
X262200Y72800D02*
D03*
Y28800D02*
D03*
X270200Y72800D02*
D03*
Y28800D02*
D03*
X278200Y72800D02*
D03*
Y28800D02*
D03*
X286200Y72800D02*
D03*
Y28800D02*
D03*
X294200Y72800D02*
D03*
Y28800D02*
D03*
X302200Y72800D02*
D03*
Y28800D02*
D03*
X310200Y72800D02*
D03*
Y28800D02*
D03*
X318200Y72800D02*
D03*
Y28800D02*
D03*
X326200Y72800D02*
D03*
Y28800D02*
D03*
X334200Y72800D02*
D03*
Y28800D02*
D03*
X342200Y72800D02*
D03*
Y28800D02*
D03*
X350200Y72800D02*
D03*
Y28800D02*
D03*
X358200Y72800D02*
D03*
Y28800D02*
D03*
X366200Y72800D02*
D03*
Y28800D02*
D03*
X374200Y72800D02*
D03*
Y28800D02*
D03*
X382200Y72800D02*
D03*
Y28800D02*
D03*
X390200Y72800D02*
D03*
Y28800D02*
D03*
X398200Y72800D02*
D03*
Y28800D02*
D03*
X406200Y72800D02*
D03*
Y28800D02*
D03*
X414200Y72800D02*
D03*
Y28800D02*
D03*
X422200Y72800D02*
D03*
Y28800D02*
D03*
X430200Y72800D02*
D03*
Y28800D02*
D03*
X438200Y72800D02*
D03*
Y28800D02*
D03*
X446200Y72800D02*
D03*
Y28800D02*
D03*
X454200Y72800D02*
D03*
Y28800D02*
D03*
X462200Y72800D02*
D03*
Y28800D02*
D03*
X470200Y72800D02*
D03*
Y28800D02*
D03*
X478200Y72800D02*
D03*
Y28800D02*
D03*
X486200Y72800D02*
D03*
Y28800D02*
D03*
D73*
X672390Y284500D02*
D03*
Y370900D02*
D03*
D74*
X630590Y284500D02*
D03*
Y370900D02*
D03*
D75*
X635590Y356600D02*
D03*
Y298800D02*
D03*
D76*
X50800Y322900D02*
D03*
Y342900D02*
D03*
Y551180D02*
D03*
Y571180D02*
D03*
Y531180D02*
D03*
D77*
Y362900D02*
D03*
Y591180D02*
D03*
D78*
X25400Y73660D02*
D03*
Y86360D02*
D03*
Y99060D02*
D03*
Y111760D02*
D03*
Y124460D02*
D03*
X38100Y73660D02*
D03*
Y86360D02*
D03*
Y99060D02*
D03*
Y111760D02*
D03*
Y124460D02*
D03*
D79*
X660400Y647700D02*
D03*
X0D02*
D03*
Y431800D02*
D03*
Y0D02*
D03*
X660400D02*
D03*
Y431800D02*
D03*
D80*
X685800Y671830D02*
D03*
X641350Y582930D02*
D03*
X685800Y494030D02*
D03*
X641350Y405130D02*
D03*
Y227330D02*
D03*
Y49530D02*
D03*
X596900Y671830D02*
D03*
X552450Y582930D02*
D03*
X596900Y494030D02*
D03*
X463550Y582930D02*
D03*
X508000Y494030D02*
D03*
Y316230D02*
D03*
Y138430D02*
D03*
X419100Y671830D02*
D03*
X374650Y582930D02*
D03*
X419100Y494030D02*
D03*
X330200Y671830D02*
D03*
X285750Y582930D02*
D03*
X330200Y494030D02*
D03*
X241300Y671830D02*
D03*
X196850Y582930D02*
D03*
X241300Y494030D02*
D03*
X196850Y227330D02*
D03*
X152400Y671830D02*
D03*
X107950Y582930D02*
D03*
X152400Y494030D02*
D03*
X107950Y49530D02*
D03*
X63500Y671830D02*
D03*
X19050Y582930D02*
D03*
Y405130D02*
D03*
X63500Y138430D02*
D03*
X19050Y49530D02*
D03*
X552450Y671830D02*
D03*
X603250Y570230D02*
D03*
X552450Y468630D02*
D03*
Y265430D02*
D03*
X501650Y570230D02*
D03*
X450850Y468630D02*
D03*
X501650Y367030D02*
D03*
Y163830D02*
D03*
X349250Y671830D02*
D03*
X400050Y570230D02*
D03*
X349250Y468630D02*
D03*
X400050Y367030D02*
D03*
Y163830D02*
D03*
X247650Y671830D02*
D03*
X298450Y570230D02*
D03*
X247650Y468630D02*
D03*
X298450Y367030D02*
D03*
Y163830D02*
D03*
X146050Y671830D02*
D03*
X196850Y570230D02*
D03*
X146050Y468630D02*
D03*
X196850Y367030D02*
D03*
X44450Y671830D02*
D03*
X95250Y570230D02*
D03*
Y367030D02*
D03*
Y163830D02*
D03*
M02*
