G04*
G04 #@! TF.GenerationSoftware,Altium Limited,Altium Designer,24.2.2 (26)*
G04*
G04 Layer_Color=255*
%FSLAX44Y44*%
%MOMM*%
G71*
G04*
G04 #@! TF.SameCoordinates,F7EBB540-B4CE-4F1F-BB4A-EDFB59B12267*
G04*
G04*
G04 #@! TF.FilePolarity,Positive*
G04*
G01*
G75*
%ADD15R,1.1500X0.6000*%
%ADD16R,1.1500X0.3000*%
%ADD17R,1.0000X1.0500*%
%ADD18R,1.0500X1.0000*%
%ADD19R,1.7000X1.5000*%
%ADD20R,0.6000X1.0000*%
%ADD21R,1.1176X0.3556*%
%ADD22R,1.0000X0.9500*%
%ADD23R,0.8000X0.8000*%
%ADD24R,1.9000X1.4000*%
%ADD25R,1.4000X1.2000*%
%ADD26R,1.0400X1.0000*%
%ADD27R,1.5000X0.8000*%
%ADD28R,1.4000X1.3000*%
%ADD30R,0.9500X1.0000*%
G04:AMPARAMS|DCode=31|XSize=1.15mm|YSize=0.5mm|CornerRadius=0.0625mm|HoleSize=0mm|Usage=FLASHONLY|Rotation=270.000|XOffset=0mm|YOffset=0mm|HoleType=Round|Shape=RoundedRectangle|*
%AMROUNDEDRECTD31*
21,1,1.1500,0.3750,0,0,270.0*
21,1,1.0250,0.5000,0,0,270.0*
1,1,0.1250,-0.1875,-0.5125*
1,1,0.1250,-0.1875,0.5125*
1,1,0.1250,0.1875,0.5125*
1,1,0.1250,0.1875,-0.5125*
%
%ADD31ROUNDEDRECTD31*%
G04:AMPARAMS|DCode=32|XSize=1.37mm|YSize=0.48mm|CornerRadius=0.024mm|HoleSize=0mm|Usage=FLASHONLY|Rotation=0.000|XOffset=0mm|YOffset=0mm|HoleType=Round|Shape=RoundedRectangle|*
%AMROUNDEDRECTD32*
21,1,1.3700,0.4320,0,0,0.0*
21,1,1.3220,0.4800,0,0,0.0*
1,1,0.0480,0.6610,-0.2160*
1,1,0.0480,-0.6610,-0.2160*
1,1,0.0480,-0.6610,0.2160*
1,1,0.0480,0.6610,0.2160*
%
%ADD32ROUNDEDRECTD32*%
%ADD33R,1.2000X2.5000*%
%ADD34R,0.8000X0.8000*%
G04:AMPARAMS|DCode=35|XSize=0.45mm|YSize=0.3mm|CornerRadius=0.0075mm|HoleSize=0mm|Usage=FLASHONLY|Rotation=0.000|XOffset=0mm|YOffset=0mm|HoleType=Round|Shape=RoundedRectangle|*
%AMROUNDEDRECTD35*
21,1,0.4500,0.2850,0,0,0.0*
21,1,0.4350,0.3000,0,0,0.0*
1,1,0.0150,0.2175,-0.1425*
1,1,0.0150,-0.2175,-0.1425*
1,1,0.0150,-0.2175,0.1425*
1,1,0.0150,0.2175,0.1425*
%
%ADD35ROUNDEDRECTD35*%
%ADD36R,1.0500X0.6500*%
G04:AMPARAMS|DCode=38|XSize=0.84mm|YSize=0.2mm|CornerRadius=0.025mm|HoleSize=0mm|Usage=FLASHONLY|Rotation=0.000|XOffset=0mm|YOffset=0mm|HoleType=Round|Shape=RoundedRectangle|*
%AMROUNDEDRECTD38*
21,1,0.8400,0.1500,0,0,0.0*
21,1,0.7900,0.2000,0,0,0.0*
1,1,0.0500,0.3950,-0.0750*
1,1,0.0500,-0.3950,-0.0750*
1,1,0.0500,-0.3950,0.0750*
1,1,0.0500,0.3950,0.0750*
%
%ADD38ROUNDEDRECTD38*%
G04:AMPARAMS|DCode=39|XSize=0.2mm|YSize=0.84mm|CornerRadius=0.025mm|HoleSize=0mm|Usage=FLASHONLY|Rotation=0.000|XOffset=0mm|YOffset=0mm|HoleType=Round|Shape=RoundedRectangle|*
%AMROUNDEDRECTD39*
21,1,0.2000,0.7900,0,0,0.0*
21,1,0.1500,0.8400,0,0,0.0*
1,1,0.0500,0.0750,-0.3950*
1,1,0.0500,-0.0750,-0.3950*
1,1,0.0500,-0.0750,0.3950*
1,1,0.0500,0.0750,0.3950*
%
%ADD39ROUNDEDRECTD39*%
G04:AMPARAMS|DCode=40|XSize=1.61mm|YSize=0.58mm|CornerRadius=0.0725mm|HoleSize=0mm|Usage=FLASHONLY|Rotation=0.000|XOffset=0mm|YOffset=0mm|HoleType=Round|Shape=RoundedRectangle|*
%AMROUNDEDRECTD40*
21,1,1.6100,0.4350,0,0,0.0*
21,1,1.4650,0.5800,0,0,0.0*
1,1,0.1450,0.7325,-0.2175*
1,1,0.1450,-0.7325,-0.2175*
1,1,0.1450,-0.7325,0.2175*
1,1,0.1450,0.7325,0.2175*
%
%ADD40ROUNDEDRECTD40*%
%ADD41R,1.0000X0.6000*%
%ADD42R,0.5000X2.0000*%
%ADD81R,0.4500X0.3500*%
%ADD82R,0.3500X0.4500*%
%ADD83R,5.5880X2.1082*%
%ADD84R,1.0000X1.6000*%
%ADD85C,1.5240*%
%ADD86R,3.1000X3.1000*%
G04:AMPARAMS|DCode=88|XSize=1.8mm|YSize=1mm|CornerRadius=0.25mm|HoleSize=0mm|Usage=FLASHONLY|Rotation=180.000|XOffset=0mm|YOffset=0mm|HoleType=Round|Shape=RoundedRectangle|*
%AMROUNDEDRECTD88*
21,1,1.8000,0.5000,0,0,180.0*
21,1,1.3000,1.0000,0,0,180.0*
1,1,0.5000,-0.6500,0.2500*
1,1,0.5000,0.6500,0.2500*
1,1,0.5000,0.6500,-0.2500*
1,1,0.5000,-0.6500,-0.2500*
%
%ADD88ROUNDEDRECTD88*%
%ADD89O,2.1000X1.0000*%
%ADD90C,0.6500*%
%ADD91O,1.9050X1.3970*%
%ADD92R,1.9050X1.3970*%
%ADD93C,0.4524*%
%ADD94C,1.0000*%
%ADD95C,5.0800*%
D15*
X624840Y295700D02*
D03*
Y359700D02*
D03*
Y303700D02*
D03*
Y351700D02*
D03*
D16*
Y330200D02*
D03*
Y325200D02*
D03*
Y335200D02*
D03*
Y340200D02*
D03*
Y345200D02*
D03*
Y320200D02*
D03*
Y315200D02*
D03*
Y310200D02*
D03*
D17*
X497840Y324040D02*
D03*
Y308040D02*
D03*
X558800Y324040D02*
D03*
Y308040D02*
D03*
X40640Y423800D02*
D03*
X40640Y439800D02*
D03*
X81280Y46100D02*
D03*
Y30100D02*
D03*
X-20240Y205360D02*
D03*
Y221360D02*
D03*
Y251080D02*
D03*
Y267080D02*
D03*
X96520Y30100D02*
D03*
Y46100D02*
D03*
D18*
X378840Y375920D02*
D03*
X362840D02*
D03*
X378840Y391160D02*
D03*
X362840D02*
D03*
X169038Y312420D02*
D03*
X185038D02*
D03*
X149478Y327660D02*
D03*
X133478D02*
D03*
X149478Y312420D02*
D03*
X133478Y312420D02*
D03*
X670310Y266620D02*
D03*
X686310D02*
D03*
X518540Y284480D02*
D03*
X502540D02*
D03*
X518540Y269240D02*
D03*
X502540D02*
D03*
X660020Y76200D02*
D03*
X676020D02*
D03*
X670560Y388540D02*
D03*
X686560D02*
D03*
X201550Y420370D02*
D03*
X217550D02*
D03*
Y435610D02*
D03*
X201550D02*
D03*
X388240Y190500D02*
D03*
X404240D02*
D03*
D19*
X159258Y247620D02*
D03*
Y148620D02*
D03*
D20*
X177038Y269940D02*
D03*
X167538Y293940D02*
D03*
X186538D02*
D03*
D21*
X640080Y91440D02*
D03*
Y78232D02*
D03*
X620776D02*
D03*
Y84836D02*
D03*
Y91440D02*
D03*
D22*
X660020Y93980D02*
D03*
X676020D02*
D03*
X576960Y351750D02*
D03*
X560960D02*
D03*
X289180Y175260D02*
D03*
X305180D02*
D03*
X410720Y215660D02*
D03*
X426720D02*
D03*
X424560Y286350D02*
D03*
X408560D02*
D03*
X37720Y-17780D02*
D03*
X53720D02*
D03*
X140080Y-15240D02*
D03*
X124080D02*
D03*
X253490Y400050D02*
D03*
X237490D02*
D03*
X479680Y351750D02*
D03*
X495680D02*
D03*
X424560Y250350D02*
D03*
X408560D02*
D03*
X261240D02*
D03*
X277240D02*
D03*
X261240Y286350D02*
D03*
X277240D02*
D03*
X404240Y175260D02*
D03*
X388240D02*
D03*
D23*
X482600Y324290D02*
D03*
Y307790D02*
D03*
X574040Y324290D02*
D03*
Y307790D02*
D03*
X-5000Y205110D02*
D03*
Y221610D02*
D03*
X-5000Y250830D02*
D03*
Y267330D02*
D03*
D24*
X680720Y246380D02*
D03*
X670720Y114880D02*
D03*
D25*
X539220Y130280D02*
D03*
D26*
X535520Y144780D02*
D03*
D27*
X647820Y177680D02*
D03*
Y155680D02*
D03*
Y133680D02*
D03*
Y122680D02*
D03*
Y199680D02*
D03*
X643820Y188680D02*
D03*
X649820Y166680D02*
D03*
Y144680D02*
D03*
D28*
X539220Y187780D02*
D03*
D30*
X339090Y176150D02*
D03*
Y192150D02*
D03*
X354330Y176150D02*
D03*
Y192150D02*
D03*
X461750Y249060D02*
D03*
Y233060D02*
D03*
X397510Y344550D02*
D03*
Y328550D02*
D03*
X382270Y344550D02*
D03*
Y328550D02*
D03*
X367030Y344550D02*
D03*
Y328550D02*
D03*
X306070Y354710D02*
D03*
Y338710D02*
D03*
X336550Y354710D02*
D03*
Y338710D02*
D03*
X321310Y354710D02*
D03*
Y338710D02*
D03*
X88830Y62410D02*
D03*
Y78410D02*
D03*
D31*
X147978Y291740D02*
D03*
X134978D02*
D03*
X141478Y272140D02*
D03*
D32*
X100630Y4260D02*
D03*
Y-2240D02*
D03*
Y-8740D02*
D03*
Y-15240D02*
D03*
X77630D02*
D03*
Y-8740D02*
D03*
Y-2240D02*
D03*
Y4260D02*
D03*
D33*
X601580Y55440D02*
D03*
X576580D02*
D03*
X551580D02*
D03*
X601580Y440D02*
D03*
X576580D02*
D03*
X551580D02*
D03*
D34*
X659770Y60960D02*
D03*
X676270D02*
D03*
D35*
X538070Y351750D02*
D03*
Y345250D02*
D03*
Y338750D02*
D03*
X518570D02*
D03*
Y345250D02*
D03*
Y351750D02*
D03*
D36*
X19460Y472440D02*
D03*
X-22040Y472440D02*
D03*
X19460Y493940D02*
D03*
X-22040D02*
D03*
X93980Y472440D02*
D03*
X52480D02*
D03*
X93980Y493940D02*
D03*
X52480D02*
D03*
D38*
X377250Y286350D02*
D03*
Y282350D02*
D03*
Y278350D02*
D03*
Y274350D02*
D03*
Y270350D02*
D03*
Y266350D02*
D03*
Y262350D02*
D03*
Y258350D02*
D03*
Y254350D02*
D03*
Y250350D02*
D03*
Y246350D02*
D03*
Y242350D02*
D03*
Y238350D02*
D03*
Y234350D02*
D03*
X308550D02*
D03*
Y238350D02*
D03*
Y242350D02*
D03*
Y246350D02*
D03*
Y250350D02*
D03*
Y254350D02*
D03*
Y258350D02*
D03*
Y262350D02*
D03*
Y266350D02*
D03*
Y270350D02*
D03*
Y274350D02*
D03*
Y278350D02*
D03*
Y282350D02*
D03*
Y286350D02*
D03*
D39*
X316900Y294700D02*
D03*
X320900D02*
D03*
X324900D02*
D03*
X328900D02*
D03*
X332900D02*
D03*
X336900D02*
D03*
X340900D02*
D03*
X344900D02*
D03*
X348900D02*
D03*
X352900D02*
D03*
X356900D02*
D03*
X360900D02*
D03*
X364900D02*
D03*
X368900D02*
D03*
Y226000D02*
D03*
X364900D02*
D03*
X360900D02*
D03*
X356900D02*
D03*
X352900D02*
D03*
X348900D02*
D03*
X344900D02*
D03*
X340900D02*
D03*
X336900D02*
D03*
X332900D02*
D03*
X328900D02*
D03*
X324900D02*
D03*
X320900D02*
D03*
X316900D02*
D03*
D40*
X213850Y400050D02*
D03*
X213850Y387350D02*
D03*
Y374650D02*
D03*
X213850Y361950D02*
D03*
X141750D02*
D03*
X141750Y374650D02*
D03*
Y387350D02*
D03*
X141750Y400050D02*
D03*
D41*
X13480Y213360D02*
D03*
X37480Y222860D02*
D03*
Y203860D02*
D03*
X13480Y259080D02*
D03*
X37480Y268580D02*
D03*
Y249580D02*
D03*
D42*
X174200Y72800D02*
D03*
Y28800D02*
D03*
X182200Y72800D02*
D03*
Y28800D02*
D03*
X190200Y72800D02*
D03*
Y28800D02*
D03*
X198200Y72800D02*
D03*
Y28800D02*
D03*
X206200Y72800D02*
D03*
Y28800D02*
D03*
X214200Y72800D02*
D03*
Y28800D02*
D03*
X222200Y72800D02*
D03*
Y28800D02*
D03*
X230200Y72800D02*
D03*
Y28800D02*
D03*
X238200Y72800D02*
D03*
Y28800D02*
D03*
X246200Y72800D02*
D03*
Y28800D02*
D03*
X254200Y72800D02*
D03*
Y28800D02*
D03*
X262200Y72800D02*
D03*
Y28800D02*
D03*
X270200Y72800D02*
D03*
Y28800D02*
D03*
X278200Y72800D02*
D03*
Y28800D02*
D03*
X286200Y72800D02*
D03*
Y28800D02*
D03*
X294200Y72800D02*
D03*
Y28800D02*
D03*
X302200Y72800D02*
D03*
Y28800D02*
D03*
X310200Y72800D02*
D03*
Y28800D02*
D03*
X318200Y72800D02*
D03*
Y28800D02*
D03*
X326200Y72800D02*
D03*
Y28800D02*
D03*
X334200Y72800D02*
D03*
Y28800D02*
D03*
X342200Y72800D02*
D03*
Y28800D02*
D03*
X350200Y72800D02*
D03*
Y28800D02*
D03*
X358200Y72800D02*
D03*
Y28800D02*
D03*
X366200Y72800D02*
D03*
Y28800D02*
D03*
X374200Y72800D02*
D03*
Y28800D02*
D03*
X382200Y72800D02*
D03*
Y28800D02*
D03*
X390200Y72800D02*
D03*
Y28800D02*
D03*
X398200Y72800D02*
D03*
Y28800D02*
D03*
X406200Y72800D02*
D03*
Y28800D02*
D03*
X414200Y72800D02*
D03*
Y28800D02*
D03*
X422200Y72800D02*
D03*
Y28800D02*
D03*
X430200Y72800D02*
D03*
Y28800D02*
D03*
X438200Y72800D02*
D03*
Y28800D02*
D03*
X446200Y72800D02*
D03*
Y28800D02*
D03*
X454200Y72800D02*
D03*
Y28800D02*
D03*
X462200Y72800D02*
D03*
Y28800D02*
D03*
X470200Y72800D02*
D03*
Y28800D02*
D03*
X478200Y72800D02*
D03*
Y28800D02*
D03*
X486200Y72800D02*
D03*
Y28800D02*
D03*
D81*
X444500Y195660D02*
D03*
Y200660D02*
D03*
Y205660D02*
D03*
Y210660D02*
D03*
Y215660D02*
D03*
X469000D02*
D03*
Y210660D02*
D03*
Y205660D02*
D03*
Y200660D02*
D03*
Y195660D02*
D03*
D82*
X451750Y217910D02*
D03*
X456750D02*
D03*
X461750D02*
D03*
Y193410D02*
D03*
X456750D02*
D03*
X451750D02*
D03*
D83*
X299974Y138430D02*
D03*
X394970D02*
D03*
D84*
X528320Y345250D02*
D03*
D85*
Y370650D02*
D03*
X528320Y319850D02*
D03*
X60960Y431800D02*
D03*
X241300Y711200D02*
D03*
X266700D02*
D03*
X292100D02*
D03*
X317500D02*
D03*
X342900D02*
D03*
X368300D02*
D03*
X393700D02*
D03*
X419100D02*
D03*
X444500D02*
D03*
X469900D02*
D03*
X495300D02*
D03*
X520700D02*
D03*
Y508000D02*
D03*
X495300D02*
D03*
X469900D02*
D03*
X444500D02*
D03*
X419100D02*
D03*
X393700D02*
D03*
X368300D02*
D03*
X342900D02*
D03*
X317500D02*
D03*
X292100D02*
D03*
X266700D02*
D03*
X241300D02*
D03*
X215900D02*
D03*
X190500D02*
D03*
X165100D02*
D03*
X139700D02*
D03*
D86*
X342900Y260350D02*
D03*
D88*
X672390Y284500D02*
D03*
Y370900D02*
D03*
D89*
X630590Y284500D02*
D03*
Y370900D02*
D03*
D90*
X635590Y356600D02*
D03*
Y298800D02*
D03*
D91*
X50800Y322900D02*
D03*
Y342900D02*
D03*
Y551180D02*
D03*
Y571180D02*
D03*
Y531180D02*
D03*
D92*
Y362900D02*
D03*
Y591180D02*
D03*
D93*
X528320Y349250D02*
D03*
Y341250D02*
D03*
D94*
X25400Y73660D02*
D03*
Y86360D02*
D03*
Y99060D02*
D03*
Y111760D02*
D03*
Y124460D02*
D03*
X38100Y73660D02*
D03*
Y86360D02*
D03*
Y99060D02*
D03*
Y111760D02*
D03*
Y124460D02*
D03*
D95*
X660400Y647700D02*
D03*
X0D02*
D03*
Y431800D02*
D03*
Y0D02*
D03*
X660400D02*
D03*
Y431800D02*
D03*
M02*
