G04*
G04 #@! TF.GenerationSoftware,Altium Limited,Altium Designer,24.2.2 (26)*
G04*
G04 Layer_Color=32896*
%FSLAX44Y44*%
%MOMM*%
G71*
G04*
G04 #@! TF.SameCoordinates,F7EBB540-B4CE-4F1F-BB4A-EDFB59B12267*
G04*
G04*
G04 #@! TF.FilePolarity,Positive*
G04*
G01*
G75*
%ADD10C,0.2000*%
%ADD12C,0.1524*%
%ADD13C,0.2540*%
%ADD14C,0.1270*%
%ADD114C,0.1778*%
%ADD115C,0.1693*%
G36*
X419135Y665620D02*
X419885D01*
Y665370D01*
X420635D01*
Y665120D01*
X421135D01*
Y664870D01*
X421635D01*
Y664620D01*
X421885D01*
Y664370D01*
X422385D01*
Y664120D01*
X422635D01*
Y663870D01*
X422885Y663870D01*
Y663620D01*
X423135D01*
Y663370D01*
X423385D01*
Y663120D01*
X423635D01*
Y662870D01*
X423885D01*
X423885Y662370D01*
X424135D01*
Y662120D01*
X424385D01*
Y661620D01*
X424635D01*
Y661120D01*
X424885D01*
Y660370D01*
X425135D01*
Y659370D01*
X425385D01*
Y625620D01*
X425135D01*
Y624620D01*
X424885Y624620D01*
Y624120D01*
X424635D01*
X424635Y623370D01*
X424385D01*
Y623120D01*
X424135D01*
Y622620D01*
X423885D01*
X423885Y622370D01*
X423635D01*
Y621870D01*
X423385D01*
Y621620D01*
X423135D01*
X423135Y621370D01*
X422885D01*
Y621120D01*
X422635D01*
Y620870D01*
X422135D01*
Y620620D01*
X421885D01*
Y620370D01*
X421385Y620370D01*
Y620120D01*
X420885D01*
Y619870D01*
X420385D01*
Y619620D01*
X419885D01*
X419885Y619370D01*
X418885D01*
Y619120D01*
X370635D01*
Y619370D01*
X369885Y619370D01*
Y619620D01*
X369135Y619620D01*
Y619870D01*
X368635Y619870D01*
Y620120D01*
X368135Y620120D01*
Y620370D01*
X367635D01*
Y620620D01*
X367385D01*
Y620870D01*
X367135D01*
Y621120D01*
X366885D01*
Y621370D01*
X366635D01*
Y621620D01*
X366385D01*
Y621870D01*
X366135Y621870D01*
Y622120D01*
X365885D01*
Y622370D01*
X365635D01*
Y622870D01*
X365385D01*
Y623120D01*
X365135D01*
Y623620D01*
X364885D01*
Y624120D01*
X364635D01*
X364635Y624870D01*
X364385D01*
Y626120D01*
X364135D01*
Y639870D01*
Y640120D01*
Y658870D01*
X364385Y658870D01*
Y660120D01*
X364635D01*
Y660870D01*
X364885D01*
Y661370D01*
X365135D01*
Y661870D01*
X365385D01*
Y662370D01*
X365635D01*
Y662620D01*
X365885D01*
Y662870D01*
X366135D01*
Y663370D01*
X366385D01*
Y663620D01*
X366635D01*
Y663870D01*
X366885D01*
Y664120D01*
X367385Y664120D01*
X367385Y664370D01*
X367635D01*
Y664620D01*
X368135D01*
Y664870D01*
X368385D01*
Y665120D01*
X368885D01*
Y665370D01*
X369635D01*
Y665620D01*
X370385D01*
Y665870D01*
X419135D01*
Y665620D01*
D02*
G37*
G36*
X5080Y394970D02*
X-5080D01*
X-0Y400050D01*
X5080Y394970D01*
D02*
G37*
%LPC*%
G36*
X417635Y662370D02*
X371885D01*
Y662120D01*
X370635D01*
Y661870D01*
X370135D01*
Y661620D01*
X369885D01*
Y661370D01*
X369385D01*
Y661120D01*
X369135D01*
Y660870D01*
X368885D01*
Y660620D01*
X368635D01*
Y660120D01*
X368385D01*
Y659620D01*
X368135D01*
Y659120D01*
X367885D01*
Y625870D01*
X368135D01*
Y625370D01*
X368385D01*
Y624870D01*
X368635D01*
Y624620D01*
X368885D01*
Y624120D01*
X369135D01*
Y623870D01*
X369635D01*
Y623620D01*
X369885D01*
Y623370D01*
X370385D01*
Y623120D01*
X370885D01*
Y622870D01*
X372385D01*
Y622620D01*
X417135D01*
Y622870D01*
X418635D01*
Y623120D01*
X419385D01*
Y623370D01*
X419635D01*
Y623620D01*
X420135D01*
Y623870D01*
X420385D01*
Y624120D01*
X420635D01*
Y624370D01*
X420885D01*
Y624870D01*
X421135D01*
Y625120D01*
X421385D01*
Y625870D01*
X421635D01*
Y627120D01*
X421885D01*
Y657870D01*
X421635D01*
Y659370D01*
X421385D01*
Y659870D01*
X421135D01*
Y660370D01*
X420885D01*
Y660620D01*
X420635D01*
Y660870D01*
X420385D01*
Y661120D01*
X420135D01*
Y661370D01*
X419885D01*
Y661620D01*
X419385D01*
Y661870D01*
X418885D01*
Y662120D01*
X417635D01*
Y662370D01*
D02*
G37*
%LPD*%
G36*
X393885Y628120D02*
X388385D01*
Y629870D01*
X392135D01*
Y641620D01*
X391885D01*
Y641870D01*
X391635D01*
Y642120D01*
X391385D01*
Y642370D01*
X391135D01*
Y642620D01*
X390885D01*
Y642870D01*
X390635D01*
Y643120D01*
X390385D01*
Y643370D01*
X389885D01*
Y643620D01*
X389635D01*
Y643870D01*
X389385D01*
Y644120D01*
X389135D01*
Y644370D01*
X388885D01*
Y644620D01*
X388635D01*
Y644870D01*
X388385D01*
Y645120D01*
X388135Y645120D01*
Y645370D01*
X387885D01*
Y645620D01*
X387635D01*
Y645870D01*
X387135D01*
Y646120D01*
X386885D01*
Y646370D01*
X386635D01*
Y646620D01*
X386385D01*
Y646870D01*
X386135Y646870D01*
Y647120D01*
X385885D01*
Y647370D01*
X385635D01*
Y647620D01*
X385385D01*
Y647870D01*
X385135D01*
X385135Y648120D01*
X384885D01*
X384885Y648370D01*
X384385Y648370D01*
Y648620D01*
X384135D01*
Y648870D01*
X383885D01*
Y649120D01*
X383635D01*
Y649370D01*
X383385D01*
X383385Y649620D01*
X383135D01*
Y649870D01*
X382885D01*
Y650120D01*
X382635D01*
Y650370D01*
X382135D01*
Y649870D01*
X381885D01*
Y649120D01*
X381635D01*
X381635Y648370D01*
X381385D01*
Y647620D01*
X381135D01*
Y646870D01*
X380885Y646870D01*
X380885Y645870D01*
X380635D01*
Y645120D01*
X380385Y645120D01*
Y644370D01*
X380135D01*
X380135Y643620D01*
X379885D01*
Y642870D01*
X379635D01*
Y642120D01*
X379385D01*
Y641370D01*
X379135D01*
Y640370D01*
X378885D01*
Y639620D01*
X378635D01*
Y638870D01*
X378385D01*
X378385Y638120D01*
X378135D01*
Y637370D01*
X377885Y637370D01*
Y636620D01*
X377635D01*
Y635870D01*
X377385Y635870D01*
X377385Y635120D01*
X377135D01*
X377135Y634120D01*
X376885D01*
Y633370D01*
X376635D01*
Y632620D01*
X376385D01*
Y631870D01*
X376135D01*
Y631120D01*
X375885D01*
Y630870D01*
X377635D01*
Y629120D01*
X370385D01*
Y630870D01*
X375135D01*
Y631870D01*
X375385D01*
Y632620D01*
X375635D01*
X375635Y633370D01*
X375885D01*
Y634120D01*
X376135D01*
Y634870D01*
X376385D01*
Y635620D01*
X376635Y635620D01*
Y636370D01*
X376885D01*
Y637120D01*
X377135D01*
X377135Y637870D01*
X377385D01*
X377385Y638620D01*
X377635D01*
X377635Y639620D01*
X377885D01*
Y640370D01*
X378135D01*
Y641120D01*
X378385D01*
Y641870D01*
X378635D01*
Y642620D01*
X378885D01*
Y643370D01*
X379135D01*
Y644120D01*
X379385D01*
Y644870D01*
X379635D01*
Y645870D01*
X379885Y645870D01*
X379885Y646620D01*
X380135D01*
Y647370D01*
X380385D01*
Y648120D01*
X380635D01*
Y648870D01*
X380885D01*
X380885Y649620D01*
X381135D01*
Y650370D01*
X381385D01*
Y651120D01*
X381635D01*
Y651870D01*
X381885D01*
Y652870D01*
X382135D01*
Y653620D01*
X382385D01*
Y654370D01*
X382635D01*
X382635Y655120D01*
X382885D01*
Y655870D01*
X383385D01*
Y655620D01*
X383635D01*
Y655370D01*
X383885D01*
Y655120D01*
X384135D01*
Y654870D01*
X384385D01*
Y654620D01*
X384635D01*
Y654370D01*
X384885D01*
Y654120D01*
X385135D01*
Y653870D01*
X385385Y653870D01*
Y653620D01*
X385635D01*
Y653370D01*
X385885D01*
Y653120D01*
X386135D01*
Y652870D01*
X386385D01*
Y652620D01*
X386635D01*
Y652370D01*
X386885D01*
Y652120D01*
X387135D01*
Y651870D01*
X387385D01*
Y651620D01*
X387635D01*
Y651370D01*
X387885D01*
X387885Y651120D01*
X388135D01*
Y650870D01*
X388385D01*
Y650620D01*
X388635D01*
Y650370D01*
X388885D01*
Y650120D01*
X389135D01*
Y649870D01*
X389385D01*
Y649620D01*
X389635D01*
Y649370D01*
X389885D01*
Y649120D01*
X390135D01*
Y648870D01*
X390385D01*
X390385Y648620D01*
X390635D01*
Y648370D01*
X390885D01*
Y648120D01*
X391135D01*
X391135Y647870D01*
X391385D01*
Y647620D01*
X391635D01*
Y647370D01*
X391885D01*
Y647120D01*
X392135D01*
Y657870D01*
X387635D01*
Y659620D01*
X393885D01*
Y628120D01*
D02*
G37*
G36*
X401885Y657870D02*
X397635D01*
Y657620D01*
X397385D01*
Y647370D01*
X397885D01*
Y647620D01*
X398135D01*
Y647870D01*
X398385D01*
Y648120D01*
X398635D01*
Y648370D01*
X398885D01*
Y648620D01*
X399135D01*
Y648870D01*
X399385D01*
Y649120D01*
X399635D01*
X399635Y649370D01*
X399885Y649370D01*
Y649620D01*
X400135D01*
Y649870D01*
X400385D01*
Y650120D01*
X400635D01*
Y650370D01*
X400885D01*
Y650620D01*
X401135D01*
Y650870D01*
X401385D01*
Y651120D01*
X401635D01*
Y651370D01*
X401885D01*
Y651620D01*
X402135D01*
X402135Y651870D01*
X402385D01*
Y652120D01*
X402635Y652120D01*
Y652370D01*
X402885D01*
Y652620D01*
X403135D01*
Y652870D01*
X403385D01*
Y653120D01*
X403635D01*
Y653370D01*
X403885D01*
Y653620D01*
X404135D01*
Y653870D01*
X404385D01*
Y654120D01*
X404635D01*
Y654370D01*
X404885D01*
X404885Y654620D01*
X405135Y654620D01*
Y654870D01*
X405385D01*
Y655120D01*
X405635D01*
Y655370D01*
X405885D01*
Y655620D01*
X406135D01*
Y655870D01*
X406635D01*
Y655370D01*
X406885D01*
Y654620D01*
X407135D01*
Y653870D01*
X407385D01*
X407385Y652870D01*
X407635Y652870D01*
Y652120D01*
X407885Y652120D01*
Y651370D01*
X408135D01*
Y650620D01*
X408385D01*
Y649870D01*
X408635D01*
X408635Y649120D01*
X408885D01*
Y648370D01*
X409135D01*
X409135Y647620D01*
X409385D01*
Y646870D01*
X409635D01*
Y645870D01*
X409885D01*
Y645120D01*
X410135Y645120D01*
Y644370D01*
X410385Y644370D01*
Y643620D01*
X410635D01*
Y642870D01*
X410885D01*
Y642120D01*
X411135D01*
Y641370D01*
X411385D01*
Y640620D01*
X411635D01*
X411635Y639870D01*
X411885D01*
Y638870D01*
X412135D01*
Y638120D01*
X412385D01*
Y637370D01*
X412635Y637370D01*
Y636620D01*
X412885D01*
Y635870D01*
X413135D01*
X413135Y635120D01*
X413385D01*
X413385Y634370D01*
X413635D01*
Y633620D01*
X413885D01*
Y632870D01*
X414135D01*
Y631870D01*
X414385D01*
Y631120D01*
X414635D01*
Y630870D01*
X419135D01*
Y629120D01*
X411885D01*
Y630870D01*
X413635D01*
Y631370D01*
X413385Y631370D01*
Y632120D01*
X413135D01*
Y632870D01*
X412885Y632870D01*
Y633620D01*
X412635D01*
Y634370D01*
X412385D01*
Y635120D01*
X412135D01*
Y635870D01*
X411885D01*
Y636870D01*
X411635D01*
Y637620D01*
X411385D01*
Y638370D01*
X411135Y638370D01*
Y639120D01*
X410885D01*
Y639870D01*
X410635Y639870D01*
Y640620D01*
X410385D01*
Y641620D01*
X410135Y641620D01*
Y642370D01*
X409885D01*
X409885Y643120D01*
X409635D01*
Y643870D01*
X409385D01*
Y644620D01*
X409135D01*
Y645370D01*
X408885D01*
Y646120D01*
X408635Y646120D01*
Y647120D01*
X408385D01*
Y647870D01*
X408135D01*
Y648620D01*
X407885D01*
Y649370D01*
X407635Y649370D01*
Y650120D01*
X407385D01*
Y650370D01*
X407135D01*
Y650120D01*
X406635D01*
Y649870D01*
X406385D01*
Y649620D01*
X406135D01*
Y649370D01*
X405885D01*
X405885Y649120D01*
X405635D01*
Y648870D01*
X405385D01*
Y648620D01*
X405135D01*
Y648370D01*
X404885Y648370D01*
Y648120D01*
X404635D01*
Y647870D01*
X404385D01*
Y647620D01*
X403885D01*
Y647370D01*
X403635D01*
Y647120D01*
X403385D01*
Y646870D01*
X403135D01*
Y646620D01*
X402885D01*
Y646370D01*
X402635D01*
Y646120D01*
X402385D01*
Y645870D01*
X402135D01*
Y645620D01*
X401885D01*
Y645370D01*
X401635D01*
Y645120D01*
X401135D01*
Y644870D01*
X400885D01*
Y644620D01*
X400635D01*
Y644370D01*
X400385D01*
Y644120D01*
X400135D01*
Y643870D01*
X399885D01*
Y643620D01*
X399635D01*
X399635Y643370D01*
X399385D01*
Y643120D01*
X399135D01*
Y642870D01*
X398885D01*
Y642620D01*
X398385D01*
Y642370D01*
X398135Y642370D01*
Y642120D01*
X397885D01*
Y641870D01*
X397635D01*
Y641620D01*
X397385D01*
Y630120D01*
X397635Y630120D01*
Y629870D01*
X401135D01*
Y628120D01*
X395635Y628120D01*
Y628870D01*
Y629120D01*
Y659620D01*
X401885D01*
Y657870D01*
D02*
G37*
D10*
X487200Y8800D02*
G03*
X487200Y8800I-1000J0D01*
G01*
D12*
X678857Y225200D02*
X677164Y226893D01*
Y230278D01*
X678857Y231971D01*
X680550D01*
X682242Y230278D01*
Y226893D01*
X683935Y225200D01*
X685628D01*
X687321Y226893D01*
Y230278D01*
X685628Y231971D01*
X677164Y221814D02*
X678857D01*
X682242Y218428D01*
X678857Y215043D01*
X677164D01*
X682242Y218428D02*
X687321D01*
X678857Y204886D02*
X677164Y206579D01*
Y209965D01*
X678857Y211657D01*
X680550D01*
X682242Y209965D01*
Y206579D01*
X683935Y204886D01*
X685628D01*
X687321Y206579D01*
Y209965D01*
X685628Y211657D01*
X677164Y201501D02*
Y194729D01*
Y198115D01*
X687321D01*
X677164Y184573D02*
Y191344D01*
X687321D01*
Y184573D01*
X682242Y191344D02*
Y187958D01*
X687321Y181187D02*
X677164D01*
X680550Y177802D01*
X677164Y174416D01*
X687321D01*
X677164Y160874D02*
X687321D01*
Y154103D01*
X677164Y145639D02*
Y149024D01*
X678857Y150717D01*
X685628D01*
X687321Y149024D01*
Y145639D01*
X685628Y143946D01*
X678857D01*
X677164Y145639D01*
X678857Y133789D02*
X677164Y135482D01*
Y138868D01*
X678857Y140560D01*
X685628D01*
X687321Y138868D01*
Y135482D01*
X685628Y133789D01*
X682242D01*
Y137175D01*
X-16764Y518174D02*
X-26921D01*
Y524945D01*
X-16764Y528331D02*
Y531716D01*
Y530023D01*
X-26921D01*
Y528331D01*
Y531716D01*
X-16764Y536795D02*
X-26921D01*
Y541873D01*
X-25228Y543566D01*
X-18457D01*
X-16764Y541873D01*
Y536795D01*
X-18457Y563879D02*
X-16764Y562186D01*
Y558801D01*
X-18457Y557108D01*
X-20150D01*
X-21842Y558801D01*
Y562186D01*
X-23535Y563879D01*
X-25228D01*
X-26921Y562186D01*
Y558801D01*
X-25228Y557108D01*
X-16764Y574036D02*
Y567265D01*
X-26921D01*
Y574036D01*
X-21842Y567265D02*
Y570650D01*
X-26921Y577421D02*
X-16764D01*
X-26921Y584193D01*
X-16764D01*
X-18457Y594349D02*
X-16764Y592657D01*
Y589271D01*
X-18457Y587578D01*
X-20150D01*
X-21842Y589271D01*
Y592657D01*
X-23535Y594349D01*
X-25228D01*
X-26921Y592657D01*
Y589271D01*
X-25228Y587578D01*
X-16764Y604506D02*
Y597735D01*
X-26921D01*
Y604506D01*
X-21842Y597735D02*
Y601120D01*
X-16764Y293809D02*
X-26921D01*
Y300580D01*
X-16764Y310737D02*
Y303966D01*
X-26921D01*
Y310737D01*
X-21842Y303966D02*
Y307351D01*
X-26921Y314123D02*
X-20150D01*
X-16764Y317508D01*
X-20150Y320894D01*
X-26921D01*
X-21842D01*
Y314123D01*
X-16764Y324279D02*
X-26921D01*
X-23535D01*
X-16764Y331050D01*
X-21842Y325972D01*
X-26921Y331050D01*
X-18457Y351364D02*
X-16764Y349671D01*
Y346286D01*
X-18457Y344593D01*
X-20150D01*
X-21842Y346286D01*
Y349671D01*
X-23535Y351364D01*
X-25228D01*
X-26921Y349671D01*
Y346286D01*
X-25228Y344593D01*
X-16764Y361521D02*
Y354749D01*
X-26921D01*
Y361521D01*
X-21842Y354749D02*
Y358135D01*
X-26921Y364906D02*
X-16764D01*
X-26921Y371677D01*
X-16764D01*
X-18457Y381834D02*
X-16764Y380141D01*
Y376756D01*
X-18457Y375063D01*
X-20150D01*
X-21842Y376756D01*
Y380141D01*
X-23535Y381834D01*
X-25228D01*
X-26921Y380141D01*
Y376756D01*
X-25228Y375063D01*
X-16764Y391991D02*
Y385220D01*
X-26921D01*
Y391991D01*
X-21842Y385220D02*
Y388605D01*
X-18457Y92289D02*
X-16764Y90596D01*
Y87211D01*
X-18457Y85518D01*
X-20150D01*
X-21842Y87211D01*
Y90596D01*
X-23535Y92289D01*
X-25228D01*
X-26921Y90596D01*
Y87211D01*
X-25228Y85518D01*
X-16764Y95674D02*
X-26921D01*
X-23535Y99060D01*
X-26921Y102445D01*
X-16764D01*
Y105831D02*
X-26921D01*
Y110910D01*
X-25228Y112602D01*
X-18457D01*
X-16764Y110910D01*
Y105831D01*
X687321Y361516D02*
X677164D01*
Y356437D01*
X678857Y354745D01*
X682242D01*
X683935Y356437D01*
Y361516D01*
X677164Y351359D02*
X687321D01*
X683935Y347974D01*
X687321Y344588D01*
X677164D01*
X687321Y341202D02*
X677164D01*
Y336124D01*
X678857Y334431D01*
X682242D01*
X683935Y336124D01*
Y341202D01*
Y337817D02*
X687321Y334431D01*
X677164Y320889D02*
X687321D01*
Y315811D01*
X685628Y314118D01*
X678857D01*
X677164Y315811D01*
Y320889D01*
Y310732D02*
X687321D01*
Y305654D01*
X685628Y303961D01*
X683935D01*
X682242Y305654D01*
Y310732D01*
Y305654D01*
X680550Y303961D01*
X678857D01*
X677164Y305654D01*
Y310732D01*
X678857Y293804D02*
X677164Y295497D01*
Y298883D01*
X678857Y300575D01*
X685628D01*
X687321Y298883D01*
Y295497D01*
X685628Y293804D01*
X682242D01*
Y297190D01*
X-26921Y245538D02*
X-20150D01*
X-16764Y248923D01*
X-20150Y252309D01*
X-26921D01*
X-21842D01*
Y245538D01*
X-18457Y262465D02*
X-16764Y260773D01*
Y257387D01*
X-18457Y255694D01*
X-25228D01*
X-26921Y257387D01*
Y260773D01*
X-25228Y262465D01*
X-16764Y265851D02*
Y272622D01*
Y269237D01*
X-26921D01*
X-18457Y201511D02*
X-16764Y199818D01*
Y196432D01*
X-18457Y194739D01*
X-20150D01*
X-21842Y196432D01*
Y199818D01*
X-23535Y201511D01*
X-25228D01*
X-26921Y199818D01*
Y196432D01*
X-25228Y194739D01*
X-16764Y204896D02*
Y211667D01*
Y208282D01*
X-26921D01*
Y215053D02*
X-20150D01*
X-16764Y218438D01*
X-20150Y221824D01*
X-26921D01*
X-21842D01*
Y215053D01*
X-16764Y225210D02*
Y231981D01*
Y228595D01*
X-26921D01*
X-677Y219292D02*
X1016Y217599D01*
Y214214D01*
X-677Y212521D01*
X-7448D01*
X-9141Y214214D01*
Y217599D01*
X-7448Y219292D01*
X1016Y227756D02*
Y224370D01*
X-677Y222678D01*
X-7448D01*
X-9141Y224370D01*
Y227756D01*
X-7448Y229449D01*
X-677D01*
X1016Y227756D01*
X-9141Y232834D02*
X1016D01*
X-2370Y236220D01*
X1016Y239606D01*
X-9141D01*
Y242991D02*
X1016D01*
X-2370Y246377D01*
X1016Y249762D01*
X-9141D01*
X-677Y259919D02*
X1016Y258226D01*
Y254841D01*
X-677Y253148D01*
X-2370D01*
X-4062Y254841D01*
Y258226D01*
X-5755Y259919D01*
X-7448D01*
X-9141Y258226D01*
Y254841D01*
X-7448Y253148D01*
X513675Y102359D02*
X517060D01*
X515368D01*
Y93895D01*
X517060Y92202D01*
X518753D01*
X520446Y93895D01*
X510289Y92202D02*
X506904D01*
X508596D01*
Y102359D01*
X510289Y100666D01*
D13*
X-0Y392430D02*
G03*
X7620Y384810I7620J0D01*
G01*
X-5080Y394970D02*
X5080D01*
X-0Y400050D02*
X5080Y394970D01*
X-0Y392430D02*
Y394970D01*
X-5080D02*
X-0Y400050D01*
X224790Y621030D02*
X224790Y664210D01*
X237490Y608330D02*
X422910Y608330D01*
X224790Y621030D02*
X237490Y608330D01*
X224790Y664210D02*
X237490Y676910D01*
X422910D02*
X435610Y664210D01*
X435610Y621030D01*
X237490Y676910D02*
X422910Y676910D01*
Y608330D02*
X435610Y621030D01*
D14*
X141200Y20800D02*
Y80800D01*
X491900D02*
X519200D01*
X141200D02*
X168500D01*
X519200Y60000D02*
Y80800D01*
Y20800D02*
Y41600D01*
X491900Y20800D02*
X519200D01*
X141200D02*
X168500D01*
D114*
X349367Y666541D02*
Y665272D01*
X346827Y662732D01*
X344288Y665272D01*
Y666541D01*
X346827Y662732D02*
Y658924D01*
X337940Y666541D02*
X340480D01*
X341749Y665272D01*
Y660193D01*
X340480Y658924D01*
X337940D01*
X336671Y660193D01*
Y665272D01*
X337940Y666541D01*
X334132D02*
Y661463D01*
X331592Y658924D01*
X329053Y661463D01*
Y666541D01*
X326514Y658924D02*
Y664002D01*
X323975Y666541D01*
X321436Y664002D01*
Y658924D01*
Y662732D01*
X326514D01*
X318896Y658924D02*
Y666541D01*
X313818Y658924D01*
Y666541D01*
X311279D02*
Y665272D01*
X308740Y662732D01*
X306201Y665272D01*
Y666541D01*
X308740Y662732D02*
Y658924D01*
X296044D02*
Y666541D01*
X293505Y664002D01*
X290965Y666541D01*
Y658924D01*
X284618Y666541D02*
X287157D01*
X288426Y665272D01*
Y660193D01*
X287157Y658924D01*
X284618D01*
X283348Y660193D01*
Y665272D01*
X284618Y666541D01*
X280809D02*
Y658924D01*
X275730D01*
X273191Y666541D02*
X270652D01*
X271922D01*
Y658924D01*
X273191D01*
X270652D01*
X266843D02*
Y666541D01*
X261765Y658924D01*
Y666541D01*
X259226Y658924D02*
Y664002D01*
X256687Y666541D01*
X254147Y664002D01*
Y658924D01*
Y662732D01*
X259226D01*
X349367Y653133D02*
Y645515D01*
X345558D01*
X344288Y646785D01*
Y648055D01*
X345558Y649324D01*
X349367D01*
X345558D01*
X344288Y650594D01*
Y651863D01*
X345558Y653133D01*
X349367D01*
X341749D02*
Y645515D01*
X336671D01*
X334132D02*
Y650594D01*
X331592Y653133D01*
X329053Y650594D01*
Y645515D01*
Y649324D01*
X334132D01*
X326514Y653133D02*
Y645515D01*
Y648055D01*
X321436Y653133D01*
X325244Y649324D01*
X321436Y645515D01*
X313818Y653133D02*
X318896D01*
Y645515D01*
X313818D01*
X318896Y649324D02*
X316357D01*
X298583Y651863D02*
X299853Y653133D01*
X302392D01*
X303661Y651863D01*
Y650594D01*
X302392Y649324D01*
X299853D01*
X298583Y648055D01*
Y646785D01*
X299853Y645515D01*
X302392D01*
X303661Y646785D01*
X296044Y645515D02*
Y650594D01*
X293505Y653133D01*
X290965Y650594D01*
Y645515D01*
Y649324D01*
X296044D01*
X288426Y645515D02*
Y653133D01*
X283348Y645515D01*
Y653133D01*
X280809D02*
Y645515D01*
X277000D01*
X275730Y646785D01*
Y651863D01*
X277000Y653133D01*
X280809D01*
X268113D02*
X273191D01*
Y645515D01*
X268113D01*
X273191Y649324D02*
X270652D01*
X265574Y645515D02*
Y653133D01*
X261765D01*
X260495Y651863D01*
Y649324D01*
X261765Y648055D01*
X265574D01*
X263034D02*
X260495Y645515D01*
X252878Y651863D02*
X254147Y653133D01*
X256687D01*
X257956Y651863D01*
Y650594D01*
X256687Y649324D01*
X254147D01*
X252878Y648055D01*
Y646785D01*
X254147Y645515D01*
X256687D01*
X257956Y646785D01*
X344288Y638455D02*
X345558Y639725D01*
X348097D01*
X349367Y638455D01*
Y637186D01*
X348097Y635916D01*
X345558D01*
X344288Y634646D01*
Y633377D01*
X345558Y632107D01*
X348097D01*
X349367Y633377D01*
X341749Y632107D02*
Y639725D01*
X337940D01*
X336671Y638455D01*
Y635916D01*
X337940Y634646D01*
X341749D01*
X334132Y632107D02*
Y639725D01*
X330323D01*
X329053Y638455D01*
Y635916D01*
X330323Y634646D01*
X334132D01*
X331592D02*
X329053Y632107D01*
X326514Y639725D02*
X323975D01*
X325244D01*
Y632107D01*
X326514D01*
X323975D01*
X320166D02*
Y639725D01*
X315088Y632107D01*
Y639725D01*
X307470Y638455D02*
X308740Y639725D01*
X311279D01*
X312549Y638455D01*
Y633377D01*
X311279Y632107D01*
X308740D01*
X307470Y633377D01*
Y635916D01*
X310009D01*
X292235Y632107D02*
X297313D01*
X292235Y637186D01*
Y638455D01*
X293505Y639725D01*
X296044D01*
X297313Y638455D01*
X289696D02*
X288426Y639725D01*
X285887D01*
X284618Y638455D01*
Y633377D01*
X285887Y632107D01*
X288426D01*
X289696Y633377D01*
Y638455D01*
X277000Y632107D02*
X282078D01*
X277000Y637186D01*
Y638455D01*
X278270Y639725D01*
X280809D01*
X282078Y638455D01*
X270652Y632107D02*
Y639725D01*
X274461Y635916D01*
X269382D01*
X349367Y626316D02*
X344288D01*
X346827D01*
Y618699D01*
X336671Y625047D02*
X337940Y626316D01*
X340480D01*
X341749Y625047D01*
Y619968D01*
X340480Y618699D01*
X337940D01*
X336671Y619968D01*
Y622508D01*
X339210D01*
X334132Y626316D02*
X331592D01*
X332862D01*
Y618699D01*
X334132D01*
X331592D01*
X322705Y625047D02*
X323975Y626316D01*
X326514D01*
X327784Y625047D01*
Y623777D01*
X326514Y622508D01*
X323975D01*
X322705Y621238D01*
Y619968D01*
X323975Y618699D01*
X326514D01*
X327784Y619968D01*
X307470Y625047D02*
X308740Y626316D01*
X311279D01*
X312549Y625047D01*
Y623777D01*
X311279Y622508D01*
X308740D01*
X307470Y621238D01*
Y619968D01*
X308740Y618699D01*
X311279D01*
X312549Y619968D01*
X304931Y626316D02*
X299853D01*
X302392D01*
Y618699D01*
X297313D02*
Y623777D01*
X294774Y626316D01*
X292235Y623777D01*
Y618699D01*
Y622508D01*
X297313D01*
X289696Y626316D02*
X284618D01*
X287157D01*
Y618699D01*
X282078Y626316D02*
Y619968D01*
X280809Y618699D01*
X278270D01*
X277000Y619968D01*
Y626316D01*
X269382Y625047D02*
X270652Y626316D01*
X273191D01*
X274461Y625047D01*
Y623777D01*
X273191Y622508D01*
X270652D01*
X269382Y621238D01*
Y619968D01*
X270652Y618699D01*
X273191D01*
X274461Y619968D01*
X259226Y626316D02*
Y621238D01*
X256687Y618699D01*
X254147Y621238D01*
Y626316D01*
X251608Y618699D02*
X249069D01*
X250339D01*
Y626316D01*
X251608Y625047D01*
D115*
X31327Y378883D02*
Y389040D01*
X27941Y385654D01*
X24555Y389040D01*
Y378883D01*
X21170Y387347D02*
X19477Y389040D01*
X16092D01*
X14399Y387347D01*
Y385654D01*
X16092Y383962D01*
X17784D01*
X16092D01*
X14399Y382269D01*
Y380576D01*
X16092Y378883D01*
X19477D01*
X21170Y380576D01*
M02*
