G04*
G04 #@! TF.GenerationSoftware,Altium Limited,Altium Designer,24.2.2 (26)*
G04*
G04 Layer_Color=65535*
%FSLAX44Y44*%
%MOMM*%
G71*
G04*
G04 #@! TF.SameCoordinates,F7EBB540-B4CE-4F1F-BB4A-EDFB59B12267*
G04*
G04*
G04 #@! TF.FilePolarity,Positive*
G04*
G01*
G75*
%ADD10C,0.2000*%
%ADD11C,0.2500*%
%ADD12C,0.1524*%
%ADD13C,0.2540*%
%ADD14C,0.1270*%
D10*
X613390Y295200D02*
G03*
X613390Y295200I-1000J0D01*
G01*
X693120Y199680D02*
G03*
X693120Y199680I-1000J0D01*
G01*
X437750Y218410D02*
G03*
X437750Y218410I-1000J0D01*
G01*
X150478Y302940D02*
G03*
X150478Y302940I-1000J0D01*
G01*
X78630Y16660D02*
G03*
X78630Y16660I-1000J0D01*
G01*
X539180Y440D02*
G03*
X539180Y440I-1000J0D01*
G01*
X511570Y351750D02*
G03*
X511570Y351750I-1000J0D01*
G01*
X30710Y472190D02*
G03*
X30710Y472190I-1000J0D01*
G01*
X105230Y472190D02*
G03*
X105230Y472190I-1000J0D01*
G01*
X299150Y286350D02*
G03*
X299150Y286350I-1000J0D01*
G01*
X126650Y400050D02*
G03*
X126650Y400050I-1000J0D01*
G01*
X487200Y12800D02*
G03*
X487200Y12800I-1000J0D01*
G01*
X685590Y372400D02*
X694580D01*
X685590Y283000D02*
X694580D01*
X645890D02*
X658390D01*
X645890Y372400D02*
X658390D01*
X162038Y274940D02*
X170038D01*
X162038D02*
Y284940D01*
X184038Y274940D02*
X192038D01*
Y284940D01*
X535220Y110630D02*
Y121080D01*
Y197480D02*
Y250630D01*
X668020D01*
X687720Y110630D02*
Y236180D01*
X535220Y110630D02*
X658020D01*
X683420D02*
X687720D01*
X18480Y220360D02*
Y228360D01*
X28480D01*
X18480Y198360D02*
Y206360D01*
Y198360D02*
X28480D01*
X18480Y266080D02*
Y274080D01*
X28480D01*
X18480Y244080D02*
Y252080D01*
Y244080D02*
X28480D01*
D11*
X196288Y293940D02*
G03*
X196288Y293940I-1250J0D01*
G01*
X38730Y195360D02*
G03*
X38730Y195360I-1250J0D01*
G01*
Y241080D02*
G03*
X38730Y241080I-1250J0D01*
G01*
D12*
X629644Y92971D02*
G03*
X631167Y92957I784J2566D01*
G01*
X-31750Y162560D02*
X15240D01*
X-31750Y35560D02*
X15240D01*
X514778Y303106D02*
X516470Y304798D01*
X519856D01*
X521549Y303106D01*
Y301413D01*
X519856Y299720D01*
X518163D01*
X519856D01*
X521549Y298027D01*
Y296334D01*
X519856Y294642D01*
X516470D01*
X514778Y296334D01*
X524934Y304798D02*
Y298027D01*
X528320Y294642D01*
X531706Y298027D01*
Y304798D01*
X535091Y303106D02*
X536784Y304798D01*
X540169D01*
X541862Y303106D01*
Y301413D01*
X540169Y299720D01*
X538477D01*
X540169D01*
X541862Y298027D01*
Y296334D01*
X540169Y294642D01*
X536784D01*
X535091Y296334D01*
X526627Y396238D02*
X519856D01*
Y391160D01*
X523242Y392853D01*
X524934D01*
X526627Y391160D01*
Y387774D01*
X524934Y386082D01*
X521549D01*
X519856Y387774D01*
X530013Y396238D02*
Y389467D01*
X533398Y386082D01*
X536784Y389467D01*
Y396238D01*
X104142Y479219D02*
X114298D01*
Y484298D01*
X112606Y485990D01*
X110913D01*
X109220Y484298D01*
Y479219D01*
Y484298D01*
X107527Y485990D01*
X105834D01*
X104142Y484298D01*
Y479219D01*
X105834Y496147D02*
X104142Y494454D01*
Y491069D01*
X105834Y489376D01*
X107527D01*
X109220Y491069D01*
Y494454D01*
X110913Y496147D01*
X112606D01*
X114298Y494454D01*
Y491069D01*
X112606Y489376D01*
X104142Y506304D02*
Y499533D01*
X114298D01*
Y506304D01*
X109220Y499533D02*
Y502918D01*
X104142Y509689D02*
X114298D01*
Y516461D01*
X40638Y479218D02*
X30482D01*
Y484296D01*
X32174Y485989D01*
X35560D01*
X37253Y484296D01*
Y479218D01*
Y482603D02*
X40638Y485989D01*
X32174Y496146D02*
X30482Y494453D01*
Y491067D01*
X32174Y489374D01*
X33867D01*
X35560Y491067D01*
Y494453D01*
X37253Y496146D01*
X38946D01*
X40638Y494453D01*
Y491067D01*
X38946Y489374D01*
X30482Y499531D02*
Y506302D01*
Y502917D01*
X40638D01*
X266721Y472442D02*
Y479213D01*
X270106Y482598D01*
X273492Y479213D01*
Y472442D01*
Y477520D01*
X266721D01*
X276877Y482598D02*
Y472442D01*
X281956D01*
X283648Y474134D01*
Y480906D01*
X281956Y482598D01*
X276877D01*
X287034Y472442D02*
Y479213D01*
X290420Y482598D01*
X293805Y479213D01*
Y472442D01*
Y477520D01*
X287034D01*
X303962Y482598D02*
X297191D01*
Y477520D01*
X300576D01*
X297191D01*
Y472442D01*
X307347D02*
Y482598D01*
X312426D01*
X314118Y480906D01*
Y477520D01*
X312426Y475827D01*
X307347D01*
X310733D02*
X314118Y472442D01*
X317504Y482598D02*
Y474134D01*
X319197Y472442D01*
X322583D01*
X324275Y474134D01*
Y482598D01*
X327661D02*
X331046D01*
X329354D01*
Y472442D01*
X327661D01*
X331046D01*
X336125Y482598D02*
X342896D01*
X339510D01*
Y472442D01*
X361517D02*
Y482598D01*
X356438Y477520D01*
X363209D01*
X373366Y482598D02*
X369981Y480906D01*
X366595Y477520D01*
Y474134D01*
X368288Y472442D01*
X371673D01*
X373366Y474134D01*
Y475827D01*
X371673Y477520D01*
X366595D01*
X383523Y482598D02*
X376752D01*
Y477520D01*
X380137Y479213D01*
X381830D01*
X383523Y477520D01*
Y474134D01*
X381830Y472442D01*
X378445D01*
X376752Y474134D01*
X386908Y480906D02*
X388601Y482598D01*
X391987D01*
X393680Y480906D01*
Y474134D01*
X391987Y472442D01*
X388601D01*
X386908Y474134D01*
Y480906D01*
X214884Y149029D02*
X225041D01*
Y155800D01*
X214884Y165957D02*
Y159186D01*
X225041D01*
Y165957D01*
X219962Y159186D02*
Y162572D01*
X225041Y169343D02*
X218270D01*
X214884Y172728D01*
X218270Y176114D01*
X225041D01*
X219962D01*
Y169343D01*
X214884Y179499D02*
X225041D01*
X221655D01*
X214884Y186271D01*
X219962Y181192D01*
X225041Y186271D01*
Y199813D02*
X218270D01*
X214884Y203198D01*
X218270Y206584D01*
X225041D01*
X219962D01*
Y199813D01*
X214884Y209970D02*
X225041D01*
Y216741D01*
Y220126D02*
X218270D01*
X214884Y223512D01*
X218270Y226897D01*
X225041D01*
X219962D01*
Y220126D01*
X225041Y230283D02*
X214884D01*
Y235361D01*
X216577Y237054D01*
X219962D01*
X221655Y235361D01*
Y230283D01*
Y233668D02*
X225041Y237054D01*
Y240440D02*
X214884D01*
X218270Y243825D01*
X214884Y247211D01*
X225041D01*
X526846Y-29461D02*
Y-19304D01*
X531924D01*
X533617Y-20997D01*
Y-24382D01*
X531924Y-26075D01*
X526846D01*
X530231D02*
X533617Y-29461D01*
X537002D02*
Y-22690D01*
X540388Y-19304D01*
X543774Y-22690D01*
Y-29461D01*
Y-24382D01*
X537002D01*
X547159Y-19304D02*
X550545D01*
X548852D01*
Y-29461D01*
X547159D01*
X550545D01*
X555623Y-19304D02*
Y-29461D01*
X562394D01*
X594578Y-19304D02*
Y-27768D01*
X596270Y-29461D01*
X599656D01*
X601349Y-27768D01*
Y-19304D01*
X611506Y-20997D02*
X609813Y-19304D01*
X606427D01*
X604734Y-20997D01*
Y-22690D01*
X606427Y-24382D01*
X609813D01*
X611506Y-26075D01*
Y-27768D01*
X609813Y-29461D01*
X606427D01*
X604734Y-27768D01*
X614891Y-19304D02*
Y-29461D01*
X619969D01*
X621662Y-27768D01*
Y-26075D01*
X619969Y-24382D01*
X614891D01*
X619969D01*
X621662Y-22690D01*
Y-20997D01*
X619969Y-19304D01*
X614891D01*
X172720Y142238D02*
X179491D01*
X175260Y253998D02*
X182031D01*
X178646Y257384D02*
Y250613D01*
X434512Y358815D02*
X432819Y357122D01*
Y353737D01*
X434512Y352044D01*
X441283D01*
X442976Y353737D01*
Y357122D01*
X441283Y358815D01*
X442976Y362201D02*
Y365586D01*
Y363894D01*
X432819D01*
X434512Y362201D01*
X449752Y358815D02*
X448059Y357122D01*
Y353737D01*
X449752Y352044D01*
X456523D01*
X458216Y353737D01*
Y357122D01*
X456523Y358815D01*
X458216Y368972D02*
Y362201D01*
X451445Y368972D01*
X449752D01*
X448059Y367279D01*
Y363894D01*
X449752Y362201D01*
X414867Y305646D02*
X413174Y307338D01*
X409789D01*
X408096Y305646D01*
Y298874D01*
X409789Y297182D01*
X413174D01*
X414867Y298874D01*
X418253Y305646D02*
X419946Y307338D01*
X423331D01*
X425024Y305646D01*
Y303953D01*
X423331Y302260D01*
X421638D01*
X423331D01*
X425024Y300567D01*
Y298874D01*
X423331Y297182D01*
X419946D01*
X418253Y298874D01*
X432647Y267546D02*
X430954Y269238D01*
X427569D01*
X425876Y267546D01*
Y260774D01*
X427569Y259082D01*
X430954D01*
X432647Y260774D01*
X441111Y259082D02*
Y269238D01*
X436033Y264160D01*
X442804D01*
X320212Y181015D02*
X318519Y179322D01*
Y175937D01*
X320212Y174244D01*
X326983D01*
X328676Y175937D01*
Y179322D01*
X326983Y181015D01*
X318519Y191172D02*
Y184401D01*
X323598D01*
X321905Y187786D01*
Y189479D01*
X323598Y191172D01*
X326983D01*
X328676Y189479D01*
Y186094D01*
X326983Y184401D01*
X262639Y304628D02*
X260947Y306321D01*
X257561D01*
X255868Y304628D01*
Y297857D01*
X257561Y296164D01*
X260947D01*
X262639Y297857D01*
X272796Y306321D02*
X269410Y304628D01*
X266025Y301242D01*
Y297857D01*
X267718Y296164D01*
X271103D01*
X272796Y297857D01*
Y299550D01*
X271103Y301242D01*
X266025D01*
X262639Y269068D02*
X260947Y270761D01*
X257561D01*
X255868Y269068D01*
Y262297D01*
X257561Y260604D01*
X260947D01*
X262639Y262297D01*
X266025Y270761D02*
X272796D01*
Y269068D01*
X266025Y262297D01*
Y260604D01*
X317672Y384215D02*
X315979Y382522D01*
Y379137D01*
X317672Y377444D01*
X324443D01*
X326136Y379137D01*
Y382522D01*
X324443Y384215D01*
X317672Y387601D02*
X315979Y389294D01*
Y392679D01*
X317672Y394372D01*
X319365D01*
X321058Y392679D01*
X322750Y394372D01*
X324443D01*
X326136Y392679D01*
Y389294D01*
X324443Y387601D01*
X322750D01*
X321058Y389294D01*
X319365Y387601D01*
X317672D01*
X321058Y389294D02*
Y392679D01*
X332912Y384215D02*
X331219Y382522D01*
Y379137D01*
X332912Y377444D01*
X339683D01*
X341376Y379137D01*
Y382522D01*
X339683Y384215D01*
Y387601D02*
X341376Y389294D01*
Y392679D01*
X339683Y394372D01*
X332912D01*
X331219Y392679D01*
Y389294D01*
X332912Y387601D01*
X334605D01*
X336298Y389294D01*
Y394372D01*
X419272Y358815D02*
X417579Y357122D01*
Y353737D01*
X419272Y352044D01*
X426043D01*
X427736Y353737D01*
Y357122D01*
X426043Y358815D01*
X427736Y362201D02*
Y365586D01*
Y363894D01*
X417579D01*
X419272Y362201D01*
Y370665D02*
X417579Y372357D01*
Y375743D01*
X419272Y377436D01*
X426043D01*
X427736Y375743D01*
Y372357D01*
X426043Y370665D01*
X419272D01*
X302432Y384215D02*
X300739Y382522D01*
Y379137D01*
X302432Y377444D01*
X309203D01*
X310896Y379137D01*
Y382522D01*
X309203Y384215D01*
X310896Y387601D02*
Y390986D01*
Y389294D01*
X300739D01*
X302432Y387601D01*
X310896Y396065D02*
Y399450D01*
Y397757D01*
X300739D01*
X302432Y396065D01*
X365932Y178475D02*
X364239Y176782D01*
Y173397D01*
X365932Y171704D01*
X372703D01*
X374396Y173397D01*
Y176782D01*
X372703Y178475D01*
X374396Y181861D02*
Y185246D01*
Y183554D01*
X364239D01*
X365932Y181861D01*
X374396Y197096D02*
Y190325D01*
X367625Y197096D01*
X365932D01*
X364239Y195403D01*
Y192017D01*
X365932Y190325D01*
X291255Y193886D02*
X289562Y195578D01*
X286177D01*
X284484Y193886D01*
Y187114D01*
X286177Y185422D01*
X289562D01*
X291255Y187114D01*
X294641Y185422D02*
X298026D01*
X296334D01*
Y195578D01*
X294641Y193886D01*
X308183Y185422D02*
Y195578D01*
X303105Y190500D01*
X309876D01*
X430955Y178646D02*
X429263Y180338D01*
X425877D01*
X424184Y178646D01*
Y171874D01*
X425877Y170182D01*
X429263D01*
X430955Y171874D01*
X434341Y170182D02*
X437726D01*
X436034D01*
Y180338D01*
X434341Y178646D01*
X449576Y180338D02*
X442805D01*
Y175260D01*
X446190Y176953D01*
X447883D01*
X449576Y175260D01*
Y171874D01*
X447883Y170182D01*
X444498D01*
X442805Y171874D01*
X37255Y846D02*
X35563Y2538D01*
X32177D01*
X30484Y846D01*
Y-5926D01*
X32177Y-7618D01*
X35563D01*
X37255Y-5926D01*
X40641Y-7618D02*
X44026D01*
X42334D01*
Y2538D01*
X40641Y846D01*
X49105Y-5926D02*
X50798Y-7618D01*
X54183D01*
X55876Y-5926D01*
Y846D01*
X54183Y2538D01*
X50798D01*
X49105Y846D01*
Y-847D01*
X50798Y-2540D01*
X55876D01*
X165949Y-11854D02*
X164256Y-10162D01*
X160870D01*
X159178Y-11854D01*
Y-18626D01*
X160870Y-20318D01*
X164256D01*
X165949Y-18626D01*
X176106Y-20318D02*
X169334D01*
X176106Y-13547D01*
Y-11854D01*
X174413Y-10162D01*
X171027D01*
X169334Y-11854D01*
X179491D02*
X181184Y-10162D01*
X184569D01*
X186262Y-11854D01*
Y-18626D01*
X184569Y-20318D01*
X181184D01*
X179491Y-18626D01*
Y-11854D01*
X104989Y74506D02*
X103296Y76198D01*
X99910D01*
X98218Y74506D01*
Y67734D01*
X99910Y66042D01*
X103296D01*
X104989Y67734D01*
X115146Y66042D02*
X108374D01*
X115146Y72813D01*
Y74506D01*
X113453Y76198D01*
X110067D01*
X108374Y74506D01*
X118531D02*
X120224Y76198D01*
X123610D01*
X125302Y74506D01*
Y72813D01*
X123610Y71120D01*
X121917D01*
X123610D01*
X125302Y69427D01*
Y67734D01*
X123610Y66042D01*
X120224D01*
X118531Y67734D01*
X76202Y204896D02*
X86358D01*
Y209974D01*
X84666Y211667D01*
X77894D01*
X76202Y209974D01*
Y204896D01*
X86358Y221824D02*
Y215053D01*
X79587Y221824D01*
X77894D01*
X76202Y220131D01*
Y216746D01*
X77894Y215053D01*
X76202Y250616D02*
X86358D01*
Y255694D01*
X84666Y257387D01*
X77894D01*
X76202Y255694D01*
Y250616D01*
X77894Y260773D02*
X76202Y262466D01*
Y265851D01*
X77894Y267544D01*
X79587D01*
X81280Y265851D01*
Y264158D01*
Y265851D01*
X82973Y267544D01*
X84666D01*
X86358Y265851D01*
Y262466D01*
X84666Y260773D01*
X146725Y102359D02*
X143340D01*
X145032D01*
Y93895D01*
X143340Y92202D01*
X141647D01*
X139954Y93895D01*
X156882Y92202D02*
X150111D01*
X156882Y98973D01*
Y100666D01*
X155189Y102359D01*
X151804D01*
X150111Y100666D01*
X99906Y211667D02*
X93134D01*
X91442Y209974D01*
Y206589D01*
X93134Y204896D01*
X99906D01*
X101598Y206589D01*
Y209974D01*
X98213Y208282D02*
X101598Y211667D01*
Y209974D02*
X99906Y211667D01*
X93134Y215053D02*
X91442Y216746D01*
Y220131D01*
X93134Y221824D01*
X94827D01*
X96520Y220131D01*
Y218438D01*
Y220131D01*
X98213Y221824D01*
X99906D01*
X101598Y220131D01*
Y216746D01*
X99906Y215053D01*
Y257387D02*
X93134D01*
X91442Y255694D01*
Y252309D01*
X93134Y250616D01*
X99906D01*
X101598Y252309D01*
Y255694D01*
X98213Y254002D02*
X101598Y257387D01*
Y255694D02*
X99906Y257387D01*
X101598Y265851D02*
X91442D01*
X96520Y260773D01*
Y267544D01*
X413176Y185422D02*
Y195578D01*
X418254D01*
X419947Y193886D01*
Y190500D01*
X418254Y188807D01*
X413176D01*
X416562D02*
X419947Y185422D01*
X423333Y193886D02*
X425026Y195578D01*
X428411D01*
X430104Y193886D01*
Y192193D01*
X428411Y190500D01*
X430104Y188807D01*
Y187114D01*
X428411Y185422D01*
X425026D01*
X423333Y187114D01*
Y188807D01*
X425026Y190500D01*
X423333Y192193D01*
Y193886D01*
X425026Y190500D02*
X428411D01*
X45724Y33022D02*
Y43178D01*
X50802D01*
X52495Y41486D01*
Y38100D01*
X50802Y36407D01*
X45724D01*
X49110D02*
X52495Y33022D01*
X55881D02*
X59266D01*
X57574D01*
Y43178D01*
X55881Y41486D01*
X64345Y43178D02*
X71116D01*
Y41486D01*
X64345Y34714D01*
Y33022D01*
X106684Y15242D02*
Y25398D01*
X111763D01*
X113455Y23706D01*
Y20320D01*
X111763Y18627D01*
X106684D01*
X110070D02*
X113455Y15242D01*
X116841D02*
X120226D01*
X118534D01*
Y25398D01*
X116841Y23706D01*
X125305D02*
X126998Y25398D01*
X130383D01*
X132076Y23706D01*
Y22013D01*
X130383Y20320D01*
X132076Y18627D01*
Y16934D01*
X130383Y15242D01*
X126998D01*
X125305Y16934D01*
Y18627D01*
X126998Y20320D01*
X125305Y22013D01*
Y23706D01*
X126998Y20320D02*
X130383D01*
X71118Y200664D02*
X60962D01*
Y205742D01*
X62654Y207435D01*
X66040D01*
X67733Y205742D01*
Y200664D01*
Y204050D02*
X71118Y207435D01*
Y210821D02*
Y214206D01*
Y212514D01*
X60962D01*
X62654Y210821D01*
X69426Y219285D02*
X71118Y220978D01*
Y224363D01*
X69426Y226056D01*
X62654D01*
X60962Y224363D01*
Y220978D01*
X62654Y219285D01*
X64347D01*
X66040Y220978D01*
Y226056D01*
X71118Y245538D02*
X60962D01*
Y250616D01*
X62654Y252309D01*
X66040D01*
X67733Y250616D01*
Y245538D01*
Y248923D02*
X71118Y252309D01*
Y262466D02*
Y255695D01*
X64347Y262466D01*
X62654D01*
X60962Y260773D01*
Y257387D01*
X62654Y255695D01*
Y265851D02*
X60962Y267544D01*
Y270930D01*
X62654Y272622D01*
X69426D01*
X71118Y270930D01*
Y267544D01*
X69426Y265851D01*
X62654D01*
X297688Y318513D02*
Y310049D01*
X299381Y308356D01*
X302766D01*
X304459Y310049D01*
Y318513D01*
X307845Y308356D02*
X311230D01*
X309538D01*
Y318513D01*
X307845Y316820D01*
X259929Y167638D02*
X266700Y157482D01*
Y167638D02*
X259929Y157482D01*
X270086D02*
X273471D01*
X271778D01*
Y167638D01*
X270086Y165946D01*
X474136Y185418D02*
Y176954D01*
X475829Y175262D01*
X479214D01*
X480907Y176954D01*
Y185418D01*
X484293D02*
X491064D01*
Y183726D01*
X484293Y176954D01*
Y175262D01*
X52496Y22858D02*
Y14394D01*
X54189Y12702D01*
X57574D01*
X59267Y14394D01*
Y22858D01*
X69424D02*
X66038Y21166D01*
X62653Y17780D01*
Y14394D01*
X64346Y12702D01*
X67731D01*
X69424Y14394D01*
Y16087D01*
X67731Y17780D01*
X62653D01*
X593516Y86358D02*
Y77894D01*
X595209Y76202D01*
X598594D01*
X600287Y77894D01*
Y86358D01*
X610444D02*
X603673D01*
Y81280D01*
X607058Y82973D01*
X608751D01*
X610444Y81280D01*
Y77894D01*
X608751Y76202D01*
X605366D01*
X603673Y77894D01*
X100756Y160018D02*
Y151554D01*
X102449Y149862D01*
X105834D01*
X107527Y151554D01*
Y160018D01*
X115991Y149862D02*
Y160018D01*
X110913Y154940D01*
X117684D01*
X484296Y387158D02*
Y378694D01*
X485989Y377002D01*
X489374D01*
X491067Y378694D01*
Y387158D01*
X494453Y385466D02*
X496146Y387158D01*
X499531D01*
X501224Y385466D01*
Y383773D01*
X499531Y382080D01*
X497838D01*
X499531D01*
X501224Y380387D01*
Y378694D01*
X499531Y377002D01*
X496146D01*
X494453Y378694D01*
X125222Y426971D02*
Y418507D01*
X126915Y416814D01*
X130300D01*
X131993Y418507D01*
Y426971D01*
X142150Y416814D02*
X135379D01*
X142150Y423585D01*
Y425278D01*
X140457Y426971D01*
X137072D01*
X135379Y425278D01*
X552029Y82126D02*
X550336Y83818D01*
X546950D01*
X545258Y82126D01*
Y80433D01*
X546950Y78740D01*
X550336D01*
X552029Y77047D01*
Y75354D01*
X550336Y73662D01*
X546950D01*
X545258Y75354D01*
X555414Y83818D02*
Y73662D01*
X558800Y77047D01*
X562186Y73662D01*
Y83818D01*
X565571Y82126D02*
X567264Y83818D01*
X570649D01*
X572342Y82126D01*
Y80433D01*
X570649Y78740D01*
X568957D01*
X570649D01*
X572342Y77047D01*
Y75354D01*
X570649Y73662D01*
X567264D01*
X565571Y75354D01*
X661424Y43182D02*
Y53338D01*
X666503D01*
X668195Y51646D01*
Y48260D01*
X666503Y46567D01*
X661424D01*
X664810D02*
X668195Y43182D01*
X671581D02*
X674967D01*
X673274D01*
Y53338D01*
X671581Y51646D01*
X686816Y53338D02*
X683430Y51646D01*
X680045Y48260D01*
Y44874D01*
X681738Y43182D01*
X685123D01*
X686816Y44874D01*
Y46567D01*
X685123Y48260D01*
X680045D01*
X96524Y322582D02*
Y332738D01*
X101602D01*
X103295Y331046D01*
Y327660D01*
X101602Y325967D01*
X96524D01*
X99910D02*
X103295Y322582D01*
X106681D02*
X110066D01*
X108374D01*
Y332738D01*
X106681Y331046D01*
X121916Y332738D02*
X115145D01*
Y327660D01*
X118530Y329353D01*
X120223D01*
X121916Y327660D01*
Y324274D01*
X120223Y322582D01*
X116838D01*
X115145Y324274D01*
X88904Y307342D02*
Y317498D01*
X93982D01*
X95675Y315806D01*
Y312420D01*
X93982Y310727D01*
X88904D01*
X92290D02*
X95675Y307342D01*
X99061D02*
X102446D01*
X100754D01*
Y317498D01*
X99061Y315806D01*
X112603Y307342D02*
Y317498D01*
X107525Y312420D01*
X114296D01*
X195584Y307342D02*
Y317498D01*
X200662D01*
X202355Y315806D01*
Y312420D01*
X200662Y310727D01*
X195584D01*
X198970D02*
X202355Y307342D01*
X205741D02*
X209126D01*
X207434D01*
Y317498D01*
X205741Y315806D01*
X214205D02*
X215898Y317498D01*
X219283D01*
X220976Y315806D01*
Y314113D01*
X219283Y312420D01*
X217590D01*
X219283D01*
X220976Y310727D01*
Y309034D01*
X219283Y307342D01*
X215898D01*
X214205Y309034D01*
X528324Y264162D02*
Y274318D01*
X533402D01*
X535095Y272626D01*
Y269240D01*
X533402Y267547D01*
X528324D01*
X531710D02*
X535095Y264162D01*
X538481D02*
X541866D01*
X540174D01*
Y274318D01*
X538481Y272626D01*
X553716Y264162D02*
X546945D01*
X553716Y270933D01*
Y272626D01*
X552023Y274318D01*
X548638D01*
X546945Y272626D01*
X530017Y279402D02*
Y289558D01*
X535095D01*
X536788Y287866D01*
Y284480D01*
X535095Y282787D01*
X530017D01*
X533402D02*
X536788Y279402D01*
X540174D02*
X543559D01*
X541866D01*
Y289558D01*
X540174Y287866D01*
X548638Y279402D02*
X552023D01*
X550330D01*
Y289558D01*
X548638Y287866D01*
X473456Y303784D02*
X463299D01*
Y308862D01*
X464992Y310555D01*
X468378D01*
X470070Y308862D01*
Y303784D01*
Y307170D02*
X473456Y310555D01*
Y313941D02*
Y317326D01*
Y315634D01*
X463299D01*
X464992Y313941D01*
Y322405D02*
X463299Y324097D01*
Y327483D01*
X464992Y329176D01*
X471763D01*
X473456Y327483D01*
Y324097D01*
X471763Y322405D01*
X464992D01*
X577596Y273648D02*
X567439D01*
Y278727D01*
X569132Y280419D01*
X572518D01*
X574210Y278727D01*
Y273648D01*
Y277034D02*
X577596Y280419D01*
X575903Y283805D02*
X577596Y285498D01*
Y288883D01*
X575903Y290576D01*
X569132D01*
X567439Y288883D01*
Y285498D01*
X569132Y283805D01*
X570825D01*
X572518Y285498D01*
Y290576D01*
X390316Y386082D02*
Y396238D01*
X395394D01*
X397087Y394546D01*
Y391160D01*
X395394Y389467D01*
X390316D01*
X393702D02*
X397087Y386082D01*
X400473Y396238D02*
X407244D01*
Y394546D01*
X400473Y387774D01*
Y386082D01*
X227756Y430784D02*
Y440941D01*
X232834D01*
X234527Y439248D01*
Y435862D01*
X232834Y434170D01*
X227756D01*
X231142D02*
X234527Y430784D01*
X244684Y440941D02*
X241298Y439248D01*
X237913Y435862D01*
Y432477D01*
X239606Y430784D01*
X242991D01*
X244684Y432477D01*
Y434170D01*
X242991Y435862D01*
X237913D01*
X390316Y370842D02*
Y380998D01*
X395394D01*
X397087Y379306D01*
Y375920D01*
X395394Y374227D01*
X390316D01*
X393702D02*
X397087Y370842D01*
X407244Y380998D02*
X400473D01*
Y375920D01*
X403858Y377613D01*
X405551D01*
X407244Y375920D01*
Y372534D01*
X405551Y370842D01*
X402166D01*
X400473Y372534D01*
X32176Y403862D02*
Y414018D01*
X37254D01*
X38947Y412326D01*
Y408940D01*
X37254Y407247D01*
X32176D01*
X35562D02*
X38947Y403862D01*
X47411D02*
Y414018D01*
X42333Y408940D01*
X49104D01*
X227756Y415544D02*
Y425701D01*
X232834D01*
X234527Y424008D01*
Y420622D01*
X232834Y418930D01*
X227756D01*
X231142D02*
X234527Y415544D01*
X237913Y424008D02*
X239606Y425701D01*
X242991D01*
X244684Y424008D01*
Y422315D01*
X242991Y420622D01*
X241298D01*
X242991D01*
X244684Y418930D01*
Y417237D01*
X242991Y415544D01*
X239606D01*
X237913Y417237D01*
X641776Y383542D02*
Y393698D01*
X646854D01*
X648547Y392006D01*
Y388620D01*
X646854Y386927D01*
X641776D01*
X645162D02*
X648547Y383542D01*
X658704D02*
X651933D01*
X658704Y390313D01*
Y392006D01*
X657011Y393698D01*
X653626D01*
X651933Y392006D01*
X646009Y261622D02*
Y271778D01*
X651087D01*
X652780Y270086D01*
Y266700D01*
X651087Y265007D01*
X646009D01*
X649394D02*
X652780Y261622D01*
X656166D02*
X659551D01*
X657858D01*
Y271778D01*
X656166Y270086D01*
X120227Y260774D02*
Y267546D01*
X118534Y269238D01*
X115149D01*
X113456Y267546D01*
Y260774D01*
X115149Y259082D01*
X118534D01*
X116842Y262467D02*
X120227Y259082D01*
X118534D02*
X120227Y260774D01*
X130384Y259082D02*
X123613D01*
X130384Y265853D01*
Y267546D01*
X128691Y269238D01*
X125306D01*
X123613Y267546D01*
X195580Y260774D02*
Y267546D01*
X193887Y269238D01*
X190502D01*
X188809Y267546D01*
Y260774D01*
X190502Y259082D01*
X193887D01*
X192194Y262467D02*
X195580Y259082D01*
X193887D02*
X195580Y260774D01*
X198966Y259082D02*
X202351D01*
X200658D01*
Y269238D01*
X198966Y267546D01*
X448059Y303784D02*
X458216D01*
Y310555D01*
X448059Y320712D02*
Y313941D01*
X458216D01*
Y320712D01*
X453138Y313941D02*
Y317326D01*
X448059Y324097D02*
X458216D01*
Y329176D01*
X456523Y330869D01*
X449752D01*
X448059Y329176D01*
Y324097D01*
X458216Y341025D02*
Y334254D01*
X451445Y341025D01*
X449752D01*
X448059Y339333D01*
Y335947D01*
X449752Y334254D01*
X582679Y256720D02*
X592836D01*
Y263491D01*
X582679Y273648D02*
Y266877D01*
X592836D01*
Y273648D01*
X587758Y266877D02*
Y270263D01*
X582679Y277034D02*
X592836D01*
Y282112D01*
X591143Y283805D01*
X584372D01*
X582679Y282112D01*
Y277034D01*
X592836Y287190D02*
Y290576D01*
Y288883D01*
X582679D01*
X584372Y287190D01*
X61807Y627378D02*
X58422D01*
X60114D01*
Y618914D01*
X58422Y617222D01*
X56729D01*
X55036Y618914D01*
X65193Y625686D02*
X66886Y627378D01*
X70271D01*
X71964Y625686D01*
Y623993D01*
X70271Y622300D01*
X71964Y620607D01*
Y618914D01*
X70271Y617222D01*
X66886D01*
X65193Y618914D01*
Y620607D01*
X66886Y622300D01*
X65193Y623993D01*
Y625686D01*
X66886Y622300D02*
X70271D01*
X-27093Y403858D02*
X-30478D01*
X-28786D01*
Y395394D01*
X-30478Y393702D01*
X-32171D01*
X-33864Y395394D01*
X-23707Y403858D02*
X-16936D01*
Y402166D01*
X-23707Y395394D01*
Y393702D01*
X623147Y269238D02*
X619762D01*
X621454D01*
Y260774D01*
X619762Y259082D01*
X618069D01*
X616376Y260774D01*
X633304Y269238D02*
X626533D01*
Y264160D01*
X629918Y265853D01*
X631611D01*
X633304Y264160D01*
Y260774D01*
X631611Y259082D01*
X628226D01*
X626533Y260774D01*
X28787Y48258D02*
X25402D01*
X27094D01*
Y39794D01*
X25402Y38102D01*
X23709D01*
X22016Y39794D01*
X37251Y38102D02*
Y48258D01*
X32173Y43180D01*
X38944D01*
X618067Y393698D02*
X614682D01*
X616374D01*
Y385234D01*
X614682Y383542D01*
X612989D01*
X611296Y385234D01*
X621453Y392006D02*
X623146Y393698D01*
X626531D01*
X628224Y392006D01*
Y390313D01*
X626531Y388620D01*
X624838D01*
X626531D01*
X628224Y386927D01*
Y385234D01*
X626531Y383542D01*
X623146D01*
X621453Y385234D01*
X673274Y38098D02*
Y27942D01*
X678352D01*
X680045Y29634D01*
Y36406D01*
X678352Y38098D01*
X673274D01*
X683430Y27942D02*
X686816D01*
X685123D01*
Y38098D01*
X683430Y36406D01*
X460589Y267546D02*
X458896Y269238D01*
X455510D01*
X453818Y267546D01*
Y260774D01*
X455510Y259082D01*
X458896D01*
X460589Y260774D01*
X470746Y259082D02*
X463974D01*
X470746Y265853D01*
Y267546D01*
X469053Y269238D01*
X465667D01*
X463974Y267546D01*
X480902Y259082D02*
X474131D01*
X480902Y265853D01*
Y267546D01*
X479210Y269238D01*
X475824D01*
X474131Y267546D01*
X426722Y234526D02*
X425029Y236218D01*
X421643D01*
X419950Y234526D01*
Y227754D01*
X421643Y226062D01*
X425029D01*
X426722Y227754D01*
X436878Y226062D02*
X430107D01*
X436878Y232833D01*
Y234526D01*
X435186Y236218D01*
X431800D01*
X430107Y234526D01*
X440264Y226062D02*
X443649D01*
X441957D01*
Y236218D01*
X440264Y234526D01*
X590975Y102446D02*
X589282Y104138D01*
X585897D01*
X584204Y102446D01*
Y95674D01*
X585897Y93982D01*
X589282D01*
X590975Y95674D01*
X594361Y93982D02*
X597746D01*
X596054D01*
Y104138D01*
X594361Y102446D01*
X602825D02*
X604518Y104138D01*
X607903D01*
X609596Y102446D01*
Y100753D01*
X607903Y99060D01*
X609596Y97367D01*
Y95674D01*
X607903Y93982D01*
X604518D01*
X602825Y95674D01*
Y97367D01*
X604518Y99060D01*
X602825Y100753D01*
Y102446D01*
X604518Y99060D02*
X607903D01*
X481755Y369146D02*
X480062Y370838D01*
X476677D01*
X474984Y369146D01*
Y362374D01*
X476677Y360682D01*
X480062D01*
X481755Y362374D01*
X485141Y360682D02*
X488526D01*
X486834D01*
Y370838D01*
X485141Y369146D01*
X493605Y370838D02*
X500376D01*
Y369146D01*
X493605Y362374D01*
Y360682D01*
X563035Y369146D02*
X561343Y370838D01*
X557957D01*
X556264Y369146D01*
Y362374D01*
X557957Y360682D01*
X561343D01*
X563035Y362374D01*
X566421Y360682D02*
X569806D01*
X568114D01*
Y370838D01*
X566421Y369146D01*
X581656Y370838D02*
X578270Y369146D01*
X574885Y365760D01*
Y362374D01*
X576578Y360682D01*
X579963D01*
X581656Y362374D01*
Y364067D01*
X579963Y365760D01*
X574885D01*
X240455Y389466D02*
X238762Y391158D01*
X235377D01*
X233684Y389466D01*
Y382694D01*
X235377Y381002D01*
X238762D01*
X240455Y382694D01*
X243841Y381002D02*
X247226D01*
X245534D01*
Y391158D01*
X243841Y389466D01*
X252305D02*
X253998Y391158D01*
X257383D01*
X259076Y389466D01*
Y387773D01*
X257383Y386080D01*
X255690D01*
X257383D01*
X259076Y384387D01*
Y382694D01*
X257383Y381002D01*
X253998D01*
X252305Y382694D01*
D13*
X539750Y370650D02*
G03*
X539750Y370650I-11430J0D01*
G01*
X539750Y319850D02*
G03*
X539750Y319850I-11430J0D01*
G01*
X72390Y431800D02*
G03*
X72390Y431800I-11430J0D01*
G01*
X401320Y477520D02*
X520700D01*
Y485140D01*
X139700Y477520D02*
Y485140D01*
Y477520D02*
X259080D01*
X570230Y-27940D02*
X570230Y-22860D01*
X567690Y-25400D02*
X570230Y-22860D01*
X567690Y-25400D02*
X570230Y-27940D01*
X570230Y-25400D02*
X582930D01*
Y-27940D02*
X585470Y-25400D01*
X582930Y-27940D02*
Y-22860D01*
X585470Y-25400D01*
X583584Y296744D02*
Y300336D01*
X587176Y300336D01*
X583584Y296744D02*
X587176Y300336D01*
X585380Y298540D02*
X589280Y294640D01*
X408324Y342284D02*
X411916D01*
X408324D02*
X408324Y345876D01*
X411916Y342284D01*
X410120Y344080D02*
X414020Y347980D01*
X614680Y99060D02*
X642620D01*
X648136D01*
Y96520D02*
Y101600D01*
Y96520D02*
X650676Y99060D01*
X648136Y101600D02*
X650676Y99060D01*
X347472Y114300D02*
X410972D01*
X283972D02*
X347472D01*
Y162560D02*
X410972D01*
X283972D02*
X347472D01*
D14*
X172658Y246620D02*
X207758D01*
Y149620D02*
Y246620D01*
X172758Y149620D02*
X207758D01*
X132758D02*
X145758D01*
X110758Y171620D02*
X132758Y149620D01*
X110758Y171620D02*
Y246620D01*
X145758D01*
X480100Y314790D02*
X482600Y317290D01*
X480100Y314790D02*
X485100D01*
X482600Y317290D02*
X485100Y314790D01*
X571540Y314790D02*
X574040Y317290D01*
X571540Y314790D02*
X576540D01*
X574040Y317290D02*
X576540Y314790D01*
X441750Y190660D02*
X446850D01*
X466650D02*
X471750D01*
X466650Y220660D02*
X471750D01*
X441750D02*
X446850D01*
X147118Y275740D02*
X153618D01*
Y288140D01*
X129338Y275740D02*
X135838D01*
X129338D02*
Y288140D01*
X87680Y-19990D02*
X90580D01*
X87680Y9010D02*
X90580D01*
X531580Y9940D02*
Y45940D01*
X621580Y9940D02*
Y45940D01*
X610780D02*
X621580D01*
X531580D02*
X542380D01*
X610780Y9940D02*
X621580D01*
X531580D02*
X542380D01*
X666770Y60960D02*
X669270Y58460D01*
Y63460D01*
X666770Y60960D02*
X669270Y63460D01*
X65300Y348650D02*
Y371790D01*
Y337150D02*
Y348650D01*
Y313370D02*
Y337150D01*
X50800Y383220D02*
X69850D01*
Y371790D02*
Y383220D01*
X65300Y371790D02*
X69850Y371790D01*
X65300Y313370D02*
X71120Y313370D01*
Y301940D02*
Y313370D01*
X50800Y301940D02*
X71120Y301940D01*
X50800Y383220D02*
Y390840D01*
X-19050Y390840D02*
X50800Y390840D01*
X-19050Y294320D02*
X50800Y294320D01*
Y301940D01*
X-33020Y300670D02*
X-19050D01*
X-33020Y384490D02*
X-19050D01*
Y390840D01*
Y294320D02*
Y300670D01*
X-33020Y320990D02*
X-27940Y320990D01*
X-33020Y364170D02*
X-27940Y364170D01*
Y320990D02*
Y364170D01*
X-33020Y320990D02*
X-33020Y300670D01*
X-33020Y384490D02*
X-33020Y364170D01*
X21300Y509680D02*
X76300D01*
X21300Y612680D02*
X76300D01*
Y594680D02*
Y612680D01*
X72800Y594680D02*
X76300D01*
X72800Y582680D02*
Y594680D01*
X76300Y509680D02*
Y527680D01*
X72800D02*
X76300D01*
X72800D02*
Y539680D01*
X67300D02*
X72800D01*
X67300D02*
Y582680D01*
X72800D01*
X-33748Y509680D02*
X21300D01*
X-33782Y509714D02*
X-33748Y509680D01*
X-33692Y612680D02*
X21300D01*
X-33782Y612590D02*
X-33692Y612680D01*
X-33782Y509714D02*
Y612590D01*
X518320Y334050D02*
X538320D01*
X518320Y356450D02*
X538320D01*
X-22290Y466990D02*
X19710D01*
X-22290Y499390D02*
X19710D01*
Y478190D02*
Y488190D01*
X-22290Y478190D02*
Y488190D01*
X52230Y466990D02*
X94230Y466990D01*
X52230Y499390D02*
X94230D01*
X94230Y488190D02*
X94230Y478190D01*
X52230Y488190D02*
X52230Y478190D01*
X307900Y290550D02*
Y295350D01*
Y225350D02*
Y230150D01*
X377900Y290550D02*
Y295350D01*
Y225350D02*
Y230150D01*
X307900Y295350D02*
X312700D01*
X307900Y225350D02*
X312700D01*
X373100Y295350D02*
X377900D01*
X373100Y225350D02*
X377900D01*
X151400Y354600D02*
X204200D01*
X151400Y407400D02*
X204200Y407400D01*
X-5000Y212110D02*
X-2500Y214610D01*
X-7500D02*
X-2500D01*
X-7500D02*
X-5000Y212110D01*
X-5000Y257830D02*
X-2500Y260330D01*
X-7500D02*
X-2500D01*
X-7500D02*
X-5000Y257830D01*
X141200Y20800D02*
Y41450D01*
Y60150D02*
Y80800D01*
X168500D01*
X519200Y20800D02*
Y80800D01*
X491900D02*
X519200D01*
X141200Y20800D02*
X168500D01*
X491900D02*
X519200D01*
M02*
