G04*
G04 #@! TF.GenerationSoftware,Altium Limited,Altium Designer,24.2.2 (26)*
G04*
G04 Layer_Color=16711935*
%FSLAX44Y44*%
%MOMM*%
G71*
G04*
G04 #@! TF.SameCoordinates,F7EBB540-B4CE-4F1F-BB4A-EDFB59B12267*
G04*
G04*
G04 #@! TF.FilePolarity,Negative*
G04*
G01*
G75*
%ADD65C,1.6740*%
%ADD72R,0.6500X2.1500*%
G04:AMPARAMS|DCode=73|XSize=1.95mm|YSize=1.15mm|CornerRadius=0.325mm|HoleSize=0mm|Usage=FLASHONLY|Rotation=180.000|XOffset=0mm|YOffset=0mm|HoleType=Round|Shape=RoundedRectangle|*
%AMROUNDEDRECTD73*
21,1,1.9500,0.5000,0,0,180.0*
21,1,1.3000,1.1500,0,0,180.0*
1,1,0.6500,-0.6500,0.2500*
1,1,0.6500,0.6500,0.2500*
1,1,0.6500,0.6500,-0.2500*
1,1,0.6500,-0.6500,-0.2500*
%
%ADD73ROUNDEDRECTD73*%
%ADD74O,2.2500X1.1500*%
%ADD75C,0.8000*%
%ADD76O,2.0550X1.5470*%
%ADD77R,2.0550X1.5470*%
%ADD78C,1.1500*%
%ADD79C,5.2300*%
%ADD80C,0.6072*%
%ADD112C,0.6556*%
%ADD113C,0.7826*%
D65*
X241300Y711200D02*
D03*
X266700D02*
D03*
X292100D02*
D03*
X317500D02*
D03*
X342900D02*
D03*
X368300D02*
D03*
X393700D02*
D03*
X419100D02*
D03*
X444500D02*
D03*
X469900D02*
D03*
X495300D02*
D03*
X520700D02*
D03*
Y508000D02*
D03*
X495300D02*
D03*
X469900D02*
D03*
X444500D02*
D03*
X419100D02*
D03*
X393700D02*
D03*
X368300D02*
D03*
X342900D02*
D03*
X317500D02*
D03*
X292100D02*
D03*
X266700D02*
D03*
X241300D02*
D03*
X215900D02*
D03*
X190500D02*
D03*
X165100D02*
D03*
X139700D02*
D03*
D72*
X174200Y72800D02*
D03*
Y28800D02*
D03*
X182200Y72800D02*
D03*
Y28800D02*
D03*
X190200Y72800D02*
D03*
Y28800D02*
D03*
X198200Y72800D02*
D03*
Y28800D02*
D03*
X206200Y72800D02*
D03*
Y28800D02*
D03*
X214200Y72800D02*
D03*
Y28800D02*
D03*
X222200Y72800D02*
D03*
Y28800D02*
D03*
X230200Y72800D02*
D03*
Y28800D02*
D03*
X238200Y72800D02*
D03*
Y28800D02*
D03*
X246200Y72800D02*
D03*
Y28800D02*
D03*
X254200Y72800D02*
D03*
Y28800D02*
D03*
X262200Y72800D02*
D03*
Y28800D02*
D03*
X270200Y72800D02*
D03*
Y28800D02*
D03*
X278200Y72800D02*
D03*
Y28800D02*
D03*
X286200Y72800D02*
D03*
Y28800D02*
D03*
X294200Y72800D02*
D03*
Y28800D02*
D03*
X302200Y72800D02*
D03*
Y28800D02*
D03*
X310200Y72800D02*
D03*
Y28800D02*
D03*
X318200Y72800D02*
D03*
Y28800D02*
D03*
X326200Y72800D02*
D03*
Y28800D02*
D03*
X334200Y72800D02*
D03*
Y28800D02*
D03*
X342200Y72800D02*
D03*
Y28800D02*
D03*
X350200Y72800D02*
D03*
Y28800D02*
D03*
X358200Y72800D02*
D03*
Y28800D02*
D03*
X366200Y72800D02*
D03*
Y28800D02*
D03*
X374200Y72800D02*
D03*
Y28800D02*
D03*
X382200Y72800D02*
D03*
Y28800D02*
D03*
X390200Y72800D02*
D03*
Y28800D02*
D03*
X398200Y72800D02*
D03*
Y28800D02*
D03*
X406200Y72800D02*
D03*
Y28800D02*
D03*
X414200Y72800D02*
D03*
Y28800D02*
D03*
X422200Y72800D02*
D03*
Y28800D02*
D03*
X430200Y72800D02*
D03*
Y28800D02*
D03*
X438200Y72800D02*
D03*
Y28800D02*
D03*
X446200Y72800D02*
D03*
Y28800D02*
D03*
X454200Y72800D02*
D03*
Y28800D02*
D03*
X462200Y72800D02*
D03*
Y28800D02*
D03*
X470200Y72800D02*
D03*
Y28800D02*
D03*
X478200Y72800D02*
D03*
Y28800D02*
D03*
X486200Y72800D02*
D03*
Y28800D02*
D03*
D73*
X672390Y284500D02*
D03*
Y370900D02*
D03*
D74*
X630590Y284500D02*
D03*
Y370900D02*
D03*
D75*
X635590Y356600D02*
D03*
Y298800D02*
D03*
D76*
X50800Y322900D02*
D03*
Y342900D02*
D03*
Y551180D02*
D03*
Y571180D02*
D03*
Y531180D02*
D03*
D77*
Y362900D02*
D03*
Y591180D02*
D03*
D78*
X25400Y73660D02*
D03*
Y86360D02*
D03*
Y99060D02*
D03*
Y111760D02*
D03*
Y124460D02*
D03*
X38100Y73660D02*
D03*
Y86360D02*
D03*
Y99060D02*
D03*
Y111760D02*
D03*
Y124460D02*
D03*
D79*
X660400Y647700D02*
D03*
X0D02*
D03*
Y431800D02*
D03*
Y0D02*
D03*
X660400D02*
D03*
Y431800D02*
D03*
D80*
X685800Y671830D02*
D03*
X641350Y582930D02*
D03*
X685800Y494030D02*
D03*
X641350Y405130D02*
D03*
Y227330D02*
D03*
Y49530D02*
D03*
X596900Y671830D02*
D03*
X552450Y582930D02*
D03*
X596900Y494030D02*
D03*
X463550Y582930D02*
D03*
X508000Y494030D02*
D03*
Y316230D02*
D03*
Y138430D02*
D03*
X419100Y671830D02*
D03*
X374650Y582930D02*
D03*
X419100Y494030D02*
D03*
X330200Y671830D02*
D03*
X285750Y582930D02*
D03*
X330200Y494030D02*
D03*
X241300Y671830D02*
D03*
X196850Y582930D02*
D03*
X241300Y494030D02*
D03*
X196850Y227330D02*
D03*
X152400Y671830D02*
D03*
X107950Y582930D02*
D03*
X152400Y494030D02*
D03*
X107950Y49530D02*
D03*
X63500Y671830D02*
D03*
X19050Y582930D02*
D03*
Y405130D02*
D03*
X63500Y138430D02*
D03*
X19050Y49530D02*
D03*
X552450Y671830D02*
D03*
X603250Y570230D02*
D03*
X552450Y468630D02*
D03*
Y265430D02*
D03*
X501650Y570230D02*
D03*
X450850Y468630D02*
D03*
X501650Y367030D02*
D03*
Y163830D02*
D03*
X349250Y671830D02*
D03*
X400050Y570230D02*
D03*
X349250Y468630D02*
D03*
X400050Y367030D02*
D03*
Y163830D02*
D03*
X247650Y671830D02*
D03*
X298450Y570230D02*
D03*
X247650Y468630D02*
D03*
X298450Y367030D02*
D03*
Y163830D02*
D03*
X146050Y671830D02*
D03*
X196850Y570230D02*
D03*
X146050Y468630D02*
D03*
X196850Y367030D02*
D03*
X44450Y671830D02*
D03*
X95250Y570230D02*
D03*
Y367030D02*
D03*
Y163830D02*
D03*
D112*
X279400Y297180D02*
D03*
X310200Y12700D02*
D03*
X318200D02*
D03*
X63960Y4260D02*
D03*
X63713Y-5080D02*
D03*
X93980Y505640D02*
D03*
X182200Y12700D02*
D03*
X190200D02*
D03*
X198200D02*
D03*
X462200Y88900D02*
D03*
X470200D02*
D03*
X478200D02*
D03*
X310200D02*
D03*
X318200D02*
D03*
X182200D02*
D03*
X190200D02*
D03*
X198200D02*
D03*
X462200Y12700D02*
D03*
X470200D02*
D03*
X478200D02*
D03*
X374200Y44900D02*
D03*
X350200D02*
D03*
X486200D02*
D03*
Y56700D02*
D03*
X374200D02*
D03*
X350200D02*
D03*
X326200D02*
D03*
Y44900D02*
D03*
X302200D02*
D03*
Y56700D02*
D03*
X278200D02*
D03*
Y44900D02*
D03*
X254200D02*
D03*
Y56700D02*
D03*
X230200D02*
D03*
Y44900D02*
D03*
X206200D02*
D03*
Y56700D02*
D03*
X174200D02*
D03*
Y44900D02*
D03*
X454200Y56700D02*
D03*
X438200D02*
D03*
X422200D02*
D03*
X398200D02*
D03*
X422200Y44900D02*
D03*
X438200D02*
D03*
X454200D02*
D03*
X398200D02*
D03*
X383540Y218440D02*
D03*
X487680Y259080D02*
D03*
X474980Y276860D02*
D03*
X469900Y284480D02*
D03*
X478790Y393700D02*
D03*
X487680Y269240D02*
D03*
Y393700D02*
D03*
X452120Y392430D02*
D03*
X416560D02*
D03*
X496570Y393700D02*
D03*
X469900D02*
D03*
X443230Y392430D02*
D03*
X419100Y269240D02*
D03*
X434340Y392430D02*
D03*
X411480Y271780D02*
D03*
X425450Y392430D02*
D03*
X403860Y274320D02*
D03*
X495300Y241300D02*
D03*
X487680Y246380D02*
D03*
X228600Y327660D02*
D03*
X213360Y342900D02*
D03*
X220980Y350520D02*
D03*
X627820Y188680D02*
D03*
X631820Y177680D02*
D03*
Y133680D02*
D03*
Y155680D02*
D03*
X620776Y66532D02*
D03*
X687720Y93980D02*
D03*
X90170Y379730D02*
D03*
X99060D02*
D03*
X48260Y63500D02*
D03*
X53340Y71120D02*
D03*
X347980Y238760D02*
D03*
X356870D02*
D03*
X293370Y232410D02*
D03*
X285750Y238760D02*
D03*
X-22040Y505640D02*
D03*
X52480Y505640D02*
D03*
X19460Y505640D02*
D03*
X114300Y4260D02*
D03*
X77470Y-25400D02*
D03*
X128270Y31750D02*
D03*
X120650Y34290D02*
D03*
X113030Y36830D02*
D03*
X365760Y281940D02*
D03*
X482675Y334785D02*
D03*
X508000Y338900D02*
D03*
X574115Y334785D02*
D03*
X587455Y351675D02*
D03*
X609980Y303700D02*
D03*
X609980Y351700D02*
D03*
X609980Y359700D02*
D03*
X609980Y295700D02*
D03*
X469185Y351825D02*
D03*
X388620Y201930D02*
D03*
X406400Y233680D02*
D03*
X398780Y236220D02*
D03*
X414020Y231140D02*
D03*
X631820Y166680D02*
D03*
Y144680D02*
D03*
X330200Y215900D02*
D03*
X388620Y279400D02*
D03*
X396240Y276860D02*
D03*
X473450Y249060D02*
D03*
X366200Y12700D02*
D03*
X358200D02*
D03*
X342200D02*
D03*
X334200D02*
D03*
X375920Y5080D02*
D03*
X350520D02*
D03*
X325120D02*
D03*
X265190Y400050D02*
D03*
X126890Y361950D02*
D03*
X123278Y291740D02*
D03*
X121778Y312420D02*
D03*
X88830Y90110D02*
D03*
X151780Y-15240D02*
D03*
X37720Y-29480D02*
D03*
X158750Y133350D02*
D03*
X456750Y184840D02*
D03*
X435930Y195660D02*
D03*
X477570Y210660D02*
D03*
Y200660D02*
D03*
X665820Y144680D02*
D03*
X354330Y164450D02*
D03*
X339090D02*
D03*
X277480Y175260D02*
D03*
X415940D02*
D03*
X398780Y215900D02*
D03*
X555220Y187780D02*
D03*
Y130280D02*
D03*
X686720Y114880D02*
D03*
X664210Y246380D02*
D03*
X688340Y279400D02*
D03*
X687070Y401320D02*
D03*
X609600Y316230D02*
D03*
X648970Y325120D02*
D03*
X638810D02*
D03*
X609600D02*
D03*
Y335280D02*
D03*
X339090Y207010D02*
D03*
X47975Y222785D02*
D03*
X47975Y268505D02*
D03*
X439420Y250350D02*
D03*
X439420Y286350D02*
D03*
X367030Y359410D02*
D03*
X382270D02*
D03*
X397510D02*
D03*
X246380Y250350D02*
D03*
Y286350D02*
D03*
X321310Y369570D02*
D03*
X306070D02*
D03*
X342900Y271780D02*
D03*
X332740Y260350D02*
D03*
Y248920D02*
D03*
X336550Y369570D02*
D03*
X342900Y248920D02*
D03*
X353060D02*
D03*
X332740Y271780D02*
D03*
X353060D02*
D03*
Y260350D02*
D03*
X342900D02*
D03*
D113*
X12700Y179070D02*
D03*
M02*
