G04*
G04 #@! TF.GenerationSoftware,Altium Limited,Altium Designer,24.2.2 (26)*
G04*
G04 Layer_Color=128*
%FSLAX44Y44*%
%MOMM*%
G71*
G04*
G04 #@! TF.SameCoordinates,F7EBB540-B4CE-4F1F-BB4A-EDFB59B12267*
G04*
G04*
G04 #@! TF.FilePolarity,Positive*
G04*
G01*
G75*
%ADD14C,0.1270*%
D14*
X669390Y284500D02*
X675390D01*
X672390Y281500D02*
Y287500D01*
X669390Y370900D02*
X675390D01*
X672390Y367900D02*
Y373900D01*
X627590Y284500D02*
X633590D01*
X630590Y281500D02*
Y287500D01*
X627590Y370900D02*
X633590D01*
X630590Y367900D02*
Y373900D01*
X632340Y356600D02*
X638840D01*
X635590Y353350D02*
Y359850D01*
X632340Y298800D02*
X638840D01*
X635590Y295550D02*
Y302050D01*
X236220Y711200D02*
X246380D01*
X241300Y706120D02*
Y716280D01*
X261620Y711200D02*
X271780D01*
X266700Y706120D02*
Y716280D01*
X287020Y711200D02*
X297180D01*
X292100Y706120D02*
Y716280D01*
X312420Y711200D02*
X322580D01*
X317500Y706120D02*
Y716280D01*
X337820Y711200D02*
X347980D01*
X342900Y706120D02*
Y716280D01*
X363220Y711200D02*
X373380D01*
X368300Y706120D02*
Y716280D01*
X388620Y711200D02*
X398780D01*
X393700Y706120D02*
Y716280D01*
X414020Y711200D02*
X424180D01*
X419100Y706120D02*
Y716280D01*
X439420Y711200D02*
X449580D01*
X444500Y706120D02*
Y716280D01*
X464820Y711200D02*
X474980D01*
X469900Y706120D02*
Y716280D01*
X490220Y711200D02*
X500380D01*
X495300Y706120D02*
Y716280D01*
X515620Y711200D02*
X525780D01*
X520700Y706120D02*
Y716280D01*
X515620Y508000D02*
X525780D01*
X520700Y502920D02*
Y513080D01*
X490220Y508000D02*
X500380D01*
X495300Y502920D02*
Y513080D01*
X464820Y508000D02*
X474980D01*
X469900Y502920D02*
Y513080D01*
X439420Y508000D02*
X449580D01*
X444500Y502920D02*
Y513080D01*
X414020Y508000D02*
X424180D01*
X419100Y502920D02*
Y513080D01*
X388620Y508000D02*
X398780D01*
X393700Y502920D02*
Y513080D01*
X363220Y508000D02*
X373380D01*
X368300Y502920D02*
Y513080D01*
X337820Y508000D02*
X347980D01*
X342900Y502920D02*
Y513080D01*
X312420Y508000D02*
X322580D01*
X317500Y502920D02*
Y513080D01*
X287020Y508000D02*
X297180D01*
X292100Y502920D02*
Y513080D01*
X261620Y508000D02*
X271780D01*
X266700Y502920D02*
Y513080D01*
X236220Y508000D02*
X246380D01*
X241300Y502920D02*
Y513080D01*
X210820Y508000D02*
X220980D01*
X215900Y502920D02*
Y513080D01*
X185420Y508000D02*
X195580D01*
X190500Y502920D02*
Y513080D01*
X160020Y508000D02*
X170180D01*
X165100Y502920D02*
Y513080D01*
X134620Y508000D02*
X144780D01*
X139700Y502920D02*
Y513080D01*
X46800Y322900D02*
X54800D01*
X50800Y318900D02*
Y326900D01*
X46800Y362900D02*
X54800D01*
X50800Y358900D02*
Y366900D01*
X46800Y342900D02*
X54800D01*
X50800Y338900D02*
Y346900D01*
X46800Y551180D02*
X54800D01*
X50800Y547180D02*
Y555180D01*
X46800Y591180D02*
X54800D01*
X50800Y587180D02*
Y595180D01*
X46800Y571180D02*
X54800D01*
X50800Y567180D02*
Y575180D01*
X46800Y531180D02*
X54800D01*
X50800Y527180D02*
Y535180D01*
X526820Y349250D02*
X529820D01*
X528320Y347750D02*
Y350750D01*
X526820Y341250D02*
X529820D01*
X528320Y339750D02*
Y342750D01*
X21900Y73660D02*
X28900D01*
X25400Y70160D02*
Y77160D01*
X21900Y86360D02*
X28900D01*
X25400Y82860D02*
Y89860D01*
X21900Y99060D02*
X28900D01*
X25400Y95560D02*
Y102560D01*
X21900Y111760D02*
X28900D01*
X25400Y108260D02*
Y115260D01*
X21900Y124460D02*
X28900D01*
X25400Y120960D02*
Y127960D01*
X34600Y73660D02*
X41600D01*
X38100Y70160D02*
Y77160D01*
X34600Y86360D02*
X41600D01*
X38100Y82860D02*
Y89860D01*
X34600Y99060D02*
X41600D01*
X38100Y95560D02*
Y102560D01*
X34600Y111760D02*
X41600D01*
X38100Y108260D02*
Y115260D01*
X34600Y124460D02*
X41600D01*
X38100Y120960D02*
Y127960D01*
X643400Y647700D02*
X677400D01*
X660400Y630700D02*
Y664700D01*
X-17000Y647700D02*
X17000D01*
X0Y630700D02*
Y664700D01*
X-17000Y431800D02*
X17000D01*
X0Y414800D02*
Y448800D01*
X-17000Y0D02*
X17000D01*
X0Y-17000D02*
Y17000D01*
X643400Y0D02*
X677400D01*
X660400Y-17000D02*
Y17000D01*
X643400Y431800D02*
X677400D01*
X660400Y414800D02*
Y448800D01*
X684276Y671830D02*
X687324D01*
X685800Y670306D02*
Y673354D01*
X639826Y582930D02*
X642874D01*
X641350Y581406D02*
Y584454D01*
X684276Y494030D02*
X687324D01*
X685800Y492506D02*
Y495554D01*
X639826Y405130D02*
X642874D01*
X641350Y403606D02*
Y406654D01*
X639826Y227330D02*
X642874D01*
X641350Y225806D02*
Y228854D01*
X639826Y49530D02*
X642874D01*
X641350Y48006D02*
Y51054D01*
X595376Y671830D02*
X598424D01*
X596900Y670306D02*
Y673354D01*
X550926Y582930D02*
X553974D01*
X552450Y581406D02*
Y584454D01*
X595376Y494030D02*
X598424D01*
X596900Y492506D02*
Y495554D01*
X462026Y582930D02*
X465074D01*
X463550Y581406D02*
Y584454D01*
X506476Y494030D02*
X509524D01*
X508000Y492506D02*
Y495554D01*
X506476Y316230D02*
X509524D01*
X508000Y314706D02*
Y317754D01*
X506476Y138430D02*
X509524D01*
X508000Y136906D02*
Y139954D01*
X417576Y671830D02*
X420624D01*
X419100Y670306D02*
Y673354D01*
X373126Y582930D02*
X376174D01*
X374650Y581406D02*
Y584454D01*
X417576Y494030D02*
X420624D01*
X419100Y492506D02*
Y495554D01*
X328676Y671830D02*
X331724D01*
X330200Y670306D02*
Y673354D01*
X284226Y582930D02*
X287274D01*
X285750Y581406D02*
Y584454D01*
X328676Y494030D02*
X331724D01*
X330200Y492506D02*
Y495554D01*
X239776Y671830D02*
X242824D01*
X241300Y670306D02*
Y673354D01*
X195326Y582930D02*
X198374D01*
X196850Y581406D02*
Y584454D01*
X239776Y494030D02*
X242824D01*
X241300Y492506D02*
Y495554D01*
X195326Y227330D02*
X198374D01*
X196850Y225806D02*
Y228854D01*
X150876Y671830D02*
X153924D01*
X152400Y670306D02*
Y673354D01*
X106426Y582930D02*
X109474D01*
X107950Y581406D02*
Y584454D01*
X150876Y494030D02*
X153924D01*
X152400Y492506D02*
Y495554D01*
X106426Y49530D02*
X109474D01*
X107950Y48006D02*
Y51054D01*
X61976Y671830D02*
X65024D01*
X63500Y670306D02*
Y673354D01*
X17526Y582930D02*
X20574D01*
X19050Y581406D02*
Y584454D01*
X17526Y405130D02*
X20574D01*
X19050Y403606D02*
Y406654D01*
X61976Y138430D02*
X65024D01*
X63500Y136906D02*
Y139954D01*
X17526Y49530D02*
X20574D01*
X19050Y48006D02*
Y51054D01*
X277900Y297180D02*
X280900D01*
X279400Y295680D02*
Y298680D01*
X550926Y671830D02*
X553974D01*
X552450Y670306D02*
Y673354D01*
X601726Y570230D02*
X604774D01*
X603250Y568706D02*
Y571754D01*
X550926Y468630D02*
X553974D01*
X552450Y467106D02*
Y470154D01*
X550926Y265430D02*
X553974D01*
X552450Y263906D02*
Y266954D01*
X500126Y570230D02*
X503174D01*
X501650Y568706D02*
Y571754D01*
X449326Y468630D02*
X452374D01*
X450850Y467106D02*
Y470154D01*
X500126Y367030D02*
X503174D01*
X501650Y365506D02*
Y368554D01*
X500126Y163830D02*
X503174D01*
X501650Y162306D02*
Y165354D01*
X347726Y671830D02*
X350774D01*
X349250Y670306D02*
Y673354D01*
X398526Y570230D02*
X401574D01*
X400050Y568706D02*
Y571754D01*
X347726Y468630D02*
X350774D01*
X349250Y467106D02*
Y470154D01*
X398526Y367030D02*
X401574D01*
X400050Y365506D02*
Y368554D01*
X398526Y163830D02*
X401574D01*
X400050Y162306D02*
Y165354D01*
X246126Y671830D02*
X249174D01*
X247650Y670306D02*
Y673354D01*
X296926Y570230D02*
X299974D01*
X298450Y568706D02*
Y571754D01*
X246126Y468630D02*
X249174D01*
X247650Y467106D02*
Y470154D01*
X296926Y367030D02*
X299974D01*
X298450Y365506D02*
Y368554D01*
X296926Y163830D02*
X299974D01*
X298450Y162306D02*
Y165354D01*
X144526Y671830D02*
X147574D01*
X146050Y670306D02*
Y673354D01*
X195326Y570230D02*
X198374D01*
X196850Y568706D02*
Y571754D01*
X144526Y468630D02*
X147574D01*
X146050Y467106D02*
Y470154D01*
X195326Y367030D02*
X198374D01*
X196850Y365506D02*
Y368554D01*
X42926Y671830D02*
X45974D01*
X44450Y670306D02*
Y673354D01*
X93726Y570230D02*
X96774D01*
X95250Y568706D02*
Y571754D01*
X93726Y367030D02*
X96774D01*
X95250Y365506D02*
Y368554D01*
X93726Y163830D02*
X96774D01*
X95250Y162306D02*
Y165354D01*
X308700Y12700D02*
X311700D01*
X310200Y11200D02*
Y14200D01*
X316700Y12700D02*
X319700D01*
X318200Y11200D02*
Y14200D01*
X62460Y4260D02*
X65460D01*
X63960Y2760D02*
Y5760D01*
X62213Y-5080D02*
X65213D01*
X63713Y-6580D02*
Y-3580D01*
X92480Y505640D02*
X95480D01*
X93980Y504140D02*
Y507140D01*
X180700Y12700D02*
X183700D01*
X182200Y11200D02*
Y14200D01*
X188700Y12700D02*
X191700D01*
X190200Y11200D02*
Y14200D01*
X196700Y12700D02*
X199700D01*
X198200Y11200D02*
Y14200D01*
X460700Y88900D02*
X463700D01*
X462200Y87400D02*
Y90400D01*
X468700Y88900D02*
X471700D01*
X470200Y87400D02*
Y90400D01*
X476700Y88900D02*
X479700D01*
X478200Y87400D02*
Y90400D01*
X308700Y88900D02*
X311700D01*
X310200Y87400D02*
Y90400D01*
X316700Y88900D02*
X319700D01*
X318200Y87400D02*
Y90400D01*
X180700Y88900D02*
X183700D01*
X182200Y87400D02*
Y90400D01*
X188700Y88900D02*
X191700D01*
X190200Y87400D02*
Y90400D01*
X196700Y88900D02*
X199700D01*
X198200Y87400D02*
Y90400D01*
X460700Y12700D02*
X463700D01*
X462200Y11200D02*
Y14200D01*
X468700Y12700D02*
X471700D01*
X470200Y11200D02*
Y14200D01*
X476700Y12700D02*
X479700D01*
X478200Y11200D02*
Y14200D01*
X372700Y44900D02*
X375700D01*
X374200Y43400D02*
Y46400D01*
X348700Y44900D02*
X351700D01*
X350200Y43400D02*
Y46400D01*
X484700Y44900D02*
X487700D01*
X486200Y43400D02*
Y46400D01*
X484700Y56700D02*
X487700D01*
X486200Y55200D02*
Y58200D01*
X372700Y56700D02*
X375700D01*
X374200Y55200D02*
Y58200D01*
X348700Y56700D02*
X351700D01*
X350200Y55200D02*
Y58200D01*
X324700Y56700D02*
X327700D01*
X326200Y55200D02*
Y58200D01*
X324700Y44900D02*
X327700D01*
X326200Y43400D02*
Y46400D01*
X300700Y44900D02*
X303700D01*
X302200Y43400D02*
Y46400D01*
X300700Y56700D02*
X303700D01*
X302200Y55200D02*
Y58200D01*
X276700Y56700D02*
X279700D01*
X278200Y55200D02*
Y58200D01*
X276700Y44900D02*
X279700D01*
X278200Y43400D02*
Y46400D01*
X252700Y44900D02*
X255700D01*
X254200Y43400D02*
Y46400D01*
X252700Y56700D02*
X255700D01*
X254200Y55200D02*
Y58200D01*
X228700Y56700D02*
X231700D01*
X230200Y55200D02*
Y58200D01*
X228700Y44900D02*
X231700D01*
X230200Y43400D02*
Y46400D01*
X204700Y44900D02*
X207700D01*
X206200Y43400D02*
Y46400D01*
X204700Y56700D02*
X207700D01*
X206200Y55200D02*
Y58200D01*
X172700Y56700D02*
X175700D01*
X174200Y55200D02*
Y58200D01*
X172700Y44900D02*
X175700D01*
X174200Y43400D02*
Y46400D01*
X452700Y56700D02*
X455700D01*
X454200Y55200D02*
Y58200D01*
X436700Y56700D02*
X439700D01*
X438200Y55200D02*
Y58200D01*
X420700Y56700D02*
X423700D01*
X422200Y55200D02*
Y58200D01*
X396700Y56700D02*
X399700D01*
X398200Y55200D02*
Y58200D01*
X420700Y44900D02*
X423700D01*
X422200Y43400D02*
Y46400D01*
X436700Y44900D02*
X439700D01*
X438200Y43400D02*
Y46400D01*
X452700Y44900D02*
X455700D01*
X454200Y43400D02*
Y46400D01*
X396700Y44900D02*
X399700D01*
X398200Y43400D02*
Y46400D01*
X382040Y218440D02*
X385040D01*
X383540Y216940D02*
Y219940D01*
X486180Y259080D02*
X489180D01*
X487680Y257580D02*
Y260580D01*
X473480Y276860D02*
X476480D01*
X474980Y275360D02*
Y278360D01*
X468400Y284480D02*
X471400D01*
X469900Y282980D02*
Y285980D01*
X477290Y393700D02*
X480290D01*
X478790Y392200D02*
Y395200D01*
X486180Y269240D02*
X489180D01*
X487680Y267740D02*
Y270740D01*
X486180Y393700D02*
X489180D01*
X487680Y392200D02*
Y395200D01*
X450620Y392430D02*
X453620D01*
X452120Y390930D02*
Y393930D01*
X415060Y392430D02*
X418060D01*
X416560Y390930D02*
Y393930D01*
X495070Y393700D02*
X498070D01*
X496570Y392200D02*
Y395200D01*
X468400Y393700D02*
X471400D01*
X469900Y392200D02*
Y395200D01*
X441730Y392430D02*
X444730D01*
X443230Y390930D02*
Y393930D01*
X417600Y269240D02*
X420600D01*
X419100Y267740D02*
Y270740D01*
X432840Y392430D02*
X435840D01*
X434340Y390930D02*
Y393930D01*
X409980Y271780D02*
X412980D01*
X411480Y270280D02*
Y273280D01*
X423950Y392430D02*
X426950D01*
X425450Y390930D02*
Y393930D01*
X402360Y274320D02*
X405360D01*
X403860Y272820D02*
Y275820D01*
X493800Y241300D02*
X496800D01*
X495300Y239800D02*
Y242800D01*
X486180Y246380D02*
X489180D01*
X487680Y244880D02*
Y247880D01*
X227100Y327660D02*
X230100D01*
X228600Y326160D02*
Y329160D01*
X211860Y342900D02*
X214860D01*
X213360Y341400D02*
Y344400D01*
X219480Y350520D02*
X222480D01*
X220980Y349020D02*
Y352020D01*
X626320Y188680D02*
X629320D01*
X627820Y187180D02*
Y190180D01*
X630320Y177680D02*
X633320D01*
X631820Y176180D02*
Y179180D01*
X630320Y133680D02*
X633320D01*
X631820Y132180D02*
Y135180D01*
X630320Y155680D02*
X633320D01*
X631820Y154180D02*
Y157180D01*
X619276Y66532D02*
X622276D01*
X620776Y65032D02*
Y68032D01*
X686220Y93980D02*
X689220D01*
X687720Y92480D02*
Y95480D01*
X10692Y179070D02*
X14708D01*
X12700Y177062D02*
Y181078D01*
X88670Y379730D02*
X91670D01*
X90170Y378230D02*
Y381230D01*
X97560Y379730D02*
X100560D01*
X99060Y378230D02*
Y381230D01*
X46760Y63500D02*
X49760D01*
X48260Y62000D02*
Y65000D01*
X51840Y71120D02*
X54840D01*
X53340Y69620D02*
Y72620D01*
X346480Y238760D02*
X349480D01*
X347980Y237260D02*
Y240260D01*
X355370Y238760D02*
X358370D01*
X356870Y237260D02*
Y240260D01*
X291870Y232410D02*
X294870D01*
X293370Y230910D02*
Y233910D01*
X284250Y238760D02*
X287250D01*
X285750Y237260D02*
Y240260D01*
X-23540Y505640D02*
X-20540D01*
X-22040Y504140D02*
Y507140D01*
X50980Y505640D02*
X53980D01*
X52480Y504140D02*
Y507140D01*
X17960Y505640D02*
X20960D01*
X19460Y504140D02*
Y507140D01*
X112800Y4260D02*
X115800D01*
X114300Y2760D02*
Y5760D01*
X75970Y-25400D02*
X78970D01*
X77470Y-26900D02*
Y-23900D01*
X126770Y31750D02*
X129770D01*
X128270Y30250D02*
Y33250D01*
X119150Y34290D02*
X122150D01*
X120650Y32790D02*
Y35790D01*
X111530Y36830D02*
X114530D01*
X113030Y35330D02*
Y38330D01*
X364260Y281940D02*
X367260D01*
X365760Y280440D02*
Y283440D01*
X481175Y334785D02*
X484175D01*
X482675Y333285D02*
Y336285D01*
X506500Y338900D02*
X509500D01*
X508000Y337400D02*
Y340400D01*
X572615Y334785D02*
X575615D01*
X574115Y333285D02*
Y336285D01*
X585955Y351675D02*
X588955D01*
X587455Y350175D02*
Y353175D01*
X608480Y303700D02*
X611480D01*
X609980Y302200D02*
Y305200D01*
X608480Y351700D02*
X611480D01*
X609980Y350200D02*
Y353200D01*
X608480Y359700D02*
X611480D01*
X609980Y358200D02*
Y361200D01*
X608480Y295700D02*
X611480D01*
X609980Y294200D02*
Y297200D01*
X467685Y351825D02*
X470685D01*
X469185Y350325D02*
Y353325D01*
X387120Y201930D02*
X390120D01*
X388620Y200430D02*
Y203430D01*
X404900Y233680D02*
X407900D01*
X406400Y232180D02*
Y235180D01*
X397280Y236220D02*
X400280D01*
X398780Y234720D02*
Y237720D01*
X412520Y231140D02*
X415520D01*
X414020Y229640D02*
Y232640D01*
X630320Y166680D02*
X633320D01*
X631820Y165180D02*
Y168180D01*
X630320Y144680D02*
X633320D01*
X631820Y143180D02*
Y146180D01*
X328700Y215900D02*
X331700D01*
X330200Y214400D02*
Y217400D01*
X387120Y279400D02*
X390120D01*
X388620Y277900D02*
Y280900D01*
X394740Y276860D02*
X397740D01*
X396240Y275360D02*
Y278360D01*
X471950Y249060D02*
X474950D01*
X473450Y247560D02*
Y250560D01*
X364700Y12700D02*
X367700D01*
X366200Y11200D02*
Y14200D01*
X356700Y12700D02*
X359700D01*
X358200Y11200D02*
Y14200D01*
X340700Y12700D02*
X343700D01*
X342200Y11200D02*
Y14200D01*
X332700Y12700D02*
X335700D01*
X334200Y11200D02*
Y14200D01*
X374420Y5080D02*
X377420D01*
X375920Y3580D02*
Y6580D01*
X349020Y5080D02*
X352020D01*
X350520Y3580D02*
Y6580D01*
X323620Y5080D02*
X326620D01*
X325120Y3580D02*
Y6580D01*
X263690Y400050D02*
X266690D01*
X265190Y398550D02*
Y401550D01*
X125390Y361950D02*
X128390D01*
X126890Y360450D02*
Y363450D01*
X121778Y291740D02*
X124778D01*
X123278Y290240D02*
Y293240D01*
X120278Y312420D02*
X123278D01*
X121778Y310920D02*
Y313920D01*
X87330Y90110D02*
X90330D01*
X88830Y88610D02*
Y91610D01*
X150280Y-15240D02*
X153280D01*
X151780Y-16740D02*
Y-13740D01*
X36220Y-29480D02*
X39220D01*
X37720Y-30980D02*
Y-27980D01*
X157250Y133350D02*
X160250D01*
X158750Y131850D02*
Y134850D01*
X455250Y184840D02*
X458250D01*
X456750Y183340D02*
Y186340D01*
X434430Y195660D02*
X437430D01*
X435930Y194160D02*
Y197160D01*
X476070Y210660D02*
X479070D01*
X477570Y209160D02*
Y212160D01*
X476070Y200660D02*
X479070D01*
X477570Y199160D02*
Y202160D01*
X664320Y144680D02*
X667320D01*
X665820Y143180D02*
Y146180D01*
X352830Y164450D02*
X355830D01*
X354330Y162950D02*
Y165950D01*
X337590Y164450D02*
X340590D01*
X339090Y162950D02*
Y165950D01*
X275980Y175260D02*
X278980D01*
X277480Y173760D02*
Y176760D01*
X414440Y175260D02*
X417440D01*
X415940Y173760D02*
Y176760D01*
X397280Y215900D02*
X400280D01*
X398780Y214400D02*
Y217400D01*
X553720Y187780D02*
X556720D01*
X555220Y186280D02*
Y189280D01*
X553720Y130280D02*
X556720D01*
X555220Y128780D02*
Y131780D01*
X685220Y114880D02*
X688220D01*
X686720Y113380D02*
Y116380D01*
X662710Y246380D02*
X665710D01*
X664210Y244880D02*
Y247880D01*
X686840Y279400D02*
X689840D01*
X688340Y277900D02*
Y280900D01*
X685570Y401320D02*
X688570D01*
X687070Y399820D02*
Y402820D01*
X608100Y316230D02*
X611100D01*
X609600Y314730D02*
Y317730D01*
X647470Y325120D02*
X650470D01*
X648970Y323620D02*
Y326620D01*
X637310Y325120D02*
X640310D01*
X638810Y323620D02*
Y326620D01*
X608100Y325120D02*
X611100D01*
X609600Y323620D02*
Y326620D01*
X608100Y335280D02*
X611100D01*
X609600Y333780D02*
Y336780D01*
X337590Y207010D02*
X340590D01*
X339090Y205510D02*
Y208510D01*
X46475Y222785D02*
X49475D01*
X47975Y221285D02*
Y224285D01*
X46475Y268505D02*
X49475D01*
X47975Y267005D02*
Y270005D01*
X437920Y250350D02*
X440920D01*
X439420Y248850D02*
Y251850D01*
X437920Y286350D02*
X440920D01*
X439420Y284850D02*
Y287850D01*
X365530Y359410D02*
X368530D01*
X367030Y357910D02*
Y360910D01*
X380770Y359410D02*
X383770D01*
X382270Y357910D02*
Y360910D01*
X396010Y359410D02*
X399010D01*
X397510Y357910D02*
Y360910D01*
X244880Y250350D02*
X247880D01*
X246380Y248850D02*
Y251850D01*
X244880Y286350D02*
X247880D01*
X246380Y284850D02*
Y287850D01*
X319810Y369570D02*
X322810D01*
X321310Y368070D02*
Y371070D01*
X304570Y369570D02*
X307570D01*
X306070Y368070D02*
Y371070D01*
X341400Y271780D02*
X344400D01*
X342900Y270280D02*
Y273280D01*
X331240Y260350D02*
X334240D01*
X332740Y258850D02*
Y261850D01*
X331240Y248920D02*
X334240D01*
X332740Y247420D02*
Y250420D01*
X335050Y369570D02*
X338050D01*
X336550Y368070D02*
Y371070D01*
X341400Y248920D02*
X344400D01*
X342900Y247420D02*
Y250420D01*
X351560Y248920D02*
X354560D01*
X353060Y247420D02*
Y250420D01*
X331240Y271780D02*
X334240D01*
X332740Y270280D02*
Y273280D01*
X351560Y271780D02*
X354560D01*
X353060Y270280D02*
Y273280D01*
X351560Y260350D02*
X354560D01*
X353060Y258850D02*
Y261850D01*
X341400Y260350D02*
X344400D01*
X342900Y258850D02*
Y261850D01*
M02*
