G04*
G04 #@! TF.GenerationSoftware,Altium Limited,Altium Designer,24.2.2 (26)*
G04*
G04 Layer_Physical_Order=4*
G04 Layer_Color=16711680*
%FSLAX44Y44*%
%MOMM*%
G71*
G04*
G04 #@! TF.SameCoordinates,F7EBB540-B4CE-4F1F-BB4A-EDFB59B12267*
G04*
G04*
G04 #@! TF.FilePolarity,Positive*
G04*
G01*
G75*
%ADD12C,0.1524*%
%ADD13C,0.2540*%
%ADD14C,0.1270*%
%ADD42R,0.5000X2.0000*%
%ADD85C,1.5240*%
%ADD87C,0.1016*%
G04:AMPARAMS|DCode=88|XSize=1.8mm|YSize=1mm|CornerRadius=0.25mm|HoleSize=0mm|Usage=FLASHONLY|Rotation=180.000|XOffset=0mm|YOffset=0mm|HoleType=Round|Shape=RoundedRectangle|*
%AMROUNDEDRECTD88*
21,1,1.8000,0.5000,0,0,180.0*
21,1,1.3000,1.0000,0,0,180.0*
1,1,0.5000,-0.6500,0.2500*
1,1,0.5000,0.6500,0.2500*
1,1,0.5000,0.6500,-0.2500*
1,1,0.5000,-0.6500,-0.2500*
%
%ADD88ROUNDEDRECTD88*%
%ADD89O,2.1000X1.0000*%
%ADD90C,0.6500*%
%ADD91O,1.9050X1.3970*%
%ADD92R,1.9050X1.3970*%
%ADD93C,0.4524*%
%ADD94C,1.0000*%
%ADD95C,5.0800*%
%ADD96C,0.4572*%
%ADD97C,0.5794*%
G36*
X677606Y727504D02*
X681939Y726190D01*
X685933Y724055D01*
X689433Y721183D01*
X692306Y717683D01*
X694440Y713689D01*
X695754Y709356D01*
X696189Y704948D01*
X696169Y704850D01*
Y-12700D01*
X696189Y-12797D01*
X695754Y-17206D01*
X694440Y-21539D01*
X692306Y-25533D01*
X689433Y-29033D01*
X685933Y-31906D01*
X681939Y-34040D01*
X677606Y-35354D01*
X673197Y-35789D01*
X673100Y-35769D01*
X-12700D01*
X-12797Y-35789D01*
X-17206Y-35354D01*
X-21539Y-34040D01*
X-25533Y-31906D01*
X-29033Y-29033D01*
X-31906Y-25533D01*
X-34040Y-21539D01*
X-35354Y-17206D01*
X-35789Y-12797D01*
X-35769Y-12700D01*
Y704850D01*
X-35789Y704948D01*
X-35354Y709356D01*
X-34040Y713689D01*
X-31906Y717683D01*
X-29033Y721183D01*
X-25533Y724055D01*
X-21539Y726190D01*
X-17206Y727504D01*
X-12797Y727939D01*
X-12700Y727919D01*
X673100D01*
X673197Y727939D01*
X677606Y727504D01*
D02*
G37*
%LPC*%
G36*
X521837Y719836D02*
X519563D01*
X517367Y719248D01*
X515397Y718111D01*
X513789Y716503D01*
X512653Y714533D01*
X512064Y712337D01*
Y710063D01*
X512653Y707867D01*
X513789Y705897D01*
X515397Y704289D01*
X517367Y703152D01*
X519563Y702564D01*
X521837D01*
X524033Y703152D01*
X526003Y704289D01*
X527611Y705897D01*
X528747Y707867D01*
X529336Y710063D01*
Y712337D01*
X528747Y714533D01*
X527611Y716503D01*
X526003Y718111D01*
X524033Y719248D01*
X521837Y719836D01*
D02*
G37*
G36*
X496437D02*
X494163D01*
X491967Y719248D01*
X489997Y718111D01*
X488390Y716503D01*
X487253Y714533D01*
X486664Y712337D01*
Y710063D01*
X487253Y707867D01*
X488390Y705897D01*
X489997Y704289D01*
X491967Y703152D01*
X494163Y702564D01*
X496437D01*
X498633Y703152D01*
X500603Y704289D01*
X502211Y705897D01*
X503348Y707867D01*
X503936Y710063D01*
Y712337D01*
X503348Y714533D01*
X502211Y716503D01*
X500603Y718111D01*
X498633Y719248D01*
X496437Y719836D01*
D02*
G37*
G36*
X471037D02*
X468763D01*
X466567Y719248D01*
X464597Y718111D01*
X462990Y716503D01*
X461852Y714533D01*
X461264Y712337D01*
Y710063D01*
X461852Y707867D01*
X462990Y705897D01*
X464597Y704289D01*
X466567Y703152D01*
X468763Y702564D01*
X471037D01*
X473233Y703152D01*
X475203Y704289D01*
X476810Y705897D01*
X477948Y707867D01*
X478536Y710063D01*
Y712337D01*
X477948Y714533D01*
X476810Y716503D01*
X475203Y718111D01*
X473233Y719248D01*
X471037Y719836D01*
D02*
G37*
G36*
X445637D02*
X443363D01*
X441167Y719248D01*
X439197Y718111D01*
X437589Y716503D01*
X436452Y714533D01*
X435864Y712337D01*
Y710063D01*
X436452Y707867D01*
X437589Y705897D01*
X439197Y704289D01*
X441167Y703152D01*
X443363Y702564D01*
X445637D01*
X447833Y703152D01*
X449803Y704289D01*
X451410Y705897D01*
X452547Y707867D01*
X453136Y710063D01*
Y712337D01*
X452547Y714533D01*
X451410Y716503D01*
X449803Y718111D01*
X447833Y719248D01*
X445637Y719836D01*
D02*
G37*
G36*
X420237D02*
X417963D01*
X415767Y719248D01*
X413797Y718111D01*
X412189Y716503D01*
X411053Y714533D01*
X410464Y712337D01*
Y710063D01*
X411053Y707867D01*
X412189Y705897D01*
X413797Y704289D01*
X415767Y703152D01*
X417963Y702564D01*
X420237D01*
X422433Y703152D01*
X424403Y704289D01*
X426011Y705897D01*
X427147Y707867D01*
X427736Y710063D01*
Y712337D01*
X427147Y714533D01*
X426011Y716503D01*
X424403Y718111D01*
X422433Y719248D01*
X420237Y719836D01*
D02*
G37*
G36*
X394837D02*
X392563D01*
X390367Y719248D01*
X388397Y718111D01*
X386790Y716503D01*
X385653Y714533D01*
X385064Y712337D01*
Y710063D01*
X385653Y707867D01*
X386790Y705897D01*
X388397Y704289D01*
X390367Y703152D01*
X392563Y702564D01*
X394837D01*
X397033Y703152D01*
X399003Y704289D01*
X400611Y705897D01*
X401748Y707867D01*
X402336Y710063D01*
Y712337D01*
X401748Y714533D01*
X400611Y716503D01*
X399003Y718111D01*
X397033Y719248D01*
X394837Y719836D01*
D02*
G37*
G36*
X369437D02*
X367163D01*
X364967Y719248D01*
X362997Y718111D01*
X361390Y716503D01*
X360252Y714533D01*
X359664Y712337D01*
Y710063D01*
X360252Y707867D01*
X361390Y705897D01*
X362997Y704289D01*
X364967Y703152D01*
X367163Y702564D01*
X369437D01*
X371633Y703152D01*
X373603Y704289D01*
X375210Y705897D01*
X376348Y707867D01*
X376936Y710063D01*
Y712337D01*
X376348Y714533D01*
X375210Y716503D01*
X373603Y718111D01*
X371633Y719248D01*
X369437Y719836D01*
D02*
G37*
G36*
X344037D02*
X341763D01*
X339567Y719248D01*
X337597Y718111D01*
X335989Y716503D01*
X334852Y714533D01*
X334264Y712337D01*
Y710063D01*
X334852Y707867D01*
X335989Y705897D01*
X337597Y704289D01*
X339567Y703152D01*
X341763Y702564D01*
X344037D01*
X346233Y703152D01*
X348203Y704289D01*
X349810Y705897D01*
X350947Y707867D01*
X351536Y710063D01*
Y712337D01*
X350947Y714533D01*
X349810Y716503D01*
X348203Y718111D01*
X346233Y719248D01*
X344037Y719836D01*
D02*
G37*
G36*
X318637D02*
X316363D01*
X314167Y719248D01*
X312197Y718111D01*
X310590Y716503D01*
X309452Y714533D01*
X308864Y712337D01*
Y710063D01*
X309452Y707867D01*
X310590Y705897D01*
X312197Y704289D01*
X314167Y703152D01*
X316363Y702564D01*
X318637D01*
X320833Y703152D01*
X322803Y704289D01*
X324411Y705897D01*
X325547Y707867D01*
X326136Y710063D01*
Y712337D01*
X325547Y714533D01*
X324411Y716503D01*
X322803Y718111D01*
X320833Y719248D01*
X318637Y719836D01*
D02*
G37*
G36*
X293237D02*
X290963D01*
X288767Y719248D01*
X286797Y718111D01*
X285189Y716503D01*
X284053Y714533D01*
X283464Y712337D01*
Y710063D01*
X284053Y707867D01*
X285189Y705897D01*
X286797Y704289D01*
X288767Y703152D01*
X290963Y702564D01*
X293237D01*
X295433Y703152D01*
X297403Y704289D01*
X299011Y705897D01*
X300147Y707867D01*
X300736Y710063D01*
Y712337D01*
X300147Y714533D01*
X299011Y716503D01*
X297403Y718111D01*
X295433Y719248D01*
X293237Y719836D01*
D02*
G37*
G36*
X267837D02*
X265563D01*
X263367Y719248D01*
X261397Y718111D01*
X259790Y716503D01*
X258652Y714533D01*
X258064Y712337D01*
Y710063D01*
X258652Y707867D01*
X259790Y705897D01*
X261397Y704289D01*
X263367Y703152D01*
X265563Y702564D01*
X267837D01*
X270033Y703152D01*
X272003Y704289D01*
X273610Y705897D01*
X274748Y707867D01*
X275336Y710063D01*
Y712337D01*
X274748Y714533D01*
X273610Y716503D01*
X272003Y718111D01*
X270033Y719248D01*
X267837Y719836D01*
D02*
G37*
G36*
X242437D02*
X240163D01*
X237967Y719248D01*
X235997Y718111D01*
X234389Y716503D01*
X233253Y714533D01*
X232664Y712337D01*
Y710063D01*
X233253Y707867D01*
X234389Y705897D01*
X235997Y704289D01*
X237967Y703152D01*
X240163Y702564D01*
X242437D01*
X244633Y703152D01*
X246603Y704289D01*
X248211Y705897D01*
X249347Y707867D01*
X249936Y710063D01*
Y712337D01*
X249347Y714533D01*
X248211Y716503D01*
X246603Y718111D01*
X244633Y719248D01*
X242437Y719836D01*
D02*
G37*
G36*
X686600Y675854D02*
X685000D01*
X683521Y675241D01*
X682389Y674109D01*
X681776Y672630D01*
Y671030D01*
X682389Y669551D01*
X683521Y668419D01*
X685000Y667806D01*
X686600D01*
X688079Y668419D01*
X689211Y669551D01*
X689824Y671030D01*
Y672630D01*
X689211Y674109D01*
X688079Y675241D01*
X686600Y675854D01*
D02*
G37*
G36*
X597700D02*
X596100D01*
X594621Y675241D01*
X593489Y674109D01*
X592876Y672630D01*
Y671030D01*
X593489Y669551D01*
X594621Y668419D01*
X596100Y667806D01*
X597700D01*
X599179Y668419D01*
X600311Y669551D01*
X600924Y671030D01*
Y672630D01*
X600311Y674109D01*
X599179Y675241D01*
X597700Y675854D01*
D02*
G37*
G36*
X419900D02*
X418300D01*
X416821Y675241D01*
X415689Y674109D01*
X415076Y672630D01*
Y671030D01*
X415689Y669551D01*
X416821Y668419D01*
X418300Y667806D01*
X419900D01*
X421379Y668419D01*
X422511Y669551D01*
X423124Y671030D01*
Y672630D01*
X422511Y674109D01*
X421379Y675241D01*
X419900Y675854D01*
D02*
G37*
G36*
X331000D02*
X329400D01*
X327921Y675241D01*
X326789Y674109D01*
X326176Y672630D01*
Y671030D01*
X326789Y669551D01*
X327921Y668419D01*
X329400Y667806D01*
X331000D01*
X332479Y668419D01*
X333611Y669551D01*
X334224Y671030D01*
Y672630D01*
X333611Y674109D01*
X332479Y675241D01*
X331000Y675854D01*
D02*
G37*
G36*
X242100D02*
X240500D01*
X239021Y675241D01*
X237889Y674109D01*
X237276Y672630D01*
Y671030D01*
X237889Y669551D01*
X239021Y668419D01*
X240500Y667806D01*
X242100D01*
X243579Y668419D01*
X244711Y669551D01*
X245324Y671030D01*
Y672630D01*
X244711Y674109D01*
X243579Y675241D01*
X242100Y675854D01*
D02*
G37*
G36*
X153200D02*
X151600D01*
X150121Y675241D01*
X148989Y674109D01*
X148376Y672630D01*
Y671030D01*
X148989Y669551D01*
X150121Y668419D01*
X151600Y667806D01*
X153200D01*
X154679Y668419D01*
X155811Y669551D01*
X156424Y671030D01*
Y672630D01*
X155811Y674109D01*
X154679Y675241D01*
X153200Y675854D01*
D02*
G37*
G36*
X64300D02*
X62700D01*
X61221Y675241D01*
X60089Y674109D01*
X59476Y672630D01*
Y671030D01*
X60089Y669551D01*
X61221Y668419D01*
X62700Y667806D01*
X64300D01*
X65779Y668419D01*
X66911Y669551D01*
X67524Y671030D01*
Y672630D01*
X66911Y674109D01*
X65779Y675241D01*
X64300Y675854D01*
D02*
G37*
G36*
X662479Y674116D02*
X658321D01*
X654214Y673466D01*
X650260Y672181D01*
X646555Y670293D01*
X643191Y667849D01*
X640251Y664909D01*
X637807Y661545D01*
X635919Y657840D01*
X634634Y653886D01*
X633984Y649779D01*
Y645621D01*
X634634Y641514D01*
X635919Y637560D01*
X637807Y633855D01*
X640251Y630491D01*
X643191Y627551D01*
X646555Y625107D01*
X650260Y623219D01*
X654214Y621934D01*
X658321Y621284D01*
X662479D01*
X666586Y621934D01*
X670540Y623219D01*
X674245Y625107D01*
X677609Y627551D01*
X680549Y630491D01*
X682993Y633855D01*
X684881Y637560D01*
X686166Y641514D01*
X686816Y645621D01*
Y649779D01*
X686166Y653886D01*
X684881Y657840D01*
X682993Y661545D01*
X680549Y664909D01*
X677609Y667849D01*
X674245Y670293D01*
X670540Y672181D01*
X666586Y673466D01*
X662479Y674116D01*
D02*
G37*
G36*
X2079D02*
X-2079D01*
X-6186Y673466D01*
X-10140Y672181D01*
X-13845Y670293D01*
X-17209Y667849D01*
X-20149Y664909D01*
X-22593Y661545D01*
X-24481Y657840D01*
X-25766Y653886D01*
X-26416Y649779D01*
Y645621D01*
X-25766Y641514D01*
X-24481Y637560D01*
X-22593Y633855D01*
X-20149Y630491D01*
X-17209Y627551D01*
X-13845Y625107D01*
X-10140Y623219D01*
X-6186Y621934D01*
X-2079Y621284D01*
X2079D01*
X6186Y621934D01*
X10140Y623219D01*
X13845Y625107D01*
X17209Y627551D01*
X20149Y630491D01*
X22593Y633855D01*
X24481Y637560D01*
X25766Y641514D01*
X26416Y645621D01*
Y649779D01*
X25766Y653886D01*
X24481Y657840D01*
X22593Y661545D01*
X20149Y664909D01*
X17209Y667849D01*
X13845Y670293D01*
X10140Y672181D01*
X6186Y673466D01*
X2079Y674116D01*
D02*
G37*
G36*
X61341Y599181D02*
X51308D01*
Y591688D01*
X61341D01*
Y599181D01*
D02*
G37*
G36*
X50292D02*
X40259D01*
Y591688D01*
X50292D01*
Y599181D01*
D02*
G37*
G36*
X61341Y590672D02*
X51308D01*
Y583179D01*
X61341D01*
Y590672D01*
D02*
G37*
G36*
X50292D02*
X40259D01*
Y583179D01*
X50292D01*
Y590672D01*
D02*
G37*
G36*
X642150Y586954D02*
X640550D01*
X639071Y586341D01*
X637939Y585209D01*
X637326Y583730D01*
Y582130D01*
X637939Y580651D01*
X639071Y579519D01*
X640550Y578906D01*
X642150D01*
X643629Y579519D01*
X644761Y580651D01*
X645374Y582130D01*
Y583730D01*
X644761Y585209D01*
X643629Y586341D01*
X642150Y586954D01*
D02*
G37*
G36*
X553250D02*
X551650D01*
X550171Y586341D01*
X549039Y585209D01*
X548426Y583730D01*
Y582130D01*
X549039Y580651D01*
X550171Y579519D01*
X551650Y578906D01*
X553250D01*
X554729Y579519D01*
X555861Y580651D01*
X556474Y582130D01*
Y583730D01*
X555861Y585209D01*
X554729Y586341D01*
X553250Y586954D01*
D02*
G37*
G36*
X464350D02*
X462750D01*
X461271Y586341D01*
X460139Y585209D01*
X459526Y583730D01*
Y582130D01*
X460139Y580651D01*
X461271Y579519D01*
X462750Y578906D01*
X464350D01*
X465829Y579519D01*
X466961Y580651D01*
X467574Y582130D01*
Y583730D01*
X466961Y585209D01*
X465829Y586341D01*
X464350Y586954D01*
D02*
G37*
G36*
X375450D02*
X373850D01*
X372371Y586341D01*
X371239Y585209D01*
X370626Y583730D01*
Y582130D01*
X371239Y580651D01*
X372371Y579519D01*
X373850Y578906D01*
X375450D01*
X376929Y579519D01*
X378061Y580651D01*
X378674Y582130D01*
Y583730D01*
X378061Y585209D01*
X376929Y586341D01*
X375450Y586954D01*
D02*
G37*
G36*
X286550D02*
X284950D01*
X283471Y586341D01*
X282339Y585209D01*
X281726Y583730D01*
Y582130D01*
X282339Y580651D01*
X283471Y579519D01*
X284950Y578906D01*
X286550D01*
X288029Y579519D01*
X289161Y580651D01*
X289774Y582130D01*
Y583730D01*
X289161Y585209D01*
X288029Y586341D01*
X286550Y586954D01*
D02*
G37*
G36*
X197650D02*
X196050D01*
X194571Y586341D01*
X193439Y585209D01*
X192826Y583730D01*
Y582130D01*
X193439Y580651D01*
X194571Y579519D01*
X196050Y578906D01*
X197650D01*
X199129Y579519D01*
X200261Y580651D01*
X200874Y582130D01*
Y583730D01*
X200261Y585209D01*
X199129Y586341D01*
X197650Y586954D01*
D02*
G37*
G36*
X108750D02*
X107150D01*
X105671Y586341D01*
X104539Y585209D01*
X103926Y583730D01*
Y582130D01*
X104539Y580651D01*
X105671Y579519D01*
X107150Y578906D01*
X108750D01*
X110229Y579519D01*
X111361Y580651D01*
X111974Y582130D01*
Y583730D01*
X111361Y585209D01*
X110229Y586341D01*
X108750Y586954D01*
D02*
G37*
G36*
X19850D02*
X18250D01*
X16771Y586341D01*
X15639Y585209D01*
X15026Y583730D01*
Y582130D01*
X15639Y580651D01*
X16771Y579519D01*
X18250Y578906D01*
X19850D01*
X21329Y579519D01*
X22461Y580651D01*
X23074Y582130D01*
Y583730D01*
X22461Y585209D01*
X21329Y586341D01*
X19850Y586954D01*
D02*
G37*
G36*
X53340Y579250D02*
X48260D01*
X46171Y578975D01*
X44225Y578169D01*
X42554Y576886D01*
X41271Y575215D01*
X40465Y573269D01*
X40190Y571180D01*
X40465Y569091D01*
X41271Y567145D01*
X42554Y565474D01*
X44225Y564191D01*
X46171Y563385D01*
X48260Y563110D01*
X53340D01*
X55429Y563385D01*
X57375Y564191D01*
X59046Y565474D01*
X60329Y567145D01*
X61135Y569091D01*
X61410Y571180D01*
X61135Y573269D01*
X60329Y575215D01*
X59046Y576886D01*
X57375Y578169D01*
X55429Y578975D01*
X53340Y579250D01*
D02*
G37*
G36*
Y559250D02*
X48260D01*
X46171Y558975D01*
X44225Y558169D01*
X42554Y556886D01*
X41271Y555215D01*
X40465Y553269D01*
X40190Y551180D01*
X40465Y549091D01*
X41271Y547145D01*
X42554Y545474D01*
X44225Y544191D01*
X46171Y543385D01*
X48260Y543110D01*
X53340D01*
X55429Y543385D01*
X57375Y544191D01*
X59046Y545474D01*
X60329Y547145D01*
X61135Y549091D01*
X61410Y551180D01*
X61135Y553269D01*
X60329Y555215D01*
X59046Y556886D01*
X57375Y558169D01*
X55429Y558975D01*
X53340Y559250D01*
D02*
G37*
G36*
Y539250D02*
X48260D01*
X46171Y538975D01*
X44225Y538169D01*
X42554Y536886D01*
X41271Y535215D01*
X40465Y533269D01*
X40190Y531180D01*
X40465Y529091D01*
X41271Y527145D01*
X42554Y525474D01*
X44225Y524191D01*
X46171Y523385D01*
X48260Y523110D01*
X53340D01*
X55429Y523385D01*
X57375Y524191D01*
X59046Y525474D01*
X60329Y527145D01*
X61135Y529091D01*
X61410Y531180D01*
X61135Y533269D01*
X60329Y535215D01*
X59046Y536886D01*
X57375Y538169D01*
X55429Y538975D01*
X53340Y539250D01*
D02*
G37*
G36*
X166237Y516636D02*
X165608D01*
Y508508D01*
X173736D01*
Y509137D01*
X173148Y511333D01*
X172010Y513303D01*
X170403Y514911D01*
X168433Y516048D01*
X166237Y516636D01*
D02*
G37*
G36*
X164592D02*
X163963D01*
X161767Y516048D01*
X159797Y514911D01*
X158189Y513303D01*
X157052Y511333D01*
X156464Y509137D01*
Y508508D01*
X164592D01*
Y516636D01*
D02*
G37*
G36*
X20256Y509640D02*
X18664D01*
X17194Y509031D01*
X16069Y507906D01*
X15460Y506436D01*
Y504844D01*
X16069Y503374D01*
X17194Y502249D01*
X18664Y501640D01*
X20256D01*
X21726Y502249D01*
X22851Y503374D01*
X23460Y504844D01*
Y506436D01*
X22851Y507906D01*
X21726Y509031D01*
X20256Y509640D01*
D02*
G37*
G36*
X-21244D02*
X-22836D01*
X-24306Y509031D01*
X-25431Y507906D01*
X-26040Y506436D01*
Y504844D01*
X-25431Y503374D01*
X-24306Y502249D01*
X-22836Y501640D01*
X-21244D01*
X-19774Y502249D01*
X-18649Y503374D01*
X-18040Y504844D01*
Y506436D01*
X-18649Y507906D01*
X-19774Y509031D01*
X-21244Y509640D01*
D02*
G37*
G36*
X94776Y509640D02*
X93184D01*
X91714Y509031D01*
X90589Y507906D01*
X89980Y506436D01*
Y504844D01*
X90589Y503374D01*
X91714Y502249D01*
X93184Y501640D01*
X94776D01*
X96246Y502249D01*
X97371Y503374D01*
X97980Y504844D01*
Y506436D01*
X97371Y507906D01*
X96246Y509031D01*
X94776Y509640D01*
D02*
G37*
G36*
X53276D02*
X51684D01*
X50214Y509031D01*
X49089Y507906D01*
X48480Y506436D01*
Y504844D01*
X49089Y503374D01*
X50214Y502249D01*
X51684Y501640D01*
X53276D01*
X54746Y502249D01*
X55871Y503374D01*
X56480Y504844D01*
Y506436D01*
X55871Y507906D01*
X54746Y509031D01*
X53276Y509640D01*
D02*
G37*
G36*
X521837Y516636D02*
X519563D01*
X517367Y516048D01*
X515397Y514911D01*
X513789Y513303D01*
X512653Y511333D01*
X512064Y509137D01*
Y506863D01*
X512653Y504667D01*
X513789Y502697D01*
X515397Y501089D01*
X517367Y499953D01*
X519563Y499364D01*
X521837D01*
X524033Y499953D01*
X526003Y501089D01*
X527611Y502697D01*
X528747Y504667D01*
X529336Y506863D01*
Y509137D01*
X528747Y511333D01*
X527611Y513303D01*
X526003Y514911D01*
X524033Y516048D01*
X521837Y516636D01*
D02*
G37*
G36*
X496437D02*
X494163D01*
X491967Y516048D01*
X489997Y514911D01*
X488390Y513303D01*
X487253Y511333D01*
X486664Y509137D01*
Y506863D01*
X487253Y504667D01*
X488390Y502697D01*
X489997Y501089D01*
X491967Y499953D01*
X494163Y499364D01*
X496437D01*
X498633Y499953D01*
X500603Y501089D01*
X502211Y502697D01*
X503348Y504667D01*
X503936Y506863D01*
Y509137D01*
X503348Y511333D01*
X502211Y513303D01*
X500603Y514911D01*
X498633Y516048D01*
X496437Y516636D01*
D02*
G37*
G36*
X471037D02*
X468763D01*
X466567Y516048D01*
X464597Y514911D01*
X462989Y513303D01*
X461852Y511333D01*
X461264Y509137D01*
Y506863D01*
X461852Y504667D01*
X462989Y502697D01*
X464597Y501089D01*
X466567Y499953D01*
X468763Y499364D01*
X471037D01*
X473233Y499953D01*
X475203Y501089D01*
X476810Y502697D01*
X477948Y504667D01*
X478536Y506863D01*
Y509137D01*
X477948Y511333D01*
X476810Y513303D01*
X475203Y514911D01*
X473233Y516048D01*
X471037Y516636D01*
D02*
G37*
G36*
X445637D02*
X443363D01*
X441167Y516048D01*
X439197Y514911D01*
X437589Y513303D01*
X436452Y511333D01*
X435864Y509137D01*
Y506863D01*
X436452Y504667D01*
X437589Y502697D01*
X439197Y501089D01*
X441167Y499953D01*
X443363Y499364D01*
X445637D01*
X447833Y499953D01*
X449803Y501089D01*
X451411Y502697D01*
X452547Y504667D01*
X453136Y506863D01*
Y509137D01*
X452547Y511333D01*
X451411Y513303D01*
X449803Y514911D01*
X447833Y516048D01*
X445637Y516636D01*
D02*
G37*
G36*
X420237D02*
X417963D01*
X415767Y516048D01*
X413797Y514911D01*
X412189Y513303D01*
X411053Y511333D01*
X410464Y509137D01*
Y506863D01*
X411053Y504667D01*
X412189Y502697D01*
X413797Y501089D01*
X415767Y499953D01*
X417963Y499364D01*
X420237D01*
X422433Y499953D01*
X424403Y501089D01*
X426011Y502697D01*
X427147Y504667D01*
X427736Y506863D01*
Y509137D01*
X427147Y511333D01*
X426011Y513303D01*
X424403Y514911D01*
X422433Y516048D01*
X420237Y516636D01*
D02*
G37*
G36*
X394837D02*
X392563D01*
X390367Y516048D01*
X388397Y514911D01*
X386790Y513303D01*
X385653Y511333D01*
X385064Y509137D01*
Y506863D01*
X385653Y504667D01*
X386790Y502697D01*
X388397Y501089D01*
X390367Y499953D01*
X392563Y499364D01*
X394837D01*
X397033Y499953D01*
X399003Y501089D01*
X400611Y502697D01*
X401748Y504667D01*
X402336Y506863D01*
Y509137D01*
X401748Y511333D01*
X400611Y513303D01*
X399003Y514911D01*
X397033Y516048D01*
X394837Y516636D01*
D02*
G37*
G36*
X369437D02*
X367163D01*
X364967Y516048D01*
X362997Y514911D01*
X361390Y513303D01*
X360252Y511333D01*
X359664Y509137D01*
Y506863D01*
X360252Y504667D01*
X361390Y502697D01*
X362997Y501089D01*
X364967Y499953D01*
X367163Y499364D01*
X369437D01*
X371633Y499953D01*
X373603Y501089D01*
X375210Y502697D01*
X376348Y504667D01*
X376936Y506863D01*
Y509137D01*
X376348Y511333D01*
X375210Y513303D01*
X373603Y514911D01*
X371633Y516048D01*
X369437Y516636D01*
D02*
G37*
G36*
X344037D02*
X341763D01*
X339567Y516048D01*
X337597Y514911D01*
X335989Y513303D01*
X334852Y511333D01*
X334264Y509137D01*
Y506863D01*
X334852Y504667D01*
X335989Y502697D01*
X337597Y501089D01*
X339567Y499953D01*
X341763Y499364D01*
X344037D01*
X346233Y499953D01*
X348203Y501089D01*
X349810Y502697D01*
X350947Y504667D01*
X351536Y506863D01*
Y509137D01*
X350947Y511333D01*
X349810Y513303D01*
X348203Y514911D01*
X346233Y516048D01*
X344037Y516636D01*
D02*
G37*
G36*
X318637D02*
X316363D01*
X314167Y516048D01*
X312197Y514911D01*
X310590Y513303D01*
X309452Y511333D01*
X308864Y509137D01*
Y506863D01*
X309452Y504667D01*
X310590Y502697D01*
X312197Y501089D01*
X314167Y499953D01*
X316363Y499364D01*
X318637D01*
X320833Y499953D01*
X322803Y501089D01*
X324411Y502697D01*
X325547Y504667D01*
X326136Y506863D01*
Y509137D01*
X325547Y511333D01*
X324411Y513303D01*
X322803Y514911D01*
X320833Y516048D01*
X318637Y516636D01*
D02*
G37*
G36*
X293237D02*
X290963D01*
X288767Y516048D01*
X286797Y514911D01*
X285189Y513303D01*
X284053Y511333D01*
X283464Y509137D01*
Y506863D01*
X284053Y504667D01*
X285189Y502697D01*
X286797Y501089D01*
X288767Y499953D01*
X290963Y499364D01*
X293237D01*
X295433Y499953D01*
X297403Y501089D01*
X299011Y502697D01*
X300147Y504667D01*
X300736Y506863D01*
Y509137D01*
X300147Y511333D01*
X299011Y513303D01*
X297403Y514911D01*
X295433Y516048D01*
X293237Y516636D01*
D02*
G37*
G36*
X267837D02*
X265563D01*
X263367Y516048D01*
X261397Y514911D01*
X259790Y513303D01*
X258652Y511333D01*
X258064Y509137D01*
Y506863D01*
X258652Y504667D01*
X259790Y502697D01*
X261397Y501089D01*
X263367Y499953D01*
X265563Y499364D01*
X267837D01*
X270033Y499953D01*
X272003Y501089D01*
X273610Y502697D01*
X274748Y504667D01*
X275336Y506863D01*
Y509137D01*
X274748Y511333D01*
X273610Y513303D01*
X272003Y514911D01*
X270033Y516048D01*
X267837Y516636D01*
D02*
G37*
G36*
X242437D02*
X240163D01*
X237967Y516048D01*
X235997Y514911D01*
X234389Y513303D01*
X233253Y511333D01*
X232664Y509137D01*
Y506863D01*
X233253Y504667D01*
X234389Y502697D01*
X235997Y501089D01*
X237967Y499953D01*
X240163Y499364D01*
X242437D01*
X244633Y499953D01*
X246603Y501089D01*
X248211Y502697D01*
X249347Y504667D01*
X249936Y506863D01*
Y509137D01*
X249347Y511333D01*
X248211Y513303D01*
X246603Y514911D01*
X244633Y516048D01*
X242437Y516636D01*
D02*
G37*
G36*
X217037D02*
X214763D01*
X212567Y516048D01*
X210597Y514911D01*
X208990Y513303D01*
X207852Y511333D01*
X207264Y509137D01*
Y506863D01*
X207852Y504667D01*
X208990Y502697D01*
X210597Y501089D01*
X212567Y499953D01*
X214763Y499364D01*
X217037D01*
X219233Y499953D01*
X221203Y501089D01*
X222811Y502697D01*
X223948Y504667D01*
X224536Y506863D01*
Y509137D01*
X223948Y511333D01*
X222811Y513303D01*
X221203Y514911D01*
X219233Y516048D01*
X217037Y516636D01*
D02*
G37*
G36*
X191637D02*
X189363D01*
X187167Y516048D01*
X185197Y514911D01*
X183589Y513303D01*
X182453Y511333D01*
X181864Y509137D01*
Y506863D01*
X182453Y504667D01*
X183589Y502697D01*
X185197Y501089D01*
X187167Y499953D01*
X189363Y499364D01*
X191637D01*
X193833Y499953D01*
X195803Y501089D01*
X197411Y502697D01*
X198547Y504667D01*
X199136Y506863D01*
Y509137D01*
X198547Y511333D01*
X197411Y513303D01*
X195803Y514911D01*
X193833Y516048D01*
X191637Y516636D01*
D02*
G37*
G36*
X173736Y507492D02*
X165608D01*
Y499364D01*
X166237D01*
X168433Y499953D01*
X170403Y501089D01*
X172010Y502697D01*
X173148Y504667D01*
X173736Y506863D01*
Y507492D01*
D02*
G37*
G36*
X164592D02*
X156464D01*
Y506863D01*
X157052Y504667D01*
X158189Y502697D01*
X159797Y501089D01*
X161767Y499953D01*
X163963Y499364D01*
X164592D01*
Y507492D01*
D02*
G37*
G36*
X686600Y498054D02*
X685000D01*
X683521Y497441D01*
X682389Y496309D01*
X681776Y494830D01*
Y493230D01*
X682389Y491751D01*
X683521Y490619D01*
X685000Y490006D01*
X686600D01*
X688079Y490619D01*
X689211Y491751D01*
X689824Y493230D01*
Y494830D01*
X689211Y496309D01*
X688079Y497441D01*
X686600Y498054D01*
D02*
G37*
G36*
X597700D02*
X596100D01*
X594621Y497441D01*
X593489Y496309D01*
X592876Y494830D01*
Y493230D01*
X593489Y491751D01*
X594621Y490619D01*
X596100Y490006D01*
X597700D01*
X599179Y490619D01*
X600311Y491751D01*
X600924Y493230D01*
Y494830D01*
X600311Y496309D01*
X599179Y497441D01*
X597700Y498054D01*
D02*
G37*
G36*
X508800D02*
X507200D01*
X505721Y497441D01*
X504589Y496309D01*
X503976Y494830D01*
Y493230D01*
X504589Y491751D01*
X505721Y490619D01*
X507200Y490006D01*
X508800D01*
X510279Y490619D01*
X511411Y491751D01*
X512024Y493230D01*
Y494830D01*
X511411Y496309D01*
X510279Y497441D01*
X508800Y498054D01*
D02*
G37*
G36*
X419900D02*
X418300D01*
X416821Y497441D01*
X415689Y496309D01*
X415076Y494830D01*
Y493230D01*
X415689Y491751D01*
X416821Y490619D01*
X418300Y490006D01*
X419900D01*
X421379Y490619D01*
X422511Y491751D01*
X423124Y493230D01*
Y494830D01*
X422511Y496309D01*
X421379Y497441D01*
X419900Y498054D01*
D02*
G37*
G36*
X331000D02*
X329400D01*
X327921Y497441D01*
X326789Y496309D01*
X326176Y494830D01*
Y493230D01*
X326789Y491751D01*
X327921Y490619D01*
X329400Y490006D01*
X331000D01*
X332479Y490619D01*
X333611Y491751D01*
X334224Y493230D01*
Y494830D01*
X333611Y496309D01*
X332479Y497441D01*
X331000Y498054D01*
D02*
G37*
G36*
X242100D02*
X240500D01*
X239021Y497441D01*
X237889Y496309D01*
X237276Y494830D01*
Y493230D01*
X237889Y491751D01*
X239021Y490619D01*
X240500Y490006D01*
X242100D01*
X243579Y490619D01*
X244711Y491751D01*
X245324Y493230D01*
Y494830D01*
X244711Y496309D01*
X243579Y497441D01*
X242100Y498054D01*
D02*
G37*
G36*
X153200D02*
X151600D01*
X150121Y497441D01*
X148989Y496309D01*
X148376Y494830D01*
Y493230D01*
X148989Y491751D01*
X150121Y490619D01*
X151600Y490006D01*
X153200D01*
X154679Y490619D01*
X155811Y491751D01*
X156424Y493230D01*
Y494830D01*
X155811Y496309D01*
X154679Y497441D01*
X153200Y498054D01*
D02*
G37*
G36*
X662479Y458216D02*
X658321D01*
X654214Y457566D01*
X650260Y456281D01*
X646555Y454393D01*
X643191Y451949D01*
X640251Y449009D01*
X637807Y445645D01*
X635919Y441940D01*
X634634Y437986D01*
X633984Y433879D01*
Y429721D01*
X634634Y425614D01*
X635919Y421660D01*
X637807Y417955D01*
X640251Y414591D01*
X643191Y411651D01*
X646555Y409207D01*
X650260Y407319D01*
X654214Y406034D01*
X658321Y405384D01*
X662479D01*
X666586Y406034D01*
X670540Y407319D01*
X674245Y409207D01*
X677609Y411651D01*
X680549Y414591D01*
X682993Y417955D01*
X684881Y421660D01*
X686166Y425614D01*
X686816Y429721D01*
Y433879D01*
X686166Y437986D01*
X684881Y441940D01*
X682993Y445645D01*
X680549Y449009D01*
X677609Y451949D01*
X674245Y454393D01*
X670540Y456281D01*
X666586Y457566D01*
X662479Y458216D01*
D02*
G37*
G36*
X2079D02*
X-2079D01*
X-6186Y457566D01*
X-10140Y456281D01*
X-13845Y454393D01*
X-17209Y451949D01*
X-20149Y449009D01*
X-22593Y445645D01*
X-24481Y441940D01*
X-25766Y437986D01*
X-26416Y433879D01*
Y429721D01*
X-25766Y425614D01*
X-24481Y421660D01*
X-22593Y417955D01*
X-20149Y414591D01*
X-17209Y411651D01*
X-13845Y409207D01*
X-10140Y407319D01*
X-6186Y406034D01*
X-2079Y405384D01*
X2079D01*
X6186Y406034D01*
X10140Y407319D01*
X13845Y409207D01*
X17209Y411651D01*
X20149Y414591D01*
X22593Y417955D01*
X24481Y421660D01*
X25766Y425614D01*
X26416Y429721D01*
Y433879D01*
X25766Y437986D01*
X24481Y441940D01*
X22593Y445645D01*
X20149Y449009D01*
X17209Y451949D01*
X13845Y454393D01*
X10140Y456281D01*
X6186Y457566D01*
X2079Y458216D01*
D02*
G37*
G36*
X642150Y409154D02*
X640550D01*
X639071Y408541D01*
X637939Y407409D01*
X637326Y405930D01*
Y404330D01*
X637939Y402851D01*
X639071Y401719D01*
X640550Y401106D01*
X642150D01*
X643629Y401719D01*
X644761Y402851D01*
X645374Y404330D01*
Y405930D01*
X644761Y407409D01*
X643629Y408541D01*
X642150Y409154D01*
D02*
G37*
G36*
X19850D02*
X18250D01*
X16771Y408541D01*
X15639Y407409D01*
X15026Y405930D01*
Y404330D01*
X15639Y402851D01*
X16771Y401719D01*
X18250Y401106D01*
X19850D01*
X21329Y401719D01*
X22461Y402851D01*
X23074Y404330D01*
Y405930D01*
X22461Y407409D01*
X21329Y408541D01*
X19850Y409154D01*
D02*
G37*
G36*
X687866Y405320D02*
X686274D01*
X684804Y404711D01*
X683679Y403586D01*
X683070Y402116D01*
Y400524D01*
X683679Y399054D01*
X684804Y397929D01*
X686274Y397320D01*
X687866D01*
X689336Y397929D01*
X690461Y399054D01*
X691070Y400524D01*
Y402116D01*
X690461Y403586D01*
X689336Y404711D01*
X687866Y405320D01*
D02*
G37*
G36*
X265986Y404050D02*
X264394D01*
X262924Y403441D01*
X261799Y402316D01*
X261190Y400846D01*
Y399254D01*
X261799Y397784D01*
X262924Y396659D01*
X264394Y396050D01*
X265986D01*
X267456Y396659D01*
X268581Y397784D01*
X269190Y399254D01*
Y400846D01*
X268581Y402316D01*
X267456Y403441D01*
X265986Y404050D01*
D02*
G37*
G36*
X497366Y397700D02*
X495774D01*
X494304Y397091D01*
X493179Y395966D01*
X492812Y395081D01*
X491438D01*
X491071Y395966D01*
X489946Y397091D01*
X488476Y397700D01*
X486884D01*
X485414Y397091D01*
X484289Y395966D01*
X483922Y395081D01*
X482548D01*
X482181Y395966D01*
X481056Y397091D01*
X479586Y397700D01*
X477994D01*
X476524Y397091D01*
X475399Y395966D01*
X475032Y395081D01*
X473658D01*
X473291Y395966D01*
X472166Y397091D01*
X470696Y397700D01*
X469104D01*
X467634Y397091D01*
X466509Y395966D01*
X465900Y394496D01*
Y392904D01*
X466509Y391434D01*
X467634Y390309D01*
X469104Y389700D01*
X470613D01*
X470810Y389477D01*
X471275Y388565D01*
X445278Y362568D01*
X444913Y362022D01*
X444785Y361378D01*
Y312299D01*
X444913Y311655D01*
X445278Y311109D01*
X467285Y289101D01*
X467634Y287871D01*
X466509Y286746D01*
X465900Y285276D01*
Y283684D01*
X466509Y282214D01*
X467634Y281089D01*
X469104Y280480D01*
X470696D01*
X471466Y280799D01*
X472186Y279723D01*
X471589Y279126D01*
X470980Y277656D01*
Y276064D01*
X471589Y274594D01*
X472714Y273469D01*
X474184Y272860D01*
X475776D01*
X477246Y273469D01*
X478371Y274594D01*
X478980Y276064D01*
Y277656D01*
X478371Y279126D01*
X477246Y280251D01*
X475776Y280860D01*
X474184D01*
X473414Y280541D01*
X472694Y281617D01*
X473291Y282214D01*
X473900Y283684D01*
Y283923D01*
X475170Y284449D01*
X485587Y274032D01*
X485418Y272665D01*
X485388Y272605D01*
X484289Y271506D01*
X483680Y270036D01*
Y268444D01*
X484289Y266974D01*
X485414Y265849D01*
X486884Y265240D01*
X488476D01*
X489946Y265849D01*
X491071Y266974D01*
X491680Y268444D01*
Y270036D01*
X491071Y271506D01*
X489946Y272631D01*
X489396Y272859D01*
X489363Y272927D01*
Y274320D01*
X489235Y274964D01*
X488870Y275510D01*
X450437Y313943D01*
Y359157D01*
X468115Y376834D01*
X472498D01*
X473142Y376963D01*
X473688Y377327D01*
X486263Y389902D01*
X486334Y389928D01*
X486884Y389700D01*
X488476D01*
X489946Y390309D01*
X491071Y391434D01*
X491438Y392319D01*
X492812D01*
X493179Y391434D01*
X494304Y390309D01*
X495774Y389700D01*
X497366D01*
X498836Y390309D01*
X499961Y391434D01*
X500570Y392904D01*
Y394496D01*
X499961Y395966D01*
X498836Y397091D01*
X497366Y397700D01*
D02*
G37*
G36*
X452916Y396430D02*
X451324D01*
X449854Y395821D01*
X448729Y394696D01*
X448362Y393811D01*
X446988D01*
X446621Y394696D01*
X445496Y395821D01*
X444026Y396430D01*
X442434D01*
X440964Y395821D01*
X439839Y394696D01*
X439472Y393811D01*
X438098D01*
X437731Y394696D01*
X436606Y395821D01*
X435136Y396430D01*
X433544D01*
X432074Y395821D01*
X430949Y394696D01*
X430582Y393811D01*
X429208D01*
X428841Y394696D01*
X427716Y395821D01*
X426246Y396430D01*
X424654D01*
X423184Y395821D01*
X422059Y394696D01*
X421692Y393811D01*
X420318D01*
X419951Y394696D01*
X418826Y395821D01*
X417356Y396430D01*
X415764D01*
X414294Y395821D01*
X413169Y394696D01*
X412560Y393226D01*
Y391634D01*
X413169Y390164D01*
X414294Y389039D01*
X415764Y388430D01*
X417356D01*
X418826Y389039D01*
X419951Y390164D01*
X420318Y391049D01*
X421692D01*
X422059Y390164D01*
X423184Y389039D01*
X424654Y388430D01*
X426246D01*
X426796Y388658D01*
X426867Y388632D01*
X430117Y385383D01*
Y334271D01*
X407750Y311905D01*
X407385Y311358D01*
X407257Y310714D01*
Y280097D01*
X405277Y278118D01*
X405206Y278092D01*
X404656Y278320D01*
X403064D01*
X401594Y277711D01*
X401510Y277627D01*
X401122Y277636D01*
X400094Y278007D01*
X399631Y279126D01*
X398506Y280251D01*
X397036Y280860D01*
X395444D01*
X393974Y280251D01*
X393890Y280167D01*
X393502Y280176D01*
X392474Y280547D01*
X392011Y281666D01*
X390886Y282791D01*
X389416Y283400D01*
X387824D01*
X386354Y282791D01*
X385229Y281666D01*
X384620Y280196D01*
Y278604D01*
X385229Y277134D01*
X386354Y276009D01*
X387824Y275400D01*
X389416D01*
X390050Y274296D01*
X390415Y273750D01*
X417468Y246697D01*
X416982Y245523D01*
X388620D01*
X387976Y245395D01*
X387430Y245030D01*
X382350Y239950D01*
X381985Y239404D01*
X381857Y238760D01*
Y222127D01*
X381824Y222059D01*
X381274Y221831D01*
X380149Y220706D01*
X379540Y219236D01*
Y217644D01*
X380149Y216174D01*
X381274Y215049D01*
X382744Y214440D01*
X384336D01*
X385806Y215049D01*
X386931Y216174D01*
X387540Y217644D01*
Y219236D01*
X386931Y220706D01*
X385806Y221831D01*
X385256Y222059D01*
X385223Y222127D01*
Y238063D01*
X389317Y242157D01*
X418403D01*
X426038Y234522D01*
X426584Y234157D01*
X426903Y234093D01*
X426778Y232823D01*
X422337D01*
X418195Y236965D01*
X417649Y237330D01*
X417005Y237458D01*
X408771D01*
X408127Y237330D01*
X408094Y237308D01*
X407196Y237680D01*
X405604D01*
X404134Y237071D01*
X404050Y236987D01*
X403662Y236996D01*
X402634Y237367D01*
X402171Y238486D01*
X401046Y239611D01*
X399576Y240220D01*
X397984D01*
X396514Y239611D01*
X395389Y238486D01*
X394780Y237016D01*
Y235424D01*
X395389Y233954D01*
X396514Y232829D01*
X397984Y232220D01*
X398810D01*
X399043Y232024D01*
X399208Y231864D01*
X399328Y231817D01*
X405830Y225315D01*
X406376Y224950D01*
X407020Y224822D01*
X443675D01*
X444319Y224950D01*
X444865Y225315D01*
X446467Y226917D01*
X578423D01*
X597936Y207403D01*
X597450Y206230D01*
X576120Y206230D01*
X575342Y205908D01*
X575020Y205130D01*
Y153830D01*
X557820D01*
X557042Y153508D01*
X556720Y152730D01*
Y137730D01*
X557042Y136952D01*
X557820Y136630D01*
X575020D01*
Y117530D01*
X575342Y116752D01*
X576120Y116430D01*
X599120D01*
X599898Y116752D01*
X600220Y117530D01*
Y137284D01*
X601490Y137810D01*
X606810Y132490D01*
X607356Y132125D01*
X608000Y131997D01*
X628133D01*
X628201Y131964D01*
X628429Y131414D01*
X629554Y130289D01*
X631024Y129680D01*
X632616D01*
X634086Y130289D01*
X635211Y131414D01*
X635820Y132884D01*
Y134476D01*
X635211Y135946D01*
X634086Y137071D01*
X632616Y137680D01*
X631024D01*
X629554Y137071D01*
X628429Y135946D01*
X628201Y135396D01*
X628133Y135363D01*
X608697D01*
X603663Y140397D01*
Y158107D01*
X604837Y158593D01*
X608940Y154490D01*
X609486Y154125D01*
X610130Y153997D01*
X628133D01*
X628201Y153964D01*
X628429Y153414D01*
X629554Y152289D01*
X631024Y151680D01*
X632616D01*
X634086Y152289D01*
X635211Y153414D01*
X635820Y154884D01*
Y156476D01*
X635211Y157946D01*
X634086Y159071D01*
X632616Y159680D01*
X631024D01*
X629554Y159071D01*
X628429Y157946D01*
X628201Y157396D01*
X628133Y157363D01*
X610827D01*
X605949Y162241D01*
Y199511D01*
X607123Y199997D01*
X628022Y179097D01*
X628048Y179026D01*
X627820Y178476D01*
Y176884D01*
X628429Y175414D01*
X629554Y174289D01*
X631024Y173680D01*
X632616D01*
X634086Y174289D01*
X635211Y175414D01*
X635820Y176884D01*
Y178476D01*
X635211Y179946D01*
X634086Y181071D01*
X632616Y181680D01*
X631024D01*
X630474Y181452D01*
X630403Y181478D01*
X628374Y183507D01*
X628885Y184792D01*
X630086Y185289D01*
X631211Y186414D01*
X631820Y187884D01*
Y189476D01*
X631211Y190946D01*
X630086Y192071D01*
X628616Y192680D01*
X627024D01*
X626474Y192452D01*
X626403Y192478D01*
X610521Y208359D01*
Y208581D01*
X610393Y209225D01*
X610028Y209771D01*
X582897Y236902D01*
X582351Y237267D01*
X581707Y237395D01*
X498848D01*
X498322Y238665D01*
X498691Y239034D01*
X499300Y240504D01*
Y242096D01*
X498691Y243566D01*
X497566Y244691D01*
X496096Y245300D01*
X494504D01*
X493034Y244691D01*
X492437Y244094D01*
X491361Y244814D01*
X491680Y245584D01*
Y247176D01*
X491071Y248646D01*
X489946Y249771D01*
X488476Y250380D01*
X486884D01*
X485414Y249771D01*
X484289Y248646D01*
X483680Y247176D01*
Y245584D01*
X483908Y245034D01*
X483882Y244963D01*
X481903Y242983D01*
X431022D01*
X404859Y269147D01*
X405240Y270562D01*
X406126Y270929D01*
X406210Y271013D01*
X406598Y271004D01*
X407626Y270633D01*
X408089Y269514D01*
X409214Y268389D01*
X410684Y267780D01*
X412276D01*
X413746Y268389D01*
X413830Y268473D01*
X414218Y268464D01*
X415246Y268093D01*
X415709Y266974D01*
X416834Y265849D01*
X418304Y265240D01*
X419896D01*
X421366Y265849D01*
X422491Y266974D01*
X423100Y268444D01*
Y270036D01*
X422491Y271506D01*
X421366Y272631D01*
X420816Y272859D01*
X420783Y272927D01*
Y274320D01*
X420655Y274964D01*
X420290Y275510D01*
X415703Y280097D01*
Y308631D01*
X437562Y330490D01*
X437927Y331036D01*
X438055Y331680D01*
Y384875D01*
X441813Y388632D01*
X441884Y388658D01*
X442434Y388430D01*
X444026D01*
X445496Y389039D01*
X446621Y390164D01*
X446988Y391049D01*
X448362D01*
X448729Y390164D01*
X449854Y389039D01*
X451324Y388430D01*
X452916D01*
X454386Y389039D01*
X455511Y390164D01*
X456120Y391634D01*
Y393226D01*
X455511Y394696D01*
X454386Y395821D01*
X452916Y396430D01*
D02*
G37*
G36*
X337346Y373570D02*
X335754D01*
X334284Y372961D01*
X333159Y371836D01*
X332550Y370366D01*
Y368774D01*
X333159Y367304D01*
X334284Y366179D01*
X335754Y365570D01*
X337346D01*
X338816Y366179D01*
X339941Y367304D01*
X340550Y368774D01*
Y370366D01*
X339941Y371836D01*
X338816Y372961D01*
X337346Y373570D01*
D02*
G37*
G36*
X322106D02*
X320514D01*
X319044Y372961D01*
X317919Y371836D01*
X317310Y370366D01*
Y368774D01*
X317919Y367304D01*
X319044Y366179D01*
X320514Y365570D01*
X322106D01*
X323576Y366179D01*
X324701Y367304D01*
X325310Y368774D01*
Y370366D01*
X324701Y371836D01*
X323576Y372961D01*
X322106Y373570D01*
D02*
G37*
G36*
X306866D02*
X305274D01*
X303804Y372961D01*
X302679Y371836D01*
X302070Y370366D01*
Y368774D01*
X302679Y367304D01*
X303804Y366179D01*
X305274Y365570D01*
X306866D01*
X308336Y366179D01*
X309461Y367304D01*
X310070Y368774D01*
Y370366D01*
X309461Y371836D01*
X308336Y372961D01*
X306866Y373570D01*
D02*
G37*
G36*
X678890Y376985D02*
X665890D01*
X664518Y376712D01*
X663355Y375935D01*
X662578Y374772D01*
X662305Y373400D01*
Y368400D01*
X662578Y367028D01*
X663355Y365865D01*
X664518Y365088D01*
X665890Y364815D01*
X678890D01*
X680262Y365088D01*
X681425Y365865D01*
X682202Y367028D01*
X682475Y368400D01*
Y373400D01*
X682202Y374772D01*
X681425Y375935D01*
X680262Y376712D01*
X678890Y376985D01*
D02*
G37*
G36*
X636090Y377034D02*
X625090D01*
X622743Y376567D01*
X620753Y375237D01*
X619423Y373247D01*
X618956Y370900D01*
X619423Y368553D01*
X620753Y366563D01*
X622743Y365233D01*
X625090Y364766D01*
X636090D01*
X638437Y365233D01*
X640427Y366563D01*
X641757Y368553D01*
X642224Y370900D01*
X641757Y373247D01*
X640427Y375237D01*
X638437Y376567D01*
X636090Y377034D01*
D02*
G37*
G36*
X127686Y365950D02*
X126094D01*
X124624Y365341D01*
X123499Y364216D01*
X122890Y362746D01*
Y361154D01*
X123499Y359684D01*
X124624Y358559D01*
X126094Y357950D01*
X127686D01*
X129156Y358559D01*
X130281Y359684D01*
X130890Y361154D01*
Y362746D01*
X130281Y364216D01*
X129156Y365341D01*
X127686Y365950D01*
D02*
G37*
G36*
X398306Y363410D02*
X396714D01*
X395244Y362801D01*
X394119Y361676D01*
X393510Y360206D01*
Y358614D01*
X394119Y357144D01*
X395244Y356019D01*
X396714Y355410D01*
X398306D01*
X399776Y356019D01*
X400901Y357144D01*
X401510Y358614D01*
Y360206D01*
X400901Y361676D01*
X399776Y362801D01*
X398306Y363410D01*
D02*
G37*
G36*
X383066D02*
X381474D01*
X380004Y362801D01*
X378879Y361676D01*
X378270Y360206D01*
Y358614D01*
X378879Y357144D01*
X380004Y356019D01*
X381474Y355410D01*
X383066D01*
X384536Y356019D01*
X385661Y357144D01*
X386270Y358614D01*
Y360206D01*
X385661Y361676D01*
X384536Y362801D01*
X383066Y363410D01*
D02*
G37*
G36*
X367826D02*
X366234D01*
X364764Y362801D01*
X363639Y361676D01*
X363030Y360206D01*
Y358614D01*
X363639Y357144D01*
X364764Y356019D01*
X366234Y355410D01*
X367826D01*
X369296Y356019D01*
X370421Y357144D01*
X371030Y358614D01*
Y360206D01*
X370421Y361676D01*
X369296Y362801D01*
X367826Y363410D01*
D02*
G37*
G36*
X61341Y370901D02*
X40259D01*
Y354899D01*
X61341D01*
Y370901D01*
D02*
G37*
G36*
X636734Y362350D02*
X634446D01*
X632333Y361475D01*
X630715Y359857D01*
X629840Y357744D01*
Y355456D01*
X630715Y353343D01*
X632333Y351725D01*
X634446Y350850D01*
X636734D01*
X638847Y351725D01*
X640465Y353343D01*
X641340Y355456D01*
Y357744D01*
X640465Y359857D01*
X638847Y361475D01*
X636734Y362350D01*
D02*
G37*
G36*
X469981Y355825D02*
X468389D01*
X466919Y355216D01*
X465794Y354091D01*
X465185Y352621D01*
Y351030D01*
X465794Y349559D01*
X466919Y348434D01*
X468389Y347825D01*
X469981D01*
X471451Y348434D01*
X472576Y349559D01*
X473185Y351030D01*
Y352621D01*
X472576Y354091D01*
X471451Y355216D01*
X469981Y355825D01*
D02*
G37*
G36*
X588251Y355675D02*
X586659D01*
X585189Y355066D01*
X584064Y353941D01*
X583455Y352471D01*
Y350880D01*
X584064Y349409D01*
X585189Y348284D01*
X586659Y347675D01*
X588251D01*
X589721Y348284D01*
X590846Y349409D01*
X591455Y350880D01*
Y352471D01*
X590846Y353941D01*
X589721Y355066D01*
X588251Y355675D01*
D02*
G37*
G36*
X221776Y354520D02*
X220184D01*
X218714Y353911D01*
X217589Y352786D01*
X216980Y351316D01*
Y349724D01*
X217589Y348254D01*
X218714Y347129D01*
X220184Y346520D01*
X221776D01*
X223246Y347129D01*
X224371Y348254D01*
X224980Y349724D01*
Y351316D01*
X224371Y352786D01*
X223246Y353911D01*
X221776Y354520D01*
D02*
G37*
G36*
X53340Y350970D02*
X51308D01*
Y343408D01*
X61343D01*
X61135Y344989D01*
X60329Y346935D01*
X59046Y348606D01*
X57375Y349889D01*
X55429Y350695D01*
X53340Y350970D01*
D02*
G37*
G36*
X50292D02*
X48260D01*
X46171Y350695D01*
X44225Y349889D01*
X42554Y348606D01*
X41271Y346935D01*
X40465Y344989D01*
X40257Y343408D01*
X50292D01*
Y350970D01*
D02*
G37*
G36*
X140837Y516636D02*
X138563D01*
X136367Y516048D01*
X134397Y514911D01*
X132789Y513303D01*
X131652Y511333D01*
X131064Y509137D01*
Y508133D01*
X130981Y507940D01*
X130945Y505547D01*
X130790Y503598D01*
X130672Y502808D01*
X130529Y502124D01*
X130365Y501561D01*
X130190Y501123D01*
X130019Y500816D01*
X129794Y500539D01*
X129767Y500448D01*
X88980Y459660D01*
X88615Y459114D01*
X88487Y458470D01*
Y383418D01*
X88454Y383349D01*
X87904Y383121D01*
X86779Y381996D01*
X86170Y380526D01*
Y378934D01*
X86779Y377464D01*
X87904Y376339D01*
X89374Y375730D01*
X90966D01*
X91516Y375958D01*
X91587Y375932D01*
X125810Y341710D01*
X126356Y341345D01*
X127000Y341217D01*
X209673D01*
X209741Y341184D01*
X209969Y340634D01*
X211094Y339509D01*
X212564Y338900D01*
X214156D01*
X215626Y339509D01*
X216751Y340634D01*
X217360Y342104D01*
Y343696D01*
X216751Y345166D01*
X215626Y346291D01*
X214156Y346900D01*
X212564D01*
X211094Y346291D01*
X209969Y345166D01*
X209741Y344616D01*
X209673Y344583D01*
X127697D01*
X97685Y374595D01*
X98150Y375507D01*
X98347Y375730D01*
X99856D01*
X101326Y376339D01*
X102451Y377464D01*
X103060Y378934D01*
Y380526D01*
X102451Y381996D01*
X101326Y383121D01*
X99856Y383730D01*
X98264D01*
X96794Y383121D01*
X95669Y381996D01*
X95302Y381111D01*
X93928D01*
X93561Y381996D01*
X92436Y383121D01*
X91886Y383349D01*
X91853Y383418D01*
Y457773D01*
X132148Y498067D01*
X132239Y498094D01*
X132516Y498319D01*
X132823Y498490D01*
X133261Y498665D01*
X133825Y498829D01*
X134508Y498972D01*
X135288Y499088D01*
X138393Y499278D01*
X139626Y499281D01*
X139826Y499364D01*
X140837D01*
X143033Y499953D01*
X145003Y501089D01*
X146610Y502697D01*
X147747Y504667D01*
X148336Y506863D01*
Y509137D01*
X147747Y511333D01*
X146610Y513303D01*
X145003Y514911D01*
X143033Y516048D01*
X140837Y516636D01*
D02*
G37*
G36*
X529116Y353250D02*
X527524D01*
X526054Y352641D01*
X524929Y351516D01*
X524320Y350046D01*
Y348454D01*
X524929Y346984D01*
X525943Y345970D01*
X526003Y345250D01*
X525943Y344530D01*
X524929Y343516D01*
X524320Y342046D01*
Y340454D01*
X524929Y338984D01*
X526054Y337859D01*
X527524Y337250D01*
X529116D01*
X530586Y337859D01*
X531711Y338984D01*
X532320Y340454D01*
Y342046D01*
X531711Y343516D01*
X530697Y344530D01*
X530637Y345250D01*
X530697Y345970D01*
X531711Y346984D01*
X532320Y348454D01*
Y350046D01*
X531711Y351516D01*
X530586Y352641D01*
X529116Y353250D01*
D02*
G37*
G36*
X508796Y342900D02*
X507204D01*
X505734Y342291D01*
X504609Y341166D01*
X504000Y339696D01*
Y338104D01*
X504609Y336634D01*
X505734Y335509D01*
X507204Y334900D01*
X508796D01*
X510266Y335509D01*
X511391Y336634D01*
X512000Y338104D01*
Y339696D01*
X511391Y341166D01*
X510266Y342291D01*
X508796Y342900D01*
D02*
G37*
G36*
X61343Y342392D02*
X51308D01*
Y334830D01*
X53340D01*
X55429Y335105D01*
X57375Y335911D01*
X59046Y337194D01*
X60329Y338865D01*
X61135Y340811D01*
X61343Y342392D01*
D02*
G37*
G36*
X50292D02*
X40257D01*
X40465Y340811D01*
X41271Y338865D01*
X42554Y337194D01*
X44225Y335911D01*
X46171Y335105D01*
X48260Y334830D01*
X50292D01*
Y342392D01*
D02*
G37*
G36*
X610396Y339280D02*
X608804D01*
X607334Y338671D01*
X606209Y337546D01*
X605600Y336076D01*
Y334484D01*
X606209Y333014D01*
X607334Y331889D01*
X608804Y331280D01*
X610396D01*
X611866Y331889D01*
X612991Y333014D01*
X613600Y334484D01*
Y336076D01*
X612991Y337546D01*
X611866Y338671D01*
X610396Y339280D01*
D02*
G37*
G36*
X574911Y338785D02*
X573319D01*
X571849Y338176D01*
X570724Y337051D01*
X570115Y335581D01*
Y333989D01*
X570724Y332519D01*
X571849Y331394D01*
X573319Y330785D01*
X574911D01*
X576381Y331394D01*
X577506Y332519D01*
X578115Y333989D01*
Y335581D01*
X577506Y337051D01*
X576381Y338176D01*
X574911Y338785D01*
D02*
G37*
G36*
X483471D02*
X481879D01*
X480409Y338176D01*
X479284Y337051D01*
X478675Y335581D01*
Y333989D01*
X479284Y332519D01*
X480409Y331394D01*
X481879Y330785D01*
X483471D01*
X484941Y331394D01*
X486066Y332519D01*
X486675Y333989D01*
Y335581D01*
X486066Y337051D01*
X484941Y338176D01*
X483471Y338785D01*
D02*
G37*
G36*
X639606Y329120D02*
X638014D01*
X636544Y328511D01*
X635419Y327386D01*
X635244Y326964D01*
X635176Y326933D01*
X613234D01*
X613166Y326964D01*
X612991Y327386D01*
X611866Y328511D01*
X610396Y329120D01*
X608804D01*
X607334Y328511D01*
X606209Y327386D01*
X605600Y325916D01*
Y324324D01*
X606209Y322854D01*
X607334Y321729D01*
X608219Y321362D01*
Y319988D01*
X607334Y319621D01*
X606209Y318496D01*
X605600Y317026D01*
Y315434D01*
X606209Y313964D01*
X607334Y312839D01*
X608804Y312230D01*
X610396D01*
X611866Y312839D01*
X612991Y313964D01*
X613600Y315434D01*
Y317026D01*
X612991Y318496D01*
X611866Y319621D01*
X610981Y319988D01*
Y321362D01*
X611866Y321729D01*
X612991Y322854D01*
X613166Y323276D01*
X613234Y323307D01*
X635176D01*
X635244Y323276D01*
X635419Y322854D01*
X636544Y321729D01*
X638014Y321120D01*
X639606D01*
X641076Y321729D01*
X642201Y322854D01*
X642810Y324324D01*
Y325916D01*
X642201Y327386D01*
X641076Y328511D01*
X639606Y329120D01*
D02*
G37*
G36*
X649766D02*
X648174D01*
X646704Y328511D01*
X645579Y327386D01*
X644970Y325916D01*
Y324324D01*
X645579Y322854D01*
X646704Y321729D01*
X648174Y321120D01*
X649766D01*
X651236Y321729D01*
X652361Y322854D01*
X652970Y324324D01*
Y325916D01*
X652361Y327386D01*
X651236Y328511D01*
X649766Y329120D01*
D02*
G37*
G36*
X53340Y330970D02*
X48260D01*
X46171Y330695D01*
X44225Y329889D01*
X42554Y328606D01*
X41271Y326935D01*
X40465Y324989D01*
X40190Y322900D01*
X40465Y320811D01*
X41271Y318865D01*
X42554Y317194D01*
X44225Y315911D01*
X46171Y315105D01*
X48260Y314830D01*
X53340D01*
X55429Y315105D01*
X57375Y315911D01*
X59046Y317194D01*
X60329Y318865D01*
X61135Y320811D01*
X61410Y322900D01*
X61135Y324989D01*
X60329Y326935D01*
X59046Y328606D01*
X57375Y329889D01*
X55429Y330695D01*
X53340Y330970D01*
D02*
G37*
G36*
X508800Y320254D02*
X507200D01*
X505721Y319641D01*
X504589Y318509D01*
X503976Y317030D01*
Y315430D01*
X504589Y313951D01*
X505721Y312819D01*
X507200Y312206D01*
X508800D01*
X510279Y312819D01*
X511411Y313951D01*
X512024Y315430D01*
Y317030D01*
X511411Y318509D01*
X510279Y319641D01*
X508800Y320254D01*
D02*
G37*
G36*
X122574Y316420D02*
X120982D01*
X119512Y315811D01*
X118387Y314686D01*
X117778Y313216D01*
Y311624D01*
X118387Y310154D01*
X119512Y309029D01*
X120982Y308420D01*
X122574D01*
X124044Y309029D01*
X125169Y310154D01*
X125778Y311624D01*
Y313216D01*
X125169Y314686D01*
X124044Y315811D01*
X122574Y316420D01*
D02*
G37*
G36*
X636734Y304550D02*
X634446D01*
X632333Y303675D01*
X630715Y302057D01*
X629840Y299944D01*
Y297656D01*
X630715Y295543D01*
X632333Y293925D01*
X634446Y293050D01*
X636734D01*
X638847Y293925D01*
X640465Y295543D01*
X641340Y297656D01*
Y299944D01*
X640465Y302057D01*
X638847Y303675D01*
X636734Y304550D01*
D02*
G37*
G36*
X557820Y406191D02*
X288730D01*
X287838Y406013D01*
X287082Y405508D01*
X62975Y181401D01*
X17157D01*
X17070Y181439D01*
X16802Y181446D01*
X16588Y181463D01*
X16522Y181624D01*
X15254Y182892D01*
X13597Y183578D01*
X11803D01*
X10146Y182892D01*
X8878Y181624D01*
X8192Y179967D01*
Y178173D01*
X8878Y176516D01*
X10146Y175248D01*
X11803Y174562D01*
X13597D01*
X15254Y175248D01*
X16522Y176516D01*
X16588Y176677D01*
X16802Y176694D01*
X17070Y176701D01*
X17157Y176739D01*
X63940D01*
X64832Y176917D01*
X65588Y177422D01*
X289696Y401529D01*
X556855D01*
X605975Y352409D01*
X605980Y352396D01*
Y351004D01*
X605975Y350991D01*
X600332Y345348D01*
X599827Y344592D01*
X599649Y343700D01*
Y311700D01*
X599827Y310808D01*
X600332Y310052D01*
X605975Y304409D01*
X605980Y304396D01*
Y302904D01*
X606589Y301434D01*
X607603Y300420D01*
X607663Y299700D01*
X607603Y298980D01*
X606589Y297966D01*
X605980Y296496D01*
Y294904D01*
X606589Y293434D01*
X607714Y292309D01*
X609184Y291700D01*
X610776D01*
X612246Y292309D01*
X613371Y293434D01*
X613980Y294904D01*
Y296496D01*
X613371Y297966D01*
X612357Y298980D01*
X612297Y299700D01*
X612357Y300420D01*
X613371Y301434D01*
X613980Y302904D01*
Y304496D01*
X613371Y305966D01*
X612246Y307091D01*
X610776Y307700D01*
X609284D01*
X609271Y307705D01*
X604311Y312665D01*
Y342734D01*
X609271Y347695D01*
X609284Y347700D01*
X610776D01*
X612246Y348309D01*
X613371Y349434D01*
X613980Y350904D01*
Y352496D01*
X613371Y353966D01*
X612357Y354980D01*
X612297Y355700D01*
X612357Y356420D01*
X613371Y357434D01*
X613980Y358904D01*
Y360496D01*
X613371Y361966D01*
X612246Y363091D01*
X610776Y363700D01*
X609184D01*
X607714Y363091D01*
X606589Y361966D01*
X606067Y360705D01*
X604807Y360169D01*
X559468Y405508D01*
X558712Y406013D01*
X557820Y406191D01*
D02*
G37*
G36*
X124074Y295740D02*
X122482D01*
X121012Y295131D01*
X119887Y294006D01*
X119278Y292536D01*
Y290944D01*
X119887Y289474D01*
X121012Y288349D01*
X122482Y287740D01*
X124074D01*
X125544Y288349D01*
X126669Y289474D01*
X127278Y290944D01*
Y292536D01*
X126669Y294006D01*
X125544Y295131D01*
X124074Y295740D01*
D02*
G37*
G36*
X440216Y290350D02*
X438624D01*
X437154Y289741D01*
X436029Y288616D01*
X435420Y287146D01*
Y285554D01*
X436029Y284084D01*
X437154Y282959D01*
X438624Y282350D01*
X440216D01*
X441686Y282959D01*
X442811Y284084D01*
X443420Y285554D01*
Y287146D01*
X442811Y288616D01*
X441686Y289741D01*
X440216Y290350D01*
D02*
G37*
G36*
X229396Y331660D02*
X227804D01*
X226334Y331051D01*
X225209Y329926D01*
X224600Y328456D01*
Y326864D01*
X225209Y325394D01*
X226334Y324269D01*
X227804Y323660D01*
X229396D01*
X229946Y323888D01*
X230017Y323862D01*
X271623Y282257D01*
X271137Y281083D01*
X247184D01*
X247176Y282350D01*
X248646Y282959D01*
X249771Y284084D01*
X250380Y285554D01*
Y287146D01*
X249771Y288616D01*
X248646Y289741D01*
X247176Y290350D01*
X245584D01*
X244114Y289741D01*
X242989Y288616D01*
X242380Y287146D01*
Y285554D01*
X242989Y284084D01*
X244114Y282959D01*
X245584Y282350D01*
X245576Y281083D01*
X180340D01*
X179696Y280955D01*
X179150Y280590D01*
X29970Y131410D01*
X29872Y131379D01*
X29684Y131221D01*
X29503Y131111D01*
X29247Y130996D01*
X28916Y130885D01*
X28510Y130786D01*
X28058Y130705D01*
X26179Y130563D01*
X25445Y130560D01*
X25246Y130476D01*
X24203D01*
X21992Y129560D01*
X20300Y127868D01*
X19384Y125657D01*
Y123263D01*
X20300Y121052D01*
X21992Y119360D01*
X23350Y118797D01*
Y117423D01*
X21992Y116860D01*
X20300Y115168D01*
X19384Y112957D01*
Y110563D01*
X20300Y108352D01*
X21992Y106660D01*
X23350Y106097D01*
Y104723D01*
X21992Y104160D01*
X20300Y102468D01*
X19384Y100257D01*
Y97863D01*
X20300Y95652D01*
X21992Y93960D01*
X23350Y93397D01*
Y92023D01*
X21992Y91460D01*
X20300Y89768D01*
X19384Y87557D01*
Y85163D01*
X20300Y82952D01*
X21992Y81260D01*
X23350Y80697D01*
Y79323D01*
X21992Y78760D01*
X20300Y77068D01*
X19384Y74857D01*
Y72463D01*
X20300Y70252D01*
X21992Y68560D01*
X24203Y67644D01*
X25246D01*
X25445Y67561D01*
X26190Y67557D01*
X27499Y67484D01*
X28034Y67419D01*
X28510Y67334D01*
X28916Y67235D01*
X29247Y67124D01*
X29503Y67009D01*
X29684Y66899D01*
X29872Y66740D01*
X29970Y66710D01*
X39005Y57675D01*
X39551Y57310D01*
X40195Y57182D01*
X74105D01*
X74749Y57310D01*
X75295Y57675D01*
X261047Y243427D01*
X283245D01*
X283498Y242157D01*
X283484Y242151D01*
X282359Y241026D01*
X281750Y239556D01*
Y237964D01*
X281978Y237414D01*
X281952Y237343D01*
X265510Y220900D01*
X265145Y220354D01*
X265017Y219710D01*
Y170877D01*
X228787Y134648D01*
X186833D01*
X186189Y134519D01*
X185643Y134154D01*
X145749Y94260D01*
X145384Y93714D01*
X145256Y93070D01*
Y-1582D01*
X145384Y-2226D01*
X145749Y-2772D01*
X153043Y-10067D01*
X152737Y-10836D01*
X152421Y-11240D01*
X150984D01*
X149514Y-11849D01*
X148389Y-12974D01*
X147780Y-14444D01*
Y-16036D01*
X148389Y-17506D01*
X149514Y-18631D01*
X150984Y-19240D01*
X152576D01*
X154046Y-18631D01*
X155171Y-17506D01*
X155780Y-16036D01*
Y-14599D01*
X156184Y-14283D01*
X156953Y-13977D01*
X163217Y-20240D01*
X163763Y-20605D01*
X164407Y-20733D01*
X358299D01*
X358943Y-20605D01*
X359489Y-20240D01*
X364787Y-14942D01*
X365152Y-14396D01*
X365270Y-13805D01*
X365280Y-13800D01*
X495300D01*
X496078Y-13478D01*
X506238Y-3318D01*
X506560Y-2540D01*
Y104140D01*
X506238Y104918D01*
X496078Y115078D01*
X495300Y115400D01*
X176542D01*
X176056Y116573D01*
X188477Y128995D01*
X230431D01*
X231075Y129123D01*
X231621Y129488D01*
X270176Y168043D01*
X270541Y168589D01*
X270669Y169233D01*
Y207329D01*
X291953Y228612D01*
X292024Y228638D01*
X292574Y228410D01*
X294166D01*
X295636Y229019D01*
X296761Y230144D01*
X297370Y231614D01*
Y232071D01*
X298640Y232597D01*
X307638Y223600D01*
X308184Y223235D01*
X308828Y223107D01*
X348165D01*
X348809Y223235D01*
X349355Y223600D01*
X358060Y232305D01*
X358425Y232851D01*
X358553Y233495D01*
Y235072D01*
X358586Y235141D01*
X359136Y235369D01*
X360261Y236494D01*
X360870Y237964D01*
Y239556D01*
X360261Y241026D01*
X359136Y242151D01*
X357666Y242760D01*
X356074D01*
X354604Y242151D01*
X353479Y241026D01*
X353112Y240141D01*
X351738D01*
X351371Y241026D01*
X350246Y242151D01*
X348776Y242760D01*
X347184D01*
X345714Y242151D01*
X344589Y241026D01*
X343980Y239556D01*
Y237964D01*
X344589Y236494D01*
X345714Y235369D01*
X347184Y234760D01*
X348776D01*
X349599Y233726D01*
Y231837D01*
X346775Y229013D01*
X310577D01*
X290750Y248840D01*
X290204Y249205D01*
X289560Y249333D01*
X259657D01*
X259013Y249205D01*
X258467Y248840D01*
X74810Y65183D01*
X51947D01*
X51879Y65216D01*
X51651Y65766D01*
X51054Y66363D01*
X51774Y67439D01*
X52544Y67120D01*
X54136D01*
X55606Y67729D01*
X56731Y68854D01*
X57340Y70324D01*
Y71916D01*
X56731Y73386D01*
X55606Y74511D01*
X54136Y75120D01*
X52544D01*
X51074Y74511D01*
X49949Y73386D01*
X49340Y71916D01*
Y70324D01*
X49949Y68854D01*
X50546Y68257D01*
X49826Y67181D01*
X49056Y67500D01*
X47464D01*
X45994Y66891D01*
X44869Y65766D01*
X44260Y64296D01*
Y62704D01*
X44627Y61818D01*
X43896Y60548D01*
X40892D01*
X33188Y68253D01*
X33189Y68267D01*
X34496Y68756D01*
X34692Y68560D01*
X36903Y67644D01*
X37592D01*
Y73660D01*
X38100D01*
Y74168D01*
X44116D01*
Y74857D01*
X43200Y77068D01*
X41508Y78760D01*
X40150Y79323D01*
Y80697D01*
X41508Y81260D01*
X43200Y82952D01*
X44116Y85163D01*
Y87557D01*
X43200Y89768D01*
X41508Y91460D01*
X40150Y92023D01*
Y93397D01*
X41508Y93960D01*
X43200Y95652D01*
X44116Y97863D01*
Y100257D01*
X43200Y102468D01*
X41508Y104160D01*
X40150Y104723D01*
Y106097D01*
X41508Y106660D01*
X43200Y108352D01*
X44116Y110563D01*
Y112957D01*
X43200Y115168D01*
X41508Y116860D01*
X40150Y117423D01*
Y118797D01*
X41508Y119360D01*
X43200Y121052D01*
X44116Y123263D01*
Y125657D01*
X43200Y127868D01*
X41508Y129560D01*
X39297Y130476D01*
X36903D01*
X34692Y129560D01*
X34496Y129364D01*
X33189Y129853D01*
X33188Y129867D01*
X181037Y277717D01*
X363220D01*
X363864Y277845D01*
X364273Y278118D01*
X364413Y278169D01*
X364964Y277940D01*
X366556D01*
X368026Y278549D01*
X369151Y279674D01*
X369760Y281144D01*
Y282736D01*
X369151Y284206D01*
X368026Y285331D01*
X366556Y285940D01*
X364964D01*
X363494Y285331D01*
X362369Y284206D01*
X362141Y283656D01*
X362072Y283623D01*
X275017D01*
X232398Y326243D01*
X232372Y326314D01*
X232600Y326864D01*
Y328456D01*
X231991Y329926D01*
X230866Y331051D01*
X229396Y331660D01*
D02*
G37*
G36*
X678890Y290585D02*
X665890D01*
X664518Y290312D01*
X663355Y289535D01*
X662578Y288372D01*
X662305Y287000D01*
Y282000D01*
X662578Y280628D01*
X663355Y279465D01*
X664518Y278688D01*
X665890Y278415D01*
X678890D01*
X680262Y278688D01*
X681425Y279465D01*
X682202Y280628D01*
X682475Y282000D01*
Y287000D01*
X682202Y288372D01*
X681425Y289535D01*
X680262Y290312D01*
X678890Y290585D01*
D02*
G37*
G36*
X636090Y290634D02*
X625090D01*
X622743Y290167D01*
X620753Y288837D01*
X619423Y286847D01*
X618956Y284500D01*
X619423Y282153D01*
X620753Y280163D01*
X622743Y278833D01*
X625090Y278366D01*
X636090D01*
X638437Y278833D01*
X640427Y280163D01*
X641757Y282153D01*
X642224Y284500D01*
X641757Y286847D01*
X640427Y288837D01*
X638437Y290167D01*
X636090Y290634D01*
D02*
G37*
G36*
X689136Y283400D02*
X687544D01*
X686074Y282791D01*
X684949Y281666D01*
X684340Y280196D01*
Y278604D01*
X684949Y277134D01*
X686074Y276009D01*
X687544Y275400D01*
X689136D01*
X690606Y276009D01*
X691731Y277134D01*
X692340Y278604D01*
Y280196D01*
X691731Y281666D01*
X690606Y282791D01*
X689136Y283400D01*
D02*
G37*
G36*
X353856Y275780D02*
X352264D01*
X350794Y275171D01*
X349669Y274046D01*
X349060Y272576D01*
Y270984D01*
X349669Y269514D01*
X350794Y268389D01*
X352264Y267780D01*
X353856D01*
X355326Y268389D01*
X356451Y269514D01*
X357060Y270984D01*
Y272576D01*
X356451Y274046D01*
X355326Y275171D01*
X353856Y275780D01*
D02*
G37*
G36*
X343696D02*
X342104D01*
X340634Y275171D01*
X339509Y274046D01*
X338900Y272576D01*
Y270984D01*
X339509Y269514D01*
X340634Y268389D01*
X342104Y267780D01*
X343696D01*
X345166Y268389D01*
X346291Y269514D01*
X346900Y270984D01*
Y272576D01*
X346291Y274046D01*
X345166Y275171D01*
X343696Y275780D01*
D02*
G37*
G36*
X333536D02*
X331944D01*
X330474Y275171D01*
X329349Y274046D01*
X328740Y272576D01*
Y270984D01*
X329349Y269514D01*
X330474Y268389D01*
X331944Y267780D01*
X333536D01*
X335006Y268389D01*
X336131Y269514D01*
X336740Y270984D01*
Y272576D01*
X336131Y274046D01*
X335006Y275171D01*
X333536Y275780D01*
D02*
G37*
G36*
X48771Y272505D02*
X47179D01*
X45709Y271896D01*
X44584Y270771D01*
X43975Y269301D01*
Y267709D01*
X44584Y266239D01*
X45709Y265114D01*
X47179Y264505D01*
X48771D01*
X50241Y265114D01*
X51366Y266239D01*
X51975Y267709D01*
Y269301D01*
X51366Y270771D01*
X50241Y271896D01*
X48771Y272505D01*
D02*
G37*
G36*
X353856Y264350D02*
X352264D01*
X350794Y263741D01*
X349669Y262616D01*
X349060Y261146D01*
Y259554D01*
X349669Y258084D01*
X350794Y256959D01*
X352264Y256350D01*
X353856D01*
X355326Y256959D01*
X356451Y258084D01*
X357060Y259554D01*
Y261146D01*
X356451Y262616D01*
X355326Y263741D01*
X353856Y264350D01*
D02*
G37*
G36*
X343696D02*
X342104D01*
X340634Y263741D01*
X339509Y262616D01*
X338900Y261146D01*
Y259554D01*
X339509Y258084D01*
X340634Y256959D01*
X342104Y256350D01*
X343696D01*
X345166Y256959D01*
X346291Y258084D01*
X346900Y259554D01*
Y261146D01*
X346291Y262616D01*
X345166Y263741D01*
X343696Y264350D01*
D02*
G37*
G36*
X333536D02*
X331944D01*
X330474Y263741D01*
X329349Y262616D01*
X328740Y261146D01*
Y259554D01*
X329349Y258084D01*
X330474Y256959D01*
X331944Y256350D01*
X333536D01*
X335006Y256959D01*
X336131Y258084D01*
X336740Y259554D01*
Y261146D01*
X336131Y262616D01*
X335006Y263741D01*
X333536Y264350D01*
D02*
G37*
G36*
X488476Y263080D02*
X486884D01*
X485414Y262471D01*
X484289Y261346D01*
X483680Y259876D01*
Y258284D01*
X484289Y256814D01*
X485414Y255689D01*
X486884Y255080D01*
X488476D01*
X489946Y255689D01*
X491071Y256814D01*
X491680Y258284D01*
Y259876D01*
X491071Y261346D01*
X489946Y262471D01*
X488476Y263080D01*
D02*
G37*
G36*
X440216Y254350D02*
X438624D01*
X437154Y253741D01*
X436029Y252616D01*
X435420Y251146D01*
Y249554D01*
X436029Y248084D01*
X437154Y246959D01*
X438624Y246350D01*
X440216D01*
X441686Y246959D01*
X442811Y248084D01*
X443420Y249554D01*
Y251146D01*
X442811Y252616D01*
X441686Y253741D01*
X440216Y254350D01*
D02*
G37*
G36*
X247176Y254350D02*
X245584D01*
X244114Y253741D01*
X242989Y252616D01*
X242380Y251146D01*
Y249554D01*
X242989Y248084D01*
X244114Y246959D01*
X245584Y246350D01*
X247176D01*
X248646Y246959D01*
X249771Y248084D01*
X250380Y249554D01*
Y251146D01*
X249771Y252616D01*
X248646Y253741D01*
X247176Y254350D01*
D02*
G37*
G36*
X474246Y253060D02*
X472654D01*
X471184Y252451D01*
X470059Y251326D01*
X469450Y249856D01*
Y248264D01*
X470059Y246794D01*
X471184Y245669D01*
X472654Y245060D01*
X474246D01*
X475716Y245669D01*
X476841Y246794D01*
X477450Y248264D01*
Y249856D01*
X476841Y251326D01*
X475716Y252451D01*
X474246Y253060D01*
D02*
G37*
G36*
X353856Y252920D02*
X352264D01*
X350794Y252311D01*
X349669Y251186D01*
X349060Y249716D01*
Y248124D01*
X349669Y246654D01*
X350794Y245529D01*
X352264Y244920D01*
X353856D01*
X355326Y245529D01*
X356451Y246654D01*
X357060Y248124D01*
Y249716D01*
X356451Y251186D01*
X355326Y252311D01*
X353856Y252920D01*
D02*
G37*
G36*
X343696D02*
X342104D01*
X340634Y252311D01*
X339509Y251186D01*
X338900Y249716D01*
Y248124D01*
X339509Y246654D01*
X340634Y245529D01*
X342104Y244920D01*
X343696D01*
X345166Y245529D01*
X346291Y246654D01*
X346900Y248124D01*
Y249716D01*
X346291Y251186D01*
X345166Y252311D01*
X343696Y252920D01*
D02*
G37*
G36*
X333536D02*
X331944D01*
X330474Y252311D01*
X329349Y251186D01*
X328740Y249716D01*
Y248124D01*
X329349Y246654D01*
X330474Y245529D01*
X331944Y244920D01*
X333536D01*
X335006Y245529D01*
X336131Y246654D01*
X336740Y248124D01*
Y249716D01*
X336131Y251186D01*
X335006Y252311D01*
X333536Y252920D01*
D02*
G37*
G36*
X665006Y250380D02*
X663414D01*
X661944Y249771D01*
X660819Y248646D01*
X660210Y247176D01*
Y245584D01*
X660819Y244114D01*
X661944Y242989D01*
X663414Y242380D01*
X665006D01*
X666476Y242989D01*
X667601Y244114D01*
X668210Y245584D01*
Y247176D01*
X667601Y248646D01*
X666476Y249771D01*
X665006Y250380D01*
D02*
G37*
G36*
X642150Y231354D02*
X640550D01*
X639071Y230741D01*
X637939Y229609D01*
X637326Y228130D01*
Y226530D01*
X637939Y225051D01*
X639071Y223919D01*
X640550Y223306D01*
X642150D01*
X643629Y223919D01*
X644761Y225051D01*
X645374Y226530D01*
Y228130D01*
X644761Y229609D01*
X643629Y230741D01*
X642150Y231354D01*
D02*
G37*
G36*
X197650D02*
X196050D01*
X194571Y230741D01*
X193439Y229609D01*
X192826Y228130D01*
Y226530D01*
X193439Y225051D01*
X194571Y223919D01*
X196050Y223306D01*
X197650D01*
X199129Y223919D01*
X200261Y225051D01*
X200874Y226530D01*
Y228130D01*
X200261Y229609D01*
X199129Y230741D01*
X197650Y231354D01*
D02*
G37*
G36*
X48771Y226785D02*
X47179D01*
X45709Y226176D01*
X44584Y225051D01*
X43975Y223581D01*
Y221989D01*
X44584Y220519D01*
X45709Y219394D01*
X47179Y218785D01*
X48771D01*
X50241Y219394D01*
X51366Y220519D01*
X51975Y221989D01*
Y223581D01*
X51366Y225051D01*
X50241Y226176D01*
X48771Y226785D01*
D02*
G37*
G36*
X399576Y219900D02*
X397984D01*
X396514Y219291D01*
X395389Y218166D01*
X394780Y216696D01*
Y215104D01*
X395389Y213634D01*
X396514Y212509D01*
X397984Y211900D01*
X399576D01*
X401046Y212509D01*
X402171Y213634D01*
X402780Y215104D01*
Y216696D01*
X402171Y218166D01*
X401046Y219291D01*
X399576Y219900D01*
D02*
G37*
G36*
X330996D02*
X329404D01*
X327934Y219291D01*
X326809Y218166D01*
X326200Y216696D01*
Y215104D01*
X326809Y213634D01*
X327934Y212509D01*
X329404Y211900D01*
X330996D01*
X332466Y212509D01*
X333591Y213634D01*
X334200Y215104D01*
Y216696D01*
X333591Y218166D01*
X332466Y219291D01*
X330996Y219900D01*
D02*
G37*
G36*
X478366Y214660D02*
X476774D01*
X475304Y214051D01*
X474179Y212926D01*
X473570Y211456D01*
Y209864D01*
X474179Y208394D01*
X475304Y207269D01*
X476774Y206660D01*
X478366D01*
X479836Y207269D01*
X480961Y208394D01*
X481570Y209864D01*
Y211456D01*
X480961Y212926D01*
X479836Y214051D01*
X478366Y214660D01*
D02*
G37*
G36*
X339886Y211010D02*
X338294D01*
X336824Y210401D01*
X335699Y209276D01*
X335090Y207806D01*
Y206214D01*
X335699Y204744D01*
X336824Y203619D01*
X338294Y203010D01*
X339886D01*
X341356Y203619D01*
X342481Y204744D01*
X342709Y205294D01*
X342777Y205327D01*
X382843D01*
X384822Y203347D01*
X384848Y203276D01*
X384620Y202726D01*
Y201134D01*
X385229Y199664D01*
X386354Y198539D01*
X387824Y197930D01*
X389416D01*
X390886Y198539D01*
X392011Y199664D01*
X392620Y201134D01*
Y202726D01*
X392011Y204196D01*
X390886Y205321D01*
X389416Y205930D01*
X387824D01*
X387274Y205702D01*
X387203Y205728D01*
X384730Y208200D01*
X384184Y208565D01*
X383540Y208693D01*
X342777D01*
X342709Y208726D01*
X342481Y209276D01*
X341356Y210401D01*
X339886Y211010D01*
D02*
G37*
G36*
X478366Y204660D02*
X476774D01*
X475304Y204051D01*
X474179Y202926D01*
X473570Y201456D01*
Y199864D01*
X474179Y198394D01*
X475304Y197269D01*
X476774Y196660D01*
X478366D01*
X479836Y197269D01*
X480961Y198394D01*
X481570Y199864D01*
Y201456D01*
X480961Y202926D01*
X479836Y204051D01*
X478366Y204660D01*
D02*
G37*
G36*
X436726Y199660D02*
X435134D01*
X433664Y199051D01*
X432539Y197926D01*
X431930Y196456D01*
Y194864D01*
X432539Y193394D01*
X433664Y192269D01*
X435134Y191660D01*
X436726D01*
X438196Y192269D01*
X439321Y193394D01*
X439930Y194864D01*
Y196456D01*
X439321Y197926D01*
X438196Y199051D01*
X436726Y199660D01*
D02*
G37*
G36*
X556016Y191780D02*
X554424D01*
X552954Y191171D01*
X551829Y190046D01*
X551220Y188576D01*
Y186984D01*
X551829Y185514D01*
X552954Y184389D01*
X554424Y183780D01*
X556016D01*
X557486Y184389D01*
X558611Y185514D01*
X559220Y186984D01*
Y188576D01*
X558611Y190046D01*
X557486Y191171D01*
X556016Y191780D01*
D02*
G37*
G36*
X457546Y188840D02*
X455954D01*
X454484Y188231D01*
X453359Y187106D01*
X452750Y185636D01*
Y184044D01*
X453359Y182574D01*
X454484Y181449D01*
X455954Y180840D01*
X457546D01*
X459016Y181449D01*
X460141Y182574D01*
X460750Y184044D01*
Y185636D01*
X460141Y187106D01*
X459016Y188231D01*
X457546Y188840D01*
D02*
G37*
G36*
X416736Y179260D02*
X415144D01*
X413674Y178651D01*
X412549Y177526D01*
X411940Y176056D01*
Y174464D01*
X412549Y172994D01*
X413674Y171869D01*
X415144Y171260D01*
X416736D01*
X418206Y171869D01*
X419331Y172994D01*
X419940Y174464D01*
Y176056D01*
X419331Y177526D01*
X418206Y178651D01*
X416736Y179260D01*
D02*
G37*
G36*
X278276D02*
X276684D01*
X275214Y178651D01*
X274089Y177526D01*
X273480Y176056D01*
Y174464D01*
X274089Y172994D01*
X275214Y171869D01*
X276684Y171260D01*
X278276D01*
X279746Y171869D01*
X280871Y172994D01*
X281480Y174464D01*
Y176056D01*
X280871Y177526D01*
X279746Y178651D01*
X278276Y179260D01*
D02*
G37*
G36*
X632616Y170680D02*
X631024D01*
X629554Y170071D01*
X628429Y168946D01*
X627820Y167476D01*
Y165884D01*
X628429Y164414D01*
X629554Y163289D01*
X631024Y162680D01*
X632616D01*
X634086Y163289D01*
X635211Y164414D01*
X635820Y165884D01*
Y167476D01*
X635211Y168946D01*
X634086Y170071D01*
X632616Y170680D01*
D02*
G37*
G36*
X355126Y168450D02*
X353534D01*
X352064Y167841D01*
X350939Y166716D01*
X350330Y165246D01*
Y163654D01*
X350939Y162184D01*
X352064Y161059D01*
X353534Y160450D01*
X355126D01*
X356596Y161059D01*
X357721Y162184D01*
X358330Y163654D01*
Y165246D01*
X357721Y166716D01*
X356596Y167841D01*
X355126Y168450D01*
D02*
G37*
G36*
X339886D02*
X338294D01*
X336824Y167841D01*
X335699Y166716D01*
X335090Y165246D01*
Y163654D01*
X335699Y162184D01*
X336824Y161059D01*
X338294Y160450D01*
X339886D01*
X341356Y161059D01*
X342481Y162184D01*
X343090Y163654D01*
Y165246D01*
X342481Y166716D01*
X341356Y167841D01*
X339886Y168450D01*
D02*
G37*
G36*
X666616Y148680D02*
X665024D01*
X663554Y148071D01*
X662429Y146946D01*
X661820Y145476D01*
Y143884D01*
X662429Y142414D01*
X663554Y141289D01*
X665024Y140680D01*
X666616D01*
X668086Y141289D01*
X669211Y142414D01*
X669820Y143884D01*
Y145476D01*
X669211Y146946D01*
X668086Y148071D01*
X666616Y148680D01*
D02*
G37*
G36*
X632616D02*
X631024D01*
X629554Y148071D01*
X628429Y146946D01*
X627820Y145476D01*
Y143884D01*
X628429Y142414D01*
X629554Y141289D01*
X631024Y140680D01*
X632616D01*
X634086Y141289D01*
X635211Y142414D01*
X635820Y143884D01*
Y145476D01*
X635211Y146946D01*
X634086Y148071D01*
X632616Y148680D01*
D02*
G37*
G36*
X508800Y142454D02*
X507200D01*
X505721Y141841D01*
X504589Y140709D01*
X503976Y139230D01*
Y137630D01*
X504589Y136151D01*
X505721Y135019D01*
X507200Y134406D01*
X508800D01*
X510279Y135019D01*
X511411Y136151D01*
X512024Y137630D01*
Y139230D01*
X511411Y140709D01*
X510279Y141841D01*
X508800Y142454D01*
D02*
G37*
G36*
X64300D02*
X62700D01*
X61221Y141841D01*
X60089Y140709D01*
X59476Y139230D01*
Y137630D01*
X60089Y136151D01*
X61221Y135019D01*
X62700Y134406D01*
X64300D01*
X65779Y135019D01*
X66911Y136151D01*
X67524Y137630D01*
Y139230D01*
X66911Y140709D01*
X65779Y141841D01*
X64300Y142454D01*
D02*
G37*
G36*
X159546Y137350D02*
X157954D01*
X156484Y136741D01*
X155359Y135616D01*
X154750Y134146D01*
Y132554D01*
X155359Y131084D01*
X156484Y129959D01*
X157954Y129350D01*
X159546D01*
X161016Y129959D01*
X162141Y131084D01*
X162750Y132554D01*
Y134146D01*
X162141Y135616D01*
X161016Y136741D01*
X159546Y137350D01*
D02*
G37*
G36*
X556016Y134280D02*
X554424D01*
X552954Y133671D01*
X551829Y132546D01*
X551220Y131076D01*
Y129484D01*
X551829Y128014D01*
X552954Y126889D01*
X554424Y126280D01*
X556016D01*
X557486Y126889D01*
X558611Y128014D01*
X559220Y129484D01*
Y131076D01*
X558611Y132546D01*
X557486Y133671D01*
X556016Y134280D01*
D02*
G37*
G36*
X687516Y118880D02*
X685924D01*
X684454Y118271D01*
X683329Y117146D01*
X682720Y115676D01*
Y114084D01*
X683329Y112614D01*
X684454Y111489D01*
X685924Y110880D01*
X687516D01*
X688986Y111489D01*
X690111Y112614D01*
X690720Y114084D01*
Y115676D01*
X690111Y117146D01*
X688986Y118271D01*
X687516Y118880D01*
D02*
G37*
G36*
X688516Y97980D02*
X686924D01*
X685454Y97371D01*
X684329Y96246D01*
X683720Y94776D01*
Y93184D01*
X684329Y91714D01*
X685454Y90589D01*
X686924Y89980D01*
X688516D01*
X689986Y90589D01*
X691111Y91714D01*
X691720Y93184D01*
Y94776D01*
X691111Y96246D01*
X689986Y97371D01*
X688516Y97980D01*
D02*
G37*
G36*
X89626Y94110D02*
X88034D01*
X86564Y93501D01*
X85439Y92376D01*
X84830Y90906D01*
Y89314D01*
X85439Y87844D01*
X86564Y86719D01*
X88034Y86110D01*
X89626D01*
X91096Y86719D01*
X92221Y87844D01*
X92830Y89314D01*
Y90906D01*
X92221Y92376D01*
X91096Y93501D01*
X89626Y94110D01*
D02*
G37*
G36*
X44116Y73152D02*
X38608D01*
Y67644D01*
X39297D01*
X41508Y68560D01*
X43200Y70252D01*
X44116Y72463D01*
Y73152D01*
D02*
G37*
G36*
X621572Y70532D02*
X619980D01*
X618510Y69923D01*
X617385Y68798D01*
X616776Y67328D01*
Y65736D01*
X617385Y64266D01*
X618510Y63141D01*
X619980Y62532D01*
X621572D01*
X623042Y63141D01*
X624167Y64266D01*
X624776Y65736D01*
Y67328D01*
X624167Y68798D01*
X623042Y69923D01*
X621572Y70532D01*
D02*
G37*
G36*
X642150Y53554D02*
X640550D01*
X639071Y52941D01*
X637939Y51809D01*
X637326Y50330D01*
Y48730D01*
X637939Y47251D01*
X639071Y46119D01*
X640550Y45506D01*
X642150D01*
X643629Y46119D01*
X644761Y47251D01*
X645374Y48730D01*
Y50330D01*
X644761Y51809D01*
X643629Y52941D01*
X642150Y53554D01*
D02*
G37*
G36*
X108750D02*
X107150D01*
X105671Y52941D01*
X104539Y51809D01*
X103926Y50330D01*
Y48730D01*
X104539Y47251D01*
X105671Y46119D01*
X107150Y45506D01*
X108750D01*
X110229Y46119D01*
X111361Y47251D01*
X111974Y48730D01*
Y50330D01*
X111361Y51809D01*
X110229Y52941D01*
X108750Y53554D01*
D02*
G37*
G36*
X19850D02*
X18250D01*
X16771Y52941D01*
X15639Y51809D01*
X15026Y50330D01*
Y48730D01*
X15639Y47251D01*
X16771Y46119D01*
X18250Y45506D01*
X19850D01*
X21329Y46119D01*
X22461Y47251D01*
X23074Y48730D01*
Y50330D01*
X22461Y51809D01*
X21329Y52941D01*
X19850Y53554D01*
D02*
G37*
G36*
X113826Y40830D02*
X112234D01*
X110764Y40221D01*
X109639Y39096D01*
X109030Y37626D01*
Y36034D01*
X109258Y35484D01*
X109232Y35413D01*
X79763Y5943D01*
X67648D01*
X67579Y5976D01*
X67351Y6526D01*
X66226Y7651D01*
X64756Y8260D01*
X63164D01*
X61694Y7651D01*
X60569Y6526D01*
X59960Y5056D01*
Y3464D01*
X60569Y1994D01*
X61694Y869D01*
X63164Y260D01*
X64756D01*
X66226Y869D01*
X67351Y1994D01*
X67579Y2544D01*
X67648Y2577D01*
X80460D01*
X81104Y2705D01*
X81650Y3070D01*
X111613Y33032D01*
X111684Y33058D01*
X112234Y32830D01*
X113826D01*
X114549Y33129D01*
X115966Y32455D01*
X115971Y32448D01*
X116044Y32064D01*
X76280Y-7700D01*
X75915Y-8246D01*
X75787Y-8890D01*
Y-21713D01*
X75754Y-21781D01*
X75204Y-22009D01*
X74079Y-23134D01*
X73470Y-24604D01*
Y-26196D01*
X74079Y-27666D01*
X75204Y-28791D01*
X76674Y-29400D01*
X78266D01*
X79736Y-28791D01*
X80861Y-27666D01*
X81470Y-26196D01*
Y-24604D01*
X80861Y-23134D01*
X79736Y-22009D01*
X79186Y-21781D01*
X79153Y-21713D01*
Y-9587D01*
X119233Y30492D01*
X119304Y30518D01*
X119854Y30290D01*
X121446D01*
X122169Y30589D01*
X123586Y29915D01*
X123591Y29908D01*
X123664Y29524D01*
X113110Y18970D01*
X112745Y18424D01*
X112617Y17780D01*
Y7947D01*
X112584Y7879D01*
X112034Y7651D01*
X110909Y6526D01*
X110300Y5056D01*
Y3464D01*
X110909Y1994D01*
X112034Y869D01*
X113504Y260D01*
X115096D01*
X116566Y869D01*
X117691Y1994D01*
X118300Y3464D01*
Y5056D01*
X117691Y6526D01*
X116566Y7651D01*
X116016Y7879D01*
X115983Y7947D01*
Y17083D01*
X126853Y27952D01*
X126924Y27978D01*
X127474Y27750D01*
X129066D01*
X130536Y28359D01*
X131661Y29484D01*
X132270Y30954D01*
Y32546D01*
X131661Y34016D01*
X130536Y35141D01*
X129066Y35750D01*
X127474D01*
X126004Y35141D01*
X125920Y35057D01*
X125532Y35066D01*
X124504Y35437D01*
X124041Y36556D01*
X122916Y37681D01*
X121446Y38290D01*
X119854D01*
X118384Y37681D01*
X118300Y37597D01*
X117912Y37606D01*
X116884Y37977D01*
X116421Y39096D01*
X115296Y40221D01*
X113826Y40830D01*
D02*
G37*
G36*
X64509Y-1080D02*
X62917D01*
X61447Y-1689D01*
X60322Y-2814D01*
X59713Y-4284D01*
Y-5876D01*
X60322Y-7346D01*
X61447Y-8471D01*
X62917Y-9080D01*
X64509D01*
X65979Y-8471D01*
X67104Y-7346D01*
X67713Y-5876D01*
Y-4284D01*
X67104Y-2814D01*
X65979Y-1689D01*
X64509Y-1080D01*
D02*
G37*
G36*
X662479Y26416D02*
X658321D01*
X654214Y25766D01*
X650260Y24481D01*
X646555Y22593D01*
X643191Y20149D01*
X640251Y17209D01*
X637807Y13845D01*
X635919Y10140D01*
X634634Y6186D01*
X633984Y2079D01*
Y-2079D01*
X634634Y-6186D01*
X635919Y-10140D01*
X637807Y-13845D01*
X640251Y-17209D01*
X643191Y-20149D01*
X646555Y-22593D01*
X650260Y-24481D01*
X654214Y-25766D01*
X658321Y-26416D01*
X662479D01*
X666586Y-25766D01*
X670540Y-24481D01*
X674245Y-22593D01*
X677609Y-20149D01*
X680549Y-17209D01*
X682993Y-13845D01*
X684881Y-10140D01*
X686166Y-6186D01*
X686816Y-2079D01*
Y2079D01*
X686166Y6186D01*
X684881Y10140D01*
X682993Y13845D01*
X680549Y17209D01*
X677609Y20149D01*
X674245Y22593D01*
X670540Y24481D01*
X666586Y25766D01*
X662479Y26416D01*
D02*
G37*
G36*
X2079D02*
X-2079D01*
X-6186Y25766D01*
X-10140Y24481D01*
X-13845Y22593D01*
X-17209Y20149D01*
X-20149Y17209D01*
X-22593Y13845D01*
X-24481Y10140D01*
X-25766Y6186D01*
X-26416Y2079D01*
Y-2079D01*
X-25766Y-6186D01*
X-24481Y-10140D01*
X-22593Y-13845D01*
X-20149Y-17209D01*
X-17209Y-20149D01*
X-13845Y-22593D01*
X-10140Y-24481D01*
X-6186Y-25766D01*
X-2079Y-26416D01*
X2079D01*
X6186Y-25766D01*
X10140Y-24481D01*
X13845Y-22593D01*
X17209Y-20149D01*
X20149Y-17209D01*
X22593Y-13845D01*
X24481Y-10140D01*
X25766Y-6186D01*
X26416Y-2079D01*
Y2079D01*
X25766Y6186D01*
X24481Y10140D01*
X22593Y13845D01*
X20149Y17209D01*
X17209Y20149D01*
X13845Y22593D01*
X10140Y24481D01*
X6186Y25766D01*
X2079Y26416D01*
D02*
G37*
G36*
X38516Y-25480D02*
X36924D01*
X35454Y-26089D01*
X34329Y-27214D01*
X33720Y-28684D01*
Y-30276D01*
X34329Y-31746D01*
X35454Y-32871D01*
X36924Y-33480D01*
X38516D01*
X39986Y-32871D01*
X41111Y-31746D01*
X41720Y-30276D01*
Y-28684D01*
X41111Y-27214D01*
X39986Y-26089D01*
X38516Y-25480D01*
D02*
G37*
%LPD*%
G36*
X487657Y391438D02*
X487398Y391434D01*
X487151Y391415D01*
X486917Y391382D01*
X486696Y391335D01*
X486488Y391274D01*
X486292Y391199D01*
X486108Y391110D01*
X485938Y391006D01*
X485779Y390888D01*
X485634Y390756D01*
X484736Y391654D01*
X484868Y391800D01*
X484986Y391958D01*
X485089Y392128D01*
X485179Y392312D01*
X485254Y392508D01*
X485315Y392716D01*
X485362Y392938D01*
X485395Y393172D01*
X485414Y393418D01*
X485418Y393677D01*
X487657Y391438D01*
D02*
G37*
G36*
X478767D02*
X478508Y391434D01*
X478261Y391415D01*
X478027Y391382D01*
X477806Y391335D01*
X477598Y391274D01*
X477402Y391199D01*
X477218Y391110D01*
X477048Y391006D01*
X476889Y390888D01*
X476744Y390756D01*
X475846Y391654D01*
X475978Y391800D01*
X476096Y391958D01*
X476199Y392128D01*
X476289Y392312D01*
X476364Y392508D01*
X476425Y392716D01*
X476472Y392938D01*
X476505Y393172D01*
X476524Y393418D01*
X476528Y393677D01*
X478767Y391438D01*
D02*
G37*
G36*
X470488Y287827D02*
X470517Y287631D01*
X470565Y287438D01*
X470633Y287246D01*
X470720Y287056D01*
X470826Y286868D01*
X470951Y286682D01*
X471096Y286498D01*
X471259Y286315D01*
X471443Y286134D01*
X468277Y286056D01*
X468454Y286248D01*
X468612Y286440D01*
X468752Y286633D01*
X468873Y286826D01*
X468976Y287019D01*
X469060Y287213D01*
X469125Y287407D01*
X469171Y287601D01*
X469199Y287796D01*
X469209Y287991D01*
X470479Y288024D01*
X470488Y287827D01*
D02*
G37*
G36*
X488325Y272572D02*
X488353Y272377D01*
X488400Y272183D01*
X488467Y271990D01*
X488552Y271798D01*
X488656Y271608D01*
X488780Y271418D01*
X488922Y271229D01*
X489083Y271042D01*
X489263Y270855D01*
X486097D01*
X486277Y271042D01*
X486438Y271229D01*
X486580Y271418D01*
X486704Y271608D01*
X486808Y271798D01*
X486893Y271990D01*
X486960Y272183D01*
X487007Y272377D01*
X487035Y272572D01*
X487045Y272768D01*
X488315D01*
X488325Y272572D01*
D02*
G37*
G36*
X443207Y390168D02*
X442948Y390164D01*
X442701Y390145D01*
X442467Y390112D01*
X442246Y390065D01*
X442038Y390004D01*
X441842Y389929D01*
X441658Y389840D01*
X441488Y389736D01*
X441329Y389618D01*
X441184Y389486D01*
X440286Y390384D01*
X440418Y390530D01*
X440536Y390688D01*
X440639Y390858D01*
X440729Y391042D01*
X440804Y391238D01*
X440865Y391446D01*
X440912Y391668D01*
X440945Y391902D01*
X440964Y392148D01*
X440968Y392407D01*
X443207Y390168D01*
D02*
G37*
G36*
X427716Y392148D02*
X427735Y391902D01*
X427768Y391668D01*
X427815Y391446D01*
X427876Y391238D01*
X427951Y391042D01*
X428041Y390858D01*
X428144Y390688D01*
X428262Y390530D01*
X428394Y390384D01*
X427496Y389486D01*
X427351Y389618D01*
X427192Y389736D01*
X427022Y389840D01*
X426838Y389929D01*
X426642Y390004D01*
X426434Y390065D01*
X426213Y390112D01*
X425979Y390145D01*
X425732Y390164D01*
X425473Y390168D01*
X427712Y392407D01*
X427716Y392148D01*
D02*
G37*
G36*
X435732Y390647D02*
X435540Y390487D01*
X435368Y390322D01*
X435216Y390153D01*
X435085Y389980D01*
X434974Y389801D01*
X434883Y389619D01*
X434812Y389432D01*
X434761Y389240D01*
X434731Y389044D01*
X434721Y388843D01*
X433451Y388993D01*
X433442Y389183D01*
X433416Y389376D01*
X433373Y389571D01*
X433312Y389768D01*
X433235Y389968D01*
X433139Y390170D01*
X433027Y390375D01*
X432897Y390582D01*
X432750Y390791D01*
X432585Y391003D01*
X435732Y390647D01*
D02*
G37*
G36*
X390886Y279118D02*
X390905Y278871D01*
X390938Y278638D01*
X390985Y278416D01*
X391046Y278208D01*
X391121Y278012D01*
X391211Y277828D01*
X391314Y277658D01*
X391432Y277500D01*
X391564Y277354D01*
X390666Y276456D01*
X390521Y276588D01*
X390362Y276706D01*
X390192Y276810D01*
X390008Y276899D01*
X389812Y276974D01*
X389604Y277035D01*
X389383Y277082D01*
X389148Y277115D01*
X388902Y277134D01*
X388643Y277138D01*
X390882Y279377D01*
X390886Y279118D01*
D02*
G37*
G36*
X406804Y276366D02*
X406672Y276220D01*
X406554Y276062D01*
X406451Y275892D01*
X406361Y275708D01*
X406286Y275512D01*
X406225Y275304D01*
X406178Y275082D01*
X406145Y274848D01*
X406126Y274602D01*
X406122Y274343D01*
X403883Y276582D01*
X404142Y276586D01*
X404389Y276605D01*
X404622Y276638D01*
X404844Y276685D01*
X405052Y276746D01*
X405248Y276821D01*
X405432Y276910D01*
X405602Y277014D01*
X405760Y277132D01*
X405906Y277264D01*
X406804Y276366D01*
D02*
G37*
G36*
X398506Y276578D02*
X398525Y276332D01*
X398558Y276098D01*
X398605Y275876D01*
X398666Y275668D01*
X398741Y275472D01*
X398830Y275288D01*
X398934Y275118D01*
X399052Y274960D01*
X399184Y274814D01*
X398286Y273916D01*
X398140Y274048D01*
X397982Y274166D01*
X397812Y274270D01*
X397628Y274359D01*
X397432Y274434D01*
X397224Y274495D01*
X397002Y274542D01*
X396768Y274575D01*
X396522Y274594D01*
X396263Y274598D01*
X398502Y276837D01*
X398506Y276578D01*
D02*
G37*
G36*
X412124Y275112D02*
X412153Y274917D01*
X412200Y274723D01*
X412267Y274530D01*
X412352Y274338D01*
X412456Y274148D01*
X412580Y273958D01*
X412722Y273769D01*
X412883Y273582D01*
X413063Y273395D01*
X409897D01*
X410077Y273582D01*
X410238Y273769D01*
X410380Y273958D01*
X410504Y274148D01*
X410608Y274338D01*
X410693Y274530D01*
X410760Y274723D01*
X410807Y274917D01*
X410835Y275112D01*
X410845Y275308D01*
X412115D01*
X412124Y275112D01*
D02*
G37*
G36*
X419744Y272572D02*
X419773Y272377D01*
X419820Y272183D01*
X419887Y271990D01*
X419972Y271798D01*
X420076Y271608D01*
X420200Y271418D01*
X420342Y271229D01*
X420503Y271042D01*
X420683Y270855D01*
X417517D01*
X417697Y271042D01*
X417858Y271229D01*
X418000Y271418D01*
X418124Y271608D01*
X418228Y271798D01*
X418313Y271990D01*
X418380Y272183D01*
X418427Y272377D01*
X418456Y272572D01*
X418465Y272768D01*
X419735D01*
X419744Y272572D01*
D02*
G37*
G36*
X487657Y244118D02*
X487398Y244114D01*
X487151Y244095D01*
X486917Y244062D01*
X486696Y244015D01*
X486488Y243954D01*
X486292Y243879D01*
X486108Y243790D01*
X485938Y243686D01*
X485779Y243568D01*
X485634Y243436D01*
X484736Y244334D01*
X484868Y244480D01*
X484986Y244638D01*
X485089Y244808D01*
X485179Y244992D01*
X485254Y245188D01*
X485315Y245396D01*
X485362Y245618D01*
X485395Y245851D01*
X485414Y246098D01*
X485418Y246357D01*
X487657Y244118D01*
D02*
G37*
G36*
X494703Y239118D02*
X494472Y239172D01*
X494250Y239204D01*
X494036Y239216D01*
X493831Y239206D01*
X493634Y239174D01*
X493447Y239122D01*
X493268Y239048D01*
X493098Y238953D01*
X492937Y238836D01*
X492784Y238699D01*
X492133Y239844D01*
X492256Y239977D01*
X492372Y240124D01*
X492483Y240287D01*
X492589Y240465D01*
X492689Y240659D01*
X492873Y241091D01*
X492956Y241330D01*
X493107Y241853D01*
X494703Y239118D01*
D02*
G37*
G36*
X409220Y235326D02*
X409086Y235187D01*
X408867Y234923D01*
X408782Y234799D01*
X408713Y234680D01*
X408660Y234566D01*
X408624Y234457D01*
X408603Y234353D01*
X408599Y234254D01*
X408610Y234160D01*
X407253Y235775D01*
X407343Y235747D01*
X407437Y235736D01*
X407534Y235740D01*
X407635Y235761D01*
X407741Y235798D01*
X407849Y235851D01*
X407962Y235920D01*
X408078Y236005D01*
X408198Y236106D01*
X408322Y236224D01*
X409220Y235326D01*
D02*
G37*
G36*
X400685Y234962D02*
X400619Y234771D01*
X400579Y234585D01*
X400564Y234403D01*
X400576Y234225D01*
X400614Y234051D01*
X400678Y233881D01*
X400767Y233716D01*
X400883Y233555D01*
X401025Y233399D01*
X399973Y232655D01*
X399780Y232841D01*
X399171Y233354D01*
X398958Y233509D01*
X398288Y233931D01*
X398054Y234056D01*
X397815Y234174D01*
X400777Y235157D01*
X400685Y234962D01*
D02*
G37*
G36*
X416222Y230565D02*
X416220Y230419D01*
X416236Y230272D01*
X416269Y230125D01*
X416320Y229978D01*
X416389Y229831D01*
X416475Y229683D01*
X416579Y229536D01*
X416701Y229388D01*
X416840Y229240D01*
X415942Y228342D01*
X415795Y228480D01*
X415648Y228600D01*
X415502Y228703D01*
X415355Y228788D01*
X415209Y228855D01*
X415063Y228904D01*
X414917Y228936D01*
X414771Y228950D01*
X414625Y228946D01*
X414479Y228925D01*
X416241Y230712D01*
X416222Y230565D01*
D02*
G37*
G36*
X384184Y221772D02*
X384213Y221577D01*
X384260Y221383D01*
X384327Y221190D01*
X384412Y220998D01*
X384516Y220808D01*
X384640Y220618D01*
X384782Y220429D01*
X384943Y220242D01*
X385123Y220055D01*
X381957D01*
X382137Y220242D01*
X382298Y220429D01*
X382440Y220618D01*
X382564Y220808D01*
X382668Y220998D01*
X382753Y221190D01*
X382820Y221383D01*
X382867Y221577D01*
X382896Y221772D01*
X382905Y221968D01*
X384175D01*
X384184Y221772D01*
D02*
G37*
G36*
X625919Y191492D02*
X626078Y191374D01*
X626248Y191271D01*
X626432Y191181D01*
X626628Y191106D01*
X626836Y191045D01*
X627057Y190998D01*
X627291Y190965D01*
X627538Y190946D01*
X627797Y190942D01*
X625558Y188703D01*
X625554Y188962D01*
X625535Y189209D01*
X625502Y189442D01*
X625455Y189664D01*
X625394Y189872D01*
X625319Y190068D01*
X625229Y190252D01*
X625126Y190422D01*
X625008Y190580D01*
X624876Y190726D01*
X625774Y191624D01*
X625919Y191492D01*
D02*
G37*
G36*
X629920Y180492D02*
X630078Y180374D01*
X630248Y180271D01*
X630432Y180181D01*
X630628Y180106D01*
X630836Y180045D01*
X631058Y179998D01*
X631292Y179965D01*
X631538Y179946D01*
X631797Y179942D01*
X629558Y177703D01*
X629554Y177962D01*
X629535Y178209D01*
X629502Y178442D01*
X629455Y178664D01*
X629394Y178872D01*
X629319Y179068D01*
X629230Y179252D01*
X629126Y179422D01*
X629008Y179580D01*
X628876Y179726D01*
X629774Y180624D01*
X629920Y180492D01*
D02*
G37*
G36*
X630205Y154097D02*
X630018Y154277D01*
X629831Y154438D01*
X629642Y154580D01*
X629452Y154704D01*
X629262Y154808D01*
X629070Y154893D01*
X628877Y154960D01*
X628683Y155007D01*
X628488Y155035D01*
X628292Y155045D01*
Y156315D01*
X628488Y156325D01*
X628683Y156353D01*
X628877Y156400D01*
X629070Y156467D01*
X629262Y156552D01*
X629452Y156656D01*
X629642Y156780D01*
X629831Y156922D01*
X630018Y157083D01*
X630205Y157263D01*
Y154097D01*
D02*
G37*
G36*
Y132097D02*
X630018Y132277D01*
X629831Y132438D01*
X629642Y132580D01*
X629452Y132704D01*
X629262Y132808D01*
X629070Y132893D01*
X628877Y132960D01*
X628683Y133007D01*
X628488Y133035D01*
X628292Y133045D01*
Y134315D01*
X628488Y134325D01*
X628683Y134353D01*
X628877Y134400D01*
X629070Y134467D01*
X629262Y134552D01*
X629452Y134656D01*
X629642Y134780D01*
X629831Y134922D01*
X630018Y135083D01*
X630205Y135263D01*
Y132097D01*
D02*
G37*
G36*
X139624Y500380D02*
X138359Y500378D01*
X135173Y500183D01*
X134315Y500055D01*
X133558Y499897D01*
X132903Y499706D01*
X132349Y499485D01*
X131897Y499232D01*
X131547Y498949D01*
X130649Y499847D01*
X130933Y500197D01*
X131185Y500649D01*
X131406Y501203D01*
X131596Y501858D01*
X131755Y502615D01*
X131883Y503473D01*
X132044Y505495D01*
X132080Y507924D01*
X139624Y500380D01*
D02*
G37*
G36*
X90815Y383062D02*
X90843Y382867D01*
X90890Y382673D01*
X90957Y382480D01*
X91042Y382288D01*
X91146Y382098D01*
X91270Y381908D01*
X91412Y381719D01*
X91573Y381532D01*
X91753Y381345D01*
X88587D01*
X88767Y381532D01*
X88928Y381719D01*
X89070Y381908D01*
X89194Y382098D01*
X89298Y382288D01*
X89383Y382480D01*
X89450Y382673D01*
X89497Y382867D01*
X89525Y383062D01*
X89535Y383258D01*
X90805D01*
X90815Y383062D01*
D02*
G37*
G36*
X92436Y379448D02*
X92455Y379202D01*
X92488Y378968D01*
X92535Y378746D01*
X92596Y378538D01*
X92671Y378342D01*
X92760Y378158D01*
X92864Y377988D01*
X92982Y377830D01*
X93114Y377684D01*
X92216Y376786D01*
X92071Y376918D01*
X91912Y377036D01*
X91742Y377140D01*
X91558Y377229D01*
X91362Y377304D01*
X91154Y377365D01*
X90933Y377412D01*
X90698Y377445D01*
X90452Y377464D01*
X90193Y377468D01*
X92432Y379707D01*
X92436Y379448D01*
D02*
G37*
G36*
X211745Y341317D02*
X211558Y341497D01*
X211371Y341658D01*
X211182Y341800D01*
X210992Y341924D01*
X210802Y342028D01*
X210610Y342113D01*
X210417Y342180D01*
X210223Y342227D01*
X210028Y342256D01*
X209832Y342265D01*
Y343535D01*
X210028Y343545D01*
X210223Y343573D01*
X210417Y343620D01*
X210610Y343687D01*
X210802Y343772D01*
X210992Y343876D01*
X211182Y344000D01*
X211371Y344142D01*
X211558Y344303D01*
X211745Y344483D01*
Y341317D01*
D02*
G37*
G36*
X637195Y323537D02*
X637031Y323693D01*
X636862Y323832D01*
X636688Y323955D01*
X636509Y324062D01*
X636324Y324153D01*
X636134Y324227D01*
X635939Y324284D01*
X635739Y324325D01*
X635534Y324350D01*
X635323Y324358D01*
Y325882D01*
X635534Y325890D01*
X635739Y325915D01*
X635939Y325956D01*
X636134Y326013D01*
X636324Y326087D01*
X636509Y326178D01*
X636688Y326284D01*
X636862Y326408D01*
X637031Y326547D01*
X637195Y326703D01*
Y323537D01*
D02*
G37*
G36*
X611379Y326547D02*
X611548Y326408D01*
X611722Y326284D01*
X611901Y326178D01*
X612086Y326087D01*
X612276Y326013D01*
X612471Y325956D01*
X612671Y325915D01*
X612876Y325890D01*
X613087Y325882D01*
Y324358D01*
X612876Y324350D01*
X612671Y324325D01*
X612471Y324284D01*
X612276Y324227D01*
X612086Y324153D01*
X611901Y324062D01*
X611722Y323955D01*
X611548Y323832D01*
X611379Y323693D01*
X611215Y323537D01*
Y326703D01*
X611379Y326547D01*
D02*
G37*
G36*
X608775Y354706D02*
X609256Y354291D01*
X609397Y354189D01*
X609529Y354107D01*
X609650Y354043D01*
X609762Y353997D01*
X609865Y353970D01*
X609957Y353962D01*
X607718Y351723D01*
X607710Y351815D01*
X607683Y351917D01*
X607637Y352029D01*
X607573Y352151D01*
X607491Y352283D01*
X607389Y352424D01*
X607131Y352735D01*
X606974Y352905D01*
X606799Y353085D01*
X608595Y354881D01*
X608775Y354706D01*
D02*
G37*
G36*
X609957Y349438D02*
X609865Y349430D01*
X609762Y349403D01*
X609650Y349357D01*
X609529Y349293D01*
X609397Y349211D01*
X609256Y349109D01*
X608945Y348851D01*
X608775Y348694D01*
X608595Y348519D01*
X606799Y350315D01*
X606974Y350495D01*
X607389Y350976D01*
X607491Y351117D01*
X607573Y351249D01*
X607637Y351370D01*
X607683Y351482D01*
X607710Y351585D01*
X607718Y351677D01*
X609957Y349438D01*
D02*
G37*
G36*
X608775Y306706D02*
X609256Y306291D01*
X609397Y306189D01*
X609529Y306107D01*
X609650Y306043D01*
X609762Y305997D01*
X609865Y305970D01*
X609957Y305962D01*
X607718Y303723D01*
X607710Y303815D01*
X607683Y303918D01*
X607637Y304030D01*
X607573Y304151D01*
X607491Y304283D01*
X607389Y304424D01*
X607131Y304735D01*
X606974Y304905D01*
X606799Y305085D01*
X608595Y306881D01*
X608775Y306706D01*
D02*
G37*
G36*
X14925Y180954D02*
X15098Y180825D01*
X15286Y180711D01*
X15489Y180613D01*
X15709Y180529D01*
X15944Y180461D01*
X16195Y180408D01*
X16461Y180370D01*
X16744Y180348D01*
X17042Y180340D01*
Y177800D01*
X16744Y177792D01*
X16461Y177770D01*
X16195Y177732D01*
X15944Y177679D01*
X15709Y177610D01*
X15489Y177527D01*
X15286Y177429D01*
X15098Y177315D01*
X14925Y177186D01*
X14769Y177042D01*
Y181098D01*
X14925Y180954D01*
D02*
G37*
G36*
X230866Y327378D02*
X230885Y327132D01*
X230918Y326898D01*
X230965Y326676D01*
X231026Y326468D01*
X231101Y326272D01*
X231190Y326088D01*
X231294Y325918D01*
X231412Y325760D01*
X231544Y325614D01*
X230646Y324716D01*
X230501Y324848D01*
X230342Y324966D01*
X230172Y325070D01*
X229988Y325159D01*
X229792Y325234D01*
X229584Y325295D01*
X229363Y325342D01*
X229128Y325375D01*
X228882Y325394D01*
X228623Y325398D01*
X230862Y327637D01*
X230866Y327378D01*
D02*
G37*
G36*
X364145Y281228D02*
X365694Y279679D01*
X365447Y279679D01*
X365211Y279664D01*
X364986Y279633D01*
X364772Y279587D01*
X364569Y279527D01*
X364376Y279451D01*
X364195Y279360D01*
X364024Y279254D01*
X363863Y279132D01*
X363714Y278996D01*
X362816Y279894D01*
X362952Y280044D01*
X363074Y280204D01*
X363180Y280375D01*
X363271Y280556D01*
X363347Y280749D01*
X363408Y280952D01*
X363408Y280954D01*
X363392Y280964D01*
X363202Y281068D01*
X363010Y281153D01*
X362817Y281220D01*
X362623Y281267D01*
X362428Y281296D01*
X362232Y281305D01*
Y282575D01*
X362428Y282584D01*
X362623Y282613D01*
X362817Y282660D01*
X363010Y282727D01*
X363202Y282812D01*
X363392Y282916D01*
X363582Y283040D01*
X363771Y283182D01*
X363958Y283343D01*
X364145Y283523D01*
Y281228D01*
D02*
G37*
G36*
X350246Y238478D02*
X350265Y238232D01*
X350298Y237997D01*
X350345Y237776D01*
X350406Y237568D01*
X350481Y237372D01*
X350570Y237188D01*
X350674Y237018D01*
X350792Y236859D01*
X350924Y236714D01*
X350026Y235816D01*
X349880Y235948D01*
X349722Y236066D01*
X349552Y236169D01*
X349368Y236259D01*
X349172Y236334D01*
X348964Y236395D01*
X348742Y236442D01*
X348508Y236475D01*
X348262Y236494D01*
X348003Y236498D01*
X350242Y238737D01*
X350246Y238478D01*
D02*
G37*
G36*
X285727Y236498D02*
X285468Y236494D01*
X285222Y236475D01*
X284988Y236442D01*
X284766Y236395D01*
X284558Y236334D01*
X284362Y236259D01*
X284178Y236169D01*
X284008Y236066D01*
X283850Y235948D01*
X283704Y235816D01*
X282806Y236714D01*
X282938Y236859D01*
X283056Y237018D01*
X283160Y237188D01*
X283249Y237372D01*
X283324Y237568D01*
X283385Y237776D01*
X283432Y237997D01*
X283465Y238232D01*
X283484Y238478D01*
X283488Y238737D01*
X285727Y236498D01*
D02*
G37*
G36*
X358273Y236958D02*
X358112Y236771D01*
X357970Y236582D01*
X357846Y236392D01*
X357742Y236202D01*
X357657Y236010D01*
X357590Y235817D01*
X357543Y235623D01*
X357514Y235428D01*
X357505Y235232D01*
X356235D01*
X356226Y235428D01*
X356197Y235623D01*
X356150Y235817D01*
X356083Y236010D01*
X355998Y236202D01*
X355894Y236392D01*
X355770Y236582D01*
X355628Y236771D01*
X355467Y236958D01*
X355287Y237145D01*
X358453D01*
X358273Y236958D01*
D02*
G37*
G36*
X293347Y230148D02*
X293088Y230144D01*
X292841Y230125D01*
X292607Y230092D01*
X292386Y230045D01*
X292178Y229984D01*
X291982Y229909D01*
X291798Y229820D01*
X291628Y229716D01*
X291469Y229598D01*
X291324Y229466D01*
X290426Y230364D01*
X290558Y230509D01*
X290676Y230668D01*
X290779Y230838D01*
X290869Y231022D01*
X290944Y231218D01*
X291005Y231426D01*
X291052Y231647D01*
X291085Y231882D01*
X291104Y232128D01*
X291108Y232387D01*
X293347Y230148D01*
D02*
G37*
G36*
X31477Y129639D02*
X31265Y129387D01*
X31077Y129076D01*
X30911Y128708D01*
X30768Y128282D01*
X30649Y127798D01*
X30553Y127256D01*
X30480Y126657D01*
X30403Y125283D01*
X30400Y124510D01*
X25450Y129460D01*
X26223Y129463D01*
X28196Y129613D01*
X28738Y129709D01*
X29222Y129828D01*
X29648Y129971D01*
X30016Y130136D01*
X30327Y130325D01*
X30579Y130537D01*
X31477Y129639D01*
D02*
G37*
G36*
X30403Y72837D02*
X30553Y70864D01*
X30649Y70322D01*
X30768Y69838D01*
X30911Y69412D01*
X31077Y69044D01*
X31265Y68733D01*
X31477Y68481D01*
X30579Y67583D01*
X30327Y67795D01*
X30016Y67983D01*
X29648Y68149D01*
X29222Y68292D01*
X28738Y68411D01*
X28196Y68507D01*
X27596Y68580D01*
X26223Y68657D01*
X25450Y68660D01*
X30400Y73610D01*
X30403Y72837D01*
D02*
G37*
G36*
X50062Y64903D02*
X50249Y64742D01*
X50438Y64600D01*
X50628Y64476D01*
X50818Y64372D01*
X51010Y64287D01*
X51203Y64220D01*
X51397Y64173D01*
X51592Y64145D01*
X51788Y64135D01*
Y62865D01*
X51592Y62856D01*
X51397Y62827D01*
X51203Y62780D01*
X51010Y62713D01*
X50818Y62628D01*
X50628Y62524D01*
X50438Y62400D01*
X50249Y62258D01*
X50062Y62097D01*
X49875Y61917D01*
Y65083D01*
X50062Y64903D01*
D02*
G37*
G36*
X455603Y43098D02*
X455442Y42911D01*
X455300Y42722D01*
X455176Y42532D01*
X455072Y42342D01*
X454987Y42150D01*
X454920Y41957D01*
X454873Y41763D01*
X454845Y41568D01*
X454835Y41372D01*
X453565D01*
X453555Y41568D01*
X453527Y41763D01*
X453480Y41957D01*
X453413Y42150D01*
X453328Y42342D01*
X453224Y42532D01*
X453100Y42722D01*
X452958Y42911D01*
X452797Y43098D01*
X452617Y43285D01*
X455783D01*
X455603Y43098D01*
D02*
G37*
G36*
X439603D02*
X439442Y42911D01*
X439300Y42722D01*
X439176Y42532D01*
X439072Y42342D01*
X438987Y42150D01*
X438920Y41957D01*
X438873Y41763D01*
X438844Y41568D01*
X438835Y41372D01*
X437565D01*
X437556Y41568D01*
X437527Y41763D01*
X437480Y41957D01*
X437413Y42150D01*
X437328Y42342D01*
X437224Y42532D01*
X437100Y42722D01*
X436958Y42911D01*
X436797Y43098D01*
X436617Y43285D01*
X439783D01*
X439603Y43098D01*
D02*
G37*
G36*
X423603D02*
X423442Y42911D01*
X423300Y42722D01*
X423176Y42532D01*
X423072Y42342D01*
X422987Y42150D01*
X422920Y41957D01*
X422873Y41763D01*
X422845Y41568D01*
X422835Y41372D01*
X421565D01*
X421555Y41568D01*
X421527Y41763D01*
X421480Y41957D01*
X421413Y42150D01*
X421328Y42342D01*
X421224Y42532D01*
X421100Y42722D01*
X420958Y42911D01*
X420797Y43098D01*
X420617Y43285D01*
X423783D01*
X423603Y43098D01*
D02*
G37*
G36*
X399603D02*
X399442Y42911D01*
X399300Y42722D01*
X399176Y42532D01*
X399072Y42342D01*
X398987Y42150D01*
X398920Y41957D01*
X398873Y41763D01*
X398844Y41568D01*
X398835Y41372D01*
X397565D01*
X397556Y41568D01*
X397527Y41763D01*
X397480Y41957D01*
X397413Y42150D01*
X397328Y42342D01*
X397224Y42532D01*
X397100Y42722D01*
X396958Y42911D01*
X396797Y43098D01*
X396617Y43285D01*
X399783D01*
X399603Y43098D01*
D02*
G37*
G36*
X375603D02*
X375442Y42911D01*
X375300Y42722D01*
X375176Y42532D01*
X375072Y42342D01*
X374987Y42150D01*
X374920Y41957D01*
X374873Y41763D01*
X374845Y41568D01*
X374835Y41372D01*
X373565D01*
X373555Y41568D01*
X373527Y41763D01*
X373480Y41957D01*
X373413Y42150D01*
X373328Y42342D01*
X373224Y42532D01*
X373100Y42722D01*
X372958Y42911D01*
X372797Y43098D01*
X372617Y43285D01*
X375783D01*
X375603Y43098D01*
D02*
G37*
G36*
X351603D02*
X351442Y42911D01*
X351300Y42722D01*
X351176Y42532D01*
X351072Y42342D01*
X350987Y42150D01*
X350920Y41957D01*
X350873Y41763D01*
X350844Y41568D01*
X350835Y41372D01*
X349565D01*
X349556Y41568D01*
X349527Y41763D01*
X349480Y41957D01*
X349413Y42150D01*
X349328Y42342D01*
X349224Y42532D01*
X349100Y42722D01*
X348958Y42911D01*
X348797Y43098D01*
X348617Y43285D01*
X351783D01*
X351603Y43098D01*
D02*
G37*
G36*
X327603D02*
X327442Y42911D01*
X327300Y42722D01*
X327176Y42532D01*
X327072Y42342D01*
X326987Y42150D01*
X326920Y41957D01*
X326873Y41763D01*
X326844Y41568D01*
X326835Y41372D01*
X325565D01*
X325555Y41568D01*
X325527Y41763D01*
X325480Y41957D01*
X325413Y42150D01*
X325328Y42342D01*
X325224Y42532D01*
X325100Y42722D01*
X324958Y42911D01*
X324797Y43098D01*
X324617Y43285D01*
X327783D01*
X327603Y43098D01*
D02*
G37*
G36*
X454841Y39792D02*
X454860Y39571D01*
X454892Y39376D01*
X454937Y39207D01*
X454994Y39064D01*
X455064Y38947D01*
X455146Y38856D01*
X455241Y38791D01*
X455349Y38752D01*
X455470Y38739D01*
X452930D01*
X453051Y38752D01*
X453159Y38791D01*
X453254Y38856D01*
X453336Y38947D01*
X453406Y39064D01*
X453463Y39207D01*
X453508Y39376D01*
X453540Y39571D01*
X453559Y39792D01*
X453565Y40040D01*
X454835D01*
X454841Y39792D01*
D02*
G37*
G36*
X398841D02*
X398860Y39571D01*
X398892Y39376D01*
X398937Y39207D01*
X398994Y39064D01*
X399064Y38947D01*
X399146Y38856D01*
X399241Y38791D01*
X399349Y38752D01*
X399470Y38739D01*
X396930D01*
X397051Y38752D01*
X397159Y38791D01*
X397254Y38856D01*
X397336Y38947D01*
X397406Y39064D01*
X397463Y39207D01*
X397508Y39376D01*
X397540Y39571D01*
X397559Y39792D01*
X397565Y40040D01*
X398835D01*
X398841Y39792D01*
D02*
G37*
G36*
X438841Y39792D02*
X438860Y39571D01*
X438892Y39376D01*
X438937Y39207D01*
X438994Y39064D01*
X439064Y38947D01*
X439146Y38856D01*
X439241Y38791D01*
X439349Y38752D01*
X439470Y38739D01*
X436930D01*
X437051Y38752D01*
X437159Y38791D01*
X437254Y38856D01*
X437336Y38947D01*
X437406Y39064D01*
X437463Y39207D01*
X437508Y39376D01*
X437540Y39571D01*
X437559Y39792D01*
X437565Y40040D01*
X438835D01*
X438841Y39792D01*
D02*
G37*
G36*
X422841D02*
X422860Y39571D01*
X422892Y39376D01*
X422937Y39207D01*
X422994Y39064D01*
X423064Y38947D01*
X423146Y38856D01*
X423241Y38791D01*
X423349Y38752D01*
X423470Y38739D01*
X420930D01*
X421051Y38752D01*
X421159Y38791D01*
X421254Y38856D01*
X421336Y38947D01*
X421406Y39064D01*
X421463Y39207D01*
X421508Y39376D01*
X421540Y39571D01*
X421559Y39792D01*
X421565Y40040D01*
X422835D01*
X422841Y39792D01*
D02*
G37*
G36*
X374841D02*
X374860Y39571D01*
X374892Y39376D01*
X374937Y39207D01*
X374994Y39064D01*
X375064Y38947D01*
X375146Y38856D01*
X375241Y38791D01*
X375349Y38752D01*
X375470Y38739D01*
X372930D01*
X373051Y38752D01*
X373159Y38791D01*
X373254Y38856D01*
X373336Y38947D01*
X373406Y39064D01*
X373463Y39207D01*
X373508Y39376D01*
X373540Y39571D01*
X373559Y39792D01*
X373565Y40040D01*
X374835D01*
X374841Y39792D01*
D02*
G37*
G36*
X350841D02*
X350860Y39571D01*
X350892Y39376D01*
X350937Y39207D01*
X350994Y39064D01*
X351064Y38947D01*
X351146Y38856D01*
X351241Y38791D01*
X351349Y38752D01*
X351470Y38739D01*
X348930D01*
X349051Y38752D01*
X349159Y38791D01*
X349254Y38856D01*
X349336Y38947D01*
X349406Y39064D01*
X349463Y39207D01*
X349508Y39376D01*
X349540Y39571D01*
X349559Y39792D01*
X349565Y40040D01*
X350835D01*
X350841Y39792D01*
D02*
G37*
G36*
X326841D02*
X326860Y39571D01*
X326892Y39376D01*
X326937Y39207D01*
X326994Y39064D01*
X327064Y38947D01*
X327146Y38856D01*
X327241Y38791D01*
X327349Y38752D01*
X327470Y38739D01*
X324930D01*
X325051Y38752D01*
X325159Y38791D01*
X325254Y38856D01*
X325336Y38947D01*
X325406Y39064D01*
X325463Y39207D01*
X325508Y39376D01*
X325540Y39571D01*
X325559Y39792D01*
X325565Y40040D01*
X326835D01*
X326841Y39792D01*
D02*
G37*
G36*
X505460Y104140D02*
Y-2540D01*
X495300Y-12700D01*
X365280D01*
Y8617D01*
X365404Y8700D01*
X366996D01*
X368466Y9309D01*
X369591Y10434D01*
X370200Y11904D01*
Y13496D01*
X369591Y14966D01*
X368466Y16091D01*
X368754Y17346D01*
X369113Y17784D01*
X370684Y17784D01*
X370986Y17784D01*
X377414D01*
X377716Y17784D01*
X378684D01*
X378986Y17784D01*
X385414D01*
X385716Y17784D01*
X386684D01*
X386986Y17784D01*
X393414D01*
X393716Y17784D01*
X394986Y17784D01*
X401414D01*
X401716Y17784D01*
X402684D01*
X402986Y17784D01*
X409414D01*
X410684Y17784D01*
X410986Y17784D01*
X417414D01*
X417716Y17784D01*
X418684D01*
X418986Y17784D01*
X425414D01*
X425716Y17784D01*
X426684D01*
X426986Y17784D01*
X433414D01*
X433716Y17784D01*
X434684D01*
X434986Y17784D01*
X441414D01*
X441716Y17784D01*
X442986Y17784D01*
X449414D01*
X449716Y17784D01*
X450684D01*
X450986Y17784D01*
X457414D01*
X458684Y17784D01*
X458986Y17784D01*
X461559D01*
X461559Y17802D01*
X461540Y18018D01*
X461508Y18208D01*
X461463Y18373D01*
X461406Y18513D01*
X461336Y18627D01*
X461254Y18716D01*
X461159Y18780D01*
X461051Y18818D01*
X460930Y18830D01*
X461692D01*
Y28800D01*
Y39816D01*
X458986D01*
X457716Y39816D01*
X457414Y39816D01*
X457113D01*
X456753Y40253D01*
X456466Y41509D01*
X457591Y42634D01*
X458200Y44104D01*
Y45696D01*
X457591Y47166D01*
X456466Y48291D01*
X454996Y48900D01*
X453404D01*
X451934Y48291D01*
X450809Y47166D01*
X450200Y45696D01*
Y44104D01*
X450809Y42634D01*
X451934Y41509D01*
X451647Y40253D01*
X451287Y39816D01*
X449716Y39816D01*
X449414Y39816D01*
X442986D01*
X442684Y39816D01*
X441113Y39816D01*
X440753Y40253D01*
X440466Y41509D01*
X441591Y42634D01*
X442200Y44104D01*
Y45696D01*
X441591Y47166D01*
X440466Y48291D01*
X438996Y48900D01*
X437404D01*
X435934Y48291D01*
X434809Y47166D01*
X434200Y45696D01*
Y44104D01*
X434809Y42634D01*
X435934Y41509D01*
X435647Y40253D01*
X435287Y39816D01*
X433716Y39816D01*
X433414Y39816D01*
X426986D01*
X426684Y39816D01*
X425716D01*
X425414Y39816D01*
X425112D01*
X424753Y40253D01*
X424466Y41509D01*
X425591Y42634D01*
X426200Y44104D01*
Y45696D01*
X425591Y47166D01*
X424466Y48291D01*
X422996Y48900D01*
X421404D01*
X419934Y48291D01*
X418809Y47166D01*
X418200Y45696D01*
Y44104D01*
X418809Y42634D01*
X419934Y41509D01*
X419647Y40253D01*
X419287Y39816D01*
X417716Y39816D01*
X417414Y39816D01*
X410986D01*
X409716Y39816D01*
X409414Y39816D01*
X402986D01*
X402684Y39816D01*
X401716D01*
X401414Y39816D01*
X401113D01*
X400753Y40253D01*
X400466Y41509D01*
X401591Y42634D01*
X402200Y44104D01*
Y45696D01*
X401591Y47166D01*
X400466Y48291D01*
X398996Y48900D01*
X397404D01*
X395934Y48291D01*
X394809Y47166D01*
X394200Y45696D01*
Y44104D01*
X394809Y42634D01*
X395934Y41509D01*
X395647Y40253D01*
X395287Y39816D01*
X394684Y39816D01*
X393414Y39816D01*
X386986D01*
X386684Y39816D01*
X385716D01*
X385414Y39816D01*
X378986D01*
X378684Y39816D01*
X377716D01*
X377414Y39816D01*
X377113D01*
X376753Y40253D01*
X376466Y41509D01*
X377591Y42634D01*
X378200Y44104D01*
Y45696D01*
X377591Y47166D01*
X376466Y48291D01*
X374996Y48900D01*
X373404D01*
X371934Y48291D01*
X370809Y47166D01*
X370200Y45696D01*
Y44104D01*
X370809Y42634D01*
X371934Y41509D01*
X371647Y40253D01*
X371287Y39816D01*
X369716Y39816D01*
X369414Y39816D01*
X362684D01*
Y39816D01*
X361716D01*
Y39816D01*
X354986D01*
X354684Y39816D01*
X353716D01*
X353414Y39816D01*
X353113D01*
X352753Y40253D01*
X352466Y41509D01*
X353591Y42634D01*
X354200Y44104D01*
Y45696D01*
X353591Y47166D01*
X352466Y48291D01*
X350996Y48900D01*
X349404D01*
X347934Y48291D01*
X346809Y47166D01*
X346200Y45696D01*
Y44104D01*
X346809Y42634D01*
X347934Y41509D01*
X347647Y40253D01*
X347287Y39816D01*
X345716Y39816D01*
X345414Y39816D01*
X338684D01*
Y39816D01*
X337716D01*
Y39816D01*
X330986D01*
X330684Y39816D01*
X329716D01*
X329414Y39816D01*
X329113D01*
X328753Y40253D01*
X328466Y41509D01*
X329591Y42634D01*
X330200Y44104D01*
Y45696D01*
X329591Y47166D01*
X328466Y48291D01*
X326996Y48900D01*
X325404D01*
X323934Y48291D01*
X322809Y47166D01*
X322200Y45696D01*
Y44104D01*
X322809Y42634D01*
X323934Y41509D01*
X323647Y40253D01*
X323287Y39816D01*
X321716Y39816D01*
X321414Y39816D01*
X318708D01*
Y28800D01*
Y18830D01*
X319470D01*
X319349Y18818D01*
X319241Y18780D01*
X319146Y18716D01*
X319064Y18627D01*
X318994Y18513D01*
X318937Y18373D01*
X318892Y18208D01*
X318860Y18018D01*
X318841Y17802D01*
X318841Y17784D01*
X321414D01*
X321716Y17784D01*
X322684D01*
X322986Y17784D01*
X329414D01*
X329716Y17784D01*
X330684D01*
X330986Y17784D01*
X332703D01*
X332955Y16514D01*
X331934Y16091D01*
X330809Y14966D01*
X330200Y13496D01*
Y11904D01*
X330809Y10434D01*
X331934Y9309D01*
X333404Y8700D01*
X334996D01*
X336466Y9309D01*
X337480Y10323D01*
X338200Y10383D01*
X338920Y10323D01*
X339934Y9309D01*
X341404Y8700D01*
X342996D01*
X344466Y9309D01*
X345591Y10434D01*
X346200Y11904D01*
Y13496D01*
X345591Y14966D01*
X344466Y16091D01*
X343445Y16514D01*
X343697Y17784D01*
X345414D01*
X345716Y17784D01*
X346684D01*
X346986Y17784D01*
X353414D01*
X353716Y17784D01*
X354684D01*
X355287Y17784D01*
X355646Y17346D01*
X355934Y16091D01*
X354809Y14966D01*
X354200Y13496D01*
Y11904D01*
X354809Y10434D01*
X355934Y9309D01*
X357404Y8700D01*
X358996D01*
X359374Y8447D01*
Y-11626D01*
X358299Y-12700D01*
X165100D01*
X154940Y-2540D01*
Y95457D01*
X173783Y114300D01*
X495300D01*
X505460Y104140D01*
D02*
G37*
G36*
X367349Y18818D02*
X367241Y18780D01*
X367146Y18716D01*
X367064Y18627D01*
X366994Y18513D01*
X366937Y18373D01*
X366892Y18208D01*
X366860Y18018D01*
X366841Y17802D01*
X366835Y17560D01*
X365565D01*
X365559Y17802D01*
X365540Y18018D01*
X365508Y18208D01*
X365463Y18373D01*
X365406Y18513D01*
X365336Y18627D01*
X365254Y18716D01*
X365159Y18780D01*
X365051Y18818D01*
X364930Y18830D01*
X367470D01*
X367349Y18818D01*
D02*
G37*
G36*
X359349D02*
X359241Y18780D01*
X359146Y18716D01*
X359064Y18627D01*
X358994Y18513D01*
X358937Y18373D01*
X358892Y18208D01*
X358860Y18018D01*
X358841Y17802D01*
X358835Y17560D01*
X357565D01*
X357559Y17802D01*
X357540Y18018D01*
X357508Y18208D01*
X357463Y18373D01*
X357406Y18513D01*
X357336Y18627D01*
X357254Y18716D01*
X357159Y18780D01*
X357051Y18818D01*
X356930Y18830D01*
X359470D01*
X359349Y18818D01*
D02*
G37*
G36*
X366844Y16032D02*
X366873Y15837D01*
X366920Y15643D01*
X366987Y15450D01*
X367072Y15258D01*
X367176Y15068D01*
X367300Y14878D01*
X367442Y14689D01*
X367603Y14502D01*
X367783Y14315D01*
X364617D01*
X364797Y14502D01*
X364958Y14689D01*
X365100Y14878D01*
X365224Y15068D01*
X365328Y15258D01*
X365413Y15450D01*
X365480Y15643D01*
X365527Y15837D01*
X365555Y16032D01*
X365565Y16228D01*
X366835D01*
X366844Y16032D01*
D02*
G37*
G36*
X358844D02*
X358873Y15837D01*
X358920Y15643D01*
X358987Y15450D01*
X359072Y15258D01*
X359176Y15068D01*
X359300Y14878D01*
X359442Y14689D01*
X359603Y14502D01*
X359783Y14315D01*
X356617Y14315D01*
X356797Y14502D01*
X356958Y14689D01*
X357100Y14878D01*
X357224Y15068D01*
X357328Y15258D01*
X357413Y15450D01*
X357480Y15643D01*
X357527Y15837D01*
X357556Y16032D01*
X357565Y16228D01*
X358835D01*
X358844Y16032D01*
D02*
G37*
G36*
X340176Y15458D02*
X340328Y15351D01*
X340498Y15257D01*
X340686Y15176D01*
X340890Y15108D01*
X341113Y15053D01*
X341353Y15011D01*
X341610Y14982D01*
X341885Y14965D01*
X342177Y14962D01*
X339938Y12723D01*
X339935Y13015D01*
X339889Y13547D01*
X339847Y13787D01*
X339792Y14010D01*
X339724Y14215D01*
X339643Y14402D01*
X339549Y14572D01*
X339442Y14724D01*
X339323Y14859D01*
X340041Y15577D01*
X340176Y15458D01*
D02*
G37*
G36*
X337077Y14859D02*
X336958Y14724D01*
X336851Y14572D01*
X336757Y14402D01*
X336676Y14215D01*
X336608Y14010D01*
X336553Y13787D01*
X336511Y13547D01*
X336482Y13290D01*
X336465Y13015D01*
X336462Y12723D01*
X334223Y14962D01*
X334515Y14965D01*
X335047Y15011D01*
X335287Y15053D01*
X335510Y15108D01*
X335714Y15176D01*
X335902Y15257D01*
X336072Y15351D01*
X336224Y15458D01*
X336359Y15577D01*
X337077Y14859D01*
D02*
G37*
G36*
X366177Y10438D02*
X365918Y10434D01*
X365672Y10415D01*
X365438Y10382D01*
X365216Y10335D01*
X365008Y10274D01*
X364812Y10199D01*
X364628Y10109D01*
X364458Y10006D01*
X364300Y9888D01*
X364154Y9756D01*
X363256Y10654D01*
X363388Y10799D01*
X363506Y10958D01*
X363610Y11128D01*
X363699Y11312D01*
X363774Y11508D01*
X363835Y11716D01*
X363882Y11938D01*
X363915Y12171D01*
X363934Y12418D01*
X363938Y12677D01*
X366177Y10438D01*
D02*
G37*
G36*
X360466Y12418D02*
X360485Y12171D01*
X360518Y11938D01*
X360565Y11716D01*
X360626Y11508D01*
X360701Y11312D01*
X360790Y11128D01*
X360894Y10958D01*
X361012Y10799D01*
X361144Y10654D01*
X360246Y9756D01*
X360100Y9888D01*
X359942Y10006D01*
X359772Y10109D01*
X359588Y10199D01*
X359392Y10274D01*
X359184Y10335D01*
X358963Y10382D01*
X358728Y10415D01*
X358482Y10434D01*
X358223Y10438D01*
X360462Y12677D01*
X360466Y12418D01*
D02*
G37*
%LPC*%
G36*
X478996Y92900D02*
X477404D01*
X475934Y92291D01*
X474920Y91277D01*
X474200Y91217D01*
X473480Y91277D01*
X472466Y92291D01*
X470996Y92900D01*
X469404D01*
X467934Y92291D01*
X466920Y91277D01*
X466200Y91217D01*
X465480Y91277D01*
X464466Y92291D01*
X462996Y92900D01*
X461404D01*
X459934Y92291D01*
X458809Y91166D01*
X458200Y89696D01*
Y88104D01*
X458809Y86634D01*
X459934Y85509D01*
X459647Y84253D01*
X459287Y83816D01*
X458684Y83816D01*
X457414Y83816D01*
X450986D01*
X450684Y83816D01*
X449716D01*
X449414Y83816D01*
X442986D01*
X441716Y83816D01*
X441414Y83816D01*
X434986D01*
X434684Y83816D01*
X433716D01*
X433414Y83816D01*
X426986D01*
X426684Y83816D01*
X425716D01*
X425414Y83816D01*
X418986D01*
X418684Y83816D01*
X417716D01*
X417414Y83816D01*
X410986D01*
X410684Y83816D01*
X409414Y83816D01*
X402986D01*
X402684Y83816D01*
X401716D01*
X401414Y83816D01*
X394986D01*
X393716Y83816D01*
X393414Y83816D01*
X386986D01*
X386684Y83816D01*
X385716D01*
X385414Y83816D01*
X378986D01*
X378684Y83816D01*
X377716D01*
X377414Y83816D01*
X370986D01*
X370684Y83816D01*
X369716D01*
X369414Y83816D01*
X362986D01*
X362684Y83816D01*
X361716D01*
X361414Y83816D01*
X354986D01*
X354684Y83816D01*
X353716D01*
X353414Y83816D01*
X346986D01*
X346684Y83816D01*
X345716D01*
X345414Y83816D01*
X338986D01*
X338684Y83816D01*
X337716D01*
X337414Y83816D01*
X330986D01*
X330684Y83816D01*
X329716D01*
X329414Y83816D01*
X322986D01*
X322684Y83816D01*
X321716D01*
X321414Y83816D01*
X321113D01*
X320753Y84253D01*
X320466Y85509D01*
X321591Y86634D01*
X322200Y88104D01*
Y89696D01*
X321591Y91166D01*
X320466Y92291D01*
X318996Y92900D01*
X317404D01*
X315934Y92291D01*
X314920Y91277D01*
X314200Y91217D01*
X313480Y91277D01*
X312466Y92291D01*
X310996Y92900D01*
X309404D01*
X307934Y92291D01*
X306809Y91166D01*
X306200Y89696D01*
Y88104D01*
X306809Y86634D01*
X307934Y85509D01*
X307647Y84253D01*
X307287Y83816D01*
X305716Y83816D01*
X305414Y83816D01*
X298986D01*
X298684Y83816D01*
X297716D01*
X297414Y83816D01*
X290986D01*
X290684Y83816D01*
X289716D01*
X289414Y83816D01*
X282986D01*
X282684Y83816D01*
X281716D01*
X281414Y83816D01*
X274986D01*
X274684Y83816D01*
X273716D01*
X273414Y83816D01*
X266986D01*
X266684Y83816D01*
X265414Y83816D01*
X258986D01*
X258684Y83816D01*
X257716D01*
X257414Y83816D01*
X250986D01*
X249716Y83816D01*
X249414Y83816D01*
X242986D01*
X242684Y83816D01*
X241716D01*
X241414Y83816D01*
X234986D01*
X234684Y83816D01*
X233716D01*
X233414Y83816D01*
X226986D01*
X226684Y83816D01*
X225716D01*
X225414Y83816D01*
X218986D01*
X218684Y83816D01*
X217414Y83816D01*
X210986D01*
X210684Y83816D01*
X209716D01*
X209414Y83816D01*
X202986D01*
X201716Y83816D01*
X201414Y83816D01*
X198841D01*
X198841Y83792D01*
X198860Y83571D01*
X198892Y83376D01*
X198937Y83207D01*
X198994Y83064D01*
X199064Y82947D01*
X199146Y82856D01*
X199241Y82791D01*
X199349Y82752D01*
X199470Y82739D01*
X198708D01*
Y72800D01*
Y61784D01*
X201414D01*
X202684Y61784D01*
X203287Y61784D01*
X203646Y61346D01*
X203934Y60091D01*
X202809Y58966D01*
X202200Y57496D01*
Y55904D01*
X202809Y54434D01*
X203934Y53309D01*
X205404Y52700D01*
X206996D01*
X208466Y53309D01*
X209591Y54434D01*
X210200Y55904D01*
Y57496D01*
X209591Y58966D01*
X208466Y60091D01*
X208754Y61346D01*
X209113Y61784D01*
X210684Y61784D01*
X210986Y61784D01*
X217414D01*
X217716Y61784D01*
X218986Y61784D01*
X225414D01*
X225716Y61784D01*
X226684D01*
X227287Y61784D01*
X227646Y61347D01*
X227934Y60091D01*
X226809Y58966D01*
X226200Y57496D01*
Y55904D01*
X226809Y54434D01*
X227934Y53309D01*
X229404Y52700D01*
X230996D01*
X232466Y53309D01*
X233591Y54434D01*
X234200Y55904D01*
Y57496D01*
X233591Y58966D01*
X232466Y60091D01*
X232754Y61347D01*
X233113Y61784D01*
X234684Y61784D01*
X234986Y61784D01*
X241414D01*
X241716Y61784D01*
X242684D01*
X242986Y61784D01*
X249414D01*
X250684Y61784D01*
X251287Y61784D01*
X251646Y61346D01*
X251934Y60091D01*
X250809Y58966D01*
X250200Y57496D01*
Y55904D01*
X250809Y54434D01*
X251934Y53309D01*
X253404Y52700D01*
X254996D01*
X256466Y53309D01*
X257591Y54434D01*
X258200Y55904D01*
Y57496D01*
X257591Y58966D01*
X256466Y60091D01*
X256754Y61346D01*
X257113Y61784D01*
X258684Y61784D01*
X258986Y61784D01*
X265414D01*
X265716Y61784D01*
X266986Y61784D01*
X273414D01*
X273716Y61784D01*
X274684D01*
X275287Y61784D01*
X275646Y61347D01*
X275934Y60091D01*
X274809Y58966D01*
X274200Y57496D01*
Y55904D01*
X274809Y54434D01*
X275934Y53309D01*
X277404Y52700D01*
X278996D01*
X280466Y53309D01*
X281591Y54434D01*
X282200Y55904D01*
Y57496D01*
X281591Y58966D01*
X280466Y60091D01*
X280754Y61347D01*
X281113Y61784D01*
X282684Y61784D01*
X282986Y61784D01*
X289414D01*
X289716Y61784D01*
X290684D01*
X290986Y61784D01*
X297414D01*
X297716Y61784D01*
X298684D01*
X299287Y61784D01*
X299646Y61347D01*
X299934Y60091D01*
X298809Y58966D01*
X298200Y57496D01*
Y55904D01*
X298809Y54434D01*
X299934Y53309D01*
X301404Y52700D01*
X302996D01*
X304466Y53309D01*
X305591Y54434D01*
X306200Y55904D01*
Y57496D01*
X305591Y58966D01*
X304466Y60091D01*
X304754Y61347D01*
X305113Y61784D01*
X306684Y61784D01*
X306986Y61784D01*
X313414D01*
X313716Y61784D01*
X314684D01*
X314986Y61784D01*
X321414D01*
X321716Y61784D01*
X322684D01*
X323287Y61784D01*
X323646Y61347D01*
X323934Y60091D01*
X322809Y58966D01*
X322200Y57496D01*
Y55904D01*
X322809Y54434D01*
X323934Y53309D01*
X325404Y52700D01*
X326996D01*
X328466Y53309D01*
X329591Y54434D01*
X330200Y55904D01*
Y57496D01*
X329591Y58966D01*
X328466Y60091D01*
X328754Y61347D01*
X329113Y61784D01*
X330684Y61784D01*
X330986Y61784D01*
X337414D01*
X337716Y61784D01*
X338684D01*
X338986Y61784D01*
X345414D01*
X345716Y61784D01*
X346684D01*
X347287Y61784D01*
X347646Y61347D01*
X347934Y60091D01*
X346809Y58966D01*
X346200Y57496D01*
Y55904D01*
X346809Y54434D01*
X347934Y53309D01*
X349404Y52700D01*
X350996D01*
X352466Y53309D01*
X353591Y54434D01*
X354200Y55904D01*
Y57496D01*
X353591Y58966D01*
X352466Y60091D01*
X352754Y61347D01*
X353113Y61784D01*
X354684Y61784D01*
X354986Y61784D01*
X361414D01*
X361716Y61784D01*
X362684D01*
X362986Y61784D01*
X369414D01*
X369716Y61784D01*
X370684D01*
X371287Y61784D01*
X371646Y61347D01*
X371934Y60091D01*
X370809Y58966D01*
X370200Y57496D01*
Y55904D01*
X370809Y54434D01*
X371934Y53309D01*
X373404Y52700D01*
X374996D01*
X376466Y53309D01*
X377591Y54434D01*
X378200Y55904D01*
Y57496D01*
X377591Y58966D01*
X376466Y60091D01*
X376754Y61347D01*
X377113Y61784D01*
X378684Y61784D01*
X378986Y61784D01*
X385414D01*
X385716Y61784D01*
X386684D01*
X386986Y61784D01*
X393414D01*
X394684Y61784D01*
X395287Y61784D01*
X395646Y61346D01*
X395934Y60091D01*
X394809Y58966D01*
X394200Y57496D01*
Y55904D01*
X394809Y54434D01*
X395934Y53309D01*
X397404Y52700D01*
X398996D01*
X400466Y53309D01*
X401591Y54434D01*
X402200Y55904D01*
Y57496D01*
X401591Y58966D01*
X400466Y60091D01*
X400754Y61346D01*
X401113Y61784D01*
X402684Y61784D01*
X402986Y61784D01*
X409414D01*
X409716Y61784D01*
X410986Y61784D01*
X417414D01*
X417716Y61784D01*
X418684D01*
X419287Y61784D01*
X419646Y61347D01*
X419934Y60091D01*
X418809Y58966D01*
X418200Y57496D01*
Y55904D01*
X418809Y54434D01*
X419934Y53309D01*
X421404Y52700D01*
X422996D01*
X424466Y53309D01*
X425591Y54434D01*
X426200Y55904D01*
Y57496D01*
X425591Y58966D01*
X424466Y60091D01*
X424754Y61347D01*
X425113Y61784D01*
X426684Y61784D01*
X426986Y61784D01*
X433414D01*
X433716Y61784D01*
X434684D01*
X435287Y61784D01*
X435646Y61347D01*
X435934Y60091D01*
X434809Y58966D01*
X434200Y57496D01*
Y55904D01*
X434809Y54434D01*
X435934Y53309D01*
X437404Y52700D01*
X438996D01*
X440466Y53309D01*
X441591Y54434D01*
X442200Y55904D01*
Y57496D01*
X441591Y58966D01*
X440466Y60091D01*
X440754Y61347D01*
X441113Y61784D01*
X442684Y61784D01*
X442986Y61784D01*
X449414D01*
X449716Y61784D01*
X450684D01*
X451287Y61784D01*
X451646Y61346D01*
X451934Y60091D01*
X450809Y58966D01*
X450200Y57496D01*
Y55904D01*
X450809Y54434D01*
X451934Y53309D01*
X453404Y52700D01*
X454996D01*
X456466Y53309D01*
X457591Y54434D01*
X458200Y55904D01*
Y57496D01*
X457591Y58966D01*
X456466Y60091D01*
X456754Y61346D01*
X457113Y61784D01*
X457716Y61784D01*
X458986Y61784D01*
X465414D01*
X465716Y61784D01*
X466684D01*
X466986Y61784D01*
X473414D01*
X473716Y61784D01*
X474684D01*
X474986Y61784D01*
X481414D01*
X481716Y61784D01*
X482684D01*
X483287Y61784D01*
X483646Y61347D01*
X483934Y60091D01*
X482809Y58966D01*
X482200Y57496D01*
Y55904D01*
X482809Y54434D01*
X483934Y53309D01*
X485404Y52700D01*
X486996D01*
X488466Y53309D01*
X489591Y54434D01*
X490200Y55904D01*
Y57496D01*
X489591Y58966D01*
X488466Y60091D01*
X488754Y61347D01*
X489113Y61784D01*
X489716D01*
Y83816D01*
X482986D01*
X482684Y83816D01*
X481716D01*
X481414Y83816D01*
X481113D01*
X480753Y84253D01*
X480466Y85509D01*
X481591Y86634D01*
X482200Y88104D01*
Y89696D01*
X481591Y91166D01*
X480466Y92291D01*
X478996Y92900D01*
D02*
G37*
G36*
X194684Y83816D02*
X193716D01*
X193414Y83816D01*
X190841D01*
X190841Y83792D01*
X190860Y83571D01*
X190892Y83376D01*
X190937Y83207D01*
X190994Y83064D01*
X191064Y82947D01*
X191146Y82856D01*
X191241Y82791D01*
X191349Y82752D01*
X191470Y82739D01*
X190708D01*
Y72800D01*
Y61784D01*
X193414D01*
X193716Y61784D01*
X194684D01*
X194986Y61784D01*
X197692D01*
Y72800D01*
Y82739D01*
X196930D01*
X197051Y82752D01*
X197159Y82791D01*
X197254Y82856D01*
X197336Y82947D01*
X197406Y83064D01*
X197463Y83207D01*
X197508Y83376D01*
X197540Y83571D01*
X197559Y83792D01*
X197559Y83816D01*
X194986D01*
X194684Y83816D01*
D02*
G37*
G36*
X186684D02*
X185716D01*
X185414Y83816D01*
X182841D01*
X182841Y83792D01*
X182860Y83571D01*
X182892Y83376D01*
X182937Y83207D01*
X182994Y83064D01*
X183064Y82947D01*
X183146Y82856D01*
X183241Y82791D01*
X183349Y82752D01*
X183470Y82739D01*
X182708D01*
Y72800D01*
Y61784D01*
X185414D01*
X185716Y61784D01*
X186684D01*
X186986Y61784D01*
X189692D01*
Y72800D01*
Y82739D01*
X188930D01*
X189051Y82752D01*
X189159Y82791D01*
X189254Y82856D01*
X189336Y82947D01*
X189406Y83064D01*
X189463Y83207D01*
X189508Y83376D01*
X189540Y83571D01*
X189559Y83792D01*
X189559Y83816D01*
X186986D01*
X186684Y83816D01*
D02*
G37*
G36*
X178684D02*
X177716D01*
X177414Y83816D01*
X170684D01*
Y61784D01*
X171287D01*
X171646Y61347D01*
X171934Y60091D01*
X170809Y58966D01*
X170200Y57496D01*
Y55904D01*
X170809Y54434D01*
X171934Y53309D01*
X173404Y52700D01*
X174996D01*
X176466Y53309D01*
X177591Y54434D01*
X178200Y55904D01*
Y57496D01*
X177591Y58966D01*
X176466Y60091D01*
X176754Y61347D01*
X177113Y61784D01*
X178684Y61784D01*
X178986Y61784D01*
X181692D01*
Y72800D01*
Y82739D01*
X180930D01*
X181051Y82752D01*
X181159Y82791D01*
X181254Y82856D01*
X181336Y82947D01*
X181406Y83064D01*
X181463Y83207D01*
X181508Y83376D01*
X181540Y83571D01*
X181559Y83792D01*
X181559Y83816D01*
X178986D01*
X178684Y83816D01*
D02*
G37*
G36*
X486996Y48900D02*
X485404D01*
X483934Y48291D01*
X482809Y47166D01*
X482200Y45696D01*
Y44104D01*
X482809Y42634D01*
X483934Y41509D01*
X483647Y40253D01*
X483287Y39816D01*
X481716Y39816D01*
X481414Y39816D01*
X478708D01*
Y28800D01*
Y18830D01*
X479470D01*
X479349Y18818D01*
X479241Y18780D01*
X479146Y18716D01*
X479064Y18627D01*
X478994Y18513D01*
X478937Y18373D01*
X478892Y18208D01*
X478860Y18018D01*
X478841Y17802D01*
X478841Y17784D01*
X481414D01*
X481716Y17784D01*
X482684D01*
X482986Y17784D01*
X489716D01*
Y39816D01*
X489113D01*
X488753Y40253D01*
X488466Y41509D01*
X489591Y42634D01*
X490200Y44104D01*
Y45696D01*
X489591Y47166D01*
X488466Y48291D01*
X486996Y48900D01*
D02*
G37*
G36*
X302996D02*
X301404D01*
X299934Y48291D01*
X298809Y47166D01*
X298200Y45696D01*
Y44104D01*
X298809Y42634D01*
X299934Y41509D01*
X299647Y40253D01*
X299287Y39816D01*
X297716Y39816D01*
X297414Y39816D01*
X290986D01*
X290684Y39816D01*
X289716D01*
X289414Y39816D01*
X282986D01*
X282684Y39816D01*
X281716D01*
X281414Y39816D01*
X281112D01*
X280753Y40253D01*
X280466Y41509D01*
X281591Y42634D01*
X282200Y44104D01*
Y45696D01*
X281591Y47166D01*
X280466Y48291D01*
X278996Y48900D01*
X277404D01*
X275934Y48291D01*
X274809Y47166D01*
X274200Y45696D01*
Y44104D01*
X274809Y42634D01*
X275934Y41509D01*
X275647Y40253D01*
X275287Y39816D01*
X273716Y39816D01*
X273414Y39816D01*
X266986D01*
X265716Y39816D01*
X265414Y39816D01*
X258986D01*
X258684Y39816D01*
X257716D01*
X257414Y39816D01*
X257113D01*
X256753Y40253D01*
X256466Y41509D01*
X257591Y42634D01*
X258200Y44104D01*
Y45696D01*
X257591Y47166D01*
X256466Y48291D01*
X254996Y48900D01*
X253404D01*
X251934Y48291D01*
X250809Y47166D01*
X250200Y45696D01*
Y44104D01*
X250809Y42634D01*
X251934Y41509D01*
X251647Y40253D01*
X251287Y39816D01*
X250684Y39816D01*
X249414Y39816D01*
X242986D01*
X242684Y39816D01*
X241716D01*
X241414Y39816D01*
X234986D01*
X234684Y39816D01*
X233716D01*
X233414Y39816D01*
X233113D01*
X232753Y40253D01*
X232466Y41509D01*
X233591Y42634D01*
X234200Y44104D01*
Y45696D01*
X233591Y47166D01*
X232466Y48291D01*
X230996Y48900D01*
X229404D01*
X227934Y48291D01*
X226809Y47166D01*
X226200Y45696D01*
Y44104D01*
X226809Y42634D01*
X227934Y41509D01*
X227647Y40253D01*
X227287Y39816D01*
X225716Y39816D01*
X225414Y39816D01*
X218986D01*
X217716Y39816D01*
X217414Y39816D01*
X210986D01*
X210684Y39816D01*
X209716D01*
X209414Y39816D01*
X209113D01*
X208753Y40253D01*
X208466Y41509D01*
X209591Y42634D01*
X210200Y44104D01*
Y45696D01*
X209591Y47166D01*
X208466Y48291D01*
X206996Y48900D01*
X205404D01*
X203934Y48291D01*
X202809Y47166D01*
X202200Y45696D01*
Y44104D01*
X202809Y42634D01*
X203934Y41509D01*
X203647Y40253D01*
X203287Y39816D01*
X202684Y39816D01*
X201414Y39816D01*
X194986D01*
X194684Y39816D01*
X193716D01*
X193414Y39816D01*
X186986D01*
X186684Y39816D01*
X185716D01*
X185414Y39816D01*
X178986D01*
X178684Y39816D01*
X177716D01*
X177414Y39816D01*
X177113D01*
X176753Y40253D01*
X176466Y41509D01*
X177591Y42634D01*
X178200Y44104D01*
Y45696D01*
X177591Y47166D01*
X176466Y48291D01*
X174996Y48900D01*
X173404D01*
X171934Y48291D01*
X170809Y47166D01*
X170200Y45696D01*
Y44104D01*
X170809Y42634D01*
X171934Y41509D01*
X171647Y40253D01*
X171287Y39816D01*
X170684D01*
Y17784D01*
X177414D01*
X177716Y17784D01*
X178684D01*
X179287Y17784D01*
X179646Y17346D01*
X179934Y16091D01*
X178809Y14966D01*
X178200Y13496D01*
Y11904D01*
X178809Y10434D01*
X179934Y9309D01*
X181404Y8700D01*
X182996D01*
X184466Y9309D01*
X185480Y10323D01*
X186200Y10383D01*
X186920Y10323D01*
X187934Y9309D01*
X189404Y8700D01*
X190996D01*
X192466Y9309D01*
X193480Y10323D01*
X194200Y10383D01*
X194920Y10323D01*
X195934Y9309D01*
X197404Y8700D01*
X198996D01*
X200466Y9309D01*
X201591Y10434D01*
X202200Y11904D01*
Y13496D01*
X201591Y14966D01*
X200466Y16091D01*
X200754Y17346D01*
X201113Y17784D01*
X201716Y17784D01*
X202986Y17784D01*
X209414D01*
X209716Y17784D01*
X210684D01*
X210986Y17784D01*
X217414D01*
X218684Y17784D01*
X218986Y17784D01*
X225414D01*
X225716Y17784D01*
X226684D01*
X226986Y17784D01*
X233414D01*
X233716Y17784D01*
X234684D01*
X234986Y17784D01*
X241414D01*
X241716Y17784D01*
X242684D01*
X242986Y17784D01*
X249414D01*
X249716Y17784D01*
X250986Y17784D01*
X257414D01*
X257716Y17784D01*
X258684D01*
X258986Y17784D01*
X265414D01*
X266684Y17784D01*
X266986Y17784D01*
X273414D01*
X273716Y17784D01*
X274684D01*
X274986Y17784D01*
X281414D01*
X281716Y17784D01*
X282684D01*
X282986Y17784D01*
X289414D01*
X289716Y17784D01*
X290684D01*
X290986Y17784D01*
X297414D01*
X297716Y17784D01*
X298684D01*
X298986Y17784D01*
X305414D01*
X305716Y17784D01*
X306684D01*
X306986Y17784D01*
X309559D01*
X309559Y17802D01*
X309540Y18018D01*
X309508Y18208D01*
X309463Y18373D01*
X309406Y18513D01*
X309336Y18627D01*
X309254Y18716D01*
X309159Y18780D01*
X309051Y18818D01*
X308930Y18830D01*
X309692D01*
Y28800D01*
Y39816D01*
X306986D01*
X306684Y39816D01*
X305716D01*
X305414Y39816D01*
X305112D01*
X304753Y40253D01*
X304466Y41509D01*
X305591Y42634D01*
X306200Y44104D01*
Y45696D01*
X305591Y47166D01*
X304466Y48291D01*
X302996Y48900D01*
D02*
G37*
G36*
X474684Y39816D02*
X473716D01*
X473414Y39816D01*
X470708D01*
Y28800D01*
Y18830D01*
X471470D01*
X471349Y18818D01*
X471241Y18780D01*
X471146Y18716D01*
X471064Y18627D01*
X470994Y18513D01*
X470937Y18373D01*
X470892Y18208D01*
X470860Y18018D01*
X470841Y17802D01*
X470841Y17784D01*
X473414D01*
X473716Y17784D01*
X474684D01*
X474986Y17784D01*
X477559D01*
X477559Y17802D01*
X477540Y18018D01*
X477508Y18208D01*
X477463Y18373D01*
X477406Y18513D01*
X477336Y18627D01*
X477254Y18716D01*
X477159Y18780D01*
X477051Y18818D01*
X476930Y18830D01*
X477692D01*
Y28800D01*
Y39816D01*
X474986D01*
X474684Y39816D01*
D02*
G37*
G36*
X466684D02*
X465716D01*
X465414Y39816D01*
X462708D01*
Y28800D01*
Y18830D01*
X463470D01*
X463349Y18818D01*
X463241Y18780D01*
X463146Y18716D01*
X463064Y18627D01*
X462994Y18513D01*
X462937Y18373D01*
X462892Y18208D01*
X462860Y18018D01*
X462841Y17802D01*
X462841Y17784D01*
X465414D01*
X465716Y17784D01*
X466684D01*
X466986Y17784D01*
X469559D01*
X469559Y17802D01*
X469540Y18018D01*
X469508Y18208D01*
X469463Y18373D01*
X469406Y18513D01*
X469336Y18627D01*
X469254Y18716D01*
X469159Y18780D01*
X469051Y18818D01*
X468930Y18830D01*
X469692D01*
Y28800D01*
Y39816D01*
X466986D01*
X466684Y39816D01*
D02*
G37*
G36*
X314684D02*
X313716D01*
X313414Y39816D01*
X310708D01*
Y28800D01*
Y18830D01*
X311470D01*
X311349Y18818D01*
X311241Y18780D01*
X311146Y18716D01*
X311064Y18627D01*
X310994Y18513D01*
X310937Y18373D01*
X310892Y18208D01*
X310860Y18018D01*
X310841Y17802D01*
X310841Y17784D01*
X313414D01*
X313716Y17784D01*
X314684D01*
X314986Y17784D01*
X317559D01*
X317559Y17802D01*
X317540Y18018D01*
X317508Y18208D01*
X317463Y18373D01*
X317406Y18513D01*
X317336Y18627D01*
X317254Y18716D01*
X317159Y18780D01*
X317051Y18818D01*
X316930Y18830D01*
X317692D01*
Y28800D01*
Y39816D01*
X314986D01*
X314684Y39816D01*
D02*
G37*
G36*
X376716Y9080D02*
X375124D01*
X373654Y8471D01*
X372529Y7346D01*
X371920Y5876D01*
Y4284D01*
X372529Y2814D01*
X373654Y1689D01*
X375124Y1080D01*
X376716D01*
X378186Y1689D01*
X379311Y2814D01*
X379920Y4284D01*
Y5876D01*
X379311Y7346D01*
X378186Y8471D01*
X376716Y9080D01*
D02*
G37*
G36*
X351316D02*
X349724D01*
X348254Y8471D01*
X347129Y7346D01*
X346520Y5876D01*
Y4284D01*
X347129Y2814D01*
X348254Y1689D01*
X349724Y1080D01*
X351316D01*
X352786Y1689D01*
X353911Y2814D01*
X354520Y4284D01*
Y5876D01*
X353911Y7346D01*
X352786Y8471D01*
X351316Y9080D01*
D02*
G37*
G36*
X325916D02*
X324324D01*
X322854Y8471D01*
X321729Y7346D01*
X321120Y5876D01*
Y4284D01*
X321729Y2814D01*
X322854Y1689D01*
X324324Y1080D01*
X325916D01*
X327386Y1689D01*
X328511Y2814D01*
X329120Y4284D01*
Y5876D01*
X328511Y7346D01*
X327386Y8471D01*
X325916Y9080D01*
D02*
G37*
%LPD*%
G36*
X479603Y87098D02*
X479442Y86911D01*
X479300Y86722D01*
X479176Y86532D01*
X479072Y86342D01*
X478987Y86150D01*
X478920Y85957D01*
X478873Y85763D01*
X478844Y85568D01*
X478835Y85372D01*
X477565D01*
X477556Y85568D01*
X477527Y85763D01*
X477480Y85957D01*
X477413Y86150D01*
X477328Y86342D01*
X477224Y86532D01*
X477100Y86722D01*
X476958Y86911D01*
X476797Y87098D01*
X476617Y87285D01*
X479783D01*
X479603Y87098D01*
D02*
G37*
G36*
X471603D02*
X471442Y86911D01*
X471300Y86722D01*
X471176Y86532D01*
X471072Y86342D01*
X470987Y86150D01*
X470920Y85957D01*
X470873Y85763D01*
X470844Y85568D01*
X470835Y85372D01*
X469565D01*
X469556Y85568D01*
X469527Y85763D01*
X469480Y85957D01*
X469413Y86150D01*
X469328Y86342D01*
X469224Y86532D01*
X469100Y86722D01*
X468958Y86911D01*
X468797Y87098D01*
X468617Y87285D01*
X471783D01*
X471603Y87098D01*
D02*
G37*
G36*
X463603D02*
X463442Y86911D01*
X463300Y86722D01*
X463176Y86532D01*
X463072Y86342D01*
X462987Y86150D01*
X462920Y85957D01*
X462873Y85763D01*
X462845Y85568D01*
X462835Y85372D01*
X461565D01*
X461555Y85568D01*
X461527Y85763D01*
X461480Y85957D01*
X461413Y86150D01*
X461328Y86342D01*
X461224Y86532D01*
X461100Y86722D01*
X460958Y86911D01*
X460797Y87098D01*
X460617Y87285D01*
X463783D01*
X463603Y87098D01*
D02*
G37*
G36*
X319603D02*
X319442Y86911D01*
X319300Y86722D01*
X319176Y86532D01*
X319072Y86342D01*
X318987Y86150D01*
X318920Y85957D01*
X318873Y85763D01*
X318845Y85568D01*
X318835Y85372D01*
X317565D01*
X317556Y85568D01*
X317527Y85763D01*
X317480Y85957D01*
X317413Y86150D01*
X317328Y86342D01*
X317224Y86532D01*
X317100Y86722D01*
X316958Y86911D01*
X316797Y87098D01*
X316617Y87285D01*
X319783D01*
X319603Y87098D01*
D02*
G37*
G36*
X311603D02*
X311442Y86911D01*
X311300Y86722D01*
X311176Y86532D01*
X311072Y86342D01*
X310987Y86150D01*
X310920Y85957D01*
X310873Y85763D01*
X310844Y85568D01*
X310835Y85372D01*
X309565D01*
X309555Y85568D01*
X309527Y85763D01*
X309480Y85957D01*
X309413Y86150D01*
X309328Y86342D01*
X309224Y86532D01*
X309100Y86722D01*
X308958Y86911D01*
X308797Y87098D01*
X308617Y87285D01*
X311783D01*
X311603Y87098D01*
D02*
G37*
G36*
X478841Y83792D02*
X478860Y83571D01*
X478892Y83376D01*
X478937Y83207D01*
X478994Y83064D01*
X479064Y82947D01*
X479146Y82856D01*
X479241Y82791D01*
X479349Y82752D01*
X479470Y82739D01*
X476930D01*
X477051Y82752D01*
X477159Y82791D01*
X477254Y82856D01*
X477336Y82947D01*
X477406Y83064D01*
X477463Y83207D01*
X477508Y83376D01*
X477540Y83571D01*
X477559Y83792D01*
X477565Y84039D01*
X478835D01*
X478841Y83792D01*
D02*
G37*
G36*
X470841D02*
X470860Y83571D01*
X470892Y83376D01*
X470937Y83207D01*
X470994Y83064D01*
X471064Y82947D01*
X471146Y82856D01*
X471241Y82791D01*
X471349Y82752D01*
X471470Y82739D01*
X468930D01*
X469051Y82752D01*
X469159Y82791D01*
X469254Y82856D01*
X469336Y82947D01*
X469406Y83064D01*
X469463Y83207D01*
X469508Y83376D01*
X469540Y83571D01*
X469559Y83792D01*
X469565Y84039D01*
X470835D01*
X470841Y83792D01*
D02*
G37*
G36*
X462841D02*
X462860Y83571D01*
X462892Y83376D01*
X462937Y83207D01*
X462994Y83064D01*
X463064Y82947D01*
X463146Y82856D01*
X463241Y82791D01*
X463349Y82752D01*
X463470Y82739D01*
X460930D01*
X461051Y82752D01*
X461159Y82791D01*
X461254Y82856D01*
X461336Y82947D01*
X461406Y83064D01*
X461463Y83207D01*
X461508Y83376D01*
X461540Y83571D01*
X461559Y83792D01*
X461565Y84039D01*
X462835D01*
X462841Y83792D01*
D02*
G37*
G36*
X318841D02*
X318860Y83571D01*
X318892Y83376D01*
X318937Y83207D01*
X318994Y83064D01*
X319064Y82947D01*
X319146Y82856D01*
X319241Y82791D01*
X319349Y82752D01*
X319470Y82739D01*
X316930D01*
X317051Y82752D01*
X317159Y82791D01*
X317254Y82856D01*
X317336Y82947D01*
X317406Y83064D01*
X317463Y83207D01*
X317508Y83376D01*
X317540Y83571D01*
X317559Y83792D01*
X317565Y84039D01*
X318835D01*
X318841Y83792D01*
D02*
G37*
G36*
X310841D02*
X310860Y83571D01*
X310892Y83376D01*
X310937Y83207D01*
X310994Y83064D01*
X311064Y82947D01*
X311146Y82856D01*
X311241Y82791D01*
X311349Y82752D01*
X311470Y82739D01*
X308930D01*
X309051Y82752D01*
X309159Y82791D01*
X309254Y82856D01*
X309336Y82947D01*
X309406Y83064D01*
X309463Y83207D01*
X309508Y83376D01*
X309540Y83571D01*
X309559Y83792D01*
X309565Y84039D01*
X310835D01*
X310841Y83792D01*
D02*
G37*
G36*
X487349Y62818D02*
X487241Y62780D01*
X487146Y62716D01*
X487064Y62627D01*
X486994Y62513D01*
X486937Y62373D01*
X486892Y62208D01*
X486860Y62018D01*
X486841Y61802D01*
X486835Y61561D01*
X485565D01*
X485559Y61802D01*
X485540Y62018D01*
X485508Y62208D01*
X485463Y62373D01*
X485406Y62513D01*
X485336Y62627D01*
X485254Y62716D01*
X485159Y62780D01*
X485051Y62818D01*
X484930Y62831D01*
X487470D01*
X487349Y62818D01*
D02*
G37*
G36*
X439349D02*
X439241Y62780D01*
X439146Y62716D01*
X439064Y62627D01*
X438994Y62513D01*
X438937Y62373D01*
X438892Y62208D01*
X438860Y62018D01*
X438841Y61802D01*
X438835Y61561D01*
X437565D01*
X437559Y61802D01*
X437540Y62018D01*
X437508Y62208D01*
X437463Y62373D01*
X437406Y62513D01*
X437336Y62627D01*
X437254Y62716D01*
X437159Y62780D01*
X437051Y62818D01*
X436930Y62831D01*
X439470D01*
X439349Y62818D01*
D02*
G37*
G36*
X423349D02*
X423241Y62780D01*
X423146Y62716D01*
X423064Y62627D01*
X422994Y62513D01*
X422937Y62373D01*
X422892Y62208D01*
X422860Y62018D01*
X422841Y61802D01*
X422835Y61561D01*
X421565D01*
X421559Y61802D01*
X421540Y62018D01*
X421508Y62208D01*
X421463Y62373D01*
X421406Y62513D01*
X421336Y62627D01*
X421254Y62716D01*
X421159Y62780D01*
X421051Y62818D01*
X420930Y62831D01*
X423470D01*
X423349Y62818D01*
D02*
G37*
G36*
X375349D02*
X375241Y62780D01*
X375146Y62716D01*
X375064Y62627D01*
X374994Y62513D01*
X374937Y62373D01*
X374892Y62208D01*
X374860Y62018D01*
X374841Y61802D01*
X374835Y61561D01*
X373565D01*
X373559Y61802D01*
X373540Y62018D01*
X373508Y62208D01*
X373463Y62373D01*
X373406Y62513D01*
X373336Y62627D01*
X373254Y62716D01*
X373159Y62780D01*
X373051Y62818D01*
X372930Y62831D01*
X375470D01*
X375349Y62818D01*
D02*
G37*
G36*
X351349D02*
X351241Y62780D01*
X351146Y62716D01*
X351064Y62627D01*
X350994Y62513D01*
X350937Y62373D01*
X350892Y62208D01*
X350860Y62018D01*
X350841Y61802D01*
X350835Y61561D01*
X349565D01*
X349559Y61802D01*
X349540Y62018D01*
X349508Y62208D01*
X349463Y62373D01*
X349406Y62513D01*
X349336Y62627D01*
X349254Y62716D01*
X349159Y62780D01*
X349051Y62818D01*
X348930Y62831D01*
X351470D01*
X351349Y62818D01*
D02*
G37*
G36*
X327349D02*
X327241Y62780D01*
X327146Y62716D01*
X327064Y62627D01*
X326994Y62513D01*
X326937Y62373D01*
X326892Y62208D01*
X326860Y62018D01*
X326841Y61802D01*
X326835Y61561D01*
X325565D01*
X325559Y61802D01*
X325540Y62018D01*
X325508Y62208D01*
X325463Y62373D01*
X325406Y62513D01*
X325336Y62627D01*
X325254Y62716D01*
X325159Y62780D01*
X325051Y62818D01*
X324930Y62831D01*
X327470D01*
X327349Y62818D01*
D02*
G37*
G36*
X303349D02*
X303241Y62780D01*
X303146Y62716D01*
X303064Y62627D01*
X302994Y62513D01*
X302937Y62373D01*
X302892Y62208D01*
X302860Y62018D01*
X302841Y61802D01*
X302835Y61561D01*
X301565D01*
X301559Y61802D01*
X301540Y62018D01*
X301508Y62208D01*
X301463Y62373D01*
X301406Y62513D01*
X301336Y62627D01*
X301254Y62716D01*
X301159Y62780D01*
X301051Y62818D01*
X300930Y62831D01*
X303470D01*
X303349Y62818D01*
D02*
G37*
G36*
X279349D02*
X279241Y62780D01*
X279146Y62716D01*
X279064Y62627D01*
X278994Y62513D01*
X278937Y62373D01*
X278892Y62208D01*
X278860Y62018D01*
X278841Y61802D01*
X278835Y61561D01*
X277565D01*
X277559Y61802D01*
X277540Y62018D01*
X277508Y62208D01*
X277463Y62373D01*
X277406Y62513D01*
X277336Y62627D01*
X277254Y62716D01*
X277159Y62780D01*
X277051Y62818D01*
X276930Y62831D01*
X279470D01*
X279349Y62818D01*
D02*
G37*
G36*
X231349D02*
X231241Y62780D01*
X231146Y62716D01*
X231064Y62627D01*
X230994Y62513D01*
X230937Y62373D01*
X230892Y62208D01*
X230860Y62018D01*
X230841Y61802D01*
X230835Y61561D01*
X229565D01*
X229559Y61802D01*
X229540Y62018D01*
X229508Y62208D01*
X229463Y62373D01*
X229406Y62513D01*
X229336Y62627D01*
X229254Y62716D01*
X229159Y62780D01*
X229051Y62818D01*
X228930Y62831D01*
X231470D01*
X231349Y62818D01*
D02*
G37*
G36*
X455349Y62818D02*
X455241Y62780D01*
X455146Y62716D01*
X455064Y62627D01*
X454994Y62513D01*
X454937Y62373D01*
X454892Y62208D01*
X454860Y62018D01*
X454841Y61802D01*
X454835Y61561D01*
X453565D01*
X453559Y61802D01*
X453540Y62018D01*
X453508Y62208D01*
X453463Y62373D01*
X453406Y62513D01*
X453336Y62627D01*
X453254Y62716D01*
X453159Y62780D01*
X453051Y62818D01*
X452930Y62831D01*
X455470D01*
X455349Y62818D01*
D02*
G37*
G36*
X399349D02*
X399241Y62780D01*
X399146Y62716D01*
X399064Y62627D01*
X398994Y62513D01*
X398937Y62373D01*
X398892Y62208D01*
X398860Y62018D01*
X398841Y61802D01*
X398835Y61561D01*
X397565D01*
X397559Y61802D01*
X397540Y62018D01*
X397508Y62208D01*
X397463Y62373D01*
X397406Y62513D01*
X397336Y62627D01*
X397254Y62716D01*
X397159Y62780D01*
X397051Y62818D01*
X396930Y62831D01*
X399470D01*
X399349Y62818D01*
D02*
G37*
G36*
X255349D02*
X255241Y62780D01*
X255146Y62716D01*
X255064Y62627D01*
X254994Y62513D01*
X254937Y62373D01*
X254892Y62208D01*
X254860Y62018D01*
X254841Y61802D01*
X254835Y61561D01*
X253565D01*
X253559Y61802D01*
X253540Y62018D01*
X253508Y62208D01*
X253463Y62373D01*
X253406Y62513D01*
X253336Y62627D01*
X253254Y62716D01*
X253159Y62780D01*
X253051Y62818D01*
X252930Y62831D01*
X255470D01*
X255349Y62818D01*
D02*
G37*
G36*
X207349D02*
X207241Y62780D01*
X207146Y62716D01*
X207064Y62627D01*
X206994Y62513D01*
X206937Y62373D01*
X206892Y62208D01*
X206860Y62018D01*
X206841Y61802D01*
X206835Y61561D01*
X205565D01*
X205559Y61802D01*
X205540Y62018D01*
X205508Y62208D01*
X205463Y62373D01*
X205406Y62513D01*
X205336Y62627D01*
X205254Y62716D01*
X205159Y62780D01*
X205051Y62818D01*
X204930Y62831D01*
X207470D01*
X207349Y62818D01*
D02*
G37*
G36*
X486844Y60032D02*
X486873Y59837D01*
X486920Y59643D01*
X486987Y59450D01*
X487072Y59258D01*
X487176Y59068D01*
X487300Y58878D01*
X487442Y58689D01*
X487603Y58502D01*
X487783Y58315D01*
X484617D01*
X484797Y58502D01*
X484958Y58689D01*
X485100Y58878D01*
X485224Y59068D01*
X485328Y59258D01*
X485413Y59450D01*
X485480Y59643D01*
X485527Y59837D01*
X485555Y60032D01*
X485565Y60228D01*
X486835D01*
X486844Y60032D01*
D02*
G37*
G36*
X454845D02*
X454873Y59837D01*
X454920Y59643D01*
X454987Y59450D01*
X455072Y59258D01*
X455176Y59068D01*
X455300Y58878D01*
X455442Y58689D01*
X455603Y58502D01*
X455783Y58315D01*
X452617D01*
X452797Y58502D01*
X452958Y58689D01*
X453100Y58878D01*
X453224Y59068D01*
X453328Y59258D01*
X453413Y59450D01*
X453480Y59643D01*
X453527Y59837D01*
X453555Y60032D01*
X453565Y60228D01*
X454835D01*
X454845Y60032D01*
D02*
G37*
G36*
X438844D02*
X438873Y59837D01*
X438920Y59643D01*
X438987Y59450D01*
X439072Y59258D01*
X439176Y59068D01*
X439300Y58878D01*
X439442Y58689D01*
X439603Y58502D01*
X439783Y58315D01*
X436617D01*
X436797Y58502D01*
X436958Y58689D01*
X437100Y58878D01*
X437224Y59068D01*
X437328Y59258D01*
X437413Y59450D01*
X437480Y59643D01*
X437527Y59837D01*
X437556Y60032D01*
X437565Y60228D01*
X438835D01*
X438844Y60032D01*
D02*
G37*
G36*
X422845D02*
X422873Y59837D01*
X422920Y59643D01*
X422987Y59450D01*
X423072Y59258D01*
X423176Y59068D01*
X423300Y58878D01*
X423442Y58689D01*
X423603Y58502D01*
X423783Y58315D01*
X420617D01*
X420797Y58502D01*
X420958Y58689D01*
X421100Y58878D01*
X421224Y59068D01*
X421328Y59258D01*
X421413Y59450D01*
X421480Y59643D01*
X421527Y59837D01*
X421555Y60032D01*
X421565Y60228D01*
X422835D01*
X422845Y60032D01*
D02*
G37*
G36*
X398844D02*
X398873Y59837D01*
X398920Y59643D01*
X398987Y59450D01*
X399072Y59258D01*
X399176Y59068D01*
X399300Y58878D01*
X399442Y58689D01*
X399603Y58502D01*
X399783Y58315D01*
X396617D01*
X396797Y58502D01*
X396958Y58689D01*
X397100Y58878D01*
X397224Y59068D01*
X397328Y59258D01*
X397413Y59450D01*
X397480Y59643D01*
X397527Y59837D01*
X397556Y60032D01*
X397565Y60228D01*
X398835D01*
X398844Y60032D01*
D02*
G37*
G36*
X374845D02*
X374873Y59837D01*
X374920Y59643D01*
X374987Y59450D01*
X375072Y59258D01*
X375176Y59068D01*
X375300Y58878D01*
X375442Y58689D01*
X375603Y58502D01*
X375783Y58315D01*
X372617D01*
X372797Y58502D01*
X372958Y58689D01*
X373100Y58878D01*
X373224Y59068D01*
X373328Y59258D01*
X373413Y59450D01*
X373480Y59643D01*
X373527Y59837D01*
X373555Y60032D01*
X373565Y60228D01*
X374835D01*
X374845Y60032D01*
D02*
G37*
G36*
X350844D02*
X350873Y59837D01*
X350920Y59643D01*
X350987Y59450D01*
X351072Y59258D01*
X351176Y59068D01*
X351300Y58878D01*
X351442Y58689D01*
X351603Y58502D01*
X351783Y58315D01*
X348617D01*
X348797Y58502D01*
X348958Y58689D01*
X349100Y58878D01*
X349224Y59068D01*
X349328Y59258D01*
X349413Y59450D01*
X349480Y59643D01*
X349527Y59837D01*
X349556Y60032D01*
X349565Y60228D01*
X350835D01*
X350844Y60032D01*
D02*
G37*
G36*
X326844D02*
X326873Y59837D01*
X326920Y59643D01*
X326987Y59450D01*
X327072Y59258D01*
X327176Y59068D01*
X327300Y58878D01*
X327442Y58689D01*
X327603Y58502D01*
X327783Y58315D01*
X324617D01*
X324797Y58502D01*
X324958Y58689D01*
X325100Y58878D01*
X325224Y59068D01*
X325328Y59258D01*
X325413Y59450D01*
X325480Y59643D01*
X325527Y59837D01*
X325555Y60032D01*
X325565Y60228D01*
X326835D01*
X326844Y60032D01*
D02*
G37*
G36*
X302845D02*
X302873Y59837D01*
X302920Y59643D01*
X302987Y59450D01*
X303072Y59258D01*
X303176Y59068D01*
X303300Y58878D01*
X303442Y58689D01*
X303603Y58502D01*
X303783Y58315D01*
X300617D01*
X300797Y58502D01*
X300958Y58689D01*
X301100Y58878D01*
X301224Y59068D01*
X301328Y59258D01*
X301413Y59450D01*
X301480Y59643D01*
X301527Y59837D01*
X301556Y60032D01*
X301565Y60228D01*
X302835D01*
X302845Y60032D01*
D02*
G37*
G36*
X278845D02*
X278873Y59837D01*
X278920Y59643D01*
X278987Y59450D01*
X279072Y59258D01*
X279176Y59068D01*
X279300Y58878D01*
X279442Y58689D01*
X279603Y58502D01*
X279783Y58315D01*
X276617D01*
X276797Y58502D01*
X276958Y58689D01*
X277100Y58878D01*
X277224Y59068D01*
X277328Y59258D01*
X277413Y59450D01*
X277480Y59643D01*
X277527Y59837D01*
X277556Y60032D01*
X277565Y60228D01*
X278835D01*
X278845Y60032D01*
D02*
G37*
G36*
X254844D02*
X254873Y59837D01*
X254920Y59643D01*
X254987Y59450D01*
X255072Y59258D01*
X255176Y59068D01*
X255300Y58878D01*
X255442Y58689D01*
X255603Y58502D01*
X255783Y58315D01*
X252617D01*
X252797Y58502D01*
X252958Y58689D01*
X253100Y58878D01*
X253224Y59068D01*
X253328Y59258D01*
X253413Y59450D01*
X253480Y59643D01*
X253527Y59837D01*
X253556Y60032D01*
X253565Y60228D01*
X254835D01*
X254844Y60032D01*
D02*
G37*
G36*
X230844D02*
X230873Y59837D01*
X230920Y59643D01*
X230987Y59450D01*
X231072Y59258D01*
X231176Y59068D01*
X231300Y58878D01*
X231442Y58689D01*
X231603Y58502D01*
X231783Y58315D01*
X228617D01*
X228797Y58502D01*
X228958Y58689D01*
X229100Y58878D01*
X229224Y59068D01*
X229328Y59258D01*
X229413Y59450D01*
X229480Y59643D01*
X229527Y59837D01*
X229555Y60032D01*
X229565Y60228D01*
X230835D01*
X230844Y60032D01*
D02*
G37*
G36*
X206845D02*
X206873Y59837D01*
X206920Y59643D01*
X206987Y59450D01*
X207072Y59258D01*
X207176Y59068D01*
X207300Y58878D01*
X207442Y58689D01*
X207603Y58502D01*
X207783Y58315D01*
X204617D01*
X204797Y58502D01*
X204958Y58689D01*
X205100Y58878D01*
X205224Y59068D01*
X205328Y59258D01*
X205413Y59450D01*
X205480Y59643D01*
X205527Y59837D01*
X205555Y60032D01*
X205565Y60228D01*
X206835D01*
X206845Y60032D01*
D02*
G37*
G36*
X175349Y62818D02*
X175241Y62780D01*
X175146Y62716D01*
X175064Y62627D01*
X174994Y62513D01*
X174937Y62373D01*
X174892Y62208D01*
X174860Y62018D01*
X174841Y61802D01*
X174835Y61561D01*
X173565D01*
X173559Y61802D01*
X173540Y62018D01*
X173508Y62208D01*
X173463Y62373D01*
X173406Y62513D01*
X173336Y62627D01*
X173254Y62716D01*
X173159Y62780D01*
X173051Y62818D01*
X172930Y62831D01*
X175470D01*
X175349Y62818D01*
D02*
G37*
G36*
X174844Y60032D02*
X174873Y59837D01*
X174920Y59643D01*
X174987Y59450D01*
X175072Y59258D01*
X175176Y59068D01*
X175300Y58878D01*
X175442Y58689D01*
X175603Y58502D01*
X175783Y58315D01*
X172617D01*
X172797Y58502D01*
X172958Y58689D01*
X173100Y58878D01*
X173224Y59068D01*
X173328Y59258D01*
X173413Y59450D01*
X173480Y59643D01*
X173527Y59837D01*
X173556Y60032D01*
X173565Y60228D01*
X174835D01*
X174844Y60032D01*
D02*
G37*
G36*
X487603Y43098D02*
X487442Y42911D01*
X487300Y42722D01*
X487176Y42532D01*
X487072Y42342D01*
X486987Y42150D01*
X486920Y41957D01*
X486873Y41763D01*
X486844Y41568D01*
X486835Y41372D01*
X485565D01*
X485555Y41568D01*
X485527Y41763D01*
X485480Y41957D01*
X485413Y42150D01*
X485328Y42342D01*
X485224Y42532D01*
X485100Y42722D01*
X484958Y42911D01*
X484797Y43098D01*
X484617Y43285D01*
X487783D01*
X487603Y43098D01*
D02*
G37*
G36*
X486841Y39792D02*
X486860Y39571D01*
X486892Y39376D01*
X486937Y39207D01*
X486994Y39064D01*
X487064Y38947D01*
X487146Y38856D01*
X487241Y38791D01*
X487349Y38752D01*
X487470Y38739D01*
X484930D01*
X485051Y38752D01*
X485159Y38791D01*
X485254Y38856D01*
X485336Y38947D01*
X485406Y39064D01*
X485463Y39207D01*
X485508Y39376D01*
X485540Y39571D01*
X485559Y39792D01*
X485565Y40040D01*
X486835D01*
X486841Y39792D01*
D02*
G37*
G36*
X303603Y43098D02*
X303442Y42911D01*
X303300Y42722D01*
X303176Y42532D01*
X303072Y42342D01*
X302987Y42150D01*
X302920Y41957D01*
X302873Y41763D01*
X302845Y41568D01*
X302835Y41372D01*
X301565D01*
X301556Y41568D01*
X301527Y41763D01*
X301480Y41957D01*
X301413Y42150D01*
X301328Y42342D01*
X301224Y42532D01*
X301100Y42722D01*
X300958Y42911D01*
X300797Y43098D01*
X300617Y43285D01*
X303783D01*
X303603Y43098D01*
D02*
G37*
G36*
X279603D02*
X279442Y42911D01*
X279300Y42722D01*
X279176Y42532D01*
X279072Y42342D01*
X278987Y42150D01*
X278920Y41957D01*
X278873Y41763D01*
X278845Y41568D01*
X278835Y41372D01*
X277565D01*
X277556Y41568D01*
X277527Y41763D01*
X277480Y41957D01*
X277413Y42150D01*
X277328Y42342D01*
X277224Y42532D01*
X277100Y42722D01*
X276958Y42911D01*
X276797Y43098D01*
X276617Y43285D01*
X279783D01*
X279603Y43098D01*
D02*
G37*
G36*
X255603D02*
X255442Y42911D01*
X255300Y42722D01*
X255176Y42532D01*
X255072Y42342D01*
X254987Y42150D01*
X254920Y41957D01*
X254873Y41763D01*
X254844Y41568D01*
X254835Y41372D01*
X253565D01*
X253556Y41568D01*
X253527Y41763D01*
X253480Y41957D01*
X253413Y42150D01*
X253328Y42342D01*
X253224Y42532D01*
X253100Y42722D01*
X252958Y42911D01*
X252797Y43098D01*
X252617Y43285D01*
X255783D01*
X255603Y43098D01*
D02*
G37*
G36*
X231603D02*
X231442Y42911D01*
X231300Y42722D01*
X231176Y42532D01*
X231072Y42342D01*
X230987Y42150D01*
X230920Y41957D01*
X230873Y41763D01*
X230844Y41568D01*
X230835Y41372D01*
X229565D01*
X229555Y41568D01*
X229527Y41763D01*
X229480Y41957D01*
X229413Y42150D01*
X229328Y42342D01*
X229224Y42532D01*
X229100Y42722D01*
X228958Y42911D01*
X228797Y43098D01*
X228617Y43285D01*
X231783D01*
X231603Y43098D01*
D02*
G37*
G36*
X207603D02*
X207442Y42911D01*
X207300Y42722D01*
X207176Y42532D01*
X207072Y42342D01*
X206987Y42150D01*
X206920Y41957D01*
X206873Y41763D01*
X206845Y41568D01*
X206835Y41372D01*
X205565D01*
X205555Y41568D01*
X205527Y41763D01*
X205480Y41957D01*
X205413Y42150D01*
X205328Y42342D01*
X205224Y42532D01*
X205100Y42722D01*
X204958Y42911D01*
X204797Y43098D01*
X204617Y43285D01*
X207783D01*
X207603Y43098D01*
D02*
G37*
G36*
X175603D02*
X175442Y42911D01*
X175300Y42722D01*
X175176Y42532D01*
X175072Y42342D01*
X174987Y42150D01*
X174920Y41957D01*
X174873Y41763D01*
X174844Y41568D01*
X174835Y41372D01*
X173565D01*
X173556Y41568D01*
X173527Y41763D01*
X173480Y41957D01*
X173413Y42150D01*
X173328Y42342D01*
X173224Y42532D01*
X173100Y42722D01*
X172958Y42911D01*
X172797Y43098D01*
X172617Y43285D01*
X175783D01*
X175603Y43098D01*
D02*
G37*
G36*
X254841Y39792D02*
X254860Y39571D01*
X254892Y39376D01*
X254937Y39207D01*
X254994Y39064D01*
X255064Y38947D01*
X255146Y38856D01*
X255241Y38791D01*
X255349Y38752D01*
X255470Y38739D01*
X252930D01*
X253051Y38752D01*
X253159Y38791D01*
X253254Y38856D01*
X253336Y38947D01*
X253406Y39064D01*
X253463Y39207D01*
X253508Y39376D01*
X253540Y39571D01*
X253559Y39792D01*
X253565Y40040D01*
X254835D01*
X254841Y39792D01*
D02*
G37*
G36*
X206841D02*
X206860Y39571D01*
X206892Y39376D01*
X206937Y39207D01*
X206994Y39064D01*
X207064Y38947D01*
X207146Y38856D01*
X207241Y38791D01*
X207349Y38752D01*
X207470Y38739D01*
X204930D01*
X205051Y38752D01*
X205159Y38791D01*
X205254Y38856D01*
X205336Y38947D01*
X205406Y39064D01*
X205463Y39207D01*
X205508Y39376D01*
X205540Y39571D01*
X205559Y39792D01*
X205565Y40040D01*
X206835D01*
X206841Y39792D01*
D02*
G37*
G36*
X302841Y39792D02*
X302860Y39571D01*
X302892Y39376D01*
X302937Y39207D01*
X302994Y39064D01*
X303064Y38947D01*
X303146Y38856D01*
X303241Y38791D01*
X303349Y38752D01*
X303470Y38739D01*
X300930D01*
X301051Y38752D01*
X301159Y38791D01*
X301254Y38856D01*
X301336Y38947D01*
X301406Y39064D01*
X301463Y39207D01*
X301508Y39376D01*
X301540Y39571D01*
X301559Y39792D01*
X301565Y40040D01*
X302835D01*
X302841Y39792D01*
D02*
G37*
G36*
X278841D02*
X278860Y39571D01*
X278892Y39376D01*
X278937Y39207D01*
X278994Y39064D01*
X279064Y38947D01*
X279146Y38856D01*
X279241Y38791D01*
X279349Y38752D01*
X279470Y38739D01*
X276930D01*
X277051Y38752D01*
X277159Y38791D01*
X277254Y38856D01*
X277336Y38947D01*
X277406Y39064D01*
X277463Y39207D01*
X277508Y39376D01*
X277540Y39571D01*
X277559Y39792D01*
X277565Y40040D01*
X278835D01*
X278841Y39792D01*
D02*
G37*
G36*
X230841D02*
X230860Y39571D01*
X230892Y39376D01*
X230937Y39207D01*
X230994Y39064D01*
X231064Y38947D01*
X231146Y38856D01*
X231241Y38791D01*
X231349Y38752D01*
X231470Y38739D01*
X228930D01*
X229051Y38752D01*
X229159Y38791D01*
X229254Y38856D01*
X229336Y38947D01*
X229406Y39064D01*
X229463Y39207D01*
X229508Y39376D01*
X229540Y39571D01*
X229559Y39792D01*
X229565Y40040D01*
X230835D01*
X230841Y39792D01*
D02*
G37*
G36*
X174841D02*
X174860Y39571D01*
X174892Y39376D01*
X174937Y39207D01*
X174994Y39064D01*
X175064Y38947D01*
X175146Y38856D01*
X175241Y38791D01*
X175349Y38752D01*
X175470Y38739D01*
X172930D01*
X173051Y38752D01*
X173159Y38791D01*
X173254Y38856D01*
X173336Y38947D01*
X173406Y39064D01*
X173463Y39207D01*
X173508Y39376D01*
X173540Y39571D01*
X173559Y39792D01*
X173565Y40040D01*
X174835D01*
X174841Y39792D01*
D02*
G37*
G36*
X199349Y18818D02*
X199241Y18780D01*
X199146Y18716D01*
X199064Y18627D01*
X198994Y18513D01*
X198937Y18373D01*
X198892Y18208D01*
X198860Y18018D01*
X198841Y17802D01*
X198835Y17560D01*
X197565D01*
X197559Y17802D01*
X197540Y18018D01*
X197508Y18208D01*
X197463Y18373D01*
X197406Y18513D01*
X197336Y18627D01*
X197254Y18716D01*
X197159Y18780D01*
X197051Y18818D01*
X196930Y18830D01*
X199470D01*
X199349Y18818D01*
D02*
G37*
G36*
X191349D02*
X191241Y18780D01*
X191146Y18716D01*
X191064Y18627D01*
X190994Y18513D01*
X190937Y18373D01*
X190892Y18208D01*
X190860Y18018D01*
X190841Y17802D01*
X190835Y17560D01*
X189565D01*
X189559Y17802D01*
X189540Y18018D01*
X189508Y18208D01*
X189463Y18373D01*
X189406Y18513D01*
X189336Y18627D01*
X189254Y18716D01*
X189159Y18780D01*
X189051Y18818D01*
X188930Y18830D01*
X191470D01*
X191349Y18818D01*
D02*
G37*
G36*
X183349D02*
X183241Y18780D01*
X183146Y18716D01*
X183064Y18627D01*
X182994Y18513D01*
X182937Y18373D01*
X182892Y18208D01*
X182860Y18018D01*
X182841Y17802D01*
X182835Y17560D01*
X181565D01*
X181559Y17802D01*
X181540Y18018D01*
X181508Y18208D01*
X181463Y18373D01*
X181406Y18513D01*
X181336Y18627D01*
X181254Y18716D01*
X181159Y18780D01*
X181051Y18818D01*
X180930Y18830D01*
X183470D01*
X183349Y18818D01*
D02*
G37*
G36*
X198845Y16032D02*
X198873Y15837D01*
X198920Y15643D01*
X198987Y15450D01*
X199072Y15258D01*
X199176Y15068D01*
X199300Y14878D01*
X199442Y14689D01*
X199603Y14502D01*
X199783Y14315D01*
X196617D01*
X196797Y14502D01*
X196958Y14689D01*
X197100Y14878D01*
X197224Y15068D01*
X197328Y15258D01*
X197413Y15450D01*
X197480Y15643D01*
X197527Y15837D01*
X197556Y16032D01*
X197565Y16228D01*
X198835D01*
X198845Y16032D01*
D02*
G37*
G36*
X190844D02*
X190873Y15837D01*
X190920Y15643D01*
X190987Y15450D01*
X191072Y15258D01*
X191176Y15068D01*
X191300Y14878D01*
X191442Y14689D01*
X191603Y14502D01*
X191783Y14315D01*
X188617D01*
X188797Y14502D01*
X188958Y14689D01*
X189100Y14878D01*
X189224Y15068D01*
X189328Y15258D01*
X189413Y15450D01*
X189480Y15643D01*
X189527Y15837D01*
X189555Y16032D01*
X189565Y16228D01*
X190835D01*
X190844Y16032D01*
D02*
G37*
G36*
X182845D02*
X182873Y15837D01*
X182920Y15643D01*
X182987Y15450D01*
X183072Y15258D01*
X183176Y15068D01*
X183300Y14878D01*
X183442Y14689D01*
X183603Y14502D01*
X183783Y14315D01*
X180617D01*
X180797Y14502D01*
X180958Y14689D01*
X181100Y14878D01*
X181224Y15068D01*
X181328Y15258D01*
X181413Y15450D01*
X181480Y15643D01*
X181527Y15837D01*
X181556Y16032D01*
X181565Y16228D01*
X182835D01*
X182845Y16032D01*
D02*
G37*
G36*
X340892Y208413D02*
X341079Y208252D01*
X341268Y208110D01*
X341458Y207986D01*
X341648Y207882D01*
X341840Y207797D01*
X342033Y207730D01*
X342227Y207683D01*
X342422Y207654D01*
X342618Y207645D01*
Y206375D01*
X342422Y206366D01*
X342227Y206337D01*
X342033Y206290D01*
X341840Y206223D01*
X341648Y206138D01*
X341458Y206034D01*
X341268Y205910D01*
X341079Y205768D01*
X340892Y205607D01*
X340705Y205427D01*
Y208593D01*
X340892Y208413D01*
D02*
G37*
G36*
X386720Y204742D02*
X386878Y204624D01*
X387048Y204520D01*
X387232Y204431D01*
X387428Y204356D01*
X387636Y204295D01*
X387858Y204248D01*
X388092Y204215D01*
X388338Y204196D01*
X388597Y204192D01*
X386358Y201953D01*
X386354Y202212D01*
X386335Y202458D01*
X386302Y202693D01*
X386255Y202914D01*
X386194Y203122D01*
X386119Y203318D01*
X386030Y203502D01*
X385926Y203672D01*
X385808Y203831D01*
X385676Y203976D01*
X386574Y204874D01*
X386720Y204742D01*
D02*
G37*
G36*
X113007Y34568D02*
X112748Y34564D01*
X112501Y34545D01*
X112268Y34512D01*
X112046Y34465D01*
X111838Y34404D01*
X111642Y34329D01*
X111458Y34239D01*
X111288Y34136D01*
X111130Y34018D01*
X110984Y33886D01*
X110086Y34784D01*
X110218Y34929D01*
X110336Y35088D01*
X110440Y35258D01*
X110529Y35442D01*
X110604Y35638D01*
X110665Y35846D01*
X110712Y36068D01*
X110745Y36302D01*
X110764Y36548D01*
X110768Y36807D01*
X113007Y34568D01*
D02*
G37*
G36*
X120627Y32028D02*
X120368Y32024D01*
X120121Y32005D01*
X119888Y31972D01*
X119666Y31925D01*
X119458Y31864D01*
X119262Y31789D01*
X119078Y31700D01*
X118908Y31596D01*
X118750Y31478D01*
X118604Y31346D01*
X117706Y32244D01*
X117838Y32390D01*
X117956Y32548D01*
X118060Y32718D01*
X118149Y32902D01*
X118224Y33098D01*
X118285Y33306D01*
X118332Y33528D01*
X118365Y33761D01*
X118384Y34008D01*
X118388Y34267D01*
X120627Y32028D01*
D02*
G37*
G36*
X128247Y29488D02*
X127988Y29484D01*
X127741Y29465D01*
X127507Y29432D01*
X127286Y29385D01*
X127078Y29324D01*
X126882Y29249D01*
X126698Y29160D01*
X126528Y29056D01*
X126369Y28938D01*
X126224Y28806D01*
X125326Y29704D01*
X125458Y29850D01*
X125576Y30008D01*
X125680Y30178D01*
X125769Y30362D01*
X125844Y30558D01*
X125905Y30766D01*
X125952Y30988D01*
X125985Y31221D01*
X126004Y31468D01*
X126008Y31727D01*
X128247Y29488D01*
D02*
G37*
G36*
X114944Y7592D02*
X114973Y7397D01*
X115020Y7203D01*
X115087Y7010D01*
X115172Y6818D01*
X115276Y6628D01*
X115400Y6438D01*
X115542Y6249D01*
X115703Y6062D01*
X115883Y5875D01*
X112717D01*
X112897Y6062D01*
X113058Y6249D01*
X113200Y6438D01*
X113324Y6628D01*
X113428Y6818D01*
X113513Y7010D01*
X113580Y7203D01*
X113627Y7397D01*
X113656Y7592D01*
X113665Y7788D01*
X114935D01*
X114944Y7592D01*
D02*
G37*
G36*
X65762Y5663D02*
X65949Y5502D01*
X66138Y5360D01*
X66328Y5236D01*
X66518Y5132D01*
X66710Y5047D01*
X66903Y4980D01*
X67097Y4933D01*
X67292Y4904D01*
X67488Y4895D01*
Y3625D01*
X67292Y3616D01*
X67097Y3587D01*
X66903Y3540D01*
X66710Y3473D01*
X66518Y3388D01*
X66328Y3284D01*
X66138Y3160D01*
X65949Y3018D01*
X65762Y2857D01*
X65575Y2677D01*
Y5843D01*
X65762Y5663D01*
D02*
G37*
G36*
X78115Y-22068D02*
X78143Y-22263D01*
X78190Y-22457D01*
X78257Y-22650D01*
X78342Y-22842D01*
X78446Y-23032D01*
X78570Y-23222D01*
X78712Y-23411D01*
X78873Y-23598D01*
X79053Y-23785D01*
X75887D01*
X76067Y-23598D01*
X76228Y-23411D01*
X76370Y-23222D01*
X76494Y-23032D01*
X76598Y-22842D01*
X76683Y-22650D01*
X76750Y-22457D01*
X76797Y-22263D01*
X76825Y-22068D01*
X76835Y-21872D01*
X78105D01*
X78115Y-22068D01*
D02*
G37*
D12*
X609600Y325120D02*
X638810D01*
D13*
X557820Y403860D02*
X609980Y351700D01*
X12700Y179070D02*
X63940D01*
X288730Y403860D01*
X557820D01*
X601980Y311700D02*
Y343700D01*
X609980Y351700D01*
X601980Y311700D02*
X609980Y303700D01*
D14*
X310200Y12700D02*
Y28800D01*
X318200Y12700D02*
Y28800D01*
X63960Y4260D02*
X80460D01*
X113030Y36830D01*
X90170Y458470D02*
X139700Y508000D01*
X90170Y379730D02*
Y458470D01*
X139700Y508000D02*
X142373Y510673D01*
X467418Y378518D02*
X472498D01*
X487680Y393700D01*
X448754Y359854D02*
X467418Y378518D01*
X422200Y28800D02*
Y44900D01*
X438200Y28800D02*
Y44900D01*
X454200Y28800D02*
Y44900D01*
X486200Y28800D02*
Y44900D01*
X254200Y28800D02*
Y44900D01*
X230200Y28800D02*
Y44900D01*
X206200Y28800D02*
Y44900D01*
X174200Y28800D02*
Y44900D01*
X278200Y28800D02*
Y44900D01*
X302200Y28800D02*
Y44900D01*
X326200Y28800D02*
Y44900D01*
X350200Y28800D02*
Y44900D01*
X374200Y28800D02*
Y44900D01*
X398200Y28800D02*
Y44900D01*
X486200Y56700D02*
Y72800D01*
X302200Y56700D02*
Y72800D01*
X278200Y56700D02*
Y72800D01*
X254200Y56700D02*
Y72800D01*
X230200Y56700D02*
Y72800D01*
X206200Y56700D02*
Y72800D01*
X174200Y56700D02*
Y72800D01*
X350200Y56700D02*
Y72800D01*
X326200Y56700D02*
Y72800D01*
X374200Y56700D02*
Y72800D01*
X454200Y56700D02*
Y72800D01*
X438200Y56700D02*
Y72800D01*
X422200Y56700D02*
Y72800D01*
X398200Y56700D02*
Y72800D01*
X182200Y12700D02*
Y28800D01*
X190200Y12700D02*
Y28800D01*
X198200Y12700D02*
Y28800D01*
X462200Y72800D02*
Y88900D01*
X470200Y72800D02*
Y88900D01*
X478200Y72800D02*
Y88900D01*
X310200Y72800D02*
Y88900D01*
X318200Y72800D02*
Y88900D01*
X198200Y72800D02*
Y88900D01*
X190200Y72800D02*
Y88900D01*
X182200Y72800D02*
Y88900D01*
X462200Y12700D02*
Y28800D01*
X470200Y12700D02*
Y28800D01*
X478200Y12700D02*
Y28800D01*
X408771Y235775D02*
X417005D01*
X406400Y233680D02*
X406676D01*
X408771Y235775D01*
X417005D02*
X421640Y231140D01*
X441844D01*
X443876Y233172D02*
X581014D01*
X441844Y231140D02*
X443876Y233172D01*
X581014D02*
X606552Y207634D01*
X442728Y228791D02*
X444823Y230886D01*
X414020Y231140D02*
X414042D01*
X416391Y228791D02*
X442728D01*
X444823Y230886D02*
X580067D01*
X604266Y206687D01*
X414042Y231140D02*
X416391Y228791D01*
X399403Y234123D02*
X407020Y226505D01*
X399403Y234123D02*
Y235597D01*
X398780Y236220D02*
X399403Y235597D01*
X443675Y226505D02*
X445770Y228600D01*
X407020Y226505D02*
X443675D01*
X419100Y243840D02*
X427228Y235712D01*
X388620Y243840D02*
X419100D01*
X427228Y235712D02*
X581707D01*
X383540Y238760D02*
X388620Y243840D01*
X383540Y218440D02*
Y238760D01*
X446468Y312299D02*
Y361378D01*
X478790Y393700D01*
X446468Y312299D02*
X469844Y288923D01*
Y284536D02*
Y288923D01*
Y284536D02*
X469900Y284480D01*
X448754Y313246D02*
Y359854D01*
X487680Y269240D02*
Y274320D01*
X448754Y313246D02*
X487680Y274320D01*
X391605Y274940D02*
X427785Y238760D01*
X391605Y274940D02*
Y276415D01*
X388620Y279400D02*
X391605Y276415D01*
X399225Y272400D02*
X430325Y241300D01*
X399225Y272400D02*
Y273875D01*
X396240Y276860D02*
X399225Y273875D01*
X436372Y385572D02*
X443230Y392430D01*
X436372Y331680D02*
Y385572D01*
X419100Y269240D02*
Y274320D01*
X414020Y309328D02*
X436372Y331680D01*
X414020Y279400D02*
X419100Y274320D01*
X414020Y279400D02*
Y309328D01*
X434086Y392176D02*
X434340Y392430D01*
X434086Y332627D02*
Y392176D01*
X411480Y271780D02*
Y310021D01*
X434086Y332627D01*
X425450Y392430D02*
X431800Y386080D01*
Y333574D02*
Y386080D01*
X408940Y310714D02*
X431800Y333574D01*
X403860Y274320D02*
X408940Y279400D01*
Y310714D01*
X491947Y238760D02*
X494487Y241300D01*
X495300D01*
X427785Y238760D02*
X491947D01*
X430325Y241300D02*
X482600D01*
X487680Y246380D01*
X229484Y132964D02*
X266700Y170180D01*
X186833Y132964D02*
X229484D01*
X146939Y93070D02*
X186833Y132964D01*
X228600Y327660D02*
X274320Y281940D01*
X365760D01*
X127000Y342900D02*
X213360D01*
X90170Y379730D02*
X127000Y342900D01*
X25400Y124460D02*
X180340Y279400D01*
X363220D02*
X365760Y281940D01*
X180340Y279400D02*
X363220D01*
X164407Y-19050D02*
X358299D01*
X308828Y224790D02*
X348165D01*
X149225Y92123D02*
X187780Y130678D01*
X230431D01*
X268986Y169233D01*
X581707Y235712D02*
X608838Y208581D01*
Y207662D02*
Y208581D01*
Y207662D02*
X627820Y188680D01*
X606552Y202948D02*
Y207634D01*
Y202948D02*
X631820Y177680D01*
X348165Y224790D02*
X356870Y233495D01*
Y238760D01*
X146939Y-1582D02*
Y93070D01*
Y-1582D02*
X164407Y-19050D01*
X268986Y169233D02*
Y208026D01*
X293370Y232410D01*
X149225Y-635D02*
Y92123D01*
X608000Y133680D02*
X631820D01*
X601980Y139700D02*
Y205740D01*
Y139700D02*
X608000Y133680D01*
X610130Y155680D02*
X631820D01*
X604266Y161544D02*
X610130Y155680D01*
X604266Y161544D02*
Y206687D01*
X445770Y228600D02*
X579120D01*
X601980Y205740D01*
X74105Y58865D02*
X260350Y245110D01*
X40195Y58865D02*
X74105D01*
X25400Y73660D02*
X40195Y58865D01*
X48260Y63500D02*
X75507D01*
X259657Y247650D01*
X351282Y231140D02*
Y235458D01*
X347980Y238760D02*
X351282Y235458D01*
X347472Y227330D02*
X351282Y231140D01*
X259657Y247650D02*
X289560D01*
X309880Y227330D01*
X347472D01*
X260350Y245110D02*
X288508D01*
X308828Y224790D01*
X266700Y219710D02*
X285750Y238760D01*
X266700Y170180D02*
Y219710D01*
X114300Y17780D02*
X128270Y31750D01*
X114300Y4260D02*
Y17780D01*
X77470Y-8890D02*
X120650Y34290D01*
X77470Y-25400D02*
Y-8890D01*
X339090Y207010D02*
X383540D01*
X388620Y201930D01*
X366200Y12700D02*
Y28800D01*
X363597Y10097D02*
X366200Y12700D01*
X363597Y-13752D02*
Y10097D01*
X358299Y-19050D02*
X363597Y-13752D01*
X358200Y12700D02*
Y28800D01*
X361057Y-12323D02*
Y9843D01*
X358200Y12700D02*
X361057Y9843D01*
X356870Y-16510D02*
X361057Y-12323D01*
X358200Y12700D02*
X358200Y12700D01*
X165100Y-16510D02*
X356870D01*
X149225Y-635D02*
X165100Y-16510D01*
D42*
X174200Y72800D02*
D03*
Y28800D02*
D03*
X182200Y72800D02*
D03*
Y28800D02*
D03*
X190200Y72800D02*
D03*
Y28800D02*
D03*
X198200Y72800D02*
D03*
Y28800D02*
D03*
X206200Y72800D02*
D03*
Y28800D02*
D03*
X214200Y72800D02*
D03*
Y28800D02*
D03*
X222200Y72800D02*
D03*
Y28800D02*
D03*
X230200Y72800D02*
D03*
Y28800D02*
D03*
X238200Y72800D02*
D03*
Y28800D02*
D03*
X246200Y72800D02*
D03*
Y28800D02*
D03*
X254200Y72800D02*
D03*
Y28800D02*
D03*
X262200Y72800D02*
D03*
Y28800D02*
D03*
X270200Y72800D02*
D03*
Y28800D02*
D03*
X278200Y72800D02*
D03*
Y28800D02*
D03*
X286200Y72800D02*
D03*
Y28800D02*
D03*
X294200Y72800D02*
D03*
Y28800D02*
D03*
X302200Y72800D02*
D03*
Y28800D02*
D03*
X310200Y72800D02*
D03*
Y28800D02*
D03*
X318200Y72800D02*
D03*
Y28800D02*
D03*
X326200Y72800D02*
D03*
Y28800D02*
D03*
X334200Y72800D02*
D03*
Y28800D02*
D03*
X342200Y72800D02*
D03*
Y28800D02*
D03*
X350200Y72800D02*
D03*
Y28800D02*
D03*
X358200Y72800D02*
D03*
Y28800D02*
D03*
X366200Y72800D02*
D03*
Y28800D02*
D03*
X374200Y72800D02*
D03*
Y28800D02*
D03*
X382200Y72800D02*
D03*
Y28800D02*
D03*
X390200Y72800D02*
D03*
Y28800D02*
D03*
X398200Y72800D02*
D03*
Y28800D02*
D03*
X406200Y72800D02*
D03*
Y28800D02*
D03*
X414200Y72800D02*
D03*
Y28800D02*
D03*
X422200Y72800D02*
D03*
Y28800D02*
D03*
X430200Y72800D02*
D03*
Y28800D02*
D03*
X438200Y72800D02*
D03*
Y28800D02*
D03*
X446200Y72800D02*
D03*
Y28800D02*
D03*
X454200Y72800D02*
D03*
Y28800D02*
D03*
X462200Y72800D02*
D03*
Y28800D02*
D03*
X470200Y72800D02*
D03*
Y28800D02*
D03*
X478200Y72800D02*
D03*
Y28800D02*
D03*
X486200Y72800D02*
D03*
Y28800D02*
D03*
D85*
X241300Y711200D02*
D03*
X266700D02*
D03*
X292100D02*
D03*
X317500D02*
D03*
X342900D02*
D03*
X368300D02*
D03*
X393700D02*
D03*
X419100D02*
D03*
X444500D02*
D03*
X469900D02*
D03*
X495300D02*
D03*
X520700D02*
D03*
Y508000D02*
D03*
X495300D02*
D03*
X469900D02*
D03*
X444500D02*
D03*
X419100D02*
D03*
X393700D02*
D03*
X368300D02*
D03*
X342900D02*
D03*
X317500D02*
D03*
X292100D02*
D03*
X266700D02*
D03*
X241300D02*
D03*
X215900D02*
D03*
X190500D02*
D03*
X165100D02*
D03*
X139700D02*
D03*
D87*
X336930Y15430D02*
Y18713D01*
X334200Y12700D02*
X336930Y15430D01*
X336335Y19308D02*
X336930Y18713D01*
X334200Y21300D02*
X336192Y19308D01*
X339470Y18713D02*
X340065Y19308D01*
X342200Y21300D02*
Y28800D01*
X339470Y15430D02*
Y18713D01*
X340065Y19308D02*
X340208D01*
X339470Y15430D02*
X342200Y12700D01*
X334200Y21300D02*
Y28800D01*
X336192Y19308D02*
X336335D01*
X340208D02*
X342200Y21300D01*
D88*
X672390Y284500D02*
D03*
Y370900D02*
D03*
D89*
X630590Y284500D02*
D03*
Y370900D02*
D03*
D90*
X635590Y356600D02*
D03*
Y298800D02*
D03*
D91*
X50800Y322900D02*
D03*
Y342900D02*
D03*
Y551180D02*
D03*
Y571180D02*
D03*
Y531180D02*
D03*
D92*
Y362900D02*
D03*
Y591180D02*
D03*
D93*
X528320Y349250D02*
D03*
Y341250D02*
D03*
X279400Y297180D02*
D03*
X310200Y12700D02*
D03*
X318200D02*
D03*
X63960Y4260D02*
D03*
X63713Y-5080D02*
D03*
X93980Y505640D02*
D03*
X182200Y12700D02*
D03*
X190200D02*
D03*
X198200D02*
D03*
X462200Y88900D02*
D03*
X470200D02*
D03*
X478200D02*
D03*
X310200D02*
D03*
X318200D02*
D03*
X182200D02*
D03*
X190200D02*
D03*
X198200D02*
D03*
X462200Y12700D02*
D03*
X470200D02*
D03*
X478200D02*
D03*
X374200Y44900D02*
D03*
X350200D02*
D03*
X486200D02*
D03*
Y56700D02*
D03*
X374200D02*
D03*
X350200D02*
D03*
X326200D02*
D03*
Y44900D02*
D03*
X302200D02*
D03*
Y56700D02*
D03*
X278200D02*
D03*
Y44900D02*
D03*
X254200D02*
D03*
Y56700D02*
D03*
X230200D02*
D03*
Y44900D02*
D03*
X206200D02*
D03*
Y56700D02*
D03*
X174200D02*
D03*
Y44900D02*
D03*
X454200Y56700D02*
D03*
X438200D02*
D03*
X422200D02*
D03*
X398200D02*
D03*
X422200Y44900D02*
D03*
X438200D02*
D03*
X454200D02*
D03*
X398200D02*
D03*
X383540Y218440D02*
D03*
X487680Y259080D02*
D03*
X474980Y276860D02*
D03*
X469900Y284480D02*
D03*
X478790Y393700D02*
D03*
X487680Y269240D02*
D03*
Y393700D02*
D03*
X452120Y392430D02*
D03*
X416560D02*
D03*
X496570Y393700D02*
D03*
X469900D02*
D03*
X443230Y392430D02*
D03*
X419100Y269240D02*
D03*
X434340Y392430D02*
D03*
X411480Y271780D02*
D03*
X425450Y392430D02*
D03*
X403860Y274320D02*
D03*
X495300Y241300D02*
D03*
X487680Y246380D02*
D03*
X228600Y327660D02*
D03*
X213360Y342900D02*
D03*
X220980Y350520D02*
D03*
X627820Y188680D02*
D03*
X631820Y177680D02*
D03*
Y133680D02*
D03*
Y155680D02*
D03*
X620776Y66532D02*
D03*
X687720Y93980D02*
D03*
X90170Y379730D02*
D03*
X99060D02*
D03*
X48260Y63500D02*
D03*
X53340Y71120D02*
D03*
X347980Y238760D02*
D03*
X356870D02*
D03*
X293370Y232410D02*
D03*
X285750Y238760D02*
D03*
X-22040Y505640D02*
D03*
X52480Y505640D02*
D03*
X19460Y505640D02*
D03*
X114300Y4260D02*
D03*
X77470Y-25400D02*
D03*
X128270Y31750D02*
D03*
X120650Y34290D02*
D03*
X113030Y36830D02*
D03*
X365760Y281940D02*
D03*
X482675Y334785D02*
D03*
X508000Y338900D02*
D03*
X574115Y334785D02*
D03*
X587455Y351675D02*
D03*
X609980Y303700D02*
D03*
X609980Y351700D02*
D03*
X609980Y359700D02*
D03*
X609980Y295700D02*
D03*
X469185Y351825D02*
D03*
X388620Y201930D02*
D03*
X406400Y233680D02*
D03*
X398780Y236220D02*
D03*
X414020Y231140D02*
D03*
X631820Y166680D02*
D03*
Y144680D02*
D03*
X330200Y215900D02*
D03*
X388620Y279400D02*
D03*
X396240Y276860D02*
D03*
X473450Y249060D02*
D03*
X366200Y12700D02*
D03*
X358200D02*
D03*
X342200D02*
D03*
X334200D02*
D03*
X375920Y5080D02*
D03*
X350520D02*
D03*
X325120D02*
D03*
X265190Y400050D02*
D03*
X126890Y361950D02*
D03*
X123278Y291740D02*
D03*
X121778Y312420D02*
D03*
X88830Y90110D02*
D03*
X151780Y-15240D02*
D03*
X37720Y-29480D02*
D03*
X158750Y133350D02*
D03*
X456750Y184840D02*
D03*
X435930Y195660D02*
D03*
X477570Y210660D02*
D03*
Y200660D02*
D03*
X665820Y144680D02*
D03*
X354330Y164450D02*
D03*
X339090D02*
D03*
X277480Y175260D02*
D03*
X415940D02*
D03*
X398780Y215900D02*
D03*
X555220Y187780D02*
D03*
Y130280D02*
D03*
X686720Y114880D02*
D03*
X664210Y246380D02*
D03*
X688340Y279400D02*
D03*
X687070Y401320D02*
D03*
X609600Y316230D02*
D03*
X648970Y325120D02*
D03*
X638810D02*
D03*
X609600D02*
D03*
Y335280D02*
D03*
X339090Y207010D02*
D03*
X47975Y222785D02*
D03*
X47975Y268505D02*
D03*
X439420Y250350D02*
D03*
X439420Y286350D02*
D03*
X367030Y359410D02*
D03*
X382270D02*
D03*
X397510D02*
D03*
X246380Y250350D02*
D03*
Y286350D02*
D03*
X321310Y369570D02*
D03*
X306070D02*
D03*
X342900Y271780D02*
D03*
X332740Y260350D02*
D03*
Y248920D02*
D03*
X336550Y369570D02*
D03*
X342900Y248920D02*
D03*
X353060D02*
D03*
X332740Y271780D02*
D03*
X353060D02*
D03*
Y260350D02*
D03*
X342900D02*
D03*
D94*
X25400Y73660D02*
D03*
Y86360D02*
D03*
Y99060D02*
D03*
Y111760D02*
D03*
Y124460D02*
D03*
X38100Y73660D02*
D03*
Y86360D02*
D03*
Y99060D02*
D03*
Y111760D02*
D03*
Y124460D02*
D03*
D95*
X660400Y647700D02*
D03*
X0D02*
D03*
Y431800D02*
D03*
Y0D02*
D03*
X660400D02*
D03*
Y431800D02*
D03*
D96*
X685800Y671830D02*
D03*
X641350Y582930D02*
D03*
X685800Y494030D02*
D03*
X641350Y405130D02*
D03*
Y227330D02*
D03*
Y49530D02*
D03*
X596900Y671830D02*
D03*
X552450Y582930D02*
D03*
X596900Y494030D02*
D03*
X463550Y582930D02*
D03*
X508000Y494030D02*
D03*
Y316230D02*
D03*
Y138430D02*
D03*
X419100Y671830D02*
D03*
X374650Y582930D02*
D03*
X419100Y494030D02*
D03*
X330200Y671830D02*
D03*
X285750Y582930D02*
D03*
X330200Y494030D02*
D03*
X241300Y671830D02*
D03*
X196850Y582930D02*
D03*
X241300Y494030D02*
D03*
X196850Y227330D02*
D03*
X152400Y671830D02*
D03*
X107950Y582930D02*
D03*
X152400Y494030D02*
D03*
X107950Y49530D02*
D03*
X63500Y671830D02*
D03*
X19050Y582930D02*
D03*
Y405130D02*
D03*
X63500Y138430D02*
D03*
X19050Y49530D02*
D03*
X552450Y671830D02*
D03*
X603250Y570230D02*
D03*
X552450Y468630D02*
D03*
Y265430D02*
D03*
X501650Y570230D02*
D03*
X450850Y468630D02*
D03*
X501650Y367030D02*
D03*
Y163830D02*
D03*
X349250Y671830D02*
D03*
X400050Y570230D02*
D03*
X349250Y468630D02*
D03*
X400050Y367030D02*
D03*
Y163830D02*
D03*
X247650Y671830D02*
D03*
X298450Y570230D02*
D03*
X247650Y468630D02*
D03*
X298450Y367030D02*
D03*
Y163830D02*
D03*
X146050Y671830D02*
D03*
X196850Y570230D02*
D03*
X146050Y468630D02*
D03*
X196850Y367030D02*
D03*
X44450Y671830D02*
D03*
X95250Y570230D02*
D03*
Y367030D02*
D03*
Y163830D02*
D03*
D97*
X12700Y179070D02*
D03*
M02*
