M48
;Layer_Color=9474304
;FILE_FORMAT=4:4
METRIC,LZ
;TYPE=PLATED
T01F00S00C1.0160
T02F00S00C3.4000
%
T01
X012065Y006604
X012319
Y006858
X012065
X01207136Y00710711
X01232536
X012319Y007366
Y00762
Y007874
X012065
Y00762
Y007366
X012827Y007112
X013081
X013335
Y006858
X013081
X012827
Y006604
X013081
X013335
X011811
X011557
X011303
Y006858
X011557
X011811
X01181736Y00710711
X01156336
X01130936
X011303Y007366
Y00762
Y007874
X011557
X011811
Y00762
X011557
Y007366
X011811
X010541
Y00762
Y007874
X010287
X010033
X009779
X009525
Y00762
X009779
X010033
X010287
Y007366
X010033
X009779
X009525
X00953136Y00710711
X00978536
X01003936
X01029336
X01054736
X010541Y006858
Y006604
X010287
X010033
X009779
X009525
Y006858
X009779
X010033
X010287
X008763
Y006604
X008509
X008255
X008001
Y006858
X008255
X008509
X00851536Y00710711
X00826136
X00800736
X008001Y007366
Y00762
Y007874
X008255
X008509
X008763
Y00762
X008509
X008255
Y007366
X008509
X008763
X00876936Y00710711
X00775336
X007747Y006858
Y006604
X007239
Y006858
Y007112
X006985
Y006858
X006731
Y007112
Y006604
X006985
X007747Y007366
Y00762
Y007874
Y008128
Y008382
Y008636
Y00889
Y009144
Y009398
Y009652
Y009906
Y01016
Y010414
Y010668
Y010922
Y011176
Y01143
Y011684
X007239Y01143
X006985
X006731
Y011176
X006985
X007239
Y010922
X006985
X006731
Y010668
Y010414
X006985
X007239
Y010668
X006985
Y009398
X007239
Y009144
X006985
X006731
Y009398
Y00889
X006985
X007239
Y008636
X006985
X006731
Y008382
X006985
X007239
X008001
Y008636
Y00889
Y009144
Y009398
Y009652
Y009906
Y01016
Y010414
Y010668
Y010922
Y011176
Y01143
Y011684
X008255
X008509
X008763
Y01143
X008509
X008255
Y011176
X008509
X008763
Y010922
X008509
X008255
Y010668
X008509
X008763
Y010414
X008509
X008255
Y01016
X008509
X008763
Y009906
X008509
X008255
Y009652
X008509
X008763
Y009398
X008509
X008255
Y009144
X008509
X008763
Y00889
X008509
X008255
Y008636
X008509
X008763
Y008382
X008509
X008255
Y008128
X008001
X008509
X008763
X009525
Y008382
Y008636
Y00889
Y009144
Y009398
Y009652
Y009906
Y01016
Y010414
Y010668
Y010922
Y011176
Y01143
Y011684
X009779
X010033
X010287
X010541
Y01143
X010287
X010033
X009779
Y011176
X010033
X010287
X010541
Y010922
X010287
X010033
X009779
Y010668
X010033
X010287
X010541
Y010414
X010287
X010033
X009779
Y01016
X010033
X010287
X010541
Y009906
X010287
X010033
X009779
Y009652
X010033
X010287
X010541
Y009398
X010287
X010033
X009779
Y009144
X010033
X010287
X010541
Y00889
X010287
X010033
X009779
Y008636
X010033
X010287
X010541
Y008382
X010287
X010033
X009779
Y008128
X010033
X010287
X010541
X011303
Y008382
Y008636
Y00889
Y009144
Y009398
Y009652
Y009906
Y01016
Y010414
Y010668
Y010922
Y011176
Y01143
Y011684
X011557
X011811
Y01143
X011557
Y011176
X011811
Y010922
X011557
Y010668
X011811
Y010414
X011557
Y01016
X011811
Y009906
X011557
Y009652
X011811
Y009398
X011557
Y009144
X011811
Y00889
X011557
Y008636
X011811
Y008382
X011557
Y008128
X011811
X012065
Y008382
Y008636
Y00889
Y009144
Y009398
Y009652
Y009906
Y01016
Y010414
Y010668
Y010922
Y011176
Y01143
Y011684
X012319
Y01143
Y011176
Y010922
Y010668
Y010414
Y01016
Y009906
Y009652
Y009398
Y009144
Y00889
Y008636
Y008382
Y008128
X012827Y008382
Y008636
Y00889
Y009144
Y009398
X013081
X013335
Y009144
X013081
Y00889
X013335
Y008636
X013081
Y008382
X013335
Y010414
Y010668
Y010922
Y011176
Y01143
X013081
X012827
Y011176
X013081
Y010922
X012827
Y010668
X013081
Y010414
X012827
X012319Y011938
Y012192
X012065
Y011938
X011811
Y012192
X011557
X011303
Y011938
X011557
X010541
Y012192
X010287
X010033
X009779
X009525
Y011938
X009779
X010033
X010287
X008763
Y012192
X008509
X008255
X008001
Y011938
X008255
X008509
X007747
Y012192
T02
X006731Y003429
X013335
Y005588
Y007747
X006731
Y005588
Y009906
X013335
Y012065
X006731
M30
