M48
;Layer_Color=9474304
;FILE_FORMAT=4:4
METRIC,LZ
;TYPE=PLATED
T01F00S00C0.3000
T02F00S00C0.3048
T04F00S00C0.9400
T05F00S00C1.0160
T06F00S00C1.0900
T07F00S00C1.6200
;TYPE=NON_PLATED
T08F00S00C0.5200
T09F00S00C3.3000
T10F00S00C3.4000
%
T01
X000508Y000508
X0005715Y0005715
X0006985
X00082191Y00057509
X000762Y000508
X000635
X0009652Y0004318
X0010541
X001143
X0012319
X0013208
X0014097
X001397Y0006858
X0014986Y000635
X001822Y0005543
X001902Y0005543
X001982Y0005543
X002062Y0009017
X002302
X001742
Y0001143
X001822Y0
X001902
X001982Y0000019
X002062Y0001143
X002302
X0014732Y-0001397
X0008255Y0014605
X0006985
X0003175Y0014605
X0001905Y0014605
X0000635
X-0000635Y0014605
X-0001905Y0014605
X-0000508Y0027178
X0003429Y002794
X0008382
X0009398
X001016Y0024892
X0011303
X0012954Y0026162
X0013208Y0027432
X0010414Y0032766
X002286Y0023876
X0023114Y0019558
X0022225
X0024003
X0024892
X0025781
X002667
X0027559
X0029337Y002032
X0030226
X0031115
X0032004
X0032893Y0023622
X0033782
X0033274Y0024892
X003429
X0035306
Y0026035
X003429
X0033274
Y0027178
X003429
X0035306
X0036322Y0028067
X003302Y0028448
X0032004
X003048Y0029972
X0029718Y002921
X0028702
X00243866Y00287046
X0025019Y0033401
X0036195Y0035687
X0037719
X0039243
X0042672Y0029972
X00441Y0025
X0042672Y0021844
Y0020574
X0041656Y00200315
X0041402Y0019304
X0041529Y0017399
X0045212Y001651
X004953
X0051562Y0017272
Y0018161
Y001905
Y0019939
X0050546Y002286
X0048006Y0022352
X0047498Y0023364
X004782Y001016
X004702
X004622
X004542Y0009017
X004382
X004222
X003982
X003742
X003502
X003262
X003182Y0009906
X003102
X003022Y0009017
X002782
X002542
Y0001143
X002782
X003022
X003102Y0000019
X003182
X003262Y0001143
X003502
X003742
X003982
X004222
X004382
X004542
X004862
X004782Y0004617
X004702Y0004617
X004622Y0004617
X004462Y0004617
X004222Y0004617
X004862Y0009017
X0052832Y0013716
X0053848
X0036068Y001651
X003429
X0028702Y0017526
X003102Y0005543
X006604Y0053975
X006731Y0055372
X0061468Y0055137
Y0054337
X0059436Y0053975
X0056896
X0055626Y0055372
X0054102Y0058166
X00528Y00629
X00488
X0050292Y006604
X0051308
X00569539Y00651036
X0060198Y0058166
X0047371Y00590078
X0046609Y0058674
X0044704Y0060706
X003683Y0057785
X003556
X003429
X003302
Y0048895
X003683Y0048006
X00381
X0035814Y0043688
Y0042164
X00336958Y00367257
X00321718
X00306478
X00254Y0043942
X0052832Y004572
X0053848
X0014478Y0042164
X001016Y0042164
X0009271Y004826
X0008382
X0013208Y0053975
X0005842Y0037338
T02
X0001905Y0022733
X0010795
X0009906Y0016256
X001524Y0013843
X0020066Y0016256
X0019685Y0022733
X001524Y0031623
X004191
X0055245Y0022733
X0050546Y0016256
X00508Y0013843
X005969
X0060706Y0016256
X0055626Y0006096
X0055245Y0004953
X002413Y0013843
X006858
Y0031623
X0064135Y0040513
X006858Y0049403
X0064135Y0058293
X005969Y0049403
X0055626Y0046736
X0055245Y0040513
X0046355
X0037465
X0040386Y0036576
X004191Y0049403
X0040386Y0056896
X0028575Y0058293
X0025146Y0046736
X0028575Y0040513
X0035306Y0046736
X0060706Y0036576
X0009906
X0001905Y0040513
X0004826Y0046736
X000635Y0049403
X0009906Y0056896
X0010795Y0058293
X0019685
X0020066Y0056896
X0001905Y0058293
T04
X0003429Y0051055
X0005461
X0007493
X0009525
X0010541Y0053595
X0008509
X0006477
X0004445
T05
X006477Y000508
Y000762
Y001016
Y00127
Y001524
Y001778
Y002032
Y002286
Y00254
Y002794
X006731
Y003048
Y003302
Y003556
X006477
Y003302
Y003048
X006731Y00254
Y002286
Y002032
Y001778
Y001524
Y00127
Y001016
Y000762
Y000508
Y00381
X006477
X0022225Y004953
X0019685
Y0052705
X0022225
T06
X0000125Y0055992
X0002415
X0011555
X0013845
T07
X-0001145Y0054405
X0015115
T08
X004705Y0062865
X005455
T09
X0000635Y0050165
X0013335
T10
X0Y0
X006604
Y004318
Y006477
X0
Y004318
M30
