M48
;Layer_Color=9474304
;FILE_FORMAT=4:4
METRIC,LZ
;TYPE=PLATED
T01F00S00C0.3000
T02F00S00C0.3048
T03F00S00C1.0160
T04F00S00C1.6000
T05F00S00C1.8900
;TYPE=NON_PLATED
T06F00S00C1.8600
T07F00S00C3.4000
%
T01
X-0024892Y-0028321
X-00148Y-00276
X-00132
X-00124Y-00314
X-0014
X-00156
X-001
X-00076
X-00052
Y-00232
X-00076
X-001
X-00124
X-00156
X-0026416Y-0006858
Y-0005334
X-00028Y-00232
X-00012
X0002
X00068
X00108
X00132
X00148
X00156Y-0027
X0014
X00124
X00092
Y-00314
X00108
X00124
X00156
X00068
X00044
X0002
X-00004
X-00028
X-0002Y-0027
X-00004
X00044
X0024892Y-0028321
Y-0030099
X0026416Y-0006858
Y-0005334
X0024384Y0000254
X0023114
Y0001778
X0024384
X-0023114Y0001778
X-0024384
Y0000254
X-0023114
T02
X-003048Y-0029845
X-001778
X-0014605Y-0023495
X-0008255
X-000508Y-0017145
X-001143
X-0008255Y-0010795
X-0020955
X-001778Y-0004445
X-003048
X-0001905Y-0010795
X0004445
X000762Y-0017145
X0004445Y-0023495
X0017145
X0023495
X0029845
X002667Y-0017145
X002032
X0023495Y-0010795
X0029845
X002667Y-0004445
Y-0029845
X002032
X0017145Y0001905
X002032Y0008255
X002667
X0029845Y0001905
X001397Y0008255
X000762
X000127
X0004445Y0001905
X-0001905
X-0008255
X-000508Y0008255
X-001143
X-001778
X-002413
X-003048
X-0027305Y0001905
T03
X-0017272Y-002032
X-0014732
X-002667Y-0010795
X-003302Y-0004445
X-000254Y-0018415
X000254
X0013208Y-002032
X0015748
X002667Y-0010795
X003302Y-0004445
Y-0017145
Y-0026035
Y0004445
X0023495Y0010795
X-0023495
X-003302Y0004445
T04
X-000594Y-0013095
Y-0003175
X-000254
X000254Y-0003415
X000594
Y-0013335
X000254
X-000254Y-0013095
T05
X-0017295Y-0010795
X-0013335
X0013185
X0017145
T06
X-0018375Y-0007395
X0012105
T07
X-003302Y-0032385
Y-0010795
X003302
Y-0032385
Y0010795
X-003302
M30
