M48
;Layer_Color=9474304
;FILE_FORMAT=4:4
METRIC,LZ
;TYPE=PLATED
T01F00S00C0.3000
T02F00S00C0.3048
T03F00S00C0.4016
T05F00S00C0.7000
T06F00S00C0.8000
T07F00S00C1.0160
;TYPE=NON_PLATED
T08F00S00C0.6500
T09F00S00C3.4000
%
T01
X0003772Y-0002948
X0007747Y-000254
X00063713Y-0000508
X0006396Y0000426
X001143Y0000426
X0011303Y0003683
X0012065Y0003429
X0012827Y0003175
X001742Y000449
Y000567
X002062
Y000449
X002302
Y000567
X001982Y000889
X001902
X001822
X0015875Y0013335
X0008883Y0009011
X0005334Y0007112
X0004826Y000635
X00047975Y00222785
X00047975Y00268505
X00123278Y0029174
X00121778Y0031242
X002286Y0032766
X0021336Y003429
X0022098Y0035052
X001982Y000127
X001902
X001822
X0015178Y-0001524
X002542Y000449
Y000567
X002782
Y000449
X003022
Y000567
X003262
Y000449
X003502
Y000567
X003742
Y000449
X003982
Y000567
X004222
Y000449
X004382
Y000567
X004542
Y000449
X004862
Y000567
X004782Y000889
X004702
X004622
Y000127
X004702
X004782
X0037592Y0000508
X003662Y000127
X003582
X0035052Y0000508
X003422Y000127
X003342
X003182
X003102
X0032512Y0000508
X003182Y000889
X003102
X0033909Y0016445
X0035433
X0033909Y0020701
X003302Y002159
X0033274Y0024892
X003429
X0035306
Y0026035
X003429
X0033274
Y0027178
X003429
X0035306
X0036576Y0028194
X0038862Y002794
X0039624Y0027686
X0040386Y0027432
X0041148Y0027178
X004191Y0026924
X0043942Y0028635
X004699Y0028448
X0047498Y0027686
X0048768Y0026924
Y0025908
Y0024638
X004953Y002413
X0047345Y0024906
X0043942Y0025035
X0041402Y0023114
X004064Y0023368
X0039878Y0023622
Y002159
X0038354Y0021844
X0038862Y0020193
X0043593Y0019566
X0045675Y0018484
X0047757Y0020066
Y0021066
X0041594Y0017526
X0035687Y0023876
X0034798
X0029337Y0023241
X0028575Y0023876
X0024638Y0025035
Y0028635
X002794Y0029718
X0027748Y0017526
X0055522Y0018778
Y0013028
X0063182Y0013368
Y0014468
Y0015568
Y0016668
Y0017768
X0062782Y0018868
X0060998Y002957
X0060998Y003037
X006096Y0031623
Y0032512
Y0033528
X0060998Y003517
X00587455Y00351675
X00574115Y00334785
X0052832Y0034125
Y0034925
X00508Y003389
X00482675Y00334785
X00469185Y00351825
X00620776Y00066532
X0068772Y0009398
X0068672Y0011488
X0066582Y0014468
X0066421Y0024638
X0068834Y002794
X0064897Y0032512
X0063881
X0068707Y0040132
X0060998Y003597
X0049657Y003937
X0048768
X0047879
X004699
X0045212Y0039243
X0044323
X0043434
X0042545
X0041656
X0039751Y0035941
X0038227
X0036703
X0033655Y0036957
X0032131
X0030607
X0026519Y0040005
X0012689Y0036195
X0009906Y0037973
X0009017
X0009398Y0050564
X0005248
X0001946Y0050564
X-0002204
T02
X0001905Y0004953
X0010795
X0009525Y0016383
X000635Y0013843
X0019685Y0022733
X0029845Y0016383
X0040005
X0050165
X00508Y0013843
X0055245Y0026543
X00508Y0031623
X0064135Y0022733
Y0004953
Y0040513
X006858Y0049403
X0064135Y0058293
X006858Y0067183
X005969
X0055245
Y0058293
X0060325Y0057023
X005969Y0049403
X0055245Y0046863
X00508Y0049403
X0050165Y0057023
X0046355Y0058293
X0040005Y0057023
X0037465Y0058293
X0028575
X0029845Y0057023
X003302Y0049403
X0034925Y0046863
X004191Y0049403
X0045085Y0046863
X0050165Y0036703
X0040005
X0029845
X0024765Y0046863
X002413Y0049403
Y0067183
X0024765
X003302
X0034925
X004191
X001524
X0014605
X000635
X0004445
X0001905Y0058293
X0010795
X0009525Y0057023
X0019685
Y0058293
X001524Y0049403
X0014605Y0046863
X0019685Y0036703
X0009525
X0001905Y0040513
T03
X000127Y0017907
T05
X000254Y0007366
X000381
Y0008636
X000254
Y0009906
X000381
Y0011176
X000254
Y0012446
X000381
T06
X000508Y003229
Y003429
Y003629
Y0053118
Y0055118
Y0057118
Y0059118
T07
X002413Y00508
X002667
X002921
X003175
X003429
X003683
X003937
X004191
X004445
X004699
X004953
X005207
Y007112
X004953
X004699
X004445
X004191
X003937
X003683
X003429
X003175
X002921
X002667
X002413
X002159Y00508
X001905
X001651
X001397
T08
X0063559Y002988
Y003566
T09
X0Y0
X006604
Y004318
Y006477
X0
Y004318
M30
