M48
;Layer_Color=9474304
;FILE_FORMAT=4:4
METRIC,LZ
;TYPE=PLATED
T01F00S00C0.3000
T02F00S00C0.3048
T04F00S00C0.7000
T05F00S00C1.0160
;TYPE=NON_PLATED
T06F00S00C0.6500
T07F00S00C3.4000
%
T01
X0004826Y000635
X000635
X00105965Y00134695
X0014732Y0013066
Y0014732
Y0015748
X0019798Y0015382
X00234395Y00134545
X001982Y000889
X001902
X001822
X001742Y000567
Y000449
X002062
Y000567
X002302
Y000449
X001982Y000127
X001902
X001822
X00172725Y00238765
X0009017Y00192106
X00047975Y00222785
X00047975Y00268505
X0024638Y0028635
Y0025035
X0029464Y0024257
Y0023368
Y0022479
X003048Y0020447
X0031496
X003302Y002159
X0033909Y0020701
X0034798Y0023876
X0035687
X0036576
X0035306Y0024892
X003429
X0033274
Y0026035
X003429
X0035306
Y0027178
X003429
X0033274
X0032004Y002794
X0043942Y0028635
X0043942Y0025035
X00459025Y00197075
X00472515Y00180035
X0049784Y0018415
X0051816Y001865
X0051816Y001945
X00563955Y00180035
X00577295Y00196925
X0060254Y0020834
X0060998Y0021328
Y0022978
Y0023778
X00603284Y00181036
X0060998Y0017378
X004191Y0017526
X0038862Y0020701
X0035433Y0016129
X0033909
X0027432Y0017526
X003102Y000889
X003182
X003262Y000567
Y000449
X003022
Y000567
X002782
Y000449
X002542
Y000567
X003502
Y000449
X003742
Y000567
X003982
Y000449
X004222
Y000567
X004382
Y000449
X004542
Y000567
X004862
Y000449
X004782Y000127
X004702
X004622
Y000889
X004702
X004782
X0037592Y0000508
X003662Y000127
X003582
X0035052Y0000508
X003422Y000127
X003342
X003182
X003102
X0032512Y0000508
X0068326Y0013208
X006397Y0020828
X00682919Y00281195
X0064826Y0033026
X0039751Y0035941
X0038227
X0036703
X0033655Y0036957
X0032131
X0030607
X00285575Y00401245
X00197615Y00443745
X00135125Y00443895
X00122255Y00444425
X00059765Y00444575
X0011176Y0036703
X0012446
X0014848Y0036322
T02
X0029845Y0016383
X0040005
X0050165
X0060325
X0055245Y0006223
Y0026543
X0045085
X0050165Y0036703
X0060325
X0040005
X0029845
X0019685
T04
X000254Y0007366
X000381
Y0008636
X000254
Y0009906
X000381
Y0011176
X000254
Y0012446
X000381
T05
X0Y003048
X000254
Y003302
Y003556
X0
Y003302
Y00381
X000254
T06
X0063559Y0017688
Y0023468
T07
X0Y0
X006604
Y004318
X0
M30
