G04*
G04 #@! TF.GenerationSoftware,Altium Limited,Altium Designer,24.0.1 (36)*
G04*
G04 Layer_Color=128*
%FSLAX44Y44*%
%MOMM*%
G71*
G04*
G04 #@! TF.SameCoordinates,2E35C3AD-188A-49CD-8274-300F61BF0D8F*
G04*
G04*
G04 #@! TF.FilePolarity,Positive*
G04*
G01*
G75*
%ADD20R,0.5000X2.4000*%
D20*
X887300Y417700D02*
D03*
Y369700D02*
D03*
X895300Y417700D02*
D03*
Y369700D02*
D03*
X903300Y417700D02*
D03*
Y369700D02*
D03*
X911300Y417700D02*
D03*
X911300Y369700D02*
D03*
X919300Y417700D02*
D03*
Y369700D02*
D03*
X927300Y417700D02*
D03*
Y369700D02*
D03*
X935300Y417700D02*
D03*
Y369700D02*
D03*
X943300Y417700D02*
D03*
Y369700D02*
D03*
X951300Y417700D02*
D03*
Y369700D02*
D03*
X959300Y417700D02*
D03*
Y369700D02*
D03*
X967300Y417700D02*
D03*
Y369700D02*
D03*
X975300Y417700D02*
D03*
Y369700D02*
D03*
X983300Y417700D02*
D03*
Y369700D02*
D03*
X991300Y417700D02*
D03*
X991300Y369700D02*
D03*
X999300Y417700D02*
D03*
Y369700D02*
D03*
X1007300Y417700D02*
D03*
Y369700D02*
D03*
X1015300Y417700D02*
D03*
Y369700D02*
D03*
X1023300Y417700D02*
D03*
Y369700D02*
D03*
X1031300Y417700D02*
D03*
Y369700D02*
D03*
X1039300Y417700D02*
D03*
Y369700D02*
D03*
X1047300Y417700D02*
D03*
X1047300Y369700D02*
D03*
X1055300Y417700D02*
D03*
Y369700D02*
D03*
X1063300Y417700D02*
D03*
Y369700D02*
D03*
X1071300Y417700D02*
D03*
Y369700D02*
D03*
X1079300Y417700D02*
D03*
Y369700D02*
D03*
X1087300Y417700D02*
D03*
Y369700D02*
D03*
X1095300Y417700D02*
D03*
X1095300Y369700D02*
D03*
X1103300Y417700D02*
D03*
X1103300Y369700D02*
D03*
X1111300Y417700D02*
D03*
Y369700D02*
D03*
X1119300Y417700D02*
D03*
Y369700D02*
D03*
M02*
