G04*
G04 #@! TF.GenerationSoftware,Altium Limited,Altium Designer,24.0.1 (36)*
G04*
G04 Layer_Color=8388736*
%FSLAX44Y44*%
%MOMM*%
G71*
G04*
G04 #@! TF.SameCoordinates,2E35C3AD-188A-49CD-8274-300F61BF0D8F*
G04*
G04*
G04 #@! TF.FilePolarity,Negative*
G04*
G01*
G75*
%ADD14R,0.7032X2.2032*%
%ADD15C,1.7272*%
%ADD16C,5.2832*%
D14*
X1119300Y371700D02*
D03*
Y415700D02*
D03*
X1111300Y371700D02*
D03*
Y415700D02*
D03*
X1103300Y371700D02*
D03*
Y415700D02*
D03*
X1095300Y371700D02*
D03*
Y415700D02*
D03*
X1087300Y371700D02*
D03*
Y415700D02*
D03*
X1079300Y371700D02*
D03*
Y415700D02*
D03*
X1071300Y371700D02*
D03*
Y415700D02*
D03*
X1063300Y371700D02*
D03*
Y415700D02*
D03*
X1055300Y371700D02*
D03*
Y415700D02*
D03*
X1047300Y371700D02*
D03*
Y415700D02*
D03*
X1039300Y371700D02*
D03*
Y415700D02*
D03*
X1031300Y371700D02*
D03*
Y415700D02*
D03*
X1023300Y371700D02*
D03*
Y415700D02*
D03*
X1015300Y371700D02*
D03*
Y415700D02*
D03*
X1007300Y371700D02*
D03*
Y415700D02*
D03*
X999300Y371700D02*
D03*
Y415700D02*
D03*
X991300Y371700D02*
D03*
Y415700D02*
D03*
X983300Y371700D02*
D03*
Y415700D02*
D03*
X975300Y371700D02*
D03*
Y415700D02*
D03*
X967300Y371700D02*
D03*
Y415700D02*
D03*
X959300Y371700D02*
D03*
Y415700D02*
D03*
X951300Y371700D02*
D03*
Y415700D02*
D03*
X943300Y371700D02*
D03*
Y415700D02*
D03*
X935300Y371700D02*
D03*
Y415700D02*
D03*
X927300Y371700D02*
D03*
Y415700D02*
D03*
X919300Y371700D02*
D03*
Y415700D02*
D03*
X911300Y371700D02*
D03*
Y415700D02*
D03*
X903300Y371700D02*
D03*
Y415700D02*
D03*
X895300Y371700D02*
D03*
Y415700D02*
D03*
X887300Y371700D02*
D03*
Y415700D02*
D03*
D15*
X723900Y1041400D02*
D03*
X698500D02*
D03*
X673100D02*
D03*
X1333500Y1143000D02*
D03*
X1308100D02*
D03*
X1282700D02*
D03*
X1333500Y1117600D02*
D03*
X1308100D02*
D03*
X1282700D02*
D03*
X1333500Y1092200D02*
D03*
X1308100D02*
D03*
X1282700D02*
D03*
X1333500Y1066800D02*
D03*
X1308100D02*
D03*
X1282700D02*
D03*
X1333500Y939800D02*
D03*
X1308100D02*
D03*
X1282700D02*
D03*
X1333500Y914400D02*
D03*
X1308100D02*
D03*
X1282700D02*
D03*
X1333500Y889000D02*
D03*
X1308100D02*
D03*
X1282700D02*
D03*
X1333500Y863600D02*
D03*
X1308100D02*
D03*
X1282700D02*
D03*
X1333500Y838200D02*
D03*
X1308100D02*
D03*
X1282700D02*
D03*
X723900Y1143000D02*
D03*
X698500D02*
D03*
X673100D02*
D03*
X723900Y1117600D02*
D03*
X698500D02*
D03*
X673100D02*
D03*
X723900Y1092200D02*
D03*
X698500D02*
D03*
X673100D02*
D03*
X723900Y1066800D02*
D03*
X698500D02*
D03*
X673100D02*
D03*
X723900Y939800D02*
D03*
X698500D02*
D03*
X673100D02*
D03*
X723900Y914400D02*
D03*
X698500D02*
D03*
X673100D02*
D03*
X723900Y889000D02*
D03*
X698500D02*
D03*
X673100D02*
D03*
X723900Y863600D02*
D03*
X698500D02*
D03*
X673100D02*
D03*
X723900Y838200D02*
D03*
X698500D02*
D03*
X673100D02*
D03*
X1333500Y711200D02*
D03*
X1308100D02*
D03*
X1282700D02*
D03*
X1333500Y685800D02*
D03*
X1308100D02*
D03*
X1282700D02*
D03*
X723900Y711200D02*
D03*
Y685800D02*
D03*
X698500Y711200D02*
D03*
Y685800D02*
D03*
X673100Y711200D02*
D03*
Y685800D02*
D03*
X774700Y1219200D02*
D03*
X800100D02*
D03*
X825500D02*
D03*
X850900D02*
D03*
X876300D02*
D03*
X774700Y1193800D02*
D03*
X800100D02*
D03*
X825500D02*
D03*
X850900D02*
D03*
X876300D02*
D03*
X774700Y1168400D02*
D03*
X800100D02*
D03*
X825500D02*
D03*
X850900D02*
D03*
X876300D02*
D03*
X774700Y1143000D02*
D03*
X800100D02*
D03*
X825500D02*
D03*
X850900D02*
D03*
X876300D02*
D03*
X774700Y1117600D02*
D03*
X800100D02*
D03*
X825500D02*
D03*
X850900D02*
D03*
X876300D02*
D03*
X774700Y1092200D02*
D03*
X800100D02*
D03*
X825500D02*
D03*
X850900D02*
D03*
X876300D02*
D03*
X774700Y1066800D02*
D03*
X800100D02*
D03*
X825500D02*
D03*
X850900D02*
D03*
X876300D02*
D03*
X774700Y1041400D02*
D03*
X800100D02*
D03*
X825500D02*
D03*
X850900D02*
D03*
X876300D02*
D03*
X774700Y1016000D02*
D03*
X800100D02*
D03*
X825500D02*
D03*
X850900D02*
D03*
X876300D02*
D03*
X774700Y990600D02*
D03*
X800100D02*
D03*
X825500D02*
D03*
X850900D02*
D03*
X876300D02*
D03*
X774700Y965200D02*
D03*
X800100D02*
D03*
X825500D02*
D03*
X850900D02*
D03*
X876300D02*
D03*
X774700Y939800D02*
D03*
X800100D02*
D03*
X825500D02*
D03*
X850900D02*
D03*
X876300D02*
D03*
X774700Y914400D02*
D03*
X800100D02*
D03*
X825500D02*
D03*
X850900D02*
D03*
X876300D02*
D03*
X774700Y889000D02*
D03*
X800100D02*
D03*
X825500D02*
D03*
X850900D02*
D03*
X876300D02*
D03*
X774700Y863600D02*
D03*
X800100D02*
D03*
X825500D02*
D03*
X850900D02*
D03*
X876300D02*
D03*
X774700Y838200D02*
D03*
X800100D02*
D03*
X825500D02*
D03*
X850900D02*
D03*
X876300D02*
D03*
X774700Y812800D02*
D03*
X800100D02*
D03*
X825500D02*
D03*
X850900D02*
D03*
X876300D02*
D03*
X774700Y787400D02*
D03*
X800100D02*
D03*
X825500D02*
D03*
X850900D02*
D03*
X876300D02*
D03*
X774700Y762000D02*
D03*
X800100D02*
D03*
X825500D02*
D03*
X850900D02*
D03*
X876300D02*
D03*
X774700Y736600D02*
D03*
X800100D02*
D03*
X825500D02*
D03*
X850900D02*
D03*
X876300D02*
D03*
X775336Y710711D02*
D03*
X800736D02*
D03*
X826136D02*
D03*
X851536D02*
D03*
X876936D02*
D03*
X1333500Y660400D02*
D03*
X1308100D02*
D03*
X1282700D02*
D03*
X723900D02*
D03*
X698500D02*
D03*
X673100D02*
D03*
X774700D02*
D03*
X800100D02*
D03*
X825500D02*
D03*
X850900D02*
D03*
X876300D02*
D03*
X774700Y685800D02*
D03*
X800100D02*
D03*
X825500D02*
D03*
X850900D02*
D03*
X876300D02*
D03*
X952500Y1219200D02*
D03*
X977900D02*
D03*
X1003300D02*
D03*
X1028700D02*
D03*
X1054100D02*
D03*
X952500Y1193800D02*
D03*
X977900D02*
D03*
X1003300D02*
D03*
X1028700D02*
D03*
X1054100D02*
D03*
X952500Y1168400D02*
D03*
X977900D02*
D03*
X1003300D02*
D03*
X1028700D02*
D03*
X1054100D02*
D03*
X952500Y1143000D02*
D03*
X977900D02*
D03*
X1003300D02*
D03*
X1028700D02*
D03*
X1054100D02*
D03*
X952500Y1117600D02*
D03*
X977900D02*
D03*
X1003300D02*
D03*
X1028700D02*
D03*
X1054100D02*
D03*
X952500Y1092200D02*
D03*
X977900D02*
D03*
X1003300D02*
D03*
X1028700D02*
D03*
X1054100D02*
D03*
X952500Y1066800D02*
D03*
X977900D02*
D03*
X1003300D02*
D03*
X1028700D02*
D03*
X1054100D02*
D03*
X952500Y1041400D02*
D03*
X977900D02*
D03*
X1003300D02*
D03*
X1028700D02*
D03*
X1054100D02*
D03*
X952500Y1016000D02*
D03*
X977900D02*
D03*
X1003300D02*
D03*
X1028700D02*
D03*
X1054100D02*
D03*
X952500Y990600D02*
D03*
X977900D02*
D03*
X1003300D02*
D03*
X1028700D02*
D03*
X1054100D02*
D03*
X952500Y965200D02*
D03*
X977900D02*
D03*
X1003300D02*
D03*
X1028700D02*
D03*
X1054100D02*
D03*
X952500Y939800D02*
D03*
X977900D02*
D03*
X1003300D02*
D03*
X1028700D02*
D03*
X1054100D02*
D03*
X952500Y914400D02*
D03*
X977900D02*
D03*
X1003300D02*
D03*
X1028700D02*
D03*
X1054100D02*
D03*
X952500Y889000D02*
D03*
X977900D02*
D03*
X1003300D02*
D03*
X1028700D02*
D03*
X1054100D02*
D03*
X952500Y863600D02*
D03*
X977900D02*
D03*
X1003300D02*
D03*
X1028700D02*
D03*
X1054100D02*
D03*
X952500Y838200D02*
D03*
X977900D02*
D03*
X1003300D02*
D03*
X1028700D02*
D03*
X1054100D02*
D03*
X952500Y812800D02*
D03*
X977900D02*
D03*
X1003300D02*
D03*
X1028700D02*
D03*
X1054100D02*
D03*
X952500Y787400D02*
D03*
X977900D02*
D03*
X1003300D02*
D03*
X1028700D02*
D03*
X1054100D02*
D03*
X952500Y762000D02*
D03*
X977900D02*
D03*
X1003300D02*
D03*
X1028700D02*
D03*
X1054100D02*
D03*
X952500Y736600D02*
D03*
X977900D02*
D03*
X1003300D02*
D03*
X1028700D02*
D03*
X1054100D02*
D03*
X953136Y710711D02*
D03*
X978536D02*
D03*
X1003936D02*
D03*
X1029336D02*
D03*
X1054736D02*
D03*
X952500Y660400D02*
D03*
X977900D02*
D03*
X1003300D02*
D03*
X1028700D02*
D03*
X1054100D02*
D03*
X952500Y685800D02*
D03*
X977900D02*
D03*
X1003300D02*
D03*
X1028700D02*
D03*
X1054100D02*
D03*
X1130300Y1219200D02*
D03*
X1155700D02*
D03*
X1181100D02*
D03*
X1206500D02*
D03*
X1231900D02*
D03*
X1130300Y1193800D02*
D03*
X1155700D02*
D03*
X1181100D02*
D03*
X1206500D02*
D03*
X1231900D02*
D03*
X1130300Y1168400D02*
D03*
X1155700D02*
D03*
X1181100D02*
D03*
X1206500D02*
D03*
X1231900D02*
D03*
X1130300Y1143000D02*
D03*
X1155700D02*
D03*
X1181100D02*
D03*
X1206500D02*
D03*
X1231900D02*
D03*
X1130300Y1117600D02*
D03*
X1155700D02*
D03*
X1181100D02*
D03*
X1206500D02*
D03*
X1231900D02*
D03*
X1130300Y1092200D02*
D03*
X1155700D02*
D03*
X1181100D02*
D03*
X1206500D02*
D03*
X1231900D02*
D03*
X1130300Y1066800D02*
D03*
X1155700D02*
D03*
X1181100D02*
D03*
X1206500D02*
D03*
X1231900D02*
D03*
X1130300Y1041400D02*
D03*
X1155700D02*
D03*
X1181100D02*
D03*
X1206500D02*
D03*
X1231900D02*
D03*
X1130300Y1016000D02*
D03*
X1155700D02*
D03*
X1181100D02*
D03*
X1206500D02*
D03*
X1231900D02*
D03*
X1130300Y990600D02*
D03*
X1155700D02*
D03*
X1181100D02*
D03*
X1206500D02*
D03*
X1231900D02*
D03*
X1130300Y965200D02*
D03*
X1155700D02*
D03*
X1181100D02*
D03*
X1206500D02*
D03*
X1231900D02*
D03*
X1130300Y939800D02*
D03*
X1155700D02*
D03*
X1181100D02*
D03*
X1206500D02*
D03*
X1231900D02*
D03*
X1130300Y914400D02*
D03*
X1155700D02*
D03*
X1181100D02*
D03*
X1206500D02*
D03*
X1231900D02*
D03*
X1130300Y889000D02*
D03*
X1155700D02*
D03*
X1181100D02*
D03*
X1206500D02*
D03*
X1231900D02*
D03*
X1130300Y863600D02*
D03*
X1155700D02*
D03*
X1181100D02*
D03*
X1206500D02*
D03*
X1231900D02*
D03*
X1130300Y838200D02*
D03*
X1155700D02*
D03*
X1181100D02*
D03*
X1206500D02*
D03*
X1231900D02*
D03*
X1130300Y812800D02*
D03*
X1155700D02*
D03*
X1181100D02*
D03*
X1206500D02*
D03*
X1231900D02*
D03*
X1130300Y787400D02*
D03*
X1155700D02*
D03*
X1181100D02*
D03*
X1206500D02*
D03*
X1231900D02*
D03*
X1130300Y762000D02*
D03*
X1155700D02*
D03*
X1181100D02*
D03*
X1206500D02*
D03*
X1231900D02*
D03*
X1130300Y736600D02*
D03*
X1155700D02*
D03*
X1181100D02*
D03*
X1206500D02*
D03*
X1231900D02*
D03*
X1130936Y710711D02*
D03*
X1156336D02*
D03*
X1181736D02*
D03*
X1207136D02*
D03*
X1232536D02*
D03*
X1130300Y660400D02*
D03*
X1155700D02*
D03*
X1181100D02*
D03*
X1206500D02*
D03*
X1231900D02*
D03*
X1130300Y685800D02*
D03*
X1155700D02*
D03*
X1181100D02*
D03*
X1206500D02*
D03*
X1231900D02*
D03*
X1333500Y1041400D02*
D03*
X1308100D02*
D03*
X1282700D02*
D03*
D16*
X673100Y1206500D02*
D03*
X1333500D02*
D03*
X673100Y990600D02*
D03*
X1333500D02*
D03*
X673100Y774700D02*
D03*
X1333500D02*
D03*
X673100Y558800D02*
D03*
X1333500D02*
D03*
Y342900D02*
D03*
X673100D02*
D03*
M02*
