G04*
G04 #@! TF.GenerationSoftware,Altium Limited,Altium Designer,24.0.1 (36)*
G04*
G04 Layer_Color=8421504*
%FSLAX44Y44*%
%MOMM*%
G71*
G04*
G04 #@! TF.SameCoordinates,2E35C3AD-188A-49CD-8274-300F61BF0D8F*
G04*
G04*
G04 #@! TF.FilePolarity,Positive*
G04*
G01*
G75*
%ADD13R,0.5000X2.0000*%
D13*
X1119300Y371700D02*
D03*
Y415700D02*
D03*
X1111300Y371700D02*
D03*
Y415700D02*
D03*
X1103300Y371700D02*
D03*
Y415700D02*
D03*
X1095300Y371700D02*
D03*
Y415700D02*
D03*
X1087300Y371700D02*
D03*
Y415700D02*
D03*
X1079300Y371700D02*
D03*
Y415700D02*
D03*
X1071300Y371700D02*
D03*
Y415700D02*
D03*
X1063300Y371700D02*
D03*
Y415700D02*
D03*
X1055300Y371700D02*
D03*
Y415700D02*
D03*
X1047300Y371700D02*
D03*
Y415700D02*
D03*
X1039300Y371700D02*
D03*
Y415700D02*
D03*
X1031300Y371700D02*
D03*
Y415700D02*
D03*
X1023300Y371700D02*
D03*
Y415700D02*
D03*
X1015300Y371700D02*
D03*
Y415700D02*
D03*
X1007300Y371700D02*
D03*
Y415700D02*
D03*
X999300Y371700D02*
D03*
Y415700D02*
D03*
X991300Y371700D02*
D03*
Y415700D02*
D03*
X983300Y371700D02*
D03*
Y415700D02*
D03*
X975300Y371700D02*
D03*
Y415700D02*
D03*
X967300Y371700D02*
D03*
Y415700D02*
D03*
X959300Y371700D02*
D03*
Y415700D02*
D03*
X951300Y371700D02*
D03*
Y415700D02*
D03*
X943300Y371700D02*
D03*
Y415700D02*
D03*
X935300Y371700D02*
D03*
Y415700D02*
D03*
X927300Y371700D02*
D03*
Y415700D02*
D03*
X919300Y371700D02*
D03*
Y415700D02*
D03*
X911300Y371700D02*
D03*
Y415700D02*
D03*
X903300Y371700D02*
D03*
Y415700D02*
D03*
X895300Y371700D02*
D03*
Y415700D02*
D03*
X887300Y371700D02*
D03*
Y415700D02*
D03*
M02*
