G04*
G04 #@! TF.GenerationSoftware,Altium Limited,Altium Designer,24.0.1 (36)*
G04*
G04 Layer_Color=32768*
%FSLAX44Y44*%
%MOMM*%
G71*
G04*
G04 #@! TF.SameCoordinates,4C79C2C8-5DE3-4804-94A9-F395A3FC2A11*
G04*
G04*
G04 #@! TF.FilePolarity,Positive*
G04*
G01*
G75*
%ADD93C,0.1000*%
%ADD94C,0.0500*%
D93*
X141300Y622300D02*
X150800D01*
X146050Y617550D02*
Y627050D01*
X46050Y622300D02*
X55550D01*
X50800Y617550D02*
Y627050D01*
X571450Y553720D02*
X580950D01*
X576200Y548970D02*
Y558470D01*
X648410Y553720D02*
X657910D01*
X653160Y548970D02*
Y558470D01*
X645160Y514680D02*
Y524180D01*
X640410Y519430D02*
X649910D01*
X655650D02*
X665150D01*
X660400Y514680D02*
Y524180D01*
X584200Y514680D02*
Y524180D01*
X579450Y519430D02*
X588950D01*
X564210D02*
X573710D01*
X568960Y514680D02*
Y524180D01*
X447040Y625170D02*
Y634670D01*
X442290Y629920D02*
X451790D01*
X568960Y625170D02*
Y634670D01*
X564210Y629920D02*
X573710D01*
X261570Y287020D02*
X271070D01*
X266320Y282270D02*
Y291770D01*
X244170Y238760D02*
X253670D01*
X248920Y234010D02*
Y243510D01*
X456260Y214630D02*
X465760D01*
X461010Y209880D02*
Y219380D01*
X359410Y179400D02*
Y188900D01*
X354660Y184150D02*
X364160D01*
X344170Y179400D02*
Y188900D01*
X339420Y184150D02*
X348920D01*
X390220Y191770D02*
X399720D01*
X394970Y187020D02*
Y196520D01*
X390220Y176530D02*
X399720D01*
X394970Y171780D02*
Y181280D01*
X226060Y457530D02*
Y467030D01*
X221310Y462280D02*
X230810D01*
X241300Y457530D02*
Y467030D01*
X236550Y462280D02*
X246050D01*
X228930Y439420D02*
X238430D01*
X233680Y434670D02*
Y444170D01*
X303860Y176530D02*
X313360D01*
X308610Y171780D02*
Y181280D01*
X415620Y250190D02*
X425120D01*
X420370Y245440D02*
Y254940D01*
X399490Y299720D02*
X408990D01*
X404240Y294970D02*
Y304470D01*
X392430Y331800D02*
Y341300D01*
X387680Y336550D02*
X397180D01*
X361950Y331800D02*
Y341300D01*
X357200Y336550D02*
X366700D01*
X377190Y331800D02*
Y341300D01*
X372440Y336550D02*
X381940D01*
X356870Y395300D02*
Y404800D01*
X352120Y400050D02*
X361620D01*
X341630Y395300D02*
Y404800D01*
X336880Y400050D02*
X346380D01*
X336550Y341960D02*
Y351460D01*
X331800Y346710D02*
X341300D01*
X321310Y341960D02*
Y351460D01*
X316560Y346710D02*
X326060D01*
X306070Y341960D02*
Y351460D01*
X301320Y346710D02*
X310820D01*
X223850Y335280D02*
X233350D01*
X228600Y330530D02*
Y340030D01*
X180670Y398780D02*
X190170D01*
X185420Y394030D02*
Y403530D01*
X180670Y383540D02*
X190170D01*
X185420Y378790D02*
Y388290D01*
X50800Y315290D02*
Y324790D01*
X46050Y320040D02*
X55550D01*
X58350Y347600D02*
Y357100D01*
X53600Y352350D02*
X63100D01*
X66040Y315290D02*
Y324790D01*
X61290Y320040D02*
X70790D01*
X104400Y263450D02*
X113900D01*
X109150Y258700D02*
Y268200D01*
X10490Y271780D02*
X19990D01*
X15240Y267030D02*
Y276530D01*
D94*
X138700Y16300D02*
X521700D01*
X138700D02*
Y85300D01*
X521700D01*
Y16300D02*
Y85300D01*
X161550Y614800D02*
Y629800D01*
X130550Y614800D02*
Y629800D01*
Y614800D02*
X161550D01*
X130550Y629800D02*
X161550D01*
X66300Y614800D02*
Y629800D01*
X35300Y614800D02*
Y629800D01*
Y614800D02*
X66300D01*
X35300Y629800D02*
X66300D01*
X-24590Y474850D02*
Y613450D01*
Y474850D02*
X164290D01*
Y613450D01*
X-24590D02*
X164290D01*
X600180Y559870D02*
X629180D01*
Y534870D02*
Y559870D01*
X600180Y534870D02*
X629180D01*
X600180D02*
Y559870D01*
X441450Y484550D02*
Y569550D01*
Y484550D02*
X536450D01*
Y569550D01*
X441450D02*
X536450D01*
X591700Y546220D02*
Y561220D01*
X560700Y546220D02*
Y561220D01*
Y546220D02*
X591700D01*
X560700Y561220D02*
X591700D01*
X637660Y546220D02*
Y561220D01*
X668660Y546220D02*
Y561220D01*
X637660D02*
X668660D01*
X637660Y546220D02*
X668660D01*
X637660Y534930D02*
X652660D01*
X637660Y503930D02*
X652660D01*
Y534930D01*
X637660Y503930D02*
Y534930D01*
X667900Y503930D02*
Y534930D01*
X652900Y503930D02*
Y534930D01*
X667900D01*
X652900Y503930D02*
X667900D01*
X576700Y534930D02*
X591700D01*
X576700Y503930D02*
X591700D01*
Y534930D01*
X576700Y503930D02*
Y534930D01*
X576460Y503930D02*
Y534930D01*
X561460Y503930D02*
Y534930D01*
X576460D01*
X561460Y503930D02*
X576460D01*
X460800Y599150D02*
Y658150D01*
Y599150D02*
X555200D01*
Y658150D01*
X460800D02*
X555200D01*
X439540Y645420D02*
X454540D01*
X439540Y614420D02*
X454540D01*
Y645420D01*
X439540Y614420D02*
Y645420D01*
X561460Y614420D02*
X576460D01*
X561460Y645420D02*
X576460D01*
X561460Y614420D02*
Y645420D01*
X576460Y614420D02*
Y645420D01*
X281820Y279520D02*
Y294520D01*
X250820Y279520D02*
Y294520D01*
Y279520D02*
X281820D01*
X250820Y294520D02*
X281820D01*
X264420Y231260D02*
Y246260D01*
X233420Y231260D02*
Y246260D01*
Y231260D02*
X264420D01*
X233420Y246260D02*
X264420D01*
X445510Y207130D02*
Y222130D01*
X476510Y207130D02*
Y222130D01*
X445510D02*
X476510D01*
X445510Y207130D02*
X476510D01*
X351910Y199650D02*
X366910D01*
X351910Y168650D02*
X366910D01*
Y199650D01*
X351910Y168650D02*
Y199650D01*
X336670D02*
X351670D01*
X336670Y168650D02*
X351670D01*
Y199650D01*
X336670Y168650D02*
Y199650D01*
X379470Y184270D02*
Y199270D01*
X410470Y184270D02*
Y199270D01*
X379470D02*
X410470D01*
X379470Y184270D02*
X410470D01*
X410470Y169030D02*
Y184030D01*
X379470Y169030D02*
Y184030D01*
Y169030D02*
X410470D01*
X379470Y184030D02*
X410470D01*
X445210Y168190D02*
Y205190D01*
Y168190D02*
X502210D01*
Y205190D01*
X445210D02*
X502210D01*
X421600Y496900D02*
Y569900D01*
X289600D02*
X421600D01*
X289600Y496900D02*
Y569900D01*
Y496900D02*
X421600D01*
X218560Y446780D02*
X233560D01*
X218560Y477780D02*
X233560D01*
X218560Y446780D02*
Y477780D01*
X233560Y446780D02*
Y477780D01*
X233800Y477780D02*
X248800D01*
X233800Y446780D02*
X248800D01*
Y477780D01*
X233800Y446780D02*
Y477780D01*
X218180Y431920D02*
Y446920D01*
X249180Y431920D02*
Y446920D01*
X218180D02*
X249180D01*
X218180Y431920D02*
X249180D01*
X293110Y169030D02*
X293110Y184030D01*
X324110Y169030D02*
Y184030D01*
X293110D02*
X324110D01*
X293110Y169030D02*
X324110D01*
X404870Y242690D02*
Y257690D01*
X435870Y242690D02*
Y257690D01*
X404870D02*
X435870D01*
X404870Y242690D02*
X435870D01*
X388740Y292220D02*
Y307220D01*
X419740Y292220D02*
Y307220D01*
X388740D02*
X419740D01*
X388740Y292220D02*
X419740D01*
X384930Y321050D02*
X399930D01*
X384930Y352050D02*
X399930D01*
X384930Y321050D02*
Y352050D01*
X399930Y321050D02*
Y352050D01*
X354450Y321050D02*
X369450D01*
X354450Y352050D02*
X369450D01*
X354450Y321050D02*
Y352050D01*
X369450Y321050D02*
Y352050D01*
X369690Y321050D02*
X384690D01*
X369690Y352050D02*
X384690D01*
X369690Y321050D02*
Y352050D01*
X384690Y321050D02*
Y352050D01*
X349370Y384550D02*
X364370D01*
X349370Y415550D02*
X364370D01*
X349370Y384550D02*
Y415550D01*
X364370Y384550D02*
Y415550D01*
X334130Y384550D02*
X349130D01*
X334130Y415550D02*
X349130D01*
X334130Y384550D02*
Y415550D01*
X349130Y384550D02*
Y415550D01*
X329050Y331210D02*
X344050D01*
X329050Y362210D02*
X344050D01*
X329050Y331210D02*
Y362210D01*
X344050Y331210D02*
Y362210D01*
X313810Y331210D02*
X328810D01*
X313810Y362210D02*
X328810D01*
X313810Y331210D02*
Y362210D01*
X328810Y331210D02*
Y362210D01*
X298570Y331210D02*
X313570D01*
X298570Y362210D02*
X313570D01*
X298570Y331210D02*
Y362210D01*
X313570Y331210D02*
Y362210D01*
X213100Y327780D02*
Y342780D01*
X244100Y327780D02*
Y342780D01*
X213100D02*
X244100D01*
X213100Y327780D02*
X244100D01*
X169920Y391280D02*
Y406280D01*
X200920Y391280D02*
Y406280D01*
X169920D02*
X200920D01*
X169920Y391280D02*
X200920D01*
X169920Y376040D02*
Y391040D01*
X200920Y376040D02*
Y391040D01*
X169920D02*
X200920D01*
X169920Y376040D02*
X200920D01*
X109610Y375610D02*
X202810D01*
X109610Y317810D02*
X202810D01*
X109610D02*
Y375610D01*
X202810Y317810D02*
Y375610D01*
X43300Y335540D02*
X58300D01*
X43300Y304540D02*
X58300D01*
Y335540D01*
X43300Y304540D02*
X43300Y335540D01*
X50850Y336850D02*
X65850D01*
X50850Y367850D02*
X65850D01*
X50850Y336850D02*
Y367850D01*
X65850Y336850D02*
Y367850D01*
X58540Y304540D02*
X73540D01*
X58540Y335540D02*
X73540D01*
X58540Y304540D02*
Y335540D01*
X73540Y304540D02*
Y335540D01*
X37500Y259150D02*
Y293150D01*
Y259150D02*
X79200D01*
Y293150D01*
X37500D02*
X79200D01*
X93650Y255950D02*
Y270950D01*
X124650Y255950D02*
Y270950D01*
X93650D02*
X124650D01*
X93650Y255950D02*
X124650D01*
X30740Y264280D02*
Y279280D01*
X-260Y264280D02*
Y279280D01*
Y264280D02*
X30740D01*
X-260Y279280D02*
X30740D01*
X151690Y379010D02*
Y416010D01*
X94690D02*
X151690D01*
X94690D02*
X94690Y379010D01*
X151690D01*
X138700Y16300D02*
Y85300D01*
X521700D01*
Y16300D02*
Y85300D01*
X138700Y16300D02*
X521700D01*
X104100Y64800D02*
Y138400D01*
X-27900Y64800D02*
X104100D01*
X-27900D02*
Y138400D01*
X104100D01*
X301850Y219300D02*
X383950D01*
X301850Y301400D02*
X383950D01*
X301850Y219300D02*
Y301400D01*
X383950Y219300D02*
Y301400D01*
M02*
