G04*
G04 #@! TF.GenerationSoftware,Altium Limited,Altium Designer,24.0.1 (36)*
G04*
G04 Layer_Color=16711935*
%FSLAX44Y44*%
%MOMM*%
G71*
G04*
G04 #@! TF.SameCoordinates,4C79C2C8-5DE3-4804-94A9-F395A3FC2A11*
G04*
G04*
G04 #@! TF.FilePolarity,Negative*
G04*
G01*
G75*
%ADD33R,0.6500X2.1500*%
%ADD50C,1.6740*%
%ADD53C,1.5980*%
%ADD54R,1.5980X1.5980*%
%ADD55C,3.4500*%
%ADD56C,2.2780*%
%ADD57C,1.5900*%
%ADD58O,2.3500X1.2500*%
%ADD59C,0.6700*%
%ADD60C,5.2300*%
%ADD61C,0.6072*%
%ADD91C,0.6556*%
D33*
X486200Y28800D02*
D03*
Y72800D02*
D03*
X478200Y28800D02*
D03*
Y72800D02*
D03*
X470200Y28800D02*
D03*
Y72800D02*
D03*
X462200Y28800D02*
D03*
Y72800D02*
D03*
X454200Y28800D02*
D03*
Y72800D02*
D03*
X446200Y28800D02*
D03*
Y72800D02*
D03*
X438200Y28800D02*
D03*
Y72800D02*
D03*
X430200Y28800D02*
D03*
Y72800D02*
D03*
X422200Y28800D02*
D03*
Y72800D02*
D03*
X414200Y28800D02*
D03*
Y72800D02*
D03*
X406200Y28800D02*
D03*
Y72800D02*
D03*
X398200Y28800D02*
D03*
Y72800D02*
D03*
X390200Y28800D02*
D03*
Y72800D02*
D03*
X382200Y28800D02*
D03*
Y72800D02*
D03*
X374200Y28800D02*
D03*
Y72800D02*
D03*
X366200Y28800D02*
D03*
Y72800D02*
D03*
X358200Y28800D02*
D03*
Y72800D02*
D03*
X350200Y28800D02*
D03*
Y72800D02*
D03*
X342200Y28800D02*
D03*
Y72800D02*
D03*
X334200Y28800D02*
D03*
Y72800D02*
D03*
X326200Y28800D02*
D03*
Y72800D02*
D03*
X318200Y28800D02*
D03*
Y72800D02*
D03*
X310200Y28800D02*
D03*
Y72800D02*
D03*
X302200Y28800D02*
D03*
Y72800D02*
D03*
X294200Y28800D02*
D03*
Y72800D02*
D03*
X286200Y28800D02*
D03*
Y72800D02*
D03*
X278200Y28800D02*
D03*
Y72800D02*
D03*
X270200Y28800D02*
D03*
Y72800D02*
D03*
X262200Y28800D02*
D03*
Y72800D02*
D03*
X254200Y28800D02*
D03*
Y72800D02*
D03*
X246200Y28800D02*
D03*
Y72800D02*
D03*
X238200Y28800D02*
D03*
Y72800D02*
D03*
X230200Y28800D02*
D03*
Y72800D02*
D03*
X222200Y28800D02*
D03*
Y72800D02*
D03*
X214200Y28800D02*
D03*
Y72800D02*
D03*
X206200Y28800D02*
D03*
Y72800D02*
D03*
X198200Y28800D02*
D03*
Y72800D02*
D03*
X190200Y28800D02*
D03*
Y72800D02*
D03*
X182200Y28800D02*
D03*
Y72800D02*
D03*
X174200Y28800D02*
D03*
Y72800D02*
D03*
D50*
X647700Y279400D02*
D03*
Y254000D02*
D03*
Y228600D02*
D03*
Y203200D02*
D03*
Y177800D02*
D03*
Y152400D02*
D03*
Y127000D02*
D03*
Y101600D02*
D03*
Y76200D02*
D03*
Y50800D02*
D03*
X673100Y381000D02*
D03*
Y355600D02*
D03*
Y330200D02*
D03*
Y304800D02*
D03*
Y279400D02*
D03*
Y254000D02*
D03*
Y228600D02*
D03*
Y203200D02*
D03*
Y177800D02*
D03*
Y152400D02*
D03*
Y127000D02*
D03*
Y101600D02*
D03*
Y76200D02*
D03*
Y50800D02*
D03*
X647700Y381000D02*
D03*
Y355600D02*
D03*
Y330200D02*
D03*
Y304800D02*
D03*
X222250Y527050D02*
D03*
X196850D02*
D03*
Y495300D02*
D03*
X222250D02*
D03*
D53*
X95250Y510550D02*
D03*
X74930D02*
D03*
X85090Y535950D02*
D03*
X54610Y510550D02*
D03*
X64770Y535950D02*
D03*
X34290Y510550D02*
D03*
X44450Y535950D02*
D03*
D54*
X105410D02*
D03*
D55*
X6350Y501650D02*
D03*
X133350D02*
D03*
D56*
X-11450Y544050D02*
D03*
X151150D02*
D03*
D57*
X1250Y559920D02*
D03*
X24150D02*
D03*
X138450D02*
D03*
X115550D02*
D03*
D58*
X532000Y607150D02*
D03*
Y650150D02*
D03*
X484000Y607150D02*
D03*
Y650150D02*
D03*
D59*
X545500Y628650D02*
D03*
X470500D02*
D03*
D60*
X660400Y647700D02*
D03*
X0D02*
D03*
Y0D02*
D03*
X660400D02*
D03*
X0Y431800D02*
D03*
X660400D02*
D03*
D61*
X556260Y467360D02*
D03*
X607060Y365760D02*
D03*
Y162560D02*
D03*
X556260Y60960D02*
D03*
X505460Y162560D02*
D03*
X403860Y568960D02*
D03*
X353060Y467360D02*
D03*
X403860Y365760D02*
D03*
X251460Y467360D02*
D03*
X200660Y568960D02*
D03*
Y162560D02*
D03*
X99060Y568960D02*
D03*
X48260Y467360D02*
D03*
X99060Y365760D02*
D03*
Y162560D02*
D03*
X641350Y582930D02*
D03*
X685800Y494030D02*
D03*
X641350Y405130D02*
D03*
X685800Y316230D02*
D03*
Y138430D02*
D03*
X596900Y494030D02*
D03*
X552450Y405130D02*
D03*
Y227330D02*
D03*
X596900Y138430D02*
D03*
X552450Y49530D02*
D03*
X463550Y405130D02*
D03*
X508000Y138430D02*
D03*
X419100Y494030D02*
D03*
X374650Y405130D02*
D03*
X419100Y316230D02*
D03*
X285750Y582930D02*
D03*
Y405130D02*
D03*
X196850Y582930D02*
D03*
Y227330D02*
D03*
X241300Y138430D02*
D03*
X107950Y582930D02*
D03*
X152400Y316230D02*
D03*
X107950Y227330D02*
D03*
X152400Y138430D02*
D03*
X19050Y582930D02*
D03*
X63500Y494030D02*
D03*
X19050Y405130D02*
D03*
Y227330D02*
D03*
D91*
X447040Y607060D02*
D03*
X569539Y651036D02*
D03*
X58420Y373380D02*
D03*
X318200Y99060D02*
D03*
X310200D02*
D03*
X198200Y190D02*
D03*
X182200Y0D02*
D03*
X190200D02*
D03*
X147320Y-13970D02*
D03*
X318200Y190D02*
D03*
X310200D02*
D03*
X363220Y280670D02*
D03*
X480060Y223520D02*
D03*
X422200Y46170D02*
D03*
X446200Y46170D02*
D03*
X470200Y46170D02*
D03*
X190200Y55430D02*
D03*
X310200Y55430D02*
D03*
X594360Y539750D02*
D03*
X132080Y274320D02*
D03*
X304800Y299720D02*
D03*
X320040Y203200D02*
D03*
X311150D02*
D03*
X293370D02*
D03*
X302260D02*
D03*
X515620Y199390D02*
D03*
Y190500D02*
D03*
X538480Y137160D02*
D03*
X515620Y172720D02*
D03*
Y181610D02*
D03*
X528320Y457200D02*
D03*
X538480D02*
D03*
X528320Y137160D02*
D03*
X414020Y193040D02*
D03*
X415290Y173990D02*
D03*
X360680Y165100D02*
D03*
X416560Y200315D02*
D03*
X426720Y205740D02*
D03*
Y218440D02*
D03*
X222250Y195580D02*
D03*
X231140D02*
D03*
X240030D02*
D03*
X257810D02*
D03*
X248920D02*
D03*
X266700D02*
D03*
X275590D02*
D03*
X228600Y238760D02*
D03*
X381000Y480060D02*
D03*
X368300D02*
D03*
X330200Y488950D02*
D03*
X505460Y228600D02*
D03*
X495300Y165100D02*
D03*
X452120D02*
D03*
X474980Y233640D02*
D03*
X83820Y482600D02*
D03*
X92710D02*
D03*
X34290Y279400D02*
D03*
X113030Y248920D02*
D03*
X101600D02*
D03*
X-5080Y271780D02*
D03*
X101600Y421640D02*
D03*
X306478Y367257D02*
D03*
X321718D02*
D03*
X336958D02*
D03*
X392430Y356870D02*
D03*
X358140Y436880D02*
D03*
X104140Y327660D02*
D03*
X93980Y279400D02*
D03*
X358140Y421640D02*
D03*
X129540Y261620D02*
D03*
X83820Y279400D02*
D03*
X132080Y539750D02*
D03*
X96520Y43180D02*
D03*
X105410D02*
D03*
X243866Y287046D02*
D03*
X350200Y11430D02*
D03*
X144780Y421640D02*
D03*
X473710Y590078D02*
D03*
X466090Y586740D02*
D03*
X541020Y581660D02*
D03*
X149860Y63500D02*
D03*
X139700Y68580D02*
D03*
X123190Y43180D02*
D03*
X462200Y101600D02*
D03*
X470200D02*
D03*
X478200D02*
D03*
X368300Y577850D02*
D03*
X355600D02*
D03*
X342900D02*
D03*
X330200D02*
D03*
X297180Y292100D02*
D03*
X328930Y236220D02*
D03*
X198200Y55430D02*
D03*
X140970Y43180D02*
D03*
X132080D02*
D03*
X114300D02*
D03*
X182200Y55430D02*
D03*
X478200Y46170D02*
D03*
X462200D02*
D03*
X422200Y90170D02*
D03*
X398200D02*
D03*
X374200D02*
D03*
X69850Y57150D02*
D03*
X82191Y57509D02*
D03*
X57150Y57150D02*
D03*
X174200Y11430D02*
D03*
X398200D02*
D03*
X374200D02*
D03*
X69850Y146050D02*
D03*
X82550D02*
D03*
X6350Y146050D02*
D03*
X19050D02*
D03*
X31750Y146050D02*
D03*
X-6350Y146050D02*
D03*
X-19050Y146050D02*
D03*
X50800Y50800D02*
D03*
X63500D02*
D03*
X76200D02*
D03*
X502920Y660400D02*
D03*
X513080D02*
D03*
X438200Y11430D02*
D03*
X422200D02*
D03*
X438200Y90170D02*
D03*
X254200D02*
D03*
X230200D02*
D03*
X454200Y11430D02*
D03*
X302200D02*
D03*
X278200D02*
D03*
X254200D02*
D03*
X230200D02*
D03*
X206200D02*
D03*
X326200D02*
D03*
X486200D02*
D03*
X174200Y90170D02*
D03*
X206200D02*
D03*
X302200D02*
D03*
X278200D02*
D03*
X326200D02*
D03*
X350200D02*
D03*
X454200D02*
D03*
X486200D02*
D03*
X320040Y284480D02*
D03*
X287020Y292100D02*
D03*
X330200Y284480D02*
D03*
X250190Y334010D02*
D03*
X287020Y175260D02*
D03*
X426720Y299720D02*
D03*
X254000Y439420D02*
D03*
X673100Y553720D02*
D03*
X660400Y539750D02*
D03*
X556260Y553720D02*
D03*
X568960Y539750D02*
D03*
X601980Y581660D02*
D03*
X528000Y629000D02*
D03*
X488000D02*
D03*
X332740Y248920D02*
D03*
Y260350D02*
D03*
Y271780D02*
D03*
X353060D02*
D03*
Y260350D02*
D03*
Y248920D02*
D03*
X342900Y271780D02*
D03*
Y248920D02*
D03*
Y260350D02*
D03*
X337820Y236220D02*
D03*
X342900Y165100D02*
D03*
X441000Y250000D02*
D03*
X377190Y356870D02*
D03*
X361950D02*
D03*
M02*
