G04*
G04 #@! TF.GenerationSoftware,Altium Limited,Altium Designer,24.0.1 (36)*
G04*
G04 Layer_Physical_Order=3*
G04 Layer_Color=4660084*
%FSLAX44Y44*%
%MOMM*%
G71*
G04*
G04 #@! TF.SameCoordinates,4C79C2C8-5DE3-4804-94A9-F395A3FC2A11*
G04*
G04*
G04 #@! TF.FilePolarity,Negative*
G04*
G01*
G75*
%ADD78C,1.0160*%
%ADD79C,1.1432*%
G04:AMPARAMS|DCode=80|XSize=1.7432mm|YSize=1.7432mm|CornerRadius=0mm|HoleSize=0mm|Usage=FLASHONLY|Rotation=0.000|XOffset=0mm|YOffset=0mm|HoleType=Round|Shape=Relief|Width=0.1016mm|Gap=0.1016mm|Entries=4|*
%AMTHD80*
7,0,0,1.7432,1.5400,0.1016,45*
%
%ADD80THD80*%
%ADD81C,3.5032*%
G04:AMPARAMS|DCode=82|XSize=2.4232mm|YSize=2.4232mm|CornerRadius=0mm|HoleSize=0mm|Usage=FLASHONLY|Rotation=0.000|XOffset=0mm|YOffset=0mm|HoleType=Round|Shape=Relief|Width=0.1016mm|Gap=0.1016mm|Entries=4|*
%AMTHD82*
7,0,0,2.4232,2.2200,0.1016,45*
%
%ADD82THD82*%
%ADD83C,1.2932*%
%ADD84C,0.5032*%
%ADD85C,1.2192*%
G04:AMPARAMS|DCode=86|XSize=1.8192mm|YSize=1.8192mm|CornerRadius=0mm|HoleSize=0mm|Usage=FLASHONLY|Rotation=0.000|XOffset=0mm|YOffset=0mm|HoleType=Round|Shape=Relief|Width=0.1016mm|Gap=0.1016mm|Entries=4|*
%AMTHD86*
7,0,0,1.8192,1.6160,0.1016,45*
%
%ADD86THD86*%
%AMTHOVALD87*
21,1,0.2500,1.4032,0,0,0.0*
1,1,1.4032,-0.1250,0.0000*
1,1,1.4032,0.1250,0.0000*
21,0,0.2500,1.2000,0,0,0.0*
1,0,1.2000,-0.1250,0.0000*
1,0,1.2000,0.1250,0.0000*
4,0,4,-0.0891,-0.0359,-0.5852,-0.5320,-0.6570,-0.4602,-0.1609,0.0359,-0.0891,-0.0359,0.0*
4,0,4,0.1609,-0.0359,0.6570,0.4602,0.5852,0.5320,0.0891,0.0359,0.1609,-0.0359,0.0*
4,0,4,-0.1609,-0.0359,-0.6570,0.4602,-0.5852,0.5320,-0.0891,0.0359,-0.1609,-0.0359,0.0*
4,0,4,0.0891,-0.0359,0.5852,-0.5320,0.6570,-0.4602,0.1609,0.0359,0.0891,-0.0359,0.0*
%
%ADD87THOVALD87*%

%ADD88C,0.7232*%
%ADD89C,3.6032*%
%ADD90C,0.5080*%
D78*
X698500Y660400D02*
G03*
X673100Y685800I-25400J0D01*
G01*
X-12700D02*
G03*
X-38100Y660400I0J-25400D01*
G01*
Y-12700D02*
G03*
X-12700Y-38100I25400J0D01*
G01*
X673100D02*
G03*
X698500Y-12700I0J25400D01*
G01*
Y660400D01*
X-12700Y685800D02*
X673100D01*
X-38100Y-12700D02*
Y660400D01*
X-12700Y-38100D02*
X673100D01*
D79*
X95250Y510550D02*
D03*
X105410Y535950D02*
D03*
X74930Y510550D02*
D03*
X54610D02*
D03*
X64770Y535950D02*
D03*
X34290Y510550D02*
D03*
D80*
X85090Y535950D02*
D03*
X44450D02*
D03*
D81*
X6350Y501650D02*
D03*
X133350D02*
D03*
D82*
X-11450Y544050D02*
D03*
X151150D02*
D03*
D83*
X1250Y559920D02*
D03*
X24150D02*
D03*
X138450D02*
D03*
X115550D02*
D03*
D84*
X614680Y551370D02*
D03*
Y543370D02*
D03*
X318200Y99060D02*
D03*
X310200D02*
D03*
X198200Y190D02*
D03*
X182200Y0D02*
D03*
X190200D02*
D03*
X147320Y-13970D02*
D03*
X318200Y190D02*
D03*
X310200D02*
D03*
X363220Y280670D02*
D03*
X480060Y223520D02*
D03*
X422200Y46170D02*
D03*
X446200Y46170D02*
D03*
X470200Y46170D02*
D03*
X190200Y55430D02*
D03*
X310200Y55430D02*
D03*
X132080Y274320D02*
D03*
X304800Y299720D02*
D03*
X320040Y203200D02*
D03*
X311150D02*
D03*
X293370D02*
D03*
X302260D02*
D03*
X515620Y199390D02*
D03*
Y190500D02*
D03*
Y172720D02*
D03*
Y181610D02*
D03*
X528320Y457200D02*
D03*
X528320Y137160D02*
D03*
X414020Y193040D02*
D03*
X416560Y200315D02*
D03*
X426720Y205740D02*
D03*
Y218440D02*
D03*
X222250Y195580D02*
D03*
X231140D02*
D03*
X240030D02*
D03*
X257810D02*
D03*
X248920D02*
D03*
X266700D02*
D03*
X275590D02*
D03*
X381000Y480060D02*
D03*
X368300D02*
D03*
X330200Y488950D02*
D03*
X505460Y228600D02*
D03*
X474980Y233640D02*
D03*
X83820Y482600D02*
D03*
X92710D02*
D03*
X101600Y248920D02*
D03*
X358140Y436880D02*
D03*
X93980Y279400D02*
D03*
X358140Y421640D02*
D03*
X83820Y279400D02*
D03*
X132080Y539750D02*
D03*
X96520Y43180D02*
D03*
X105410D02*
D03*
X473710Y590078D02*
D03*
X466090Y586740D02*
D03*
X541020Y581660D02*
D03*
X149860Y63500D02*
D03*
X139700Y68580D02*
D03*
X123190Y43180D02*
D03*
X462200Y101600D02*
D03*
X470200D02*
D03*
X478200D02*
D03*
X297180Y292100D02*
D03*
X198200Y55430D02*
D03*
X140970Y43180D02*
D03*
X132080D02*
D03*
X114300D02*
D03*
X182200Y55430D02*
D03*
X478200Y46170D02*
D03*
X462200D02*
D03*
X69850Y57150D02*
D03*
X82191Y57509D02*
D03*
X57150Y57150D02*
D03*
X502920Y660400D02*
D03*
X513080D02*
D03*
X320040Y284480D02*
D03*
X287020Y292100D02*
D03*
X330200Y284480D02*
D03*
X601980Y581660D02*
D03*
X528000Y629000D02*
D03*
X488000D02*
D03*
X337820Y236220D02*
D03*
D85*
X647700Y279400D02*
D03*
Y254000D02*
D03*
Y228600D02*
D03*
Y203200D02*
D03*
Y177800D02*
D03*
Y152400D02*
D03*
Y127000D02*
D03*
Y101600D02*
D03*
Y76200D02*
D03*
X673100Y381000D02*
D03*
Y355600D02*
D03*
Y330200D02*
D03*
Y304800D02*
D03*
Y279400D02*
D03*
Y254000D02*
D03*
Y228600D02*
D03*
Y203200D02*
D03*
Y177800D02*
D03*
Y152400D02*
D03*
Y127000D02*
D03*
Y101600D02*
D03*
Y76200D02*
D03*
Y50800D02*
D03*
X647700Y355600D02*
D03*
Y330200D02*
D03*
Y304800D02*
D03*
X222250Y527050D02*
D03*
X196850D02*
D03*
Y495300D02*
D03*
X222250D02*
D03*
D86*
X647700Y50800D02*
D03*
Y381000D02*
D03*
D87*
X532000Y607150D02*
D03*
Y650150D02*
D03*
X484000Y607150D02*
D03*
Y650150D02*
D03*
D88*
X545500Y628650D02*
D03*
X470500D02*
D03*
D89*
X660400Y647700D02*
D03*
X0D02*
D03*
Y0D02*
D03*
X660400D02*
D03*
X0Y431800D02*
D03*
X660400D02*
D03*
D90*
X556260Y467360D02*
D03*
X607060Y365760D02*
D03*
Y162560D02*
D03*
X556260Y60960D02*
D03*
X505460Y162560D02*
D03*
X403860Y568960D02*
D03*
X353060Y467360D02*
D03*
X403860Y365760D02*
D03*
X251460Y467360D02*
D03*
X200660Y568960D02*
D03*
Y162560D02*
D03*
X99060Y568960D02*
D03*
X48260Y467360D02*
D03*
X99060Y365760D02*
D03*
Y162560D02*
D03*
M02*
