G04*
G04 #@! TF.GenerationSoftware,Altium Limited,Altium Designer,24.0.1 (36)*
G04*
G04 Layer_Color=32896*
%FSLAX44Y44*%
%MOMM*%
G71*
G04*
G04 #@! TF.SameCoordinates,4C79C2C8-5DE3-4804-94A9-F395A3FC2A11*
G04*
G04*
G04 #@! TF.FilePolarity,Positive*
G04*
G01*
G75*
%ADD10C,0.2000*%
%ADD11C,0.2540*%
%ADD12C,0.1270*%
D10*
X487200Y8800D02*
G03*
X487200Y8800I-1000J0D01*
G01*
D11*
X623996Y374652D02*
X632460D01*
X623996Y383116D01*
Y385232D01*
X626112Y387348D01*
X630344D01*
X632460Y385232D01*
X619764Y376768D02*
X617648Y374652D01*
X613416D01*
X611300Y376768D01*
Y385232D01*
X613416Y387348D01*
X617648D01*
X619764Y385232D01*
Y383116D01*
X617648Y381000D01*
X611300D01*
X583356Y385232D02*
X585472Y387348D01*
X589704D01*
X591820Y385232D01*
Y376768D01*
X589704Y374652D01*
X585472D01*
X583356Y376768D01*
Y381000D01*
X587588D01*
X579124Y374652D02*
Y387348D01*
X570660Y374652D01*
Y387348D01*
X566428D02*
Y374652D01*
X560080D01*
X557964Y376768D01*
Y385232D01*
X560080Y387348D01*
X566428D01*
X583356Y349252D02*
X591820D01*
X583356Y357716D01*
Y359832D01*
X585472Y361948D01*
X589704D01*
X591820Y359832D01*
X579124D02*
X577008Y361948D01*
X572776D01*
X570660Y359832D01*
Y357716D01*
X572776Y355600D01*
X570660Y353484D01*
Y351368D01*
X572776Y349252D01*
X577008D01*
X579124Y351368D01*
Y353484D01*
X577008Y355600D01*
X579124Y357716D01*
Y359832D01*
X577008Y355600D02*
X572776D01*
X583356Y323852D02*
X591820D01*
X583356Y332316D01*
Y334432D01*
X585472Y336548D01*
X589704D01*
X591820Y334432D01*
X570660Y336548D02*
X574892Y334432D01*
X579124Y330200D01*
Y325968D01*
X577008Y323852D01*
X572776D01*
X570660Y325968D01*
Y328084D01*
X572776Y330200D01*
X579124D01*
X623996Y349252D02*
X632460D01*
X623996Y357716D01*
Y359832D01*
X626112Y361948D01*
X630344D01*
X632460Y359832D01*
X619764Y361948D02*
X611300D01*
Y359832D01*
X619764Y351368D01*
Y349252D01*
X623996Y323852D02*
X632460D01*
X623996Y332316D01*
Y334432D01*
X626112Y336548D01*
X630344D01*
X632460Y334432D01*
X611300Y336548D02*
X619764D01*
Y330200D01*
X615532Y332316D01*
X613416D01*
X611300Y330200D01*
Y325968D01*
X613416Y323852D01*
X617648D01*
X619764Y325968D01*
X583356Y298452D02*
X591820D01*
X583356Y306916D01*
Y309032D01*
X585472Y311148D01*
X589704D01*
X591820Y309032D01*
X572776Y298452D02*
Y311148D01*
X579124Y304800D01*
X570660D01*
X583356Y273052D02*
X591820D01*
X583356Y281516D01*
Y283632D01*
X585472Y285748D01*
X589704D01*
X591820Y283632D01*
X570660Y273052D02*
X579124D01*
X570660Y281516D01*
Y283632D01*
X572776Y285748D01*
X577008D01*
X579124Y283632D01*
X623996Y298452D02*
X632460D01*
X623996Y306916D01*
Y309032D01*
X626112Y311148D01*
X630344D01*
X632460Y309032D01*
X619764D02*
X617648Y311148D01*
X613416D01*
X611300Y309032D01*
Y306916D01*
X613416Y304800D01*
X615532D01*
X613416D01*
X611300Y302684D01*
Y300568D01*
X613416Y298452D01*
X617648D01*
X619764Y300568D01*
X623996Y273052D02*
X632460D01*
X623996Y281516D01*
Y283632D01*
X626112Y285748D01*
X630344D01*
X632460Y283632D01*
X619764Y273052D02*
X615532D01*
X617648D01*
Y285748D01*
X619764Y283632D01*
X632460Y222252D02*
X628228D01*
X630344D01*
Y234948D01*
X632460Y232832D01*
X621880Y234948D02*
X613416D01*
Y232832D01*
X621880Y224368D01*
Y222252D01*
X632460Y247652D02*
X628228D01*
X630344D01*
Y260348D01*
X632460Y258232D01*
X621880Y249768D02*
X619764Y247652D01*
X615532D01*
X613416Y249768D01*
Y258232D01*
X615532Y260348D01*
X619764D01*
X621880Y258232D01*
Y256116D01*
X619764Y254000D01*
X613416D01*
X591820Y222252D02*
X587588D01*
X589704D01*
Y234948D01*
X591820Y232832D01*
X581240D02*
X579124Y234948D01*
X574892D01*
X572776Y232832D01*
Y230716D01*
X574892Y228600D01*
X572776Y226484D01*
Y224368D01*
X574892Y222252D01*
X579124D01*
X581240Y224368D01*
Y226484D01*
X579124Y228600D01*
X581240Y230716D01*
Y232832D01*
X579124Y228600D02*
X574892D01*
X583356Y247652D02*
X591820D01*
X583356Y256116D01*
Y258232D01*
X585472Y260348D01*
X589704D01*
X591820Y258232D01*
X579124D02*
X577008Y260348D01*
X572776D01*
X570660Y258232D01*
Y249768D01*
X572776Y247652D01*
X577008D01*
X579124Y249768D01*
Y258232D01*
X632460Y171452D02*
X628228D01*
X630344D01*
Y184148D01*
X632460Y182032D01*
X621880D02*
X619764Y184148D01*
X615532D01*
X613416Y182032D01*
Y179916D01*
X615532Y177800D01*
X617648D01*
X615532D01*
X613416Y175684D01*
Y173568D01*
X615532Y171452D01*
X619764D01*
X621880Y173568D01*
X632460Y196852D02*
X628228D01*
X630344D01*
Y209548D01*
X632460Y207432D01*
X613416Y209548D02*
X621880D01*
Y203200D01*
X617648Y205316D01*
X615532D01*
X613416Y203200D01*
Y198968D01*
X615532Y196852D01*
X619764D01*
X621880Y198968D01*
X591820Y171452D02*
X587588D01*
X589704D01*
Y184148D01*
X591820Y182032D01*
X574892Y171452D02*
Y184148D01*
X581240Y177800D01*
X572776D01*
X591820Y196852D02*
X587588D01*
X589704D01*
Y209548D01*
X591820Y207432D01*
X572776Y209548D02*
X577008Y207432D01*
X581240Y203200D01*
Y198968D01*
X579124Y196852D01*
X574892D01*
X572776Y198968D01*
Y201084D01*
X574892Y203200D01*
X581240D01*
X591820Y146052D02*
X587588D01*
X589704D01*
Y158748D01*
X591820Y156632D01*
X572776Y146052D02*
X581240D01*
X572776Y154516D01*
Y156632D01*
X574892Y158748D01*
X579124D01*
X581240Y156632D01*
X591820Y120652D02*
X587588D01*
X589704D01*
Y133348D01*
X591820Y131232D01*
X581240D02*
X579124Y133348D01*
X574892D01*
X572776Y131232D01*
Y122768D01*
X574892Y120652D01*
X579124D01*
X581240Y122768D01*
Y131232D01*
X632460Y146052D02*
X628228D01*
X630344D01*
Y158748D01*
X632460Y156632D01*
X621880Y146052D02*
X617648D01*
X619764D01*
Y158748D01*
X621880Y156632D01*
X632460Y122768D02*
X630344Y120652D01*
X626112D01*
X623996Y122768D01*
Y131232D01*
X626112Y133348D01*
X630344D01*
X632460Y131232D01*
Y129116D01*
X630344Y127000D01*
X623996D01*
X632460Y53764D02*
X630344Y55880D01*
X626112D01*
X623996Y53764D01*
Y51648D01*
X626112Y49532D01*
X628228D01*
X626112D01*
X623996Y47416D01*
Y45300D01*
X626112Y43184D01*
X630344D01*
X632460Y45300D01*
X619764Y55880D02*
Y47416D01*
X615532Y43184D01*
X611300Y47416D01*
Y55880D01*
X607068Y53764D02*
X604952Y55880D01*
X600720D01*
X598604Y53764D01*
Y51648D01*
X600720Y49532D01*
X602836D01*
X600720D01*
X598604Y47416D01*
Y45300D01*
X600720Y43184D01*
X604952D01*
X607068Y45300D01*
X583356Y53764D02*
X585472Y55880D01*
X589704D01*
X591820Y53764D01*
Y45300D01*
X589704Y43184D01*
X585472D01*
X583356Y45300D01*
Y49532D01*
X587588D01*
X579124Y43184D02*
Y55880D01*
X570660Y43184D01*
Y55880D01*
X566428D02*
Y43184D01*
X560080D01*
X557964Y45300D01*
Y53764D01*
X560080Y55880D01*
X566428D01*
X623996Y82548D02*
X632460D01*
Y76200D01*
X628228Y78316D01*
X626112D01*
X623996Y76200D01*
Y71968D01*
X626112Y69852D01*
X630344D01*
X632460Y71968D01*
X583356Y82548D02*
X587588Y80432D01*
X591820Y76200D01*
Y71968D01*
X589704Y69852D01*
X585472D01*
X583356Y71968D01*
Y74084D01*
X585472Y76200D01*
X591820D01*
X632460Y107948D02*
X623996D01*
Y105832D01*
X632460Y97368D01*
Y95252D01*
X591820Y105832D02*
X589704Y107948D01*
X585472D01*
X583356Y105832D01*
Y103716D01*
X585472Y101600D01*
X583356Y99484D01*
Y97368D01*
X585472Y95252D01*
X589704D01*
X591820Y97368D01*
Y99484D01*
X589704Y101600D01*
X591820Y103716D01*
Y105832D01*
X589704Y101600D02*
X585472D01*
X156213Y108453D02*
X161292D01*
X158752D01*
Y95757D01*
X161292Y93218D01*
X163831D01*
X166370Y95757D01*
X140978Y93218D02*
X151135D01*
X140978Y103375D01*
Y105914D01*
X143517Y108453D01*
X148596D01*
X151135Y105914D01*
D12*
X141200Y20800D02*
X168500D01*
X491900D02*
X519200D01*
Y41600D01*
Y60000D02*
Y80800D01*
X141200D02*
X168500D01*
X491900D02*
X519200D01*
X141200Y20800D02*
Y80800D01*
M02*
