G04*
G04 #@! TF.GenerationSoftware,Altium Limited,Altium Designer,24.0.1 (36)*
G04*
G04 Layer_Physical_Order=4*
G04 Layer_Color=16711680*
%FSLAX44Y44*%
%MOMM*%
G71*
G04*
G04 #@! TF.SameCoordinates,4C79C2C8-5DE3-4804-94A9-F395A3FC2A11*
G04*
G04*
G04 #@! TF.FilePolarity,Positive*
G04*
G01*
G75*
%ADD11C,0.2540*%
%ADD12C,0.1270*%
%ADD14R,0.5000X2.0000*%
%ADD30C,1.5240*%
%ADD65C,0.1524*%
%ADD66C,0.1016*%
%ADD67C,0.5080*%
%ADD68C,1.4480*%
%ADD69R,1.4480X1.4480*%
%ADD70C,3.3000*%
%ADD71C,2.1280*%
%ADD72C,1.4400*%
%ADD73C,0.4524*%
%ADD74O,2.2000X1.1000*%
%ADD75C,0.5200*%
%ADD76C,5.0800*%
%ADD77C,0.4572*%
G36*
X677606Y683054D02*
X681939Y681740D01*
X685933Y679605D01*
X689433Y676733D01*
X692306Y673233D01*
X694440Y669239D01*
X695754Y664906D01*
X696189Y660498D01*
X696169Y660400D01*
Y-12700D01*
X696189Y-12797D01*
X695754Y-17206D01*
X694440Y-21539D01*
X692306Y-25533D01*
X689433Y-29033D01*
X685933Y-31906D01*
X681939Y-34040D01*
X677606Y-35354D01*
X673197Y-35789D01*
X673100Y-35769D01*
X-12700D01*
X-12797Y-35789D01*
X-17206Y-35354D01*
X-21539Y-34040D01*
X-25533Y-31906D01*
X-29033Y-29033D01*
X-31906Y-25533D01*
X-34040Y-21539D01*
X-35354Y-17206D01*
X-35789Y-12797D01*
X-35769Y-12700D01*
Y660400D01*
X-35789Y660498D01*
X-35354Y664906D01*
X-34040Y669239D01*
X-31906Y673233D01*
X-29033Y676733D01*
X-25533Y679605D01*
X-21539Y681740D01*
X-17206Y683054D01*
X-12797Y683489D01*
X-12700Y683469D01*
X673100D01*
X673197Y683489D01*
X677606Y683054D01*
D02*
G37*
%LPC*%
G36*
X513876Y664400D02*
X512284D01*
X510814Y663791D01*
X509689Y662666D01*
X509080Y661196D01*
Y659604D01*
X509255Y659183D01*
X509228Y659112D01*
X508000Y657884D01*
X506772Y659112D01*
X506745Y659183D01*
X506920Y659604D01*
Y661196D01*
X506311Y662666D01*
X505186Y663791D01*
X503716Y664400D01*
X502124D01*
X500654Y663791D01*
X499529Y662666D01*
X498920Y661196D01*
Y659604D01*
X499529Y658134D01*
X500654Y657009D01*
X502124Y656400D01*
X503716D01*
X503913Y656482D01*
X504917Y655695D01*
Y597651D01*
X500899Y593633D01*
X493511D01*
X487836Y599308D01*
X487837Y599366D01*
X488228Y600578D01*
X489500D01*
X491201Y600802D01*
X492786Y601458D01*
X494147Y602503D01*
X495192Y603864D01*
X495848Y605449D01*
X496072Y607150D01*
X495848Y608851D01*
X495192Y610436D01*
X494147Y611797D01*
X492786Y612842D01*
X491201Y613498D01*
X489500Y613722D01*
X478500D01*
X476799Y613498D01*
X475214Y612842D01*
X473853Y611797D01*
X472808Y610436D01*
X472152Y608851D01*
X471928Y607150D01*
X472152Y605449D01*
X472808Y603864D01*
X473853Y602503D01*
X475214Y601458D01*
X476025Y601122D01*
X475773Y599852D01*
X467324D01*
X466631Y599714D01*
X466042Y599321D01*
X463662Y596941D01*
X463269Y596353D01*
X463131Y595659D01*
Y592146D01*
X463269Y591452D01*
X463361Y591314D01*
X463824Y590131D01*
X462699Y589006D01*
X462090Y587536D01*
Y585944D01*
X462699Y584474D01*
X462892Y584281D01*
X462366Y583011D01*
X390565D01*
X380108Y593468D01*
X379352Y593973D01*
X378460Y594151D01*
X322580D01*
X321688Y593973D01*
X320932Y593468D01*
X273134Y545670D01*
X272629Y544914D01*
X272451Y544022D01*
Y532633D01*
X231549Y491731D01*
X230410Y492388D01*
X230886Y494163D01*
Y496437D01*
X230298Y498633D01*
X229160Y500603D01*
X227553Y502211D01*
X225583Y503348D01*
X223387Y503936D01*
X221113D01*
X218917Y503348D01*
X216947Y502211D01*
X215340Y500603D01*
X214202Y498633D01*
X213614Y496437D01*
Y494163D01*
X214202Y491967D01*
X215340Y489997D01*
X216947Y488390D01*
X218917Y487253D01*
X221113Y486664D01*
X223387D01*
X225162Y487140D01*
X225819Y486001D01*
X220058Y480240D01*
X156599D01*
X155707Y480062D01*
X154951Y479557D01*
X112652Y437258D01*
X112147Y436502D01*
X111969Y435610D01*
Y262585D01*
X102309Y252925D01*
X102296Y252920D01*
X100804D01*
X99334Y252311D01*
X98209Y251186D01*
X97600Y249716D01*
Y248124D01*
X98209Y246654D01*
X99334Y245529D01*
X100804Y244920D01*
X102396D01*
X103866Y245529D01*
X104991Y246654D01*
X105600Y248124D01*
Y249616D01*
X105605Y249629D01*
X115948Y259972D01*
X116453Y260728D01*
X116631Y261620D01*
Y434645D01*
X157564Y475578D01*
X221023D01*
X221915Y475756D01*
X222672Y476261D01*
X276430Y530020D01*
X276936Y530776D01*
X277113Y531668D01*
Y543057D01*
X323545Y589489D01*
X377495D01*
X387952Y579032D01*
X388708Y578527D01*
X389600Y578349D01*
X511745D01*
X512637Y578527D01*
X513393Y579032D01*
X519750Y585389D01*
X537296D01*
X537822Y584119D01*
X537629Y583926D01*
X537020Y582456D01*
Y580864D01*
X537629Y579394D01*
X538754Y578269D01*
X540224Y577660D01*
X541816D01*
X543286Y578269D01*
X544411Y579394D01*
X545020Y580864D01*
Y582456D01*
X544411Y583926D01*
X544218Y584119D01*
X544744Y585389D01*
X565984D01*
X571362Y580012D01*
X572118Y579507D01*
X573010Y579329D01*
X598647D01*
X598659Y579324D01*
X599714Y578269D01*
X601184Y577660D01*
X602776D01*
X604246Y578269D01*
X605371Y579394D01*
X605980Y580864D01*
Y582456D01*
X605371Y583926D01*
X604246Y585051D01*
X602776Y585660D01*
X601284D01*
X601271Y585665D01*
X568828Y618108D01*
X568072Y618613D01*
X567180Y618791D01*
X541505D01*
X532005Y628291D01*
X532000Y628304D01*
Y629796D01*
X531391Y631266D01*
X530266Y632391D01*
X528796Y633000D01*
X527204D01*
X525734Y632391D01*
X524609Y631266D01*
X524000Y629796D01*
Y628204D01*
X524609Y626734D01*
X525734Y625609D01*
X527204Y625000D01*
X528696D01*
X528709Y624995D01*
X538892Y614812D01*
X538418Y613601D01*
X537500Y613722D01*
X526500D01*
X524799Y613498D01*
X523214Y612842D01*
X521853Y611797D01*
X520808Y610436D01*
X520152Y608851D01*
X519928Y607150D01*
X520152Y605449D01*
X520808Y603864D01*
X521853Y602503D01*
X523214Y601458D01*
X524799Y600802D01*
X526500Y600578D01*
X537500D01*
X539201Y600802D01*
X540786Y601458D01*
X542147Y602503D01*
X543192Y603864D01*
X543848Y605449D01*
X544072Y607150D01*
X543848Y608851D01*
X543192Y610436D01*
X542147Y611797D01*
X540786Y612842D01*
X540744Y612859D01*
X540996Y614129D01*
X566215D01*
X595180Y585164D01*
X594694Y583991D01*
X573975D01*
X568598Y589368D01*
X567842Y589873D01*
X566950Y590051D01*
X518785D01*
X517893Y589873D01*
X517137Y589368D01*
X510779Y583011D01*
X469814D01*
X469288Y584281D01*
X469481Y584474D01*
X470090Y585944D01*
Y586245D01*
X471360Y586771D01*
X471444Y586687D01*
X472914Y586078D01*
X474506D01*
X475976Y586687D01*
X477101Y587812D01*
X477710Y589282D01*
Y590874D01*
X477101Y592344D01*
X477028Y592417D01*
X477554Y593687D01*
X484738D01*
X490426Y587998D01*
X491014Y587605D01*
X491708Y587467D01*
X502702D01*
X503396Y587605D01*
X503984Y587998D01*
X510552Y594566D01*
X510945Y595154D01*
X511083Y595848D01*
Y655695D01*
X512087Y656482D01*
X512284Y656400D01*
X513876D01*
X515346Y657009D01*
X516471Y658134D01*
X517080Y659604D01*
Y661196D01*
X516471Y662666D01*
X515346Y663791D01*
X513876Y664400D01*
D02*
G37*
G36*
X570335Y655036D02*
X568744D01*
X567274Y654427D01*
X566148Y653301D01*
X565540Y651831D01*
Y650240D01*
X566148Y648770D01*
X567274Y647645D01*
X568744Y647036D01*
X570335D01*
X571805Y647645D01*
X572930Y648770D01*
X573539Y650240D01*
Y651831D01*
X572930Y653301D01*
X571805Y654427D01*
X570335Y655036D01*
D02*
G37*
G36*
X537500Y656722D02*
X526500D01*
X524799Y656498D01*
X523214Y655842D01*
X521853Y654797D01*
X520808Y653436D01*
X520152Y651851D01*
X519928Y650150D01*
X520152Y648449D01*
X520808Y646864D01*
X521853Y645503D01*
X523214Y644458D01*
X524799Y643802D01*
X526500Y643578D01*
X537500D01*
X539201Y643802D01*
X540786Y644458D01*
X542147Y645503D01*
X543192Y646864D01*
X543848Y648449D01*
X544072Y650150D01*
X543848Y651851D01*
X543192Y653436D01*
X542147Y654797D01*
X540786Y655842D01*
X539201Y656498D01*
X537500Y656722D01*
D02*
G37*
G36*
X489500D02*
X478500D01*
X476799Y656498D01*
X475214Y655842D01*
X473853Y654797D01*
X472808Y653436D01*
X472152Y651851D01*
X471928Y650150D01*
X472152Y648449D01*
X472808Y646864D01*
X473853Y645503D01*
X475214Y644458D01*
X476799Y643802D01*
X478500Y643578D01*
X489500D01*
X491201Y643802D01*
X492786Y644458D01*
X494147Y645503D01*
X495192Y646864D01*
X495848Y648449D01*
X496072Y650150D01*
X495848Y651851D01*
X495192Y653436D01*
X494147Y654797D01*
X492786Y655842D01*
X491201Y656498D01*
X489500Y656722D01*
D02*
G37*
G36*
X488796Y633000D02*
X487204D01*
X485734Y632391D01*
X484609Y631266D01*
X484000Y629796D01*
Y628204D01*
X484609Y626734D01*
X485734Y625609D01*
X487204Y625000D01*
X488796D01*
X490266Y625609D01*
X491391Y626734D01*
X492000Y628204D01*
Y629796D01*
X491391Y631266D01*
X490266Y632391D01*
X488796Y633000D01*
D02*
G37*
G36*
X546515Y633750D02*
X544486D01*
X542611Y632974D01*
X541176Y631539D01*
X540400Y629664D01*
Y627635D01*
X541176Y625761D01*
X542611Y624326D01*
X544486Y623550D01*
X546515D01*
X548389Y624326D01*
X549824Y625761D01*
X550600Y627635D01*
Y629664D01*
X549824Y631539D01*
X548389Y632974D01*
X546515Y633750D01*
D02*
G37*
G36*
X471514D02*
X469486D01*
X467611Y632974D01*
X466176Y631539D01*
X465400Y629664D01*
Y627635D01*
X466176Y625761D01*
X467611Y624326D01*
X469486Y623550D01*
X471514D01*
X473389Y624326D01*
X474824Y625761D01*
X475600Y627635D01*
Y629664D01*
X474824Y631539D01*
X473389Y632974D01*
X471514Y633750D01*
D02*
G37*
G36*
X662479Y674116D02*
X658321D01*
X654214Y673466D01*
X650260Y672181D01*
X646555Y670293D01*
X643191Y667849D01*
X640251Y664909D01*
X637807Y661545D01*
X635919Y657840D01*
X634634Y653886D01*
X633984Y649779D01*
Y645621D01*
X634634Y641514D01*
X635919Y637560D01*
X637807Y633855D01*
X640251Y630491D01*
X643191Y627551D01*
X646555Y625107D01*
X650260Y623219D01*
X654214Y621934D01*
X658321Y621284D01*
X662479D01*
X666586Y621934D01*
X670540Y623219D01*
X674245Y625107D01*
X677609Y627551D01*
X680549Y630491D01*
X682993Y633855D01*
X684881Y637560D01*
X686166Y641514D01*
X686816Y645621D01*
Y649779D01*
X686166Y653886D01*
X684881Y657840D01*
X682993Y661545D01*
X680549Y664909D01*
X677609Y667849D01*
X674245Y670293D01*
X670540Y672181D01*
X666586Y673466D01*
X662479Y674116D01*
D02*
G37*
G36*
X2079D02*
X-2079D01*
X-6186Y673466D01*
X-10140Y672181D01*
X-13845Y670293D01*
X-17209Y667849D01*
X-20149Y664909D01*
X-22593Y661545D01*
X-24481Y657840D01*
X-25766Y653886D01*
X-26416Y649779D01*
Y645621D01*
X-25766Y641514D01*
X-24481Y637560D01*
X-22593Y633855D01*
X-20149Y630491D01*
X-17209Y627551D01*
X-13845Y625107D01*
X-10140Y623219D01*
X-6186Y621934D01*
X-2079Y621284D01*
X2079D01*
X6186Y621934D01*
X10140Y623219D01*
X13845Y625107D01*
X17209Y627551D01*
X20149Y630491D01*
X22593Y633855D01*
X24481Y637560D01*
X25766Y641514D01*
X26416Y645621D01*
Y649779D01*
X25766Y653886D01*
X24481Y657840D01*
X22593Y661545D01*
X20149Y664909D01*
X17209Y667849D01*
X13845Y670293D01*
X10140Y672181D01*
X6186Y673466D01*
X2079Y674116D01*
D02*
G37*
G36*
X447836Y611060D02*
X446244D01*
X444774Y610451D01*
X443649Y609326D01*
X443040Y607856D01*
Y606264D01*
X443649Y604794D01*
X444774Y603669D01*
X446244Y603060D01*
X447836D01*
X449306Y603669D01*
X450431Y604794D01*
X451040Y606264D01*
Y607856D01*
X450431Y609326D01*
X449306Y610451D01*
X447836Y611060D01*
D02*
G37*
G36*
X642150Y586954D02*
X640550D01*
X639071Y586341D01*
X637939Y585209D01*
X637326Y583730D01*
Y582130D01*
X637939Y580651D01*
X639071Y579519D01*
X640550Y578906D01*
X642150D01*
X643629Y579519D01*
X644761Y580651D01*
X645374Y582130D01*
Y583730D01*
X644761Y585209D01*
X643629Y586341D01*
X642150Y586954D01*
D02*
G37*
G36*
X286550D02*
X284950D01*
X283471Y586341D01*
X282339Y585209D01*
X281726Y583730D01*
Y582130D01*
X282339Y580651D01*
X283471Y579519D01*
X284950Y578906D01*
X286550D01*
X288029Y579519D01*
X289161Y580651D01*
X289774Y582130D01*
Y583730D01*
X289161Y585209D01*
X288029Y586341D01*
X286550Y586954D01*
D02*
G37*
G36*
X197650D02*
X196050D01*
X194571Y586341D01*
X193439Y585209D01*
X192826Y583730D01*
Y582130D01*
X193439Y580651D01*
X194571Y579519D01*
X196050Y578906D01*
X197650D01*
X199129Y579519D01*
X200261Y580651D01*
X200874Y582130D01*
Y583730D01*
X200261Y585209D01*
X199129Y586341D01*
X197650Y586954D01*
D02*
G37*
G36*
X108750D02*
X107150D01*
X105671Y586341D01*
X104539Y585209D01*
X103926Y583730D01*
Y582130D01*
X104539Y580651D01*
X105671Y579519D01*
X107150Y578906D01*
X108750D01*
X110229Y579519D01*
X111361Y580651D01*
X111974Y582130D01*
Y583730D01*
X111361Y585209D01*
X110229Y586341D01*
X108750Y586954D01*
D02*
G37*
G36*
X19850D02*
X18250D01*
X16771Y586341D01*
X15639Y585209D01*
X15026Y583730D01*
Y582130D01*
X15639Y580651D01*
X16771Y579519D01*
X18250Y578906D01*
X19850D01*
X21329Y579519D01*
X22461Y580651D01*
X23074Y582130D01*
Y583730D01*
X22461Y585209D01*
X21329Y586341D01*
X19850Y586954D01*
D02*
G37*
G36*
X369096Y581850D02*
X367504D01*
X366034Y581241D01*
X364909Y580116D01*
X364300Y578646D01*
Y577054D01*
X364909Y575584D01*
X366034Y574459D01*
X367504Y573850D01*
X369096D01*
X370566Y574459D01*
X371691Y575584D01*
X372300Y577054D01*
Y578646D01*
X371691Y580116D01*
X370566Y581241D01*
X369096Y581850D01*
D02*
G37*
G36*
X356396D02*
X354804D01*
X353334Y581241D01*
X352209Y580116D01*
X351600Y578646D01*
Y577054D01*
X352209Y575584D01*
X353334Y574459D01*
X354804Y573850D01*
X356396D01*
X357866Y574459D01*
X358991Y575584D01*
X359600Y577054D01*
Y578646D01*
X358991Y580116D01*
X357866Y581241D01*
X356396Y581850D01*
D02*
G37*
G36*
X343696D02*
X342104D01*
X340634Y581241D01*
X339509Y580116D01*
X338900Y578646D01*
Y577054D01*
X339509Y575584D01*
X340634Y574459D01*
X342104Y573850D01*
X343696D01*
X345166Y574459D01*
X346291Y575584D01*
X346900Y577054D01*
Y578646D01*
X346291Y580116D01*
X345166Y581241D01*
X343696Y581850D01*
D02*
G37*
G36*
X330996D02*
X329404D01*
X327934Y581241D01*
X326809Y580116D01*
X326200Y578646D01*
Y577054D01*
X326809Y575584D01*
X327934Y574459D01*
X329404Y573850D01*
X330996D01*
X332466Y574459D01*
X333591Y575584D01*
X334200Y577054D01*
Y578646D01*
X333591Y580116D01*
X332466Y581241D01*
X330996Y581850D01*
D02*
G37*
G36*
X2332Y568136D02*
X168D01*
X-1921Y567576D01*
X-3795Y566494D01*
X-5324Y564965D01*
X-6406Y563091D01*
X-6966Y561002D01*
Y558838D01*
X-6406Y556749D01*
X-5813Y555721D01*
X-6742Y554791D01*
X-6951Y554912D01*
X-9915Y555706D01*
X-12984D01*
X-15949Y554912D01*
X-18607Y553377D01*
X-20777Y551207D01*
X-22312Y548549D01*
X-23106Y545584D01*
Y542515D01*
X-22312Y539551D01*
X-20777Y536893D01*
X-18607Y534723D01*
X-15949Y533188D01*
X-12984Y532394D01*
X-9915D01*
X-6951Y533188D01*
X-4293Y534723D01*
X-2123Y536893D01*
X-588Y539551D01*
X206Y542515D01*
Y545584D01*
X-588Y548549D01*
X-1984Y550966D01*
X-1603Y551702D01*
X-1212Y552074D01*
X168Y551704D01*
X2332D01*
X4421Y552264D01*
X6295Y553346D01*
X7824Y554875D01*
X8906Y556749D01*
X9466Y558838D01*
Y561002D01*
X8906Y563091D01*
X7824Y564965D01*
X6295Y566494D01*
X4421Y567576D01*
X2332Y568136D01*
D02*
G37*
G36*
X116632D02*
X114468D01*
X112379Y567576D01*
X110505Y566494D01*
X108976Y564965D01*
X107894Y563091D01*
X107334Y561002D01*
Y558838D01*
X107894Y556749D01*
X108976Y554875D01*
X110505Y553346D01*
X112379Y552264D01*
X114468Y551704D01*
X116632D01*
X118721Y552264D01*
X120595Y553346D01*
X122124Y554875D01*
X123206Y556749D01*
X123766Y558838D01*
Y561002D01*
X123206Y563091D01*
X122124Y564965D01*
X120595Y566494D01*
X118721Y567576D01*
X116632Y568136D01*
D02*
G37*
G36*
X25232D02*
X23068D01*
X20979Y567576D01*
X19105Y566494D01*
X17576Y564965D01*
X16494Y563091D01*
X15934Y561002D01*
Y558838D01*
X16494Y556749D01*
X17576Y554875D01*
X19105Y553346D01*
X20979Y552264D01*
X23068Y551704D01*
X25232D01*
X27321Y552264D01*
X29195Y553346D01*
X30724Y554875D01*
X31806Y556749D01*
X32366Y558838D01*
Y561002D01*
X31806Y563091D01*
X30724Y564965D01*
X29195Y566494D01*
X27321Y567576D01*
X25232Y568136D01*
D02*
G37*
G36*
X673896Y557720D02*
X672304D01*
X670834Y557111D01*
X669709Y555986D01*
X669100Y554516D01*
Y552924D01*
X669709Y551454D01*
X670834Y550329D01*
X672304Y549720D01*
X673896D01*
X675366Y550329D01*
X676491Y551454D01*
X677100Y552924D01*
Y554516D01*
X676491Y555986D01*
X675366Y557111D01*
X673896Y557720D01*
D02*
G37*
G36*
X557056D02*
X555464D01*
X553994Y557111D01*
X552869Y555986D01*
X552260Y554516D01*
Y552924D01*
X552869Y551454D01*
X553994Y550329D01*
X555464Y549720D01*
X557056D01*
X558526Y550329D01*
X559651Y551454D01*
X560260Y552924D01*
Y554516D01*
X559651Y555986D01*
X558526Y557111D01*
X557056Y557720D01*
D02*
G37*
G36*
X615476Y555370D02*
X613884D01*
X612414Y554761D01*
X611289Y553636D01*
X610680Y552166D01*
Y550574D01*
X611289Y549104D01*
X612303Y548090D01*
X612363Y547370D01*
X612303Y546650D01*
X611289Y545636D01*
X610680Y544166D01*
Y542574D01*
X611289Y541104D01*
X612414Y539979D01*
X613884Y539370D01*
X615476D01*
X616946Y539979D01*
X618071Y541104D01*
X618680Y542574D01*
Y544166D01*
X618071Y545636D01*
X617057Y546650D01*
X616997Y547370D01*
X617057Y548090D01*
X618071Y549104D01*
X618680Y550574D01*
Y552166D01*
X618071Y553636D01*
X616946Y554761D01*
X615476Y555370D01*
D02*
G37*
G36*
X661196Y543750D02*
X659604D01*
X658134Y543141D01*
X657009Y542016D01*
X656400Y540546D01*
Y538954D01*
X657009Y537484D01*
X658134Y536359D01*
X659604Y535750D01*
X661196D01*
X662666Y536359D01*
X663791Y537484D01*
X664400Y538954D01*
Y540546D01*
X663791Y542016D01*
X662666Y543141D01*
X661196Y543750D01*
D02*
G37*
G36*
X595156D02*
X593564D01*
X592094Y543141D01*
X590969Y542016D01*
X590360Y540546D01*
Y538954D01*
X590969Y537484D01*
X592094Y536359D01*
X593564Y535750D01*
X595156D01*
X596626Y536359D01*
X597751Y537484D01*
X598360Y538954D01*
Y540546D01*
X597751Y542016D01*
X596626Y543141D01*
X595156Y543750D01*
D02*
G37*
G36*
X569756D02*
X568164D01*
X566694Y543141D01*
X565569Y542016D01*
X564960Y540546D01*
Y538954D01*
X565569Y537484D01*
X566694Y536359D01*
X568164Y535750D01*
X569756D01*
X571226Y536359D01*
X572351Y537484D01*
X572960Y538954D01*
Y540546D01*
X572351Y542016D01*
X571226Y543141D01*
X569756Y543750D01*
D02*
G37*
G36*
X139532Y568136D02*
X137368D01*
X135279Y567576D01*
X133405Y566494D01*
X131876Y564965D01*
X130794Y563091D01*
X130234Y561002D01*
Y560057D01*
X130151Y559865D01*
X130116Y557623D01*
X129967Y555798D01*
X129855Y555060D01*
X129718Y554421D01*
X129563Y553894D01*
X129397Y553486D01*
X129236Y553200D01*
X129022Y552937D01*
X128995Y552845D01*
X123270Y547120D01*
X122905Y546574D01*
X122777Y545930D01*
Y531557D01*
X108030Y516810D01*
X107665Y516264D01*
X107537Y515620D01*
Y510488D01*
X104202Y507154D01*
X103063Y507811D01*
X103506Y509463D01*
Y511637D01*
X102943Y513737D01*
X101856Y515619D01*
X100319Y517156D01*
X98437Y518243D01*
X96337Y518806D01*
X94163D01*
X92063Y518243D01*
X90181Y517156D01*
X88644Y515619D01*
X87557Y513737D01*
X86994Y511637D01*
Y509463D01*
X87557Y507363D01*
X88644Y505481D01*
X90181Y503944D01*
X92063Y502857D01*
X94163Y502294D01*
X96337D01*
X97989Y502737D01*
X98646Y501598D01*
X83648Y486600D01*
X83024D01*
X81554Y485991D01*
X80429Y484866D01*
X79820Y483396D01*
Y481804D01*
X80429Y480334D01*
X81554Y479209D01*
X83024Y478600D01*
X84616D01*
X86086Y479209D01*
X87211Y480334D01*
X87578Y481219D01*
X88952D01*
X89319Y480334D01*
X90444Y479209D01*
X91914Y478600D01*
X93506D01*
X94976Y479209D01*
X96101Y480334D01*
X96710Y481804D01*
Y483396D01*
X96101Y484866D01*
X94976Y485991D01*
X94764Y486079D01*
X94590Y487392D01*
X113635Y506437D01*
X114806Y505812D01*
X114350Y503521D01*
Y499779D01*
X115080Y496108D01*
X116512Y492650D01*
X118592Y489538D01*
X121238Y486892D01*
X124350Y484812D01*
X127808Y483380D01*
X131479Y482650D01*
X135221D01*
X138523Y483307D01*
X139161Y482149D01*
X132372Y475360D01*
X82093D01*
X80927Y474876D01*
X78844Y472793D01*
X78360Y471627D01*
Y295616D01*
X78844Y294449D01*
X85980Y287312D01*
Y283978D01*
X84924Y283272D01*
X84616Y283400D01*
X83024D01*
X81554Y282791D01*
X80429Y281666D01*
X79820Y280196D01*
Y278604D01*
X80429Y277134D01*
X81554Y276009D01*
X83024Y275400D01*
X84616D01*
X85489Y274387D01*
Y272617D01*
X85972Y271451D01*
X87250Y270172D01*
Y148473D01*
X85980Y148221D01*
X85941Y148316D01*
X84816Y149441D01*
X83346Y150050D01*
X81754D01*
X80284Y149441D01*
X79159Y148316D01*
X78550Y146846D01*
Y145254D01*
X79159Y143784D01*
X80284Y142659D01*
X81754Y142050D01*
X83346D01*
X84816Y142659D01*
X85941Y143784D01*
X85980Y143879D01*
X87250Y143627D01*
Y59065D01*
X85980Y58813D01*
X85582Y59775D01*
X84457Y60900D01*
X82986Y61509D01*
X81395D01*
X79925Y60900D01*
X78800Y59775D01*
X78191Y58305D01*
Y56714D01*
X78708Y55465D01*
X78260Y54782D01*
X77862Y54441D01*
X76996Y54800D01*
X75404D01*
X74400Y54384D01*
X73434Y55350D01*
X73850Y56354D01*
Y57946D01*
X73241Y59416D01*
X72116Y60541D01*
X70646Y61150D01*
X69054D01*
X67584Y60541D01*
X66459Y59416D01*
X65850Y57946D01*
Y56354D01*
X66266Y55350D01*
X65300Y54384D01*
X64296Y54800D01*
X62704D01*
X61700Y54384D01*
X60734Y55350D01*
X61150Y56354D01*
Y57946D01*
X60541Y59416D01*
X59416Y60541D01*
X57946Y61150D01*
X56354D01*
X54884Y60541D01*
X53759Y59416D01*
X53150Y57946D01*
Y56354D01*
X53566Y55350D01*
X52600Y54384D01*
X51596Y54800D01*
X50004D01*
X48534Y54191D01*
X47409Y53066D01*
X46800Y51596D01*
Y50004D01*
X47409Y48534D01*
X48534Y47409D01*
X50004Y46800D01*
X51596D01*
X53066Y47409D01*
X53549Y47892D01*
X54819Y47366D01*
Y40242D01*
X54997Y39350D01*
X55502Y38593D01*
X126223Y-32128D01*
X126980Y-32633D01*
X127872Y-32811D01*
X377973D01*
X378865Y-32633D01*
X379621Y-32128D01*
X415848Y4099D01*
X416353Y4855D01*
X416531Y5747D01*
Y16176D01*
X416569Y16263D01*
X416581Y16714D01*
X417156Y17784D01*
X419244D01*
X419819Y16714D01*
X419831Y16263D01*
X419869Y16176D01*
Y14763D01*
X419864Y14751D01*
X418809Y13696D01*
X418200Y12226D01*
Y10634D01*
X418809Y9164D01*
X419934Y8039D01*
X421404Y7430D01*
X422995D01*
X424466Y8039D01*
X425591Y9164D01*
X426200Y10634D01*
Y12226D01*
X425591Y13696D01*
X424536Y14750D01*
X424531Y14763D01*
Y16176D01*
X424569Y16263D01*
X424581Y16714D01*
X425156Y17784D01*
X426684D01*
X426986Y17784D01*
X433414D01*
X433716Y17784D01*
X435244D01*
X435819Y16714D01*
X435831Y16263D01*
X435869Y16176D01*
Y14763D01*
X435864Y14751D01*
X434809Y13696D01*
X434200Y12226D01*
Y10634D01*
X434809Y9164D01*
X435934Y8039D01*
X437404Y7430D01*
X438996D01*
X440466Y8039D01*
X441591Y9164D01*
X442200Y10634D01*
Y12226D01*
X441591Y13696D01*
X440536Y14750D01*
X440531Y14763D01*
Y16176D01*
X440569Y16263D01*
X440581Y16714D01*
X441156Y17784D01*
X441585Y17784D01*
X442986Y17784D01*
X449414D01*
X449716Y17784D01*
X451244D01*
X451819Y16714D01*
X451831Y16263D01*
X451869Y16176D01*
Y14763D01*
X451864Y14751D01*
X450809Y13696D01*
X450200Y12226D01*
Y10634D01*
X450809Y9164D01*
X451934Y8039D01*
X453404Y7430D01*
X454996D01*
X456466Y8039D01*
X457591Y9164D01*
X458200Y10634D01*
Y12226D01*
X457591Y13696D01*
X456536Y14750D01*
X456531Y14763D01*
Y16176D01*
X456569Y16263D01*
X456581Y16714D01*
X457156Y17784D01*
X458684Y17784D01*
X458986Y17784D01*
X465716D01*
Y17784D01*
X466684D01*
Y17784D01*
X473414D01*
X473716Y17784D01*
X474684D01*
X474986Y17784D01*
X481414D01*
X481716Y17784D01*
X483244D01*
X483819Y16714D01*
X483831Y16263D01*
X483869Y16176D01*
Y14763D01*
X483864Y14751D01*
X482809Y13696D01*
X482200Y12226D01*
Y10634D01*
X482809Y9164D01*
X483934Y8039D01*
X485404Y7430D01*
X486996D01*
X488466Y8039D01*
X489591Y9164D01*
X490200Y10634D01*
Y12226D01*
X489591Y13696D01*
X488536Y14751D01*
X488531Y14763D01*
Y16176D01*
X488569Y16263D01*
X488581Y16714D01*
X489156Y17784D01*
X489157D01*
Y17784D01*
X489716Y17784D01*
X489769Y18830D01*
X489759Y18856D01*
X489762Y18952D01*
X489716Y19037D01*
Y39816D01*
X482986D01*
X482684Y39816D01*
X481156D01*
X480581Y40886D01*
X480569Y41337D01*
X480531Y41424D01*
Y42837D01*
X480536Y42849D01*
X481591Y43904D01*
X482200Y45374D01*
Y46966D01*
X481591Y48436D01*
X480466Y49561D01*
X478996Y50170D01*
X477404D01*
X475934Y49561D01*
X474920Y48547D01*
X474200Y48487D01*
X473480Y48547D01*
X472466Y49561D01*
X470996Y50170D01*
X469404D01*
X467934Y49561D01*
X466920Y48547D01*
X466200Y48487D01*
X465480Y48547D01*
X464466Y49561D01*
X462996Y50170D01*
X461404D01*
X459934Y49561D01*
X458809Y48436D01*
X458200Y46966D01*
Y45374D01*
X458809Y43904D01*
X459864Y42849D01*
X459869Y42837D01*
Y41424D01*
X459831Y41337D01*
X459819Y40886D01*
X459244Y39816D01*
X457716Y39816D01*
X457414Y39816D01*
X450986D01*
X450684Y39816D01*
X449156D01*
X448581Y40886D01*
X448569Y41337D01*
X448531Y41424D01*
Y42837D01*
X448536Y42849D01*
X449591Y43904D01*
X450200Y45374D01*
Y46966D01*
X449591Y48436D01*
X448466Y49561D01*
X446996Y50170D01*
X445404D01*
X443934Y49561D01*
X442809Y48436D01*
X442200Y46966D01*
Y45374D01*
X442809Y43904D01*
X443864Y42849D01*
X443869Y42837D01*
Y41424D01*
X443831Y41337D01*
X443819Y40886D01*
X443244Y39816D01*
X442815Y39816D01*
X441414Y39816D01*
X434986D01*
X434684Y39816D01*
X433156D01*
X432581Y40886D01*
X432569Y41337D01*
X432531Y41424D01*
Y46740D01*
X432353Y47632D01*
X431848Y48388D01*
X425248Y54988D01*
X424492Y55493D01*
X423600Y55671D01*
X365760D01*
X364868Y55493D01*
X364112Y54988D01*
X359715Y50591D01*
X312288D01*
X312035Y51861D01*
X312466Y52039D01*
X313591Y53164D01*
X314200Y54634D01*
Y56226D01*
X313591Y57696D01*
X312466Y58821D01*
X310995Y59430D01*
X309404D01*
X307934Y58821D01*
X306809Y57696D01*
X306200Y56226D01*
Y54634D01*
X306809Y53164D01*
X307934Y52039D01*
X308364Y51861D01*
X308111Y50591D01*
X200288D01*
X200036Y51861D01*
X200466Y52039D01*
X201591Y53164D01*
X202200Y54634D01*
Y56226D01*
X201591Y57696D01*
X200536Y58751D01*
X200531Y58763D01*
Y60176D01*
X200569Y60263D01*
X200581Y60714D01*
X201156Y61784D01*
X202684Y61784D01*
X202986Y61784D01*
X209414D01*
X209716Y61784D01*
X210684D01*
X210986Y61784D01*
X217414D01*
X217716Y61784D01*
X218986Y61784D01*
X225414D01*
X225716Y61784D01*
X226684D01*
X226986Y61784D01*
X233414D01*
X233716Y61784D01*
X234684D01*
X234986Y61784D01*
X241414D01*
X241716Y61784D01*
X242684D01*
X242986Y61784D01*
X249414D01*
X250684Y61784D01*
X250986Y61784D01*
X257414D01*
X257716Y61784D01*
X258684D01*
X258986Y61784D01*
X265414D01*
X265716Y61784D01*
X266986Y61784D01*
X273414D01*
X273716Y61784D01*
X274684D01*
X274986Y61784D01*
X281414D01*
X281716Y61784D01*
X282684D01*
X282986Y61784D01*
X289414D01*
X289716Y61784D01*
X290684D01*
X290986Y61784D01*
X297414D01*
X297716Y61784D01*
X298684D01*
X298986Y61784D01*
X305414D01*
X305716Y61784D01*
X306684D01*
X306986Y61784D01*
X313414D01*
X313716Y61784D01*
X314684D01*
X314986Y61784D01*
X321414D01*
X321716Y61784D01*
X322684D01*
X322986Y61784D01*
X329414D01*
X329716Y61784D01*
X330684D01*
X330986Y61784D01*
X337414D01*
X337716Y61784D01*
X338684D01*
X338986Y61784D01*
X345414D01*
X345716Y61784D01*
X346684D01*
X346986Y61784D01*
X353414D01*
X353716Y61784D01*
X354684D01*
X354986Y61784D01*
X361414D01*
X361716Y61784D01*
X362684D01*
X362986Y61784D01*
X369414D01*
X369716Y61784D01*
X370684D01*
X370986Y61784D01*
X377414D01*
X377716Y61784D01*
X378684D01*
X378986Y61784D01*
X385716D01*
Y61784D01*
X386684D01*
Y61784D01*
X393716D01*
Y61784D01*
X394684Y61784D01*
Y61784D01*
X401716D01*
Y61784D01*
X402684D01*
Y61784D01*
X409414D01*
X409716Y61784D01*
X410986Y61784D01*
X417716D01*
Y61784D01*
X418684D01*
Y61784D01*
X425716D01*
Y61784D01*
X426684D01*
Y61784D01*
X433716D01*
Y61784D01*
X434684D01*
Y61784D01*
X441716D01*
Y61784D01*
X442684Y61784D01*
Y61784D01*
X449414D01*
X449716Y61784D01*
X450684D01*
X450986Y61784D01*
X457414D01*
X457716Y61784D01*
X458986Y61784D01*
X465414D01*
X465716Y61784D01*
X466684D01*
X466986Y61784D01*
X473414D01*
X473716Y61784D01*
X474684D01*
X474986Y61784D01*
X481414D01*
X481716Y61784D01*
X482684D01*
X482986Y61784D01*
X489716D01*
Y82546D01*
X489716Y82563D01*
X489762Y82648D01*
X489759Y82744D01*
X489769Y82769D01*
X489716Y83816D01*
X489157D01*
Y83816D01*
X489156D01*
X488581Y84886D01*
X488569Y85337D01*
X488531Y85424D01*
Y86837D01*
X488536Y86849D01*
X489591Y87904D01*
X490200Y89374D01*
Y90966D01*
X489591Y92436D01*
X488466Y93561D01*
X486996Y94170D01*
X485404D01*
X483934Y93561D01*
X482809Y92436D01*
X482200Y90966D01*
Y89374D01*
X482809Y87904D01*
X483864Y86849D01*
X483869Y86837D01*
Y85424D01*
X483831Y85337D01*
X483819Y84886D01*
X483244Y83816D01*
X481156D01*
X480581Y84886D01*
X480569Y85337D01*
X480531Y85424D01*
Y98267D01*
X480536Y98279D01*
X481591Y99334D01*
X482200Y100804D01*
Y102396D01*
X481591Y103866D01*
X480466Y104991D01*
X478996Y105600D01*
X477405D01*
X475934Y104991D01*
X474920Y103977D01*
X474200Y103917D01*
X473480Y103977D01*
X472466Y104991D01*
X470996Y105600D01*
X469404D01*
X467934Y104991D01*
X466920Y103977D01*
X466200Y103917D01*
X465480Y103977D01*
X464466Y104991D01*
X462996Y105600D01*
X461404D01*
X459934Y104991D01*
X458809Y103866D01*
X458200Y102396D01*
Y100804D01*
X458809Y99334D01*
X459864Y98279D01*
X459869Y98267D01*
Y85424D01*
X459831Y85337D01*
X459819Y84886D01*
X459244Y83816D01*
X457156Y83816D01*
X456581Y84886D01*
X456569Y85337D01*
X456531Y85424D01*
Y86837D01*
X456536Y86849D01*
X457591Y87904D01*
X458200Y89374D01*
Y90966D01*
X457591Y92436D01*
X456466Y93561D01*
X454996Y94170D01*
X453404D01*
X451934Y93561D01*
X450809Y92436D01*
X450200Y90966D01*
Y89374D01*
X450809Y87904D01*
X451864Y86849D01*
X451869Y86837D01*
Y85424D01*
X451831Y85337D01*
X451819Y84886D01*
X451244Y83816D01*
X449156D01*
X448581Y84886D01*
X448569Y85337D01*
X448531Y85424D01*
Y90740D01*
X448353Y91632D01*
X447848Y92388D01*
X412354Y127882D01*
X412906Y129127D01*
X465393D01*
X504270Y90250D01*
X504816Y89885D01*
X505460Y89757D01*
X612713D01*
X640160Y62310D01*
X640706Y61945D01*
X641350Y61817D01*
X660400D01*
X661044Y61945D01*
X661590Y62310D01*
X665548Y66267D01*
X665639Y66294D01*
X665916Y66519D01*
X666223Y66691D01*
X666661Y66865D01*
X667225Y67029D01*
X667908Y67172D01*
X668688Y67288D01*
X671793Y67478D01*
X673026Y67481D01*
X673226Y67564D01*
X674237D01*
X676433Y68152D01*
X678403Y69289D01*
X680011Y70897D01*
X681148Y72867D01*
X681736Y75063D01*
Y77337D01*
X681148Y79533D01*
X680011Y81503D01*
X678403Y83111D01*
X676433Y84248D01*
X674237Y84836D01*
X671963D01*
X669767Y84248D01*
X667797Y83111D01*
X666189Y81503D01*
X665052Y79533D01*
X664464Y77337D01*
Y76333D01*
X664381Y76140D01*
X664345Y73747D01*
X664190Y71798D01*
X664072Y71008D01*
X663929Y70324D01*
X663765Y69761D01*
X663590Y69323D01*
X663419Y69016D01*
X663194Y68739D01*
X663167Y68648D01*
X659703Y65183D01*
X642047D01*
X614934Y92297D01*
X615406Y93567D01*
X627953D01*
X637767Y83752D01*
X637794Y83661D01*
X638019Y83384D01*
X638190Y83077D01*
X638365Y82639D01*
X638529Y82076D01*
X638672Y81392D01*
X638788Y80612D01*
X638978Y77507D01*
X638981Y76274D01*
X639064Y76074D01*
Y75063D01*
X639652Y72867D01*
X640789Y70897D01*
X642397Y69289D01*
X644367Y68152D01*
X646563Y67564D01*
X648837D01*
X651033Y68152D01*
X653003Y69289D01*
X654611Y70897D01*
X655748Y72867D01*
X656336Y75063D01*
Y77337D01*
X655748Y79533D01*
X654611Y81503D01*
X653003Y83111D01*
X651033Y84248D01*
X648837Y84836D01*
X647833D01*
X647640Y84919D01*
X645247Y84955D01*
X643298Y85110D01*
X642508Y85228D01*
X641824Y85371D01*
X641261Y85535D01*
X641046Y85621D01*
X640830Y86025D01*
X641100Y86644D01*
X641776Y87217D01*
X660400D01*
X661044Y87345D01*
X661590Y87710D01*
X665548Y91667D01*
X665639Y91694D01*
X665916Y91919D01*
X666223Y92091D01*
X666661Y92265D01*
X667225Y92429D01*
X667908Y92572D01*
X668688Y92688D01*
X671793Y92878D01*
X673026Y92881D01*
X673226Y92964D01*
X674237D01*
X676433Y93553D01*
X678403Y94690D01*
X680011Y96297D01*
X681148Y98267D01*
X681736Y100463D01*
Y102737D01*
X681148Y104933D01*
X680011Y106903D01*
X678403Y108511D01*
X676433Y109648D01*
X674237Y110236D01*
X671963D01*
X669767Y109648D01*
X667797Y108511D01*
X666189Y106903D01*
X665052Y104933D01*
X664464Y102737D01*
Y101733D01*
X664381Y101540D01*
X664345Y99147D01*
X664190Y97198D01*
X664072Y96408D01*
X663929Y95724D01*
X663765Y95161D01*
X663590Y94723D01*
X663419Y94416D01*
X663194Y94139D01*
X663167Y94048D01*
X659703Y90583D01*
X642047D01*
X632714Y99917D01*
X633186Y101187D01*
X635293D01*
X635350Y101151D01*
X635390Y101160D01*
X635425Y101141D01*
X635824Y101101D01*
X636167Y101002D01*
X636568Y100817D01*
X637023Y100533D01*
X637524Y100145D01*
X638065Y99652D01*
X638632Y99061D01*
X639889Y97525D01*
X640554Y96604D01*
X640645Y96548D01*
X640789Y96297D01*
X642397Y94690D01*
X644367Y93553D01*
X646563Y92964D01*
X648837D01*
X651033Y93553D01*
X653003Y94690D01*
X654611Y96297D01*
X655748Y98267D01*
X656336Y100463D01*
Y102737D01*
X655748Y104933D01*
X654611Y106903D01*
X653003Y108511D01*
X651033Y109648D01*
X648837Y110236D01*
X646563D01*
X644367Y109648D01*
X642714Y108693D01*
X642590Y108665D01*
X640430Y107143D01*
X638638Y105978D01*
X637204Y105161D01*
X636653Y104896D01*
X636207Y104718D01*
X635897Y104629D01*
X635622Y104597D01*
X635543Y104553D01*
X620794D01*
X620322Y105823D01*
X626326Y111828D01*
X659611D01*
X660255Y111956D01*
X660801Y112321D01*
X665548Y117067D01*
X665639Y117094D01*
X665916Y117319D01*
X666223Y117491D01*
X666661Y117665D01*
X667225Y117829D01*
X667908Y117972D01*
X668688Y118088D01*
X671793Y118278D01*
X673026Y118281D01*
X673226Y118364D01*
X674237D01*
X676433Y118953D01*
X678403Y120090D01*
X680011Y121697D01*
X681148Y123667D01*
X681736Y125863D01*
Y128137D01*
X681148Y130333D01*
X680011Y132303D01*
X678403Y133911D01*
X676433Y135048D01*
X674237Y135636D01*
X671963D01*
X669767Y135048D01*
X667797Y133911D01*
X666189Y132303D01*
X665052Y130333D01*
X664464Y128137D01*
Y127133D01*
X664381Y126940D01*
X664345Y124547D01*
X664190Y122598D01*
X664072Y121808D01*
X663929Y121124D01*
X663765Y120561D01*
X663590Y120123D01*
X663419Y119816D01*
X663194Y119539D01*
X663167Y119448D01*
X658914Y115194D01*
X626101D01*
X625536Y116426D01*
X634427Y125317D01*
X635336D01*
X635420Y125271D01*
X635774Y125234D01*
X636113Y125138D01*
X636546Y124953D01*
X637060Y124670D01*
X637646Y124287D01*
X638279Y123818D01*
X640609Y121757D01*
X641482Y120887D01*
X641683Y120804D01*
X642397Y120090D01*
X644367Y118953D01*
X646563Y118364D01*
X648837D01*
X651033Y118953D01*
X653003Y120090D01*
X654611Y121697D01*
X655748Y123667D01*
X656336Y125863D01*
Y128137D01*
X655748Y130333D01*
X654611Y132303D01*
X653003Y133911D01*
X651033Y135048D01*
X648837Y135636D01*
X646563D01*
X644367Y135048D01*
X642397Y133911D01*
X641687Y133201D01*
X641492Y133123D01*
X639775Y131456D01*
X638287Y130188D01*
X637646Y129713D01*
X637060Y129330D01*
X636546Y129047D01*
X636113Y128862D01*
X635774Y128766D01*
X635420Y128729D01*
X635375Y128705D01*
X634143Y128812D01*
X633637Y129915D01*
X641739Y138017D01*
X660400D01*
X661044Y138145D01*
X661590Y138510D01*
X665548Y142467D01*
X665639Y142494D01*
X665916Y142719D01*
X666223Y142891D01*
X666661Y143065D01*
X667225Y143229D01*
X667908Y143372D01*
X668688Y143488D01*
X671793Y143678D01*
X673026Y143681D01*
X673226Y143764D01*
X674237D01*
X676433Y144353D01*
X678403Y145490D01*
X680011Y147097D01*
X681148Y149067D01*
X681736Y151263D01*
Y153537D01*
X681148Y155733D01*
X680011Y157703D01*
X678403Y159311D01*
X676433Y160448D01*
X674237Y161036D01*
X671963D01*
X669767Y160448D01*
X667797Y159311D01*
X666189Y157703D01*
X665052Y155733D01*
X664464Y153537D01*
Y152533D01*
X664381Y152340D01*
X664345Y149947D01*
X664190Y147998D01*
X664072Y147208D01*
X663929Y146524D01*
X663765Y145961D01*
X663590Y145523D01*
X663419Y145216D01*
X663194Y144939D01*
X663167Y144848D01*
X659703Y141383D01*
X641042D01*
X640398Y141255D01*
X639852Y140890D01*
X614945Y115983D01*
X515626D01*
X476749Y154860D01*
X476203Y155225D01*
X475559Y155353D01*
X422582D01*
X417360Y160575D01*
X416814Y160940D01*
X416170Y161068D01*
X364101D01*
X363575Y162338D01*
X364071Y162834D01*
X364680Y164304D01*
Y165896D01*
X364071Y167366D01*
X362946Y168491D01*
X362932Y168497D01*
X363185Y169767D01*
X409461D01*
X411853Y167375D01*
X412399Y167010D01*
X413043Y166882D01*
X417537D01*
X418181Y167010D01*
X418727Y167375D01*
X421119Y169767D01*
X449615D01*
X449868Y168497D01*
X449854Y168491D01*
X448729Y167366D01*
X448120Y165896D01*
Y164304D01*
X448729Y162834D01*
X449854Y161709D01*
X451324Y161100D01*
X452916D01*
X454386Y161709D01*
X455511Y162834D01*
X456120Y164304D01*
Y165896D01*
X455511Y167366D01*
X454386Y168491D01*
X454343Y168509D01*
X454326Y169272D01*
X454524Y169808D01*
X454959Y169895D01*
X455505Y170260D01*
X465172Y179927D01*
X506033D01*
X511822Y174137D01*
X511848Y174066D01*
X511620Y173516D01*
Y171924D01*
X512229Y170454D01*
X513354Y169329D01*
X514824Y168720D01*
X516416D01*
X517886Y169329D01*
X519011Y170454D01*
X519620Y171924D01*
Y173516D01*
X519011Y174986D01*
X517886Y176111D01*
X517001Y176478D01*
Y177852D01*
X517886Y178219D01*
X519011Y179344D01*
X519620Y180814D01*
Y182406D01*
X519011Y183876D01*
X517886Y185001D01*
X517001Y185368D01*
Y186742D01*
X517886Y187109D01*
X519011Y188234D01*
X519620Y189704D01*
Y191296D01*
X519011Y192766D01*
X517886Y193891D01*
X517001Y194258D01*
Y195632D01*
X517886Y195999D01*
X519011Y197124D01*
X519620Y198594D01*
Y200186D01*
X519011Y201656D01*
X517886Y202781D01*
X516416Y203390D01*
X514824D01*
X513354Y202781D01*
X512229Y201656D01*
X511620Y200186D01*
Y198594D01*
X511848Y198044D01*
X511822Y197973D01*
X508573Y194723D01*
X459740D01*
X459096Y194595D01*
X458550Y194230D01*
X448883Y184563D01*
X425546D01*
X421884Y188225D01*
X421338Y188590D01*
X420693Y188718D01*
X417105D01*
X416625Y189988D01*
X417411Y190774D01*
X418020Y192244D01*
Y193836D01*
X417495Y195103D01*
X417459Y195417D01*
X417951Y196562D01*
X418826Y196924D01*
X419951Y198049D01*
X420179Y198599D01*
X420247Y198632D01*
X466643D01*
X467287Y198760D01*
X467833Y199125D01*
X502177Y233468D01*
X503480Y233082D01*
X503582Y232749D01*
X503565Y232145D01*
X503194Y231991D01*
X502069Y230866D01*
X501460Y229396D01*
Y227804D01*
X502069Y226334D01*
X503194Y225209D01*
X504664Y224600D01*
X506256D01*
X507726Y225209D01*
X508851Y226334D01*
X509460Y227804D01*
Y229396D01*
X508851Y230866D01*
X507726Y231991D01*
X507176Y232219D01*
X507143Y232288D01*
Y431800D01*
X507015Y432444D01*
X506650Y432990D01*
X449500Y490140D01*
X448954Y490505D01*
X448310Y490633D01*
X423054D01*
X422575Y491903D01*
X423124Y493230D01*
Y494830D01*
X422511Y496309D01*
X421379Y497441D01*
X419900Y498054D01*
X418300D01*
X416821Y497441D01*
X415689Y496309D01*
X415076Y494830D01*
Y493230D01*
X415625Y491903D01*
X415146Y490633D01*
X333887D01*
X333819Y490666D01*
X333591Y491216D01*
X332466Y492341D01*
X330996Y492950D01*
X329404D01*
X327934Y492341D01*
X326809Y491216D01*
X326200Y489746D01*
Y488154D01*
X326809Y486684D01*
X327934Y485559D01*
X329404Y484950D01*
X330996D01*
X332466Y485559D01*
X333591Y486684D01*
X333819Y487234D01*
X333887Y487267D01*
X409484D01*
X409956Y485997D01*
X403163Y479203D01*
X385041D01*
X385000Y479264D01*
Y480856D01*
X384391Y482326D01*
X383266Y483451D01*
X381796Y484060D01*
X380204D01*
X378734Y483451D01*
X377609Y482326D01*
X377000Y480856D01*
Y479264D01*
X377609Y477794D01*
X378734Y476669D01*
X378748Y476663D01*
X378495Y475393D01*
X375347D01*
X372098Y478643D01*
X372072Y478714D01*
X372300Y479264D01*
Y480856D01*
X371691Y482326D01*
X370566Y483451D01*
X369096Y484060D01*
X367504D01*
X366034Y483451D01*
X364909Y482326D01*
X364300Y480856D01*
Y479264D01*
X364909Y477794D01*
X366034Y476669D01*
X367504Y476060D01*
X369096D01*
X369646Y476288D01*
X369717Y476262D01*
X373460Y472520D01*
X374006Y472155D01*
X374650Y472027D01*
X405438D01*
X406082Y472155D01*
X406628Y472520D01*
X413755Y479647D01*
X444456D01*
X496157Y427946D01*
Y235442D01*
X468138Y207423D01*
X430407D01*
X430339Y207456D01*
X430111Y208006D01*
X428986Y209131D01*
X427516Y209740D01*
X425924D01*
X424454Y209131D01*
X423329Y208006D01*
X422720Y206536D01*
Y204944D01*
X423329Y203474D01*
X423535Y203268D01*
X423009Y201998D01*
X420247D01*
X420179Y202031D01*
X419951Y202581D01*
X418826Y203706D01*
X417356Y204315D01*
X415764D01*
X414294Y203706D01*
X413169Y202581D01*
X412560Y201111D01*
Y199519D01*
X413085Y198252D01*
X413121Y197938D01*
X412629Y196793D01*
X411754Y196431D01*
X411112Y195789D01*
X369490Y237410D01*
X368944Y237775D01*
X368300Y237903D01*
X341507D01*
X341439Y237936D01*
X341211Y238486D01*
X340086Y239611D01*
X338616Y240220D01*
X337024D01*
X335554Y239611D01*
X334429Y238486D01*
X334062Y237601D01*
X332688D01*
X332321Y238486D01*
X331196Y239611D01*
X329726Y240220D01*
X328134D01*
X326664Y239611D01*
X325539Y238486D01*
X324930Y237016D01*
Y235424D01*
X325539Y233954D01*
X326664Y232829D01*
X328134Y232220D01*
X329726D01*
X331196Y232829D01*
X332321Y233954D01*
X332688Y234839D01*
X334062D01*
X334429Y233954D01*
X335554Y232829D01*
X337024Y232220D01*
X338616D01*
X340086Y232829D01*
X341211Y233954D01*
X341439Y234504D01*
X341507Y234537D01*
X367603D01*
X410108Y192031D01*
X410629Y190774D01*
X411754Y189649D01*
X412432Y189368D01*
X412585Y189063D01*
X412675Y187893D01*
X409345Y184563D01*
X341057D01*
X323838Y201783D01*
X323812Y201854D01*
X324040Y202404D01*
Y203996D01*
X323431Y205466D01*
X322306Y206591D01*
X320836Y207200D01*
X319244D01*
X317774Y206591D01*
X316649Y205466D01*
X316282Y204581D01*
X314908D01*
X314541Y205466D01*
X313416Y206591D01*
X311946Y207200D01*
X310354D01*
X308884Y206591D01*
X307759Y205466D01*
X307392Y204581D01*
X306018D01*
X305651Y205466D01*
X304526Y206591D01*
X303056Y207200D01*
X301464D01*
X299994Y206591D01*
X298869Y205466D01*
X298502Y204581D01*
X297128D01*
X296761Y205466D01*
X295636Y206591D01*
X294166Y207200D01*
X292574D01*
X291104Y206591D01*
X289979Y205466D01*
X289370Y203996D01*
Y202404D01*
X289979Y200934D01*
X291104Y199809D01*
X292574Y199200D01*
X294166D01*
X294716Y199428D01*
X294787Y199402D01*
X323930Y170260D01*
X324476Y169895D01*
X325120Y169767D01*
X340395D01*
X340648Y168497D01*
X340634Y168491D01*
X339509Y167366D01*
X338900Y165896D01*
Y164304D01*
X339509Y162834D01*
X340005Y162338D01*
X339479Y161068D01*
X270572D01*
X262033Y169607D01*
Y179643D01*
X274173Y191782D01*
X274244Y191808D01*
X274794Y191580D01*
X276386D01*
X277856Y192189D01*
X278981Y193314D01*
X279590Y194784D01*
Y196376D01*
X278981Y197846D01*
X277856Y198971D01*
X276386Y199580D01*
X274794D01*
X273324Y198971D01*
X272199Y197846D01*
X271832Y196961D01*
X270458D01*
X270091Y197846D01*
X268966Y198971D01*
X267496Y199580D01*
X265904D01*
X264434Y198971D01*
X263309Y197846D01*
X262942Y196961D01*
X261568D01*
X261201Y197846D01*
X260076Y198971D01*
X258606Y199580D01*
X257014D01*
X255544Y198971D01*
X254419Y197846D01*
X254052Y196961D01*
X252678D01*
X252311Y197846D01*
X251186Y198971D01*
X249716Y199580D01*
X248124D01*
X246654Y198971D01*
X245529Y197846D01*
X245162Y196961D01*
X243788D01*
X243421Y197846D01*
X242296Y198971D01*
X240826Y199580D01*
X239234D01*
X237764Y198971D01*
X236639Y197846D01*
X236272Y196961D01*
X234898D01*
X234531Y197846D01*
X233406Y198971D01*
X231936Y199580D01*
X230344D01*
X228874Y198971D01*
X227749Y197846D01*
X227382Y196961D01*
X226008D01*
X225641Y197846D01*
X224516Y198971D01*
X223046Y199580D01*
X221454D01*
X219984Y198971D01*
X218859Y197846D01*
X218250Y196376D01*
Y194784D01*
X218859Y193314D01*
X219984Y192189D01*
X221454Y191580D01*
X223046D01*
X223596Y191808D01*
X223667Y191782D01*
X235807Y179643D01*
Y159441D01*
X235935Y158797D01*
X236300Y158251D01*
X258870Y135681D01*
X258380Y134411D01*
X244768D01*
X244242Y135681D01*
X244711Y136151D01*
X245324Y137630D01*
Y139230D01*
X244711Y140709D01*
X243579Y141841D01*
X242100Y142454D01*
X240500D01*
X239021Y141841D01*
X237889Y140709D01*
X237276Y139230D01*
Y137630D01*
X237889Y136151D01*
X238358Y135681D01*
X237832Y134411D01*
X155868D01*
X155342Y135681D01*
X155811Y136151D01*
X156424Y137630D01*
Y139230D01*
X155811Y140709D01*
X154679Y141841D01*
X153200Y142454D01*
X151600D01*
X150121Y141841D01*
X148989Y140709D01*
X148376Y139230D01*
Y137630D01*
X148989Y136151D01*
X149458Y135681D01*
X148932Y134411D01*
X124734D01*
X123842Y134233D01*
X123086Y133728D01*
X104397Y115039D01*
X103892Y114283D01*
X103714Y113391D01*
Y53670D01*
X97229Y47185D01*
X97216Y47180D01*
X95724D01*
X94360Y46615D01*
X93821Y46806D01*
X93090Y47203D01*
Y271907D01*
X92606Y273074D01*
X91939Y273741D01*
X92002Y274561D01*
X93184Y275400D01*
X94776D01*
X96246Y276009D01*
X97371Y277134D01*
X97980Y278604D01*
Y280196D01*
X97371Y281666D01*
X96246Y282791D01*
X94776Y283400D01*
X93184D01*
X92876Y283272D01*
X91820Y283978D01*
Y289048D01*
X91336Y290214D01*
X84200Y297351D01*
Y469520D01*
X134107D01*
X135274Y470004D01*
X173525Y508255D01*
X194523D01*
X195127Y506985D01*
X195116Y506950D01*
X194926Y506527D01*
X194635Y506017D01*
X194240Y505430D01*
X193755Y504789D01*
X191633Y502416D01*
X190738Y501519D01*
X190655Y501318D01*
X189939Y500603D01*
X188803Y498633D01*
X188214Y496437D01*
Y494163D01*
X188803Y491967D01*
X189939Y489997D01*
X191547Y488390D01*
X193517Y487253D01*
X195713Y486664D01*
X197987D01*
X200183Y487253D01*
X202153Y488390D01*
X203761Y489997D01*
X204897Y491967D01*
X205486Y494163D01*
Y496437D01*
X204897Y498633D01*
X203761Y500603D01*
X203050Y501313D01*
X202972Y501509D01*
X201257Y503269D01*
X199951Y504782D01*
X199460Y505430D01*
X199065Y506017D01*
X198774Y506527D01*
X198584Y506950D01*
X198500Y507230D01*
Y509310D01*
X198016Y510476D01*
X197498Y511175D01*
X198016Y511874D01*
X198500Y513040D01*
Y515120D01*
X198584Y515400D01*
X198774Y515823D01*
X199065Y516333D01*
X199460Y516920D01*
X199945Y517561D01*
X202067Y519934D01*
X202962Y520831D01*
X203045Y521032D01*
X203761Y521747D01*
X204897Y523717D01*
X205486Y525913D01*
Y528187D01*
X204897Y530383D01*
X203761Y532353D01*
X202153Y533960D01*
X200183Y535098D01*
X197987Y535686D01*
X195713D01*
X193517Y535098D01*
X191547Y533960D01*
X189939Y532353D01*
X188803Y530383D01*
X188214Y528187D01*
Y525913D01*
X188803Y523717D01*
X189939Y521747D01*
X190650Y521037D01*
X190728Y520841D01*
X192442Y519081D01*
X193749Y517568D01*
X194240Y516920D01*
X194635Y516333D01*
X194926Y515823D01*
X195116Y515400D01*
X195127Y515365D01*
X194523Y514095D01*
X171790D01*
X170624Y513611D01*
X152851Y495839D01*
X151693Y496477D01*
X152350Y499779D01*
Y503521D01*
X151620Y507192D01*
X150188Y510650D01*
X148108Y513762D01*
X145462Y516408D01*
X142350Y518488D01*
X138892Y519920D01*
X135221Y520650D01*
X131479D01*
X127808Y519920D01*
X124350Y518488D01*
X121238Y516408D01*
X118592Y513762D01*
X116628Y510823D01*
X116078Y510840D01*
X115358Y511155D01*
Y513967D01*
X133270Y531879D01*
X133635Y532425D01*
X133763Y533069D01*
Y536063D01*
X133796Y536131D01*
X134346Y536359D01*
X135471Y537484D01*
X136080Y538954D01*
Y540546D01*
X135471Y542016D01*
X134346Y543141D01*
X132876Y543750D01*
X131284D01*
X129814Y543141D01*
X128689Y542016D01*
X128080Y540546D01*
Y538954D01*
X128689Y537484D01*
X129814Y536359D01*
X130364Y536131D01*
X130397Y536063D01*
Y533767D01*
X127365Y530735D01*
X127343Y530737D01*
X126143Y531309D01*
Y545233D01*
X131375Y550465D01*
X131467Y550492D01*
X131730Y550706D01*
X132016Y550867D01*
X132424Y551033D01*
X132951Y551188D01*
X133590Y551325D01*
X134318Y551435D01*
X137227Y551618D01*
X138380Y551621D01*
X138580Y551704D01*
X139532D01*
X140912Y552074D01*
X141303Y551702D01*
X141684Y550966D01*
X140288Y548549D01*
X139494Y545584D01*
Y542515D01*
X140288Y539551D01*
X141823Y536893D01*
X143993Y534723D01*
X146651Y533188D01*
X149615Y532394D01*
X152684D01*
X155649Y533188D01*
X158307Y534723D01*
X160477Y536893D01*
X162012Y539551D01*
X162806Y542515D01*
Y545584D01*
X162012Y548549D01*
X160477Y551207D01*
X158307Y553377D01*
X155649Y554912D01*
X152684Y555706D01*
X149615D01*
X146651Y554912D01*
X146442Y554791D01*
X145513Y555721D01*
X146106Y556749D01*
X146666Y558838D01*
Y561002D01*
X146106Y563091D01*
X145024Y564965D01*
X143495Y566494D01*
X141621Y567576D01*
X139532Y568136D01*
D02*
G37*
G36*
X113666Y544206D02*
X97154D01*
Y527694D01*
X113666D01*
Y544206D01*
D02*
G37*
G36*
X86177D02*
X84003D01*
X81903Y543643D01*
X80021Y542556D01*
X78484Y541019D01*
X77397Y539137D01*
X76834Y537037D01*
Y534863D01*
X77397Y532763D01*
X78484Y530881D01*
X80021Y529344D01*
X81903Y528257D01*
X84003Y527694D01*
X86177D01*
X88277Y528257D01*
X90159Y529344D01*
X91696Y530881D01*
X92783Y532763D01*
X93346Y534863D01*
Y537037D01*
X92783Y539137D01*
X91696Y541019D01*
X90159Y542556D01*
X88277Y543643D01*
X86177Y544206D01*
D02*
G37*
G36*
X65857D02*
X63683D01*
X61583Y543643D01*
X59701Y542556D01*
X58164Y541019D01*
X57077Y539137D01*
X56514Y537037D01*
Y534863D01*
X57077Y532763D01*
X58164Y530881D01*
X59701Y529344D01*
X61583Y528257D01*
X63683Y527694D01*
X65857D01*
X67957Y528257D01*
X69839Y529344D01*
X71376Y530881D01*
X72463Y532763D01*
X73026Y534863D01*
Y537037D01*
X72463Y539137D01*
X71376Y541019D01*
X69839Y542556D01*
X67957Y543643D01*
X65857Y544206D01*
D02*
G37*
G36*
X45537D02*
X43363D01*
X41263Y543643D01*
X39381Y542556D01*
X37844Y541019D01*
X36757Y539137D01*
X36194Y537037D01*
Y534863D01*
X36757Y532763D01*
X37844Y530881D01*
X39381Y529344D01*
X41263Y528257D01*
X43363Y527694D01*
X45537D01*
X47637Y528257D01*
X49519Y529344D01*
X51056Y530881D01*
X52143Y532763D01*
X52706Y534863D01*
Y537037D01*
X52143Y539137D01*
X51056Y541019D01*
X49519Y542556D01*
X47637Y543643D01*
X45537Y544206D01*
D02*
G37*
G36*
X223387Y535686D02*
X221113D01*
X218917Y535098D01*
X216947Y533960D01*
X215340Y532353D01*
X214202Y530383D01*
X213614Y528187D01*
Y525913D01*
X214202Y523717D01*
X215340Y521747D01*
X216947Y520140D01*
X218917Y519002D01*
X221113Y518414D01*
X223387D01*
X225583Y519002D01*
X227553Y520140D01*
X229160Y521747D01*
X230298Y523717D01*
X230886Y525913D01*
Y528187D01*
X230298Y530383D01*
X229160Y532353D01*
X227553Y533960D01*
X225583Y535098D01*
X223387Y535686D01*
D02*
G37*
G36*
X76017Y518806D02*
X73843D01*
X71743Y518243D01*
X69861Y517156D01*
X68324Y515619D01*
X67237Y513737D01*
X66674Y511637D01*
Y509463D01*
X67237Y507363D01*
X68324Y505481D01*
X69861Y503944D01*
X71743Y502857D01*
X73843Y502294D01*
X76017D01*
X78117Y502857D01*
X79999Y503944D01*
X81536Y505481D01*
X82623Y507363D01*
X83186Y509463D01*
Y511637D01*
X82623Y513737D01*
X81536Y515619D01*
X79999Y517156D01*
X78117Y518243D01*
X76017Y518806D01*
D02*
G37*
G36*
X55697D02*
X53523D01*
X51423Y518243D01*
X49541Y517156D01*
X48004Y515619D01*
X46917Y513737D01*
X46354Y511637D01*
Y509463D01*
X46917Y507363D01*
X48004Y505481D01*
X49541Y503944D01*
X51423Y502857D01*
X53523Y502294D01*
X55697D01*
X57797Y502857D01*
X59679Y503944D01*
X61216Y505481D01*
X62303Y507363D01*
X62866Y509463D01*
Y511637D01*
X62303Y513737D01*
X61216Y515619D01*
X59679Y517156D01*
X57797Y518243D01*
X55697Y518806D01*
D02*
G37*
G36*
X35377D02*
X33203D01*
X31103Y518243D01*
X29221Y517156D01*
X27683Y515619D01*
X26597Y513737D01*
X26034Y511637D01*
Y509463D01*
X26597Y507363D01*
X27683Y505481D01*
X29221Y503944D01*
X31103Y502857D01*
X33203Y502294D01*
X35377D01*
X37477Y502857D01*
X39359Y503944D01*
X40896Y505481D01*
X41983Y507363D01*
X42546Y509463D01*
Y511637D01*
X41983Y513737D01*
X40896Y515619D01*
X39359Y517156D01*
X37477Y518243D01*
X35377Y518806D01*
D02*
G37*
G36*
X686600Y498054D02*
X685000D01*
X683521Y497441D01*
X682389Y496309D01*
X681776Y494830D01*
Y493230D01*
X682389Y491751D01*
X683521Y490619D01*
X685000Y490006D01*
X686600D01*
X688079Y490619D01*
X689211Y491751D01*
X689824Y493230D01*
Y494830D01*
X689211Y496309D01*
X688079Y497441D01*
X686600Y498054D01*
D02*
G37*
G36*
X597700D02*
X596100D01*
X594621Y497441D01*
X593489Y496309D01*
X592876Y494830D01*
Y493230D01*
X593489Y491751D01*
X594621Y490619D01*
X596100Y490006D01*
X597700D01*
X599179Y490619D01*
X600311Y491751D01*
X600924Y493230D01*
Y494830D01*
X600311Y496309D01*
X599179Y497441D01*
X597700Y498054D01*
D02*
G37*
G36*
X64300D02*
X62700D01*
X61221Y497441D01*
X60089Y496309D01*
X59476Y494830D01*
Y493230D01*
X60089Y491751D01*
X61221Y490619D01*
X62700Y490006D01*
X64300D01*
X65779Y490619D01*
X66911Y491751D01*
X67524Y493230D01*
Y494830D01*
X66911Y496309D01*
X65779Y497441D01*
X64300Y498054D01*
D02*
G37*
G36*
X8221Y520650D02*
X4479D01*
X808Y519920D01*
X-2650Y518488D01*
X-5762Y516408D01*
X-8408Y513762D01*
X-10488Y510650D01*
X-11920Y507192D01*
X-12650Y503521D01*
Y499779D01*
X-11920Y496108D01*
X-10488Y492650D01*
X-8408Y489538D01*
X-5762Y486892D01*
X-2650Y484812D01*
X808Y483380D01*
X4479Y482650D01*
X8221D01*
X11892Y483380D01*
X15350Y484812D01*
X18462Y486892D01*
X21108Y489538D01*
X23188Y492650D01*
X24620Y496108D01*
X25350Y499779D01*
Y503521D01*
X24620Y507192D01*
X23188Y510650D01*
X21108Y513762D01*
X18462Y516408D01*
X15350Y518488D01*
X11892Y519920D01*
X8221Y520650D01*
D02*
G37*
G36*
X539276Y461200D02*
X537684D01*
X536214Y460591D01*
X535089Y459466D01*
X534480Y457996D01*
Y456404D01*
X535089Y454934D01*
X536214Y453809D01*
X537684Y453200D01*
X539276D01*
X540746Y453809D01*
X541871Y454934D01*
X542480Y456404D01*
Y457996D01*
X541871Y459466D01*
X540746Y460591D01*
X539276Y461200D01*
D02*
G37*
G36*
X254796Y443420D02*
X253204D01*
X251734Y442811D01*
X250609Y441686D01*
X250000Y440216D01*
Y438624D01*
X250609Y437154D01*
X251734Y436029D01*
X253204Y435420D01*
X254796D01*
X256266Y436029D01*
X257391Y437154D01*
X258000Y438624D01*
Y440216D01*
X257391Y441686D01*
X256266Y442811D01*
X254796Y443420D01*
D02*
G37*
G36*
X145576Y425640D02*
X143984D01*
X142514Y425031D01*
X141389Y423906D01*
X140780Y422436D01*
Y420844D01*
X141389Y419374D01*
X142514Y418249D01*
X143984Y417640D01*
X145576D01*
X147046Y418249D01*
X148171Y419374D01*
X148780Y420844D01*
Y422436D01*
X148171Y423906D01*
X147046Y425031D01*
X145576Y425640D01*
D02*
G37*
G36*
X358936Y440880D02*
X357344D01*
X355874Y440271D01*
X354749Y439146D01*
X354140Y437676D01*
Y436084D01*
X354749Y434614D01*
X355874Y433489D01*
X356296Y433314D01*
X356327Y433246D01*
Y425274D01*
X356296Y425206D01*
X355874Y425031D01*
X354749Y423906D01*
X354140Y422436D01*
Y420844D01*
X354749Y419374D01*
X355874Y418249D01*
X357344Y417640D01*
X358936D01*
X360406Y418249D01*
X361531Y419374D01*
X362140Y420844D01*
Y422436D01*
X361531Y423906D01*
X360406Y425031D01*
X359984Y425206D01*
X359953Y425274D01*
Y433246D01*
X359984Y433314D01*
X360406Y433489D01*
X361531Y434614D01*
X362140Y436084D01*
Y437676D01*
X361531Y439146D01*
X360406Y440271D01*
X358936Y440880D01*
D02*
G37*
G36*
X102396Y425640D02*
X100804D01*
X99334Y425031D01*
X98209Y423906D01*
X97600Y422436D01*
Y420844D01*
X98209Y419374D01*
X99334Y418249D01*
X100804Y417640D01*
X102396D01*
X103866Y418249D01*
X104991Y419374D01*
X105600Y420844D01*
Y422436D01*
X104991Y423906D01*
X103866Y425031D01*
X102396Y425640D01*
D02*
G37*
G36*
X662479Y458216D02*
X658321D01*
X654214Y457566D01*
X650260Y456281D01*
X646555Y454393D01*
X643191Y451949D01*
X640251Y449009D01*
X637807Y445645D01*
X635919Y441940D01*
X634634Y437986D01*
X633984Y433879D01*
Y429721D01*
X634634Y425614D01*
X635919Y421660D01*
X637807Y417955D01*
X640251Y414591D01*
X643191Y411651D01*
X646555Y409207D01*
X650260Y407319D01*
X654214Y406034D01*
X658321Y405384D01*
X662479D01*
X666586Y406034D01*
X670540Y407319D01*
X674245Y409207D01*
X677609Y411651D01*
X680549Y414591D01*
X682993Y417955D01*
X684881Y421660D01*
X686166Y425614D01*
X686816Y429721D01*
Y433879D01*
X686166Y437986D01*
X684881Y441940D01*
X682993Y445645D01*
X680549Y449009D01*
X677609Y451949D01*
X674245Y454393D01*
X670540Y456281D01*
X666586Y457566D01*
X662479Y458216D01*
D02*
G37*
G36*
X2079D02*
X-2079D01*
X-6186Y457566D01*
X-10140Y456281D01*
X-13845Y454393D01*
X-17209Y451949D01*
X-20149Y449009D01*
X-22593Y445645D01*
X-24481Y441940D01*
X-25766Y437986D01*
X-26416Y433879D01*
Y429721D01*
X-25766Y425614D01*
X-24481Y421660D01*
X-22593Y417955D01*
X-20149Y414591D01*
X-17209Y411651D01*
X-13845Y409207D01*
X-10140Y407319D01*
X-6186Y406034D01*
X-2079Y405384D01*
X2079D01*
X6186Y406034D01*
X10140Y407319D01*
X13845Y409207D01*
X17209Y411651D01*
X20149Y414591D01*
X22593Y417955D01*
X24481Y421660D01*
X25766Y425614D01*
X26416Y429721D01*
Y433879D01*
X25766Y437986D01*
X24481Y441940D01*
X22593Y445645D01*
X20149Y449009D01*
X17209Y451949D01*
X13845Y454393D01*
X10140Y456281D01*
X6186Y457566D01*
X2079Y458216D01*
D02*
G37*
G36*
X642150Y409154D02*
X640550D01*
X639071Y408541D01*
X637939Y407409D01*
X637326Y405930D01*
Y404330D01*
X637939Y402851D01*
X639071Y401719D01*
X640550Y401106D01*
X642150D01*
X643629Y401719D01*
X644761Y402851D01*
X645374Y404330D01*
Y405930D01*
X644761Y407409D01*
X643629Y408541D01*
X642150Y409154D01*
D02*
G37*
G36*
X553250D02*
X551650D01*
X550171Y408541D01*
X549039Y407409D01*
X548426Y405930D01*
Y404330D01*
X549039Y402851D01*
X550171Y401719D01*
X551650Y401106D01*
X553250D01*
X554729Y401719D01*
X555861Y402851D01*
X556474Y404330D01*
Y405930D01*
X555861Y407409D01*
X554729Y408541D01*
X553250Y409154D01*
D02*
G37*
G36*
X464350D02*
X462750D01*
X461271Y408541D01*
X460139Y407409D01*
X459526Y405930D01*
Y404330D01*
X460139Y402851D01*
X461271Y401719D01*
X462750Y401106D01*
X464350D01*
X465829Y401719D01*
X466961Y402851D01*
X467574Y404330D01*
Y405930D01*
X466961Y407409D01*
X465829Y408541D01*
X464350Y409154D01*
D02*
G37*
G36*
X375450D02*
X373850D01*
X372371Y408541D01*
X371239Y407409D01*
X370626Y405930D01*
Y404330D01*
X371239Y402851D01*
X372371Y401719D01*
X373850Y401106D01*
X375450D01*
X376929Y401719D01*
X378061Y402851D01*
X378674Y404330D01*
Y405930D01*
X378061Y407409D01*
X376929Y408541D01*
X375450Y409154D01*
D02*
G37*
G36*
X286550D02*
X284950D01*
X283471Y408541D01*
X282339Y407409D01*
X281726Y405930D01*
Y404330D01*
X282339Y402851D01*
X283471Y401719D01*
X284950Y401106D01*
X286550D01*
X288029Y401719D01*
X289161Y402851D01*
X289774Y404330D01*
Y405930D01*
X289161Y407409D01*
X288029Y408541D01*
X286550Y409154D01*
D02*
G37*
G36*
X19850D02*
X18250D01*
X16771Y408541D01*
X15639Y407409D01*
X15026Y405930D01*
Y404330D01*
X15639Y402851D01*
X16771Y401719D01*
X18250Y401106D01*
X19850D01*
X21329Y401719D01*
X22461Y402851D01*
X23074Y404330D01*
Y405930D01*
X22461Y407409D01*
X21329Y408541D01*
X19850Y409154D01*
D02*
G37*
G36*
X674237Y389636D02*
X671963D01*
X669767Y389048D01*
X667797Y387910D01*
X666189Y386303D01*
X665052Y384333D01*
X664464Y382137D01*
Y379863D01*
X665052Y377667D01*
X666189Y375697D01*
X667797Y374090D01*
X669767Y372952D01*
X671963Y372364D01*
X674237D01*
X676433Y372952D01*
X678403Y374090D01*
X680011Y375697D01*
X681148Y377667D01*
X681736Y379863D01*
Y382137D01*
X681148Y384333D01*
X680011Y386303D01*
X678403Y387910D01*
X676433Y389048D01*
X674237Y389636D01*
D02*
G37*
G36*
X648837D02*
X646563D01*
X644367Y389048D01*
X642397Y387910D01*
X640789Y386303D01*
X639652Y384333D01*
X639064Y382137D01*
Y379863D01*
X639652Y377667D01*
X640789Y375697D01*
X642397Y374090D01*
X644367Y372952D01*
X646563Y372364D01*
X648837D01*
X651033Y372952D01*
X653003Y374090D01*
X654611Y375697D01*
X655748Y377667D01*
X656336Y379863D01*
Y382137D01*
X655748Y384333D01*
X654611Y386303D01*
X653003Y387910D01*
X651033Y389048D01*
X648837Y389636D01*
D02*
G37*
G36*
X59216Y377380D02*
X57624D01*
X56154Y376771D01*
X55029Y375646D01*
X54420Y374176D01*
Y372584D01*
X55029Y371114D01*
X56154Y369989D01*
X57624Y369380D01*
X59216D01*
X60686Y369989D01*
X61811Y371114D01*
X62420Y372584D01*
Y374176D01*
X61811Y375646D01*
X60686Y376771D01*
X59216Y377380D01*
D02*
G37*
G36*
X337754Y371258D02*
X336163D01*
X334692Y370648D01*
X333567Y369523D01*
X332958Y368053D01*
Y366462D01*
X333567Y364992D01*
X334692Y363867D01*
X336163Y363257D01*
X337754D01*
X339224Y363867D01*
X340349Y364992D01*
X340958Y366462D01*
Y368053D01*
X340349Y369523D01*
X339224Y370648D01*
X337754Y371258D01*
D02*
G37*
G36*
X322514D02*
X320923D01*
X319452Y370648D01*
X318327Y369523D01*
X317718Y368053D01*
Y366462D01*
X318327Y364992D01*
X319452Y363867D01*
X320923Y363257D01*
X322514D01*
X323984Y363867D01*
X325109Y364992D01*
X325718Y366462D01*
Y368053D01*
X325109Y369523D01*
X323984Y370648D01*
X322514Y371258D01*
D02*
G37*
G36*
X307274D02*
X305683D01*
X304212Y370648D01*
X303087Y369523D01*
X302478Y368053D01*
Y366462D01*
X303087Y364992D01*
X304212Y363867D01*
X305683Y363257D01*
X307274D01*
X308744Y363867D01*
X309869Y364992D01*
X310478Y366462D01*
Y368053D01*
X309869Y369523D01*
X308744Y370648D01*
X307274Y371258D01*
D02*
G37*
G36*
X393226Y360870D02*
X391634D01*
X390164Y360261D01*
X389039Y359136D01*
X388430Y357666D01*
Y356074D01*
X389039Y354604D01*
X390164Y353479D01*
X391634Y352870D01*
X393226D01*
X394696Y353479D01*
X395821Y354604D01*
X396430Y356074D01*
Y357666D01*
X395821Y359136D01*
X394696Y360261D01*
X393226Y360870D01*
D02*
G37*
G36*
X377986D02*
X376394D01*
X374924Y360261D01*
X373799Y359136D01*
X373190Y357666D01*
Y356074D01*
X373799Y354604D01*
X374924Y353479D01*
X376394Y352870D01*
X377986D01*
X379456Y353479D01*
X380581Y354604D01*
X381190Y356074D01*
Y357666D01*
X380581Y359136D01*
X379456Y360261D01*
X377986Y360870D01*
D02*
G37*
G36*
X362746D02*
X361154D01*
X359684Y360261D01*
X358559Y359136D01*
X357950Y357666D01*
Y356074D01*
X358559Y354604D01*
X359684Y353479D01*
X361154Y352870D01*
X362746D01*
X364216Y353479D01*
X365341Y354604D01*
X365950Y356074D01*
Y357666D01*
X365341Y359136D01*
X364216Y360261D01*
X362746Y360870D01*
D02*
G37*
G36*
X674237Y364236D02*
X671963D01*
X669767Y363647D01*
X667797Y362510D01*
X666189Y360903D01*
X665052Y358933D01*
X664464Y356737D01*
Y354463D01*
X665052Y352267D01*
X666189Y350297D01*
X667797Y348689D01*
X669767Y347552D01*
X671963Y346964D01*
X674237D01*
X676433Y347552D01*
X678403Y348689D01*
X680011Y350297D01*
X681148Y352267D01*
X681736Y354463D01*
Y356737D01*
X681148Y358933D01*
X680011Y360903D01*
X678403Y362510D01*
X676433Y363647D01*
X674237Y364236D01*
D02*
G37*
G36*
X648837D02*
X646563D01*
X644367Y363647D01*
X642397Y362510D01*
X640789Y360903D01*
X639652Y358933D01*
X639064Y356737D01*
Y354463D01*
X639652Y352267D01*
X640789Y350297D01*
X642397Y348689D01*
X644367Y347552D01*
X646563Y346964D01*
X648837D01*
X651033Y347552D01*
X653003Y348689D01*
X654611Y350297D01*
X655748Y352267D01*
X656336Y354463D01*
Y356737D01*
X655748Y358933D01*
X654611Y360903D01*
X653003Y362510D01*
X651033Y363647D01*
X648837Y364236D01*
D02*
G37*
G36*
X250986Y338010D02*
X249394D01*
X247924Y337401D01*
X246799Y336276D01*
X246190Y334806D01*
Y333214D01*
X246799Y331744D01*
X247924Y330619D01*
X249394Y330010D01*
X250986D01*
X252456Y330619D01*
X253581Y331744D01*
X254190Y333214D01*
Y334806D01*
X253581Y336276D01*
X252456Y337401D01*
X250986Y338010D01*
D02*
G37*
G36*
X104936Y331660D02*
X103344D01*
X101874Y331051D01*
X100749Y329926D01*
X100140Y328456D01*
Y326864D01*
X100749Y325394D01*
X101874Y324269D01*
X103344Y323660D01*
X104936D01*
X106406Y324269D01*
X107531Y325394D01*
X108140Y326864D01*
Y328456D01*
X107531Y329926D01*
X106406Y331051D01*
X104936Y331660D01*
D02*
G37*
G36*
X674237Y338836D02*
X671963D01*
X669767Y338247D01*
X667797Y337110D01*
X666189Y335503D01*
X665052Y333533D01*
X664464Y331337D01*
Y329063D01*
X665052Y326867D01*
X666189Y324897D01*
X667797Y323289D01*
X669767Y322152D01*
X671963Y321564D01*
X674237D01*
X676433Y322152D01*
X678403Y323289D01*
X680011Y324897D01*
X681148Y326867D01*
X681736Y329063D01*
Y331337D01*
X681148Y333533D01*
X680011Y335503D01*
X678403Y337110D01*
X676433Y338247D01*
X674237Y338836D01*
D02*
G37*
G36*
X648837D02*
X646563D01*
X644367Y338247D01*
X642397Y337110D01*
X640789Y335503D01*
X639652Y333533D01*
X639064Y331337D01*
Y329063D01*
X639652Y326867D01*
X640789Y324897D01*
X642397Y323289D01*
X644367Y322152D01*
X646563Y321564D01*
X648837D01*
X651033Y322152D01*
X653003Y323289D01*
X654611Y324897D01*
X655748Y326867D01*
X656336Y329063D01*
Y331337D01*
X655748Y333533D01*
X654611Y335503D01*
X653003Y337110D01*
X651033Y338247D01*
X648837Y338836D01*
D02*
G37*
G36*
X686600Y320254D02*
X685000D01*
X683521Y319641D01*
X682389Y318509D01*
X681776Y317030D01*
Y315430D01*
X682389Y313951D01*
X683521Y312819D01*
X685000Y312206D01*
X686600D01*
X688079Y312819D01*
X689211Y313951D01*
X689824Y315430D01*
Y317030D01*
X689211Y318509D01*
X688079Y319641D01*
X686600Y320254D01*
D02*
G37*
G36*
X419900D02*
X418300D01*
X416821Y319641D01*
X415689Y318509D01*
X415076Y317030D01*
Y315430D01*
X415689Y313951D01*
X416821Y312819D01*
X418300Y312206D01*
X419900D01*
X421379Y312819D01*
X422511Y313951D01*
X423124Y315430D01*
Y317030D01*
X422511Y318509D01*
X421379Y319641D01*
X419900Y320254D01*
D02*
G37*
G36*
X153200D02*
X151600D01*
X150121Y319641D01*
X148989Y318509D01*
X148376Y317030D01*
Y315430D01*
X148989Y313951D01*
X150121Y312819D01*
X151600Y312206D01*
X153200D01*
X154679Y312819D01*
X155811Y313951D01*
X156424Y315430D01*
Y317030D01*
X155811Y318509D01*
X154679Y319641D01*
X153200Y320254D01*
D02*
G37*
G36*
X674237Y313436D02*
X671963D01*
X669767Y312847D01*
X667797Y311710D01*
X666189Y310103D01*
X665052Y308133D01*
X664464Y305937D01*
Y303663D01*
X665052Y301467D01*
X666189Y299497D01*
X667797Y297889D01*
X669767Y296752D01*
X671963Y296164D01*
X674237D01*
X676433Y296752D01*
X678403Y297889D01*
X680011Y299497D01*
X681148Y301467D01*
X681736Y303663D01*
Y305937D01*
X681148Y308133D01*
X680011Y310103D01*
X678403Y311710D01*
X676433Y312847D01*
X674237Y313436D01*
D02*
G37*
G36*
X648837D02*
X646563D01*
X644367Y312847D01*
X642397Y311710D01*
X640789Y310103D01*
X639652Y308133D01*
X639064Y305937D01*
Y303663D01*
X639652Y301467D01*
X640789Y299497D01*
X642397Y297889D01*
X644367Y296752D01*
X646563Y296164D01*
X648837D01*
X651033Y296752D01*
X653003Y297889D01*
X654611Y299497D01*
X655748Y301467D01*
X656336Y303663D01*
Y305937D01*
X655748Y308133D01*
X654611Y310103D01*
X653003Y311710D01*
X651033Y312847D01*
X648837Y313436D01*
D02*
G37*
G36*
X427516Y303720D02*
X425924D01*
X424454Y303111D01*
X423329Y301986D01*
X422720Y300516D01*
Y298924D01*
X423329Y297454D01*
X424454Y296329D01*
X425924Y295720D01*
X427516D01*
X428986Y296329D01*
X430111Y297454D01*
X430720Y298924D01*
Y300516D01*
X430111Y301986D01*
X428986Y303111D01*
X427516Y303720D01*
D02*
G37*
G36*
X244662Y291046D02*
X243070D01*
X241600Y290437D01*
X240475Y289312D01*
X239866Y287842D01*
Y286250D01*
X240475Y284780D01*
X241600Y283655D01*
X243070Y283046D01*
X244662D01*
X246132Y283655D01*
X247257Y284780D01*
X247866Y286250D01*
Y287842D01*
X247257Y289312D01*
X246132Y290437D01*
X244662Y291046D01*
D02*
G37*
G36*
X297976Y296100D02*
X296384D01*
X294914Y295491D01*
X293789Y294366D01*
X293180Y292896D01*
Y291304D01*
X293789Y289834D01*
X294914Y288709D01*
X296384Y288100D01*
X297976D01*
X299446Y288709D01*
X300571Y289834D01*
X300799Y290384D01*
X300868Y290417D01*
X311723D01*
X316242Y285897D01*
X316268Y285826D01*
X316040Y285276D01*
Y283684D01*
X316649Y282214D01*
X316855Y282008D01*
X316329Y280738D01*
X300762D01*
X290818Y290683D01*
X290792Y290754D01*
X291020Y291304D01*
Y292896D01*
X290411Y294366D01*
X289286Y295491D01*
X287816Y296100D01*
X286224D01*
X284754Y295491D01*
X283629Y294366D01*
X283020Y292896D01*
Y291304D01*
X283629Y289834D01*
X284754Y288709D01*
X286224Y288100D01*
X287816D01*
X288366Y288328D01*
X288437Y288302D01*
X298875Y277865D01*
X299421Y277500D01*
X300065Y277372D01*
X324775D01*
X325419Y277500D01*
X325965Y277865D01*
X328783Y280682D01*
X328854Y280708D01*
X329404Y280480D01*
X330996D01*
X332466Y281089D01*
X333591Y282214D01*
X334200Y283684D01*
Y285276D01*
X333591Y286746D01*
X332466Y287871D01*
X330996Y288480D01*
X329404D01*
X327934Y287871D01*
X326809Y286746D01*
X326200Y285276D01*
Y283684D01*
X326428Y283134D01*
X326402Y283063D01*
X324819Y281479D01*
X324432Y281556D01*
X323751Y282987D01*
X324040Y283684D01*
Y285276D01*
X323431Y286746D01*
X322306Y287871D01*
X320836Y288480D01*
X319244D01*
X318694Y288252D01*
X318623Y288278D01*
X313610Y293290D01*
X313064Y293655D01*
X312420Y293783D01*
X300868D01*
X300799Y293816D01*
X300571Y294366D01*
X299446Y295491D01*
X297976Y296100D01*
D02*
G37*
G36*
X364016Y284670D02*
X362424D01*
X360954Y284061D01*
X359829Y282936D01*
X359220Y281466D01*
Y279874D01*
X359829Y278404D01*
X360954Y277279D01*
X362424Y276670D01*
X364016D01*
X365486Y277279D01*
X366611Y278404D01*
X367220Y279874D01*
Y281466D01*
X366611Y282936D01*
X365486Y284061D01*
X364016Y284670D01*
D02*
G37*
G36*
X35086Y283400D02*
X33494D01*
X32024Y282791D01*
X30899Y281666D01*
X30290Y280196D01*
Y278604D01*
X30899Y277134D01*
X32024Y276009D01*
X33494Y275400D01*
X35086D01*
X36556Y276009D01*
X37681Y277134D01*
X38290Y278604D01*
Y280196D01*
X37681Y281666D01*
X36556Y282791D01*
X35086Y283400D01*
D02*
G37*
G36*
X674237Y288036D02*
X671963D01*
X669767Y287447D01*
X667797Y286311D01*
X666189Y284703D01*
X665052Y282733D01*
X664464Y280537D01*
Y278263D01*
X665052Y276067D01*
X666189Y274097D01*
X667797Y272489D01*
X669767Y271353D01*
X671963Y270764D01*
X674237D01*
X676433Y271353D01*
X678403Y272489D01*
X680011Y274097D01*
X681148Y276067D01*
X681736Y278263D01*
Y280537D01*
X681148Y282733D01*
X680011Y284703D01*
X678403Y286311D01*
X676433Y287447D01*
X674237Y288036D01*
D02*
G37*
G36*
X648837D02*
X646563D01*
X644367Y287447D01*
X642397Y286311D01*
X640789Y284703D01*
X639652Y282733D01*
X639064Y280537D01*
Y278263D01*
X639652Y276067D01*
X640789Y274097D01*
X642397Y272489D01*
X644367Y271353D01*
X646563Y270764D01*
X648837D01*
X651033Y271353D01*
X653003Y272489D01*
X654611Y274097D01*
X655748Y276067D01*
X656336Y278263D01*
Y280537D01*
X655748Y282733D01*
X654611Y284703D01*
X653003Y286311D01*
X651033Y287447D01*
X648837Y288036D01*
D02*
G37*
G36*
X353856Y275780D02*
X352264D01*
X350794Y275171D01*
X349669Y274046D01*
X349060Y272576D01*
Y270984D01*
X349669Y269514D01*
X350794Y268389D01*
X352264Y267780D01*
X353856D01*
X355326Y268389D01*
X356451Y269514D01*
X357060Y270984D01*
Y272576D01*
X356451Y274046D01*
X355326Y275171D01*
X353856Y275780D01*
D02*
G37*
G36*
X343696D02*
X342104D01*
X340634Y275171D01*
X339509Y274046D01*
X338900Y272576D01*
Y270984D01*
X339509Y269514D01*
X340634Y268389D01*
X342104Y267780D01*
X343696D01*
X345166Y268389D01*
X346291Y269514D01*
X346900Y270984D01*
Y272576D01*
X346291Y274046D01*
X345166Y275171D01*
X343696Y275780D01*
D02*
G37*
G36*
X333536D02*
X331944D01*
X330474Y275171D01*
X329349Y274046D01*
X328740Y272576D01*
Y270984D01*
X329349Y269514D01*
X330474Y268389D01*
X331944Y267780D01*
X333536D01*
X335006Y268389D01*
X336131Y269514D01*
X336740Y270984D01*
Y272576D01*
X336131Y274046D01*
X335006Y275171D01*
X333536Y275780D01*
D02*
G37*
G36*
X-4284D02*
X-5876D01*
X-7346Y275171D01*
X-8471Y274046D01*
X-9080Y272576D01*
Y270984D01*
X-8471Y269514D01*
X-7346Y268389D01*
X-5876Y267780D01*
X-4284D01*
X-2814Y268389D01*
X-1689Y269514D01*
X-1080Y270984D01*
Y272576D01*
X-1689Y274046D01*
X-2814Y275171D01*
X-4284Y275780D01*
D02*
G37*
G36*
X130336Y265620D02*
X128744D01*
X127274Y265011D01*
X126149Y263886D01*
X125540Y262416D01*
Y260824D01*
X126149Y259354D01*
X127274Y258229D01*
X128744Y257620D01*
X130336D01*
X131806Y258229D01*
X132931Y259354D01*
X133540Y260824D01*
Y262416D01*
X132931Y263886D01*
X131806Y265011D01*
X130336Y265620D01*
D02*
G37*
G36*
X353856Y264350D02*
X352264D01*
X350794Y263741D01*
X349669Y262616D01*
X349060Y261146D01*
Y259554D01*
X349669Y258084D01*
X350794Y256959D01*
X352264Y256350D01*
X353856D01*
X355326Y256959D01*
X356451Y258084D01*
X357060Y259554D01*
Y261146D01*
X356451Y262616D01*
X355326Y263741D01*
X353856Y264350D01*
D02*
G37*
G36*
X343696D02*
X342104D01*
X340634Y263741D01*
X339509Y262616D01*
X338900Y261146D01*
Y259554D01*
X339509Y258084D01*
X340634Y256959D01*
X342104Y256350D01*
X343696D01*
X345166Y256959D01*
X346291Y258084D01*
X346900Y259554D01*
Y261146D01*
X346291Y262616D01*
X345166Y263741D01*
X343696Y264350D01*
D02*
G37*
G36*
X333536D02*
X331944D01*
X330474Y263741D01*
X329349Y262616D01*
X328740Y261146D01*
Y259554D01*
X329349Y258084D01*
X330474Y256959D01*
X331944Y256350D01*
X333536D01*
X335006Y256959D01*
X336131Y258084D01*
X336740Y259554D01*
Y261146D01*
X336131Y262616D01*
X335006Y263741D01*
X333536Y264350D01*
D02*
G37*
G36*
X441796Y254000D02*
X440204D01*
X438734Y253391D01*
X437609Y252266D01*
X437000Y250796D01*
Y249204D01*
X437609Y247734D01*
X438734Y246609D01*
X440204Y246000D01*
X441796D01*
X443266Y246609D01*
X444391Y247734D01*
X445000Y249204D01*
Y250796D01*
X444391Y252266D01*
X443266Y253391D01*
X441796Y254000D01*
D02*
G37*
G36*
X674237Y262636D02*
X671963D01*
X669767Y262048D01*
X667797Y260910D01*
X666189Y259303D01*
X665052Y257333D01*
X664464Y255137D01*
Y252863D01*
X665052Y250667D01*
X666189Y248697D01*
X667797Y247090D01*
X669767Y245952D01*
X671963Y245364D01*
X674237D01*
X676433Y245952D01*
X678403Y247090D01*
X680011Y248697D01*
X681148Y250667D01*
X681736Y252863D01*
Y255137D01*
X681148Y257333D01*
X680011Y259303D01*
X678403Y260910D01*
X676433Y262048D01*
X674237Y262636D01*
D02*
G37*
G36*
X648837D02*
X646563D01*
X644367Y262048D01*
X642397Y260910D01*
X640789Y259303D01*
X639652Y257333D01*
X639064Y255137D01*
Y252863D01*
X639652Y250667D01*
X640789Y248697D01*
X642397Y247090D01*
X644367Y245952D01*
X646563Y245364D01*
X648837D01*
X651033Y245952D01*
X653003Y247090D01*
X654611Y248697D01*
X655748Y250667D01*
X656336Y252863D01*
Y255137D01*
X655748Y257333D01*
X654611Y259303D01*
X653003Y260910D01*
X651033Y262048D01*
X648837Y262636D01*
D02*
G37*
G36*
X353856Y252920D02*
X352264D01*
X350794Y252311D01*
X349669Y251186D01*
X349060Y249716D01*
Y248124D01*
X349669Y246654D01*
X350794Y245529D01*
X352264Y244920D01*
X353856D01*
X355326Y245529D01*
X356451Y246654D01*
X357060Y248124D01*
Y249716D01*
X356451Y251186D01*
X355326Y252311D01*
X353856Y252920D01*
D02*
G37*
G36*
X343696D02*
X342104D01*
X340634Y252311D01*
X339509Y251186D01*
X338900Y249716D01*
Y248124D01*
X339509Y246654D01*
X340634Y245529D01*
X342104Y244920D01*
X343696D01*
X345166Y245529D01*
X346291Y246654D01*
X346900Y248124D01*
Y249716D01*
X346291Y251186D01*
X345166Y252311D01*
X343696Y252920D01*
D02*
G37*
G36*
X333536D02*
X331944D01*
X330474Y252311D01*
X329349Y251186D01*
X328740Y249716D01*
Y248124D01*
X329349Y246654D01*
X330474Y245529D01*
X331944Y244920D01*
X333536D01*
X335006Y245529D01*
X336131Y246654D01*
X336740Y248124D01*
Y249716D01*
X336131Y251186D01*
X335006Y252311D01*
X333536Y252920D01*
D02*
G37*
G36*
X113826D02*
X112234D01*
X110764Y252311D01*
X109639Y251186D01*
X109030Y249716D01*
Y248124D01*
X109639Y246654D01*
X110764Y245529D01*
X112234Y244920D01*
X113826D01*
X115296Y245529D01*
X116421Y246654D01*
X117030Y248124D01*
Y249716D01*
X116421Y251186D01*
X115296Y252311D01*
X113826Y252920D01*
D02*
G37*
G36*
X229396Y242760D02*
X227804D01*
X226334Y242151D01*
X225209Y241026D01*
X224600Y239556D01*
Y237964D01*
X225209Y236494D01*
X226334Y235369D01*
X227804Y234760D01*
X229396D01*
X230866Y235369D01*
X231991Y236494D01*
X232600Y237964D01*
Y239556D01*
X231991Y241026D01*
X230866Y242151D01*
X229396Y242760D01*
D02*
G37*
G36*
X475776Y237640D02*
X474184D01*
X472714Y237031D01*
X471589Y235906D01*
X471379Y235398D01*
X471305Y235363D01*
X469900D01*
X469256Y235235D01*
X468710Y234870D01*
X453963Y220123D01*
X430407D01*
X430339Y220156D01*
X430111Y220706D01*
X428986Y221831D01*
X427516Y222440D01*
X425924D01*
X424454Y221831D01*
X423329Y220706D01*
X422720Y219236D01*
Y217644D01*
X423329Y216174D01*
X424454Y215049D01*
X425924Y214440D01*
X427516D01*
X428986Y215049D01*
X430111Y216174D01*
X430339Y216724D01*
X430407Y216757D01*
X454660D01*
X455304Y216885D01*
X455850Y217250D01*
X470170Y231569D01*
X471589Y231374D01*
X472714Y230249D01*
X474184Y229640D01*
X475776D01*
X477246Y230249D01*
X478371Y231374D01*
X478980Y232844D01*
Y234436D01*
X478371Y235906D01*
X477246Y237031D01*
X475776Y237640D01*
D02*
G37*
G36*
X553250Y231354D02*
X551650D01*
X550171Y230741D01*
X549039Y229609D01*
X548426Y228130D01*
Y226530D01*
X549039Y225051D01*
X550171Y223919D01*
X551650Y223306D01*
X553250D01*
X554729Y223919D01*
X555861Y225051D01*
X556474Y226530D01*
Y228130D01*
X555861Y229609D01*
X554729Y230741D01*
X553250Y231354D01*
D02*
G37*
G36*
X197650D02*
X196050D01*
X194571Y230741D01*
X193439Y229609D01*
X192826Y228130D01*
Y226530D01*
X193439Y225051D01*
X194571Y223919D01*
X196050Y223306D01*
X197650D01*
X199129Y223919D01*
X200261Y225051D01*
X200874Y226530D01*
Y228130D01*
X200261Y229609D01*
X199129Y230741D01*
X197650Y231354D01*
D02*
G37*
G36*
X108750D02*
X107150D01*
X105671Y230741D01*
X104539Y229609D01*
X103926Y228130D01*
Y226530D01*
X104539Y225051D01*
X105671Y223919D01*
X107150Y223306D01*
X108750D01*
X110229Y223919D01*
X111361Y225051D01*
X111974Y226530D01*
Y228130D01*
X111361Y229609D01*
X110229Y230741D01*
X108750Y231354D01*
D02*
G37*
G36*
X19850D02*
X18250D01*
X16771Y230741D01*
X15639Y229609D01*
X15026Y228130D01*
Y226530D01*
X15639Y225051D01*
X16771Y223919D01*
X18250Y223306D01*
X19850D01*
X21329Y223919D01*
X22461Y225051D01*
X23074Y226530D01*
Y228130D01*
X22461Y229609D01*
X21329Y230741D01*
X19850Y231354D01*
D02*
G37*
G36*
X674237Y237236D02*
X671963D01*
X669767Y236647D01*
X667797Y235511D01*
X666189Y233903D01*
X665052Y231933D01*
X664464Y229737D01*
Y227463D01*
X665052Y225267D01*
X666189Y223297D01*
X667797Y221689D01*
X669767Y220553D01*
X671963Y219964D01*
X674237D01*
X676433Y220553D01*
X678403Y221689D01*
X680011Y223297D01*
X681148Y225267D01*
X681736Y227463D01*
Y229737D01*
X681148Y231933D01*
X680011Y233903D01*
X678403Y235511D01*
X676433Y236647D01*
X674237Y237236D01*
D02*
G37*
G36*
X648837D02*
X646563D01*
X644367Y236647D01*
X642397Y235511D01*
X640789Y233903D01*
X639652Y231933D01*
X639064Y229737D01*
Y227463D01*
X639652Y225267D01*
X640789Y223297D01*
X642397Y221689D01*
X644367Y220553D01*
X646563Y219964D01*
X648837D01*
X651033Y220553D01*
X653003Y221689D01*
X654611Y223297D01*
X655748Y225267D01*
X656336Y227463D01*
Y229737D01*
X655748Y231933D01*
X654611Y233903D01*
X653003Y235511D01*
X651033Y236647D01*
X648837Y237236D01*
D02*
G37*
G36*
X674237Y211836D02*
X671963D01*
X669767Y211248D01*
X667797Y210110D01*
X666189Y208503D01*
X665052Y206533D01*
X664464Y204337D01*
Y202063D01*
X665052Y199867D01*
X666189Y197897D01*
X667797Y196290D01*
X669767Y195152D01*
X671963Y194564D01*
X674237D01*
X676433Y195152D01*
X678403Y196290D01*
X680011Y197897D01*
X681148Y199867D01*
X681736Y202063D01*
Y204337D01*
X681148Y206533D01*
X680011Y208503D01*
X678403Y210110D01*
X676433Y211248D01*
X674237Y211836D01*
D02*
G37*
G36*
X648837D02*
X646563D01*
X644367Y211248D01*
X642397Y210110D01*
X640789Y208503D01*
X639652Y206533D01*
X639064Y204337D01*
Y202063D01*
X639652Y199867D01*
X640789Y197897D01*
X642397Y196290D01*
X644367Y195152D01*
X646563Y194564D01*
X648837D01*
X651033Y195152D01*
X653003Y196290D01*
X654611Y197897D01*
X655748Y199867D01*
X656336Y202063D01*
Y204337D01*
X655748Y206533D01*
X654611Y208503D01*
X653003Y210110D01*
X651033Y211248D01*
X648837Y211836D01*
D02*
G37*
G36*
X287816Y179260D02*
X286224D01*
X284754Y178651D01*
X283629Y177526D01*
X283020Y176056D01*
Y174464D01*
X283629Y172994D01*
X284754Y171869D01*
X286224Y171260D01*
X287816D01*
X289286Y171869D01*
X290411Y172994D01*
X291020Y174464D01*
Y176056D01*
X290411Y177526D01*
X289286Y178651D01*
X287816Y179260D01*
D02*
G37*
G36*
X674237Y186436D02*
X671963D01*
X669767Y185847D01*
X667797Y184711D01*
X666189Y183103D01*
X665052Y181133D01*
X664464Y178937D01*
Y176663D01*
X665052Y174467D01*
X666189Y172497D01*
X667797Y170889D01*
X669767Y169753D01*
X671963Y169164D01*
X674237D01*
X676433Y169753D01*
X678403Y170889D01*
X680011Y172497D01*
X681148Y174467D01*
X681736Y176663D01*
Y178937D01*
X681148Y181133D01*
X680011Y183103D01*
X678403Y184711D01*
X676433Y185847D01*
X674237Y186436D01*
D02*
G37*
G36*
X648837D02*
X646563D01*
X644367Y185847D01*
X642397Y184711D01*
X640789Y183103D01*
X639652Y181133D01*
X639064Y178937D01*
Y176663D01*
X639652Y174467D01*
X640789Y172497D01*
X642397Y170889D01*
X644367Y169753D01*
X646563Y169164D01*
X648837D01*
X651033Y169753D01*
X653003Y170889D01*
X654611Y172497D01*
X655748Y174467D01*
X656336Y176663D01*
Y178937D01*
X655748Y181133D01*
X654611Y183103D01*
X653003Y184711D01*
X651033Y185847D01*
X648837Y186436D01*
D02*
G37*
G36*
X496096Y169100D02*
X494504D01*
X493034Y168491D01*
X491909Y167366D01*
X491300Y165896D01*
Y164304D01*
X491909Y162834D01*
X493034Y161709D01*
X494504Y161100D01*
X496096D01*
X497566Y161709D01*
X498691Y162834D01*
X499300Y164304D01*
Y165896D01*
X498691Y167366D01*
X497566Y168491D01*
X496096Y169100D01*
D02*
G37*
G36*
X648837Y161036D02*
X646563D01*
X644367Y160448D01*
X642397Y159311D01*
X640789Y157703D01*
X639652Y155733D01*
X639064Y153537D01*
Y151263D01*
X639652Y149067D01*
X640789Y147097D01*
X642397Y145490D01*
X644367Y144353D01*
X646563Y143764D01*
X648837D01*
X651033Y144353D01*
X653003Y145490D01*
X654611Y147097D01*
X655748Y149067D01*
X656336Y151263D01*
Y153537D01*
X655748Y155733D01*
X654611Y157703D01*
X653003Y159311D01*
X651033Y160448D01*
X648837Y161036D01*
D02*
G37*
G36*
X70646Y150050D02*
X69054D01*
X67584Y149441D01*
X66459Y148316D01*
X65850Y146846D01*
Y145254D01*
X66459Y143784D01*
X67584Y142659D01*
X69054Y142050D01*
X70646D01*
X72116Y142659D01*
X73241Y143784D01*
X73850Y145254D01*
Y146846D01*
X73241Y148316D01*
X72116Y149441D01*
X70646Y150050D01*
D02*
G37*
G36*
X-5554D02*
X-7146D01*
X-8616Y149441D01*
X-9741Y148316D01*
X-10350Y146846D01*
Y145254D01*
X-9741Y143784D01*
X-8616Y142659D01*
X-7146Y142050D01*
X-5554D01*
X-4084Y142659D01*
X-2959Y143784D01*
X-2350Y145254D01*
Y146846D01*
X-2959Y148316D01*
X-4084Y149441D01*
X-5554Y150050D01*
D02*
G37*
G36*
X19846Y150050D02*
X18254D01*
X16784Y149441D01*
X15659Y148316D01*
X15050Y146846D01*
Y145254D01*
X15659Y143784D01*
X16784Y142659D01*
X18254Y142050D01*
X19846D01*
X21316Y142659D01*
X22441Y143784D01*
X23050Y145254D01*
Y146846D01*
X22441Y148316D01*
X21316Y149441D01*
X19846Y150050D01*
D02*
G37*
G36*
X7146D02*
X5554D01*
X4084Y149441D01*
X2959Y148316D01*
X2350Y146846D01*
Y145254D01*
X2959Y143784D01*
X4084Y142659D01*
X5554Y142050D01*
X7146D01*
X8616Y142659D01*
X9741Y143784D01*
X10350Y145254D01*
Y146846D01*
X9741Y148316D01*
X8616Y149441D01*
X7146Y150050D01*
D02*
G37*
G36*
X-18254D02*
X-19846D01*
X-21316Y149441D01*
X-22441Y148316D01*
X-23050Y146846D01*
Y145254D01*
X-22441Y143784D01*
X-21316Y142659D01*
X-19846Y142050D01*
X-18254D01*
X-16784Y142659D01*
X-15659Y143784D01*
X-15050Y145254D01*
Y146846D01*
X-15659Y148316D01*
X-16784Y149441D01*
X-18254Y150050D01*
D02*
G37*
G36*
X32546Y150050D02*
X30954D01*
X29484Y149441D01*
X28359Y148316D01*
X27750Y146846D01*
Y145254D01*
X28359Y143784D01*
X29484Y142659D01*
X30954Y142050D01*
X32546D01*
X34016Y142659D01*
X35141Y143784D01*
X35750Y145254D01*
Y146846D01*
X35141Y148316D01*
X34016Y149441D01*
X32546Y150050D01*
D02*
G37*
G36*
X686600Y142454D02*
X685000D01*
X683521Y141841D01*
X682389Y140709D01*
X681776Y139230D01*
Y137630D01*
X682389Y136151D01*
X683521Y135019D01*
X685000Y134406D01*
X686600D01*
X688079Y135019D01*
X689211Y136151D01*
X689824Y137630D01*
Y139230D01*
X689211Y140709D01*
X688079Y141841D01*
X686600Y142454D01*
D02*
G37*
G36*
X597700D02*
X596100D01*
X594621Y141841D01*
X593489Y140709D01*
X592876Y139230D01*
Y137630D01*
X593489Y136151D01*
X594621Y135019D01*
X596100Y134406D01*
X597700D01*
X599179Y135019D01*
X600311Y136151D01*
X600924Y137630D01*
Y139230D01*
X600311Y140709D01*
X599179Y141841D01*
X597700Y142454D01*
D02*
G37*
G36*
X508800D02*
X507200D01*
X505721Y141841D01*
X504589Y140709D01*
X503976Y139230D01*
Y137630D01*
X504589Y136151D01*
X505721Y135019D01*
X507200Y134406D01*
X508800D01*
X510279Y135019D01*
X511411Y136151D01*
X512024Y137630D01*
Y139230D01*
X511411Y140709D01*
X510279Y141841D01*
X508800Y142454D01*
D02*
G37*
G36*
X539276Y141160D02*
X537684D01*
X536214Y140551D01*
X535089Y139426D01*
X534480Y137956D01*
Y136364D01*
X535089Y134894D01*
X536214Y133769D01*
X537684Y133160D01*
X539276D01*
X540746Y133769D01*
X541871Y134894D01*
X542480Y136364D01*
Y137956D01*
X541871Y139426D01*
X540746Y140551D01*
X539276Y141160D01*
D02*
G37*
G36*
X529116Y461200D02*
X527524D01*
X526054Y460591D01*
X524929Y459466D01*
X524320Y457996D01*
Y456404D01*
X524694Y455501D01*
X524694Y138859D01*
X524320Y137956D01*
Y136364D01*
X524929Y134894D01*
X526054Y133769D01*
X527524Y133160D01*
X529116D01*
X530586Y133769D01*
X531711Y134894D01*
X532320Y136364D01*
Y137956D01*
X531946Y138859D01*
X531946Y455501D01*
X532320Y456404D01*
Y457996D01*
X531711Y459466D01*
X530586Y460591D01*
X529116Y461200D01*
D02*
G37*
G36*
X674237Y59436D02*
X673608D01*
Y51308D01*
X681736D01*
Y51937D01*
X681148Y54133D01*
X680011Y56103D01*
X678403Y57710D01*
X676433Y58847D01*
X674237Y59436D01*
D02*
G37*
G36*
X672592D02*
X671963D01*
X669767Y58847D01*
X667797Y57710D01*
X666189Y56103D01*
X665052Y54133D01*
X664464Y51937D01*
Y51308D01*
X672592D01*
Y59436D01*
D02*
G37*
G36*
X553250Y53554D02*
X551650D01*
X550171Y52941D01*
X549039Y51809D01*
X548426Y50330D01*
Y48730D01*
X549039Y47251D01*
X550171Y46119D01*
X551650Y45506D01*
X553250D01*
X554729Y46119D01*
X555861Y47251D01*
X556474Y48730D01*
Y50330D01*
X555861Y51809D01*
X554729Y52941D01*
X553250Y53554D01*
D02*
G37*
G36*
X681736Y50292D02*
X673608D01*
Y42164D01*
X674237D01*
X676433Y42752D01*
X678403Y43889D01*
X680011Y45497D01*
X681148Y47467D01*
X681736Y49663D01*
Y50292D01*
D02*
G37*
G36*
X672592D02*
X664464D01*
Y49663D01*
X665052Y47467D01*
X666189Y45497D01*
X667797Y43889D01*
X669767Y42752D01*
X671963Y42164D01*
X672592D01*
Y50292D01*
D02*
G37*
G36*
X648837Y59436D02*
X646563D01*
X644367Y58847D01*
X642397Y57710D01*
X640789Y56103D01*
X639652Y54133D01*
X639064Y51937D01*
Y49663D01*
X639652Y47467D01*
X640789Y45497D01*
X642397Y43889D01*
X644367Y42752D01*
X646563Y42164D01*
X648837D01*
X651033Y42752D01*
X653003Y43889D01*
X654611Y45497D01*
X655748Y47467D01*
X656336Y49663D01*
Y51937D01*
X655748Y54133D01*
X654611Y56103D01*
X653003Y57710D01*
X651033Y58847D01*
X648837Y59436D01*
D02*
G37*
G36*
X662479Y26416D02*
X658321D01*
X654214Y25766D01*
X650260Y24481D01*
X646555Y22593D01*
X643191Y20149D01*
X640251Y17209D01*
X637807Y13845D01*
X635919Y10140D01*
X634634Y6186D01*
X633984Y2079D01*
Y-2079D01*
X634634Y-6186D01*
X635919Y-10140D01*
X637807Y-13845D01*
X640251Y-17209D01*
X643191Y-20149D01*
X646555Y-22593D01*
X650260Y-24481D01*
X654214Y-25766D01*
X658321Y-26416D01*
X662479D01*
X666586Y-25766D01*
X670540Y-24481D01*
X674245Y-22593D01*
X677609Y-20149D01*
X680549Y-17209D01*
X682993Y-13845D01*
X684881Y-10140D01*
X686166Y-6186D01*
X686816Y-2079D01*
Y2079D01*
X686166Y6186D01*
X684881Y10140D01*
X682993Y13845D01*
X680549Y17209D01*
X677609Y20149D01*
X674245Y22593D01*
X670540Y24481D01*
X666586Y25766D01*
X662479Y26416D01*
D02*
G37*
G36*
X2079D02*
X-2079D01*
X-6186Y25766D01*
X-10140Y24481D01*
X-13845Y22593D01*
X-17209Y20149D01*
X-20149Y17209D01*
X-22593Y13845D01*
X-24481Y10140D01*
X-25766Y6186D01*
X-26416Y2079D01*
Y-2079D01*
X-25766Y-6186D01*
X-24481Y-10140D01*
X-22593Y-13845D01*
X-20149Y-17209D01*
X-17209Y-20149D01*
X-13845Y-22593D01*
X-10140Y-24481D01*
X-6186Y-25766D01*
X-2079Y-26416D01*
X2079D01*
X6186Y-25766D01*
X10140Y-24481D01*
X13845Y-22593D01*
X17209Y-20149D01*
X20149Y-17209D01*
X22593Y-13845D01*
X24481Y-10140D01*
X25766Y-6186D01*
X26416Y-2079D01*
Y2079D01*
X25766Y6186D01*
X24481Y10140D01*
X22593Y13845D01*
X20149Y17209D01*
X17209Y20149D01*
X13845Y22593D01*
X10140Y24481D01*
X6186Y25766D01*
X2079Y26416D01*
D02*
G37*
%LPD*%
G36*
X513057Y658138D02*
X512831Y658133D01*
X512613Y658112D01*
X512403Y658076D01*
X512201Y658025D01*
X512006Y657958D01*
X511820Y657876D01*
X511641Y657779D01*
X511471Y657666D01*
X511308Y657539D01*
X511153Y657395D01*
X510075Y658473D01*
X510219Y658628D01*
X510346Y658791D01*
X510459Y658961D01*
X510556Y659140D01*
X510638Y659326D01*
X510705Y659521D01*
X510756Y659723D01*
X510792Y659933D01*
X510813Y660151D01*
X510818Y660377D01*
X513057Y658138D01*
D02*
G37*
G36*
X505187Y660151D02*
X505208Y659933D01*
X505244Y659723D01*
X505295Y659521D01*
X505362Y659326D01*
X505444Y659140D01*
X505541Y658961D01*
X505653Y658791D01*
X505781Y658628D01*
X505924Y658473D01*
X504847Y657395D01*
X504692Y657539D01*
X504529Y657666D01*
X504359Y657779D01*
X504180Y657876D01*
X503994Y657958D01*
X503799Y658025D01*
X503597Y658076D01*
X503387Y658112D01*
X503169Y658133D01*
X502943Y658138D01*
X505182Y660377D01*
X505187Y660151D01*
D02*
G37*
G36*
X530270Y628885D02*
X530297Y628783D01*
X530343Y628670D01*
X530407Y628549D01*
X530490Y628417D01*
X530591Y628276D01*
X530849Y627965D01*
X531006Y627795D01*
X531181Y627615D01*
X529385Y625819D01*
X529205Y625994D01*
X528724Y626409D01*
X528583Y626511D01*
X528451Y626593D01*
X528330Y626657D01*
X528218Y626703D01*
X528115Y626730D01*
X528023Y626738D01*
X530262Y628977D01*
X530270Y628885D01*
D02*
G37*
G36*
X471748Y588952D02*
X471635Y589129D01*
X471511Y589288D01*
X471375Y589428D01*
X471227Y589549D01*
X471068Y589652D01*
X470897Y589736D01*
X470715Y589801D01*
X470521Y589848D01*
X470316Y589876D01*
X470099Y589885D01*
X470524Y591409D01*
X470726Y591415D01*
X470928Y591434D01*
X471130Y591464D01*
X471332Y591507D01*
X471534Y591561D01*
X471736Y591628D01*
X471939Y591707D01*
X472343Y591902D01*
X472545Y592017D01*
X471748Y588952D01*
D02*
G37*
G36*
X600775Y584666D02*
X601256Y584251D01*
X601397Y584150D01*
X601529Y584067D01*
X601650Y584003D01*
X601762Y583957D01*
X601865Y583930D01*
X601957Y583922D01*
X600365Y582329D01*
Y580077D01*
X600293Y580136D01*
X600202Y580189D01*
X600090Y580236D01*
X599959Y580277D01*
X599808Y580312D01*
X599636Y580340D01*
X599234Y580378D01*
X599002Y580387D01*
X598751Y580390D01*
Y582930D01*
X598909Y582932D01*
X598799Y583045D01*
X600595Y584841D01*
X600775Y584666D01*
D02*
G37*
G36*
X104781Y250305D02*
X104606Y250125D01*
X104191Y249644D01*
X104089Y249503D01*
X104007Y249371D01*
X103943Y249250D01*
X103897Y249138D01*
X103870Y249035D01*
X103862Y248943D01*
X101623Y251182D01*
X101715Y251190D01*
X101818Y251217D01*
X101930Y251263D01*
X102051Y251327D01*
X102183Y251409D01*
X102324Y251511D01*
X102635Y251769D01*
X102805Y251926D01*
X102985Y252101D01*
X104781Y250305D01*
D02*
G37*
G36*
X138378Y552720D02*
X137192Y552718D01*
X134201Y552530D01*
X133393Y552407D01*
X132680Y552255D01*
X132061Y552072D01*
X131537Y551860D01*
X131108Y551617D01*
X130773Y551345D01*
X129875Y552243D01*
X130147Y552578D01*
X130390Y553007D01*
X130602Y553531D01*
X130785Y554150D01*
X130937Y554863D01*
X131060Y555671D01*
X131215Y557570D01*
X131250Y559848D01*
X138378Y552720D01*
D02*
G37*
G36*
X133483Y537948D02*
X133322Y537761D01*
X133180Y537572D01*
X133056Y537382D01*
X132952Y537192D01*
X132867Y537000D01*
X132800Y536807D01*
X132753Y536613D01*
X132725Y536418D01*
X132715Y536222D01*
X131445D01*
X131435Y536418D01*
X131407Y536613D01*
X131360Y536807D01*
X131293Y537000D01*
X131208Y537192D01*
X131104Y537382D01*
X130980Y537572D01*
X130838Y537761D01*
X130677Y537948D01*
X130497Y538135D01*
X133663D01*
X133483Y537948D01*
D02*
G37*
G36*
X201267Y520689D02*
X199095Y518260D01*
X198564Y517560D01*
X198130Y516914D01*
X197792Y516322D01*
X197551Y515785D01*
X197406Y515303D01*
X197358Y514875D01*
X196342D01*
X196294Y515303D01*
X196149Y515785D01*
X195908Y516322D01*
X195570Y516914D01*
X195135Y517560D01*
X194605Y518260D01*
X193253Y519825D01*
X191516Y521608D01*
X202184D01*
X201267Y520689D01*
D02*
G37*
G36*
X197406Y507047D02*
X197551Y506565D01*
X197792Y506028D01*
X198130Y505436D01*
X198564Y504790D01*
X199095Y504090D01*
X200447Y502525D01*
X202184Y500742D01*
X191516D01*
X192433Y501661D01*
X194605Y504090D01*
X195135Y504790D01*
X195570Y505436D01*
X195908Y506028D01*
X196149Y506565D01*
X196294Y507047D01*
X196342Y507475D01*
X197358D01*
X197406Y507047D01*
D02*
G37*
G36*
X332002Y490353D02*
X332189Y490192D01*
X332378Y490050D01*
X332568Y489926D01*
X332758Y489822D01*
X332950Y489737D01*
X333143Y489670D01*
X333337Y489623D01*
X333532Y489594D01*
X333728Y489585D01*
Y488315D01*
X333532Y488306D01*
X333337Y488277D01*
X333143Y488230D01*
X332950Y488163D01*
X332758Y488078D01*
X332568Y487974D01*
X332378Y487850D01*
X332189Y487708D01*
X332002Y487547D01*
X331815Y487367D01*
Y490533D01*
X332002Y490353D01*
D02*
G37*
G36*
X93355Y485932D02*
X93383Y485737D01*
X93430Y485543D01*
X93497Y485350D01*
X93582Y485158D01*
X93686Y484968D01*
X93810Y484778D01*
X93952Y484589D01*
X94113Y484402D01*
X94293Y484215D01*
X91127D01*
X91307Y484402D01*
X91468Y484589D01*
X91610Y484778D01*
X91734Y484968D01*
X91838Y485158D01*
X91923Y485350D01*
X91990Y485543D01*
X92037Y485737D01*
X92065Y485932D01*
X92075Y486128D01*
X93345D01*
X93355Y485932D01*
D02*
G37*
G36*
X383261Y479747D02*
X383276Y479511D01*
X383307Y479286D01*
X383353Y479072D01*
X383413Y478869D01*
X383489Y478676D01*
X383580Y478495D01*
X383686Y478324D01*
X383807Y478163D01*
X383944Y478014D01*
X383046Y477116D01*
X382896Y477253D01*
X382736Y477374D01*
X382565Y477480D01*
X382384Y477571D01*
X382191Y477647D01*
X381988Y477707D01*
X381774Y477753D01*
X381549Y477784D01*
X381313Y477799D01*
X381067Y477799D01*
X383261Y479994D01*
X383261Y479747D01*
D02*
G37*
G36*
X370566Y479778D02*
X370585Y479532D01*
X370618Y479297D01*
X370665Y479076D01*
X370726Y478868D01*
X370801Y478672D01*
X370891Y478488D01*
X370994Y478318D01*
X371112Y478159D01*
X371244Y478014D01*
X370346Y477116D01*
X370201Y477248D01*
X370042Y477366D01*
X369872Y477469D01*
X369688Y477559D01*
X369492Y477634D01*
X369284Y477695D01*
X369062Y477742D01*
X368829Y477775D01*
X368582Y477794D01*
X368323Y477798D01*
X370562Y480037D01*
X370566Y479778D01*
D02*
G37*
G36*
X92079Y279716D02*
X93134Y277302D01*
X92897Y277388D01*
X92669Y277450D01*
X92452Y277488D01*
X92245Y277501D01*
X92048Y277491D01*
X91861Y277457D01*
X91684Y277399D01*
X91517Y277317D01*
X91360Y277211D01*
X91213Y277081D01*
X90786Y278091D01*
X90877Y278192D01*
X90972Y278318D01*
X91070Y278468D01*
X91279Y278842D01*
X91502Y279314D01*
X91503Y279316D01*
X91440Y279370D01*
X91333Y279438D01*
X91213Y279491D01*
X91081Y279529D01*
X90936Y279551D01*
X90780Y279559D01*
Y280575D01*
X90994Y280580D01*
X91199Y280597D01*
X91394Y280624D01*
X91581Y280662D01*
X91759Y280711D01*
X91927Y280771D01*
X92087Y280842D01*
X92238Y280924D01*
X92379Y281017D01*
X92512Y281121D01*
X92079Y279716D01*
D02*
G37*
G36*
X85704Y280664D02*
X85741Y280645D01*
X85793Y280629D01*
X85859Y280614D01*
X85940Y280602D01*
X86146Y280585D01*
X86563Y280575D01*
Y279559D01*
X86472Y279557D01*
X86318Y279543D01*
X86256Y279531D01*
X86203Y279516D01*
X86159Y279497D01*
X86126Y279475D01*
X86102Y279449D01*
X86087Y279420D01*
X86086Y279412D01*
X86099Y279209D01*
X86172Y278667D01*
X86224Y278425D01*
X86287Y278200D01*
X86361Y277995D01*
X86446Y277807D01*
X86542Y277638D01*
X86648Y277488D01*
X86765Y277356D01*
X86089Y276596D01*
X85951Y276717D01*
X85797Y276824D01*
X85627Y276916D01*
X85440Y276994D01*
X85236Y277056D01*
X85016Y277103D01*
X84780Y277135D01*
X84527Y277153D01*
X84258Y277155D01*
X83972Y277143D01*
X86054Y279478D01*
X85682Y280685D01*
X85704Y280664D01*
D02*
G37*
G36*
X339622Y237623D02*
X339809Y237462D01*
X339998Y237320D01*
X340188Y237196D01*
X340378Y237092D01*
X340570Y237007D01*
X340763Y236940D01*
X340957Y236893D01*
X341152Y236864D01*
X341348Y236855D01*
Y235585D01*
X341152Y235576D01*
X340957Y235547D01*
X340763Y235500D01*
X340570Y235433D01*
X340378Y235348D01*
X340188Y235244D01*
X339998Y235120D01*
X339809Y234978D01*
X339622Y234817D01*
X339435Y234637D01*
Y237803D01*
X339622Y237623D01*
D02*
G37*
G36*
X506105Y231932D02*
X506133Y231737D01*
X506180Y231543D01*
X506247Y231350D01*
X506332Y231158D01*
X506436Y230968D01*
X506560Y230778D01*
X506702Y230589D01*
X506863Y230402D01*
X507043Y230215D01*
X503877D01*
X504057Y230402D01*
X504218Y230589D01*
X504360Y230778D01*
X504484Y230968D01*
X504588Y231158D01*
X504673Y231350D01*
X504740Y231543D01*
X504787Y231737D01*
X504815Y231932D01*
X504825Y232128D01*
X506095D01*
X506105Y231932D01*
D02*
G37*
G36*
X428522Y207143D02*
X428709Y206982D01*
X428898Y206840D01*
X429088Y206716D01*
X429278Y206612D01*
X429470Y206527D01*
X429663Y206460D01*
X429857Y206413D01*
X430052Y206385D01*
X430248Y206375D01*
Y205105D01*
X430052Y205096D01*
X429857Y205067D01*
X429663Y205020D01*
X429470Y204953D01*
X429278Y204868D01*
X429088Y204764D01*
X428898Y204640D01*
X428709Y204498D01*
X428522Y204337D01*
X428335Y204157D01*
Y207323D01*
X428522Y207143D01*
D02*
G37*
G36*
X322306Y202918D02*
X322325Y202672D01*
X322358Y202437D01*
X322405Y202216D01*
X322466Y202008D01*
X322541Y201812D01*
X322631Y201628D01*
X322734Y201458D01*
X322852Y201299D01*
X322984Y201154D01*
X322086Y200256D01*
X321940Y200388D01*
X321782Y200506D01*
X321612Y200609D01*
X321428Y200699D01*
X321232Y200774D01*
X321024Y200835D01*
X320802Y200882D01*
X320569Y200915D01*
X320322Y200934D01*
X320063Y200938D01*
X322302Y203177D01*
X322306Y202918D01*
D02*
G37*
G36*
X313416D02*
X313435Y202672D01*
X313468Y202437D01*
X313515Y202216D01*
X313576Y202008D01*
X313651Y201812D01*
X313741Y201628D01*
X313844Y201458D01*
X313962Y201299D01*
X314094Y201154D01*
X313196Y200256D01*
X313050Y200388D01*
X312892Y200506D01*
X312722Y200609D01*
X312538Y200699D01*
X312342Y200774D01*
X312134Y200835D01*
X311912Y200882D01*
X311679Y200915D01*
X311432Y200934D01*
X311173Y200938D01*
X313412Y203177D01*
X313416Y202918D01*
D02*
G37*
G36*
X304526D02*
X304545Y202672D01*
X304578Y202437D01*
X304625Y202216D01*
X304686Y202008D01*
X304761Y201812D01*
X304851Y201628D01*
X304954Y201458D01*
X305072Y201299D01*
X305204Y201154D01*
X304306Y200256D01*
X304160Y200388D01*
X304002Y200506D01*
X303832Y200609D01*
X303648Y200699D01*
X303452Y200774D01*
X303244Y200835D01*
X303022Y200882D01*
X302789Y200915D01*
X302542Y200934D01*
X302283Y200938D01*
X304522Y203177D01*
X304526Y202918D01*
D02*
G37*
G36*
X295636D02*
X295655Y202672D01*
X295688Y202437D01*
X295735Y202216D01*
X295796Y202008D01*
X295871Y201812D01*
X295961Y201628D01*
X296064Y201458D01*
X296182Y201299D01*
X296314Y201154D01*
X295416Y200256D01*
X295271Y200388D01*
X295112Y200506D01*
X294942Y200609D01*
X294758Y200699D01*
X294562Y200774D01*
X294354Y200835D01*
X294132Y200882D01*
X293899Y200915D01*
X293652Y200934D01*
X293393Y200938D01*
X295632Y203177D01*
X295636Y202918D01*
D02*
G37*
G36*
X418362Y201718D02*
X418549Y201557D01*
X418738Y201415D01*
X418928Y201291D01*
X419118Y201187D01*
X419310Y201102D01*
X419503Y201035D01*
X419697Y200988D01*
X419892Y200959D01*
X420088Y200950D01*
Y199680D01*
X419892Y199671D01*
X419697Y199642D01*
X419503Y199595D01*
X419310Y199528D01*
X419118Y199443D01*
X418928Y199339D01*
X418738Y199215D01*
X418549Y199073D01*
X418362Y198912D01*
X418175Y198732D01*
Y201898D01*
X418362Y201718D01*
D02*
G37*
G36*
X515597Y197128D02*
X515338Y197124D01*
X515092Y197105D01*
X514857Y197072D01*
X514636Y197025D01*
X514428Y196964D01*
X514232Y196889D01*
X514048Y196800D01*
X513878Y196696D01*
X513719Y196578D01*
X513574Y196446D01*
X512676Y197344D01*
X512808Y197489D01*
X512926Y197648D01*
X513030Y197818D01*
X513119Y198002D01*
X513194Y198198D01*
X513255Y198406D01*
X513302Y198627D01*
X513335Y198862D01*
X513354Y199108D01*
X513358Y199367D01*
X515597Y197128D01*
D02*
G37*
G36*
X275567Y193318D02*
X275308Y193314D01*
X275061Y193295D01*
X274827Y193262D01*
X274606Y193215D01*
X274398Y193154D01*
X274202Y193079D01*
X274018Y192990D01*
X273848Y192886D01*
X273689Y192768D01*
X273544Y192636D01*
X272646Y193534D01*
X272778Y193680D01*
X272896Y193838D01*
X272999Y194008D01*
X273089Y194192D01*
X273164Y194388D01*
X273225Y194596D01*
X273272Y194818D01*
X273305Y195051D01*
X273324Y195298D01*
X273328Y195557D01*
X275567Y193318D01*
D02*
G37*
G36*
X266677D02*
X266418Y193314D01*
X266171Y193295D01*
X265938Y193262D01*
X265716Y193215D01*
X265508Y193154D01*
X265312Y193079D01*
X265128Y192990D01*
X264958Y192886D01*
X264799Y192768D01*
X264654Y192636D01*
X263756Y193534D01*
X263888Y193680D01*
X264006Y193838D01*
X264109Y194008D01*
X264199Y194192D01*
X264274Y194388D01*
X264335Y194596D01*
X264382Y194818D01*
X264415Y195051D01*
X264434Y195298D01*
X264438Y195557D01*
X266677Y193318D01*
D02*
G37*
G36*
X257787D02*
X257528Y193314D01*
X257281Y193295D01*
X257048Y193262D01*
X256826Y193215D01*
X256618Y193154D01*
X256422Y193079D01*
X256238Y192990D01*
X256068Y192886D01*
X255910Y192768D01*
X255764Y192636D01*
X254866Y193534D01*
X254998Y193680D01*
X255116Y193838D01*
X255219Y194008D01*
X255309Y194192D01*
X255384Y194388D01*
X255445Y194596D01*
X255492Y194818D01*
X255525Y195051D01*
X255544Y195298D01*
X255548Y195557D01*
X257787Y193318D01*
D02*
G37*
G36*
X242296Y195298D02*
X242315Y195051D01*
X242348Y194818D01*
X242395Y194596D01*
X242456Y194388D01*
X242531Y194192D01*
X242621Y194008D01*
X242724Y193838D01*
X242842Y193680D01*
X242974Y193534D01*
X242076Y192636D01*
X241931Y192768D01*
X241772Y192886D01*
X241602Y192990D01*
X241418Y193079D01*
X241222Y193154D01*
X241014Y193215D01*
X240793Y193262D01*
X240558Y193295D01*
X240312Y193314D01*
X240053Y193318D01*
X242292Y195557D01*
X242296Y195298D01*
D02*
G37*
G36*
X233406D02*
X233425Y195051D01*
X233458Y194818D01*
X233505Y194596D01*
X233566Y194388D01*
X233641Y194192D01*
X233731Y194008D01*
X233834Y193838D01*
X233952Y193680D01*
X234084Y193534D01*
X233186Y192636D01*
X233041Y192768D01*
X232882Y192886D01*
X232712Y192990D01*
X232528Y193079D01*
X232332Y193154D01*
X232124Y193215D01*
X231903Y193262D01*
X231668Y193295D01*
X231422Y193314D01*
X231163Y193318D01*
X233402Y195557D01*
X233406Y195298D01*
D02*
G37*
G36*
X224516D02*
X224535Y195051D01*
X224568Y194818D01*
X224615Y194596D01*
X224676Y194388D01*
X224751Y194192D01*
X224841Y194008D01*
X224944Y193838D01*
X225062Y193680D01*
X225194Y193534D01*
X224296Y192636D01*
X224151Y192768D01*
X223992Y192886D01*
X223822Y192990D01*
X223638Y193079D01*
X223442Y193154D01*
X223234Y193215D01*
X223013Y193262D01*
X222778Y193295D01*
X222532Y193314D01*
X222273Y193318D01*
X224512Y195557D01*
X224516Y195298D01*
D02*
G37*
G36*
X250323Y193778D02*
X250162Y193591D01*
X250020Y193402D01*
X249896Y193212D01*
X249792Y193022D01*
X249707Y192830D01*
X249640Y192637D01*
X249593Y192443D01*
X249564Y192248D01*
X249555Y192052D01*
X248285D01*
X248276Y192248D01*
X248247Y192443D01*
X248200Y192637D01*
X248133Y192830D01*
X248048Y193022D01*
X247944Y193212D01*
X247820Y193402D01*
X247678Y193591D01*
X247517Y193778D01*
X247337Y193965D01*
X250503D01*
X250323Y193778D01*
D02*
G37*
G36*
X515014Y188321D02*
X514810Y188373D01*
X514364Y188461D01*
X513865Y188526D01*
X513020Y188584D01*
X512391Y188595D01*
X512092Y189865D01*
X512305Y189875D01*
X512500Y189907D01*
X512677Y189958D01*
X512835Y190031D01*
X512975Y190125D01*
X513096Y190239D01*
X513198Y190374D01*
X513282Y190529D01*
X513347Y190706D01*
X513394Y190903D01*
X515014Y188321D01*
D02*
G37*
G36*
X513719Y184422D02*
X513878Y184304D01*
X514048Y184200D01*
X514232Y184111D01*
X514428Y184036D01*
X514636Y183975D01*
X514857Y183928D01*
X515092Y183895D01*
X515338Y183876D01*
X515597Y183872D01*
X513358Y181633D01*
X513354Y181892D01*
X513335Y182139D01*
X513302Y182372D01*
X513255Y182594D01*
X513194Y182802D01*
X513119Y182998D01*
X513030Y183182D01*
X512926Y183352D01*
X512808Y183510D01*
X512676Y183656D01*
X513574Y184554D01*
X513719Y184422D01*
D02*
G37*
G36*
Y175532D02*
X513878Y175414D01*
X514048Y175310D01*
X514232Y175221D01*
X514428Y175146D01*
X514636Y175085D01*
X514857Y175038D01*
X515092Y175005D01*
X515338Y174986D01*
X515597Y174982D01*
X513358Y172743D01*
X513354Y173002D01*
X513335Y173249D01*
X513302Y173482D01*
X513255Y173704D01*
X513194Y173912D01*
X513119Y174108D01*
X513030Y174292D01*
X512926Y174462D01*
X512808Y174620D01*
X512676Y174766D01*
X513574Y175664D01*
X513719Y175532D01*
D02*
G37*
G36*
X673024Y144780D02*
X671759Y144778D01*
X668573Y144583D01*
X667715Y144455D01*
X666958Y144297D01*
X666303Y144107D01*
X665749Y143885D01*
X665297Y143633D01*
X664947Y143349D01*
X664049Y144247D01*
X664333Y144597D01*
X664585Y145049D01*
X664807Y145603D01*
X664997Y146258D01*
X665155Y147015D01*
X665283Y147873D01*
X665444Y149895D01*
X665480Y152324D01*
X673024Y144780D01*
D02*
G37*
G36*
X642258Y121666D02*
X641362Y122559D01*
X638972Y124673D01*
X638274Y125190D01*
X637627Y125613D01*
X637029Y125942D01*
X636481Y126177D01*
X635983Y126318D01*
X635535Y126365D01*
Y127635D01*
X635983Y127682D01*
X636481Y127823D01*
X637029Y128058D01*
X637627Y128387D01*
X638274Y128810D01*
X638972Y129327D01*
X640515Y130642D01*
X642258Y132334D01*
Y121666D01*
D02*
G37*
G36*
X673024Y119380D02*
X671759Y119378D01*
X668573Y119183D01*
X667715Y119055D01*
X666958Y118897D01*
X666303Y118707D01*
X665749Y118485D01*
X665297Y118233D01*
X664947Y117949D01*
X664049Y118847D01*
X664333Y119197D01*
X664585Y119649D01*
X664807Y120203D01*
X664997Y120858D01*
X665155Y121615D01*
X665283Y122473D01*
X665444Y124495D01*
X665480Y126924D01*
X673024Y119380D01*
D02*
G37*
G36*
X479784Y99985D02*
X479724Y99913D01*
X479671Y99822D01*
X479624Y99710D01*
X479583Y99579D01*
X479548Y99427D01*
X479520Y99256D01*
X479483Y98854D01*
X479473Y98622D01*
X479470Y98371D01*
X476930Y98371D01*
X476927Y98622D01*
X476880Y99256D01*
X476852Y99428D01*
X476817Y99579D01*
X476777Y99710D01*
X476730Y99822D01*
X476676Y99913D01*
X476617Y99985D01*
X479784Y99985D01*
D02*
G37*
G36*
X471783D02*
X471724Y99913D01*
X471671Y99822D01*
X471624Y99710D01*
X471583Y99579D01*
X471548Y99427D01*
X471520Y99256D01*
X471483Y98854D01*
X471473Y98622D01*
X471470Y98371D01*
X468930Y98371D01*
X468927Y98622D01*
X468880Y99256D01*
X468852Y99428D01*
X468817Y99579D01*
X468777Y99710D01*
X468730Y99822D01*
X468676Y99913D01*
X468617Y99985D01*
X471783Y99985D01*
D02*
G37*
G36*
X463783D02*
X463724Y99913D01*
X463671Y99822D01*
X463624Y99710D01*
X463583Y99579D01*
X463548Y99427D01*
X463520Y99256D01*
X463483Y98854D01*
X463473Y98622D01*
X463470Y98371D01*
X460930Y98371D01*
X460927Y98622D01*
X460880Y99256D01*
X460852Y99428D01*
X460817Y99579D01*
X460776Y99710D01*
X460729Y99822D01*
X460676Y99913D01*
X460617Y99985D01*
X463783Y99985D01*
D02*
G37*
G36*
X641445Y97248D02*
X640761Y98195D01*
X639456Y99791D01*
X638834Y100440D01*
X638232Y100988D01*
X637652Y101437D01*
X637091Y101786D01*
X636552Y102036D01*
X636033Y102185D01*
X635535Y102235D01*
X635750Y103505D01*
X636113Y103548D01*
X636562Y103675D01*
X637096Y103889D01*
X637715Y104187D01*
X639210Y105039D01*
X641046Y106232D01*
X643223Y107766D01*
X641445Y97248D01*
D02*
G37*
G36*
X319724Y97373D02*
X319671Y97282D01*
X319624Y97170D01*
X319583Y97039D01*
X319548Y96888D01*
X319520Y96716D01*
X319482Y96314D01*
X319473Y96082D01*
X319470Y95831D01*
X316930D01*
X316927Y96082D01*
X316880Y96716D01*
X316852Y96888D01*
X316817Y97039D01*
X316776Y97170D01*
X316729Y97282D01*
X316676Y97373D01*
X316617Y97445D01*
X319783D01*
X319724Y97373D01*
D02*
G37*
G36*
X311724D02*
X311671Y97282D01*
X311624Y97170D01*
X311583Y97039D01*
X311548Y96888D01*
X311520Y96716D01*
X311483Y96314D01*
X311473Y96082D01*
X311470Y95831D01*
X308930D01*
X308927Y96082D01*
X308880Y96716D01*
X308852Y96888D01*
X308817Y97039D01*
X308776Y97170D01*
X308729Y97282D01*
X308676Y97373D01*
X308617Y97445D01*
X311783D01*
X311724Y97373D01*
D02*
G37*
G36*
X673024Y93980D02*
X671759Y93978D01*
X668573Y93783D01*
X667715Y93655D01*
X666958Y93497D01*
X666303Y93307D01*
X665749Y93085D01*
X665297Y92833D01*
X664947Y92549D01*
X664049Y93447D01*
X664333Y93797D01*
X664585Y94249D01*
X664807Y94803D01*
X664997Y95458D01*
X665155Y96215D01*
X665283Y97073D01*
X665444Y99095D01*
X665480Y101524D01*
X673024Y93980D01*
D02*
G37*
G36*
X487724Y88483D02*
X487671Y88392D01*
X487623Y88280D01*
X487583Y88149D01*
X487548Y87998D01*
X487520Y87826D01*
X487482Y87424D01*
X487473Y87192D01*
X487470Y86941D01*
X484930D01*
X484927Y87192D01*
X484880Y87826D01*
X484852Y87998D01*
X484817Y88149D01*
X484776Y88280D01*
X484729Y88392D01*
X484676Y88483D01*
X484617Y88555D01*
X487783D01*
X487724Y88483D01*
D02*
G37*
G36*
X455724D02*
X455671Y88392D01*
X455624Y88280D01*
X455583Y88149D01*
X455548Y87998D01*
X455520Y87826D01*
X455482Y87424D01*
X455473Y87192D01*
X455470Y86941D01*
X452930Y86941D01*
X452927Y87192D01*
X452880Y87826D01*
X452852Y87998D01*
X452817Y88149D01*
X452776Y88280D01*
X452729Y88392D01*
X452676Y88483D01*
X452617Y88555D01*
X455783Y88555D01*
X455724Y88483D01*
D02*
G37*
G36*
X439724Y88483D02*
X439670Y88392D01*
X439623Y88280D01*
X439583Y88149D01*
X439548Y87998D01*
X439520Y87826D01*
X439482Y87424D01*
X439473Y87192D01*
X439470Y86941D01*
X436930Y86941D01*
X436927Y87192D01*
X436880Y87826D01*
X436852Y87998D01*
X436817Y88149D01*
X436776Y88280D01*
X436729Y88392D01*
X436676Y88483D01*
X436617Y88555D01*
X439783Y88555D01*
X439724Y88483D01*
D02*
G37*
G36*
X423724D02*
X423671Y88392D01*
X423624Y88280D01*
X423583Y88149D01*
X423548Y87998D01*
X423520Y87826D01*
X423483Y87424D01*
X423473Y87192D01*
X423470Y86941D01*
X420930Y86941D01*
X420927Y87192D01*
X420880Y87826D01*
X420852Y87998D01*
X420817Y88149D01*
X420776Y88280D01*
X420729Y88392D01*
X420676Y88483D01*
X420616Y88555D01*
X423783Y88555D01*
X423724Y88483D01*
D02*
G37*
G36*
X399724D02*
X399670Y88392D01*
X399623Y88280D01*
X399583Y88149D01*
X399548Y87998D01*
X399520Y87826D01*
X399482Y87424D01*
X399473Y87192D01*
X399470Y86941D01*
X396930Y86941D01*
X396927Y87192D01*
X396880Y87826D01*
X396852Y87998D01*
X396817Y88149D01*
X396776Y88280D01*
X396729Y88392D01*
X396676Y88483D01*
X396617Y88555D01*
X399783Y88555D01*
X399724Y88483D01*
D02*
G37*
G36*
X375724Y88483D02*
X375671Y88392D01*
X375624Y88280D01*
X375583Y88149D01*
X375548Y87998D01*
X375520Y87826D01*
X375482Y87424D01*
X375473Y87192D01*
X375470Y86941D01*
X372930Y86941D01*
X372927Y87192D01*
X372880Y87826D01*
X372852Y87998D01*
X372817Y88149D01*
X372776Y88280D01*
X372729Y88392D01*
X372676Y88483D01*
X372617Y88555D01*
X375783Y88555D01*
X375724Y88483D01*
D02*
G37*
G36*
X351724Y88483D02*
X351670Y88392D01*
X351623Y88280D01*
X351583Y88149D01*
X351548Y87998D01*
X351520Y87826D01*
X351482Y87424D01*
X351473Y87192D01*
X351470Y86941D01*
X348930Y86941D01*
X348927Y87192D01*
X348880Y87826D01*
X348852Y87998D01*
X348817Y88149D01*
X348776Y88280D01*
X348729Y88392D01*
X348676Y88483D01*
X348616Y88554D01*
X351783Y88555D01*
X351724Y88483D01*
D02*
G37*
G36*
X327724D02*
X327671Y88392D01*
X327623Y88280D01*
X327583Y88149D01*
X327548Y87998D01*
X327520Y87826D01*
X327482Y87424D01*
X327473Y87192D01*
X327470Y86941D01*
X324930Y86941D01*
X324927Y87192D01*
X324880Y87826D01*
X324851Y87998D01*
X324817Y88149D01*
X324776Y88280D01*
X324729Y88392D01*
X324676Y88483D01*
X324617Y88554D01*
X327783Y88555D01*
X327724Y88483D01*
D02*
G37*
G36*
X303724D02*
X303670Y88392D01*
X303623Y88280D01*
X303583Y88149D01*
X303548Y87998D01*
X303520Y87826D01*
X303482Y87424D01*
X303473Y87192D01*
X303470Y86941D01*
X300930Y86941D01*
X300927Y87192D01*
X300880Y87826D01*
X300851Y87998D01*
X300817Y88149D01*
X300776Y88280D01*
X300729Y88392D01*
X300676Y88483D01*
X300616Y88554D01*
X303783Y88555D01*
X303724Y88483D01*
D02*
G37*
G36*
X279724Y88483D02*
X279670Y88392D01*
X279623Y88280D01*
X279583Y88149D01*
X279548Y87998D01*
X279520Y87826D01*
X279482Y87424D01*
X279473Y87192D01*
X279470Y86941D01*
X276930Y86941D01*
X276927Y87192D01*
X276880Y87826D01*
X276852Y87998D01*
X276817Y88149D01*
X276776Y88280D01*
X276729Y88392D01*
X276676Y88483D01*
X276616Y88554D01*
X279783Y88555D01*
X279724Y88483D01*
D02*
G37*
G36*
X255724D02*
X255670Y88392D01*
X255623Y88280D01*
X255583Y88149D01*
X255548Y87998D01*
X255520Y87826D01*
X255482Y87424D01*
X255473Y87192D01*
X255470Y86941D01*
X252930Y86941D01*
X252927Y87192D01*
X252880Y87826D01*
X252852Y87998D01*
X252817Y88149D01*
X252776Y88280D01*
X252729Y88392D01*
X252676Y88483D01*
X252616Y88554D01*
X255783Y88555D01*
X255724Y88483D01*
D02*
G37*
G36*
X231724Y88483D02*
X231670Y88392D01*
X231623Y88280D01*
X231583Y88149D01*
X231548Y87998D01*
X231520Y87826D01*
X231482Y87424D01*
X231473Y87192D01*
X231470Y86941D01*
X228930Y86941D01*
X228927Y87192D01*
X228880Y87826D01*
X228852Y87998D01*
X228817Y88149D01*
X228776Y88280D01*
X228729Y88392D01*
X228676Y88483D01*
X228616Y88554D01*
X231783Y88555D01*
X231724Y88483D01*
D02*
G37*
G36*
X207724D02*
X207670Y88392D01*
X207623Y88280D01*
X207583Y88149D01*
X207548Y87998D01*
X207520Y87826D01*
X207482Y87424D01*
X207473Y87192D01*
X207470Y86941D01*
X204930Y86941D01*
X204927Y87192D01*
X204880Y87826D01*
X204851Y87998D01*
X204817Y88149D01*
X204776Y88280D01*
X204729Y88392D01*
X204676Y88483D01*
X204616Y88554D01*
X207783Y88555D01*
X207724Y88483D01*
D02*
G37*
G36*
X175724D02*
X175670Y88392D01*
X175623Y88280D01*
X175583Y88149D01*
X175548Y87998D01*
X175520Y87826D01*
X175482Y87424D01*
X175473Y87192D01*
X175470Y86941D01*
X172930Y86941D01*
X172927Y87192D01*
X172880Y87826D01*
X172851Y87998D01*
X172817Y88149D01*
X172776Y88280D01*
X172729Y88392D01*
X172676Y88483D01*
X172616Y88554D01*
X175783Y88555D01*
X175724Y88483D01*
D02*
G37*
G36*
X487482Y84827D02*
X487518Y84395D01*
X487578Y84014D01*
X487662Y83684D01*
X487770Y83405D01*
X487902Y83176D01*
X488058Y82998D01*
X488238Y82871D01*
X488442Y82795D01*
X488670Y82769D01*
X483731D01*
X483958Y82795D01*
X484162Y82871D01*
X484342Y82998D01*
X484498Y83176D01*
X484630Y83405D01*
X484738Y83684D01*
X484822Y84014D01*
X484882Y84395D01*
X484918Y84827D01*
X484930Y85309D01*
X487470D01*
X487482Y84827D01*
D02*
G37*
G36*
X479482D02*
X479518Y84395D01*
X479578Y84014D01*
X479662Y83684D01*
X479770Y83405D01*
X479902Y83176D01*
X480058Y82998D01*
X480238Y82871D01*
X480442Y82795D01*
X480670Y82769D01*
X475731D01*
X475958Y82795D01*
X476162Y82871D01*
X476342Y82998D01*
X476498Y83176D01*
X476630Y83405D01*
X476738Y83684D01*
X476822Y84014D01*
X476882Y84395D01*
X476918Y84827D01*
X476930Y85309D01*
X479470D01*
X479482Y84827D01*
D02*
G37*
G36*
X471482D02*
X471518Y84395D01*
X471578Y84014D01*
X471662Y83684D01*
X471770Y83405D01*
X471902Y83176D01*
X472058Y82998D01*
X472238Y82871D01*
X472442Y82795D01*
X472669Y82769D01*
X467730D01*
X467958Y82795D01*
X468162Y82871D01*
X468342Y82998D01*
X468498Y83176D01*
X468630Y83405D01*
X468738Y83684D01*
X468822Y84014D01*
X468882Y84395D01*
X468918Y84827D01*
X468930Y85309D01*
X471470D01*
X471482Y84827D01*
D02*
G37*
G36*
X463482D02*
X463518Y84395D01*
X463578Y84014D01*
X463662Y83684D01*
X463770Y83405D01*
X463902Y83176D01*
X464058Y82998D01*
X464238Y82871D01*
X464442Y82795D01*
X464669Y82769D01*
X459730D01*
X459958Y82795D01*
X460162Y82871D01*
X460342Y82998D01*
X460498Y83176D01*
X460630Y83405D01*
X460738Y83684D01*
X460822Y84014D01*
X460882Y84395D01*
X460918Y84827D01*
X460930Y85309D01*
X463470D01*
X463482Y84827D01*
D02*
G37*
G36*
X439482D02*
X439518Y84395D01*
X439578Y84014D01*
X439662Y83684D01*
X439770Y83405D01*
X439902Y83176D01*
X440058Y82998D01*
X440238Y82871D01*
X440442Y82795D01*
X440670Y82769D01*
X435731D01*
X435958Y82795D01*
X436162Y82871D01*
X436342Y82998D01*
X436498Y83176D01*
X436630Y83405D01*
X436738Y83684D01*
X436822Y84014D01*
X436882Y84395D01*
X436918Y84827D01*
X436930Y85309D01*
X439470D01*
X439482Y84827D01*
D02*
G37*
G36*
X431482D02*
X431518Y84395D01*
X431578Y84014D01*
X431662Y83684D01*
X431770Y83405D01*
X431902Y83176D01*
X432058Y82998D01*
X432238Y82871D01*
X432442Y82795D01*
X432669Y82769D01*
X427730D01*
X427958Y82795D01*
X428162Y82871D01*
X428342Y82998D01*
X428498Y83176D01*
X428630Y83405D01*
X428738Y83684D01*
X428822Y84014D01*
X428882Y84395D01*
X428918Y84827D01*
X428930Y85309D01*
X431470D01*
X431482Y84827D01*
D02*
G37*
G36*
X423482D02*
X423518Y84395D01*
X423578Y84014D01*
X423662Y83684D01*
X423770Y83405D01*
X423902Y83176D01*
X424058Y82998D01*
X424238Y82871D01*
X424442Y82795D01*
X424669Y82769D01*
X419730D01*
X419958Y82795D01*
X420162Y82871D01*
X420342Y82998D01*
X420498Y83176D01*
X420630Y83405D01*
X420738Y83684D01*
X420822Y84014D01*
X420882Y84395D01*
X420918Y84827D01*
X420930Y85309D01*
X423470D01*
X423482Y84827D01*
D02*
G37*
G36*
X415482D02*
X415518Y84395D01*
X415578Y84014D01*
X415662Y83684D01*
X415770Y83405D01*
X415902Y83176D01*
X416058Y82998D01*
X416238Y82871D01*
X416442Y82795D01*
X416670Y82769D01*
X411730D01*
X411958Y82795D01*
X412162Y82871D01*
X412342Y82998D01*
X412498Y83176D01*
X412630Y83405D01*
X412738Y83684D01*
X412822Y84014D01*
X412882Y84395D01*
X412918Y84827D01*
X412930Y85309D01*
X415470D01*
X415482Y84827D01*
D02*
G37*
G36*
X391482D02*
X391518Y84395D01*
X391578Y84014D01*
X391662Y83684D01*
X391770Y83405D01*
X391902Y83176D01*
X392058Y82998D01*
X392238Y82871D01*
X392442Y82795D01*
X392669Y82769D01*
X387730D01*
X387958Y82795D01*
X388162Y82871D01*
X388342Y82998D01*
X388498Y83176D01*
X388630Y83405D01*
X388738Y83684D01*
X388822Y84014D01*
X388882Y84395D01*
X388918Y84827D01*
X388930Y85309D01*
X391470D01*
X391482Y84827D01*
D02*
G37*
G36*
X383482D02*
X383518Y84395D01*
X383578Y84014D01*
X383662Y83684D01*
X383770Y83405D01*
X383902Y83176D01*
X384058Y82998D01*
X384238Y82871D01*
X384442Y82795D01*
X384669Y82769D01*
X379730D01*
X379958Y82795D01*
X380162Y82871D01*
X380342Y82998D01*
X380498Y83176D01*
X380630Y83405D01*
X380738Y83684D01*
X380822Y84014D01*
X380882Y84395D01*
X380918Y84827D01*
X380930Y85309D01*
X383470D01*
X383482Y84827D01*
D02*
G37*
G36*
X375482D02*
X375518Y84395D01*
X375578Y84014D01*
X375662Y83684D01*
X375770Y83405D01*
X375902Y83176D01*
X376058Y82998D01*
X376238Y82871D01*
X376442Y82795D01*
X376670Y82769D01*
X371730D01*
X371958Y82795D01*
X372162Y82871D01*
X372342Y82998D01*
X372498Y83176D01*
X372630Y83405D01*
X372738Y83684D01*
X372822Y84014D01*
X372882Y84395D01*
X372918Y84827D01*
X372930Y85309D01*
X375470D01*
X375482Y84827D01*
D02*
G37*
G36*
X351482D02*
X351518Y84395D01*
X351578Y84014D01*
X351662Y83684D01*
X351770Y83405D01*
X351902Y83176D01*
X352058Y82998D01*
X352238Y82871D01*
X352442Y82795D01*
X352669Y82769D01*
X347730D01*
X347958Y82795D01*
X348162Y82871D01*
X348342Y82998D01*
X348498Y83176D01*
X348630Y83405D01*
X348738Y83684D01*
X348822Y84014D01*
X348882Y84395D01*
X348918Y84827D01*
X348930Y85309D01*
X351470D01*
X351482Y84827D01*
D02*
G37*
G36*
X327482D02*
X327518Y84395D01*
X327578Y84014D01*
X327662Y83684D01*
X327770Y83405D01*
X327902Y83176D01*
X328058Y82998D01*
X328238Y82871D01*
X328442Y82795D01*
X328670Y82769D01*
X323731D01*
X323958Y82795D01*
X324162Y82871D01*
X324342Y82998D01*
X324498Y83176D01*
X324630Y83405D01*
X324738Y83684D01*
X324822Y84014D01*
X324882Y84395D01*
X324918Y84827D01*
X324930Y85309D01*
X327470D01*
X327482Y84827D01*
D02*
G37*
G36*
X319482D02*
X319518Y84395D01*
X319578Y84014D01*
X319662Y83684D01*
X319770Y83405D01*
X319902Y83176D01*
X320058Y82998D01*
X320238Y82871D01*
X320442Y82795D01*
X320670Y82769D01*
X315730D01*
X315958Y82795D01*
X316162Y82871D01*
X316342Y82998D01*
X316498Y83176D01*
X316630Y83405D01*
X316738Y83684D01*
X316822Y84014D01*
X316882Y84395D01*
X316918Y84827D01*
X316930Y85309D01*
X319470D01*
X319482Y84827D01*
D02*
G37*
G36*
X311482D02*
X311518Y84395D01*
X311578Y84014D01*
X311662Y83684D01*
X311770Y83405D01*
X311902Y83176D01*
X312058Y82998D01*
X312238Y82871D01*
X312442Y82795D01*
X312670Y82769D01*
X307731D01*
X307958Y82795D01*
X308162Y82871D01*
X308342Y82998D01*
X308498Y83176D01*
X308630Y83405D01*
X308738Y83684D01*
X308822Y84014D01*
X308882Y84395D01*
X308918Y84827D01*
X308930Y85309D01*
X311470D01*
X311482Y84827D01*
D02*
G37*
G36*
X303482D02*
X303518Y84395D01*
X303578Y84014D01*
X303662Y83684D01*
X303770Y83405D01*
X303902Y83176D01*
X304058Y82998D01*
X304238Y82871D01*
X304442Y82795D01*
X304669Y82769D01*
X299730D01*
X299958Y82795D01*
X300162Y82871D01*
X300342Y82998D01*
X300498Y83176D01*
X300630Y83405D01*
X300738Y83684D01*
X300822Y84014D01*
X300882Y84395D01*
X300918Y84827D01*
X300930Y85309D01*
X303470D01*
X303482Y84827D01*
D02*
G37*
G36*
X279482D02*
X279518Y84395D01*
X279578Y84014D01*
X279662Y83684D01*
X279770Y83405D01*
X279902Y83176D01*
X280058Y82998D01*
X280238Y82871D01*
X280442Y82795D01*
X280669Y82769D01*
X275730D01*
X275958Y82795D01*
X276162Y82871D01*
X276342Y82998D01*
X276498Y83176D01*
X276630Y83405D01*
X276738Y83684D01*
X276822Y84014D01*
X276882Y84395D01*
X276918Y84827D01*
X276930Y85309D01*
X279470D01*
X279482Y84827D01*
D02*
G37*
G36*
X231482D02*
X231518Y84395D01*
X231578Y84014D01*
X231662Y83684D01*
X231770Y83405D01*
X231902Y83176D01*
X232058Y82998D01*
X232238Y82871D01*
X232442Y82795D01*
X232670Y82769D01*
X227731D01*
X227958Y82795D01*
X228162Y82871D01*
X228342Y82998D01*
X228498Y83176D01*
X228630Y83405D01*
X228738Y83684D01*
X228822Y84014D01*
X228882Y84395D01*
X228918Y84827D01*
X228930Y85309D01*
X231470D01*
X231482Y84827D01*
D02*
G37*
G36*
X175482D02*
X175518Y84395D01*
X175578Y84014D01*
X175662Y83684D01*
X175770Y83405D01*
X175902Y83176D01*
X176058Y82998D01*
X176238Y82871D01*
X176442Y82795D01*
X176670Y82769D01*
X171730D01*
X171958Y82795D01*
X172162Y82871D01*
X172342Y82998D01*
X172498Y83176D01*
X172630Y83405D01*
X172738Y83684D01*
X172822Y84014D01*
X172882Y84395D01*
X172918Y84827D01*
X172930Y85309D01*
X175470D01*
X175482Y84827D01*
D02*
G37*
G36*
X455482Y84827D02*
X455518Y84395D01*
X455578Y84014D01*
X455662Y83684D01*
X455770Y83405D01*
X455902Y83176D01*
X456058Y82998D01*
X456238Y82871D01*
X456442Y82795D01*
X456670Y82769D01*
X451730D01*
X451958Y82795D01*
X452162Y82871D01*
X452342Y82998D01*
X452498Y83176D01*
X452630Y83405D01*
X452738Y83684D01*
X452822Y84014D01*
X452882Y84395D01*
X452918Y84827D01*
X452930Y85309D01*
X455470D01*
X455482Y84827D01*
D02*
G37*
G36*
X447482D02*
X447518Y84395D01*
X447578Y84014D01*
X447662Y83684D01*
X447770Y83405D01*
X447902Y83176D01*
X448058Y82998D01*
X448238Y82871D01*
X448442Y82795D01*
X448670Y82769D01*
X443731D01*
X443958Y82795D01*
X444162Y82871D01*
X444342Y82998D01*
X444498Y83176D01*
X444630Y83405D01*
X444738Y83684D01*
X444822Y84014D01*
X444882Y84395D01*
X444918Y84827D01*
X444930Y85309D01*
X447470D01*
X447482Y84827D01*
D02*
G37*
G36*
X407482D02*
X407518Y84395D01*
X407578Y84014D01*
X407662Y83684D01*
X407770Y83405D01*
X407902Y83176D01*
X408058Y82998D01*
X408238Y82871D01*
X408442Y82795D01*
X408670Y82769D01*
X403731D01*
X403958Y82795D01*
X404162Y82871D01*
X404342Y82998D01*
X404498Y83176D01*
X404630Y83405D01*
X404738Y83684D01*
X404822Y84014D01*
X404882Y84395D01*
X404918Y84827D01*
X404930Y85309D01*
X407470D01*
X407482Y84827D01*
D02*
G37*
G36*
X399482D02*
X399518Y84395D01*
X399578Y84014D01*
X399662Y83684D01*
X399770Y83405D01*
X399902Y83176D01*
X400058Y82998D01*
X400238Y82871D01*
X400442Y82795D01*
X400670Y82769D01*
X395731D01*
X395958Y82795D01*
X396162Y82871D01*
X396342Y82998D01*
X396498Y83176D01*
X396630Y83405D01*
X396738Y83684D01*
X396822Y84014D01*
X396882Y84395D01*
X396918Y84827D01*
X396930Y85309D01*
X399470D01*
X399482Y84827D01*
D02*
G37*
G36*
X255482D02*
X255518Y84395D01*
X255578Y84014D01*
X255662Y83684D01*
X255770Y83405D01*
X255902Y83176D01*
X256058Y82998D01*
X256238Y82871D01*
X256442Y82795D01*
X256670Y82769D01*
X251730D01*
X251958Y82795D01*
X252162Y82871D01*
X252342Y82998D01*
X252498Y83176D01*
X252630Y83405D01*
X252738Y83684D01*
X252822Y84014D01*
X252882Y84395D01*
X252918Y84827D01*
X252930Y85309D01*
X255470D01*
X255482Y84827D01*
D02*
G37*
G36*
X207482D02*
X207518Y84395D01*
X207578Y84014D01*
X207662Y83684D01*
X207770Y83405D01*
X207902Y83176D01*
X208058Y82998D01*
X208238Y82871D01*
X208442Y82795D01*
X208669Y82769D01*
X203731D01*
X203958Y82795D01*
X204162Y82871D01*
X204342Y82998D01*
X204498Y83176D01*
X204630Y83405D01*
X204738Y83684D01*
X204822Y84014D01*
X204882Y84395D01*
X204918Y84827D01*
X204930Y85309D01*
X207470D01*
X207482Y84827D01*
D02*
G37*
G36*
X639897Y84967D02*
X640349Y84715D01*
X640903Y84494D01*
X641558Y84303D01*
X642315Y84145D01*
X643173Y84017D01*
X645195Y83856D01*
X647624Y83820D01*
X640080Y76276D01*
X640078Y77541D01*
X639883Y80727D01*
X639755Y81585D01*
X639597Y82342D01*
X639407Y82997D01*
X639185Y83551D01*
X638933Y84003D01*
X638649Y84353D01*
X639547Y85251D01*
X639897Y84967D01*
D02*
G37*
G36*
X673024Y68580D02*
X671759Y68578D01*
X668573Y68383D01*
X667715Y68255D01*
X666958Y68097D01*
X666303Y67906D01*
X665749Y67685D01*
X665297Y67433D01*
X664947Y67149D01*
X664049Y68047D01*
X664333Y68397D01*
X664585Y68849D01*
X664807Y69403D01*
X664997Y70058D01*
X665155Y70815D01*
X665283Y71673D01*
X665444Y73695D01*
X665480Y76124D01*
X673024Y68580D01*
D02*
G37*
G36*
X141224Y66893D02*
X141171Y66802D01*
X141124Y66690D01*
X141083Y66559D01*
X141048Y66408D01*
X141020Y66236D01*
X140983Y65834D01*
X140973Y65602D01*
X140970Y65351D01*
X138430D01*
X138427Y65602D01*
X138380Y66236D01*
X138352Y66408D01*
X138317Y66559D01*
X138276Y66690D01*
X138229Y66802D01*
X138176Y66893D01*
X138117Y66965D01*
X141283D01*
X141224Y66893D01*
D02*
G37*
G36*
X200442Y62805D02*
X200238Y62729D01*
X200058Y62602D01*
X199902Y62424D01*
X199770Y62196D01*
X199662Y61916D01*
X199578Y61586D01*
X199518Y61205D01*
X199482Y60773D01*
X199470Y60290D01*
X196930D01*
X196918Y60773D01*
X196882Y61205D01*
X196822Y61586D01*
X196738Y61916D01*
X196630Y62196D01*
X196498Y62424D01*
X196342Y62602D01*
X196162Y62729D01*
X195958Y62805D01*
X195730Y62831D01*
X200669D01*
X200442Y62805D01*
D02*
G37*
G36*
X192442D02*
X192238Y62729D01*
X192058Y62602D01*
X191902Y62424D01*
X191770Y62196D01*
X191662Y61916D01*
X191578Y61586D01*
X191518Y61205D01*
X191482Y60773D01*
X191470Y60290D01*
X188930D01*
X188918Y60773D01*
X188882Y61205D01*
X188822Y61586D01*
X188738Y61916D01*
X188630Y62196D01*
X188498Y62424D01*
X188342Y62602D01*
X188162Y62729D01*
X187958Y62805D01*
X187731Y62831D01*
X192670D01*
X192442Y62805D01*
D02*
G37*
G36*
X184442D02*
X184238Y62729D01*
X184058Y62602D01*
X183902Y62424D01*
X183770Y62196D01*
X183662Y61916D01*
X183578Y61586D01*
X183518Y61205D01*
X183482Y60773D01*
X183470Y60290D01*
X180930D01*
X180918Y60773D01*
X180882Y61205D01*
X180822Y61586D01*
X180738Y61916D01*
X180630Y62196D01*
X180498Y62424D01*
X180342Y62602D01*
X180162Y62729D01*
X179958Y62805D01*
X179730Y62831D01*
X184669D01*
X184442Y62805D01*
D02*
G37*
G36*
X151384Y61813D02*
X151331Y61722D01*
X151284Y61610D01*
X151243Y61479D01*
X151208Y61328D01*
X151180Y61156D01*
X151143Y60754D01*
X151133Y60522D01*
X151130Y60271D01*
X148590D01*
X148587Y60522D01*
X148540Y61156D01*
X148512Y61328D01*
X148477Y61479D01*
X148436Y61610D01*
X148389Y61722D01*
X148336Y61813D01*
X148277Y61885D01*
X151443D01*
X151384Y61813D01*
D02*
G37*
G36*
X191470Y58659D02*
X191473Y58408D01*
X191520Y57774D01*
X191548Y57602D01*
X191583Y57451D01*
X191623Y57320D01*
X191670Y57208D01*
X191724Y57117D01*
X191783Y57045D01*
X188617Y57045D01*
X188676Y57117D01*
X188729Y57208D01*
X188776Y57320D01*
X188817Y57451D01*
X188852Y57603D01*
X188880Y57774D01*
X188917Y58176D01*
X188927Y58408D01*
X188930Y58659D01*
X191470Y58659D01*
D02*
G37*
G36*
X199470Y58659D02*
X199473Y58408D01*
X199520Y57774D01*
X199548Y57602D01*
X199583Y57451D01*
X199624Y57320D01*
X199671Y57208D01*
X199724Y57117D01*
X199783Y57045D01*
X196617Y57045D01*
X196676Y57117D01*
X196729Y57208D01*
X196776Y57320D01*
X196817Y57451D01*
X196852Y57602D01*
X196880Y57774D01*
X196917Y58176D01*
X196927Y58408D01*
X196930Y58659D01*
X199470Y58659D01*
D02*
G37*
G36*
X183470D02*
X183473Y58408D01*
X183520Y57774D01*
X183548Y57602D01*
X183583Y57451D01*
X183624Y57320D01*
X183671Y57208D01*
X183724Y57117D01*
X183783Y57045D01*
X180617Y57045D01*
X180676Y57117D01*
X180729Y57208D01*
X180776Y57320D01*
X180817Y57451D01*
X180852Y57602D01*
X180880Y57774D01*
X180917Y58176D01*
X180927Y58408D01*
X180930Y58659D01*
X183470Y58659D01*
D02*
G37*
G36*
X83767Y55872D02*
X83717Y55781D01*
X83673Y55670D01*
X83635Y55538D01*
X83603Y55387D01*
X83577Y55216D01*
X83542Y54812D01*
X83530Y54329D01*
X80990Y54235D01*
X80987Y54486D01*
X80937Y55119D01*
X80907Y55290D01*
X80870Y55441D01*
X80827Y55572D01*
X80777Y55684D01*
X80721Y55775D01*
X80658Y55846D01*
X83823Y55943D01*
X83767Y55872D01*
D02*
G37*
G36*
X71374Y55463D02*
X71321Y55372D01*
X71274Y55260D01*
X71233Y55129D01*
X71198Y54978D01*
X71170Y54806D01*
X71132Y54404D01*
X71123Y54172D01*
X71120Y53921D01*
X68580D01*
X68577Y54172D01*
X68530Y54806D01*
X68502Y54978D01*
X68467Y55129D01*
X68426Y55260D01*
X68379Y55372D01*
X68326Y55463D01*
X68267Y55535D01*
X71433D01*
X71374Y55463D01*
D02*
G37*
G36*
X58674D02*
X58621Y55372D01*
X58574Y55260D01*
X58533Y55129D01*
X58498Y54978D01*
X58470Y54806D01*
X58432Y54404D01*
X58423Y54172D01*
X58420Y53921D01*
X55880D01*
X55877Y54172D01*
X55830Y54806D01*
X55802Y54978D01*
X55767Y55129D01*
X55726Y55260D01*
X55679Y55372D01*
X55626Y55463D01*
X55567Y55535D01*
X58733D01*
X58674Y55463D01*
D02*
G37*
G36*
X420585Y44587D02*
X420513Y44646D01*
X420422Y44699D01*
X420311Y44746D01*
X420179Y44787D01*
X420028Y44822D01*
X419856Y44850D01*
X419454Y44887D01*
X419222Y44897D01*
X418971Y44900D01*
Y47440D01*
X419222Y47443D01*
X419856Y47490D01*
X420028Y47518D01*
X420179Y47553D01*
X420311Y47594D01*
X420422Y47641D01*
X420513Y47694D01*
X420585Y47753D01*
Y44587D01*
D02*
G37*
G36*
X139765Y46186D02*
X140246Y45771D01*
X140387Y45669D01*
X140519Y45587D01*
X140640Y45523D01*
X140752Y45477D01*
X140855Y45450D01*
X140947Y45442D01*
X138708Y43203D01*
X138700Y43295D01*
X138673Y43398D01*
X138627Y43510D01*
X138563Y43631D01*
X138481Y43763D01*
X138379Y43904D01*
X138121Y44215D01*
X137964Y44385D01*
X137789Y44565D01*
X139585Y46361D01*
X139765Y46186D01*
D02*
G37*
G36*
X130875D02*
X131356Y45771D01*
X131497Y45669D01*
X131629Y45587D01*
X131750Y45523D01*
X131862Y45477D01*
X131965Y45450D01*
X132057Y45442D01*
X129818Y43203D01*
X129810Y43295D01*
X129783Y43398D01*
X129737Y43510D01*
X129673Y43631D01*
X129591Y43763D01*
X129489Y43904D01*
X129231Y44215D01*
X129074Y44385D01*
X128899Y44565D01*
X130695Y46361D01*
X130875Y46186D01*
D02*
G37*
G36*
X108591Y44565D02*
X108416Y44385D01*
X108001Y43904D01*
X107900Y43763D01*
X107817Y43631D01*
X107753Y43510D01*
X107707Y43398D01*
X107680Y43295D01*
X107672Y43203D01*
X105433Y45442D01*
X105525Y45450D01*
X105628Y45477D01*
X105740Y45523D01*
X105861Y45587D01*
X105993Y45669D01*
X106134Y45771D01*
X106445Y46029D01*
X106615Y46186D01*
X106795Y46361D01*
X108591Y44565D01*
D02*
G37*
G36*
X99701D02*
X99526Y44385D01*
X99111Y43904D01*
X99010Y43763D01*
X98927Y43631D01*
X98863Y43510D01*
X98817Y43398D01*
X98790Y43295D01*
X98782Y43203D01*
X96543Y45442D01*
X96635Y45450D01*
X96738Y45477D01*
X96850Y45523D01*
X96971Y45587D01*
X97103Y45669D01*
X97244Y45771D01*
X97555Y46029D01*
X97725Y46186D01*
X97905Y46361D01*
X99701Y44565D01*
D02*
G37*
G36*
X479783Y44555D02*
X479724Y44483D01*
X479671Y44392D01*
X479624Y44280D01*
X479583Y44149D01*
X479548Y43998D01*
X479520Y43826D01*
X479483Y43424D01*
X479473Y43192D01*
X479470Y42941D01*
X476930Y42941D01*
X476927Y43192D01*
X476880Y43826D01*
X476852Y43998D01*
X476817Y44149D01*
X476777Y44280D01*
X476730Y44392D01*
X476676Y44483D01*
X476617Y44555D01*
X479783Y44555D01*
D02*
G37*
G36*
X463783D02*
X463724Y44483D01*
X463671Y44392D01*
X463624Y44280D01*
X463583Y44149D01*
X463548Y43998D01*
X463520Y43826D01*
X463483Y43424D01*
X463473Y43192D01*
X463470Y42941D01*
X460930Y42941D01*
X460927Y43192D01*
X460880Y43826D01*
X460852Y43998D01*
X460817Y44149D01*
X460776Y44280D01*
X460729Y44392D01*
X460676Y44483D01*
X460617Y44555D01*
X463783Y44555D01*
D02*
G37*
G36*
X471783Y44555D02*
X471724Y44483D01*
X471671Y44392D01*
X471624Y44280D01*
X471583Y44149D01*
X471548Y43998D01*
X471520Y43826D01*
X471483Y43424D01*
X471473Y43192D01*
X471470Y42941D01*
X468930Y42941D01*
X468927Y43192D01*
X468880Y43826D01*
X468852Y43998D01*
X468817Y44149D01*
X468776Y44280D01*
X468729Y44392D01*
X468676Y44483D01*
X468617Y44555D01*
X471783Y44555D01*
D02*
G37*
G36*
X447783D02*
X447724Y44483D01*
X447671Y44392D01*
X447624Y44280D01*
X447583Y44149D01*
X447548Y43998D01*
X447520Y43826D01*
X447482Y43424D01*
X447473Y43192D01*
X447470Y42941D01*
X444930Y42941D01*
X444927Y43192D01*
X444880Y43826D01*
X444852Y43998D01*
X444817Y44149D01*
X444776Y44281D01*
X444729Y44392D01*
X444676Y44483D01*
X444617Y44555D01*
X447783Y44555D01*
D02*
G37*
G36*
X447482Y40827D02*
X447518Y40395D01*
X447578Y40014D01*
X447662Y39684D01*
X447770Y39404D01*
X447902Y39176D01*
X448058Y38998D01*
X448238Y38871D01*
X448442Y38795D01*
X448670Y38770D01*
X443731D01*
X443958Y38795D01*
X444162Y38871D01*
X444342Y38998D01*
X444498Y39176D01*
X444630Y39404D01*
X444738Y39684D01*
X444822Y40014D01*
X444882Y40395D01*
X444918Y40827D01*
X444930Y41309D01*
X447470D01*
X447482Y40827D01*
D02*
G37*
G36*
X479482Y40827D02*
X479518Y40395D01*
X479578Y40014D01*
X479662Y39684D01*
X479770Y39404D01*
X479902Y39176D01*
X480058Y38998D01*
X480238Y38871D01*
X480442Y38795D01*
X480670Y38770D01*
X475731D01*
X475958Y38795D01*
X476162Y38871D01*
X476342Y38998D01*
X476498Y39176D01*
X476630Y39404D01*
X476738Y39684D01*
X476822Y40014D01*
X476882Y40395D01*
X476918Y40827D01*
X476930Y41309D01*
X479470D01*
X479482Y40827D01*
D02*
G37*
G36*
X471482D02*
X471518Y40395D01*
X471578Y40014D01*
X471662Y39684D01*
X471770Y39404D01*
X471902Y39176D01*
X472058Y38998D01*
X472238Y38871D01*
X472442Y38795D01*
X472669Y38770D01*
X467730D01*
X467958Y38795D01*
X468162Y38871D01*
X468342Y38998D01*
X468498Y39176D01*
X468630Y39404D01*
X468738Y39684D01*
X468822Y40014D01*
X468882Y40395D01*
X468918Y40827D01*
X468930Y41309D01*
X471470D01*
X471482Y40827D01*
D02*
G37*
G36*
X463482D02*
X463518Y40395D01*
X463578Y40014D01*
X463662Y39684D01*
X463770Y39404D01*
X463902Y39176D01*
X464058Y38998D01*
X464238Y38871D01*
X464442Y38795D01*
X464669Y38770D01*
X459730D01*
X459958Y38795D01*
X460162Y38871D01*
X460342Y38998D01*
X460498Y39176D01*
X460630Y39404D01*
X460738Y39684D01*
X460822Y40014D01*
X460882Y40395D01*
X460918Y40827D01*
X460930Y41309D01*
X463470D01*
X463482Y40827D01*
D02*
G37*
G36*
X431482D02*
X431518Y40395D01*
X431578Y40014D01*
X431662Y39684D01*
X431770Y39404D01*
X431902Y39176D01*
X432058Y38998D01*
X432238Y38871D01*
X432442Y38795D01*
X432669Y38770D01*
X427730D01*
X427958Y38795D01*
X428162Y38871D01*
X428342Y38998D01*
X428498Y39176D01*
X428630Y39404D01*
X428738Y39684D01*
X428822Y40014D01*
X428882Y40395D01*
X428918Y40827D01*
X428930Y41309D01*
X431470D01*
X431482Y40827D01*
D02*
G37*
G36*
X340979Y18822D02*
X340924Y18797D01*
X340875Y18756D01*
X340833Y18697D01*
X340797Y18622D01*
X340768Y18531D01*
X340745Y18422D01*
X340729Y18297D01*
X340719Y18156D01*
X340716Y17997D01*
X339700D01*
X339730Y18830D01*
X341041D01*
X340979Y18822D01*
D02*
G37*
G36*
X336675D02*
X336680Y18797D01*
X336685Y18756D01*
X336692Y18622D01*
X336700Y17997D01*
X335684D01*
X335681Y18156D01*
X335655Y18422D01*
X335632Y18531D01*
X335603Y18622D01*
X335567Y18697D01*
X335525Y18756D01*
X335476Y18797D01*
X335421Y18822D01*
X335359Y18830D01*
X336670D01*
X336675Y18822D01*
D02*
G37*
G36*
X456442Y18805D02*
X456238Y18729D01*
X456058Y18602D01*
X455902Y18424D01*
X455770Y18196D01*
X455662Y17916D01*
X455578Y17586D01*
X455518Y17205D01*
X455482Y16773D01*
X455470Y16291D01*
X452930D01*
X452918Y16773D01*
X452882Y17205D01*
X452822Y17586D01*
X452738Y17916D01*
X452630Y18196D01*
X452498Y18424D01*
X452342Y18602D01*
X452162Y18729D01*
X451958Y18805D01*
X451730Y18830D01*
X456670D01*
X456442Y18805D01*
D02*
G37*
G36*
X408442D02*
X408238Y18729D01*
X408058Y18602D01*
X407902Y18424D01*
X407770Y18196D01*
X407662Y17916D01*
X407578Y17586D01*
X407518Y17205D01*
X407482Y16773D01*
X407470Y16291D01*
X404930D01*
X404918Y16773D01*
X404882Y17205D01*
X404822Y17586D01*
X404738Y17916D01*
X404630Y18196D01*
X404498Y18424D01*
X404342Y18602D01*
X404162Y18729D01*
X403958Y18805D01*
X403731Y18830D01*
X408670D01*
X408442Y18805D01*
D02*
G37*
G36*
X400442D02*
X400238Y18729D01*
X400058Y18602D01*
X399902Y18424D01*
X399770Y18196D01*
X399662Y17916D01*
X399578Y17586D01*
X399518Y17205D01*
X399482Y16773D01*
X399470Y16291D01*
X396930D01*
X396918Y16773D01*
X396882Y17205D01*
X396822Y17586D01*
X396738Y17916D01*
X396630Y18196D01*
X396498Y18424D01*
X396342Y18602D01*
X396162Y18729D01*
X395958Y18805D01*
X395731Y18830D01*
X400670D01*
X400442Y18805D01*
D02*
G37*
G36*
X256442D02*
X256238Y18729D01*
X256058Y18602D01*
X255902Y18424D01*
X255770Y18196D01*
X255662Y17916D01*
X255578Y17586D01*
X255518Y17205D01*
X255482Y16773D01*
X255470Y16291D01*
X252930D01*
X252918Y16773D01*
X252882Y17205D01*
X252822Y17586D01*
X252738Y17916D01*
X252630Y18196D01*
X252498Y18424D01*
X252342Y18602D01*
X252162Y18729D01*
X251958Y18805D01*
X251730Y18830D01*
X256670D01*
X256442Y18805D01*
D02*
G37*
G36*
X208442D02*
X208238Y18729D01*
X208058Y18602D01*
X207902Y18424D01*
X207770Y18196D01*
X207662Y17916D01*
X207578Y17586D01*
X207518Y17205D01*
X207482Y16773D01*
X207470Y16291D01*
X204930D01*
X204918Y16773D01*
X204882Y17205D01*
X204822Y17586D01*
X204738Y17916D01*
X204630Y18196D01*
X204498Y18424D01*
X204342Y18602D01*
X204162Y18729D01*
X203958Y18805D01*
X203731Y18830D01*
X208669D01*
X208442Y18805D01*
D02*
G37*
G36*
X488442Y18805D02*
X488238Y18729D01*
X488058Y18602D01*
X487902Y18424D01*
X487770Y18196D01*
X487662Y17916D01*
X487578Y17586D01*
X487518Y17205D01*
X487482Y16773D01*
X487470Y16291D01*
X484930D01*
X484918Y16773D01*
X484882Y17205D01*
X484822Y17586D01*
X484738Y17916D01*
X484630Y18196D01*
X484498Y18424D01*
X484342Y18602D01*
X484162Y18729D01*
X483958Y18805D01*
X483731Y18830D01*
X488670D01*
X488442Y18805D01*
D02*
G37*
G36*
X440442D02*
X440238Y18729D01*
X440058Y18602D01*
X439902Y18424D01*
X439770Y18196D01*
X439662Y17916D01*
X439578Y17586D01*
X439518Y17205D01*
X439482Y16773D01*
X439470Y16291D01*
X436930D01*
X436918Y16773D01*
X436882Y17205D01*
X436822Y17586D01*
X436738Y17916D01*
X436630Y18196D01*
X436498Y18424D01*
X436342Y18602D01*
X436162Y18729D01*
X435958Y18805D01*
X435731Y18830D01*
X440670D01*
X440442Y18805D01*
D02*
G37*
G36*
X424442D02*
X424238Y18729D01*
X424058Y18602D01*
X423902Y18424D01*
X423770Y18196D01*
X423662Y17916D01*
X423578Y17586D01*
X423518Y17205D01*
X423482Y16773D01*
X423470Y16291D01*
X420930D01*
X420918Y16773D01*
X420882Y17205D01*
X420822Y17586D01*
X420738Y17916D01*
X420630Y18196D01*
X420498Y18424D01*
X420342Y18602D01*
X420162Y18729D01*
X419958Y18805D01*
X419730Y18830D01*
X424669D01*
X424442Y18805D01*
D02*
G37*
G36*
X416442D02*
X416238Y18729D01*
X416058Y18602D01*
X415902Y18424D01*
X415770Y18196D01*
X415662Y17916D01*
X415578Y17586D01*
X415518Y17205D01*
X415482Y16773D01*
X415470Y16291D01*
X412930D01*
X412918Y16773D01*
X412882Y17205D01*
X412822Y17586D01*
X412738Y17916D01*
X412630Y18196D01*
X412498Y18424D01*
X412342Y18602D01*
X412162Y18729D01*
X411958Y18805D01*
X411730Y18830D01*
X416670D01*
X416442Y18805D01*
D02*
G37*
G36*
X392442D02*
X392238Y18729D01*
X392058Y18602D01*
X391902Y18424D01*
X391770Y18196D01*
X391662Y17916D01*
X391578Y17586D01*
X391518Y17205D01*
X391482Y16773D01*
X391470Y16291D01*
X388930D01*
X388918Y16773D01*
X388882Y17205D01*
X388822Y17586D01*
X388738Y17916D01*
X388630Y18196D01*
X388498Y18424D01*
X388342Y18602D01*
X388162Y18729D01*
X387958Y18805D01*
X387730Y18830D01*
X392669D01*
X392442Y18805D01*
D02*
G37*
G36*
X384442D02*
X384238Y18729D01*
X384058Y18602D01*
X383902Y18424D01*
X383770Y18196D01*
X383662Y17916D01*
X383578Y17586D01*
X383518Y17205D01*
X383482Y16773D01*
X383470Y16291D01*
X380930D01*
X380918Y16773D01*
X380882Y17205D01*
X380822Y17586D01*
X380738Y17916D01*
X380630Y18196D01*
X380498Y18424D01*
X380342Y18602D01*
X380162Y18729D01*
X379958Y18805D01*
X379730Y18830D01*
X384669D01*
X384442Y18805D01*
D02*
G37*
G36*
X376442D02*
X376238Y18729D01*
X376058Y18602D01*
X375902Y18424D01*
X375770Y18196D01*
X375662Y17916D01*
X375578Y17586D01*
X375518Y17205D01*
X375482Y16773D01*
X375470Y16291D01*
X372930D01*
X372918Y16773D01*
X372882Y17205D01*
X372822Y17586D01*
X372738Y17916D01*
X372630Y18196D01*
X372498Y18424D01*
X372342Y18602D01*
X372162Y18729D01*
X371958Y18805D01*
X371730Y18830D01*
X376670D01*
X376442Y18805D01*
D02*
G37*
G36*
X352442D02*
X352238Y18729D01*
X352058Y18602D01*
X351902Y18424D01*
X351770Y18196D01*
X351662Y17916D01*
X351578Y17586D01*
X351518Y17205D01*
X351482Y16773D01*
X351470Y16291D01*
X348930D01*
X348918Y16773D01*
X348882Y17205D01*
X348822Y17586D01*
X348738Y17916D01*
X348630Y18196D01*
X348498Y18424D01*
X348342Y18602D01*
X348162Y18729D01*
X347958Y18805D01*
X347730Y18830D01*
X352669D01*
X352442Y18805D01*
D02*
G37*
G36*
X328442D02*
X328238Y18729D01*
X328058Y18602D01*
X327902Y18424D01*
X327770Y18196D01*
X327662Y17916D01*
X327578Y17586D01*
X327518Y17205D01*
X327482Y16773D01*
X327470Y16291D01*
X324930D01*
X324918Y16773D01*
X324882Y17205D01*
X324822Y17586D01*
X324738Y17916D01*
X324630Y18196D01*
X324498Y18424D01*
X324342Y18602D01*
X324162Y18729D01*
X323958Y18805D01*
X323731Y18830D01*
X328670D01*
X328442Y18805D01*
D02*
G37*
G36*
X320442D02*
X320238Y18729D01*
X320058Y18602D01*
X319902Y18424D01*
X319770Y18196D01*
X319662Y17916D01*
X319578Y17586D01*
X319518Y17205D01*
X319482Y16773D01*
X319470Y16291D01*
X316930D01*
X316918Y16773D01*
X316882Y17205D01*
X316822Y17586D01*
X316738Y17916D01*
X316630Y18196D01*
X316498Y18424D01*
X316342Y18602D01*
X316162Y18729D01*
X315958Y18805D01*
X315730Y18830D01*
X320670D01*
X320442Y18805D01*
D02*
G37*
G36*
X312442D02*
X312238Y18729D01*
X312058Y18602D01*
X311902Y18424D01*
X311770Y18196D01*
X311662Y17916D01*
X311578Y17586D01*
X311518Y17205D01*
X311482Y16773D01*
X311470Y16291D01*
X308930D01*
X308918Y16773D01*
X308882Y17205D01*
X308822Y17586D01*
X308738Y17916D01*
X308630Y18196D01*
X308498Y18424D01*
X308342Y18602D01*
X308162Y18729D01*
X307958Y18805D01*
X307731Y18830D01*
X312670D01*
X312442Y18805D01*
D02*
G37*
G36*
X304442D02*
X304238Y18729D01*
X304058Y18602D01*
X303902Y18424D01*
X303770Y18196D01*
X303662Y17916D01*
X303578Y17586D01*
X303518Y17205D01*
X303482Y16773D01*
X303470Y16291D01*
X300930D01*
X300918Y16773D01*
X300882Y17205D01*
X300822Y17586D01*
X300738Y17916D01*
X300630Y18196D01*
X300498Y18424D01*
X300342Y18602D01*
X300162Y18729D01*
X299958Y18805D01*
X299730Y18830D01*
X304669D01*
X304442Y18805D01*
D02*
G37*
G36*
X280442D02*
X280238Y18729D01*
X280058Y18602D01*
X279902Y18424D01*
X279770Y18196D01*
X279662Y17916D01*
X279578Y17586D01*
X279518Y17205D01*
X279482Y16773D01*
X279470Y16291D01*
X276930D01*
X276918Y16773D01*
X276882Y17205D01*
X276822Y17586D01*
X276738Y17916D01*
X276630Y18196D01*
X276498Y18424D01*
X276342Y18602D01*
X276162Y18729D01*
X275958Y18805D01*
X275730Y18830D01*
X280669D01*
X280442Y18805D01*
D02*
G37*
G36*
X232442D02*
X232238Y18729D01*
X232058Y18602D01*
X231902Y18424D01*
X231770Y18196D01*
X231662Y17916D01*
X231578Y17586D01*
X231518Y17205D01*
X231482Y16773D01*
X231470Y16291D01*
X228930D01*
X228918Y16773D01*
X228882Y17205D01*
X228822Y17586D01*
X228738Y17916D01*
X228630Y18196D01*
X228498Y18424D01*
X228342Y18602D01*
X228162Y18729D01*
X227958Y18805D01*
X227731Y18830D01*
X232670D01*
X232442Y18805D01*
D02*
G37*
G36*
X200442D02*
X200238Y18729D01*
X200058Y18602D01*
X199902Y18424D01*
X199770Y18196D01*
X199662Y17916D01*
X199578Y17586D01*
X199518Y17205D01*
X199482Y16773D01*
X199470Y16291D01*
X196930D01*
X196918Y16773D01*
X196882Y17205D01*
X196822Y17586D01*
X196738Y17916D01*
X196630Y18196D01*
X196498Y18424D01*
X196342Y18602D01*
X196162Y18729D01*
X195958Y18805D01*
X195730Y18830D01*
X200669D01*
X200442Y18805D01*
D02*
G37*
G36*
X192442D02*
X192238Y18729D01*
X192058Y18602D01*
X191902Y18424D01*
X191770Y18196D01*
X191662Y17916D01*
X191578Y17586D01*
X191518Y17205D01*
X191482Y16773D01*
X191470Y16291D01*
X188930D01*
X188918Y16773D01*
X188882Y17205D01*
X188822Y17586D01*
X188738Y17916D01*
X188630Y18196D01*
X188498Y18424D01*
X188342Y18602D01*
X188162Y18729D01*
X187958Y18805D01*
X187731Y18830D01*
X192670D01*
X192442Y18805D01*
D02*
G37*
G36*
X184442D02*
X184238Y18729D01*
X184058Y18602D01*
X183902Y18424D01*
X183770Y18196D01*
X183662Y17916D01*
X183578Y17586D01*
X183518Y17205D01*
X183482Y16773D01*
X183470Y16291D01*
X180930D01*
X180918Y16773D01*
X180882Y17205D01*
X180822Y17586D01*
X180738Y17916D01*
X180630Y18196D01*
X180498Y18424D01*
X180342Y18602D01*
X180162Y18729D01*
X179958Y18805D01*
X179730Y18830D01*
X184669D01*
X184442Y18805D01*
D02*
G37*
G36*
X176442D02*
X176238Y18729D01*
X176058Y18602D01*
X175902Y18424D01*
X175770Y18196D01*
X175662Y17916D01*
X175578Y17586D01*
X175518Y17205D01*
X175482Y16773D01*
X175470Y16291D01*
X172930D01*
X172918Y16773D01*
X172882Y17205D01*
X172822Y17586D01*
X172738Y17916D01*
X172630Y18196D01*
X172498Y18424D01*
X172342Y18602D01*
X172162Y18729D01*
X171958Y18805D01*
X171730Y18830D01*
X176670D01*
X176442Y18805D01*
D02*
G37*
G36*
X487470Y14659D02*
X487473Y14408D01*
X487520Y13774D01*
X487548Y13602D01*
X487583Y13451D01*
X487624Y13320D01*
X487671Y13208D01*
X487724Y13117D01*
X487783Y13045D01*
X484617Y13045D01*
X484676Y13117D01*
X484729Y13208D01*
X484776Y13320D01*
X484817Y13451D01*
X484852Y13602D01*
X484880Y13774D01*
X484917Y14176D01*
X484927Y14408D01*
X484930Y14659D01*
X487470Y14659D01*
D02*
G37*
G36*
X455470Y14659D02*
X455473Y14408D01*
X455520Y13774D01*
X455548Y13602D01*
X455583Y13451D01*
X455624Y13320D01*
X455671Y13208D01*
X455724Y13117D01*
X455783Y13045D01*
X452617Y13045D01*
X452676Y13117D01*
X452729Y13208D01*
X452776Y13320D01*
X452817Y13451D01*
X452852Y13602D01*
X452880Y13774D01*
X452918Y14176D01*
X452927Y14408D01*
X452930Y14659D01*
X455470Y14659D01*
D02*
G37*
G36*
X439470Y14659D02*
X439473Y14408D01*
X439520Y13774D01*
X439548Y13602D01*
X439583Y13451D01*
X439624Y13320D01*
X439671Y13208D01*
X439724Y13117D01*
X439783Y13045D01*
X436617Y13046D01*
X436676Y13117D01*
X436729Y13208D01*
X436776Y13320D01*
X436817Y13451D01*
X436852Y13602D01*
X436880Y13774D01*
X436917Y14176D01*
X436927Y14408D01*
X436930Y14659D01*
X439470Y14659D01*
D02*
G37*
G36*
X423470D02*
X423473Y14408D01*
X423520Y13774D01*
X423548Y13602D01*
X423583Y13451D01*
X423624Y13320D01*
X423671Y13208D01*
X423724Y13117D01*
X423783Y13045D01*
X420617Y13046D01*
X420676Y13117D01*
X420729Y13208D01*
X420776Y13320D01*
X420817Y13451D01*
X420852Y13602D01*
X420880Y13774D01*
X420917Y14176D01*
X420927Y14408D01*
X420930Y14659D01*
X423470Y14659D01*
D02*
G37*
G36*
X399470D02*
X399473Y14408D01*
X399520Y13774D01*
X399548Y13602D01*
X399583Y13451D01*
X399623Y13320D01*
X399670Y13208D01*
X399724Y13117D01*
X399783Y13045D01*
X396617Y13046D01*
X396676Y13117D01*
X396729Y13208D01*
X396776Y13320D01*
X396817Y13451D01*
X396852Y13602D01*
X396880Y13774D01*
X396917Y14176D01*
X396927Y14408D01*
X396930Y14659D01*
X399470Y14659D01*
D02*
G37*
G36*
X375470Y14659D02*
X375473Y14408D01*
X375520Y13774D01*
X375548Y13602D01*
X375583Y13451D01*
X375624Y13319D01*
X375671Y13208D01*
X375724Y13117D01*
X375783Y13045D01*
X372617Y13046D01*
X372676Y13117D01*
X372729Y13208D01*
X372776Y13320D01*
X372817Y13451D01*
X372852Y13602D01*
X372880Y13774D01*
X372917Y14176D01*
X372927Y14408D01*
X372930Y14659D01*
X375470Y14659D01*
D02*
G37*
G36*
X351470Y14659D02*
X351473Y14408D01*
X351520Y13774D01*
X351548Y13602D01*
X351583Y13451D01*
X351624Y13319D01*
X351670Y13208D01*
X351724Y13117D01*
X351783Y13045D01*
X348616Y13046D01*
X348676Y13117D01*
X348729Y13208D01*
X348776Y13320D01*
X348817Y13451D01*
X348852Y13602D01*
X348880Y13774D01*
X348918Y14177D01*
X348927Y14408D01*
X348930Y14659D01*
X351470Y14659D01*
D02*
G37*
G36*
X327470D02*
X327473Y14408D01*
X327520Y13774D01*
X327548Y13602D01*
X327583Y13451D01*
X327624Y13319D01*
X327671Y13208D01*
X327724Y13117D01*
X327783Y13045D01*
X324617Y13046D01*
X324676Y13117D01*
X324729Y13208D01*
X324776Y13320D01*
X324817Y13451D01*
X324852Y13603D01*
X324880Y13774D01*
X324917Y14177D01*
X324927Y14408D01*
X324930Y14659D01*
X327470Y14659D01*
D02*
G37*
G36*
X303470D02*
X303473Y14408D01*
X303520Y13774D01*
X303548Y13602D01*
X303583Y13451D01*
X303624Y13319D01*
X303671Y13208D01*
X303724Y13117D01*
X303783Y13045D01*
X300616Y13046D01*
X300676Y13117D01*
X300729Y13208D01*
X300776Y13320D01*
X300817Y13451D01*
X300852Y13603D01*
X300880Y13774D01*
X300917Y14177D01*
X300927Y14408D01*
X300930Y14659D01*
X303470Y14659D01*
D02*
G37*
G36*
X279470Y14659D02*
X279473Y14408D01*
X279520Y13774D01*
X279548Y13602D01*
X279583Y13451D01*
X279624Y13319D01*
X279671Y13208D01*
X279724Y13117D01*
X279783Y13045D01*
X276616Y13046D01*
X276676Y13117D01*
X276729Y13208D01*
X276776Y13320D01*
X276817Y13451D01*
X276852Y13603D01*
X276880Y13774D01*
X276917Y14177D01*
X276927Y14408D01*
X276930Y14659D01*
X279470Y14659D01*
D02*
G37*
G36*
X255470D02*
X255473Y14408D01*
X255520Y13773D01*
X255548Y13602D01*
X255583Y13451D01*
X255623Y13319D01*
X255671Y13208D01*
X255724Y13117D01*
X255783Y13045D01*
X252617Y13046D01*
X252676Y13117D01*
X252729Y13209D01*
X252776Y13320D01*
X252817Y13451D01*
X252852Y13603D01*
X252880Y13774D01*
X252917Y14177D01*
X252927Y14408D01*
X252930Y14659D01*
X255470Y14659D01*
D02*
G37*
G36*
X231470Y14659D02*
X231473Y14408D01*
X231520Y13773D01*
X231548Y13602D01*
X231583Y13451D01*
X231623Y13319D01*
X231670Y13208D01*
X231724Y13117D01*
X231783Y13045D01*
X228617Y13046D01*
X228676Y13117D01*
X228729Y13209D01*
X228776Y13320D01*
X228817Y13451D01*
X228852Y13603D01*
X228880Y13774D01*
X228917Y14177D01*
X228927Y14408D01*
X228930Y14659D01*
X231470Y14659D01*
D02*
G37*
G36*
X207470Y14659D02*
X207473Y14408D01*
X207520Y13773D01*
X207548Y13602D01*
X207583Y13451D01*
X207624Y13319D01*
X207670Y13208D01*
X207724Y13117D01*
X207783Y13045D01*
X204617Y13046D01*
X204676Y13117D01*
X204729Y13209D01*
X204776Y13320D01*
X204817Y13451D01*
X204852Y13603D01*
X204880Y13774D01*
X204917Y14177D01*
X204927Y14408D01*
X204930Y14659D01*
X207470Y14659D01*
D02*
G37*
G36*
X175470Y14659D02*
X175473Y14407D01*
X175520Y13773D01*
X175548Y13602D01*
X175583Y13451D01*
X175623Y13319D01*
X175671Y13208D01*
X175724Y13117D01*
X175783Y13045D01*
X172617Y13046D01*
X172676Y13117D01*
X172729Y13209D01*
X172776Y13320D01*
X172817Y13451D01*
X172852Y13603D01*
X172880Y13774D01*
X172917Y14177D01*
X172927Y14408D01*
X172930Y14659D01*
X175470Y14659D01*
D02*
G37*
G36*
X319473Y3168D02*
X319520Y2534D01*
X319548Y2362D01*
X319583Y2211D01*
X319624Y2080D01*
X319671Y1968D01*
X319724Y1877D01*
X319783Y1805D01*
X316617D01*
X316676Y1877D01*
X316729Y1968D01*
X316776Y2080D01*
X316817Y2211D01*
X316852Y2362D01*
X316880Y2534D01*
X316917Y2936D01*
X316927Y3168D01*
X316930Y3419D01*
X319470D01*
X319473Y3168D01*
D02*
G37*
G36*
X311473D02*
X311520Y2534D01*
X311548Y2362D01*
X311583Y2211D01*
X311624Y2080D01*
X311671Y1968D01*
X311724Y1877D01*
X311783Y1805D01*
X308617D01*
X308676Y1877D01*
X308729Y1968D01*
X308776Y2080D01*
X308817Y2211D01*
X308852Y2362D01*
X308880Y2534D01*
X308917Y2936D01*
X308927Y3168D01*
X308930Y3419D01*
X311470D01*
X311473Y3168D01*
D02*
G37*
G36*
X199473D02*
X199520Y2534D01*
X199548Y2362D01*
X199583Y2211D01*
X199624Y2080D01*
X199671Y1968D01*
X199724Y1877D01*
X199783Y1805D01*
X196617D01*
X196676Y1877D01*
X196729Y1968D01*
X196776Y2080D01*
X196817Y2211D01*
X196852Y2362D01*
X196880Y2534D01*
X196917Y2936D01*
X196927Y3168D01*
X196930Y3419D01*
X199470D01*
X199473Y3168D01*
D02*
G37*
G36*
X191470Y3229D02*
X191473Y2978D01*
X191520Y2344D01*
X191548Y2172D01*
X191583Y2021D01*
X191623Y1890D01*
X191670Y1778D01*
X191724Y1687D01*
X191783Y1615D01*
X188617Y1616D01*
X188676Y1687D01*
X188729Y1778D01*
X188776Y1890D01*
X188817Y2021D01*
X188852Y2173D01*
X188880Y2344D01*
X188918Y2747D01*
X188927Y2978D01*
X188930Y3229D01*
X191470Y3229D01*
D02*
G37*
G36*
X183470D02*
X183473Y2978D01*
X183520Y2344D01*
X183548Y2172D01*
X183583Y2021D01*
X183624Y1890D01*
X183671Y1778D01*
X183724Y1687D01*
X183783Y1615D01*
X180616Y1616D01*
X180676Y1687D01*
X180729Y1778D01*
X180776Y1890D01*
X180817Y2021D01*
X180852Y2173D01*
X180880Y2344D01*
X180917Y2747D01*
X180927Y2978D01*
X180930Y3229D01*
X183470Y3229D01*
D02*
G37*
G36*
X149573Y-13643D02*
X149625Y-13712D01*
X149702Y-13772D01*
X149804Y-13825D01*
X149931Y-13869D01*
X150083Y-13906D01*
X150259Y-13934D01*
X150461Y-13954D01*
X150939Y-13970D01*
X150549Y-16510D01*
X147926Y-16149D01*
X149546Y-13567D01*
X149573Y-13643D01*
D02*
G37*
G36*
X359567Y435101D02*
X359428Y434932D01*
X359305Y434758D01*
X359198Y434579D01*
X359107Y434394D01*
X359033Y434204D01*
X358976Y434009D01*
X358935Y433809D01*
X358910Y433604D01*
X358902Y433393D01*
X357378D01*
X357370Y433604D01*
X357345Y433809D01*
X357304Y434009D01*
X357247Y434204D01*
X357173Y434394D01*
X357082Y434579D01*
X356976Y434758D01*
X356852Y434932D01*
X356713Y435101D01*
X356557Y435265D01*
X359723D01*
X359567Y435101D01*
D02*
G37*
G36*
X358910Y424916D02*
X358935Y424711D01*
X358976Y424511D01*
X359033Y424316D01*
X359107Y424126D01*
X359198Y423941D01*
X359305Y423762D01*
X359428Y423588D01*
X359567Y423419D01*
X359723Y423255D01*
X356557D01*
X356713Y423419D01*
X356852Y423588D01*
X356976Y423762D01*
X357082Y423941D01*
X357173Y424126D01*
X357247Y424316D01*
X357304Y424511D01*
X357345Y424711D01*
X357370Y424916D01*
X357378Y425127D01*
X358902D01*
X358910Y424916D01*
D02*
G37*
G36*
X298982Y293503D02*
X299169Y293342D01*
X299358Y293200D01*
X299548Y293076D01*
X299738Y292972D01*
X299930Y292887D01*
X300123Y292820D01*
X300317Y292773D01*
X300512Y292745D01*
X300708Y292735D01*
Y291465D01*
X300512Y291455D01*
X300317Y291427D01*
X300123Y291380D01*
X299930Y291313D01*
X299738Y291228D01*
X299548Y291124D01*
X299358Y291000D01*
X299169Y290858D01*
X298982Y290697D01*
X298795Y290517D01*
Y293683D01*
X298982Y293503D01*
D02*
G37*
G36*
X289286Y291818D02*
X289305Y291572D01*
X289338Y291338D01*
X289385Y291116D01*
X289446Y290908D01*
X289521Y290712D01*
X289611Y290528D01*
X289714Y290358D01*
X289832Y290200D01*
X289964Y290054D01*
X289066Y289156D01*
X288920Y289288D01*
X288762Y289406D01*
X288592Y289510D01*
X288408Y289599D01*
X288212Y289674D01*
X288004Y289735D01*
X287782Y289782D01*
X287549Y289815D01*
X287302Y289834D01*
X287043Y289838D01*
X289282Y292077D01*
X289286Y291818D01*
D02*
G37*
G36*
X318139Y287292D02*
X318298Y287174D01*
X318468Y287071D01*
X318652Y286981D01*
X318848Y286906D01*
X319056Y286845D01*
X319277Y286798D01*
X319512Y286765D01*
X319758Y286746D01*
X320017Y286742D01*
X317778Y284503D01*
X317774Y284762D01*
X317755Y285009D01*
X317722Y285243D01*
X317675Y285464D01*
X317614Y285672D01*
X317539Y285868D01*
X317449Y286052D01*
X317346Y286222D01*
X317228Y286381D01*
X317096Y286526D01*
X317994Y287424D01*
X318139Y287292D01*
D02*
G37*
G36*
X330177Y282218D02*
X329918Y282214D01*
X329672Y282195D01*
X329437Y282162D01*
X329216Y282115D01*
X329008Y282054D01*
X328812Y281979D01*
X328628Y281889D01*
X328458Y281786D01*
X328299Y281668D01*
X328154Y281536D01*
X327256Y282434D01*
X327388Y282579D01*
X327506Y282738D01*
X327609Y282908D01*
X327699Y283092D01*
X327774Y283288D01*
X327835Y283496D01*
X327882Y283717D01*
X327915Y283951D01*
X327934Y284198D01*
X327938Y284457D01*
X330177Y282218D01*
D02*
G37*
G36*
X473337Y232085D02*
X473154Y232268D01*
X472971Y232431D01*
X472785Y232575D01*
X472598Y232700D01*
X472409Y232805D01*
X472218Y232892D01*
X472026Y232959D01*
X471833Y233007D01*
X471637Y233035D01*
X471441Y233045D01*
X471464Y234315D01*
X471659Y234324D01*
X471854Y234352D01*
X472048Y234399D01*
X472242Y234465D01*
X472435Y234549D01*
X472628Y234652D01*
X472820Y234774D01*
X473011Y234914D01*
X473202Y235074D01*
X473393Y235252D01*
X473337Y232085D01*
D02*
G37*
G36*
X428522Y219843D02*
X428709Y219682D01*
X428898Y219540D01*
X429088Y219416D01*
X429278Y219312D01*
X429470Y219227D01*
X429663Y219160D01*
X429857Y219113D01*
X430052Y219084D01*
X430248Y219075D01*
Y217805D01*
X430052Y217796D01*
X429857Y217767D01*
X429663Y217720D01*
X429470Y217653D01*
X429278Y217568D01*
X429088Y217464D01*
X428898Y217340D01*
X428709Y217198D01*
X428522Y217037D01*
X428335Y216857D01*
Y220023D01*
X428522Y219843D01*
D02*
G37*
D11*
X82260Y48290D02*
Y57440D01*
X127872Y-30480D02*
X377973D01*
X414200Y5747D01*
Y28800D01*
X310200Y72800D02*
Y99060D01*
X318200Y72800D02*
Y99060D01*
X198200Y190D02*
Y28800D01*
X182200Y0D02*
Y28800D01*
X190200Y0D02*
Y28800D01*
X147857Y-13970D02*
X149127Y-15240D01*
X147320Y-13970D02*
X147857D01*
X149127Y-15240D02*
X373380D01*
X375920Y-20320D02*
X390200Y-6040D01*
X132080Y-20320D02*
X375920D01*
X82191Y29569D02*
X132080Y-20320D01*
X378024Y-25400D02*
X406200Y2776D01*
X69850Y34726D02*
X129976Y-25400D01*
X373380Y-15240D02*
X382200Y-6420D01*
X129976Y-25400D02*
X378024D01*
X318200Y190D02*
Y28800D01*
X310200Y190D02*
Y28800D01*
X446200Y28800D02*
Y46170D01*
X365774Y46170D02*
X422200D01*
X470200Y28800D02*
Y46170D01*
X190200Y55430D02*
Y72800D01*
X404860Y132080D02*
X446200Y90740D01*
X124734Y132080D02*
X404860D01*
X393940Y127000D02*
X430200Y90740D01*
X126838Y127000D02*
X393940D01*
X128942Y121920D02*
X382204D01*
X131047Y116840D02*
X380100D01*
X133151Y111760D02*
X374650D01*
X135255Y106680D02*
X372546D01*
X382204Y121920D02*
X414200Y89924D01*
X380100Y116840D02*
X406200Y90740D01*
X374650Y111760D02*
X390200Y96210D01*
X372546Y106680D02*
X382200Y97026D01*
X131445Y102870D02*
X135255Y106680D01*
X382200Y72800D02*
Y97026D01*
X131445Y52705D02*
Y102870D01*
X126365Y104974D02*
X133151Y111760D01*
X126365Y48895D02*
Y104974D01*
X121285Y107078D02*
X131047Y116840D01*
X121285Y45085D02*
Y107078D01*
X116205Y109183D02*
X128942Y121920D01*
X111125Y111287D02*
X126838Y127000D01*
X106045Y113391D02*
X124734Y132080D01*
X390200Y72800D02*
Y96210D01*
X116205Y45085D02*
Y109183D01*
X111125Y48895D02*
Y111287D01*
X106045Y52705D02*
Y113391D01*
X114300Y435610D02*
X156599Y477909D01*
X114300Y261620D02*
Y435610D01*
X156599Y477909D02*
X221023D01*
X101600Y248920D02*
X114300Y261620D01*
X274782Y531668D02*
Y544022D01*
X322580Y591820D01*
X221023Y477909D02*
X274782Y531668D01*
X322580Y591820D02*
X378460D01*
X389600Y580680D01*
X511745D01*
X518785Y587720D01*
X566950D01*
X573010Y581660D01*
X601980D01*
X96520Y43180D02*
X106045Y52705D01*
X105410Y43180D02*
X111125Y48895D01*
X350200Y11430D02*
Y28800D01*
X149860Y55880D02*
X157480Y48260D01*
X149860Y55880D02*
Y63500D01*
X139700Y58856D02*
Y68580D01*
Y58856D02*
X155376Y43180D01*
X382200Y-6420D02*
Y28800D01*
X57150Y40242D02*
X127872Y-30480D01*
X360680Y48260D02*
X365760Y53340D01*
X423600D02*
X430200Y46740D01*
X365760Y53340D02*
X423600D01*
X362784Y43180D02*
X365774Y46170D01*
X121285Y45085D02*
X123190Y43180D01*
X462200Y72800D02*
X462200Y72800D01*
Y101600D01*
X462200Y101600D01*
X478200Y72800D02*
Y101600D01*
X478200Y101600D01*
X478200Y72800D02*
X478200Y72800D01*
X470200D02*
Y101600D01*
X470200Y101600D01*
X470200Y72800D02*
X470200Y72800D01*
X430200Y28800D02*
Y46740D01*
X155376Y43180D02*
X362784D01*
X157480Y48260D02*
X360680D01*
X198200Y55430D02*
X198200Y55430D01*
Y72800D01*
X190200Y72800D02*
X190200Y72800D01*
X198200Y72800D02*
X198200Y72800D01*
X182200Y55430D02*
X182200Y55430D01*
Y72800D02*
X182200Y72800D01*
X182200Y55430D02*
Y72800D01*
X131445Y52705D02*
X140970Y43180D01*
X114300D02*
X116205Y45085D01*
X126365Y48895D02*
X132080Y43180D01*
X422200Y11430D02*
Y28800D01*
X478200Y46170D02*
X478200Y46170D01*
X478200Y28800D02*
X478200Y28800D01*
Y46170D01*
X438200Y11430D02*
Y28800D01*
X454200Y90170D02*
X454200Y90170D01*
Y72800D02*
Y90170D01*
Y72800D02*
X454200Y72800D01*
X374200Y72800D02*
X374200Y72800D01*
X374200Y72800D02*
Y90170D01*
X374200Y90170D02*
X374200Y90170D01*
X302200Y72800D02*
Y90170D01*
Y72800D02*
X302200Y72800D01*
X302200Y90170D02*
X302200Y90170D01*
X398200Y11430D02*
Y28800D01*
X374200Y11430D02*
Y28800D01*
X174200Y11430D02*
Y28800D01*
X446200Y72800D02*
Y90740D01*
X398200Y72800D02*
X398200Y72800D01*
X398200Y90170D02*
X398200Y90170D01*
Y72800D02*
Y90170D01*
X230200Y11430D02*
Y28800D01*
X174200Y72800D02*
Y90170D01*
Y72800D02*
X174200Y72800D01*
X174200Y90170D02*
X174200Y90170D01*
X302200Y11430D02*
Y28800D01*
X326200Y11430D02*
Y28800D01*
X486200Y72800D02*
X486200Y72800D01*
X486200Y72800D02*
Y90170D01*
X454200Y11430D02*
Y28800D01*
X206200Y11430D02*
Y28800D01*
X390200Y-6040D02*
Y28800D01*
X406200Y72800D02*
Y90740D01*
X254200Y72800D02*
X254200Y72800D01*
X254200Y90170D02*
X254200Y90170D01*
Y72800D02*
Y90170D01*
X278200Y90170D02*
X278200Y90170D01*
Y72800D02*
X278200Y72800D01*
X278200Y72800D02*
Y90170D01*
X486200Y11430D02*
Y28800D01*
X422200Y72800D02*
Y90170D01*
Y72800D02*
X422200Y72800D01*
X422200Y90170D02*
X422200Y90170D01*
X406200Y2776D02*
Y28800D01*
X430200Y72800D02*
Y90740D01*
X326200Y72800D02*
X326200Y72800D01*
X326200Y72800D02*
Y90170D01*
X326200Y90170D02*
X326200Y90170D01*
X462200Y28800D02*
Y46170D01*
X462200Y28800D02*
X462200Y28800D01*
Y46170D02*
X462200Y46170D01*
X414200Y72800D02*
Y89924D01*
X254200Y11430D02*
Y28800D01*
X230200Y72800D02*
Y90170D01*
X230200Y90170D02*
X230200Y90170D01*
Y72800D02*
X230200Y72800D01*
X278200Y11430D02*
Y28800D01*
X206200Y72800D02*
X206200Y72800D01*
X206200Y90170D02*
X206200Y90170D01*
Y72800D02*
Y90170D01*
X350200Y72800D02*
X350200Y72800D01*
X350200Y72800D02*
Y90170D01*
X350200Y90170D02*
X350200Y90170D01*
X438200Y72800D02*
X438200Y72800D01*
X438200Y72800D02*
Y90170D01*
X438200Y90170D02*
X438200Y90170D01*
X470200Y28800D02*
X470200Y28800D01*
X57150Y40242D02*
Y57150D01*
X69850Y34726D02*
Y57150D01*
X82191Y57509D02*
X82260Y57440D01*
X82191Y48221D02*
X82260Y48290D01*
X82191Y29569D02*
Y48221D01*
X540540Y616460D02*
X567180D01*
X601980Y581660D01*
X528000Y629000D02*
X540540Y616460D01*
D12*
X497840Y234745D02*
Y428644D01*
X445154Y481330D02*
X497840Y428644D01*
X413058Y481330D02*
X445154D01*
X426720Y205740D02*
X468835D01*
X501650Y235322D02*
Y430222D01*
X416560Y200315D02*
X466643D01*
X501650Y235322D01*
X468835Y205740D02*
X497840Y234745D01*
X335280Y179070D02*
X409465D01*
X340360Y182880D02*
X410042D01*
X414197Y187035D02*
X420693D01*
X410042Y182880D02*
X414197Y187035D01*
X413620Y183225D02*
X419115D01*
X409465Y179070D02*
X413620Y183225D01*
X459740Y193040D02*
X509270D01*
X515620Y199390D01*
X449580Y182880D02*
X459740Y193040D01*
X420693Y187035D02*
X424848Y182880D01*
X449580D01*
X320040Y203200D02*
X340360Y182880D01*
X514350Y189230D02*
X515620Y190500D01*
X461318Y189230D02*
X514350D01*
X419115Y183225D02*
X423270Y179070D01*
X451158D02*
X461318Y189230D01*
X423270Y179070D02*
X451158D01*
X311150Y203200D02*
X335280Y179070D01*
X506730Y181610D02*
X515620Y172720D01*
X464474Y181610D02*
X506730D01*
X454314Y171450D02*
X464474Y181610D01*
X420422Y171450D02*
X454314D01*
X417537Y168565D02*
X420422Y171450D01*
X413043Y168565D02*
X417537D01*
X325120Y171450D02*
X410158D01*
X293370Y203200D02*
X325120Y171450D01*
X410158D02*
X413043Y168565D01*
X511810Y185420D02*
X515620Y181610D01*
X462896Y185420D02*
X511810D01*
X413043Y179415D02*
X417537D01*
X452736Y175260D02*
X462896Y185420D01*
X417537Y179415D02*
X421692Y175260D01*
X452736D01*
X408888D02*
X413043Y179415D01*
X302260Y203200D02*
X330200Y175260D01*
X408888D01*
X411480Y193040D02*
X414020D01*
X368300Y236220D02*
X411480Y193040D01*
X269875Y159385D02*
X416170D01*
X268297Y155575D02*
X414592D01*
X266719Y151765D02*
X413014D01*
X265140Y147955D02*
X411436D01*
X409857Y144145D02*
X415573Y138430D01*
X263562Y144145D02*
X409857D01*
X408279Y140335D02*
X413994Y134620D01*
X261984Y140335D02*
X408279D01*
X406701Y136525D02*
X412416Y130810D01*
X260406Y136525D02*
X406701D01*
X411436Y147955D02*
X417151Y142240D01*
X413014Y151765D02*
X418729Y146050D01*
X414592Y155575D02*
X420307Y149860D01*
X416170Y159385D02*
X421885Y153670D01*
X475559D01*
X514929Y114300D01*
X420307Y149860D02*
X473981D01*
X513351Y110490D01*
X418729Y146050D02*
X472403D01*
X511773Y106680D01*
X417151Y142240D02*
X470825D01*
X510195Y102870D01*
X415573Y138430D02*
X469246D01*
X508616Y99060D01*
X413994Y134620D02*
X467668D01*
X507038Y95250D01*
X412416Y130810D02*
X466090D01*
X505460Y91440D01*
X237490Y159441D02*
X260406Y136525D01*
X241300Y161019D02*
X261984Y140335D01*
X245110Y162597D02*
X263562Y144145D01*
X248920Y164175D02*
X265140Y147955D01*
X252730Y165754D02*
X266719Y151765D01*
X256540Y167332D02*
X268297Y155575D01*
X260350Y168910D02*
X269875Y159385D01*
X260350Y168910D02*
Y180340D01*
X275590Y195580D01*
X426720Y218440D02*
X454660D01*
X660400Y63500D02*
X673100Y76200D01*
X641350Y63500D02*
X660400D01*
X613410Y91440D02*
X641350Y63500D01*
X628650Y95250D02*
X647700Y76200D01*
X641350Y88900D02*
X660400D01*
X631190Y99060D02*
X641350Y88900D01*
X660400D02*
X673100Y101600D01*
X646430Y102870D02*
X647700Y101600D01*
X659611Y113511D02*
X673100Y127000D01*
X625629Y113511D02*
X659611D01*
X511773Y106680D02*
X618798D01*
X625629Y113511D01*
X641042Y139700D02*
X660400D01*
X615642Y114300D02*
X641042Y139700D01*
X633730Y127000D02*
X647700D01*
X617220Y110490D02*
X633730Y127000D01*
X514929Y114300D02*
X615642D01*
X513351Y110490D02*
X617220D01*
X660400Y139700D02*
X673100Y152400D01*
X505460Y91440D02*
X613410D01*
X507038Y95250D02*
X628650D01*
X508616Y99060D02*
X631190D01*
X510195Y102870D02*
X646430D01*
X237490Y159441D02*
Y180340D01*
X241300Y161019D02*
Y185420D01*
X256540Y167332D02*
Y185420D01*
X266700Y195580D01*
X252730Y165754D02*
Y190500D01*
X257810Y195580D01*
X222250D02*
X237490Y180340D01*
X231140Y195580D02*
X241300Y185420D01*
X245110Y162597D02*
Y190500D01*
X240030Y195580D02*
X245110Y190500D01*
X248920Y164175D02*
Y195580D01*
X368300Y480060D02*
X374650Y473710D01*
X381000Y480060D02*
X383540Y477520D01*
X405438Y473710D02*
X413058Y481330D01*
X374650Y473710D02*
X405438D01*
X403860Y477520D02*
X411480Y485140D01*
X383540Y477520D02*
X403860D01*
X446732Y485140D02*
X501650Y430222D01*
X411480Y485140D02*
X446732D01*
X368300Y488950D02*
X448310D01*
X330200D02*
X368300D01*
X337820Y236220D02*
X368300D01*
X454660Y218440D02*
X469900Y233680D01*
X474940D01*
X474980Y233640D01*
X448310Y488950D02*
X505460Y431800D01*
Y228600D02*
Y431800D01*
X83820Y482600D02*
X84438Y483218D01*
Y485009D02*
X109220Y509791D01*
X92710Y482600D02*
Y487893D01*
X113675Y508858D01*
X84438Y483218D02*
Y485009D01*
X109220Y509791D02*
Y515620D01*
X124460Y530860D01*
Y545930D01*
X138450Y559920D01*
X132080Y533069D02*
Y539750D01*
X113675Y508858D02*
Y514664D01*
X132080Y533069D01*
X297180Y292100D02*
X312420D01*
X300065Y279055D02*
X324775D01*
X330200Y284480D01*
X287020Y292100D02*
X300065Y279055D01*
X312420Y292100D02*
X320040Y284480D01*
D14*
X486200Y28800D02*
D03*
Y72800D02*
D03*
X478200Y28800D02*
D03*
Y72800D02*
D03*
X470200Y28800D02*
D03*
Y72800D02*
D03*
X462200Y28800D02*
D03*
Y72800D02*
D03*
X454200Y28800D02*
D03*
Y72800D02*
D03*
X446200Y28800D02*
D03*
Y72800D02*
D03*
X438200Y28800D02*
D03*
Y72800D02*
D03*
X430200Y28800D02*
D03*
Y72800D02*
D03*
X422200Y28800D02*
D03*
Y72800D02*
D03*
X414200Y28800D02*
D03*
Y72800D02*
D03*
X406200Y28800D02*
D03*
Y72800D02*
D03*
X398200Y28800D02*
D03*
Y72800D02*
D03*
X390200Y28800D02*
D03*
Y72800D02*
D03*
X382200Y28800D02*
D03*
Y72800D02*
D03*
X374200Y28800D02*
D03*
Y72800D02*
D03*
X366200Y28800D02*
D03*
Y72800D02*
D03*
X358200Y28800D02*
D03*
Y72800D02*
D03*
X350200Y28800D02*
D03*
Y72800D02*
D03*
X342200Y28800D02*
D03*
Y72800D02*
D03*
X334200Y28800D02*
D03*
Y72800D02*
D03*
X326200Y28800D02*
D03*
Y72800D02*
D03*
X318200Y28800D02*
D03*
Y72800D02*
D03*
X310200Y28800D02*
D03*
Y72800D02*
D03*
X302200Y28800D02*
D03*
Y72800D02*
D03*
X294200Y28800D02*
D03*
Y72800D02*
D03*
X286200Y28800D02*
D03*
Y72800D02*
D03*
X278200Y28800D02*
D03*
Y72800D02*
D03*
X270200Y28800D02*
D03*
Y72800D02*
D03*
X262200Y28800D02*
D03*
Y72800D02*
D03*
X254200Y28800D02*
D03*
Y72800D02*
D03*
X246200Y28800D02*
D03*
Y72800D02*
D03*
X238200Y28800D02*
D03*
Y72800D02*
D03*
X230200Y28800D02*
D03*
Y72800D02*
D03*
X222200Y28800D02*
D03*
Y72800D02*
D03*
X214200Y28800D02*
D03*
Y72800D02*
D03*
X206200Y28800D02*
D03*
Y72800D02*
D03*
X198200Y28800D02*
D03*
Y72800D02*
D03*
X190200Y28800D02*
D03*
Y72800D02*
D03*
X182200Y28800D02*
D03*
Y72800D02*
D03*
X174200Y28800D02*
D03*
Y72800D02*
D03*
D30*
X647700Y279400D02*
D03*
Y254000D02*
D03*
Y228600D02*
D03*
Y203200D02*
D03*
Y177800D02*
D03*
Y152400D02*
D03*
Y127000D02*
D03*
Y101600D02*
D03*
Y76200D02*
D03*
Y50800D02*
D03*
X673100Y381000D02*
D03*
Y355600D02*
D03*
Y330200D02*
D03*
Y304800D02*
D03*
Y279400D02*
D03*
Y254000D02*
D03*
Y228600D02*
D03*
Y203200D02*
D03*
Y177800D02*
D03*
Y152400D02*
D03*
Y127000D02*
D03*
Y101600D02*
D03*
Y76200D02*
D03*
Y50800D02*
D03*
X647700Y381000D02*
D03*
Y355600D02*
D03*
Y330200D02*
D03*
Y304800D02*
D03*
X222250Y527050D02*
D03*
X196850D02*
D03*
Y495300D02*
D03*
X222250D02*
D03*
D65*
X358140Y421640D02*
Y436880D01*
X470034Y590647D02*
X473141D01*
X473710Y590078D01*
X467484Y593198D02*
Y594607D01*
X468376Y595499D01*
X464944Y595659D02*
X467324Y598039D01*
X464944Y592146D02*
X466706Y590383D01*
X467324Y598039D02*
X486541D01*
X466706Y589121D02*
Y590383D01*
X464944Y592146D02*
Y595659D01*
X467484Y593198D02*
X470034Y590647D01*
X468376Y595499D02*
X485489D01*
X502920Y660400D02*
X506730Y656590D01*
X501650Y591820D02*
X506730Y596900D01*
Y656590D01*
X486541Y598039D02*
X492760Y591820D01*
X501650D01*
X509270Y656590D02*
X513080Y660400D01*
X509270Y595848D02*
Y656590D01*
X502702Y589280D02*
X509270Y595848D01*
X485489Y595499D02*
X491708Y589280D01*
X502702D01*
D66*
X88682Y35996D02*
X133024Y-8346D01*
X319886Y-5806D02*
X336930Y11238D01*
X91222Y37048D02*
X134076Y-5806D01*
X319886D01*
X133024Y-8346D02*
X320938D01*
X339470Y10186D01*
X82550Y296668D02*
Y470575D01*
X80010Y295616D02*
Y471627D01*
X82550Y296668D02*
X90170Y289048D01*
X80010Y295616D02*
X87630Y287996D01*
X133055Y473710D02*
X171790Y512445D01*
X134107Y471170D02*
X172842Y509905D01*
X171790Y512445D02*
X196255D01*
X83145Y471170D02*
X134107D01*
X82093Y473710D02*
X133055D01*
X80010Y471627D02*
X82093Y473710D01*
X82550Y470575D02*
X83145Y471170D01*
X172842Y509905D02*
X196255D01*
X91440Y45592D02*
Y271907D01*
X88900Y46645D02*
Y270855D01*
X89678Y276265D02*
X92147Y278733D01*
X93313D02*
X93980Y279400D01*
X92147Y278733D02*
X93313D01*
X84763Y278640D02*
Y279400D01*
X336192Y17997D02*
Y26808D01*
Y17997D02*
X336930Y17260D01*
X334200Y28800D02*
X336192Y26808D01*
X336930Y11238D02*
Y17260D01*
X91222Y37048D02*
Y45374D01*
X91440Y45592D01*
X89678Y273669D02*
Y276265D01*
Y273669D02*
X91440Y271907D01*
X90170Y280676D02*
Y289048D01*
X84487Y280067D02*
X86563D01*
X86578Y280081D01*
X87035D01*
X87630Y280676D01*
X83820Y279400D02*
X84487Y280067D01*
X90780D02*
X93313D01*
X87630Y280676D02*
Y287996D01*
X90170Y280676D02*
X90780Y280067D01*
X93313D02*
X93980Y279400D01*
X196255Y509905D02*
X196850Y509310D01*
Y513040D02*
Y527050D01*
X196255Y512445D02*
X196850Y513040D01*
Y495300D02*
Y509310D01*
X84763Y278640D02*
X87138Y276265D01*
X83820Y279400D02*
X84763D01*
X340208Y26808D02*
X342200Y28800D01*
X340208Y17997D02*
Y26808D01*
X339470Y17260D02*
X340208Y17997D01*
X339470Y10186D02*
Y17260D01*
X88682Y46427D02*
X88900Y46645D01*
X88682Y35996D02*
Y46427D01*
X87138Y272617D02*
Y276265D01*
Y272617D02*
X88900Y270855D01*
D67*
X528320Y457200D02*
X528320Y137160D01*
D68*
X95250Y510550D02*
D03*
X74930D02*
D03*
X85090Y535950D02*
D03*
X54610Y510550D02*
D03*
X64770Y535950D02*
D03*
X34290Y510550D02*
D03*
X44450Y535950D02*
D03*
D69*
X105410D02*
D03*
D70*
X6350Y501650D02*
D03*
X133350D02*
D03*
D71*
X-11450Y544050D02*
D03*
X151150D02*
D03*
D72*
X1250Y559920D02*
D03*
X24150D02*
D03*
X138450D02*
D03*
X115550D02*
D03*
D73*
X614680Y551370D02*
D03*
Y543370D02*
D03*
X447040Y607060D02*
D03*
X569539Y651036D02*
D03*
X58420Y373380D02*
D03*
X318200Y99060D02*
D03*
X310200D02*
D03*
X198200Y190D02*
D03*
X182200Y0D02*
D03*
X190200D02*
D03*
X147320Y-13970D02*
D03*
X318200Y190D02*
D03*
X310200D02*
D03*
X363220Y280670D02*
D03*
X480060Y223520D02*
D03*
X422200Y46170D02*
D03*
X446200Y46170D02*
D03*
X470200Y46170D02*
D03*
X190200Y55430D02*
D03*
X310200Y55430D02*
D03*
X594360Y539750D02*
D03*
X132080Y274320D02*
D03*
X304800Y299720D02*
D03*
X320040Y203200D02*
D03*
X311150D02*
D03*
X293370D02*
D03*
X302260D02*
D03*
X515620Y199390D02*
D03*
Y190500D02*
D03*
X538480Y137160D02*
D03*
X515620Y172720D02*
D03*
Y181610D02*
D03*
X528320Y457200D02*
D03*
X538480D02*
D03*
X528320Y137160D02*
D03*
X414020Y193040D02*
D03*
X415290Y173990D02*
D03*
X360680Y165100D02*
D03*
X416560Y200315D02*
D03*
X426720Y205740D02*
D03*
Y218440D02*
D03*
X222250Y195580D02*
D03*
X231140D02*
D03*
X240030D02*
D03*
X257810D02*
D03*
X248920D02*
D03*
X266700D02*
D03*
X275590D02*
D03*
X228600Y238760D02*
D03*
X381000Y480060D02*
D03*
X368300D02*
D03*
X330200Y488950D02*
D03*
X505460Y228600D02*
D03*
X495300Y165100D02*
D03*
X452120D02*
D03*
X474980Y233640D02*
D03*
X83820Y482600D02*
D03*
X92710D02*
D03*
X34290Y279400D02*
D03*
X113030Y248920D02*
D03*
X101600D02*
D03*
X-5080Y271780D02*
D03*
X101600Y421640D02*
D03*
X306478Y367257D02*
D03*
X321718D02*
D03*
X336958D02*
D03*
X392430Y356870D02*
D03*
X358140Y436880D02*
D03*
X104140Y327660D02*
D03*
X93980Y279400D02*
D03*
X358140Y421640D02*
D03*
X129540Y261620D02*
D03*
X83820Y279400D02*
D03*
X132080Y539750D02*
D03*
X96520Y43180D02*
D03*
X105410D02*
D03*
X243866Y287046D02*
D03*
X350200Y11430D02*
D03*
X144780Y421640D02*
D03*
X473710Y590078D02*
D03*
X466090Y586740D02*
D03*
X541020Y581660D02*
D03*
X149860Y63500D02*
D03*
X139700Y68580D02*
D03*
X123190Y43180D02*
D03*
X462200Y101600D02*
D03*
X470200D02*
D03*
X478200D02*
D03*
X368300Y577850D02*
D03*
X355600D02*
D03*
X342900D02*
D03*
X330200D02*
D03*
X297180Y292100D02*
D03*
X328930Y236220D02*
D03*
X198200Y55430D02*
D03*
X140970Y43180D02*
D03*
X132080D02*
D03*
X114300D02*
D03*
X182200Y55430D02*
D03*
X478200Y46170D02*
D03*
X462200D02*
D03*
X422200Y90170D02*
D03*
X398200D02*
D03*
X374200D02*
D03*
X69850Y57150D02*
D03*
X82191Y57509D02*
D03*
X57150Y57150D02*
D03*
X174200Y11430D02*
D03*
X398200D02*
D03*
X374200D02*
D03*
X69850Y146050D02*
D03*
X82550D02*
D03*
X6350Y146050D02*
D03*
X19050D02*
D03*
X31750Y146050D02*
D03*
X-6350Y146050D02*
D03*
X-19050Y146050D02*
D03*
X50800Y50800D02*
D03*
X63500D02*
D03*
X76200D02*
D03*
X502920Y660400D02*
D03*
X513080D02*
D03*
X438200Y11430D02*
D03*
X422200D02*
D03*
X438200Y90170D02*
D03*
X254200D02*
D03*
X230200D02*
D03*
X454200Y11430D02*
D03*
X302200D02*
D03*
X278200D02*
D03*
X254200D02*
D03*
X230200D02*
D03*
X206200D02*
D03*
X326200D02*
D03*
X486200D02*
D03*
X174200Y90170D02*
D03*
X206200D02*
D03*
X302200D02*
D03*
X278200D02*
D03*
X326200D02*
D03*
X350200D02*
D03*
X454200D02*
D03*
X486200D02*
D03*
X320040Y284480D02*
D03*
X287020Y292100D02*
D03*
X330200Y284480D02*
D03*
X250190Y334010D02*
D03*
X287020Y175260D02*
D03*
X426720Y299720D02*
D03*
X254000Y439420D02*
D03*
X673100Y553720D02*
D03*
X660400Y539750D02*
D03*
X556260Y553720D02*
D03*
X568960Y539750D02*
D03*
X601980Y581660D02*
D03*
X528000Y629000D02*
D03*
X488000D02*
D03*
X332740Y248920D02*
D03*
Y260350D02*
D03*
Y271780D02*
D03*
X353060D02*
D03*
Y260350D02*
D03*
Y248920D02*
D03*
X342900Y271780D02*
D03*
Y248920D02*
D03*
Y260350D02*
D03*
X337820Y236220D02*
D03*
X342900Y165100D02*
D03*
X441000Y250000D02*
D03*
X377190Y356870D02*
D03*
X361950D02*
D03*
D74*
X532000Y607150D02*
D03*
Y650150D02*
D03*
X484000Y607150D02*
D03*
Y650150D02*
D03*
D75*
X545500Y628650D02*
D03*
X470500D02*
D03*
D76*
X660400Y647700D02*
D03*
X0D02*
D03*
Y0D02*
D03*
X660400D02*
D03*
X0Y431800D02*
D03*
X660400D02*
D03*
D77*
X556260Y467360D02*
D03*
X607060Y365760D02*
D03*
Y162560D02*
D03*
X556260Y60960D02*
D03*
X505460Y162560D02*
D03*
X403860Y568960D02*
D03*
X353060Y467360D02*
D03*
X403860Y365760D02*
D03*
X251460Y467360D02*
D03*
X200660Y568960D02*
D03*
Y162560D02*
D03*
X99060Y568960D02*
D03*
X48260Y467360D02*
D03*
X99060Y365760D02*
D03*
Y162560D02*
D03*
X641350Y582930D02*
D03*
X685800Y494030D02*
D03*
X641350Y405130D02*
D03*
X685800Y316230D02*
D03*
Y138430D02*
D03*
X596900Y494030D02*
D03*
X552450Y405130D02*
D03*
Y227330D02*
D03*
X596900Y138430D02*
D03*
X552450Y49530D02*
D03*
X463550Y405130D02*
D03*
X508000Y138430D02*
D03*
X419100Y494030D02*
D03*
X374650Y405130D02*
D03*
X419100Y316230D02*
D03*
X285750Y582930D02*
D03*
Y405130D02*
D03*
X196850Y582930D02*
D03*
Y227330D02*
D03*
X241300Y138430D02*
D03*
X107950Y582930D02*
D03*
X152400Y316230D02*
D03*
X107950Y227330D02*
D03*
X152400Y138430D02*
D03*
X19050Y582930D02*
D03*
X63500Y494030D02*
D03*
X19050Y405130D02*
D03*
Y227330D02*
D03*
M02*
