G04*
G04 #@! TF.GenerationSoftware,Altium Limited,Altium Designer,24.2.2 (26)*
G04*
G04 Layer_Color=2752767*
%FSLAX44Y44*%
%MOMM*%
G71*
G04*
G04 #@! TF.SameCoordinates,AE1E6ACB-0CC1-432D-8EAE-CAE1C6468999*
G04*
G04*
G04 #@! TF.FilePolarity,Positive*
G04*
G01*
G75*
%ADD13C,0.1270*%
%ADD40C,0.1693*%
D13*
X200025Y90170D02*
X202565Y92710D01*
X205105D01*
X202565Y95250D01*
X205105Y97790D01*
X202565D01*
X200025Y100330D01*
X197485Y97790D01*
X194945D01*
X197485Y95250D01*
X194945Y92710D01*
X197485D01*
X200025Y90170D01*
X220025D02*
X222565Y92710D01*
X225105D01*
X222565Y95250D01*
X225105Y97790D01*
X222565D01*
X220025Y100330D01*
X217485Y97790D01*
X214945D01*
X217485Y95250D01*
X214945Y92710D01*
X217485D01*
X220025Y90170D01*
X130175D02*
X132715Y92710D01*
X135255D01*
X132715Y95250D01*
X135255Y97790D01*
X132715D01*
X130175Y100330D01*
X127635Y97790D01*
X125095D01*
X127635Y95250D01*
X125095Y92710D01*
X127635D01*
X130175Y90170D01*
X110175D02*
X112715Y92710D01*
X115255D01*
X112715Y95250D01*
X115255Y97790D01*
X112715D01*
X110175Y100330D01*
X107635Y97790D01*
X105095D01*
X107635Y95250D01*
X105095Y92710D01*
X107635D01*
X110175Y90170D01*
X-110175D02*
X-107635Y92710D01*
X-105095D01*
X-107635Y95250D01*
X-105095Y97790D01*
X-107635D01*
X-110175Y100330D01*
X-112715Y97790D01*
X-115255D01*
X-112715Y95250D01*
X-115255Y92710D01*
X-112715D01*
X-110175Y90170D01*
X-130175D02*
X-127635Y92710D01*
X-125095D01*
X-127635Y95250D01*
X-125095Y97790D01*
X-127635D01*
X-130175Y100330D01*
X-132715Y97790D01*
X-135255D01*
X-132715Y95250D01*
X-135255Y92710D01*
X-132715D01*
X-130175Y90170D01*
X-220025D02*
X-217485Y92710D01*
X-214945D01*
X-217485Y95250D01*
X-214945Y97790D01*
X-217485D01*
X-220025Y100330D01*
X-222565Y97790D01*
X-225105D01*
X-222565Y95250D01*
X-225105Y92710D01*
X-222565D01*
X-220025Y90170D01*
X-200025D02*
X-197485Y92710D01*
X-194945D01*
X-197485Y95250D01*
X-194945Y97790D01*
X-197485D01*
X-200025Y100330D01*
X-202565Y97790D01*
X-205105D01*
X-202565Y95250D01*
X-205105Y92710D01*
X-202565D01*
X-200025Y90170D01*
X229870Y20320D02*
X232410Y25400D01*
X229870Y30480D01*
X234950Y27940D01*
X240030Y30480D01*
X237490Y25400D01*
X240030Y20320D01*
X234950Y22860D01*
X229870Y20320D01*
X255270D02*
X257810Y25400D01*
X255270Y30480D01*
X260350Y27940D01*
X265430Y30480D01*
X262890Y25400D01*
X265430Y20320D01*
X260350Y22860D01*
X255270Y20320D01*
Y-100330D02*
X257810Y-95250D01*
X255270Y-90170D01*
X260350Y-92710D01*
X265430Y-90170D01*
X262890Y-95250D01*
X265430Y-100330D01*
X260350Y-97790D01*
X255270Y-100330D01*
X229870D02*
X232410Y-95250D01*
X229870Y-90170D01*
X234950Y-92710D01*
X240030Y-90170D01*
X237490Y-95250D01*
X240030Y-100330D01*
X234950Y-97790D01*
X229870Y-100330D01*
X-335280Y-81280D02*
Y-71120D01*
X-325120D01*
Y-81280D01*
X-335280D01*
X325120D02*
Y-71120D01*
X335280D01*
Y-81280D01*
X325120D01*
X325120Y140970D02*
Y151130D01*
X335280D01*
Y140970D01*
X325120D01*
X-335280D02*
Y151130D01*
X-325120D01*
Y140970D01*
X-335280D01*
X323850Y109220D02*
X318770Y119380D01*
X328930D01*
X323850Y109220D01*
X361950Y33020D02*
X356870Y43180D01*
X367030D01*
X361950Y33020D01*
X323850Y-43180D02*
X318770Y-33020D01*
X328930D01*
X323850Y-43180D01*
X247650Y109220D02*
X242570Y119380D01*
X252730D01*
X247650Y109220D01*
X285750Y33020D02*
X280670Y43180D01*
X290830D01*
X285750Y33020D01*
X247650Y-43180D02*
X242570Y-33020D01*
X252730D01*
X247650Y-43180D01*
X171450Y109220D02*
X166370Y119380D01*
X176530D01*
X171450Y109220D01*
X209550Y33020D02*
X204470Y43180D01*
X214630D01*
X209550Y33020D01*
X171450Y-43180D02*
X166370Y-33020D01*
X176530D01*
X171450Y-43180D01*
X95250Y109220D02*
X90170Y119380D01*
X100330D01*
X95250Y109220D01*
X19050D02*
X13970Y119380D01*
X24130D01*
X19050Y109220D01*
X57150Y33020D02*
X52070Y43180D01*
X62230D01*
X57150Y33020D01*
X-57150Y109220D02*
X-62230Y119380D01*
X-52070D01*
X-57150Y109220D01*
X-19050Y33020D02*
X-24130Y43180D01*
X-13970D01*
X-19050Y33020D01*
X-133350Y109220D02*
X-138430Y119380D01*
X-128270D01*
X-133350Y109220D01*
X-209550D02*
X-214630Y119380D01*
X-204470D01*
X-209550Y109220D01*
Y-43180D02*
X-214630Y-33020D01*
X-204470D01*
X-209550Y-43180D01*
X-285750Y109220D02*
X-290830Y119380D01*
X-280670D01*
X-285750Y109220D01*
X-247650Y33020D02*
X-252730Y43180D01*
X-242570D01*
X-247650Y33020D01*
X-285750Y-43180D02*
X-290830Y-33020D01*
X-280670D01*
X-285750Y-43180D01*
X-361950Y109220D02*
X-367030Y119380D01*
X-356870D01*
X-361950Y109220D01*
X-323850Y33020D02*
X-328930Y43180D01*
X-318770D01*
X-323850Y33020D01*
X-361950Y-43180D02*
X-367030Y-33020D01*
X-356870D01*
X-361950Y-43180D01*
D40*
X-108270Y63500D02*
G03*
X-108270Y63500I-5080J0D01*
G01*
X-58420Y45720D02*
G03*
X-58420Y45720I-5080J0D01*
G01*
X-14920Y-63500D02*
G03*
X-14920Y-63500I-5080J0D01*
G01*
X-6920D02*
G03*
X-6920Y-63500I-5080J0D01*
G01*
X137080D02*
G03*
X137080Y-63500I-5080J0D01*
G01*
Y12700D02*
G03*
X137080Y12700I-5080J0D01*
G01*
X-6920D02*
G03*
X-6920Y12700I-5080J0D01*
G01*
X-14920D02*
G03*
X-14920Y12700I-5080J0D01*
G01*
X-126920D02*
G03*
X-126920Y12700I-5080J0D01*
G01*
X-134920D02*
G03*
X-134920Y12700I-5080J0D01*
G01*
X-142920D02*
G03*
X-142920Y12700I-5080J0D01*
G01*
X-126920Y-63500D02*
G03*
X-126920Y-63500I-5080J0D01*
G01*
X-142920D02*
G03*
X-142920Y-63500I-5080J0D01*
G01*
X-134920D02*
G03*
X-134920Y-63500I-5080J0D01*
G01*
X153080Y12700D02*
G03*
X153080Y12700I-5080J0D01*
G01*
X145080D02*
G03*
X145080Y12700I-5080J0D01*
G01*
X153080Y-63500D02*
G03*
X153080Y-63500I-5080J0D01*
G01*
X145080D02*
G03*
X145080Y-63500I-5080J0D01*
G01*
X-76200Y73660D02*
G03*
X-76200Y73660I-5080J0D01*
G01*
X-243840Y74295D02*
G03*
X-243840Y74295I-5080J0D01*
G01*
X-76200Y63500D02*
G03*
X-76200Y63500I-5080J0D01*
G01*
X-108270Y53340D02*
G03*
X-108270Y53340I-5080J0D01*
G01*
X-243840Y64135D02*
G03*
X-243840Y64135I-5080J0D01*
G01*
X-198120Y63500D02*
G03*
X-198120Y63500I-5080J0D01*
G01*
Y53340D02*
G03*
X-198120Y53340I-5080J0D01*
G01*
X-146060Y28220D02*
G03*
X-146060Y28220I-5080J0D01*
G01*
Y46000D02*
G03*
X-146060Y46000I-5080J0D01*
G01*
X17080Y-66000D02*
G03*
X17080Y-66000I-5080J0D01*
G01*
X9080D02*
G03*
X9080Y-66000I-5080J0D01*
G01*
X17080Y-25000D02*
G03*
X17080Y-25000I-5080J0D01*
G01*
X9080D02*
G03*
X9080Y-25000I-5080J0D01*
G01*
X-48260Y45720D02*
G03*
X-48260Y45720I-5080J0D01*
G01*
Y27940D02*
G03*
X-48260Y27940I-5080J0D01*
G01*
X-58420D02*
G03*
X-58420Y27940I-5080J0D01*
G01*
X-108270Y44450D02*
G03*
X-108270Y44450I-5080J0D01*
G01*
X-3300Y-88900D02*
G03*
X-3300Y-88900I-5080J0D01*
G01*
X76960D02*
G03*
X76960Y-88900I-5080J0D01*
G01*
X297180Y-22098D02*
G03*
X297180Y-22098I-5080J0D01*
G01*
Y22352D02*
G03*
X297180Y22352I-5080J0D01*
G01*
X205007Y50897D02*
G03*
X205007Y50897I-5080J0D01*
G01*
X225007D02*
G03*
X225007Y50897I-5080J0D01*
G01*
X115157D02*
G03*
X115157Y50897I-5080J0D01*
G01*
X135157D02*
G03*
X135157Y50897I-5080J0D01*
G01*
X259080Y-6350D02*
G03*
X259080Y-6350I-5080J0D01*
G01*
Y-19050D02*
G03*
X259080Y-19050I-5080J0D01*
G01*
Y-63500D02*
G03*
X259080Y-63500I-5080J0D01*
G01*
Y-50800D02*
G03*
X259080Y-50800I-5080J0D01*
G01*
X48260Y-76200D02*
G03*
X48260Y-76200I-5080J0D01*
G01*
X25400D02*
G03*
X25400Y-76200I-5080J0D01*
G01*
X213360Y-16510D02*
G03*
X213360Y-16510I-5080J0D01*
G01*
X205740Y-8890D02*
G03*
X205740Y-8890I-5080J0D01*
G01*
Y-53340D02*
G03*
X205740Y-53340I-5080J0D01*
G01*
X213360Y-60960D02*
G03*
X213360Y-60960I-5080J0D01*
G01*
X297180Y-50800D02*
G03*
X297180Y-50800I-5080J0D01*
G01*
Y-6350D02*
G03*
X297180Y-6350I-5080J0D01*
G01*
X-108270Y72390D02*
G03*
X-108270Y72390I-5080J0D01*
G01*
X-198120D02*
G03*
X-198120Y72390I-5080J0D01*
G01*
Y44450D02*
G03*
X-198120Y44450I-5080J0D01*
G01*
X241300Y50800D02*
G03*
X241300Y50800I-5080J0D01*
G01*
X99060D02*
G03*
X99060Y50800I-5080J0D01*
G01*
X151130D02*
G03*
X151130Y50800I-5080J0D01*
G01*
X189230D02*
G03*
X189230Y50800I-5080J0D01*
G01*
M02*
