G04*
G04 #@! TF.GenerationSoftware,Altium Limited,Altium Designer,24.2.2 (26)*
G04*
G04 Layer_Color=65535*
%FSLAX44Y44*%
%MOMM*%
G71*
G04*
G04 #@! TF.SameCoordinates,AE1E6ACB-0CC1-432D-8EAE-CAE1C6468999*
G04*
G04*
G04 #@! TF.FilePolarity,Positive*
G04*
G01*
G75*
%ADD10C,0.2540*%
%ADD11C,0.1524*%
%ADD12C,0.2000*%
%ADD13C,0.1270*%
G36*
X-38100Y114300D02*
X-33020Y119380D01*
Y109220D01*
X-38100Y114300D01*
D02*
G37*
G36*
X40640D02*
X35560Y119380D01*
Y109220D01*
X40640Y114300D01*
D02*
G37*
G36*
X281940Y-86360D02*
X287020Y-81280D01*
Y-91440D01*
X281940Y-86360D01*
D02*
G37*
G36*
Y38100D02*
X287020Y43180D01*
Y33020D01*
X281940Y38100D01*
D02*
G37*
D10*
X25400Y121920D02*
G03*
X33020Y114300I7620J0D01*
G01*
X-30480D02*
G03*
X-22860Y121920I0J7620D01*
G01*
X289560Y-86360D02*
G03*
X297180Y-78740I0J7620D01*
G01*
X289560Y38100D02*
G03*
X297180Y45720I0J7620D01*
G01*
X-41737Y128306D02*
X-3637D01*
X-41737Y163866D02*
X-3637D01*
Y128306D02*
Y163866D01*
X-41737Y128306D02*
Y163866D01*
X6523Y128306D02*
X44623D01*
X6523Y163866D02*
X44623D01*
Y128306D02*
Y163866D01*
X6523Y128306D02*
Y163866D01*
X35560Y109220D02*
X40640Y114300D01*
X33020D02*
X35560D01*
Y119380D02*
X40640Y114300D01*
X35560Y109220D02*
Y119380D01*
X-38100Y114300D02*
X-33020Y109220D01*
Y114300D02*
X-30480D01*
X-38100D02*
X-33020Y119380D01*
Y109220D02*
Y119380D01*
X287020Y-91440D02*
Y-81280D01*
X281940Y-86360D02*
X287020Y-81280D01*
Y-86360D02*
X289560D01*
X281940D02*
X287020Y-91440D01*
Y33020D02*
Y43180D01*
X281940Y38100D02*
X287020Y43180D01*
Y38100D02*
X289560D01*
X281940D02*
X287020Y33020D01*
X219710Y40640D02*
X257810D01*
X219710Y10160D02*
Y40640D01*
Y10160D02*
X275590D01*
Y40640D01*
X257810D02*
X275590D01*
X257810Y-80010D02*
X275590D01*
Y-110490D02*
Y-80010D01*
X219710Y-110490D02*
X275590D01*
X219710D02*
Y-80010D01*
X257810D01*
D11*
X244602Y2794D02*
G03*
X250698Y2794I3048J0D01*
G01*
X244602Y-41656D02*
G03*
X250698Y-41656I3048J0D01*
G01*
X233426Y2794D02*
X244602D01*
X250698D01*
X261874D01*
X233426Y-28194D02*
X261874D01*
X233426Y-41656D02*
X244602D01*
X250698D01*
X261874D01*
X233426Y-72644D02*
X261874D01*
X287031Y68166D02*
Y58010D01*
X292109D01*
X293802Y59702D01*
Y66474D01*
X292109Y68166D01*
X287031D01*
X297187D02*
X300573D01*
X298880D01*
Y58010D01*
X297187D01*
X300573D01*
X312423Y66474D02*
X310730Y68166D01*
X307344D01*
X305651Y66474D01*
Y64781D01*
X307344Y63088D01*
X310730D01*
X312423Y61395D01*
Y59702D01*
X310730Y58010D01*
X307344D01*
X305651Y59702D01*
X315808Y58010D02*
Y64781D01*
X319194Y68166D01*
X322579Y64781D01*
Y58010D01*
Y63088D01*
X315808D01*
X325965Y68166D02*
Y58010D01*
X331043D01*
X332736Y59702D01*
Y61395D01*
X331043Y63088D01*
X325965D01*
X331043D01*
X332736Y64781D01*
Y66474D01*
X331043Y68166D01*
X325965D01*
X336121D02*
Y58010D01*
X342893D01*
X353049Y68166D02*
X346278D01*
Y58010D01*
X353049D01*
X346278Y63088D02*
X349664D01*
X307344Y52321D02*
X310730D01*
X309037D01*
Y42164D01*
X307344D01*
X310730D01*
X322579D02*
X315808D01*
X322579Y48935D01*
Y50628D01*
X320886Y52321D01*
X317501D01*
X315808Y50628D01*
X332736D02*
X331043Y52321D01*
X327658D01*
X325965Y50628D01*
Y43857D01*
X327658Y42164D01*
X331043D01*
X332736Y43857D01*
X-287017Y87884D02*
X-290403Y91270D01*
Y94655D01*
X-287017Y98041D01*
X-275168Y87884D02*
X-281939D01*
X-275168Y94655D01*
Y96348D01*
X-276861Y98041D01*
X-280246D01*
X-281939Y96348D01*
X-271782Y87884D02*
X-268397Y91270D01*
Y94655D01*
X-271782Y98041D01*
X-139698Y57404D02*
X-143083Y60790D01*
Y64175D01*
X-139698Y67561D01*
X-127848Y57404D02*
X-134619D01*
X-127848Y64175D01*
Y65868D01*
X-129541Y67561D01*
X-132926D01*
X-134619Y65868D01*
X-124462Y57404D02*
X-121077Y60790D01*
Y64175D01*
X-124462Y67561D01*
X-57571Y87884D02*
X-60957Y91270D01*
Y94655D01*
X-57571Y98041D01*
X-52493Y87884D02*
X-49107D01*
X-50800D01*
Y98041D01*
X-52493Y96348D01*
X-44029Y87884D02*
X-40643Y91270D01*
Y94655D01*
X-44029Y98041D01*
X-209971Y19304D02*
X-213357Y22690D01*
Y26075D01*
X-209971Y29461D01*
X-204893Y19304D02*
X-201507D01*
X-203200D01*
Y29461D01*
X-204893Y27768D01*
X-196429Y19304D02*
X-193043Y22690D01*
Y26075D01*
X-196429Y29461D01*
X-17858Y139315D02*
X-7701D01*
X-12779D01*
Y146086D01*
X-17858D01*
X-7701D01*
X-17858Y149472D02*
Y152857D01*
Y151165D01*
X-7701D01*
Y149472D01*
Y152857D01*
X-35638Y137622D02*
X-25481D01*
Y144393D01*
X-35638Y152857D02*
Y149472D01*
X-33945Y147779D01*
X-27174D01*
X-25481Y149472D01*
Y152857D01*
X-27174Y154550D01*
X-33945D01*
X-35638Y152857D01*
X32095Y139315D02*
X30403Y137622D01*
Y134237D01*
X32095Y132544D01*
X33788D01*
X35481Y134237D01*
Y137622D01*
X37174Y139315D01*
X38866D01*
X40559Y137622D01*
Y134237D01*
X38866Y132544D01*
X32095Y149472D02*
X30403Y147779D01*
Y144393D01*
X32095Y142701D01*
X38866D01*
X40559Y144393D01*
Y147779D01*
X38866Y149472D01*
X30403Y152857D02*
X40559D01*
Y159628D01*
X14315Y139315D02*
X12622Y137622D01*
Y134237D01*
X14315Y132544D01*
X16008D01*
X17701Y134237D01*
Y137622D01*
X19394Y139315D01*
X21086D01*
X22779Y137622D01*
Y134237D01*
X21086Y132544D01*
X12622Y142701D02*
X22779D01*
Y147779D01*
X21086Y149472D01*
X14315D01*
X12622Y147779D01*
Y142701D01*
X22779Y152857D02*
X16008D01*
X12622Y156243D01*
X16008Y159628D01*
X22779D01*
X17701D01*
Y152857D01*
X-273471Y152228D02*
X-275164Y153921D01*
X-278549D01*
X-280242Y152228D01*
Y145457D01*
X-278549Y143764D01*
X-275164D01*
X-273471Y145457D01*
X-270086Y143764D02*
Y150535D01*
X-266700Y153921D01*
X-263314Y150535D01*
Y143764D01*
Y148842D01*
X-270086D01*
X-259929Y143764D02*
Y153921D01*
X-253158Y143764D01*
Y153921D01*
X-70271Y152228D02*
X-71964Y153921D01*
X-75349D01*
X-77042Y152228D01*
Y145457D01*
X-75349Y143764D01*
X-71964D01*
X-70271Y145457D01*
X-66886Y143764D02*
Y150535D01*
X-63500Y153921D01*
X-60114Y150535D01*
Y143764D01*
Y148842D01*
X-66886D01*
X-56729Y143764D02*
Y153921D01*
X-49958Y143764D01*
Y153921D01*
X50804D02*
X54190D01*
X52497D01*
Y143764D01*
X50804D01*
X54190D01*
X66039D02*
X59268D01*
X66039Y150535D01*
Y152228D01*
X64346Y153921D01*
X60961D01*
X59268Y152228D01*
X76196D02*
X74503Y153921D01*
X71118D01*
X69425Y152228D01*
Y145457D01*
X71118Y143764D01*
X74503D01*
X76196Y145457D01*
X254004Y153921D02*
X257390D01*
X255697D01*
Y143764D01*
X254004D01*
X257390D01*
X269239D02*
X262468D01*
X269239Y150535D01*
Y152228D01*
X267546Y153921D01*
X264161D01*
X262468Y152228D01*
X279396D02*
X277703Y153921D01*
X274318D01*
X272625Y152228D01*
Y145457D01*
X274318Y143764D01*
X277703D01*
X279396Y145457D01*
X-266700Y136988D02*
X-268393Y138681D01*
X-271778D01*
X-273471Y136988D01*
Y135295D01*
X-271778Y133602D01*
X-268393D01*
X-266700Y131910D01*
Y130217D01*
X-268393Y128524D01*
X-271778D01*
X-273471Y130217D01*
X-263314Y128524D02*
X-259929D01*
X-261622D01*
Y138681D01*
X-263314Y136988D01*
X-65193D02*
X-66886Y138681D01*
X-70271D01*
X-71964Y136988D01*
Y135295D01*
X-70271Y133602D01*
X-66886D01*
X-65193Y131910D01*
Y130217D01*
X-66886Y128524D01*
X-70271D01*
X-71964Y130217D01*
X-61807Y136988D02*
X-60114Y138681D01*
X-56729D01*
X-55036Y136988D01*
Y130217D01*
X-56729Y128524D01*
X-60114D01*
X-61807Y130217D01*
Y136988D01*
X265007D02*
X263314Y138681D01*
X259929D01*
X258236Y136988D01*
Y135295D01*
X259929Y133602D01*
X263314D01*
X265007Y131910D01*
Y130217D01*
X263314Y128524D01*
X259929D01*
X258236Y130217D01*
X268393Y136988D02*
X270086Y138681D01*
X273471D01*
X275164Y136988D01*
Y130217D01*
X273471Y128524D01*
X270086D01*
X268393Y130217D01*
Y136988D01*
X63500D02*
X61807Y138681D01*
X58422D01*
X56729Y136988D01*
Y135295D01*
X58422Y133602D01*
X61807D01*
X63500Y131910D01*
Y130217D01*
X61807Y128524D01*
X58422D01*
X56729Y130217D01*
X66886Y128524D02*
X70271D01*
X68578D01*
Y138681D01*
X66886Y136988D01*
X-144776Y40642D02*
Y50798D01*
X-139698D01*
X-138005Y49106D01*
Y45720D01*
X-139698Y44027D01*
X-144776D01*
X-141390D02*
X-138005Y40642D01*
X-134619D02*
X-131234D01*
X-132926D01*
Y50798D01*
X-134619Y49106D01*
X-121077Y40642D02*
Y50798D01*
X-126155Y45720D01*
X-119384D01*
X-132076Y22862D02*
Y33018D01*
X-126997D01*
X-125305Y31326D01*
Y27940D01*
X-126997Y26247D01*
X-132076D01*
X-128690D02*
X-125305Y22862D01*
X-121919D02*
X-118534D01*
X-120226D01*
Y33018D01*
X-121919Y31326D01*
X-113455D02*
X-111762Y33018D01*
X-108377D01*
X-106684Y31326D01*
Y29633D01*
X-108377Y27940D01*
X-110070D01*
X-108377D01*
X-106684Y26247D01*
Y24554D01*
X-108377Y22862D01*
X-111762D01*
X-113455Y24554D01*
X-33016Y40642D02*
Y50798D01*
X-27938D01*
X-26245Y49106D01*
Y45720D01*
X-27938Y44027D01*
X-33016D01*
X-29630D02*
X-26245Y40642D01*
X-22859D02*
X-19474D01*
X-21166D01*
Y50798D01*
X-22859Y49106D01*
X-7624Y40642D02*
X-14395D01*
X-7624Y47413D01*
Y49106D01*
X-9317Y50798D01*
X-12702D01*
X-14395Y49106D01*
X-33016Y86362D02*
Y96518D01*
X-27938D01*
X-26245Y94826D01*
Y91440D01*
X-27938Y89747D01*
X-33016D01*
X-29630D02*
X-26245Y86362D01*
X-22859D02*
X-19474D01*
X-21166D01*
Y96518D01*
X-22859Y94826D01*
X-14395D02*
X-12702Y96518D01*
X-9317D01*
X-7624Y94826D01*
Y88054D01*
X-9317Y86362D01*
X-12702D01*
X-14395Y88054D01*
Y94826D01*
X-183724Y7622D02*
Y17778D01*
X-178646D01*
X-176953Y16086D01*
Y12700D01*
X-178646Y11007D01*
X-183724D01*
X-180338D02*
X-176953Y7622D01*
X-173567Y16086D02*
X-171874Y17778D01*
X-168489D01*
X-166796Y16086D01*
Y14393D01*
X-168489Y12700D01*
X-166796Y11007D01*
Y9314D01*
X-168489Y7622D01*
X-171874D01*
X-173567Y9314D01*
Y11007D01*
X-171874Y12700D01*
X-173567Y14393D01*
Y16086D01*
X-171874Y12700D02*
X-168489D01*
X-104984Y58422D02*
Y68578D01*
X-99906D01*
X-98213Y66886D01*
Y63500D01*
X-99906Y61807D01*
X-104984D01*
X-101598D02*
X-98213Y58422D01*
X-94827Y68578D02*
X-88056D01*
Y66886D01*
X-94827Y60114D01*
Y58422D01*
X11007Y71966D02*
X9314Y73658D01*
X5929D01*
X4236Y71966D01*
Y65194D01*
X5929Y63502D01*
X9314D01*
X11007Y65194D01*
X19471Y63502D02*
Y73658D01*
X14393Y68580D01*
X21164D01*
X197276Y-29720D02*
Y-38184D01*
X198969Y-39876D01*
X202354D01*
X204047Y-38184D01*
Y-29720D01*
X214204Y-39876D02*
X207433D01*
X214204Y-33105D01*
Y-31412D01*
X212511Y-29720D01*
X209126D01*
X207433Y-31412D01*
X198969Y14730D02*
Y6266D01*
X200662Y4574D01*
X204047D01*
X205740Y6266D01*
Y14730D01*
X209126Y4574D02*
X212511D01*
X210818D01*
Y14730D01*
X209126Y13038D01*
X131236Y33022D02*
Y43178D01*
X136314D01*
X138007Y41486D01*
Y38100D01*
X136314Y36407D01*
X131236D01*
X134622D02*
X138007Y33022D01*
X146471D02*
Y43178D01*
X141393Y38100D01*
X148164D01*
X65196Y58422D02*
Y68578D01*
X70274D01*
X71967Y66886D01*
Y63500D01*
X70274Y61807D01*
X65196D01*
X68582D02*
X71967Y58422D01*
X75353Y66886D02*
X77046Y68578D01*
X80431D01*
X82124Y66886D01*
Y65193D01*
X80431Y63500D01*
X78738D01*
X80431D01*
X82124Y61807D01*
Y60114D01*
X80431Y58422D01*
X77046D01*
X75353Y60114D01*
X248076Y58422D02*
Y68578D01*
X253154D01*
X254847Y66886D01*
Y63500D01*
X253154Y61807D01*
X248076D01*
X251462D02*
X254847Y58422D01*
X265004D02*
X258233D01*
X265004Y65193D01*
Y66886D01*
X263311Y68578D01*
X259926D01*
X258233Y66886D01*
X186269Y33022D02*
Y43178D01*
X191347D01*
X193040Y41486D01*
Y38100D01*
X191347Y36407D01*
X186269D01*
X189654D02*
X193040Y33022D01*
X196426D02*
X199811D01*
X198118D01*
Y43178D01*
X196426Y41486D01*
X66887Y170178D02*
X63502D01*
X65194D01*
Y161714D01*
X63502Y160022D01*
X61809D01*
X60116Y161714D01*
X77044Y170178D02*
X73658Y168486D01*
X70273Y165100D01*
Y161714D01*
X71966Y160022D01*
X75351D01*
X77044Y161714D01*
Y163407D01*
X75351Y165100D01*
X70273D01*
X259927Y170178D02*
X256542D01*
X258234D01*
Y161714D01*
X256542Y160022D01*
X254849D01*
X253156Y161714D01*
X270084Y170178D02*
X263313D01*
Y165100D01*
X266698Y166793D01*
X268391D01*
X270084Y165100D01*
Y161714D01*
X268391Y160022D01*
X265006D01*
X263313Y161714D01*
X325967Y-31412D02*
X324274Y-29720D01*
X320889D01*
X319196Y-31412D01*
Y-38184D01*
X320889Y-39876D01*
X324274D01*
X325967Y-38184D01*
X336124Y-39876D02*
X329353D01*
X336124Y-33105D01*
Y-31412D01*
X334431Y-29720D01*
X331046D01*
X329353Y-31412D01*
X327660Y13038D02*
X325967Y14730D01*
X322582D01*
X320889Y13038D01*
Y6266D01*
X322582Y4574D01*
X325967D01*
X327660Y6266D01*
X331046Y4574D02*
X334431D01*
X332738D01*
Y14730D01*
X331046Y13038D01*
X-33864Y-93978D02*
Y-83822D01*
X-28786D01*
X-27093Y-85514D01*
Y-88900D01*
X-28786Y-90593D01*
X-33864D01*
X-30478D02*
X-27093Y-93978D01*
X-16936Y-83822D02*
X-20322Y-85514D01*
X-23707Y-88900D01*
Y-92286D01*
X-22014Y-93978D01*
X-18629D01*
X-16936Y-92286D01*
Y-90593D01*
X-18629Y-88900D01*
X-23707D01*
X80436Y-93978D02*
Y-83822D01*
X85514D01*
X87207Y-85514D01*
Y-88900D01*
X85514Y-90593D01*
X80436D01*
X83822D02*
X87207Y-93978D01*
X97364Y-83822D02*
X90593D01*
Y-88900D01*
X93978Y-87207D01*
X95671D01*
X97364Y-88900D01*
Y-92286D01*
X95671Y-93978D01*
X92286D01*
X90593Y-92286D01*
X-318343Y40642D02*
Y50798D01*
X-313265D01*
X-311572Y49106D01*
Y45720D01*
X-313265Y44027D01*
X-318343D01*
X-314958D02*
X-311572Y40642D01*
X-308186D02*
X-304801D01*
X-306494D01*
Y50798D01*
X-308186Y49106D01*
X-299722Y40642D02*
X-296337D01*
X-298030D01*
Y50798D01*
X-299722Y49106D01*
X-313264Y86362D02*
Y96518D01*
X-308186D01*
X-306493Y94826D01*
Y91440D01*
X-308186Y89747D01*
X-313264D01*
X-309878D02*
X-306493Y86362D01*
X-303107Y88054D02*
X-301414Y86362D01*
X-298029D01*
X-296336Y88054D01*
Y94826D01*
X-298029Y96518D01*
X-301414D01*
X-303107Y94826D01*
Y93133D01*
X-301414Y91440D01*
X-296336D01*
X-70273Y170178D02*
X-73658D01*
X-71966D01*
Y161714D01*
X-73658Y160022D01*
X-75351D01*
X-77044Y161714D01*
X-61809Y160022D02*
Y170178D01*
X-66887Y165100D01*
X-60116D01*
X-263313Y170178D02*
X-266698D01*
X-265006D01*
Y161714D01*
X-266698Y160022D01*
X-268391D01*
X-270084Y161714D01*
X-259927Y168486D02*
X-258234Y170178D01*
X-254849D01*
X-253156Y168486D01*
Y166793D01*
X-254849Y165100D01*
X-256542D01*
X-254849D01*
X-253156Y163407D01*
Y161714D01*
X-254849Y160022D01*
X-258234D01*
X-259927Y161714D01*
X-207433Y5078D02*
X-210818D01*
X-209126D01*
Y-3386D01*
X-210818Y-5078D01*
X-212511D01*
X-214204Y-3386D01*
X-197276Y-5078D02*
X-204047D01*
X-197276Y1693D01*
Y3386D01*
X-198969Y5078D01*
X-202354D01*
X-204047Y3386D01*
X-344593Y71966D02*
X-346286Y73658D01*
X-349671D01*
X-351364Y71966D01*
Y65194D01*
X-349671Y63502D01*
X-346286D01*
X-344593Y65194D01*
X-341207Y71966D02*
X-339514Y73658D01*
X-336129D01*
X-334436Y71966D01*
Y70273D01*
X-336129Y68580D01*
X-337822D01*
X-336129D01*
X-334436Y66887D01*
Y65194D01*
X-336129Y63502D01*
X-339514D01*
X-341207Y65194D01*
D12*
X157000Y-63400D02*
G03*
X157000Y-63400I-1000J0D01*
G01*
D13*
X249235Y95040D02*
Y165100D01*
Y76200D02*
Y95040D01*
X171765Y95990D02*
Y165100D01*
X249235D01*
X228915Y76200D02*
X249235D01*
X228915D02*
Y80750D01*
X215775D02*
X228915D01*
X204275D02*
X215775D01*
X190815D02*
X204275D01*
X190815Y76200D02*
Y80750D01*
X171765Y76200D02*
X190815D01*
X171765D02*
Y95990D01*
X81915Y76200D02*
Y95990D01*
Y76200D02*
X100965D01*
Y80750D01*
X114425D01*
X125925D01*
X139065D01*
Y76200D02*
Y80750D01*
Y76200D02*
X159385D01*
X81915Y165100D02*
X159385D01*
X81915Y95990D02*
Y165100D01*
X159385Y76200D02*
Y95040D01*
Y165100D01*
X-158435Y76200D02*
Y95990D01*
Y76200D02*
X-139385D01*
Y80750D01*
X-125925D01*
X-114425D01*
X-101285D01*
Y76200D02*
Y80750D01*
Y76200D02*
X-80965D01*
X-158435Y165100D02*
X-80965D01*
X-158435Y95990D02*
Y165100D01*
X-80965Y76200D02*
Y95040D01*
Y165100D01*
X-170815Y95040D02*
Y165100D01*
Y76200D02*
Y95040D01*
X-248285Y95990D02*
Y165100D01*
X-170815D01*
X-191135Y76200D02*
X-170815D01*
X-191135D02*
Y80750D01*
X-204275D02*
X-191135D01*
X-215775D02*
X-204275D01*
X-229235D02*
X-215775D01*
X-229235Y76200D02*
Y80750D01*
X-248285Y76200D02*
X-229235D01*
X-248285D02*
Y95990D01*
X-189000Y-55400D02*
Y-34750D01*
Y-16050D02*
Y4600D01*
X-161700D01*
X189000Y-55400D02*
Y4600D01*
X161700D02*
X189000D01*
X-189000Y-55400D02*
X-161700D01*
X161700D02*
X189000D01*
M02*
