G04*
G04 #@! TF.GenerationSoftware,Altium Limited,Altium Designer,24.2.2 (26)*
G04*
G04 Layer_Color=32768*
%FSLAX44Y44*%
%MOMM*%
G71*
G04*
G04 #@! TF.SameCoordinates,AE1E6ACB-0CC1-432D-8EAE-CAE1C6468999*
G04*
G04*
G04 #@! TF.FilePolarity,Positive*
G04*
G01*
G75*
%ADD38C,0.1000*%
%ADD39C,0.0500*%
D38*
X-178750Y28220D02*
X-169250Y28220D01*
X-174000Y32970D02*
X-174000Y23470D01*
X-178750Y46000D02*
X-169250Y46000D01*
X-174000Y41250D02*
Y50750D01*
X-91110Y45720D02*
X-81610D01*
X-86360Y40970D02*
Y50470D01*
X-55550Y78105D02*
X-46050D01*
X-50800Y73355D02*
Y82855D01*
X-14350Y63830D02*
Y73330D01*
X-19100Y68580D02*
X-9600D01*
X-55550Y59055D02*
X-46050D01*
X-50800Y54305D02*
Y63805D01*
X51180Y-93650D02*
Y-84150D01*
X46430Y-88900D02*
X55930D01*
X12320Y-93650D02*
Y-84150D01*
X7570Y-88900D02*
X17070D01*
X295350Y-34798D02*
X304850D01*
X300100Y-39548D02*
Y-30048D01*
X295350Y9652D02*
X304850D01*
X300100Y4902D02*
Y14402D01*
X228025Y58750D02*
Y68250D01*
X223275Y63500D02*
X232775D01*
X192025Y58750D02*
Y68250D01*
X187275Y63500D02*
X196775D01*
X138175Y58750D02*
Y68250D01*
X133425Y63500D02*
X142925D01*
X102175Y58750D02*
Y68250D01*
X97425Y63500D02*
X106925D01*
X-279400Y73990D02*
Y83490D01*
X-284150Y78740D02*
X-274650D01*
X-279400Y54940D02*
Y64440D01*
X-284150Y59690D02*
X-274650D01*
X-320600Y69215D02*
X-311100D01*
X-315850Y64465D02*
Y73965D01*
X-91110Y27940D02*
X-81610Y27940D01*
X-86360Y23190D02*
Y32690D01*
D39*
X-158500Y20720D02*
Y35720D01*
X-189500Y20720D02*
Y35720D01*
Y20720D02*
X-158500D01*
X-189500Y35720D02*
X-158500D01*
Y53500D02*
X-158500Y38500D01*
X-189500D02*
Y53500D01*
Y38500D02*
X-158500D01*
X-189500Y53500D02*
X-158500D01*
X-101860Y38220D02*
Y53220D01*
X-70860Y38220D02*
Y53220D01*
X-101860D02*
X-70860D01*
X-101860Y38220D02*
X-70860D01*
X-35300Y70605D02*
Y85605D01*
X-66300Y70605D02*
Y85605D01*
Y70605D02*
X-35300D01*
X-66300Y85605D02*
X-35300Y85605D01*
X-29850Y61080D02*
X1150Y61080D01*
X-29850Y76080D02*
X1150Y76080D01*
Y61080D02*
Y76080D01*
X-29850Y61080D02*
Y76080D01*
X-35300Y66555D02*
X-35300Y51555D01*
X-66300D02*
Y66555D01*
Y51555D02*
X-35300D01*
X-66300Y66555D02*
X-35300D01*
X35680Y-96400D02*
X66680D01*
X35680Y-81400D02*
X66680D01*
Y-96400D02*
Y-81400D01*
X35680D02*
X35680Y-96400D01*
X-3180Y-81400D02*
X27820D01*
X-3180Y-96400D02*
X27820D01*
X-3180D02*
Y-81400D01*
X27820Y-96400D02*
Y-81400D01*
X315600Y-42298D02*
Y-27298D01*
X284600Y-42298D02*
Y-27298D01*
Y-42298D02*
X315600D01*
X284600Y-27298D02*
X315600D01*
Y2152D02*
Y17152D01*
X284600Y2152D02*
Y17152D01*
Y2152D02*
X315600D01*
X284600Y17152D02*
X315600D01*
X212525Y56000D02*
X243525D01*
X212525Y71000D02*
X243525D01*
Y56000D02*
Y71000D01*
X212525Y56000D02*
Y71000D01*
X176525Y71000D02*
X207525D01*
X176525Y56000D02*
X207525D01*
X176525D02*
Y71000D01*
X207525Y56000D02*
Y71000D01*
X122675Y56000D02*
X153675D01*
X122675Y71000D02*
X153675D01*
Y56000D02*
Y71000D01*
X122675Y56000D02*
Y71000D01*
X86675Y71000D02*
X117675D01*
X86675Y56000D02*
X117675D01*
X86675D02*
Y71000D01*
X117675Y56000D02*
Y71000D01*
X-294900Y71240D02*
X-263900D01*
X-294900Y86240D02*
X-263900D01*
Y71240D02*
Y86240D01*
X-294900Y71240D02*
Y86240D01*
Y52190D02*
X-263900D01*
X-294900Y67190D02*
X-263900D01*
Y52190D02*
Y67190D01*
X-294900Y52190D02*
Y67190D01*
X-300350Y61715D02*
Y76715D01*
X-331350Y61715D02*
Y76715D01*
Y61715D02*
X-300350D01*
X-331350Y76715D02*
X-300350D01*
X-191500Y-59900D02*
X191500D01*
Y9100D01*
X-191500D02*
X191500D01*
X-191500Y-59900D02*
Y9100D01*
Y-59900D02*
X191500D01*
X-191500D02*
Y9100D01*
X191500D01*
Y-59900D02*
Y9100D01*
X-101860Y35440D02*
X-101860Y20440D01*
X-70860Y20440D02*
Y35440D01*
X-101860D02*
X-70860D01*
X-101860Y20440D02*
X-70860Y20440D01*
M02*
