G04*
G04 #@! TF.GenerationSoftware,Altium Limited,Altium Designer,24.2.2 (26)*
G04*
G04 Layer_Physical_Order=2*
G04 Layer_Color=39423*
%FSLAX44Y44*%
%MOMM*%
G71*
G04*
G04 #@! TF.SameCoordinates,AE1E6ACB-0CC1-432D-8EAE-CAE1C6468999*
G04*
G04*
G04 #@! TF.FilePolarity,Positive*
G04*
G01*
G75*
%ADD13C,0.1270*%
%ADD27C,0.2032*%
%ADD28O,1.3970X1.9050*%
%ADD29R,1.3970X1.9050*%
%ADD30C,1.5240*%
%ADD31C,5.0800*%
%ADD32C,0.4572*%
%ADD33C,0.4524*%
G36*
X347406Y181404D02*
X351739Y180090D01*
X355733Y177955D01*
X359233Y175083D01*
X362105Y171583D01*
X364240Y167589D01*
X365554Y163256D01*
X365989Y158848D01*
X365969Y158750D01*
Y41568D01*
X364699Y41042D01*
X364229Y41511D01*
X362750Y42124D01*
X361150D01*
X359671Y41511D01*
X358539Y40379D01*
X357926Y38900D01*
Y37300D01*
X358539Y35821D01*
X359671Y34689D01*
X361150Y34076D01*
X362750D01*
X364229Y34689D01*
X364699Y35158D01*
X365969Y34632D01*
Y-88900D01*
X365989Y-88997D01*
X365554Y-93406D01*
X364240Y-97739D01*
X362105Y-101733D01*
X359233Y-105233D01*
X355733Y-108105D01*
X351739Y-110240D01*
X347406Y-111554D01*
X342998Y-111989D01*
X342900Y-111969D01*
X-342900D01*
X-342998Y-111989D01*
X-347406Y-111554D01*
X-351739Y-110240D01*
X-355733Y-108105D01*
X-359233Y-105233D01*
X-362105Y-101733D01*
X-364240Y-97739D01*
X-365554Y-93406D01*
X-365989Y-88997D01*
X-365969Y-88900D01*
Y-41568D01*
X-364699Y-41042D01*
X-364229Y-41511D01*
X-362750Y-42124D01*
X-361150D01*
X-359671Y-41511D01*
X-358539Y-40379D01*
X-357926Y-38900D01*
Y-37300D01*
X-358539Y-35821D01*
X-359671Y-34689D01*
X-361150Y-34076D01*
X-362750D01*
X-364229Y-34689D01*
X-364699Y-35158D01*
X-365969Y-34632D01*
Y110832D01*
X-364699Y111358D01*
X-364229Y110889D01*
X-362750Y110276D01*
X-361150D01*
X-359671Y110889D01*
X-358539Y112021D01*
X-357926Y113500D01*
Y115100D01*
X-358539Y116579D01*
X-359671Y117711D01*
X-361150Y118324D01*
X-362750D01*
X-364229Y117711D01*
X-364699Y117242D01*
X-365969Y117768D01*
Y158750D01*
X-365989Y158848D01*
X-365554Y163256D01*
X-364240Y167589D01*
X-362105Y171583D01*
X-359233Y175083D01*
X-355733Y177955D01*
X-351739Y180090D01*
X-347406Y181404D01*
X-342998Y181839D01*
X-342900Y181819D01*
X342900D01*
X342998Y181839D01*
X347406Y181404D01*
D02*
G37*
%LPC*%
G36*
X332279Y172466D02*
X328121D01*
X324014Y171816D01*
X320060Y170531D01*
X316355Y168643D01*
X312991Y166199D01*
X310051Y163259D01*
X307607Y159895D01*
X305719Y156190D01*
X304435Y152236D01*
X303784Y148129D01*
Y143971D01*
X304435Y139864D01*
X305719Y135910D01*
X307607Y132205D01*
X310051Y128841D01*
X312991Y125901D01*
X316355Y123457D01*
X320060Y121569D01*
X324014Y120284D01*
X328121Y119634D01*
X332279D01*
X336386Y120284D01*
X340340Y121569D01*
X344045Y123457D01*
X347409Y125901D01*
X350349Y128841D01*
X352793Y132205D01*
X354681Y135910D01*
X355966Y139864D01*
X356616Y143971D01*
Y148129D01*
X355966Y152236D01*
X354681Y156190D01*
X352793Y159895D01*
X350349Y163259D01*
X347409Y166199D01*
X344045Y168643D01*
X340340Y170531D01*
X336386Y171816D01*
X332279Y172466D01*
D02*
G37*
G36*
X-328121D02*
X-332279D01*
X-336386Y171816D01*
X-340340Y170531D01*
X-344045Y168643D01*
X-347409Y166199D01*
X-350349Y163259D01*
X-352793Y159895D01*
X-354681Y156190D01*
X-355965Y152236D01*
X-356616Y148129D01*
Y143971D01*
X-355965Y139864D01*
X-354681Y135910D01*
X-352793Y132205D01*
X-350349Y128841D01*
X-347409Y125901D01*
X-344045Y123457D01*
X-340340Y121569D01*
X-336386Y120284D01*
X-332279Y119634D01*
X-328121D01*
X-324014Y120284D01*
X-320060Y121569D01*
X-316355Y123457D01*
X-312991Y125901D01*
X-310051Y128841D01*
X-307607Y132205D01*
X-305719Y135910D01*
X-304434Y139864D01*
X-303784Y143971D01*
Y148129D01*
X-304434Y152236D01*
X-305719Y156190D01*
X-307607Y159895D01*
X-310051Y163259D01*
X-312991Y166199D01*
X-316355Y168643D01*
X-320060Y170531D01*
X-324014Y171816D01*
X-328121Y172466D01*
D02*
G37*
G36*
X324650Y118324D02*
X323050D01*
X321571Y117711D01*
X320439Y116579D01*
X319826Y115100D01*
Y113500D01*
X320439Y112021D01*
X321571Y110889D01*
X323050Y110276D01*
X324650D01*
X326129Y110889D01*
X327261Y112021D01*
X327874Y113500D01*
Y115100D01*
X327261Y116579D01*
X326129Y117711D01*
X324650Y118324D01*
D02*
G37*
G36*
X248450D02*
X246850D01*
X245371Y117711D01*
X244239Y116579D01*
X243626Y115100D01*
Y113500D01*
X244239Y112021D01*
X245371Y110889D01*
X246850Y110276D01*
X248450D01*
X249929Y110889D01*
X251061Y112021D01*
X251674Y113500D01*
Y115100D01*
X251061Y116579D01*
X249929Y117711D01*
X248450Y118324D01*
D02*
G37*
G36*
X172250D02*
X170650D01*
X169171Y117711D01*
X168039Y116579D01*
X167426Y115100D01*
Y113500D01*
X168039Y112021D01*
X169171Y110889D01*
X170650Y110276D01*
X172250D01*
X173729Y110889D01*
X174861Y112021D01*
X175474Y113500D01*
Y115100D01*
X174861Y116579D01*
X173729Y117711D01*
X172250Y118324D01*
D02*
G37*
G36*
X96050D02*
X94450D01*
X92971Y117711D01*
X91839Y116579D01*
X91226Y115100D01*
Y113500D01*
X91839Y112021D01*
X92971Y110889D01*
X94450Y110276D01*
X96050D01*
X97529Y110889D01*
X98661Y112021D01*
X99274Y113500D01*
Y115100D01*
X98661Y116579D01*
X97529Y117711D01*
X96050Y118324D01*
D02*
G37*
G36*
X19850D02*
X18250D01*
X16771Y117711D01*
X15639Y116579D01*
X15026Y115100D01*
Y113500D01*
X15639Y112021D01*
X16771Y110889D01*
X18250Y110276D01*
X19850D01*
X21329Y110889D01*
X22461Y112021D01*
X23074Y113500D01*
Y115100D01*
X22461Y116579D01*
X21329Y117711D01*
X19850Y118324D01*
D02*
G37*
G36*
X-56350D02*
X-57950D01*
X-59429Y117711D01*
X-60561Y116579D01*
X-61174Y115100D01*
Y113500D01*
X-60561Y112021D01*
X-59429Y110889D01*
X-57950Y110276D01*
X-56350D01*
X-54871Y110889D01*
X-53739Y112021D01*
X-53126Y113500D01*
Y115100D01*
X-53739Y116579D01*
X-54871Y117711D01*
X-56350Y118324D01*
D02*
G37*
G36*
X-132550D02*
X-134150D01*
X-135629Y117711D01*
X-136761Y116579D01*
X-137374Y115100D01*
Y113500D01*
X-136761Y112021D01*
X-135629Y110889D01*
X-134150Y110276D01*
X-132550D01*
X-131071Y110889D01*
X-129939Y112021D01*
X-129326Y113500D01*
Y115100D01*
X-129939Y116579D01*
X-131071Y117711D01*
X-132550Y118324D01*
D02*
G37*
G36*
X-208750D02*
X-210350D01*
X-211829Y117711D01*
X-212961Y116579D01*
X-213574Y115100D01*
Y113500D01*
X-212961Y112021D01*
X-211829Y110889D01*
X-210350Y110276D01*
X-208750D01*
X-207271Y110889D01*
X-206139Y112021D01*
X-205526Y113500D01*
Y115100D01*
X-206139Y116579D01*
X-207271Y117711D01*
X-208750Y118324D01*
D02*
G37*
G36*
X-284950D02*
X-286550D01*
X-288029Y117711D01*
X-289161Y116579D01*
X-289774Y115100D01*
Y113500D01*
X-289161Y112021D01*
X-288029Y110889D01*
X-286550Y110276D01*
X-284950D01*
X-283471Y110889D01*
X-282339Y112021D01*
X-281726Y113500D01*
Y115100D01*
X-282339Y116579D01*
X-283471Y117711D01*
X-284950Y118324D01*
D02*
G37*
G36*
X228026Y105791D02*
X212024D01*
Y84709D01*
X228026D01*
Y105791D01*
D02*
G37*
G36*
X138176D02*
X122174D01*
Y84709D01*
X138176D01*
Y105791D01*
D02*
G37*
G36*
X-102174D02*
X-118176D01*
Y84709D01*
X-102174D01*
Y105791D01*
D02*
G37*
G36*
X-192024D02*
X-208026D01*
Y84709D01*
X-192024D01*
Y105791D01*
D02*
G37*
G36*
X200025Y105860D02*
X197936Y105585D01*
X195990Y104779D01*
X194319Y103496D01*
X193036Y101825D01*
X192230Y99879D01*
X191955Y97790D01*
Y92710D01*
X192230Y90621D01*
X193036Y88675D01*
X194319Y87004D01*
X195990Y85721D01*
X197936Y84915D01*
X200025Y84640D01*
X202114Y84915D01*
X204060Y85721D01*
X205731Y87004D01*
X207014Y88675D01*
X207820Y90621D01*
X208095Y92710D01*
Y97790D01*
X207820Y99879D01*
X207014Y101825D01*
X205731Y103496D01*
X204060Y104779D01*
X202114Y105585D01*
X200025Y105860D01*
D02*
G37*
G36*
X110175D02*
X108086Y105585D01*
X106140Y104779D01*
X104469Y103496D01*
X103186Y101825D01*
X102380Y99879D01*
X102105Y97790D01*
Y92710D01*
X102380Y90621D01*
X103186Y88675D01*
X104469Y87004D01*
X106140Y85721D01*
X108086Y84915D01*
X110175Y84640D01*
X112264Y84915D01*
X114210Y85721D01*
X115881Y87004D01*
X117164Y88675D01*
X117970Y90621D01*
X118245Y92710D01*
Y97790D01*
X117970Y99879D01*
X117164Y101825D01*
X115881Y103496D01*
X114210Y104779D01*
X112264Y105585D01*
X110175Y105860D01*
D02*
G37*
G36*
X-130175D02*
X-132264Y105585D01*
X-134210Y104779D01*
X-135881Y103496D01*
X-137164Y101825D01*
X-137970Y99879D01*
X-138245Y97790D01*
Y92710D01*
X-137970Y90621D01*
X-137164Y88675D01*
X-135881Y87004D01*
X-134210Y85721D01*
X-132264Y84915D01*
X-130175Y84640D01*
X-128086Y84915D01*
X-126140Y85721D01*
X-124469Y87004D01*
X-123186Y88675D01*
X-122380Y90621D01*
X-122105Y92710D01*
Y97790D01*
X-122380Y99879D01*
X-123186Y101825D01*
X-124469Y103496D01*
X-126140Y104779D01*
X-128086Y105585D01*
X-130175Y105860D01*
D02*
G37*
G36*
X-220025D02*
X-222114Y105585D01*
X-224060Y104779D01*
X-225731Y103496D01*
X-227014Y101825D01*
X-227820Y99879D01*
X-228095Y97790D01*
Y92710D01*
X-227820Y90621D01*
X-227014Y88675D01*
X-225731Y87004D01*
X-224060Y85721D01*
X-222114Y84915D01*
X-220025Y84640D01*
X-217936Y84915D01*
X-215990Y85721D01*
X-214319Y87004D01*
X-213036Y88675D01*
X-212230Y90621D01*
X-211955Y92710D01*
Y97790D01*
X-212230Y99879D01*
X-213036Y101825D01*
X-214319Y103496D01*
X-215990Y104779D01*
X-217936Y105585D01*
X-220025Y105860D01*
D02*
G37*
G36*
X-248124Y78295D02*
X-249716D01*
X-251186Y77686D01*
X-252311Y76561D01*
X-252920Y75091D01*
Y73499D01*
X-252311Y72029D01*
X-251186Y70904D01*
X-249716Y70295D01*
X-248124D01*
X-247574Y70523D01*
X-247503Y70497D01*
X-247095Y70090D01*
X-246555Y69215D01*
X-247095Y68341D01*
X-247503Y67933D01*
X-247574Y67907D01*
X-248124Y68135D01*
X-249716D01*
X-251186Y67526D01*
X-252311Y66401D01*
X-252920Y64931D01*
Y63339D01*
X-252311Y61869D01*
X-251186Y60744D01*
X-249716Y60135D01*
X-248124D01*
X-246654Y60744D01*
X-245529Y61869D01*
X-244920Y63339D01*
Y64931D01*
X-244966Y65041D01*
X-244142Y66135D01*
X-231915D01*
X-221613Y55833D01*
X-221067Y55468D01*
X-220423Y55340D01*
X-207978D01*
X-207154Y54246D01*
X-207200Y54136D01*
Y52544D01*
X-206591Y51074D01*
X-205466Y49949D01*
X-204581Y49582D01*
Y48208D01*
X-205466Y47841D01*
X-206591Y46716D01*
X-207200Y45246D01*
Y43654D01*
X-206591Y42184D01*
X-205466Y41059D01*
X-203996Y40450D01*
X-202404D01*
X-200934Y41059D01*
X-199809Y42184D01*
X-199200Y43654D01*
Y45246D01*
X-199809Y46716D01*
X-200934Y47841D01*
X-201819Y48208D01*
Y49582D01*
X-200934Y49949D01*
X-199809Y51074D01*
X-199200Y52544D01*
Y54136D01*
X-199428Y54686D01*
X-199402Y54757D01*
X-198566Y55594D01*
X-117984D01*
X-117148Y54757D01*
X-117122Y54686D01*
X-117350Y54136D01*
Y52544D01*
X-116741Y51074D01*
X-115616Y49949D01*
X-114731Y49582D01*
Y48208D01*
X-115616Y47841D01*
X-116741Y46716D01*
X-117350Y45246D01*
Y43654D01*
X-116741Y42184D01*
X-115616Y41059D01*
X-114146Y40450D01*
X-112554D01*
X-111084Y41059D01*
X-109959Y42184D01*
X-109350Y43654D01*
Y45246D01*
X-109959Y46716D01*
X-111084Y47841D01*
X-111969Y48208D01*
Y49582D01*
X-111084Y49949D01*
X-109959Y51074D01*
X-109350Y52544D01*
Y54136D01*
X-109396Y54246D01*
X-108572Y55340D01*
X-98205D01*
X-97561Y55468D01*
X-97015Y55833D01*
X-87348Y65500D01*
X-86058D01*
X-85234Y64406D01*
X-85280Y64296D01*
Y62704D01*
X-84671Y61234D01*
X-83546Y60109D01*
X-82076Y59500D01*
X-80484D01*
X-79014Y60109D01*
X-77889Y61234D01*
X-77280Y62704D01*
Y64296D01*
X-77889Y65766D01*
X-79014Y66891D01*
X-80484Y67500D01*
X-82076D01*
X-82626Y67272D01*
X-82697Y67298D01*
X-83105Y67705D01*
X-83645Y68580D01*
X-83105Y69454D01*
X-82697Y69862D01*
X-82626Y69888D01*
X-82076Y69660D01*
X-80484D01*
X-79014Y70269D01*
X-77889Y71394D01*
X-77280Y72864D01*
Y74456D01*
X-77889Y75926D01*
X-79014Y77051D01*
X-80484Y77660D01*
X-82076D01*
X-83546Y77051D01*
X-84671Y75926D01*
X-85280Y74456D01*
Y72864D01*
X-85234Y72754D01*
X-86058Y71660D01*
X-89202D01*
X-89846Y71532D01*
X-90393Y71167D01*
X-100059Y61500D01*
X-108572D01*
X-109396Y62594D01*
X-109350Y62704D01*
Y64296D01*
X-109959Y65766D01*
X-111084Y66891D01*
X-111969Y67258D01*
Y68632D01*
X-111084Y68999D01*
X-109959Y70124D01*
X-109350Y71594D01*
Y73186D01*
X-109959Y74656D01*
X-111084Y75781D01*
X-112554Y76390D01*
X-114146D01*
X-115616Y75781D01*
X-116741Y74656D01*
X-117350Y73186D01*
Y71594D01*
X-116741Y70124D01*
X-115616Y68999D01*
X-114731Y68632D01*
Y67258D01*
X-115616Y66891D01*
X-116741Y65766D01*
X-117350Y64296D01*
Y62704D01*
X-117122Y62154D01*
X-117148Y62083D01*
X-117984Y61246D01*
X-198566D01*
X-199402Y62083D01*
X-199428Y62154D01*
X-199200Y62704D01*
Y64296D01*
X-199809Y65766D01*
X-200934Y66891D01*
X-201819Y67258D01*
Y68632D01*
X-200934Y68999D01*
X-199809Y70124D01*
X-199200Y71594D01*
Y73186D01*
X-199809Y74656D01*
X-200934Y75781D01*
X-202404Y76390D01*
X-203996D01*
X-205466Y75781D01*
X-206591Y74656D01*
X-207200Y73186D01*
Y71594D01*
X-206591Y70124D01*
X-205466Y68999D01*
X-204581Y68632D01*
Y67258D01*
X-205466Y66891D01*
X-206591Y65766D01*
X-207200Y64296D01*
Y62704D01*
X-207154Y62594D01*
X-207978Y61500D01*
X-218568D01*
X-228870Y71802D01*
X-229416Y72167D01*
X-230061Y72295D01*
X-244142D01*
X-244966Y73389D01*
X-244920Y73499D01*
Y75091D01*
X-245529Y76561D01*
X-246654Y77686D01*
X-248124Y78295D01*
D02*
G37*
G36*
X-52544Y49720D02*
X-54136D01*
X-55606Y49111D01*
X-56731Y47986D01*
X-57340Y46516D01*
Y44924D01*
X-56731Y43454D01*
X-55606Y42329D01*
X-54136Y41720D01*
X-52544D01*
X-51074Y42329D01*
X-49949Y43454D01*
X-49340Y44924D01*
Y46516D01*
X-49949Y47986D01*
X-51074Y49111D01*
X-52544Y49720D01*
D02*
G37*
G36*
X-62704D02*
X-64296D01*
X-65766Y49111D01*
X-66891Y47986D01*
X-67500Y46516D01*
Y44924D01*
X-66891Y43454D01*
X-65766Y42329D01*
X-64296Y41720D01*
X-62704D01*
X-61234Y42329D01*
X-60109Y43454D01*
X-59500Y44924D01*
Y46516D01*
X-60109Y47986D01*
X-61234Y49111D01*
X-62704Y49720D01*
D02*
G37*
G36*
X286550Y42124D02*
X284950D01*
X283471Y41511D01*
X282339Y40379D01*
X281726Y38900D01*
Y37300D01*
X282339Y35821D01*
X283471Y34689D01*
X284950Y34076D01*
X286550D01*
X288029Y34689D01*
X289161Y35821D01*
X289774Y37300D01*
Y38900D01*
X289161Y40379D01*
X288029Y41511D01*
X286550Y42124D01*
D02*
G37*
G36*
X210350D02*
X208750D01*
X207271Y41511D01*
X206139Y40379D01*
X205526Y38900D01*
Y37300D01*
X206139Y35821D01*
X207271Y34689D01*
X208750Y34076D01*
X210350D01*
X211829Y34689D01*
X212961Y35821D01*
X213574Y37300D01*
Y38900D01*
X212961Y40379D01*
X211829Y41511D01*
X210350Y42124D01*
D02*
G37*
G36*
X57950D02*
X56350D01*
X54871Y41511D01*
X53739Y40379D01*
X53126Y38900D01*
Y37300D01*
X53739Y35821D01*
X54871Y34689D01*
X56350Y34076D01*
X57950D01*
X59429Y34689D01*
X60561Y35821D01*
X61174Y37300D01*
Y38900D01*
X60561Y40379D01*
X59429Y41511D01*
X57950Y42124D01*
D02*
G37*
G36*
X-18250D02*
X-19850D01*
X-21329Y41511D01*
X-22461Y40379D01*
X-23074Y38900D01*
Y37300D01*
X-22461Y35821D01*
X-21329Y34689D01*
X-19850Y34076D01*
X-18250D01*
X-16771Y34689D01*
X-15639Y35821D01*
X-15026Y37300D01*
Y38900D01*
X-15639Y40379D01*
X-16771Y41511D01*
X-18250Y42124D01*
D02*
G37*
G36*
X-246850D02*
X-248450D01*
X-249929Y41511D01*
X-251061Y40379D01*
X-251674Y38900D01*
Y37300D01*
X-251061Y35821D01*
X-249929Y34689D01*
X-248450Y34076D01*
X-246850D01*
X-245371Y34689D01*
X-244239Y35821D01*
X-243626Y37300D01*
Y38900D01*
X-244239Y40379D01*
X-245371Y41511D01*
X-246850Y42124D01*
D02*
G37*
G36*
X-323050D02*
X-324650D01*
X-326129Y41511D01*
X-327261Y40379D01*
X-327874Y38900D01*
Y37300D01*
X-327261Y35821D01*
X-326129Y34689D01*
X-324650Y34076D01*
X-323050D01*
X-321571Y34689D01*
X-320439Y35821D01*
X-319826Y37300D01*
Y38900D01*
X-320439Y40379D01*
X-321571Y41511D01*
X-323050Y42124D01*
D02*
G37*
G36*
X130873Y54897D02*
X129282D01*
X127812Y54289D01*
X126686Y53163D01*
X126077Y51693D01*
Y50102D01*
X126686Y48632D01*
X127812Y47506D01*
X127989Y47433D01*
X128006Y47394D01*
Y35023D01*
X128006Y35022D01*
X128163Y34230D01*
X128612Y33558D01*
X133428Y28742D01*
X133188Y27824D01*
X132943Y27472D01*
X115158D01*
X112149Y30481D01*
Y47394D01*
X112167Y47433D01*
X112343Y47506D01*
X113469Y48632D01*
X114078Y50102D01*
Y51693D01*
X113469Y53163D01*
X112343Y54289D01*
X110873Y54897D01*
X109282D01*
X107812Y54289D01*
X106686Y53163D01*
X106077Y51693D01*
Y50102D01*
X106686Y48632D01*
X107812Y47506D01*
X107989Y47433D01*
X108006Y47394D01*
Y29623D01*
X108006Y29622D01*
X108163Y28830D01*
X108612Y28157D01*
X112835Y23935D01*
X112835Y23935D01*
X113507Y23486D01*
X114300Y23328D01*
X189134D01*
X216368Y-3906D01*
Y-47868D01*
X216368Y-47868D01*
X216526Y-48661D01*
X216975Y-49333D01*
X227781Y-60139D01*
X227781Y-60139D01*
X228453Y-60588D01*
X229246Y-60746D01*
X229246Y-60746D01*
X248316D01*
X250058Y-62488D01*
X250073Y-62528D01*
X250000Y-62704D01*
Y-64296D01*
X250609Y-65766D01*
X251734Y-66891D01*
X253204Y-67500D01*
X254796D01*
X256266Y-66891D01*
X257391Y-65766D01*
X258000Y-64296D01*
Y-62704D01*
X257391Y-61234D01*
X256266Y-60109D01*
X254796Y-59500D01*
X253204D01*
X253028Y-59573D01*
X252988Y-59558D01*
X250826Y-57396D01*
X250963Y-56575D01*
X251220Y-56070D01*
X251491Y-56016D01*
X252163Y-55567D01*
X252988Y-54742D01*
X253028Y-54727D01*
X253204Y-54800D01*
X254796D01*
X256266Y-54191D01*
X257391Y-53066D01*
X258000Y-51596D01*
Y-50004D01*
X257391Y-48534D01*
X256266Y-47409D01*
X254796Y-46800D01*
X253204D01*
X251734Y-47409D01*
X250609Y-48534D01*
X250000Y-50004D01*
Y-51596D01*
X248827Y-52030D01*
X231998D01*
X225592Y-45624D01*
Y-0D01*
X225592Y0D01*
X225434Y793D01*
X224985Y1465D01*
X195013Y31437D01*
X194341Y31886D01*
X193548Y32044D01*
X193548Y32044D01*
X135986D01*
X132149Y35881D01*
Y47394D01*
X132167Y47433D01*
X132343Y47506D01*
X133469Y48632D01*
X134078Y50102D01*
Y51693D01*
X133469Y53163D01*
X132343Y54289D01*
X130873Y54897D01*
D02*
G37*
G36*
X-52544Y31940D02*
X-54136D01*
X-55606Y31331D01*
X-56731Y30206D01*
X-57340Y28736D01*
Y27144D01*
X-56731Y25674D01*
X-55606Y24549D01*
X-54136Y23940D01*
X-52544D01*
X-51074Y24549D01*
X-49949Y25674D01*
X-49340Y27144D01*
Y28736D01*
X-49949Y30206D01*
X-51074Y31331D01*
X-52544Y31940D01*
D02*
G37*
G36*
X-62704D02*
X-64296D01*
X-65766Y31331D01*
X-66891Y30206D01*
X-67500Y28736D01*
Y27144D01*
X-66891Y25674D01*
X-65766Y24549D01*
X-64296Y23940D01*
X-62704D01*
X-61234Y24549D01*
X-60109Y25674D01*
X-59500Y27144D01*
Y28736D01*
X-60109Y30206D01*
X-61234Y31331D01*
X-62704Y31940D01*
D02*
G37*
G36*
X261487Y34036D02*
X259213D01*
X257017Y33447D01*
X255047Y32311D01*
X253440Y30703D01*
X252302Y28733D01*
X251714Y26537D01*
Y24263D01*
X252302Y22067D01*
X253440Y20097D01*
X255047Y18490D01*
X257017Y17352D01*
X259213Y16764D01*
X261487D01*
X263683Y17352D01*
X265653Y18490D01*
X267260Y20097D01*
X268398Y22067D01*
X268986Y24263D01*
Y26537D01*
X268398Y28733D01*
X267260Y30703D01*
X265653Y32311D01*
X263683Y33447D01*
X261487Y34036D01*
D02*
G37*
G36*
X236087D02*
X233813D01*
X231617Y33447D01*
X229647Y32311D01*
X228039Y30703D01*
X226903Y28733D01*
X226314Y26537D01*
Y24263D01*
X226903Y22067D01*
X228039Y20097D01*
X229647Y18490D01*
X231617Y17352D01*
X233813Y16764D01*
X236087D01*
X238283Y17352D01*
X240253Y18490D01*
X241861Y20097D01*
X242997Y22067D01*
X243586Y24263D01*
Y26537D01*
X242997Y28733D01*
X241861Y30703D01*
X240253Y32311D01*
X238283Y33447D01*
X236087Y34036D01*
D02*
G37*
G36*
X-131204Y16700D02*
X-132796D01*
X-134266Y16091D01*
X-135280Y15077D01*
X-136000Y15017D01*
X-136720Y15077D01*
X-137734Y16091D01*
X-139204Y16700D01*
X-140796D01*
X-142266Y16091D01*
X-143280Y15077D01*
X-144000Y15017D01*
X-144720Y15077D01*
X-145734Y16091D01*
X-147204Y16700D01*
X-148796D01*
X-150266Y16091D01*
X-151391Y14966D01*
X-152000Y13496D01*
Y11904D01*
X-151391Y10434D01*
X-150266Y9309D01*
X-148796Y8700D01*
X-147204D01*
X-145734Y9309D01*
X-144720Y10323D01*
X-144000Y10383D01*
X-143280Y10323D01*
X-142266Y9309D01*
X-140796Y8700D01*
X-139204D01*
X-137734Y9309D01*
X-136720Y10323D01*
X-136000Y10383D01*
X-135280Y10323D01*
X-134266Y9309D01*
X-132796Y8700D01*
X-131204D01*
X-129734Y9309D01*
X-128609Y10434D01*
X-128000Y11904D01*
Y13496D01*
X-128609Y14966D01*
X-129734Y16091D01*
X-131204Y16700D01*
D02*
G37*
G36*
X220723Y54897D02*
X219132D01*
X217662Y54289D01*
X216537Y53163D01*
X215928Y51693D01*
Y50102D01*
X216537Y48632D01*
X217662Y47506D01*
X217838Y47433D01*
X217856Y47394D01*
Y21373D01*
X217856Y21372D01*
X218013Y20580D01*
X218463Y19907D01*
X232624Y5746D01*
Y3875D01*
X231451Y3389D01*
X213345Y21495D01*
Y22407D01*
X213345Y22407D01*
X213187Y23200D01*
X212738Y23872D01*
X212738Y23872D01*
X201999Y34611D01*
Y47394D01*
X202017Y47433D01*
X202193Y47506D01*
X203319Y48632D01*
X203927Y50102D01*
Y51693D01*
X203319Y53163D01*
X202193Y54289D01*
X200723Y54897D01*
X199132D01*
X197662Y54289D01*
X196537Y53163D01*
X195928Y51693D01*
Y50102D01*
X196537Y48632D01*
X197662Y47506D01*
X197838Y47433D01*
X197856Y47394D01*
Y33753D01*
X197856Y33753D01*
X198013Y32960D01*
X198463Y32287D01*
X209201Y21549D01*
Y20637D01*
X209201Y20636D01*
X209359Y19844D01*
X209808Y19172D01*
X243144Y-14165D01*
X243144Y-14165D01*
X243817Y-14614D01*
X244610Y-14772D01*
X244610Y-14772D01*
X246792D01*
X250058Y-18038D01*
X250073Y-18078D01*
X250000Y-18254D01*
Y-19846D01*
X250609Y-21316D01*
X251734Y-22441D01*
X253204Y-23050D01*
X254796D01*
X256266Y-22441D01*
X257391Y-21316D01*
X258000Y-19846D01*
Y-18254D01*
X257391Y-16784D01*
X256266Y-15659D01*
X254796Y-15050D01*
X253204D01*
X253028Y-15123D01*
X252988Y-15108D01*
X250826Y-12945D01*
X251283Y-11607D01*
X251491Y-11566D01*
X252163Y-11117D01*
X252988Y-10292D01*
X253028Y-10277D01*
X253204Y-10350D01*
X254796D01*
X256266Y-9741D01*
X257391Y-8616D01*
X258000Y-7146D01*
Y-5554D01*
X257391Y-4084D01*
X256266Y-2959D01*
X254796Y-2350D01*
X253204D01*
X251734Y-2959D01*
X250609Y-4084D01*
X250000Y-5554D01*
Y-7146D01*
X248827Y-7580D01*
X246730D01*
X236768Y2382D01*
Y6604D01*
X236768Y6604D01*
X236610Y7397D01*
X236161Y8069D01*
X221999Y22231D01*
Y47394D01*
X222017Y47433D01*
X222193Y47506D01*
X223319Y48632D01*
X223927Y50102D01*
Y51693D01*
X223319Y53163D01*
X222193Y54289D01*
X220723Y54897D01*
D02*
G37*
G36*
X12796Y-21000D02*
X11204D01*
X9734Y-21609D01*
X8720Y-22623D01*
X8000Y-22683D01*
X7280Y-22623D01*
X6266Y-21609D01*
X4796Y-21000D01*
X3204D01*
X1734Y-21609D01*
X609Y-22734D01*
X0Y-24204D01*
Y-25796D01*
X609Y-27266D01*
X1734Y-28391D01*
X3204Y-29000D01*
X4796D01*
X6266Y-28391D01*
X7280Y-27377D01*
X8000Y-27317D01*
X8720Y-27377D01*
X9734Y-28391D01*
X11204Y-29000D01*
X12796D01*
X14266Y-28391D01*
X15391Y-27266D01*
X16000Y-25796D01*
Y-24204D01*
X15391Y-22734D01*
X14266Y-21609D01*
X12796Y-21000D01*
D02*
G37*
G36*
X324650Y-34076D02*
X323050D01*
X321571Y-34689D01*
X320439Y-35821D01*
X319826Y-37300D01*
Y-38900D01*
X320439Y-40379D01*
X321571Y-41511D01*
X323050Y-42124D01*
X324650D01*
X326129Y-41511D01*
X327261Y-40379D01*
X327874Y-38900D01*
Y-37300D01*
X327261Y-35821D01*
X326129Y-34689D01*
X324650Y-34076D01*
D02*
G37*
G36*
X248450D02*
X246850D01*
X245371Y-34689D01*
X244239Y-35821D01*
X243626Y-37300D01*
Y-38900D01*
X244239Y-40379D01*
X245371Y-41511D01*
X246850Y-42124D01*
X248450D01*
X249929Y-41511D01*
X251061Y-40379D01*
X251674Y-38900D01*
Y-37300D01*
X251061Y-35821D01*
X249929Y-34689D01*
X248450Y-34076D01*
D02*
G37*
G36*
X172250D02*
X170650D01*
X169171Y-34689D01*
X168039Y-35821D01*
X167426Y-37300D01*
Y-38900D01*
X168039Y-40379D01*
X169171Y-41511D01*
X170650Y-42124D01*
X172250D01*
X173729Y-41511D01*
X174861Y-40379D01*
X175474Y-38900D01*
Y-37300D01*
X174861Y-35821D01*
X173729Y-34689D01*
X172250Y-34076D01*
D02*
G37*
G36*
X-208750D02*
X-210350D01*
X-211829Y-34689D01*
X-212961Y-35821D01*
X-213574Y-37300D01*
Y-38900D01*
X-212961Y-40379D01*
X-211829Y-41511D01*
X-210350Y-42124D01*
X-208750D01*
X-207271Y-41511D01*
X-206139Y-40379D01*
X-205526Y-38900D01*
Y-37300D01*
X-206139Y-35821D01*
X-207271Y-34689D01*
X-208750Y-34076D01*
D02*
G37*
G36*
X-284950D02*
X-286550D01*
X-288029Y-34689D01*
X-289161Y-35821D01*
X-289774Y-37300D01*
Y-38900D01*
X-289161Y-40379D01*
X-288029Y-41511D01*
X-286550Y-42124D01*
X-284950D01*
X-283471Y-41511D01*
X-282339Y-40379D01*
X-281726Y-38900D01*
Y-37300D01*
X-282339Y-35821D01*
X-283471Y-34689D01*
X-284950Y-34076D01*
D02*
G37*
G36*
X148796Y-59500D02*
X147204D01*
X145734Y-60109D01*
X144720Y-61123D01*
X144000Y-61183D01*
X143280Y-61123D01*
X142266Y-60109D01*
X140796Y-59500D01*
X139204D01*
X137734Y-60109D01*
X136720Y-61123D01*
X136000Y-61183D01*
X135280Y-61123D01*
X134266Y-60109D01*
X132796Y-59500D01*
X131204D01*
X129734Y-60109D01*
X128609Y-61234D01*
X128000Y-62704D01*
Y-64296D01*
X128609Y-65766D01*
X129734Y-66891D01*
X131204Y-67500D01*
X132796D01*
X134266Y-66891D01*
X135280Y-65877D01*
X136000Y-65817D01*
X136720Y-65877D01*
X137734Y-66891D01*
X139204Y-67500D01*
X140796D01*
X142266Y-66891D01*
X143280Y-65877D01*
X144000Y-65817D01*
X144720Y-65877D01*
X145734Y-66891D01*
X147204Y-67500D01*
X148796D01*
X150266Y-66891D01*
X151391Y-65766D01*
X152000Y-64296D01*
Y-62704D01*
X151391Y-61234D01*
X150266Y-60109D01*
X148796Y-59500D01*
D02*
G37*
G36*
X-11204D02*
X-12796D01*
X-14266Y-60109D01*
X-15280Y-61123D01*
X-16000Y-61183D01*
X-16720Y-61123D01*
X-17734Y-60109D01*
X-19204Y-59500D01*
X-20796D01*
X-22266Y-60109D01*
X-23391Y-61234D01*
X-24000Y-62704D01*
Y-64296D01*
X-23391Y-65766D01*
X-22266Y-66891D01*
X-20796Y-67500D01*
X-19204D01*
X-17734Y-66891D01*
X-16720Y-65877D01*
X-16000Y-65817D01*
X-15280Y-65877D01*
X-14266Y-66891D01*
X-12796Y-67500D01*
X-11204D01*
X-9734Y-66891D01*
X-8609Y-65766D01*
X-8000Y-64296D01*
Y-62704D01*
X-8609Y-61234D01*
X-9734Y-60109D01*
X-11204Y-59500D01*
D02*
G37*
G36*
X201456Y-4890D02*
X199864D01*
X198394Y-5499D01*
X197269Y-6624D01*
X196660Y-8094D01*
Y-9686D01*
X197269Y-11156D01*
X198394Y-12281D01*
X198571Y-12354D01*
X198588Y-12393D01*
Y-49837D01*
X198571Y-49876D01*
X198394Y-49949D01*
X197269Y-51074D01*
X196660Y-52544D01*
Y-54136D01*
X197269Y-55606D01*
X198394Y-56731D01*
X198571Y-56804D01*
X198588Y-56843D01*
Y-60610D01*
X190150Y-69048D01*
X25400D01*
X25400Y-69048D01*
X24607Y-69206D01*
X23935Y-69655D01*
X23935Y-69655D01*
X21332Y-72258D01*
X21292Y-72273D01*
X21116Y-72200D01*
X19524D01*
X18054Y-72809D01*
X16929Y-73934D01*
X16320Y-75404D01*
Y-76996D01*
X16929Y-78466D01*
X18054Y-79591D01*
X19524Y-80200D01*
X21116D01*
X22586Y-79591D01*
X23711Y-78466D01*
X24320Y-76996D01*
Y-75404D01*
X24247Y-75228D01*
X24262Y-75188D01*
X26258Y-73192D01*
X38872D01*
X39570Y-74462D01*
X39180Y-75404D01*
Y-76996D01*
X39789Y-78466D01*
X40914Y-79591D01*
X42384Y-80200D01*
X43976D01*
X45446Y-79591D01*
X46571Y-78466D01*
X46644Y-78289D01*
X46683Y-78272D01*
X193040D01*
X193040Y-78272D01*
X193833Y-78114D01*
X194505Y-77665D01*
X207268Y-64902D01*
X207308Y-64887D01*
X207484Y-64960D01*
X209076D01*
X210546Y-64351D01*
X211671Y-63226D01*
X212280Y-61756D01*
Y-60164D01*
X211671Y-58694D01*
X210546Y-57569D01*
X210369Y-57496D01*
X210352Y-57457D01*
Y-20013D01*
X210369Y-19974D01*
X210546Y-19901D01*
X211671Y-18776D01*
X212280Y-17306D01*
Y-15714D01*
X211671Y-14244D01*
X210546Y-13119D01*
X209076Y-12510D01*
X207484D01*
X206014Y-13119D01*
X204889Y-14244D01*
X204280Y-15714D01*
Y-17306D01*
X204889Y-18776D01*
X206014Y-19901D01*
X206191Y-19974D01*
X206208Y-20013D01*
Y-57457D01*
X206191Y-57496D01*
X206014Y-57569D01*
X204889Y-58694D01*
X204280Y-60164D01*
Y-61289D01*
X203982Y-61515D01*
X202732Y-60870D01*
Y-56843D01*
X202749Y-56804D01*
X202926Y-56731D01*
X204051Y-55606D01*
X204660Y-54136D01*
Y-52544D01*
X204051Y-51074D01*
X202926Y-49949D01*
X202749Y-49876D01*
X202732Y-49837D01*
Y-12393D01*
X202749Y-12354D01*
X202926Y-12281D01*
X204051Y-11156D01*
X204660Y-9686D01*
Y-8094D01*
X204051Y-6624D01*
X202926Y-5499D01*
X201456Y-4890D01*
D02*
G37*
G36*
X-150344Y50000D02*
X-151936D01*
X-153406Y49391D01*
X-154531Y48266D01*
X-155140Y46796D01*
Y45204D01*
X-154531Y43734D01*
X-153406Y42609D01*
X-152856Y42381D01*
X-152823Y42313D01*
Y39251D01*
X-152695Y38607D01*
X-152330Y38061D01*
X-152254Y37985D01*
X-151714Y37110D01*
X-152254Y36235D01*
X-152330Y36159D01*
X-152695Y35613D01*
X-152823Y34969D01*
Y31907D01*
X-152856Y31839D01*
X-153406Y31611D01*
X-154531Y30486D01*
X-155140Y29016D01*
Y27424D01*
X-154531Y25954D01*
X-153406Y24829D01*
X-151936Y24220D01*
X-150344D01*
X-148874Y24829D01*
X-147749Y25954D01*
X-147140Y27424D01*
Y29016D01*
X-147749Y30486D01*
X-148874Y31611D01*
X-149424Y31839D01*
X-149457Y31907D01*
Y34030D01*
X-138010D01*
X-26590Y-77390D01*
X-26044Y-77755D01*
X-25400Y-77883D01*
X3627D01*
X4272Y-77755D01*
X4818Y-77390D01*
X10587Y-71621D01*
X10952Y-71075D01*
X11204Y-70000D01*
X12796D01*
X14266Y-69391D01*
X15391Y-68266D01*
X16000Y-66796D01*
Y-65204D01*
X15391Y-63734D01*
X14266Y-62609D01*
X12796Y-62000D01*
X11204D01*
X9734Y-62609D01*
X8720Y-63623D01*
X8000Y-63683D01*
X7280Y-63623D01*
X6266Y-62609D01*
X4796Y-62000D01*
X3204D01*
X1734Y-62609D01*
X609Y-63734D01*
X0Y-65204D01*
Y-66796D01*
X609Y-68266D01*
X1734Y-69391D01*
X2077Y-69533D01*
X2337Y-70732D01*
X1472Y-71723D01*
X-23545D01*
X-133329Y38061D01*
X-133329Y38061D01*
X-134965Y39697D01*
X-135512Y40062D01*
X-136156Y40190D01*
X-149457D01*
Y42313D01*
X-149424Y42381D01*
X-148874Y42609D01*
X-147749Y43734D01*
X-147140Y45204D01*
Y46796D01*
X-147749Y48266D01*
X-148874Y49391D01*
X-150344Y50000D01*
D02*
G37*
G36*
X332279Y-49784D02*
X328121D01*
X324014Y-50434D01*
X320060Y-51719D01*
X316355Y-53607D01*
X312991Y-56051D01*
X310051Y-58991D01*
X307607Y-62355D01*
X305719Y-66060D01*
X304434Y-70014D01*
X303784Y-74121D01*
Y-78279D01*
X304434Y-82386D01*
X305719Y-86340D01*
X307607Y-90045D01*
X310051Y-93409D01*
X312991Y-96349D01*
X316355Y-98793D01*
X320060Y-100681D01*
X324014Y-101966D01*
X328121Y-102616D01*
X332279D01*
X336386Y-101966D01*
X340340Y-100681D01*
X344045Y-98793D01*
X347409Y-96349D01*
X350349Y-93409D01*
X352793Y-90045D01*
X354681Y-86340D01*
X355966Y-82386D01*
X356616Y-78279D01*
Y-74121D01*
X355966Y-70014D01*
X354681Y-66060D01*
X352793Y-62355D01*
X350349Y-58991D01*
X347409Y-56051D01*
X344045Y-53607D01*
X340340Y-51719D01*
X336386Y-50434D01*
X332279Y-49784D01*
D02*
G37*
G36*
X-328121D02*
X-332279D01*
X-336386Y-50434D01*
X-340340Y-51719D01*
X-344045Y-53607D01*
X-347409Y-56051D01*
X-350349Y-58991D01*
X-352793Y-62355D01*
X-354681Y-66060D01*
X-355966Y-70014D01*
X-356616Y-74121D01*
Y-78279D01*
X-355966Y-82386D01*
X-354681Y-86340D01*
X-352793Y-90045D01*
X-350349Y-93409D01*
X-347409Y-96349D01*
X-344045Y-98793D01*
X-340340Y-100681D01*
X-336386Y-101966D01*
X-332279Y-102616D01*
X-328121D01*
X-324014Y-101966D01*
X-320060Y-100681D01*
X-316355Y-98793D01*
X-312991Y-96349D01*
X-310051Y-93409D01*
X-307607Y-90045D01*
X-305719Y-86340D01*
X-304434Y-82386D01*
X-303784Y-78279D01*
Y-74121D01*
X-304434Y-70014D01*
X-305719Y-66060D01*
X-307607Y-62355D01*
X-310051Y-58991D01*
X-312991Y-56051D01*
X-316355Y-53607D01*
X-320060Y-51719D01*
X-324014Y-50434D01*
X-328121Y-49784D01*
D02*
G37*
G36*
X261487Y-86614D02*
X259213D01*
X257017Y-87203D01*
X255047Y-88340D01*
X253440Y-89947D01*
X252302Y-91917D01*
X251714Y-94113D01*
Y-96387D01*
X252302Y-98583D01*
X253440Y-100553D01*
X255047Y-102161D01*
X257017Y-103298D01*
X259213Y-103886D01*
X261487D01*
X263683Y-103298D01*
X265653Y-102161D01*
X267260Y-100553D01*
X268398Y-98583D01*
X268986Y-96387D01*
Y-94113D01*
X268398Y-91917D01*
X267260Y-89947D01*
X265653Y-88340D01*
X263683Y-87203D01*
X261487Y-86614D01*
D02*
G37*
G36*
X236087D02*
X233813D01*
X231617Y-87203D01*
X229647Y-88340D01*
X228039Y-89947D01*
X226903Y-91917D01*
X226314Y-94113D01*
Y-96387D01*
X226903Y-98583D01*
X228039Y-100553D01*
X229647Y-102161D01*
X231617Y-103298D01*
X233813Y-103886D01*
X236087D01*
X238283Y-103298D01*
X240253Y-102161D01*
X241861Y-100553D01*
X242997Y-98583D01*
X243586Y-96387D01*
Y-94113D01*
X242997Y-91917D01*
X241861Y-89947D01*
X240253Y-88340D01*
X238283Y-87203D01*
X236087Y-86614D01*
D02*
G37*
%LPD*%
G36*
X-246654Y74013D02*
X-246635Y73766D01*
X-246602Y73533D01*
X-246555Y73311D01*
X-246494Y73103D01*
X-246419Y72907D01*
X-246329Y72723D01*
X-246226Y72553D01*
X-246108Y72394D01*
X-245976Y72249D01*
X-246874Y71351D01*
X-247020Y71483D01*
X-247178Y71601D01*
X-247348Y71705D01*
X-247532Y71794D01*
X-247728Y71869D01*
X-247936Y71930D01*
X-248158Y71977D01*
X-248391Y72010D01*
X-248638Y72029D01*
X-248897Y72033D01*
X-246658Y74272D01*
X-246654Y74013D01*
D02*
G37*
G36*
X-81303Y71398D02*
X-81562Y71394D01*
X-81809Y71375D01*
X-82043Y71342D01*
X-82264Y71295D01*
X-82472Y71234D01*
X-82668Y71159D01*
X-82852Y71069D01*
X-83022Y70966D01*
X-83181Y70848D01*
X-83326Y70716D01*
X-84224Y71614D01*
X-84092Y71760D01*
X-83974Y71918D01*
X-83870Y72088D01*
X-83781Y72272D01*
X-83706Y72468D01*
X-83645Y72676D01*
X-83598Y72898D01*
X-83565Y73131D01*
X-83546Y73378D01*
X-83542Y73637D01*
X-81303Y71398D01*
D02*
G37*
G36*
X-245976Y66181D02*
X-246108Y66035D01*
X-246226Y65877D01*
X-246329Y65707D01*
X-246419Y65523D01*
X-246494Y65327D01*
X-246555Y65119D01*
X-246602Y64897D01*
X-246635Y64664D01*
X-246654Y64417D01*
X-246658Y64158D01*
X-248897Y66397D01*
X-248638Y66401D01*
X-248391Y66420D01*
X-248158Y66453D01*
X-247936Y66500D01*
X-247728Y66561D01*
X-247532Y66636D01*
X-247348Y66726D01*
X-247178Y66829D01*
X-247020Y66947D01*
X-246874Y67079D01*
X-245976Y66181D01*
D02*
G37*
G36*
X-83181Y66312D02*
X-83022Y66194D01*
X-82852Y66090D01*
X-82668Y66001D01*
X-82472Y65926D01*
X-82264Y65865D01*
X-82043Y65818D01*
X-81809Y65785D01*
X-81562Y65766D01*
X-81303Y65762D01*
X-83542Y63523D01*
X-83546Y63782D01*
X-83565Y64029D01*
X-83598Y64262D01*
X-83645Y64484D01*
X-83706Y64692D01*
X-83781Y64888D01*
X-83870Y65072D01*
X-83974Y65242D01*
X-84092Y65401D01*
X-84224Y65546D01*
X-83326Y66444D01*
X-83181Y66312D01*
D02*
G37*
G36*
X-111084Y63218D02*
X-111065Y62972D01*
X-111032Y62737D01*
X-110985Y62516D01*
X-110924Y62308D01*
X-110849Y62112D01*
X-110759Y61928D01*
X-110656Y61758D01*
X-110538Y61599D01*
X-110406Y61454D01*
X-111304Y60556D01*
X-111449Y60688D01*
X-111608Y60806D01*
X-111778Y60910D01*
X-111962Y60999D01*
X-112158Y61074D01*
X-112366Y61135D01*
X-112587Y61182D01*
X-112822Y61215D01*
X-113068Y61234D01*
X-113327Y61238D01*
X-111088Y63477D01*
X-111084Y63218D01*
D02*
G37*
G36*
X-113373Y61238D02*
X-113632Y61234D01*
X-113878Y61215D01*
X-114112Y61182D01*
X-114334Y61135D01*
X-114542Y61074D01*
X-114738Y60999D01*
X-114922Y60910D01*
X-115092Y60806D01*
X-115250Y60688D01*
X-115396Y60556D01*
X-116294Y61454D01*
X-116162Y61599D01*
X-116044Y61758D01*
X-115941Y61928D01*
X-115851Y62112D01*
X-115776Y62308D01*
X-115715Y62516D01*
X-115668Y62737D01*
X-115635Y62972D01*
X-115616Y63218D01*
X-115612Y63477D01*
X-113373Y61238D01*
D02*
G37*
G36*
X-200934Y63218D02*
X-200915Y62972D01*
X-200882Y62737D01*
X-200835Y62516D01*
X-200774Y62308D01*
X-200699Y62112D01*
X-200609Y61928D01*
X-200506Y61758D01*
X-200388Y61599D01*
X-200256Y61454D01*
X-201154Y60556D01*
X-201299Y60688D01*
X-201458Y60806D01*
X-201628Y60910D01*
X-201812Y60999D01*
X-202008Y61074D01*
X-202216Y61135D01*
X-202437Y61182D01*
X-202672Y61215D01*
X-202918Y61234D01*
X-203177Y61238D01*
X-200938Y63477D01*
X-200934Y63218D01*
D02*
G37*
G36*
X-203223Y61238D02*
X-203482Y61234D01*
X-203729Y61215D01*
X-203962Y61182D01*
X-204184Y61135D01*
X-204392Y61074D01*
X-204588Y60999D01*
X-204772Y60910D01*
X-204942Y60806D01*
X-205100Y60688D01*
X-205246Y60556D01*
X-206144Y61454D01*
X-206012Y61599D01*
X-205894Y61758D01*
X-205791Y61928D01*
X-205701Y62112D01*
X-205626Y62308D01*
X-205565Y62516D01*
X-205518Y62737D01*
X-205485Y62972D01*
X-205466Y63218D01*
X-205462Y63477D01*
X-203223Y61238D01*
D02*
G37*
G36*
X-110406Y55386D02*
X-110538Y55241D01*
X-110656Y55082D01*
X-110759Y54912D01*
X-110849Y54728D01*
X-110924Y54532D01*
X-110985Y54324D01*
X-111032Y54103D01*
X-111065Y53868D01*
X-111084Y53622D01*
X-111088Y53363D01*
X-113327Y55602D01*
X-113068Y55606D01*
X-112822Y55625D01*
X-112587Y55658D01*
X-112366Y55705D01*
X-112158Y55766D01*
X-111962Y55841D01*
X-111778Y55931D01*
X-111608Y56034D01*
X-111449Y56152D01*
X-111304Y56284D01*
X-110406Y55386D01*
D02*
G37*
G36*
X-115250Y56152D02*
X-115092Y56034D01*
X-114922Y55931D01*
X-114738Y55841D01*
X-114542Y55766D01*
X-114334Y55705D01*
X-114112Y55658D01*
X-113878Y55625D01*
X-113632Y55606D01*
X-113373Y55602D01*
X-115612Y53363D01*
X-115616Y53622D01*
X-115635Y53868D01*
X-115668Y54103D01*
X-115715Y54324D01*
X-115776Y54532D01*
X-115851Y54728D01*
X-115941Y54912D01*
X-116044Y55082D01*
X-116162Y55241D01*
X-116294Y55386D01*
X-115396Y56284D01*
X-115250Y56152D01*
D02*
G37*
G36*
X-200256Y55386D02*
X-200388Y55241D01*
X-200506Y55082D01*
X-200609Y54912D01*
X-200699Y54728D01*
X-200774Y54532D01*
X-200835Y54324D01*
X-200882Y54103D01*
X-200915Y53868D01*
X-200934Y53622D01*
X-200938Y53363D01*
X-203177Y55602D01*
X-202918Y55606D01*
X-202672Y55625D01*
X-202437Y55658D01*
X-202216Y55705D01*
X-202008Y55766D01*
X-201812Y55841D01*
X-201628Y55931D01*
X-201458Y56034D01*
X-201299Y56152D01*
X-201154Y56284D01*
X-200256Y55386D01*
D02*
G37*
G36*
X-205100Y56152D02*
X-204942Y56034D01*
X-204772Y55931D01*
X-204588Y55841D01*
X-204392Y55766D01*
X-204184Y55705D01*
X-203962Y55658D01*
X-203729Y55625D01*
X-203482Y55606D01*
X-203223Y55602D01*
X-205462Y53363D01*
X-205466Y53622D01*
X-205485Y53868D01*
X-205518Y54103D01*
X-205565Y54324D01*
X-205626Y54532D01*
X-205701Y54728D01*
X-205791Y54912D01*
X-205894Y55082D01*
X-206012Y55241D01*
X-206144Y55386D01*
X-205246Y56284D01*
X-205100Y56152D01*
D02*
G37*
G36*
X131553Y49164D02*
X131457Y49034D01*
X131371Y48890D01*
X131298Y48733D01*
X131235Y48563D01*
X131184Y48380D01*
X131145Y48185D01*
X131116Y47976D01*
X131099Y47754D01*
X131094Y47519D01*
X129061D01*
X129056Y47754D01*
X129039Y47976D01*
X129010Y48185D01*
X128971Y48380D01*
X128920Y48563D01*
X128857Y48733D01*
X128784Y48890D01*
X128698Y49034D01*
X128602Y49164D01*
X128494Y49282D01*
X131661D01*
X131553Y49164D01*
D02*
G37*
G36*
X111553D02*
X111457Y49034D01*
X111371Y48890D01*
X111298Y48733D01*
X111235Y48563D01*
X111184Y48380D01*
X111145Y48185D01*
X111116Y47976D01*
X111099Y47754D01*
X111094Y47519D01*
X109061D01*
X109056Y47754D01*
X109039Y47976D01*
X109010Y48185D01*
X108971Y48380D01*
X108920Y48563D01*
X108857Y48733D01*
X108784Y48890D01*
X108698Y49034D01*
X108602Y49164D01*
X108494Y49282D01*
X111661D01*
X111553Y49164D01*
D02*
G37*
G36*
X253977Y-53062D02*
X253818Y-53069D01*
X253657Y-53093D01*
X253495Y-53135D01*
X253332Y-53193D01*
X253168Y-53269D01*
X253003Y-53362D01*
X252836Y-53473D01*
X252669Y-53600D01*
X252500Y-53745D01*
X252330Y-53907D01*
X250893Y-52470D01*
X251055Y-52300D01*
X251200Y-52131D01*
X251327Y-51964D01*
X251438Y-51797D01*
X251531Y-51632D01*
X251607Y-51468D01*
X251665Y-51305D01*
X251707Y-51143D01*
X251731Y-50982D01*
X251738Y-50823D01*
X253977Y-53062D01*
D02*
G37*
G36*
X252500Y-60555D02*
X252669Y-60700D01*
X252836Y-60827D01*
X253003Y-60938D01*
X253168Y-61031D01*
X253332Y-61107D01*
X253495Y-61165D01*
X253657Y-61207D01*
X253818Y-61231D01*
X253977Y-61238D01*
X251738Y-63477D01*
X251731Y-63318D01*
X251707Y-63157D01*
X251665Y-62995D01*
X251607Y-62832D01*
X251531Y-62668D01*
X251438Y-62503D01*
X251327Y-62336D01*
X251200Y-62169D01*
X251055Y-62000D01*
X250893Y-61830D01*
X252330Y-60393D01*
X252500Y-60555D01*
D02*
G37*
G36*
X221403Y49164D02*
X221307Y49034D01*
X221222Y48890D01*
X221148Y48733D01*
X221085Y48563D01*
X221034Y48380D01*
X220995Y48185D01*
X220966Y47976D01*
X220949Y47754D01*
X220944Y47519D01*
X218911D01*
X218906Y47754D01*
X218889Y47976D01*
X218860Y48185D01*
X218821Y48380D01*
X218770Y48563D01*
X218707Y48733D01*
X218633Y48890D01*
X218548Y49034D01*
X218452Y49164D01*
X218344Y49282D01*
X221511D01*
X221403Y49164D01*
D02*
G37*
G36*
X201403D02*
X201307Y49034D01*
X201222Y48890D01*
X201148Y48733D01*
X201085Y48563D01*
X201034Y48380D01*
X200994Y48185D01*
X200966Y47976D01*
X200949Y47754D01*
X200944Y47519D01*
X198911D01*
X198906Y47754D01*
X198889Y47976D01*
X198860Y48185D01*
X198821Y48380D01*
X198770Y48563D01*
X198707Y48733D01*
X198633Y48890D01*
X198548Y49034D01*
X198452Y49164D01*
X198344Y49282D01*
X201511D01*
X201403Y49164D01*
D02*
G37*
G36*
X253977Y-8612D02*
X253818Y-8619D01*
X253657Y-8643D01*
X253495Y-8685D01*
X253332Y-8743D01*
X253168Y-8819D01*
X253003Y-8912D01*
X252836Y-9023D01*
X252669Y-9150D01*
X252500Y-9295D01*
X252330Y-9457D01*
X250893Y-8020D01*
X251055Y-7850D01*
X251200Y-7681D01*
X251327Y-7514D01*
X251438Y-7347D01*
X251531Y-7182D01*
X251607Y-7018D01*
X251665Y-6855D01*
X251707Y-6693D01*
X251731Y-6532D01*
X251738Y-6373D01*
X253977Y-8612D01*
D02*
G37*
G36*
X252500Y-16105D02*
X252669Y-16250D01*
X252836Y-16377D01*
X253003Y-16488D01*
X253168Y-16581D01*
X253332Y-16657D01*
X253495Y-16715D01*
X253657Y-16757D01*
X253818Y-16781D01*
X253977Y-16788D01*
X251738Y-19027D01*
X251731Y-18868D01*
X251707Y-18707D01*
X251665Y-18545D01*
X251607Y-18382D01*
X251531Y-18218D01*
X251438Y-18053D01*
X251327Y-17886D01*
X251200Y-17719D01*
X251055Y-17550D01*
X250893Y-17380D01*
X252330Y-15943D01*
X252500Y-16105D01*
D02*
G37*
G36*
X202136Y-10623D02*
X202039Y-10754D01*
X201954Y-10898D01*
X201880Y-11054D01*
X201818Y-11224D01*
X201767Y-11407D01*
X201727Y-11603D01*
X201699Y-11812D01*
X201682Y-12033D01*
X201676Y-12268D01*
X199644D01*
X199638Y-12033D01*
X199621Y-11812D01*
X199593Y-11603D01*
X199553Y-11407D01*
X199502Y-11224D01*
X199440Y-11054D01*
X199366Y-10898D01*
X199281Y-10754D01*
X199184Y-10623D01*
X199077Y-10505D01*
X202243D01*
X202136Y-10623D01*
D02*
G37*
G36*
X209756Y-18243D02*
X209659Y-18374D01*
X209574Y-18518D01*
X209500Y-18674D01*
X209438Y-18844D01*
X209387Y-19027D01*
X209347Y-19223D01*
X209319Y-19432D01*
X209302Y-19653D01*
X209296Y-19888D01*
X207264D01*
X207258Y-19653D01*
X207241Y-19432D01*
X207213Y-19223D01*
X207173Y-19027D01*
X207122Y-18844D01*
X207060Y-18674D01*
X206986Y-18518D01*
X206901Y-18374D01*
X206804Y-18243D01*
X206697Y-18125D01*
X209863D01*
X209756Y-18243D01*
D02*
G37*
G36*
X201682Y-50197D02*
X201699Y-50418D01*
X201727Y-50627D01*
X201767Y-50823D01*
X201818Y-51006D01*
X201880Y-51176D01*
X201954Y-51332D01*
X202039Y-51476D01*
X202136Y-51607D01*
X202243Y-51725D01*
X199077D01*
X199184Y-51607D01*
X199281Y-51476D01*
X199366Y-51332D01*
X199440Y-51176D01*
X199502Y-51006D01*
X199553Y-50823D01*
X199593Y-50627D01*
X199621Y-50418D01*
X199638Y-50197D01*
X199644Y-49962D01*
X201676D01*
X201682Y-50197D01*
D02*
G37*
G36*
X202136Y-55073D02*
X202039Y-55204D01*
X201954Y-55348D01*
X201880Y-55504D01*
X201818Y-55674D01*
X201767Y-55857D01*
X201727Y-56053D01*
X201699Y-56262D01*
X201682Y-56483D01*
X201676Y-56718D01*
X199644D01*
X199638Y-56483D01*
X199621Y-56262D01*
X199593Y-56053D01*
X199553Y-55857D01*
X199502Y-55674D01*
X199440Y-55504D01*
X199366Y-55348D01*
X199281Y-55204D01*
X199184Y-55073D01*
X199077Y-54955D01*
X202243D01*
X202136Y-55073D01*
D02*
G37*
G36*
X209302Y-57817D02*
X209319Y-58038D01*
X209347Y-58247D01*
X209387Y-58443D01*
X209438Y-58626D01*
X209500Y-58796D01*
X209574Y-58952D01*
X209659Y-59096D01*
X209756Y-59227D01*
X209863Y-59345D01*
X206697D01*
X206804Y-59227D01*
X206901Y-59096D01*
X206986Y-58952D01*
X207060Y-58796D01*
X207122Y-58626D01*
X207173Y-58443D01*
X207213Y-58247D01*
X207241Y-58038D01*
X207258Y-57817D01*
X207264Y-57582D01*
X209296D01*
X209302Y-57817D01*
D02*
G37*
G36*
X208257Y-63222D02*
X208098Y-63229D01*
X207937Y-63253D01*
X207775Y-63295D01*
X207612Y-63353D01*
X207448Y-63429D01*
X207283Y-63522D01*
X207116Y-63633D01*
X206949Y-63760D01*
X206780Y-63905D01*
X206610Y-64067D01*
X205173Y-62630D01*
X205335Y-62460D01*
X205480Y-62291D01*
X205607Y-62124D01*
X205718Y-61957D01*
X205811Y-61792D01*
X205887Y-61628D01*
X205945Y-61465D01*
X205987Y-61303D01*
X206011Y-61142D01*
X206018Y-60983D01*
X208257Y-63222D01*
D02*
G37*
G36*
X23427Y-74530D02*
X23265Y-74700D01*
X23120Y-74869D01*
X22993Y-75036D01*
X22882Y-75203D01*
X22789Y-75368D01*
X22713Y-75532D01*
X22655Y-75695D01*
X22613Y-75857D01*
X22589Y-76018D01*
X22582Y-76177D01*
X20343Y-73938D01*
X20502Y-73931D01*
X20663Y-73907D01*
X20825Y-73865D01*
X20988Y-73807D01*
X21152Y-73731D01*
X21317Y-73638D01*
X21484Y-73527D01*
X21651Y-73400D01*
X21820Y-73255D01*
X21990Y-73093D01*
X23427Y-74530D01*
D02*
G37*
G36*
X44913Y-74724D02*
X45044Y-74821D01*
X45188Y-74906D01*
X45344Y-74980D01*
X45514Y-75042D01*
X45697Y-75093D01*
X45893Y-75133D01*
X46102Y-75161D01*
X46323Y-75178D01*
X46558Y-75184D01*
Y-77216D01*
X46323Y-77222D01*
X46102Y-77239D01*
X45893Y-77267D01*
X45697Y-77307D01*
X45514Y-77358D01*
X45344Y-77420D01*
X45188Y-77494D01*
X45044Y-77579D01*
X44913Y-77676D01*
X44795Y-77783D01*
Y-74617D01*
X44913Y-74724D01*
D02*
G37*
G36*
X-149737Y44198D02*
X-149898Y44011D01*
X-150040Y43822D01*
X-150164Y43632D01*
X-150268Y43442D01*
X-150353Y43250D01*
X-150420Y43057D01*
X-150467Y42863D01*
X-150496Y42668D01*
X-150505Y42472D01*
X-151775D01*
X-151784Y42668D01*
X-151813Y42863D01*
X-151860Y43057D01*
X-151927Y43250D01*
X-152012Y43442D01*
X-152116Y43632D01*
X-152240Y43822D01*
X-152382Y44011D01*
X-152543Y44198D01*
X-152723Y44385D01*
X-149557D01*
X-149737Y44198D01*
D02*
G37*
G36*
X-150496Y31552D02*
X-150467Y31357D01*
X-150420Y31163D01*
X-150353Y30970D01*
X-150268Y30778D01*
X-150164Y30588D01*
X-150040Y30398D01*
X-149898Y30209D01*
X-149737Y30022D01*
X-149557Y29835D01*
X-152723D01*
X-152543Y30022D01*
X-152382Y30209D01*
X-152240Y30398D01*
X-152116Y30588D01*
X-152012Y30778D01*
X-151927Y30970D01*
X-151860Y31163D01*
X-151813Y31357D01*
X-151784Y31552D01*
X-151775Y31748D01*
X-150505D01*
X-150496Y31552D01*
D02*
G37*
G36*
X11418Y-68186D02*
X11248Y-68149D01*
X11080Y-68132D01*
X10916Y-68133D01*
X10754Y-68154D01*
X10596Y-68193D01*
X10440Y-68250D01*
X10287Y-68327D01*
X10137Y-68422D01*
X9990Y-68537D01*
X9846Y-68670D01*
X8948Y-67772D01*
X9102Y-67609D01*
X9239Y-67444D01*
X9359Y-67277D01*
X9463Y-67107D01*
X9550Y-66936D01*
X9621Y-66762D01*
X9675Y-66587D01*
X9713Y-66409D01*
X9734Y-66229D01*
X9739Y-66047D01*
X11418Y-68186D01*
D02*
G37*
G36*
X6266Y-66229D02*
X6287Y-66409D01*
X6325Y-66587D01*
X6379Y-66762D01*
X6449Y-66936D01*
X6537Y-67107D01*
X6641Y-67277D01*
X6761Y-67444D01*
X6898Y-67609D01*
X7052Y-67772D01*
X6154Y-68670D01*
X6010Y-68537D01*
X5863Y-68422D01*
X5713Y-68327D01*
X5560Y-68250D01*
X5404Y-68193D01*
X5246Y-68154D01*
X5084Y-68133D01*
X4920Y-68132D01*
X4753Y-68149D01*
X4582Y-68186D01*
X6262Y-66047D01*
X6266Y-66229D01*
D02*
G37*
D13*
X-199263Y59563D02*
X-117287D01*
X-199263Y57277D02*
X-117287D01*
Y59563D02*
X-113350Y63500D01*
X-117287Y57277D02*
X-113350Y53340D01*
X-109667Y59817D02*
X-99362D01*
X-84963Y69977D02*
X-81280Y73660D01*
X-109667Y57023D02*
X-98205D01*
X-113350Y53340D02*
X-109667Y57023D01*
X-88045Y67183D02*
X-84963D01*
X-98205Y57023D02*
X-88045Y67183D01*
X-113350Y63500D02*
X-109667Y59817D01*
X-99362D02*
X-89202Y69977D01*
X-84963D01*
X-203200Y63500D02*
X-199263Y59563D01*
X-25400Y-76200D02*
X3627D01*
X-24243Y-73406D02*
X2470D01*
X-136156Y38507D02*
X-134519Y36870D01*
Y36870D02*
X-24243Y-73406D01*
X-134519Y36870D02*
Y36870D01*
X-137313Y35713D02*
Y35713D01*
Y35713D02*
X-25400Y-76200D01*
X-150396Y38507D02*
X-136156D01*
X-150396Y35713D02*
X-137313D01*
X2470Y-73406D02*
X6603Y-69273D01*
X3627Y-76200D02*
X9397Y-70430D01*
X-248920Y74295D02*
X-245237Y70612D01*
X-230061D01*
X-219265Y59817D01*
X-206883D02*
X-203200Y63500D01*
X-219265Y59817D02*
X-206883D01*
X-84963Y67183D02*
X-81280Y63500D01*
X-248920Y64135D02*
X-245237Y67818D01*
X-231218D01*
X-203200Y53340D02*
X-199263Y57277D01*
X-220423Y57023D02*
X-206883D01*
X-231218Y67818D02*
X-220423Y57023D01*
X-206883D02*
X-203200Y53340D01*
X-151140Y39251D02*
Y46000D01*
Y34969D02*
X-150396Y35713D01*
X-151140Y28220D02*
Y34969D01*
Y39251D02*
X-150396Y38507D01*
X9397Y-68221D02*
X11618Y-66000D01*
X4382D02*
X6603Y-68221D01*
X9397Y-70430D02*
Y-68221D01*
X4000Y-66000D02*
X4382D01*
X6603Y-69273D02*
Y-68221D01*
X11618Y-66000D02*
X12000D01*
D27*
X110077Y29622D02*
Y50897D01*
Y29622D02*
X114300Y25400D01*
X189992D01*
X193040Y-76200D02*
X208280Y-60960D01*
X43180Y-76200D02*
X193040D01*
X20320D02*
X25400Y-71120D01*
X191008D02*
X200660Y-61468D01*
X25400Y-71120D02*
X191008D01*
X211273Y20636D02*
Y22407D01*
Y20636D02*
X244610Y-12700D01*
X247650D01*
X254000Y-19050D01*
X199928Y33753D02*
X211273Y22407D01*
X199928Y33753D02*
Y50897D01*
X245872Y-9652D02*
X250698D01*
X234696Y1524D02*
Y6604D01*
Y1524D02*
X245872Y-9652D01*
X250698D02*
X254000Y-6350D01*
X219928Y21372D02*
X234696Y6604D01*
X219928Y21372D02*
Y50897D01*
X135128Y29972D02*
X193548D01*
X130077Y35022D02*
X135128Y29972D01*
X130077Y35022D02*
Y50897D01*
X223520Y-46482D02*
Y0D01*
X193548Y29972D02*
X223520Y0D01*
X189992Y25400D02*
X218440Y-3048D01*
Y-47868D02*
Y-3048D01*
X223520Y-46482D02*
X231140Y-54102D01*
X218440Y-47868D02*
X229246Y-58674D01*
X231140Y-54102D02*
X250698D01*
X254000Y-50800D01*
X229246Y-58674D02*
X249174D01*
X254000Y-63500D01*
X200660Y-61468D02*
Y-53340D01*
X208280Y-60960D02*
Y-16510D01*
X200660Y-53340D02*
Y-8890D01*
D28*
X200025Y95250D02*
D03*
X110175D02*
D03*
X-130175D02*
D03*
X-220025D02*
D03*
D29*
X220025D02*
D03*
X130175D02*
D03*
X-110175D02*
D03*
X-200025D02*
D03*
D30*
X234950Y25400D02*
D03*
X260350D02*
D03*
Y-95250D02*
D03*
X234950D02*
D03*
D31*
X-330200Y-76200D02*
D03*
X330200D02*
D03*
X330200Y146050D02*
D03*
X-330200D02*
D03*
D32*
X323850Y114300D02*
D03*
X361950Y38100D02*
D03*
X323850Y-38100D02*
D03*
X247650Y114300D02*
D03*
X285750Y38100D02*
D03*
X247650Y-38100D02*
D03*
X171450Y114300D02*
D03*
X209550Y38100D02*
D03*
X171450Y-38100D02*
D03*
X95250Y114300D02*
D03*
X19050D02*
D03*
X57150Y38100D02*
D03*
X-57150Y114300D02*
D03*
X-19050Y38100D02*
D03*
X-133350Y114300D02*
D03*
X-209550D02*
D03*
Y-38100D02*
D03*
X-285750Y114300D02*
D03*
X-247650Y38100D02*
D03*
X-285750Y-38100D02*
D03*
X-361950Y114300D02*
D03*
X-323850Y38100D02*
D03*
X-361950Y-38100D02*
D03*
D33*
X-113350Y63500D02*
D03*
X-63500Y45720D02*
D03*
X-20000Y-63500D02*
D03*
X-12000D02*
D03*
X132000D02*
D03*
Y12700D02*
D03*
X-12000D02*
D03*
X-20000D02*
D03*
X-132000D02*
D03*
X-140000D02*
D03*
X-148000D02*
D03*
X-132000Y-63500D02*
D03*
X-148000D02*
D03*
X-140000D02*
D03*
X148000Y12700D02*
D03*
X140000D02*
D03*
X148000Y-63500D02*
D03*
X140000D02*
D03*
X-81280Y73660D02*
D03*
X-248920Y74295D02*
D03*
X-81280Y63500D02*
D03*
X-113350Y53340D02*
D03*
X-248920Y64135D02*
D03*
X-203200Y63500D02*
D03*
Y53340D02*
D03*
X-151140Y28220D02*
D03*
Y46000D02*
D03*
X12000Y-66000D02*
D03*
X4000D02*
D03*
X12000Y-25000D02*
D03*
X4000D02*
D03*
X-53340Y45720D02*
D03*
Y27940D02*
D03*
X-63500D02*
D03*
X-113350Y44450D02*
D03*
X-8380Y-88900D02*
D03*
X71880D02*
D03*
X292100Y-22098D02*
D03*
Y22352D02*
D03*
X199928Y50897D02*
D03*
X219928D02*
D03*
X110077D02*
D03*
X130077D02*
D03*
X254000Y-6350D02*
D03*
Y-19050D02*
D03*
Y-63500D02*
D03*
Y-50800D02*
D03*
X43180Y-76200D02*
D03*
X20320D02*
D03*
X208280Y-16510D02*
D03*
X200660Y-8890D02*
D03*
Y-53340D02*
D03*
X208280Y-60960D02*
D03*
X292100Y-50800D02*
D03*
Y-6350D02*
D03*
X-113350Y72390D02*
D03*
X-203200D02*
D03*
Y44450D02*
D03*
X236220Y50800D02*
D03*
X93980D02*
D03*
X146050D02*
D03*
X184150D02*
D03*
M02*
