G04*
G04 #@! TF.GenerationSoftware,Altium Limited,Altium Designer,24.2.2 (26)*
G04*
G04 Layer_Color=16711935*
%FSLAX44Y44*%
%MOMM*%
G71*
G04*
G04 #@! TF.SameCoordinates,AE1E6ACB-0CC1-432D-8EAE-CAE1C6468999*
G04*
G04*
G04 #@! TF.FilePolarity,Negative*
G04*
G01*
G75*
%ADD21R,0.6500X2.1500*%
%ADD22O,1.5470X2.0550*%
%ADD23R,1.5470X2.0550*%
%ADD24C,1.6740*%
%ADD25C,5.2300*%
%ADD26C,0.6072*%
%ADD34C,0.6556*%
D21*
X-156000Y-3400D02*
D03*
Y-47400D02*
D03*
X-148000Y-3400D02*
D03*
Y-47400D02*
D03*
X-140000Y-3400D02*
D03*
Y-47400D02*
D03*
X-132000Y-3400D02*
D03*
Y-47400D02*
D03*
X-124000Y-3400D02*
D03*
Y-47400D02*
D03*
X-116000Y-3400D02*
D03*
Y-47400D02*
D03*
X-108000Y-3400D02*
D03*
Y-47400D02*
D03*
X-100000Y-3400D02*
D03*
Y-47400D02*
D03*
X-92000Y-3400D02*
D03*
Y-47400D02*
D03*
X-84000Y-3400D02*
D03*
Y-47400D02*
D03*
X-76000Y-3400D02*
D03*
Y-47400D02*
D03*
X-68000Y-3400D02*
D03*
Y-47400D02*
D03*
X-60000Y-3400D02*
D03*
Y-47400D02*
D03*
X-52000Y-3400D02*
D03*
Y-47400D02*
D03*
X-44000Y-3400D02*
D03*
Y-47400D02*
D03*
X-36000Y-3400D02*
D03*
Y-47400D02*
D03*
X-28000Y-3400D02*
D03*
Y-47400D02*
D03*
X-20000Y-3400D02*
D03*
Y-47400D02*
D03*
X-12000Y-3400D02*
D03*
Y-47400D02*
D03*
X-4000Y-3400D02*
D03*
Y-47400D02*
D03*
X4000Y-3400D02*
D03*
Y-47400D02*
D03*
X12000Y-3400D02*
D03*
Y-47400D02*
D03*
X20000Y-3400D02*
D03*
Y-47400D02*
D03*
X28000Y-3400D02*
D03*
Y-47400D02*
D03*
X36000Y-3400D02*
D03*
Y-47400D02*
D03*
X44000Y-3400D02*
D03*
Y-47400D02*
D03*
X52000Y-3400D02*
D03*
Y-47400D02*
D03*
X60000Y-3400D02*
D03*
Y-47400D02*
D03*
X68000Y-3400D02*
D03*
Y-47400D02*
D03*
X76000Y-3400D02*
D03*
Y-47400D02*
D03*
X84000Y-3400D02*
D03*
Y-47400D02*
D03*
X92000Y-3400D02*
D03*
Y-47400D02*
D03*
X100000Y-3400D02*
D03*
Y-47400D02*
D03*
X108000Y-3400D02*
D03*
Y-47400D02*
D03*
X116000Y-3400D02*
D03*
Y-47400D02*
D03*
X124000Y-3400D02*
D03*
Y-47400D02*
D03*
X132000Y-3400D02*
D03*
Y-47400D02*
D03*
X140000Y-3400D02*
D03*
Y-47400D02*
D03*
X148000Y-3400D02*
D03*
Y-47400D02*
D03*
X156000Y-3400D02*
D03*
Y-47400D02*
D03*
D22*
X200025Y95250D02*
D03*
X110175D02*
D03*
X-130175D02*
D03*
X-220025D02*
D03*
D23*
X220025D02*
D03*
X130175D02*
D03*
X-110175D02*
D03*
X-200025D02*
D03*
D24*
X234950Y25400D02*
D03*
X260350D02*
D03*
Y-95250D02*
D03*
X234950D02*
D03*
D25*
X-330200Y-76200D02*
D03*
X330200D02*
D03*
X330200Y146050D02*
D03*
X-330200D02*
D03*
D26*
X323850Y114300D02*
D03*
X361950Y38100D02*
D03*
X323850Y-38100D02*
D03*
X247650Y114300D02*
D03*
X285750Y38100D02*
D03*
X247650Y-38100D02*
D03*
X171450Y114300D02*
D03*
X209550Y38100D02*
D03*
X171450Y-38100D02*
D03*
X95250Y114300D02*
D03*
X19050D02*
D03*
X57150Y38100D02*
D03*
X-57150Y114300D02*
D03*
X-19050Y38100D02*
D03*
X-133350Y114300D02*
D03*
X-209550D02*
D03*
Y-38100D02*
D03*
X-285750Y114300D02*
D03*
X-247650Y38100D02*
D03*
X-285750Y-38100D02*
D03*
X-361950Y114300D02*
D03*
X-323850Y38100D02*
D03*
X-361950Y-38100D02*
D03*
D34*
X-113350Y63500D02*
D03*
X-63500Y45720D02*
D03*
X-20000Y-63500D02*
D03*
X-12000D02*
D03*
X132000D02*
D03*
Y12700D02*
D03*
X-12000D02*
D03*
X-20000D02*
D03*
X-132000D02*
D03*
X-140000D02*
D03*
X-148000D02*
D03*
X-132000Y-63500D02*
D03*
X-148000D02*
D03*
X-140000D02*
D03*
X148000Y12700D02*
D03*
X140000D02*
D03*
X148000Y-63500D02*
D03*
X140000D02*
D03*
X-81280Y73660D02*
D03*
X-248920Y74295D02*
D03*
X-81280Y63500D02*
D03*
X-113350Y53340D02*
D03*
X-248920Y64135D02*
D03*
X-203200Y63500D02*
D03*
Y53340D02*
D03*
X-151140Y28220D02*
D03*
Y46000D02*
D03*
X12000Y-66000D02*
D03*
X4000D02*
D03*
X12000Y-25000D02*
D03*
X4000D02*
D03*
X-53340Y45720D02*
D03*
Y27940D02*
D03*
X-63500D02*
D03*
X-113350Y44450D02*
D03*
X-8380Y-88900D02*
D03*
X71880D02*
D03*
X292100Y-22098D02*
D03*
Y22352D02*
D03*
X199928Y50897D02*
D03*
X219928D02*
D03*
X110077D02*
D03*
X130077D02*
D03*
X254000Y-6350D02*
D03*
Y-19050D02*
D03*
Y-63500D02*
D03*
Y-50800D02*
D03*
X43180Y-76200D02*
D03*
X20320D02*
D03*
X208280Y-16510D02*
D03*
X200660Y-8890D02*
D03*
Y-53340D02*
D03*
X208280Y-60960D02*
D03*
X292100Y-50800D02*
D03*
Y-6350D02*
D03*
X-113350Y72390D02*
D03*
X-203200D02*
D03*
Y44450D02*
D03*
X236220Y50800D02*
D03*
X93980D02*
D03*
X146050D02*
D03*
X184150D02*
D03*
M02*
