G04*
G04 #@! TF.GenerationSoftware,Altium Limited,Altium Designer,24.2.2 (26)*
G04*
G04 Layer_Physical_Order=4*
G04 Layer_Color=16711680*
%FSLAX44Y44*%
%MOMM*%
G71*
G04*
G04 #@! TF.SameCoordinates,AE1E6ACB-0CC1-432D-8EAE-CAE1C6468999*
G04*
G04*
G04 #@! TF.FilePolarity,Positive*
G04*
G01*
G75*
%ADD10C,0.2540*%
%ADD13C,0.1270*%
%ADD17R,0.5000X2.0000*%
%ADD27C,0.2032*%
%ADD28O,1.3970X1.9050*%
%ADD29R,1.3970X1.9050*%
%ADD30C,1.5240*%
%ADD31C,5.0800*%
%ADD32C,0.4572*%
%ADD33C,0.4524*%
G36*
X347406Y181404D02*
X351739Y180090D01*
X355733Y177955D01*
X359233Y175083D01*
X362105Y171583D01*
X364240Y167589D01*
X365554Y163256D01*
X365989Y158848D01*
X365969Y158750D01*
Y-88900D01*
X365989Y-88997D01*
X365554Y-93406D01*
X364240Y-97739D01*
X362105Y-101733D01*
X359233Y-105233D01*
X355733Y-108105D01*
X351739Y-110240D01*
X347406Y-111554D01*
X342998Y-111989D01*
X342900Y-111969D01*
X-342900D01*
X-342998Y-111989D01*
X-347406Y-111554D01*
X-351739Y-110240D01*
X-355733Y-108105D01*
X-359233Y-105233D01*
X-362105Y-101733D01*
X-364240Y-97739D01*
X-365554Y-93406D01*
X-365989Y-88997D01*
X-365969Y-88900D01*
Y158750D01*
X-365989Y158848D01*
X-365554Y163256D01*
X-364240Y167589D01*
X-362105Y171583D01*
X-359233Y175083D01*
X-355733Y177955D01*
X-351739Y180090D01*
X-347406Y181404D01*
X-342998Y181839D01*
X-342900Y181819D01*
X342900D01*
X342998Y181839D01*
X347406Y181404D01*
D02*
G37*
%LPC*%
G36*
X332279Y172466D02*
X328121D01*
X324014Y171816D01*
X320060Y170531D01*
X316355Y168643D01*
X312991Y166199D01*
X310051Y163259D01*
X307607Y159895D01*
X305719Y156190D01*
X304435Y152236D01*
X303784Y148129D01*
Y143971D01*
X304435Y139864D01*
X305719Y135910D01*
X307607Y132205D01*
X310051Y128841D01*
X312991Y125901D01*
X316355Y123457D01*
X320060Y121569D01*
X324014Y120284D01*
X328121Y119634D01*
X332279D01*
X336386Y120284D01*
X340340Y121569D01*
X344045Y123457D01*
X347409Y125901D01*
X350349Y128841D01*
X352793Y132205D01*
X354681Y135910D01*
X355966Y139864D01*
X356616Y143971D01*
Y148129D01*
X355966Y152236D01*
X354681Y156190D01*
X352793Y159895D01*
X350349Y163259D01*
X347409Y166199D01*
X344045Y168643D01*
X340340Y170531D01*
X336386Y171816D01*
X332279Y172466D01*
D02*
G37*
G36*
X-328121D02*
X-332279D01*
X-336386Y171816D01*
X-340340Y170531D01*
X-344045Y168643D01*
X-347409Y166199D01*
X-350349Y163259D01*
X-352793Y159895D01*
X-354681Y156190D01*
X-355965Y152236D01*
X-356616Y148129D01*
Y143971D01*
X-355965Y139864D01*
X-354681Y135910D01*
X-352793Y132205D01*
X-350349Y128841D01*
X-347409Y125901D01*
X-344045Y123457D01*
X-340340Y121569D01*
X-336386Y120284D01*
X-332279Y119634D01*
X-328121D01*
X-324014Y120284D01*
X-320060Y121569D01*
X-316355Y123457D01*
X-312991Y125901D01*
X-310051Y128841D01*
X-307607Y132205D01*
X-305719Y135910D01*
X-304434Y139864D01*
X-303784Y143971D01*
Y148129D01*
X-304434Y152236D01*
X-305719Y156190D01*
X-307607Y159895D01*
X-310051Y163259D01*
X-312991Y166199D01*
X-316355Y168643D01*
X-320060Y170531D01*
X-324014Y171816D01*
X-328121Y172466D01*
D02*
G37*
G36*
X228026Y105791D02*
X212024D01*
Y84709D01*
X228026D01*
Y105791D01*
D02*
G37*
G36*
X138176D02*
X122174D01*
Y84709D01*
X138176D01*
Y105791D01*
D02*
G37*
G36*
X-102174D02*
X-118176D01*
Y84709D01*
X-102174D01*
Y105791D01*
D02*
G37*
G36*
X-192024D02*
X-208026D01*
Y84709D01*
X-192024D01*
Y105791D01*
D02*
G37*
G36*
X200025Y105860D02*
X197936Y105585D01*
X195990Y104779D01*
X194319Y103496D01*
X193036Y101825D01*
X192230Y99879D01*
X191955Y97790D01*
Y92710D01*
X192230Y90621D01*
X193036Y88675D01*
X194319Y87004D01*
X195990Y85721D01*
X197936Y84915D01*
X200025Y84640D01*
X202114Y84915D01*
X204060Y85721D01*
X205731Y87004D01*
X207014Y88675D01*
X207820Y90621D01*
X208095Y92710D01*
Y97790D01*
X207820Y99879D01*
X207014Y101825D01*
X205731Y103496D01*
X204060Y104779D01*
X202114Y105585D01*
X200025Y105860D01*
D02*
G37*
G36*
X110175D02*
X108086Y105585D01*
X106140Y104779D01*
X104469Y103496D01*
X103186Y101825D01*
X102380Y99879D01*
X102105Y97790D01*
Y92710D01*
X102380Y90621D01*
X103186Y88675D01*
X104469Y87004D01*
X106140Y85721D01*
X108086Y84915D01*
X110175Y84640D01*
X112264Y84915D01*
X114210Y85721D01*
X115881Y87004D01*
X117164Y88675D01*
X117970Y90621D01*
X118245Y92710D01*
Y97790D01*
X117970Y99879D01*
X117164Y101825D01*
X115881Y103496D01*
X114210Y104779D01*
X112264Y105585D01*
X110175Y105860D01*
D02*
G37*
G36*
X-130175D02*
X-132264Y105585D01*
X-134210Y104779D01*
X-135881Y103496D01*
X-137164Y101825D01*
X-137970Y99879D01*
X-138245Y97790D01*
Y92710D01*
X-137970Y90621D01*
X-137164Y88675D01*
X-135881Y87004D01*
X-134210Y85721D01*
X-132264Y84915D01*
X-130175Y84640D01*
X-128086Y84915D01*
X-126140Y85721D01*
X-124469Y87004D01*
X-123186Y88675D01*
X-122380Y90621D01*
X-122105Y92710D01*
Y97790D01*
X-122380Y99879D01*
X-123186Y101825D01*
X-124469Y103496D01*
X-126140Y104779D01*
X-128086Y105585D01*
X-130175Y105860D01*
D02*
G37*
G36*
X-220025D02*
X-222114Y105585D01*
X-224060Y104779D01*
X-225731Y103496D01*
X-227014Y101825D01*
X-227820Y99879D01*
X-228095Y97790D01*
Y92710D01*
X-227820Y90621D01*
X-227014Y88675D01*
X-225731Y87004D01*
X-224060Y85721D01*
X-222114Y84915D01*
X-220025Y84640D01*
X-217936Y84915D01*
X-215990Y85721D01*
X-214319Y87004D01*
X-213036Y88675D01*
X-212230Y90621D01*
X-211955Y92710D01*
Y97790D01*
X-212230Y99879D01*
X-213036Y101825D01*
X-214319Y103496D01*
X-215990Y104779D01*
X-217936Y105585D01*
X-220025Y105860D01*
D02*
G37*
G36*
X-248124Y78295D02*
X-249716D01*
X-251186Y77686D01*
X-252311Y76561D01*
X-252920Y75091D01*
Y73499D01*
X-252311Y72029D01*
X-251186Y70904D01*
X-249716Y70295D01*
X-248124D01*
X-246654Y70904D01*
X-245529Y72029D01*
X-244920Y73499D01*
Y75091D01*
X-245529Y76561D01*
X-246654Y77686D01*
X-248124Y78295D01*
D02*
G37*
G36*
X-80484Y77660D02*
X-82076D01*
X-83546Y77051D01*
X-84671Y75926D01*
X-85280Y74456D01*
Y72864D01*
X-84671Y71394D01*
X-83546Y70269D01*
X-82076Y69660D01*
X-80484D01*
X-79014Y70269D01*
X-77889Y71394D01*
X-77280Y72864D01*
Y74456D01*
X-77889Y75926D01*
X-79014Y77051D01*
X-80484Y77660D01*
D02*
G37*
G36*
X-248124Y68135D02*
X-249716D01*
X-251186Y67526D01*
X-252311Y66401D01*
X-252920Y64931D01*
Y63339D01*
X-252311Y61869D01*
X-251186Y60744D01*
X-249716Y60135D01*
X-248124D01*
X-246654Y60744D01*
X-245529Y61869D01*
X-244920Y63339D01*
Y64931D01*
X-245529Y66401D01*
X-246654Y67526D01*
X-248124Y68135D01*
D02*
G37*
G36*
X-80484Y67500D02*
X-82076D01*
X-83546Y66891D01*
X-84671Y65766D01*
X-85280Y64296D01*
Y62704D01*
X-84671Y61234D01*
X-83546Y60109D01*
X-82076Y59500D01*
X-80484D01*
X-79014Y60109D01*
X-77889Y61234D01*
X-77280Y62704D01*
Y64296D01*
X-77889Y65766D01*
X-79014Y66891D01*
X-80484Y67500D01*
D02*
G37*
G36*
X-112554D02*
X-114146D01*
X-115616Y66891D01*
X-116741Y65766D01*
X-117350Y64296D01*
Y62704D01*
X-116741Y61234D01*
X-115616Y60109D01*
X-114146Y59500D01*
X-112554D01*
X-111084Y60109D01*
X-109959Y61234D01*
X-109350Y62704D01*
Y64296D01*
X-109959Y65766D01*
X-111084Y66891D01*
X-112554Y67500D01*
D02*
G37*
G36*
X-202404D02*
X-203996D01*
X-205466Y66891D01*
X-206591Y65766D01*
X-207200Y64296D01*
Y62704D01*
X-206591Y61234D01*
X-205466Y60109D01*
X-203996Y59500D01*
X-202404D01*
X-200934Y60109D01*
X-199809Y61234D01*
X-199200Y62704D01*
Y64296D01*
X-199809Y65766D01*
X-200934Y66891D01*
X-202404Y67500D01*
D02*
G37*
G36*
X-112554Y57340D02*
X-114146D01*
X-115616Y56731D01*
X-116741Y55606D01*
X-117350Y54136D01*
Y52544D01*
X-116741Y51074D01*
X-115616Y49949D01*
X-114146Y49340D01*
X-112554D01*
X-111084Y49949D01*
X-109959Y51074D01*
X-109350Y52544D01*
Y54136D01*
X-109959Y55606D01*
X-111084Y56731D01*
X-112554Y57340D01*
D02*
G37*
G36*
X-202404D02*
X-203996D01*
X-205466Y56731D01*
X-206591Y55606D01*
X-207200Y54136D01*
Y52544D01*
X-206591Y51074D01*
X-205466Y49949D01*
X-203996Y49340D01*
X-202404D01*
X-200934Y49949D01*
X-199809Y51074D01*
X-199200Y52544D01*
Y54136D01*
X-199809Y55606D01*
X-200934Y56731D01*
X-202404Y57340D01*
D02*
G37*
G36*
X220723Y54897D02*
X219132D01*
X217662Y54289D01*
X216537Y53163D01*
X215928Y51693D01*
Y50102D01*
X216537Y48632D01*
X217662Y47506D01*
X219132Y46898D01*
X220723D01*
X222193Y47506D01*
X223319Y48632D01*
X223927Y50102D01*
Y51693D01*
X223319Y53163D01*
X222193Y54289D01*
X220723Y54897D01*
D02*
G37*
G36*
X200723D02*
X199132D01*
X197662Y54289D01*
X196537Y53163D01*
X195928Y51693D01*
Y50102D01*
X196537Y48632D01*
X197662Y47506D01*
X199132Y46898D01*
X200723D01*
X202193Y47506D01*
X203319Y48632D01*
X203927Y50102D01*
Y51693D01*
X203319Y53163D01*
X202193Y54289D01*
X200723Y54897D01*
D02*
G37*
G36*
X130873D02*
X129282D01*
X127812Y54289D01*
X126686Y53163D01*
X126077Y51693D01*
Y50102D01*
X126686Y48632D01*
X127812Y47506D01*
X129282Y46898D01*
X130873D01*
X132343Y47506D01*
X133469Y48632D01*
X134078Y50102D01*
Y51693D01*
X133469Y53163D01*
X132343Y54289D01*
X130873Y54897D01*
D02*
G37*
G36*
X110873D02*
X109282D01*
X107812Y54289D01*
X106686Y53163D01*
X106077Y51693D01*
Y50102D01*
X106686Y48632D01*
X107812Y47506D01*
X109282Y46898D01*
X110873D01*
X112343Y47506D01*
X113469Y48632D01*
X114078Y50102D01*
Y51693D01*
X113469Y53163D01*
X112343Y54289D01*
X110873Y54897D01*
D02*
G37*
G36*
X237016Y54800D02*
X235424D01*
X233954Y54191D01*
X232829Y53066D01*
X232220Y51596D01*
Y50004D01*
X232829Y48534D01*
X233954Y47409D01*
X235424Y46800D01*
X237016D01*
X238486Y47409D01*
X239611Y48534D01*
X240220Y50004D01*
Y51596D01*
X239611Y53066D01*
X238486Y54191D01*
X237016Y54800D01*
D02*
G37*
G36*
X184946D02*
X183354D01*
X181884Y54191D01*
X180759Y53066D01*
X180150Y51596D01*
Y50004D01*
X180759Y48534D01*
X181884Y47409D01*
X183354Y46800D01*
X184946D01*
X186416Y47409D01*
X187541Y48534D01*
X188150Y50004D01*
Y51596D01*
X187541Y53066D01*
X186416Y54191D01*
X184946Y54800D01*
D02*
G37*
G36*
X146846D02*
X145254D01*
X143784Y54191D01*
X142659Y53066D01*
X142050Y51596D01*
Y50004D01*
X142659Y48534D01*
X143784Y47409D01*
X145254Y46800D01*
X146846D01*
X148316Y47409D01*
X149441Y48534D01*
X150050Y50004D01*
Y51596D01*
X149441Y53066D01*
X148316Y54191D01*
X146846Y54800D01*
D02*
G37*
G36*
X94776D02*
X93184D01*
X91714Y54191D01*
X90589Y53066D01*
X89980Y51596D01*
Y50004D01*
X90589Y48534D01*
X91714Y47409D01*
X93184Y46800D01*
X94776D01*
X96246Y47409D01*
X97371Y48534D01*
X97980Y50004D01*
Y51596D01*
X97371Y53066D01*
X96246Y54191D01*
X94776Y54800D01*
D02*
G37*
G36*
X-150344Y50000D02*
X-151936D01*
X-153406Y49391D01*
X-154531Y48266D01*
X-155140Y46796D01*
Y45204D01*
X-154531Y43734D01*
X-153406Y42609D01*
X-151936Y42000D01*
X-150344D01*
X-148874Y42609D01*
X-147749Y43734D01*
X-147140Y45204D01*
Y46796D01*
X-147749Y48266D01*
X-148874Y49391D01*
X-150344Y50000D01*
D02*
G37*
G36*
X-62704Y49720D02*
X-64296D01*
X-65766Y49111D01*
X-66891Y47986D01*
X-67500Y46516D01*
Y44924D01*
X-66891Y43454D01*
X-65766Y42329D01*
X-64296Y41720D01*
X-62704D01*
X-61234Y42329D01*
X-60109Y43454D01*
X-59500Y44924D01*
Y46516D01*
X-60109Y47986D01*
X-61234Y49111D01*
X-62704Y49720D01*
D02*
G37*
G36*
X236087Y34036D02*
X235458D01*
Y25908D01*
X243586D01*
Y26537D01*
X242997Y28733D01*
X241861Y30703D01*
X240253Y32311D01*
X238283Y33447D01*
X236087Y34036D01*
D02*
G37*
G36*
X234442D02*
X233813D01*
X231617Y33447D01*
X229647Y32311D01*
X228039Y30703D01*
X226903Y28733D01*
X226314Y26537D01*
Y25908D01*
X234442D01*
Y34036D01*
D02*
G37*
G36*
X-150344Y32220D02*
X-151936D01*
X-153406Y31611D01*
X-154531Y30486D01*
X-155140Y29016D01*
Y27424D01*
X-154531Y25954D01*
X-153406Y24829D01*
X-151936Y24220D01*
X-150344D01*
X-148874Y24829D01*
X-147749Y25954D01*
X-147140Y27424D01*
Y29016D01*
X-147749Y30486D01*
X-148874Y31611D01*
X-150344Y32220D01*
D02*
G37*
G36*
X-62704Y31940D02*
X-64296D01*
X-65766Y31331D01*
X-66891Y30206D01*
X-67500Y28736D01*
Y27144D01*
X-66891Y25674D01*
X-65766Y24549D01*
X-64296Y23940D01*
X-62704D01*
X-61234Y24549D01*
X-60109Y25674D01*
X-59500Y27144D01*
Y28736D01*
X-60109Y30206D01*
X-61234Y31331D01*
X-62704Y31940D01*
D02*
G37*
G36*
X292896Y26352D02*
X291304D01*
X289834Y25743D01*
X288709Y24618D01*
X288100Y23148D01*
Y21556D01*
X288709Y20086D01*
X289834Y18961D01*
X291304Y18352D01*
X292896D01*
X294366Y18961D01*
X295491Y20086D01*
X296100Y21556D01*
Y23148D01*
X295491Y24618D01*
X294366Y25743D01*
X292896Y26352D01*
D02*
G37*
G36*
X261487Y34036D02*
X259213D01*
X257017Y33447D01*
X255047Y32311D01*
X253440Y30703D01*
X252302Y28733D01*
X251714Y26537D01*
Y24263D01*
X252302Y22067D01*
X253440Y20097D01*
X255047Y18490D01*
X257017Y17352D01*
X259213Y16764D01*
X261487D01*
X263683Y17352D01*
X265653Y18490D01*
X267260Y20097D01*
X268398Y22067D01*
X268986Y24263D01*
Y26537D01*
X268398Y28733D01*
X267260Y30703D01*
X265653Y32311D01*
X263683Y33447D01*
X261487Y34036D01*
D02*
G37*
G36*
X243586Y24892D02*
X235458D01*
Y16764D01*
X236087D01*
X238283Y17352D01*
X240253Y18490D01*
X241861Y20097D01*
X242997Y22067D01*
X243586Y24263D01*
Y24892D01*
D02*
G37*
G36*
X234442D02*
X226314D01*
Y24263D01*
X226903Y22067D01*
X228039Y20097D01*
X229647Y18490D01*
X231617Y17352D01*
X233813Y16764D01*
X234442D01*
Y24892D01*
D02*
G37*
G36*
X148796Y16700D02*
X147204D01*
X145734Y16091D01*
X144720Y15077D01*
X144000Y15017D01*
X143280Y15077D01*
X142266Y16091D01*
X140796Y16700D01*
X139204D01*
X137734Y16091D01*
X136720Y15077D01*
X136000Y15017D01*
X135280Y15077D01*
X134266Y16091D01*
X132796Y16700D01*
X131204D01*
X129734Y16091D01*
X128609Y14966D01*
X128000Y13496D01*
Y11904D01*
X128609Y10434D01*
X129734Y9309D01*
X129447Y8053D01*
X129087Y7616D01*
X128484Y7616D01*
X127214Y7616D01*
X124508D01*
Y-3400D01*
Y-14416D01*
X127214D01*
X127516Y-14416D01*
X128786Y-14416D01*
X135214D01*
X135516Y-14416D01*
X136484D01*
X136786Y-14416D01*
X143214D01*
X143516Y-14416D01*
X144484D01*
X144786Y-14416D01*
X151214D01*
X151516Y-14416D01*
X152484D01*
X152786Y-14416D01*
X155492D01*
Y-3400D01*
Y7616D01*
X152786D01*
X152484Y7616D01*
X151516D01*
X151214Y7616D01*
X150913D01*
X150553Y8053D01*
X150266Y9309D01*
X151391Y10434D01*
X152000Y11904D01*
Y13496D01*
X151391Y14966D01*
X150266Y16091D01*
X148796Y16700D01*
D02*
G37*
G36*
X-11204D02*
X-12796D01*
X-14266Y16091D01*
X-15280Y15077D01*
X-16000Y15017D01*
X-16720Y15077D01*
X-17734Y16091D01*
X-19204Y16700D01*
X-20796D01*
X-22266Y16091D01*
X-23391Y14966D01*
X-24000Y13496D01*
Y11904D01*
X-23391Y10434D01*
X-22266Y9309D01*
X-22553Y8053D01*
X-22913Y7616D01*
X-24484Y7616D01*
X-24786Y7616D01*
X-27492D01*
Y-3400D01*
Y-14416D01*
X-24786D01*
X-24484Y-14416D01*
X-23516D01*
X-23214Y-14416D01*
X-16786D01*
X-16484Y-14416D01*
X-15516D01*
X-15214Y-14416D01*
X-8786D01*
X-8484Y-14416D01*
X-7516D01*
X-7214Y-14416D01*
X-4508D01*
Y-3400D01*
Y7616D01*
X-7214D01*
X-7516Y7616D01*
X-8484D01*
X-8786Y7616D01*
X-9087D01*
X-9447Y8053D01*
X-9734Y9309D01*
X-8609Y10434D01*
X-8000Y11904D01*
Y13496D01*
X-8609Y14966D01*
X-9734Y16091D01*
X-11204Y16700D01*
D02*
G37*
G36*
X-131204D02*
X-132796D01*
X-134266Y16091D01*
X-135280Y15077D01*
X-136000Y15017D01*
X-136720Y15077D01*
X-137734Y16091D01*
X-139204Y16700D01*
X-140796D01*
X-142266Y16091D01*
X-143280Y15077D01*
X-144000Y15017D01*
X-144720Y15077D01*
X-145734Y16091D01*
X-147204Y16700D01*
X-148796D01*
X-150266Y16091D01*
X-151391Y14966D01*
X-152000Y13496D01*
Y11904D01*
X-151391Y10434D01*
X-150266Y9309D01*
X-150553Y8053D01*
X-150913Y7616D01*
X-152484Y7616D01*
X-152786Y7616D01*
X-155492D01*
Y-3400D01*
Y-14416D01*
X-152786D01*
X-152484Y-14416D01*
X-151516D01*
X-151214Y-14416D01*
X-144786D01*
X-144484Y-14416D01*
X-143516D01*
X-143214Y-14416D01*
X-136786D01*
X-136484Y-14416D01*
X-135516D01*
X-135214Y-14416D01*
X-128786D01*
X-127516Y-14416D01*
X-127214Y-14416D01*
X-124508D01*
Y-3400D01*
Y7616D01*
X-127214D01*
X-128484Y7616D01*
X-128786Y7616D01*
X-129087D01*
X-129447Y8053D01*
X-129734Y9309D01*
X-128609Y10434D01*
X-128000Y11904D01*
Y13496D01*
X-128609Y14966D01*
X-129734Y16091D01*
X-131204Y16700D01*
D02*
G37*
G36*
X111516Y7616D02*
X111214Y7616D01*
X108508D01*
Y-3400D01*
Y-14416D01*
X111214D01*
X112484Y-14416D01*
X112786Y-14416D01*
X119214D01*
X119516Y-14416D01*
X120484D01*
X120786Y-14416D01*
X123492D01*
Y-3400D01*
Y7616D01*
X120786D01*
X120484Y7616D01*
X119516D01*
X119214Y7616D01*
X112786D01*
X111516Y7616D01*
D02*
G37*
G36*
X104484D02*
X103516D01*
X103214Y7616D01*
X96786D01*
X96484Y7616D01*
X95516D01*
X95214Y7616D01*
X92508D01*
Y-3400D01*
Y-14416D01*
X95214D01*
X95516Y-14416D01*
X96484D01*
X96786Y-14416D01*
X103214D01*
X103516Y-14416D01*
X104484D01*
X104786Y-14416D01*
X107492D01*
Y-3400D01*
Y7616D01*
X104786D01*
X104484Y7616D01*
D02*
G37*
G36*
X88484D02*
X87516D01*
X87214Y7616D01*
X80786D01*
X80484Y7616D01*
X79214Y7616D01*
X72786D01*
X72484Y7616D01*
X71516D01*
X71214Y7616D01*
X68508D01*
Y-3400D01*
Y-14416D01*
X71214D01*
X71516Y-14416D01*
X72484D01*
X72786Y-14416D01*
X79214D01*
X79516Y-14416D01*
X80786Y-14416D01*
X87214D01*
X87516Y-14416D01*
X88484D01*
X88786Y-14416D01*
X91492D01*
Y-3400D01*
Y7616D01*
X88786D01*
X88484Y7616D01*
D02*
G37*
G36*
X63516D02*
X63214Y7616D01*
X56786D01*
X56484Y7616D01*
X55516D01*
X55214Y7616D01*
X48786D01*
X48484Y7616D01*
X47516D01*
X47214Y7616D01*
X44508D01*
Y-3400D01*
Y-14416D01*
X47214D01*
X47516Y-14416D01*
X48484D01*
X48786Y-14416D01*
X55214D01*
X55516Y-14416D01*
X56484D01*
X56786Y-14416D01*
X63214D01*
X64484Y-14416D01*
X64786Y-14416D01*
X67492D01*
Y-3400D01*
Y7616D01*
X64786D01*
X63516Y7616D01*
D02*
G37*
G36*
X40484D02*
X39516D01*
X39214Y7616D01*
X32786D01*
X32484Y7616D01*
X31516D01*
X31214Y7616D01*
X24786D01*
X24484Y7616D01*
X23516D01*
X23214Y7616D01*
X20508D01*
Y-3400D01*
Y-14416D01*
X23214D01*
X23516Y-14416D01*
X24484D01*
X24786Y-14416D01*
X31214D01*
X31516Y-14416D01*
X32484D01*
X32786Y-14416D01*
X39214D01*
X39516Y-14416D01*
X40484D01*
X40786Y-14416D01*
X43492D01*
Y-3400D01*
Y7616D01*
X40786D01*
X40484Y7616D01*
D02*
G37*
G36*
X16484D02*
X15516D01*
X15214Y7616D01*
X8786D01*
X8484Y7616D01*
X7516D01*
X7214Y7616D01*
X786D01*
X484Y7616D01*
X-484D01*
X-786Y7616D01*
X-3492D01*
Y-3400D01*
Y-14416D01*
X-786D01*
X-484Y-14416D01*
X484D01*
X786Y-14416D01*
X7214D01*
X7516Y-14416D01*
X8484D01*
X8786Y-14416D01*
X15214D01*
X15516Y-14416D01*
X16484D01*
X16786Y-14416D01*
X19492D01*
Y-3400D01*
Y7616D01*
X16786D01*
X16484Y7616D01*
D02*
G37*
G36*
X-31516D02*
X-32484D01*
X-32786Y7616D01*
X-39214D01*
X-39516Y7616D01*
X-40484D01*
X-40786Y7616D01*
X-47214D01*
X-47516Y7616D01*
X-48484D01*
X-48786Y7616D01*
X-51492D01*
Y-3400D01*
Y-14416D01*
X-48786D01*
X-48484Y-14416D01*
X-47516D01*
X-47214Y-14416D01*
X-40786D01*
X-40484Y-14416D01*
X-39516D01*
X-39214Y-14416D01*
X-32786D01*
X-32484Y-14416D01*
X-31516D01*
X-31214Y-14416D01*
X-28508D01*
Y-3400D01*
Y7616D01*
X-31214D01*
X-31516Y7616D01*
D02*
G37*
G36*
X-55516D02*
X-56484D01*
X-56786Y7616D01*
X-63214D01*
X-63516Y7616D01*
X-64786Y7616D01*
X-71214D01*
X-71516Y7616D01*
X-72484D01*
X-72786Y7616D01*
X-75492D01*
Y-3400D01*
Y-14416D01*
X-72786D01*
X-72484Y-14416D01*
X-71516D01*
X-71214Y-14416D01*
X-64786D01*
X-64484Y-14416D01*
X-63214Y-14416D01*
X-56786D01*
X-56484Y-14416D01*
X-55516D01*
X-55214Y-14416D01*
X-52508D01*
Y-3400D01*
Y7616D01*
X-55214D01*
X-55516Y7616D01*
D02*
G37*
G36*
X-80484D02*
X-80786Y7616D01*
X-87214D01*
X-87516Y7616D01*
X-88484D01*
X-88786Y7616D01*
X-95214D01*
X-95516Y7616D01*
X-96484D01*
X-96786Y7616D01*
X-99492D01*
Y-3400D01*
Y-14416D01*
X-96786D01*
X-96484Y-14416D01*
X-95516D01*
X-95214Y-14416D01*
X-88786D01*
X-88484Y-14416D01*
X-87516D01*
X-87214Y-14416D01*
X-80786D01*
X-79516Y-14416D01*
X-79214Y-14416D01*
X-76508D01*
Y-3400D01*
Y7616D01*
X-79214D01*
X-80484Y7616D01*
D02*
G37*
G36*
X-103516D02*
X-104484D01*
X-104786Y7616D01*
X-111214D01*
X-111516Y7616D01*
X-112786Y7616D01*
X-119214D01*
X-119516Y7616D01*
X-120484D01*
X-120786Y7616D01*
X-123492D01*
Y-3400D01*
Y-14416D01*
X-120786D01*
X-120484Y-14416D01*
X-119516D01*
X-119214Y-14416D01*
X-112786D01*
X-112484Y-14416D01*
X-111214Y-14416D01*
X-104786D01*
X-104484Y-14416D01*
X-103516D01*
X-103214Y-14416D01*
X-100508D01*
Y-3400D01*
Y7616D01*
X-103214D01*
X-103516Y7616D01*
D02*
G37*
G36*
X156508Y7616D02*
Y-2892D01*
X159516D01*
Y7616D01*
X156508D01*
D02*
G37*
G36*
X-156508D02*
X-159516D01*
Y-2892D01*
X-156508D01*
Y7616D01*
D02*
G37*
G36*
X292896Y-2350D02*
X291304D01*
X289834Y-2959D01*
X288709Y-4084D01*
X288100Y-5554D01*
Y-7146D01*
X288709Y-8616D01*
X289834Y-9741D01*
X291304Y-10350D01*
X292896D01*
X294366Y-9741D01*
X295491Y-8616D01*
X296100Y-7146D01*
Y-5554D01*
X295491Y-4084D01*
X294366Y-2959D01*
X292896Y-2350D01*
D02*
G37*
G36*
X254796D02*
X253204D01*
X251734Y-2959D01*
X250609Y-4084D01*
X250000Y-5554D01*
Y-7146D01*
X250609Y-8616D01*
X251734Y-9741D01*
X253204Y-10350D01*
X254796D01*
X256266Y-9741D01*
X257391Y-8616D01*
X258000Y-7146D01*
Y-5554D01*
X257391Y-4084D01*
X256266Y-2959D01*
X254796Y-2350D01*
D02*
G37*
G36*
X201456Y-4890D02*
X199864D01*
X198394Y-5499D01*
X197269Y-6624D01*
X196660Y-8094D01*
Y-9686D01*
X197269Y-11156D01*
X198394Y-12281D01*
X199864Y-12890D01*
X201456D01*
X202926Y-12281D01*
X204051Y-11156D01*
X204660Y-9686D01*
Y-8094D01*
X204051Y-6624D01*
X202926Y-5499D01*
X201456Y-4890D01*
D02*
G37*
G36*
X159516Y-3908D02*
X156508D01*
Y-14416D01*
X159516D01*
Y-3908D01*
D02*
G37*
G36*
X-156508D02*
X-159516D01*
Y-14416D01*
X-156508D01*
Y-3908D01*
D02*
G37*
G36*
X209076Y-12510D02*
X207484D01*
X206014Y-13119D01*
X204889Y-14244D01*
X204280Y-15714D01*
Y-17306D01*
X204889Y-18776D01*
X206014Y-19901D01*
X207484Y-20510D01*
X209076D01*
X210546Y-19901D01*
X211671Y-18776D01*
X212280Y-17306D01*
Y-15714D01*
X211671Y-14244D01*
X210546Y-13119D01*
X209076Y-12510D01*
D02*
G37*
G36*
X12796Y-21000D02*
X11204D01*
X9734Y-21609D01*
X8720Y-22623D01*
X8000Y-22683D01*
X7280Y-22623D01*
X6266Y-21609D01*
X4796Y-21000D01*
X3204D01*
X1734Y-21609D01*
X609Y-22734D01*
X0Y-24204D01*
Y-25796D01*
X609Y-27266D01*
X1734Y-28391D01*
X2284Y-28619D01*
X2317Y-28688D01*
Y-35139D01*
X1198Y-36384D01*
X-484Y-36384D01*
X-786Y-36384D01*
X-3492D01*
Y-47400D01*
Y-58416D01*
X-786D01*
X-484Y-58416D01*
X484D01*
X786Y-58416D01*
X7214D01*
X7516Y-58416D01*
X8484D01*
X8786Y-58416D01*
X15214D01*
X15516Y-58416D01*
X16484D01*
X16786Y-58416D01*
X19492D01*
Y-47400D01*
Y-36384D01*
X16786D01*
X16484Y-36384D01*
X15516D01*
X15214Y-36384D01*
X13743D01*
X13740Y-36346D01*
X13734Y-36132D01*
X13683Y-36017D01*
Y-28688D01*
X13716Y-28619D01*
X14266Y-28391D01*
X15391Y-27266D01*
X16000Y-25796D01*
Y-24204D01*
X15391Y-22734D01*
X14266Y-21609D01*
X12796Y-21000D01*
D02*
G37*
G36*
X254796Y-15050D02*
X253204D01*
X251734Y-15659D01*
X250609Y-16784D01*
X250000Y-18254D01*
Y-19846D01*
X250609Y-21316D01*
X251734Y-22441D01*
X253204Y-23050D01*
X254796D01*
X256266Y-22441D01*
X257391Y-21316D01*
X258000Y-19846D01*
Y-18254D01*
X257391Y-16784D01*
X256266Y-15659D01*
X254796Y-15050D01*
D02*
G37*
G36*
X292896Y-18098D02*
X291304D01*
X289834Y-18707D01*
X288709Y-19832D01*
X288100Y-21302D01*
Y-22894D01*
X288709Y-24364D01*
X289834Y-25489D01*
X291304Y-26098D01*
X292896D01*
X294366Y-25489D01*
X295491Y-24364D01*
X296100Y-22894D01*
Y-21302D01*
X295491Y-19832D01*
X294366Y-18707D01*
X292896Y-18098D01*
D02*
G37*
G36*
X127516Y-36384D02*
X127214Y-36384D01*
X124508D01*
Y-47400D01*
Y-58416D01*
X127214D01*
X128484Y-58416D01*
X129087Y-58416D01*
X129446Y-58854D01*
X129734Y-60109D01*
X128609Y-61234D01*
X128000Y-62704D01*
Y-64296D01*
X128609Y-65766D01*
X129734Y-66891D01*
X131204Y-67500D01*
X132796D01*
X134266Y-66891D01*
X135280Y-65877D01*
X136000Y-65817D01*
X136720Y-65877D01*
X137734Y-66891D01*
X139204Y-67500D01*
X140796D01*
X142266Y-66891D01*
X143280Y-65877D01*
X144000Y-65817D01*
X144720Y-65877D01*
X145734Y-66891D01*
X147204Y-67500D01*
X148796D01*
X150266Y-66891D01*
X151391Y-65766D01*
X152000Y-64296D01*
Y-62704D01*
X151391Y-61234D01*
X150266Y-60109D01*
X150554Y-58854D01*
X150913Y-58416D01*
X152484Y-58416D01*
X152786Y-58416D01*
X155492D01*
Y-47400D01*
Y-36384D01*
X152786D01*
X152484Y-36384D01*
X151516D01*
X151214Y-36384D01*
X144786D01*
X144484Y-36384D01*
X143516D01*
X143214Y-36384D01*
X136786D01*
X136484Y-36384D01*
X135516D01*
X135214Y-36384D01*
X128786D01*
X127516Y-36384D01*
D02*
G37*
G36*
X120484D02*
X119516D01*
X119214Y-36384D01*
X112786D01*
X112484Y-36384D01*
X111214Y-36384D01*
X108508D01*
Y-47400D01*
Y-58416D01*
X111214D01*
X111516Y-58416D01*
X112786Y-58416D01*
X119214D01*
X119516Y-58416D01*
X120484D01*
X120786Y-58416D01*
X123492D01*
Y-47400D01*
Y-36384D01*
X120786D01*
X120484Y-36384D01*
D02*
G37*
G36*
X79516D02*
X79214Y-36384D01*
X72786D01*
X72484Y-36384D01*
X71516D01*
X71214Y-36384D01*
X68508D01*
Y-47400D01*
Y-58416D01*
X71214D01*
X71516Y-58416D01*
X72484D01*
X72786Y-58416D01*
X79214D01*
X80484Y-58416D01*
X80786Y-58416D01*
X87214D01*
X87516Y-58416D01*
X88484D01*
X88786Y-58416D01*
X91492D01*
Y-47400D01*
Y-36384D01*
X88786D01*
X88484Y-36384D01*
X87516D01*
X87214Y-36384D01*
X80786D01*
X79516Y-36384D01*
D02*
G37*
G36*
X-64484D02*
X-64786Y-36384D01*
X-71214D01*
X-71516Y-36384D01*
X-72484D01*
X-72786Y-36384D01*
X-75492D01*
Y-47400D01*
Y-58416D01*
X-72786D01*
X-72484Y-58416D01*
X-71516D01*
X-71214Y-58416D01*
X-64786D01*
X-63516Y-58416D01*
X-63214Y-58416D01*
X-56786D01*
X-56484Y-58416D01*
X-55516D01*
X-55214Y-58416D01*
X-52508D01*
Y-47400D01*
Y-36384D01*
X-55214D01*
X-55516Y-36384D01*
X-56484D01*
X-56786Y-36384D01*
X-63214D01*
X-64484Y-36384D01*
D02*
G37*
G36*
X-112484D02*
X-112786Y-36384D01*
X-119214D01*
X-119516Y-36384D01*
X-120484D01*
X-120786Y-36384D01*
X-123492D01*
Y-47400D01*
Y-58416D01*
X-120786D01*
X-120484Y-58416D01*
X-119516D01*
X-119214Y-58416D01*
X-112786D01*
X-111516Y-58416D01*
X-111214Y-58416D01*
X-104786D01*
X-104484Y-58416D01*
X-103516D01*
X-103214Y-58416D01*
X-100508D01*
Y-47400D01*
Y-36384D01*
X-103214D01*
X-103516Y-36384D01*
X-104484D01*
X-104786Y-36384D01*
X-111214D01*
X-112484Y-36384D01*
D02*
G37*
G36*
X104484Y-36384D02*
X103516D01*
X103214Y-36384D01*
X100508D01*
Y-47400D01*
Y-58416D01*
X103214D01*
X103516Y-58416D01*
X104484D01*
X104786Y-58416D01*
X107492D01*
Y-47400D01*
Y-36384D01*
X104786D01*
X104484Y-36384D01*
D02*
G37*
G36*
X96484D02*
X95516D01*
X95214Y-36384D01*
X92508D01*
Y-47400D01*
Y-58416D01*
X95214D01*
X95516Y-58416D01*
X96484D01*
X96786Y-58416D01*
X99492D01*
Y-47400D01*
Y-36384D01*
X96786D01*
X96484Y-36384D01*
D02*
G37*
G36*
X64484Y-36384D02*
X63214Y-36384D01*
X56786D01*
X56484Y-36384D01*
X55516D01*
X55214Y-36384D01*
X48786D01*
X48484Y-36384D01*
X47516D01*
X47214Y-36384D01*
X44508D01*
Y-47400D01*
Y-58416D01*
X47214D01*
X47516Y-58416D01*
X48484D01*
X48786Y-58416D01*
X55214D01*
X55516Y-58416D01*
X56484D01*
X56786Y-58416D01*
X63214D01*
X63516Y-58416D01*
X64786Y-58416D01*
X67492D01*
Y-47400D01*
Y-36384D01*
X64786D01*
X64484Y-36384D01*
D02*
G37*
G36*
X40484Y-36384D02*
X39516D01*
X39214Y-36384D01*
X32786D01*
X32484Y-36384D01*
X31516D01*
X31214Y-36384D01*
X24786D01*
X24484Y-36384D01*
X23516D01*
X23214Y-36384D01*
X20508D01*
Y-47400D01*
Y-58416D01*
X23214D01*
X23516Y-58416D01*
X24484D01*
X24786Y-58416D01*
X25762D01*
X25777Y-58454D01*
X25817Y-58599D01*
X25852Y-58809D01*
X25875Y-59078D01*
X25885Y-59430D01*
X25928Y-59528D01*
Y-67662D01*
X21332Y-72258D01*
X21292Y-72273D01*
X21116Y-72200D01*
X19524D01*
X18054Y-72809D01*
X16929Y-73934D01*
X16320Y-75404D01*
Y-76996D01*
X16929Y-78466D01*
X18054Y-79591D01*
X19524Y-80200D01*
X21116D01*
X22586Y-79591D01*
X23711Y-78466D01*
X24320Y-76996D01*
Y-75404D01*
X24247Y-75228D01*
X24262Y-75188D01*
X29465Y-69985D01*
X29465Y-69985D01*
X29914Y-69313D01*
X30072Y-68520D01*
X30072Y-68520D01*
Y-59617D01*
X30453Y-58416D01*
X32484Y-58416D01*
X32786Y-58416D01*
X33762D01*
X33777Y-58454D01*
X33817Y-58599D01*
X33852Y-58809D01*
X33875Y-59078D01*
X33885Y-59430D01*
X33928Y-59528D01*
Y-69020D01*
X33928Y-69020D01*
X34086Y-69813D01*
X34535Y-70485D01*
X39238Y-75188D01*
X39253Y-75228D01*
X39180Y-75404D01*
Y-76996D01*
X39789Y-78466D01*
X40914Y-79591D01*
X42384Y-80200D01*
X43976D01*
X45446Y-79591D01*
X46571Y-78466D01*
X47180Y-76996D01*
Y-75404D01*
X46571Y-73934D01*
X45446Y-72809D01*
X43976Y-72200D01*
X42384D01*
X42208Y-72273D01*
X42168Y-72258D01*
X38072Y-68162D01*
Y-59617D01*
X38453Y-58416D01*
X40484Y-58416D01*
X40786Y-58416D01*
X43492D01*
Y-47400D01*
Y-36384D01*
X40786D01*
X40484Y-36384D01*
D02*
G37*
G36*
X-7516D02*
X-8484D01*
X-8786Y-36384D01*
X-15214D01*
X-15516Y-36384D01*
X-16484D01*
X-16786Y-36384D01*
X-23214D01*
X-23516Y-36384D01*
X-24484D01*
X-24786Y-36384D01*
X-27492D01*
Y-47400D01*
Y-58416D01*
X-24786D01*
X-24484Y-58416D01*
X-23516D01*
X-22913Y-58416D01*
X-22554Y-58854D01*
X-22266Y-60109D01*
X-23391Y-61234D01*
X-24000Y-62704D01*
Y-64296D01*
X-23391Y-65766D01*
X-22266Y-66891D01*
X-20796Y-67500D01*
X-19204D01*
X-17734Y-66891D01*
X-16720Y-65877D01*
X-16000Y-65817D01*
X-15280Y-65877D01*
X-14266Y-66891D01*
X-12796Y-67500D01*
X-11204D01*
X-9734Y-66891D01*
X-8609Y-65766D01*
X-8000Y-64296D01*
Y-62704D01*
X-8609Y-61234D01*
X-9734Y-60109D01*
X-9446Y-58854D01*
X-9087Y-58416D01*
X-7516Y-58416D01*
X-7214Y-58416D01*
X-4508D01*
Y-47400D01*
Y-36384D01*
X-7214D01*
X-7516Y-36384D01*
D02*
G37*
G36*
X-31516D02*
X-32484D01*
X-32786Y-36384D01*
X-39214D01*
X-39516Y-36384D01*
X-40484D01*
X-40786Y-36384D01*
X-47214D01*
X-47516Y-36384D01*
X-48484D01*
X-48786Y-36384D01*
X-51492D01*
Y-47400D01*
Y-58416D01*
X-48786D01*
X-48484Y-58416D01*
X-47516D01*
X-47214Y-58416D01*
X-40786D01*
X-40484Y-58416D01*
X-39516D01*
X-39214Y-58416D01*
X-32786D01*
X-32484Y-58416D01*
X-31516D01*
X-31214Y-58416D01*
X-28508D01*
Y-47400D01*
Y-36384D01*
X-31214D01*
X-31516Y-36384D01*
D02*
G37*
G36*
X-79516Y-36384D02*
X-80786Y-36384D01*
X-87214D01*
X-87516Y-36384D01*
X-88484D01*
X-88786Y-36384D01*
X-95214D01*
X-95516Y-36384D01*
X-96484D01*
X-96786Y-36384D01*
X-99492D01*
Y-47400D01*
Y-58416D01*
X-96786D01*
X-96484Y-58416D01*
X-95516D01*
X-95214Y-58416D01*
X-88786D01*
X-88484Y-58416D01*
X-87516D01*
X-87214Y-58416D01*
X-80786D01*
X-80484Y-58416D01*
X-79214Y-58416D01*
X-76508D01*
Y-47400D01*
Y-36384D01*
X-79214D01*
X-79516Y-36384D01*
D02*
G37*
G36*
X-127516D02*
X-128786Y-36384D01*
X-135214D01*
X-135516Y-36384D01*
X-136484D01*
X-136786Y-36384D01*
X-143214D01*
X-143516Y-36384D01*
X-144484D01*
X-144786Y-36384D01*
X-151214D01*
X-151516Y-36384D01*
X-152484D01*
X-152786Y-36384D01*
X-155492D01*
Y-47400D01*
Y-58416D01*
X-152786D01*
X-152484Y-58416D01*
X-151516D01*
X-150913Y-58416D01*
X-150554Y-58854D01*
X-150266Y-60109D01*
X-151391Y-61234D01*
X-152000Y-62704D01*
Y-64296D01*
X-151391Y-65766D01*
X-150266Y-66891D01*
X-148796Y-67500D01*
X-147204D01*
X-145734Y-66891D01*
X-144720Y-65877D01*
X-144000Y-65817D01*
X-143280Y-65877D01*
X-142266Y-66891D01*
X-140796Y-67500D01*
X-139204D01*
X-137734Y-66891D01*
X-136720Y-65877D01*
X-136000Y-65817D01*
X-135280Y-65877D01*
X-134266Y-66891D01*
X-132796Y-67500D01*
X-131204D01*
X-129734Y-66891D01*
X-128609Y-65766D01*
X-128000Y-64296D01*
Y-62704D01*
X-128609Y-61234D01*
X-129734Y-60109D01*
X-129446Y-58854D01*
X-129087Y-58416D01*
X-128484Y-58416D01*
X-127214Y-58416D01*
X-124508D01*
Y-47400D01*
Y-36384D01*
X-127214D01*
X-127516Y-36384D01*
D02*
G37*
G36*
X156508Y-36384D02*
Y-46892D01*
X159516D01*
Y-36384D01*
X156508D01*
D02*
G37*
G36*
X-156508D02*
X-159516D01*
Y-46892D01*
X-156508D01*
Y-36384D01*
D02*
G37*
G36*
X292896Y-46800D02*
X291304D01*
X289834Y-47409D01*
X288709Y-48534D01*
X288100Y-50004D01*
Y-51596D01*
X288709Y-53066D01*
X289834Y-54191D01*
X291304Y-54800D01*
X292896D01*
X294366Y-54191D01*
X295491Y-53066D01*
X296100Y-51596D01*
Y-50004D01*
X295491Y-48534D01*
X294366Y-47409D01*
X292896Y-46800D01*
D02*
G37*
G36*
X254796D02*
X253204D01*
X251734Y-47409D01*
X250609Y-48534D01*
X250000Y-50004D01*
Y-51596D01*
X250609Y-53066D01*
X251734Y-54191D01*
X253204Y-54800D01*
X254796D01*
X256266Y-54191D01*
X257391Y-53066D01*
X258000Y-51596D01*
Y-50004D01*
X257391Y-48534D01*
X256266Y-47409D01*
X254796Y-46800D01*
D02*
G37*
G36*
X201456Y-49340D02*
X199864D01*
X198394Y-49949D01*
X197269Y-51074D01*
X196660Y-52544D01*
Y-54136D01*
X197269Y-55606D01*
X198394Y-56731D01*
X199864Y-57340D01*
X201456D01*
X202926Y-56731D01*
X204051Y-55606D01*
X204660Y-54136D01*
Y-52544D01*
X204051Y-51074D01*
X202926Y-49949D01*
X201456Y-49340D01*
D02*
G37*
G36*
X159516Y-47908D02*
X156508D01*
Y-58416D01*
X159516D01*
Y-47908D01*
D02*
G37*
G36*
X-156508D02*
X-159516D01*
Y-58416D01*
X-156508D01*
Y-47908D01*
D02*
G37*
G36*
X12796Y-62000D02*
X11204D01*
X9734Y-62609D01*
X8720Y-63623D01*
X8000Y-63683D01*
X7280Y-63623D01*
X6266Y-62609D01*
X4796Y-62000D01*
X3204D01*
X1734Y-62609D01*
X609Y-63734D01*
X0Y-65204D01*
Y-66796D01*
X609Y-68266D01*
X1734Y-69391D01*
X3204Y-70000D01*
X4796D01*
X6266Y-69391D01*
X7280Y-68377D01*
X8000Y-68317D01*
X8720Y-68377D01*
X9734Y-69391D01*
X11204Y-70000D01*
X12796D01*
X14266Y-69391D01*
X15391Y-68266D01*
X16000Y-66796D01*
Y-65204D01*
X15391Y-63734D01*
X14266Y-62609D01*
X12796Y-62000D01*
D02*
G37*
G36*
X209076Y-56960D02*
X207484D01*
X206014Y-57569D01*
X204889Y-58694D01*
X204280Y-60164D01*
Y-61756D01*
X204889Y-63226D01*
X206014Y-64351D01*
X207484Y-64960D01*
X209076D01*
X210546Y-64351D01*
X211671Y-63226D01*
X212280Y-61756D01*
Y-60164D01*
X211671Y-58694D01*
X210546Y-57569D01*
X209076Y-56960D01*
D02*
G37*
G36*
X254796Y-59500D02*
X253204D01*
X251734Y-60109D01*
X250609Y-61234D01*
X250000Y-62704D01*
Y-64296D01*
X250609Y-65766D01*
X251734Y-66891D01*
X253204Y-67500D01*
X254796D01*
X256266Y-66891D01*
X257391Y-65766D01*
X258000Y-64296D01*
Y-62704D01*
X257391Y-61234D01*
X256266Y-60109D01*
X254796Y-59500D01*
D02*
G37*
G36*
X72676Y-84900D02*
X71084D01*
X69614Y-85509D01*
X68489Y-86634D01*
X67880Y-88104D01*
Y-89696D01*
X68489Y-91166D01*
X69614Y-92291D01*
X71084Y-92900D01*
X72676D01*
X74146Y-92291D01*
X75271Y-91166D01*
X75880Y-89696D01*
Y-88104D01*
X75271Y-86634D01*
X74146Y-85509D01*
X72676Y-84900D01*
D02*
G37*
G36*
X-7584D02*
X-9176D01*
X-10646Y-85509D01*
X-11771Y-86634D01*
X-12380Y-88104D01*
Y-89696D01*
X-11771Y-91166D01*
X-10646Y-92291D01*
X-9176Y-92900D01*
X-7584D01*
X-6114Y-92291D01*
X-4989Y-91166D01*
X-4380Y-89696D01*
Y-88104D01*
X-4989Y-86634D01*
X-6114Y-85509D01*
X-7584Y-84900D01*
D02*
G37*
G36*
X236087Y-86614D02*
X235458D01*
Y-94742D01*
X243586D01*
Y-94113D01*
X242997Y-91917D01*
X241861Y-89947D01*
X240253Y-88340D01*
X238283Y-87203D01*
X236087Y-86614D01*
D02*
G37*
G36*
X234442D02*
X233813D01*
X231617Y-87203D01*
X229647Y-88340D01*
X228039Y-89947D01*
X226903Y-91917D01*
X226314Y-94113D01*
Y-94742D01*
X234442D01*
Y-86614D01*
D02*
G37*
G36*
X332279Y-49784D02*
X328121D01*
X324014Y-50434D01*
X320060Y-51719D01*
X316355Y-53607D01*
X312991Y-56051D01*
X310051Y-58991D01*
X307607Y-62355D01*
X305719Y-66060D01*
X304434Y-70014D01*
X303784Y-74121D01*
Y-78279D01*
X304434Y-82386D01*
X305719Y-86340D01*
X307607Y-90045D01*
X310051Y-93409D01*
X312991Y-96349D01*
X316355Y-98793D01*
X320060Y-100681D01*
X324014Y-101966D01*
X328121Y-102616D01*
X332279D01*
X336386Y-101966D01*
X340340Y-100681D01*
X344045Y-98793D01*
X347409Y-96349D01*
X350349Y-93409D01*
X352793Y-90045D01*
X354681Y-86340D01*
X355966Y-82386D01*
X356616Y-78279D01*
Y-74121D01*
X355966Y-70014D01*
X354681Y-66060D01*
X352793Y-62355D01*
X350349Y-58991D01*
X347409Y-56051D01*
X344045Y-53607D01*
X340340Y-51719D01*
X336386Y-50434D01*
X332279Y-49784D01*
D02*
G37*
G36*
X-328121D02*
X-332279D01*
X-336386Y-50434D01*
X-340340Y-51719D01*
X-344045Y-53607D01*
X-347409Y-56051D01*
X-350349Y-58991D01*
X-352793Y-62355D01*
X-354681Y-66060D01*
X-355966Y-70014D01*
X-356616Y-74121D01*
Y-78279D01*
X-355966Y-82386D01*
X-354681Y-86340D01*
X-352793Y-90045D01*
X-350349Y-93409D01*
X-347409Y-96349D01*
X-344045Y-98793D01*
X-340340Y-100681D01*
X-336386Y-101966D01*
X-332279Y-102616D01*
X-328121D01*
X-324014Y-101966D01*
X-320060Y-100681D01*
X-316355Y-98793D01*
X-312991Y-96349D01*
X-310051Y-93409D01*
X-307607Y-90045D01*
X-305719Y-86340D01*
X-304434Y-82386D01*
X-303784Y-78279D01*
Y-74121D01*
X-304434Y-70014D01*
X-305719Y-66060D01*
X-307607Y-62355D01*
X-310051Y-58991D01*
X-312991Y-56051D01*
X-316355Y-53607D01*
X-320060Y-51719D01*
X-324014Y-50434D01*
X-328121Y-49784D01*
D02*
G37*
G36*
X261487Y-86614D02*
X259213D01*
X257017Y-87203D01*
X255047Y-88340D01*
X253440Y-89947D01*
X252302Y-91917D01*
X251714Y-94113D01*
Y-96387D01*
X252302Y-98583D01*
X253440Y-100553D01*
X255047Y-102161D01*
X257017Y-103298D01*
X259213Y-103886D01*
X261487D01*
X263683Y-103298D01*
X265653Y-102161D01*
X267260Y-100553D01*
X268398Y-98583D01*
X268986Y-96387D01*
Y-94113D01*
X268398Y-91917D01*
X267260Y-89947D01*
X265653Y-88340D01*
X263683Y-87203D01*
X261487Y-86614D01*
D02*
G37*
G36*
X243586Y-95758D02*
X235458D01*
Y-103886D01*
X236087D01*
X238283Y-103298D01*
X240253Y-102161D01*
X241861Y-100553D01*
X242997Y-98583D01*
X243586Y-96387D01*
Y-95758D01*
D02*
G37*
G36*
X234442D02*
X226314D01*
Y-96387D01*
X226903Y-98583D01*
X228039Y-100553D01*
X229647Y-102161D01*
X231617Y-103298D01*
X233813Y-103886D01*
X234442D01*
Y-95758D01*
D02*
G37*
%LPD*%
G36*
X149403Y10898D02*
X149242Y10711D01*
X149100Y10522D01*
X148976Y10332D01*
X148872Y10142D01*
X148787Y9950D01*
X148720Y9757D01*
X148673Y9563D01*
X148645Y9368D01*
X148635Y9172D01*
X147365D01*
X147355Y9368D01*
X147327Y9563D01*
X147280Y9757D01*
X147213Y9950D01*
X147128Y10142D01*
X147024Y10332D01*
X146900Y10522D01*
X146758Y10711D01*
X146597Y10898D01*
X146417Y11085D01*
X149583D01*
X149403Y10898D01*
D02*
G37*
G36*
X141403D02*
X141242Y10711D01*
X141100Y10522D01*
X140976Y10332D01*
X140872Y10142D01*
X140787Y9950D01*
X140720Y9757D01*
X140673Y9563D01*
X140645Y9368D01*
X140635Y9172D01*
X139365D01*
X139355Y9368D01*
X139327Y9563D01*
X139280Y9757D01*
X139213Y9950D01*
X139128Y10142D01*
X139024Y10332D01*
X138900Y10522D01*
X138758Y10711D01*
X138597Y10898D01*
X138417Y11085D01*
X141583D01*
X141403Y10898D01*
D02*
G37*
G36*
X133403D02*
X133242Y10711D01*
X133100Y10522D01*
X132976Y10332D01*
X132872Y10142D01*
X132787Y9950D01*
X132720Y9757D01*
X132673Y9563D01*
X132645Y9368D01*
X132635Y9172D01*
X131365D01*
X131355Y9368D01*
X131327Y9563D01*
X131280Y9757D01*
X131213Y9950D01*
X131128Y10142D01*
X131024Y10332D01*
X130900Y10522D01*
X130758Y10711D01*
X130597Y10898D01*
X130417Y11085D01*
X133583D01*
X133403Y10898D01*
D02*
G37*
G36*
X148641Y7592D02*
X148660Y7371D01*
X148692Y7176D01*
X148737Y7007D01*
X148794Y6864D01*
X148864Y6747D01*
X148946Y6656D01*
X149041Y6591D01*
X149149Y6552D01*
X149270Y6539D01*
X146730D01*
X146851Y6552D01*
X146959Y6591D01*
X147054Y6656D01*
X147136Y6747D01*
X147206Y6864D01*
X147263Y7007D01*
X147308Y7176D01*
X147340Y7371D01*
X147359Y7592D01*
X147365Y7839D01*
X148635D01*
X148641Y7592D01*
D02*
G37*
G36*
X140641D02*
X140660Y7371D01*
X140692Y7176D01*
X140737Y7007D01*
X140794Y6864D01*
X140864Y6747D01*
X140946Y6656D01*
X141041Y6591D01*
X141149Y6552D01*
X141270Y6539D01*
X138730D01*
X138851Y6552D01*
X138959Y6591D01*
X139054Y6656D01*
X139136Y6747D01*
X139206Y6864D01*
X139263Y7007D01*
X139308Y7176D01*
X139340Y7371D01*
X139359Y7592D01*
X139365Y7839D01*
X140635D01*
X140641Y7592D01*
D02*
G37*
G36*
X132641D02*
X132660Y7371D01*
X132692Y7176D01*
X132737Y7007D01*
X132794Y6864D01*
X132864Y6747D01*
X132946Y6656D01*
X133041Y6591D01*
X133149Y6552D01*
X133270Y6539D01*
X130730D01*
X130851Y6552D01*
X130959Y6591D01*
X131054Y6656D01*
X131136Y6747D01*
X131206Y6864D01*
X131263Y7007D01*
X131308Y7176D01*
X131340Y7371D01*
X131359Y7592D01*
X131365Y7839D01*
X132635D01*
X132641Y7592D01*
D02*
G37*
G36*
X-10597Y10898D02*
X-10758Y10711D01*
X-10900Y10522D01*
X-11024Y10332D01*
X-11128Y10142D01*
X-11213Y9950D01*
X-11280Y9757D01*
X-11327Y9563D01*
X-11356Y9368D01*
X-11365Y9172D01*
X-12635D01*
X-12644Y9368D01*
X-12673Y9563D01*
X-12720Y9757D01*
X-12787Y9950D01*
X-12872Y10142D01*
X-12976Y10332D01*
X-13100Y10522D01*
X-13242Y10711D01*
X-13403Y10898D01*
X-13583Y11085D01*
X-10417D01*
X-10597Y10898D01*
D02*
G37*
G36*
X-18597D02*
X-18758Y10711D01*
X-18900Y10522D01*
X-19024Y10332D01*
X-19128Y10142D01*
X-19213Y9950D01*
X-19280Y9757D01*
X-19327Y9563D01*
X-19355Y9368D01*
X-19365Y9172D01*
X-20635D01*
X-20645Y9368D01*
X-20673Y9563D01*
X-20720Y9757D01*
X-20787Y9950D01*
X-20872Y10142D01*
X-20976Y10332D01*
X-21100Y10522D01*
X-21242Y10711D01*
X-21403Y10898D01*
X-21583Y11085D01*
X-18417D01*
X-18597Y10898D01*
D02*
G37*
G36*
X-11359Y7592D02*
X-11340Y7371D01*
X-11308Y7176D01*
X-11263Y7007D01*
X-11206Y6864D01*
X-11136Y6747D01*
X-11054Y6656D01*
X-10959Y6591D01*
X-10851Y6552D01*
X-10730Y6539D01*
X-13270D01*
X-13149Y6552D01*
X-13041Y6591D01*
X-12946Y6656D01*
X-12864Y6747D01*
X-12794Y6864D01*
X-12737Y7007D01*
X-12692Y7176D01*
X-12660Y7371D01*
X-12641Y7592D01*
X-12635Y7839D01*
X-11365D01*
X-11359Y7592D01*
D02*
G37*
G36*
X-19359D02*
X-19340Y7371D01*
X-19308Y7176D01*
X-19263Y7007D01*
X-19206Y6864D01*
X-19136Y6747D01*
X-19054Y6656D01*
X-18959Y6591D01*
X-18851Y6552D01*
X-18730Y6539D01*
X-21270D01*
X-21149Y6552D01*
X-21041Y6591D01*
X-20946Y6656D01*
X-20864Y6747D01*
X-20794Y6864D01*
X-20737Y7007D01*
X-20692Y7176D01*
X-20660Y7371D01*
X-20641Y7592D01*
X-20635Y7839D01*
X-19365D01*
X-19359Y7592D01*
D02*
G37*
G36*
X-130597Y10898D02*
X-130758Y10711D01*
X-130900Y10522D01*
X-131024Y10332D01*
X-131128Y10142D01*
X-131213Y9950D01*
X-131280Y9757D01*
X-131327Y9563D01*
X-131355Y9368D01*
X-131365Y9172D01*
X-132635D01*
X-132645Y9368D01*
X-132673Y9563D01*
X-132720Y9757D01*
X-132787Y9950D01*
X-132872Y10142D01*
X-132976Y10332D01*
X-133100Y10522D01*
X-133242Y10711D01*
X-133403Y10898D01*
X-133583Y11085D01*
X-130417D01*
X-130597Y10898D01*
D02*
G37*
G36*
X-138597D02*
X-138758Y10711D01*
X-138900Y10522D01*
X-139024Y10332D01*
X-139128Y10142D01*
X-139213Y9950D01*
X-139280Y9757D01*
X-139327Y9563D01*
X-139355Y9368D01*
X-139365Y9172D01*
X-140635D01*
X-140645Y9368D01*
X-140673Y9563D01*
X-140720Y9757D01*
X-140787Y9950D01*
X-140872Y10142D01*
X-140976Y10332D01*
X-141100Y10522D01*
X-141242Y10711D01*
X-141403Y10898D01*
X-141583Y11085D01*
X-138417D01*
X-138597Y10898D01*
D02*
G37*
G36*
X-146597D02*
X-146758Y10711D01*
X-146900Y10522D01*
X-147024Y10332D01*
X-147128Y10142D01*
X-147213Y9950D01*
X-147280Y9757D01*
X-147327Y9563D01*
X-147355Y9368D01*
X-147365Y9172D01*
X-148635D01*
X-148645Y9368D01*
X-148673Y9563D01*
X-148720Y9757D01*
X-148787Y9950D01*
X-148872Y10142D01*
X-148976Y10332D01*
X-149100Y10522D01*
X-149242Y10711D01*
X-149403Y10898D01*
X-149583Y11085D01*
X-146417D01*
X-146597Y10898D01*
D02*
G37*
G36*
X-131359Y7592D02*
X-131340Y7371D01*
X-131308Y7176D01*
X-131263Y7007D01*
X-131206Y6864D01*
X-131136Y6747D01*
X-131054Y6656D01*
X-130959Y6591D01*
X-130851Y6552D01*
X-130730Y6539D01*
X-133270D01*
X-133149Y6552D01*
X-133041Y6591D01*
X-132946Y6656D01*
X-132864Y6747D01*
X-132794Y6864D01*
X-132737Y7007D01*
X-132692Y7176D01*
X-132660Y7371D01*
X-132641Y7592D01*
X-132635Y7839D01*
X-131365D01*
X-131359Y7592D01*
D02*
G37*
G36*
X-139359D02*
X-139340Y7371D01*
X-139308Y7176D01*
X-139263Y7007D01*
X-139206Y6864D01*
X-139136Y6747D01*
X-139054Y6656D01*
X-138959Y6591D01*
X-138851Y6552D01*
X-138730Y6539D01*
X-141270D01*
X-141149Y6552D01*
X-141041Y6591D01*
X-140946Y6656D01*
X-140864Y6747D01*
X-140794Y6864D01*
X-140737Y7007D01*
X-140692Y7176D01*
X-140660Y7371D01*
X-140641Y7592D01*
X-140635Y7839D01*
X-139365D01*
X-139359Y7592D01*
D02*
G37*
G36*
X-147359D02*
X-147340Y7371D01*
X-147308Y7176D01*
X-147263Y7007D01*
X-147206Y6864D01*
X-147136Y6747D01*
X-147054Y6656D01*
X-146959Y6591D01*
X-146851Y6552D01*
X-146730Y6539D01*
X-149270D01*
X-149149Y6552D01*
X-149041Y6591D01*
X-148946Y6656D01*
X-148864Y6747D01*
X-148794Y6864D01*
X-148737Y7007D01*
X-148692Y7176D01*
X-148660Y7371D01*
X-148641Y7592D01*
X-148635Y7839D01*
X-147365D01*
X-147359Y7592D01*
D02*
G37*
G36*
X13403Y-26802D02*
X13242Y-26989D01*
X13100Y-27178D01*
X12976Y-27368D01*
X12872Y-27558D01*
X12787Y-27750D01*
X12720Y-27943D01*
X12673Y-28137D01*
X12644Y-28332D01*
X12635Y-28528D01*
X11365D01*
X11356Y-28332D01*
X11327Y-28137D01*
X11280Y-27943D01*
X11213Y-27750D01*
X11128Y-27558D01*
X11024Y-27368D01*
X10900Y-27178D01*
X10758Y-26989D01*
X10597Y-26802D01*
X10417Y-26615D01*
X13583D01*
X13403Y-26802D01*
D02*
G37*
G36*
X5403D02*
X5242Y-26989D01*
X5100Y-27178D01*
X4976Y-27368D01*
X4872Y-27558D01*
X4787Y-27750D01*
X4720Y-27943D01*
X4673Y-28137D01*
X4645Y-28332D01*
X4635Y-28528D01*
X3365D01*
X3356Y-28332D01*
X3327Y-28137D01*
X3280Y-27943D01*
X3213Y-27750D01*
X3128Y-27558D01*
X3024Y-27368D01*
X2900Y-27178D01*
X2758Y-26989D01*
X2597Y-26802D01*
X2417Y-26615D01*
X5583D01*
X5403Y-26802D01*
D02*
G37*
G36*
X12641Y-36408D02*
X12660Y-36629D01*
X12692Y-36824D01*
X12737Y-36993D01*
X12794Y-37136D01*
X12864Y-37253D01*
X12946Y-37344D01*
X13041Y-37409D01*
X13149Y-37448D01*
X13270Y-37461D01*
X10730D01*
X10851Y-37448D01*
X10959Y-37409D01*
X11054Y-37344D01*
X11136Y-37253D01*
X11206Y-37136D01*
X11263Y-36993D01*
X11308Y-36824D01*
X11340Y-36629D01*
X11359Y-36408D01*
X11365Y-36161D01*
X12635D01*
X12641Y-36408D01*
D02*
G37*
G36*
X4641D02*
X4660Y-36629D01*
X4692Y-36824D01*
X4737Y-36993D01*
X4794Y-37136D01*
X4864Y-37253D01*
X4946Y-37344D01*
X5041Y-37409D01*
X5149Y-37448D01*
X5270Y-37461D01*
X2730D01*
X2851Y-37448D01*
X2959Y-37409D01*
X3054Y-37344D01*
X3136Y-37253D01*
X3206Y-37136D01*
X3263Y-36993D01*
X3308Y-36824D01*
X3340Y-36629D01*
X3359Y-36408D01*
X3365Y-36161D01*
X4635D01*
X4641Y-36408D01*
D02*
G37*
G36*
X149149Y-57382D02*
X149041Y-57420D01*
X148946Y-57484D01*
X148864Y-57573D01*
X148794Y-57687D01*
X148737Y-57827D01*
X148692Y-57992D01*
X148660Y-58182D01*
X148641Y-58398D01*
X148635Y-58639D01*
X147365D01*
X147359Y-58398D01*
X147340Y-58182D01*
X147308Y-57992D01*
X147263Y-57827D01*
X147206Y-57687D01*
X147136Y-57573D01*
X147054Y-57484D01*
X146959Y-57420D01*
X146851Y-57382D01*
X146730Y-57369D01*
X149270D01*
X149149Y-57382D01*
D02*
G37*
G36*
X141149D02*
X141041Y-57420D01*
X140946Y-57484D01*
X140864Y-57573D01*
X140794Y-57687D01*
X140737Y-57827D01*
X140692Y-57992D01*
X140660Y-58182D01*
X140641Y-58398D01*
X140635Y-58639D01*
X139365D01*
X139359Y-58398D01*
X139340Y-58182D01*
X139308Y-57992D01*
X139263Y-57827D01*
X139206Y-57687D01*
X139136Y-57573D01*
X139054Y-57484D01*
X138959Y-57420D01*
X138851Y-57382D01*
X138730Y-57369D01*
X141270D01*
X141149Y-57382D01*
D02*
G37*
G36*
X133149D02*
X133041Y-57420D01*
X132946Y-57484D01*
X132864Y-57573D01*
X132794Y-57687D01*
X132737Y-57827D01*
X132692Y-57992D01*
X132660Y-58182D01*
X132641Y-58398D01*
X132635Y-58639D01*
X131365D01*
X131359Y-58398D01*
X131340Y-58182D01*
X131308Y-57992D01*
X131263Y-57827D01*
X131206Y-57687D01*
X131136Y-57573D01*
X131054Y-57484D01*
X130959Y-57420D01*
X130851Y-57382D01*
X130730Y-57369D01*
X133270D01*
X133149Y-57382D01*
D02*
G37*
G36*
X148645Y-60168D02*
X148673Y-60363D01*
X148720Y-60557D01*
X148787Y-60750D01*
X148872Y-60942D01*
X148976Y-61132D01*
X149100Y-61322D01*
X149242Y-61511D01*
X149403Y-61698D01*
X149583Y-61885D01*
X146417D01*
X146597Y-61698D01*
X146758Y-61511D01*
X146900Y-61322D01*
X147024Y-61132D01*
X147128Y-60942D01*
X147213Y-60750D01*
X147280Y-60557D01*
X147327Y-60363D01*
X147355Y-60168D01*
X147365Y-59972D01*
X148635D01*
X148645Y-60168D01*
D02*
G37*
G36*
X140645D02*
X140673Y-60363D01*
X140720Y-60557D01*
X140787Y-60750D01*
X140872Y-60942D01*
X140976Y-61132D01*
X141100Y-61322D01*
X141242Y-61511D01*
X141403Y-61698D01*
X141583Y-61885D01*
X138417D01*
X138597Y-61698D01*
X138758Y-61511D01*
X138900Y-61322D01*
X139024Y-61132D01*
X139128Y-60942D01*
X139213Y-60750D01*
X139280Y-60557D01*
X139327Y-60363D01*
X139355Y-60168D01*
X139365Y-59972D01*
X140635D01*
X140645Y-60168D01*
D02*
G37*
G36*
X132645D02*
X132673Y-60363D01*
X132720Y-60557D01*
X132787Y-60750D01*
X132872Y-60942D01*
X132976Y-61132D01*
X133100Y-61322D01*
X133242Y-61511D01*
X133403Y-61698D01*
X133583Y-61885D01*
X130417D01*
X130597Y-61698D01*
X130758Y-61511D01*
X130900Y-61322D01*
X131024Y-61132D01*
X131128Y-60942D01*
X131213Y-60750D01*
X131280Y-60557D01*
X131327Y-60363D01*
X131355Y-60168D01*
X131365Y-59972D01*
X132635D01*
X132645Y-60168D01*
D02*
G37*
G36*
X37839Y-57390D02*
X37666Y-57451D01*
X37514Y-57552D01*
X37382Y-57695D01*
X37270Y-57877D01*
X37179Y-58101D01*
X37107Y-58365D01*
X37057Y-58670D01*
X37026Y-59015D01*
X37016Y-59401D01*
X34984D01*
X34974Y-59015D01*
X34943Y-58670D01*
X34893Y-58365D01*
X34821Y-58101D01*
X34730Y-57877D01*
X34618Y-57695D01*
X34486Y-57552D01*
X34334Y-57451D01*
X34161Y-57390D01*
X33968Y-57369D01*
X38032D01*
X37839Y-57390D01*
D02*
G37*
G36*
X29839D02*
X29666Y-57451D01*
X29514Y-57552D01*
X29382Y-57695D01*
X29270Y-57877D01*
X29179Y-58101D01*
X29107Y-58365D01*
X29057Y-58670D01*
X29026Y-59015D01*
X29016Y-59401D01*
X26984D01*
X26974Y-59015D01*
X26943Y-58670D01*
X26893Y-58365D01*
X26821Y-58101D01*
X26730Y-57877D01*
X26618Y-57695D01*
X26486Y-57552D01*
X26334Y-57451D01*
X26161Y-57390D01*
X25968Y-57369D01*
X30032D01*
X29839Y-57390D01*
D02*
G37*
G36*
X41680Y-73255D02*
X41849Y-73400D01*
X42016Y-73527D01*
X42183Y-73638D01*
X42348Y-73731D01*
X42512Y-73807D01*
X42675Y-73865D01*
X42837Y-73907D01*
X42998Y-73931D01*
X43157Y-73938D01*
X40918Y-76177D01*
X40911Y-76018D01*
X40887Y-75857D01*
X40845Y-75695D01*
X40787Y-75532D01*
X40711Y-75368D01*
X40618Y-75203D01*
X40507Y-75036D01*
X40380Y-74869D01*
X40235Y-74700D01*
X40073Y-74530D01*
X41510Y-73093D01*
X41680Y-73255D01*
D02*
G37*
G36*
X23427Y-74530D02*
X23265Y-74700D01*
X23120Y-74869D01*
X22993Y-75036D01*
X22882Y-75203D01*
X22789Y-75368D01*
X22713Y-75532D01*
X22655Y-75695D01*
X22613Y-75857D01*
X22589Y-76018D01*
X22582Y-76177D01*
X20343Y-73938D01*
X20502Y-73931D01*
X20663Y-73907D01*
X20825Y-73865D01*
X20988Y-73807D01*
X21152Y-73731D01*
X21317Y-73638D01*
X21484Y-73527D01*
X21651Y-73400D01*
X21820Y-73255D01*
X21990Y-73093D01*
X23427Y-74530D01*
D02*
G37*
G36*
X-10851Y-57382D02*
X-10959Y-57420D01*
X-11054Y-57484D01*
X-11136Y-57573D01*
X-11206Y-57687D01*
X-11263Y-57827D01*
X-11308Y-57992D01*
X-11340Y-58182D01*
X-11359Y-58398D01*
X-11365Y-58639D01*
X-12635D01*
X-12641Y-58398D01*
X-12660Y-58182D01*
X-12692Y-57992D01*
X-12737Y-57827D01*
X-12794Y-57687D01*
X-12864Y-57573D01*
X-12946Y-57484D01*
X-13041Y-57420D01*
X-13149Y-57382D01*
X-13270Y-57369D01*
X-10730D01*
X-10851Y-57382D01*
D02*
G37*
G36*
X-18851D02*
X-18959Y-57420D01*
X-19054Y-57484D01*
X-19136Y-57573D01*
X-19206Y-57687D01*
X-19263Y-57827D01*
X-19308Y-57992D01*
X-19340Y-58182D01*
X-19359Y-58398D01*
X-19365Y-58639D01*
X-20635D01*
X-20641Y-58398D01*
X-20660Y-58182D01*
X-20692Y-57992D01*
X-20737Y-57827D01*
X-20794Y-57687D01*
X-20864Y-57573D01*
X-20946Y-57484D01*
X-21041Y-57420D01*
X-21149Y-57382D01*
X-21270Y-57369D01*
X-18730D01*
X-18851Y-57382D01*
D02*
G37*
G36*
X-11356Y-60168D02*
X-11327Y-60363D01*
X-11280Y-60557D01*
X-11213Y-60750D01*
X-11128Y-60942D01*
X-11024Y-61132D01*
X-10900Y-61322D01*
X-10758Y-61511D01*
X-10597Y-61698D01*
X-10417Y-61885D01*
X-13583D01*
X-13403Y-61698D01*
X-13242Y-61511D01*
X-13100Y-61322D01*
X-12976Y-61132D01*
X-12872Y-60942D01*
X-12787Y-60750D01*
X-12720Y-60557D01*
X-12673Y-60363D01*
X-12644Y-60168D01*
X-12635Y-59972D01*
X-11365D01*
X-11356Y-60168D01*
D02*
G37*
G36*
X-19355D02*
X-19327Y-60363D01*
X-19280Y-60557D01*
X-19213Y-60750D01*
X-19128Y-60942D01*
X-19024Y-61132D01*
X-18900Y-61322D01*
X-18758Y-61511D01*
X-18597Y-61698D01*
X-18417Y-61885D01*
X-21583D01*
X-21403Y-61698D01*
X-21242Y-61511D01*
X-21100Y-61322D01*
X-20976Y-61132D01*
X-20872Y-60942D01*
X-20787Y-60750D01*
X-20720Y-60557D01*
X-20673Y-60363D01*
X-20645Y-60168D01*
X-20635Y-59972D01*
X-19365D01*
X-19355Y-60168D01*
D02*
G37*
G36*
X-130851Y-57382D02*
X-130959Y-57420D01*
X-131054Y-57484D01*
X-131136Y-57573D01*
X-131206Y-57687D01*
X-131263Y-57827D01*
X-131308Y-57992D01*
X-131340Y-58182D01*
X-131359Y-58398D01*
X-131365Y-58639D01*
X-132635D01*
X-132641Y-58398D01*
X-132660Y-58182D01*
X-132692Y-57992D01*
X-132737Y-57827D01*
X-132794Y-57687D01*
X-132864Y-57573D01*
X-132946Y-57484D01*
X-133041Y-57420D01*
X-133149Y-57382D01*
X-133270Y-57369D01*
X-130730D01*
X-130851Y-57382D01*
D02*
G37*
G36*
X-138851D02*
X-138959Y-57420D01*
X-139054Y-57484D01*
X-139136Y-57573D01*
X-139206Y-57687D01*
X-139263Y-57827D01*
X-139308Y-57992D01*
X-139340Y-58182D01*
X-139359Y-58398D01*
X-139365Y-58639D01*
X-140635D01*
X-140641Y-58398D01*
X-140660Y-58182D01*
X-140692Y-57992D01*
X-140737Y-57827D01*
X-140794Y-57687D01*
X-140864Y-57573D01*
X-140946Y-57484D01*
X-141041Y-57420D01*
X-141149Y-57382D01*
X-141270Y-57369D01*
X-138730D01*
X-138851Y-57382D01*
D02*
G37*
G36*
X-146851D02*
X-146959Y-57420D01*
X-147054Y-57484D01*
X-147136Y-57573D01*
X-147206Y-57687D01*
X-147263Y-57827D01*
X-147308Y-57992D01*
X-147340Y-58182D01*
X-147359Y-58398D01*
X-147365Y-58639D01*
X-148635D01*
X-148641Y-58398D01*
X-148660Y-58182D01*
X-148692Y-57992D01*
X-148737Y-57827D01*
X-148794Y-57687D01*
X-148864Y-57573D01*
X-148946Y-57484D01*
X-149041Y-57420D01*
X-149149Y-57382D01*
X-149270Y-57369D01*
X-146730D01*
X-146851Y-57382D01*
D02*
G37*
G36*
X-131355Y-60168D02*
X-131327Y-60363D01*
X-131280Y-60557D01*
X-131213Y-60750D01*
X-131128Y-60942D01*
X-131024Y-61132D01*
X-130900Y-61322D01*
X-130758Y-61511D01*
X-130597Y-61698D01*
X-130417Y-61885D01*
X-133583D01*
X-133403Y-61698D01*
X-133242Y-61511D01*
X-133100Y-61322D01*
X-132976Y-61132D01*
X-132872Y-60942D01*
X-132787Y-60750D01*
X-132720Y-60557D01*
X-132673Y-60363D01*
X-132645Y-60168D01*
X-132635Y-59972D01*
X-131365D01*
X-131355Y-60168D01*
D02*
G37*
G36*
X-139355D02*
X-139327Y-60363D01*
X-139280Y-60557D01*
X-139213Y-60750D01*
X-139128Y-60942D01*
X-139024Y-61132D01*
X-138900Y-61322D01*
X-138758Y-61511D01*
X-138597Y-61698D01*
X-138417Y-61885D01*
X-141583D01*
X-141403Y-61698D01*
X-141242Y-61511D01*
X-141100Y-61322D01*
X-140976Y-61132D01*
X-140872Y-60942D01*
X-140787Y-60750D01*
X-140720Y-60557D01*
X-140673Y-60363D01*
X-140645Y-60168D01*
X-140635Y-59972D01*
X-139365D01*
X-139355Y-60168D01*
D02*
G37*
G36*
X-147355D02*
X-147327Y-60363D01*
X-147280Y-60557D01*
X-147213Y-60750D01*
X-147128Y-60942D01*
X-147024Y-61132D01*
X-146900Y-61322D01*
X-146758Y-61511D01*
X-146597Y-61698D01*
X-146417Y-61885D01*
X-149583D01*
X-149403Y-61698D01*
X-149242Y-61511D01*
X-149100Y-61322D01*
X-148976Y-61132D01*
X-148872Y-60942D01*
X-148787Y-60750D01*
X-148720Y-60557D01*
X-148673Y-60363D01*
X-148645Y-60168D01*
X-148635Y-59972D01*
X-147365D01*
X-147355Y-60168D01*
D02*
G37*
D10*
X28000Y-47400D02*
X28000Y-47400D01*
D13*
X12000D02*
Y-25000D01*
X4000Y-47400D02*
Y-25000D01*
X-132000Y-63500D02*
Y-47400D01*
X-140000Y-63500D02*
Y-47400D01*
X-148000Y-63500D02*
Y-47400D01*
Y-3400D02*
Y12700D01*
X-140000Y-3400D02*
Y12700D01*
X-132000Y-3400D02*
Y12700D01*
X-20000Y-3400D02*
Y12700D01*
X-12000Y-3400D02*
Y12700D01*
X132000Y-3400D02*
Y12700D01*
X140000Y-3400D02*
Y12700D01*
X148000Y-3400D02*
Y12700D01*
Y-63500D02*
Y-47400D01*
X140000Y-63500D02*
Y-47400D01*
X132000Y-63500D02*
Y-47400D01*
X-12000Y-63500D02*
Y-47400D01*
X-20000Y-63500D02*
Y-47400D01*
D17*
X-156000Y-3400D02*
D03*
Y-47400D02*
D03*
X-148000Y-3400D02*
D03*
Y-47400D02*
D03*
X-140000Y-3400D02*
D03*
Y-47400D02*
D03*
X-132000Y-3400D02*
D03*
Y-47400D02*
D03*
X-124000Y-3400D02*
D03*
Y-47400D02*
D03*
X-116000Y-3400D02*
D03*
Y-47400D02*
D03*
X-108000Y-3400D02*
D03*
Y-47400D02*
D03*
X-100000Y-3400D02*
D03*
Y-47400D02*
D03*
X-92000Y-3400D02*
D03*
Y-47400D02*
D03*
X-84000Y-3400D02*
D03*
Y-47400D02*
D03*
X-76000Y-3400D02*
D03*
Y-47400D02*
D03*
X-68000Y-3400D02*
D03*
Y-47400D02*
D03*
X-60000Y-3400D02*
D03*
Y-47400D02*
D03*
X-52000Y-3400D02*
D03*
Y-47400D02*
D03*
X-44000Y-3400D02*
D03*
Y-47400D02*
D03*
X-36000Y-3400D02*
D03*
Y-47400D02*
D03*
X-28000Y-3400D02*
D03*
Y-47400D02*
D03*
X-20000Y-3400D02*
D03*
Y-47400D02*
D03*
X-12000Y-3400D02*
D03*
Y-47400D02*
D03*
X-4000Y-3400D02*
D03*
Y-47400D02*
D03*
X4000Y-3400D02*
D03*
Y-47400D02*
D03*
X12000Y-3400D02*
D03*
Y-47400D02*
D03*
X20000Y-3400D02*
D03*
Y-47400D02*
D03*
X28000Y-3400D02*
D03*
Y-47400D02*
D03*
X36000Y-3400D02*
D03*
Y-47400D02*
D03*
X44000Y-3400D02*
D03*
Y-47400D02*
D03*
X52000Y-3400D02*
D03*
Y-47400D02*
D03*
X60000Y-3400D02*
D03*
Y-47400D02*
D03*
X68000Y-3400D02*
D03*
Y-47400D02*
D03*
X76000Y-3400D02*
D03*
Y-47400D02*
D03*
X84000Y-3400D02*
D03*
Y-47400D02*
D03*
X92000Y-3400D02*
D03*
Y-47400D02*
D03*
X100000Y-3400D02*
D03*
Y-47400D02*
D03*
X108000Y-3400D02*
D03*
Y-47400D02*
D03*
X116000Y-3400D02*
D03*
Y-47400D02*
D03*
X124000Y-3400D02*
D03*
Y-47400D02*
D03*
X132000Y-3400D02*
D03*
Y-47400D02*
D03*
X140000Y-3400D02*
D03*
Y-47400D02*
D03*
X148000Y-3400D02*
D03*
Y-47400D02*
D03*
X156000Y-3400D02*
D03*
Y-47400D02*
D03*
D27*
X36000Y-69020D02*
X43180Y-76200D01*
X36000Y-69020D02*
Y-47400D01*
X28000Y-68520D02*
Y-47400D01*
X20320Y-76200D02*
X28000Y-68520D01*
D28*
X200025Y95250D02*
D03*
X110175D02*
D03*
X-130175D02*
D03*
X-220025D02*
D03*
D29*
X220025D02*
D03*
X130175D02*
D03*
X-110175D02*
D03*
X-200025D02*
D03*
D30*
X234950Y25400D02*
D03*
X260350D02*
D03*
Y-95250D02*
D03*
X234950D02*
D03*
D31*
X-330200Y-76200D02*
D03*
X330200D02*
D03*
X330200Y146050D02*
D03*
X-330200D02*
D03*
D32*
X323850Y114300D02*
D03*
X361950Y38100D02*
D03*
X323850Y-38100D02*
D03*
X247650Y114300D02*
D03*
X285750Y38100D02*
D03*
X247650Y-38100D02*
D03*
X171450Y114300D02*
D03*
X209550Y38100D02*
D03*
X171450Y-38100D02*
D03*
X95250Y114300D02*
D03*
X19050D02*
D03*
X57150Y38100D02*
D03*
X-57150Y114300D02*
D03*
X-19050Y38100D02*
D03*
X-133350Y114300D02*
D03*
X-209550D02*
D03*
Y-38100D02*
D03*
X-285750Y114300D02*
D03*
X-247650Y38100D02*
D03*
X-285750Y-38100D02*
D03*
X-361950Y114300D02*
D03*
X-323850Y38100D02*
D03*
X-361950Y-38100D02*
D03*
D33*
X-113350Y63500D02*
D03*
X-63500Y45720D02*
D03*
X-20000Y-63500D02*
D03*
X-12000D02*
D03*
X132000D02*
D03*
Y12700D02*
D03*
X-12000D02*
D03*
X-20000D02*
D03*
X-132000D02*
D03*
X-140000D02*
D03*
X-148000D02*
D03*
X-132000Y-63500D02*
D03*
X-148000D02*
D03*
X-140000D02*
D03*
X148000Y12700D02*
D03*
X140000D02*
D03*
X148000Y-63500D02*
D03*
X140000D02*
D03*
X-81280Y73660D02*
D03*
X-248920Y74295D02*
D03*
X-81280Y63500D02*
D03*
X-113350Y53340D02*
D03*
X-248920Y64135D02*
D03*
X-203200Y63500D02*
D03*
Y53340D02*
D03*
X-151140Y28220D02*
D03*
Y46000D02*
D03*
X12000Y-66000D02*
D03*
X4000D02*
D03*
X12000Y-25000D02*
D03*
X4000D02*
D03*
X-53340Y45720D02*
D03*
Y27940D02*
D03*
X-63500D02*
D03*
X-113350Y44450D02*
D03*
X-8380Y-88900D02*
D03*
X71880D02*
D03*
X292100Y-22098D02*
D03*
Y22352D02*
D03*
X199928Y50897D02*
D03*
X219928D02*
D03*
X110077D02*
D03*
X130077D02*
D03*
X254000Y-6350D02*
D03*
Y-19050D02*
D03*
Y-63500D02*
D03*
Y-50800D02*
D03*
X43180Y-76200D02*
D03*
X20320D02*
D03*
X208280Y-16510D02*
D03*
X200660Y-8890D02*
D03*
Y-53340D02*
D03*
X208280Y-60960D02*
D03*
X292100Y-50800D02*
D03*
Y-6350D02*
D03*
X-113350Y72390D02*
D03*
X-203200D02*
D03*
Y44450D02*
D03*
X236220Y50800D02*
D03*
X93980D02*
D03*
X146050D02*
D03*
X184150D02*
D03*
M02*
