G04*
G04 #@! TF.GenerationSoftware,Altium Limited,Altium Designer,24.2.2 (26)*
G04*
G04 Layer_Color=128*
%FSLAX44Y44*%
%MOMM*%
G71*
G04*
G04 #@! TF.SameCoordinates,AE1E6ACB-0CC1-432D-8EAE-CAE1C6468999*
G04*
G04*
G04 #@! TF.FilePolarity,Positive*
G04*
G01*
G75*
%ADD13C,0.1270*%
D13*
X196025Y95250D02*
X204025D01*
X200025Y91250D02*
Y99250D01*
X216025Y95250D02*
X224025D01*
X220025Y91250D02*
Y99250D01*
X126175Y95250D02*
X134175D01*
X130175Y91250D02*
Y99250D01*
X106175Y95250D02*
X114175D01*
X110175Y91250D02*
Y99250D01*
X-114175Y95250D02*
X-106175D01*
X-110175Y91250D02*
Y99250D01*
X-134175Y95250D02*
X-126175D01*
X-130175Y91250D02*
Y99250D01*
X-224025Y95250D02*
X-216025D01*
X-220025Y91250D02*
Y99250D01*
X-204025Y95250D02*
X-196025D01*
X-200025Y91250D02*
Y99250D01*
X229870Y25400D02*
X240030D01*
X234950Y20320D02*
Y30480D01*
X255270Y25400D02*
X265430D01*
X260350Y20320D02*
Y30480D01*
X255270Y-95250D02*
X265430D01*
X260350Y-100330D02*
Y-90170D01*
X229870Y-95250D02*
X240030D01*
X234950Y-100330D02*
Y-90170D01*
X-347200Y-76200D02*
X-313200D01*
X-330200Y-93200D02*
Y-59200D01*
X313200Y-76200D02*
X347200D01*
X330200Y-93200D02*
Y-59200D01*
X313200Y146050D02*
X347200D01*
X330200Y129050D02*
Y163050D01*
X-347200Y146050D02*
X-313200D01*
X-330200Y129050D02*
Y163050D01*
X322326Y114300D02*
X325374D01*
X323850Y112776D02*
Y115824D01*
X360426Y38100D02*
X363474D01*
X361950Y36576D02*
Y39624D01*
X322326Y-38100D02*
X325374D01*
X323850Y-39624D02*
Y-36576D01*
X246126Y114300D02*
X249174D01*
X247650Y112776D02*
Y115824D01*
X284226Y38100D02*
X287274D01*
X285750Y36576D02*
Y39624D01*
X246126Y-38100D02*
X249174D01*
X247650Y-39624D02*
Y-36576D01*
X169926Y114300D02*
X172974D01*
X171450Y112776D02*
Y115824D01*
X208026Y38100D02*
X211074D01*
X209550Y36576D02*
Y39624D01*
X169926Y-38100D02*
X172974D01*
X171450Y-39624D02*
Y-36576D01*
X93726Y114300D02*
X96774D01*
X95250Y112776D02*
Y115824D01*
X17526Y114300D02*
X20574D01*
X19050Y112776D02*
Y115824D01*
X55626Y38100D02*
X58674D01*
X57150Y36576D02*
Y39624D01*
X-58674Y114300D02*
X-55626D01*
X-57150Y112776D02*
Y115824D01*
X-20574Y38100D02*
X-17526D01*
X-19050Y36576D02*
Y39624D01*
X-134874Y114300D02*
X-131826D01*
X-133350Y112776D02*
Y115824D01*
X-211074Y114300D02*
X-208026D01*
X-209550Y112776D02*
Y115824D01*
X-211074Y-38100D02*
X-208026D01*
X-209550Y-39624D02*
Y-36576D01*
X-287274Y114300D02*
X-284226D01*
X-285750Y112776D02*
Y115824D01*
X-249174Y38100D02*
X-246126D01*
X-247650Y36576D02*
Y39624D01*
X-287274Y-38100D02*
X-284226D01*
X-285750Y-39624D02*
Y-36576D01*
X-363474Y114300D02*
X-360426D01*
X-361950Y112776D02*
Y115824D01*
X-325374Y38100D02*
X-322326D01*
X-323850Y36576D02*
Y39624D01*
X-363474Y-38100D02*
X-360426D01*
X-361950Y-39624D02*
Y-36576D01*
X-114850Y63500D02*
X-111850D01*
X-113350Y62000D02*
Y65000D01*
X-65000Y45720D02*
X-62000D01*
X-63500Y44220D02*
Y47220D01*
X-21500Y-63500D02*
X-18500D01*
X-20000Y-65000D02*
Y-62000D01*
X-13500Y-63500D02*
X-10500D01*
X-12000Y-65000D02*
Y-62000D01*
X130500Y-63500D02*
X133500D01*
X132000Y-65000D02*
Y-62000D01*
X130500Y12700D02*
X133500D01*
X132000Y11200D02*
Y14200D01*
X-13500Y12700D02*
X-10500D01*
X-12000Y11200D02*
Y14200D01*
X-21500Y12700D02*
X-18500D01*
X-20000Y11200D02*
Y14200D01*
X-133500Y12700D02*
X-130500D01*
X-132000Y11200D02*
Y14200D01*
X-141500Y12700D02*
X-138500D01*
X-140000Y11200D02*
Y14200D01*
X-149500Y12700D02*
X-146500D01*
X-148000Y11200D02*
Y14200D01*
X-133500Y-63500D02*
X-130500D01*
X-132000Y-65000D02*
Y-62000D01*
X-149500Y-63500D02*
X-146500D01*
X-148000Y-65000D02*
Y-62000D01*
X-141500Y-63500D02*
X-138500D01*
X-140000Y-65000D02*
Y-62000D01*
X146500Y12700D02*
X149500D01*
X148000Y11200D02*
Y14200D01*
X138500Y12700D02*
X141500D01*
X140000Y11200D02*
Y14200D01*
X146500Y-63500D02*
X149500D01*
X148000Y-65000D02*
Y-62000D01*
X138500Y-63500D02*
X141500D01*
X140000Y-65000D02*
Y-62000D01*
X-82780Y73660D02*
X-79780D01*
X-81280Y72160D02*
Y75160D01*
X-250420Y74295D02*
X-247420D01*
X-248920Y72795D02*
Y75795D01*
X-82780Y63500D02*
X-79780D01*
X-81280Y62000D02*
Y65000D01*
X-114850Y53340D02*
X-111850D01*
X-113350Y51840D02*
Y54840D01*
X-250420Y64135D02*
X-247420D01*
X-248920Y62635D02*
Y65635D01*
X-204700Y63500D02*
X-201700D01*
X-203200Y62000D02*
Y65000D01*
X-204700Y53340D02*
X-201700D01*
X-203200Y51840D02*
Y54840D01*
X-152640Y28220D02*
X-149640D01*
X-151140Y26720D02*
Y29720D01*
X-152640Y46000D02*
X-149640D01*
X-151140Y44500D02*
Y47500D01*
X10500Y-66000D02*
X13500D01*
X12000Y-67500D02*
Y-64500D01*
X2500Y-66000D02*
X5500D01*
X4000Y-67500D02*
Y-64500D01*
X10500Y-25000D02*
X13500D01*
X12000Y-26500D02*
Y-23500D01*
X2500Y-25000D02*
X5500D01*
X4000Y-26500D02*
Y-23500D01*
X-54840Y45720D02*
X-51840D01*
X-53340Y44220D02*
Y47220D01*
X-54840Y27940D02*
X-51840D01*
X-53340Y26440D02*
Y29440D01*
X-65000Y27940D02*
X-62000D01*
X-63500Y26440D02*
Y29440D01*
X-114850Y44450D02*
X-111850D01*
X-113350Y42950D02*
Y45950D01*
X-9880Y-88900D02*
X-6880D01*
X-8380Y-90400D02*
Y-87400D01*
X70380Y-88900D02*
X73380D01*
X71880Y-90400D02*
Y-87400D01*
X290600Y-22098D02*
X293600D01*
X292100Y-23598D02*
Y-20598D01*
X290600Y22352D02*
X293600D01*
X292100Y20852D02*
Y23852D01*
X198428Y50897D02*
X201427D01*
X199928Y49398D02*
Y52397D01*
X218428Y50897D02*
X221427D01*
X219928Y49398D02*
Y52397D01*
X108577Y50897D02*
X111578D01*
X110077Y49398D02*
Y52397D01*
X128577Y50897D02*
X131578D01*
X130077Y49398D02*
Y52397D01*
X252500Y-6350D02*
X255500D01*
X254000Y-7850D02*
Y-4850D01*
X252500Y-19050D02*
X255500D01*
X254000Y-20550D02*
Y-17550D01*
X252500Y-63500D02*
X255500D01*
X254000Y-65000D02*
Y-62000D01*
X252500Y-50800D02*
X255500D01*
X254000Y-52300D02*
Y-49300D01*
X41680Y-76200D02*
X44680D01*
X43180Y-77700D02*
Y-74700D01*
X18820Y-76200D02*
X21820D01*
X20320Y-77700D02*
Y-74700D01*
X206780Y-16510D02*
X209780D01*
X208280Y-18010D02*
Y-15010D01*
X199160Y-8890D02*
X202160D01*
X200660Y-10390D02*
Y-7390D01*
X199160Y-53340D02*
X202160D01*
X200660Y-54840D02*
Y-51840D01*
X206780Y-60960D02*
X209780D01*
X208280Y-62460D02*
Y-59460D01*
X290600Y-50800D02*
X293600D01*
X292100Y-52300D02*
Y-49300D01*
X290600Y-6350D02*
X293600D01*
X292100Y-7850D02*
Y-4850D01*
X-114850Y72390D02*
X-111850D01*
X-113350Y70890D02*
Y73890D01*
X-204700Y72390D02*
X-201700D01*
X-203200Y70890D02*
Y73890D01*
X-204700Y44450D02*
X-201700D01*
X-203200Y42950D02*
Y45950D01*
X234720Y50800D02*
X237720D01*
X236220Y49300D02*
Y52300D01*
X92480Y50800D02*
X95480D01*
X93980Y49300D02*
Y52300D01*
X144550Y50800D02*
X147550D01*
X146050Y49300D02*
Y52300D01*
X182650Y50800D02*
X185650D01*
X184150Y49300D02*
Y52300D01*
M02*
