G04*
G04 #@! TF.GenerationSoftware,Altium Limited,Altium Designer,24.2.2 (26)*
G04*
G04 Layer_Physical_Order=3*
G04 Layer_Color=16440176*
%FSLAX44Y44*%
%MOMM*%
G71*
G04*
G04 #@! TF.SameCoordinates,AE1E6ACB-0CC1-432D-8EAE-CAE1C6468999*
G04*
G04*
G04 #@! TF.FilePolarity,Positive*
G04*
G01*
G75*
%ADD13C,0.1270*%
%ADD28O,1.3970X1.9050*%
%ADD29R,1.3970X1.9050*%
%ADD30C,1.5240*%
%ADD31C,5.0800*%
%ADD32C,0.4572*%
%ADD33C,0.4524*%
G36*
X347406Y181404D02*
X351739Y180090D01*
X355733Y177955D01*
X359233Y175083D01*
X362105Y171583D01*
X364240Y167589D01*
X365554Y163256D01*
X365989Y158848D01*
X365969Y158750D01*
Y41568D01*
X364699Y41042D01*
X364229Y41511D01*
X362750Y42124D01*
X361150D01*
X359671Y41511D01*
X358539Y40379D01*
X357926Y38900D01*
Y37300D01*
X358539Y35821D01*
X359671Y34689D01*
X361150Y34076D01*
X362750D01*
X364229Y34689D01*
X364699Y35158D01*
X365969Y34632D01*
Y-88900D01*
X365989Y-88997D01*
X365554Y-93406D01*
X364240Y-97739D01*
X362105Y-101733D01*
X359233Y-105233D01*
X355733Y-108105D01*
X351739Y-110240D01*
X347406Y-111554D01*
X342998Y-111989D01*
X342900Y-111969D01*
X-342900D01*
X-342998Y-111989D01*
X-347406Y-111554D01*
X-351739Y-110240D01*
X-355733Y-108105D01*
X-359233Y-105233D01*
X-362105Y-101733D01*
X-364240Y-97739D01*
X-365554Y-93406D01*
X-365989Y-88997D01*
X-365969Y-88900D01*
Y-41568D01*
X-364699Y-41042D01*
X-364229Y-41511D01*
X-362750Y-42124D01*
X-361150D01*
X-359671Y-41511D01*
X-358539Y-40379D01*
X-357926Y-38900D01*
Y-37300D01*
X-358539Y-35821D01*
X-359671Y-34689D01*
X-361150Y-34076D01*
X-362750D01*
X-364229Y-34689D01*
X-364699Y-35158D01*
X-365969Y-34632D01*
Y110832D01*
X-364699Y111358D01*
X-364229Y110889D01*
X-362750Y110276D01*
X-361150D01*
X-359671Y110889D01*
X-358539Y112021D01*
X-357926Y113500D01*
Y115100D01*
X-358539Y116579D01*
X-359671Y117711D01*
X-361150Y118324D01*
X-362750D01*
X-364229Y117711D01*
X-364699Y117242D01*
X-365969Y117768D01*
Y158750D01*
X-365989Y158848D01*
X-365554Y163256D01*
X-364240Y167589D01*
X-362105Y171583D01*
X-359233Y175083D01*
X-355733Y177955D01*
X-351739Y180090D01*
X-347406Y181404D01*
X-342998Y181839D01*
X-342900Y181819D01*
X342900D01*
X342998Y181839D01*
X347406Y181404D01*
D02*
G37*
%LPC*%
G36*
X332279Y172466D02*
X328121D01*
X324014Y171816D01*
X320060Y170531D01*
X316355Y168643D01*
X312991Y166199D01*
X310051Y163259D01*
X307607Y159895D01*
X305719Y156190D01*
X304435Y152236D01*
X303784Y148129D01*
Y143971D01*
X304435Y139864D01*
X305719Y135910D01*
X307607Y132205D01*
X310051Y128841D01*
X312991Y125901D01*
X316355Y123457D01*
X320060Y121569D01*
X324014Y120284D01*
X328121Y119634D01*
X332279D01*
X336386Y120284D01*
X340340Y121569D01*
X344045Y123457D01*
X347409Y125901D01*
X350349Y128841D01*
X352793Y132205D01*
X354681Y135910D01*
X355966Y139864D01*
X356616Y143971D01*
Y148129D01*
X355966Y152236D01*
X354681Y156190D01*
X352793Y159895D01*
X350349Y163259D01*
X347409Y166199D01*
X344045Y168643D01*
X340340Y170531D01*
X336386Y171816D01*
X332279Y172466D01*
D02*
G37*
G36*
X-328121D02*
X-332279D01*
X-336386Y171816D01*
X-340340Y170531D01*
X-344045Y168643D01*
X-347409Y166199D01*
X-350349Y163259D01*
X-352793Y159895D01*
X-354681Y156190D01*
X-355965Y152236D01*
X-356616Y148129D01*
Y143971D01*
X-355965Y139864D01*
X-354681Y135910D01*
X-352793Y132205D01*
X-350349Y128841D01*
X-347409Y125901D01*
X-344045Y123457D01*
X-340340Y121569D01*
X-336386Y120284D01*
X-332279Y119634D01*
X-328121D01*
X-324014Y120284D01*
X-320060Y121569D01*
X-316355Y123457D01*
X-312991Y125901D01*
X-310051Y128841D01*
X-307607Y132205D01*
X-305719Y135910D01*
X-304434Y139864D01*
X-303784Y143971D01*
Y148129D01*
X-304434Y152236D01*
X-305719Y156190D01*
X-307607Y159895D01*
X-310051Y163259D01*
X-312991Y166199D01*
X-316355Y168643D01*
X-320060Y170531D01*
X-324014Y171816D01*
X-328121Y172466D01*
D02*
G37*
G36*
X324650Y118324D02*
X323050D01*
X321571Y117711D01*
X320439Y116579D01*
X319826Y115100D01*
Y113500D01*
X320439Y112021D01*
X321571Y110889D01*
X323050Y110276D01*
X324650D01*
X326129Y110889D01*
X327261Y112021D01*
X327874Y113500D01*
Y115100D01*
X327261Y116579D01*
X326129Y117711D01*
X324650Y118324D01*
D02*
G37*
G36*
X248450D02*
X246850D01*
X245371Y117711D01*
X244239Y116579D01*
X243626Y115100D01*
Y113500D01*
X244239Y112021D01*
X245371Y110889D01*
X246850Y110276D01*
X248450D01*
X249929Y110889D01*
X251061Y112021D01*
X251674Y113500D01*
Y115100D01*
X251061Y116579D01*
X249929Y117711D01*
X248450Y118324D01*
D02*
G37*
G36*
X172250D02*
X170650D01*
X169171Y117711D01*
X168039Y116579D01*
X167426Y115100D01*
Y113500D01*
X168039Y112021D01*
X169171Y110889D01*
X170650Y110276D01*
X172250D01*
X173729Y110889D01*
X174861Y112021D01*
X175474Y113500D01*
Y115100D01*
X174861Y116579D01*
X173729Y117711D01*
X172250Y118324D01*
D02*
G37*
G36*
X96050D02*
X94450D01*
X92971Y117711D01*
X91839Y116579D01*
X91226Y115100D01*
Y113500D01*
X91839Y112021D01*
X92971Y110889D01*
X94450Y110276D01*
X96050D01*
X97529Y110889D01*
X98661Y112021D01*
X99274Y113500D01*
Y115100D01*
X98661Y116579D01*
X97529Y117711D01*
X96050Y118324D01*
D02*
G37*
G36*
X19850D02*
X18250D01*
X16771Y117711D01*
X15639Y116579D01*
X15026Y115100D01*
Y113500D01*
X15639Y112021D01*
X16771Y110889D01*
X18250Y110276D01*
X19850D01*
X21329Y110889D01*
X22461Y112021D01*
X23074Y113500D01*
Y115100D01*
X22461Y116579D01*
X21329Y117711D01*
X19850Y118324D01*
D02*
G37*
G36*
X-56350D02*
X-57950D01*
X-59429Y117711D01*
X-60561Y116579D01*
X-61174Y115100D01*
Y113500D01*
X-60561Y112021D01*
X-59429Y110889D01*
X-57950Y110276D01*
X-56350D01*
X-54871Y110889D01*
X-53739Y112021D01*
X-53126Y113500D01*
Y115100D01*
X-53739Y116579D01*
X-54871Y117711D01*
X-56350Y118324D01*
D02*
G37*
G36*
X-132550D02*
X-134150D01*
X-135629Y117711D01*
X-136761Y116579D01*
X-137374Y115100D01*
Y113500D01*
X-136761Y112021D01*
X-135629Y110889D01*
X-134150Y110276D01*
X-132550D01*
X-131071Y110889D01*
X-129939Y112021D01*
X-129326Y113500D01*
Y115100D01*
X-129939Y116579D01*
X-131071Y117711D01*
X-132550Y118324D01*
D02*
G37*
G36*
X-208750D02*
X-210350D01*
X-211829Y117711D01*
X-212961Y116579D01*
X-213574Y115100D01*
Y113500D01*
X-212961Y112021D01*
X-211829Y110889D01*
X-210350Y110276D01*
X-208750D01*
X-207271Y110889D01*
X-206139Y112021D01*
X-205526Y113500D01*
Y115100D01*
X-206139Y116579D01*
X-207271Y117711D01*
X-208750Y118324D01*
D02*
G37*
G36*
X-284950D02*
X-286550D01*
X-288029Y117711D01*
X-289161Y116579D01*
X-289774Y115100D01*
Y113500D01*
X-289161Y112021D01*
X-288029Y110889D01*
X-286550Y110276D01*
X-284950D01*
X-283471Y110889D01*
X-282339Y112021D01*
X-281726Y113500D01*
Y115100D01*
X-282339Y116579D01*
X-283471Y117711D01*
X-284950Y118324D01*
D02*
G37*
G36*
X228026Y105791D02*
X212024D01*
Y84709D01*
X228026D01*
Y105791D01*
D02*
G37*
G36*
X138176D02*
X122174D01*
Y84709D01*
X138176D01*
Y105791D01*
D02*
G37*
G36*
X200025Y105860D02*
X197936Y105585D01*
X195990Y104779D01*
X194319Y103496D01*
X193036Y101825D01*
X192230Y99879D01*
X191955Y97790D01*
Y92710D01*
X192230Y90621D01*
X193036Y88675D01*
X194319Y87004D01*
X195990Y85721D01*
X197936Y84915D01*
X200025Y84640D01*
X202114Y84915D01*
X204060Y85721D01*
X205731Y87004D01*
X207014Y88675D01*
X207820Y90621D01*
X208095Y92710D01*
Y97790D01*
X207820Y99879D01*
X207014Y101825D01*
X205731Y103496D01*
X204060Y104779D01*
X202114Y105585D01*
X200025Y105860D01*
D02*
G37*
G36*
X110175D02*
X108086Y105585D01*
X106140Y104779D01*
X104469Y103496D01*
X103186Y101825D01*
X102380Y99879D01*
X102105Y97790D01*
Y92710D01*
X102380Y90621D01*
X103186Y88675D01*
X104469Y87004D01*
X106140Y85721D01*
X108086Y84915D01*
X110175Y84640D01*
X112264Y84915D01*
X114210Y85721D01*
X115881Y87004D01*
X117164Y88675D01*
X117970Y90621D01*
X118245Y92710D01*
Y97790D01*
X117970Y99879D01*
X117164Y101825D01*
X115881Y103496D01*
X114210Y104779D01*
X112264Y105585D01*
X110175Y105860D01*
D02*
G37*
G36*
X-248124Y78295D02*
X-249716D01*
X-251186Y77686D01*
X-252311Y76561D01*
X-252920Y75091D01*
Y73499D01*
X-252311Y72029D01*
X-251186Y70904D01*
X-249716Y70295D01*
X-248124D01*
X-246654Y70904D01*
X-245529Y72029D01*
X-244920Y73499D01*
Y75091D01*
X-245529Y76561D01*
X-246654Y77686D01*
X-248124Y78295D01*
D02*
G37*
G36*
X-80484Y77660D02*
X-82076D01*
X-83546Y77051D01*
X-84671Y75926D01*
X-85280Y74456D01*
Y72864D01*
X-84671Y71394D01*
X-83546Y70269D01*
X-82076Y69660D01*
X-80484D01*
X-79014Y70269D01*
X-77889Y71394D01*
X-77280Y72864D01*
Y74456D01*
X-77889Y75926D01*
X-79014Y77051D01*
X-80484Y77660D01*
D02*
G37*
G36*
X-248124Y68135D02*
X-249716D01*
X-251186Y67526D01*
X-252311Y66401D01*
X-252920Y64931D01*
Y63339D01*
X-252311Y61869D01*
X-251186Y60744D01*
X-249716Y60135D01*
X-248124D01*
X-246654Y60744D01*
X-245529Y61869D01*
X-244920Y63339D01*
Y64931D01*
X-245529Y66401D01*
X-246654Y67526D01*
X-248124Y68135D01*
D02*
G37*
G36*
X-80484Y67500D02*
X-82076D01*
X-83546Y66891D01*
X-84671Y65766D01*
X-85280Y64296D01*
Y62704D01*
X-84671Y61234D01*
X-83546Y60109D01*
X-82076Y59500D01*
X-80484D01*
X-79014Y60109D01*
X-77889Y61234D01*
X-77280Y62704D01*
Y64296D01*
X-77889Y65766D01*
X-79014Y66891D01*
X-80484Y67500D01*
D02*
G37*
G36*
X220723Y54897D02*
X219132D01*
X217662Y54289D01*
X216537Y53163D01*
X215928Y51693D01*
Y50102D01*
X216537Y48632D01*
X217662Y47506D01*
X219132Y46898D01*
X220723D01*
X222193Y47506D01*
X223319Y48632D01*
X223927Y50102D01*
Y51693D01*
X223319Y53163D01*
X222193Y54289D01*
X220723Y54897D01*
D02*
G37*
G36*
X200723D02*
X199132D01*
X197662Y54289D01*
X196537Y53163D01*
X195928Y51693D01*
Y50102D01*
X196537Y48632D01*
X197662Y47506D01*
X199132Y46898D01*
X200723D01*
X202193Y47506D01*
X203319Y48632D01*
X203927Y50102D01*
Y51693D01*
X203319Y53163D01*
X202193Y54289D01*
X200723Y54897D01*
D02*
G37*
G36*
X130873D02*
X129282D01*
X127812Y54289D01*
X126686Y53163D01*
X126077Y51693D01*
Y50102D01*
X126686Y48632D01*
X127812Y47506D01*
X129282Y46898D01*
X130873D01*
X132343Y47506D01*
X133469Y48632D01*
X134078Y50102D01*
Y51693D01*
X133469Y53163D01*
X132343Y54289D01*
X130873Y54897D01*
D02*
G37*
G36*
X110873D02*
X109282D01*
X107812Y54289D01*
X106686Y53163D01*
X106077Y51693D01*
Y50102D01*
X106686Y48632D01*
X107812Y47506D01*
X109282Y46898D01*
X110873D01*
X112343Y47506D01*
X113469Y48632D01*
X114078Y50102D01*
Y51693D01*
X113469Y53163D01*
X112343Y54289D01*
X110873Y54897D01*
D02*
G37*
G36*
X237016Y54800D02*
X235424D01*
X233954Y54191D01*
X232829Y53066D01*
X232220Y51596D01*
Y50004D01*
X232829Y48534D01*
X233954Y47409D01*
X235424Y46800D01*
X237016D01*
X238486Y47409D01*
X239611Y48534D01*
X240220Y50004D01*
Y51596D01*
X239611Y53066D01*
X238486Y54191D01*
X237016Y54800D01*
D02*
G37*
G36*
X184946D02*
X183354D01*
X181884Y54191D01*
X180759Y53066D01*
X180150Y51596D01*
Y50004D01*
X180759Y48534D01*
X181884Y47409D01*
X183354Y46800D01*
X184946D01*
X186416Y47409D01*
X187541Y48534D01*
X188150Y50004D01*
Y51596D01*
X187541Y53066D01*
X186416Y54191D01*
X184946Y54800D01*
D02*
G37*
G36*
X146846D02*
X145254D01*
X143784Y54191D01*
X142659Y53066D01*
X142050Y51596D01*
Y50004D01*
X142659Y48534D01*
X143784Y47409D01*
X145254Y46800D01*
X146846D01*
X148316Y47409D01*
X149441Y48534D01*
X150050Y50004D01*
Y51596D01*
X149441Y53066D01*
X148316Y54191D01*
X146846Y54800D01*
D02*
G37*
G36*
X94776D02*
X93184D01*
X91714Y54191D01*
X90589Y53066D01*
X89980Y51596D01*
Y50004D01*
X90589Y48534D01*
X91714Y47409D01*
X93184Y46800D01*
X94776D01*
X96246Y47409D01*
X97371Y48534D01*
X97980Y50004D01*
Y51596D01*
X97371Y53066D01*
X96246Y54191D01*
X94776Y54800D01*
D02*
G37*
G36*
X-150344Y50000D02*
X-151936D01*
X-153406Y49391D01*
X-154531Y48266D01*
X-155140Y46796D01*
Y45204D01*
X-154531Y43734D01*
X-153406Y42609D01*
X-151936Y42000D01*
X-150344D01*
X-148874Y42609D01*
X-147749Y43734D01*
X-147140Y45204D01*
Y46796D01*
X-147749Y48266D01*
X-148874Y49391D01*
X-150344Y50000D01*
D02*
G37*
G36*
X-52544Y49720D02*
X-54136D01*
X-55606Y49111D01*
X-56731Y47986D01*
X-57340Y46516D01*
Y44924D01*
X-56731Y43454D01*
X-55606Y42329D01*
X-54136Y41720D01*
X-52544D01*
X-51074Y42329D01*
X-49949Y43454D01*
X-49340Y44924D01*
Y46516D01*
X-49949Y47986D01*
X-51074Y49111D01*
X-52544Y49720D01*
D02*
G37*
G36*
X-130175Y105860D02*
X-132264Y105585D01*
X-134210Y104779D01*
X-135881Y103496D01*
X-137164Y101825D01*
X-137970Y99879D01*
X-138245Y97790D01*
Y92710D01*
X-137970Y90621D01*
X-137164Y88675D01*
X-135881Y87004D01*
X-134210Y85721D01*
X-132264Y84915D01*
X-130175Y84640D01*
X-128086Y84915D01*
X-127417Y85192D01*
X-127344Y85147D01*
X-127235Y85065D01*
X-127102Y84952D01*
X-126932Y84790D01*
X-126815Y84744D01*
X-125447Y83377D01*
Y66296D01*
X-125319Y65652D01*
X-124954Y65106D01*
X-124136Y64288D01*
X-124136Y64287D01*
X-121126Y61277D01*
X-121125Y61277D01*
X-116996Y57147D01*
X-116741Y55606D01*
X-117350Y54136D01*
Y52544D01*
X-116741Y51074D01*
X-115616Y49949D01*
X-114731Y49582D01*
Y48208D01*
X-115616Y47841D01*
X-116741Y46716D01*
X-117350Y45246D01*
Y43654D01*
X-116741Y42184D01*
X-115616Y41059D01*
X-114146Y40450D01*
X-112554D01*
X-111084Y41059D01*
X-109959Y42184D01*
X-109350Y43654D01*
Y45246D01*
X-109959Y46716D01*
X-111084Y47841D01*
X-111969Y48208D01*
Y49582D01*
X-111084Y49949D01*
X-109959Y51074D01*
X-109350Y52544D01*
Y54136D01*
X-109959Y55606D01*
X-111084Y56731D01*
X-112438Y57292D01*
X-112557Y57469D01*
X-113317Y58230D01*
X-112791Y59500D01*
X-112554D01*
X-111084Y60109D01*
X-109959Y61234D01*
X-109350Y62704D01*
Y64296D01*
X-109959Y65766D01*
X-111084Y66891D01*
X-111969Y67258D01*
Y68632D01*
X-111084Y68999D01*
X-109959Y70124D01*
X-109350Y71594D01*
Y73186D01*
X-109959Y74656D01*
X-111084Y75781D01*
X-112554Y76390D01*
X-114146D01*
X-115616Y75781D01*
X-116741Y74656D01*
X-117350Y73186D01*
Y71594D01*
X-116741Y70124D01*
X-115616Y68999D01*
X-114731Y68632D01*
Y67258D01*
X-115616Y66891D01*
X-115946Y66561D01*
X-117686Y66550D01*
X-119287Y68151D01*
Y83758D01*
X-119085Y83960D01*
X-118176Y84709D01*
Y84709D01*
X-118176Y84709D01*
X-102174D01*
Y105791D01*
X-118176D01*
Y88842D01*
X-118347Y88838D01*
X-118579Y88736D01*
X-118965Y88659D01*
X-119511Y88294D01*
X-121708Y86097D01*
X-122065Y85753D01*
X-123280Y86046D01*
X-124023Y87139D01*
X-123702Y88003D01*
X-123186Y88675D01*
X-122380Y90621D01*
X-122105Y92710D01*
Y97790D01*
X-122380Y99879D01*
X-123186Y101825D01*
X-124469Y103496D01*
X-126140Y104779D01*
X-128086Y105585D01*
X-130175Y105860D01*
D02*
G37*
G36*
X-220025D02*
X-222114Y105585D01*
X-224060Y104779D01*
X-225731Y103496D01*
X-227014Y101825D01*
X-227820Y99879D01*
X-228095Y97790D01*
Y92710D01*
X-227820Y90621D01*
X-227014Y88675D01*
X-225731Y87004D01*
X-224060Y85721D01*
X-222114Y84915D01*
X-220025Y84640D01*
X-217936Y84915D01*
X-217267Y85192D01*
X-217194Y85147D01*
X-217085Y85065D01*
X-216952Y84952D01*
X-216782Y84790D01*
X-216665Y84744D01*
X-215297Y83377D01*
Y66296D01*
X-215169Y65652D01*
X-214804Y65106D01*
X-213986Y64288D01*
X-213986Y64287D01*
X-210976Y61277D01*
X-210975Y61277D01*
X-206237Y56538D01*
X-206237Y56538D01*
X-205948Y56249D01*
X-206591Y55606D01*
X-207200Y54136D01*
Y52544D01*
X-206591Y51074D01*
X-205466Y49949D01*
X-204581Y49582D01*
Y48208D01*
X-205466Y47841D01*
X-206591Y46716D01*
X-207200Y45246D01*
Y43654D01*
X-206591Y42184D01*
X-205466Y41059D01*
X-203996Y40450D01*
X-202404D01*
X-200934Y41059D01*
X-199809Y42184D01*
X-199200Y43654D01*
Y45246D01*
X-199809Y46716D01*
X-200934Y47841D01*
X-201819Y48208D01*
Y49582D01*
X-200934Y49949D01*
X-199809Y51074D01*
X-199200Y52544D01*
Y54136D01*
X-199809Y55606D01*
X-200934Y56731D01*
X-202288Y57292D01*
X-202407Y57469D01*
X-203167Y58230D01*
X-202641Y59500D01*
X-202404D01*
X-200934Y60109D01*
X-199809Y61234D01*
X-199200Y62704D01*
Y64296D01*
X-199809Y65766D01*
X-200934Y66891D01*
X-201819Y67258D01*
Y68632D01*
X-200934Y68999D01*
X-199809Y70124D01*
X-199200Y71594D01*
Y73186D01*
X-199809Y74656D01*
X-200934Y75781D01*
X-202404Y76390D01*
X-203996D01*
X-205466Y75781D01*
X-206591Y74656D01*
X-207200Y73186D01*
Y71594D01*
X-206591Y70124D01*
X-205466Y68999D01*
X-204581Y68632D01*
Y67258D01*
X-205466Y66891D01*
X-206591Y65766D01*
X-206725Y65739D01*
X-209137Y68151D01*
Y83758D01*
X-208935Y83960D01*
X-208026Y84709D01*
Y84709D01*
X-208026Y84709D01*
X-192024D01*
Y105791D01*
X-208026D01*
Y88842D01*
X-208197Y88838D01*
X-208428Y88736D01*
X-208815Y88659D01*
X-209361Y88294D01*
X-211558Y86097D01*
X-211915Y85753D01*
X-213130Y86046D01*
X-213873Y87139D01*
X-213552Y88003D01*
X-213036Y88675D01*
X-212230Y90621D01*
X-211955Y92710D01*
Y97790D01*
X-212230Y99879D01*
X-213036Y101825D01*
X-214319Y103496D01*
X-215990Y104779D01*
X-217936Y105585D01*
X-220025Y105860D01*
D02*
G37*
G36*
X286550Y42124D02*
X284950D01*
X283471Y41511D01*
X282339Y40379D01*
X281726Y38900D01*
Y37300D01*
X282339Y35821D01*
X283471Y34689D01*
X284950Y34076D01*
X286550D01*
X288029Y34689D01*
X289161Y35821D01*
X289774Y37300D01*
Y38900D01*
X289161Y40379D01*
X288029Y41511D01*
X286550Y42124D01*
D02*
G37*
G36*
X210350D02*
X208750D01*
X207271Y41511D01*
X206139Y40379D01*
X205526Y38900D01*
Y37300D01*
X206139Y35821D01*
X207271Y34689D01*
X208750Y34076D01*
X210350D01*
X211829Y34689D01*
X212961Y35821D01*
X213574Y37300D01*
Y38900D01*
X212961Y40379D01*
X211829Y41511D01*
X210350Y42124D01*
D02*
G37*
G36*
X57950D02*
X56350D01*
X54871Y41511D01*
X53739Y40379D01*
X53126Y38900D01*
Y37300D01*
X53739Y35821D01*
X54871Y34689D01*
X56350Y34076D01*
X57950D01*
X59429Y34689D01*
X60561Y35821D01*
X61174Y37300D01*
Y38900D01*
X60561Y40379D01*
X59429Y41511D01*
X57950Y42124D01*
D02*
G37*
G36*
X-18250D02*
X-19850D01*
X-21329Y41511D01*
X-22461Y40379D01*
X-23074Y38900D01*
Y37300D01*
X-22461Y35821D01*
X-21329Y34689D01*
X-19850Y34076D01*
X-18250D01*
X-16771Y34689D01*
X-15639Y35821D01*
X-15026Y37300D01*
Y38900D01*
X-15639Y40379D01*
X-16771Y41511D01*
X-18250Y42124D01*
D02*
G37*
G36*
X-246850D02*
X-248450D01*
X-249929Y41511D01*
X-251061Y40379D01*
X-251674Y38900D01*
Y37300D01*
X-251061Y35821D01*
X-249929Y34689D01*
X-248450Y34076D01*
X-246850D01*
X-245371Y34689D01*
X-244239Y35821D01*
X-243626Y37300D01*
Y38900D01*
X-244239Y40379D01*
X-245371Y41511D01*
X-246850Y42124D01*
D02*
G37*
G36*
X-323050D02*
X-324650D01*
X-326129Y41511D01*
X-327261Y40379D01*
X-327874Y38900D01*
Y37300D01*
X-327261Y35821D01*
X-326129Y34689D01*
X-324650Y34076D01*
X-323050D01*
X-321571Y34689D01*
X-320439Y35821D01*
X-319826Y37300D01*
Y38900D01*
X-320439Y40379D01*
X-321571Y41511D01*
X-323050Y42124D01*
D02*
G37*
G36*
X-150344Y32220D02*
X-151936D01*
X-153406Y31611D01*
X-154531Y30486D01*
X-155140Y29016D01*
Y27424D01*
X-154531Y25954D01*
X-153406Y24829D01*
X-151936Y24220D01*
X-150344D01*
X-148874Y24829D01*
X-147749Y25954D01*
X-147140Y27424D01*
Y29016D01*
X-147749Y30486D01*
X-148874Y31611D01*
X-150344Y32220D01*
D02*
G37*
G36*
X292896Y26352D02*
X291304D01*
X289834Y25743D01*
X288709Y24618D01*
X288100Y23148D01*
Y21556D01*
X288709Y20086D01*
X289834Y18961D01*
X291304Y18352D01*
X292896D01*
X294366Y18961D01*
X295491Y20086D01*
X296100Y21556D01*
Y23148D01*
X295491Y24618D01*
X294366Y25743D01*
X292896Y26352D01*
D02*
G37*
G36*
X261487Y34036D02*
X259213D01*
X257017Y33447D01*
X255047Y32311D01*
X253440Y30703D01*
X252302Y28733D01*
X251714Y26537D01*
Y24263D01*
X252302Y22067D01*
X253440Y20097D01*
X255047Y18490D01*
X257017Y17352D01*
X259213Y16764D01*
X261487D01*
X263683Y17352D01*
X265653Y18490D01*
X267260Y20097D01*
X268398Y22067D01*
X268986Y24263D01*
Y26537D01*
X268398Y28733D01*
X267260Y30703D01*
X265653Y32311D01*
X263683Y33447D01*
X261487Y34036D01*
D02*
G37*
G36*
X236087D02*
X233813D01*
X231617Y33447D01*
X229647Y32311D01*
X228039Y30703D01*
X226903Y28733D01*
X226314Y26537D01*
Y24263D01*
X226903Y22067D01*
X228039Y20097D01*
X229647Y18490D01*
X231617Y17352D01*
X233813Y16764D01*
X236087D01*
X238283Y17352D01*
X240253Y18490D01*
X241861Y20097D01*
X242997Y22067D01*
X243586Y24263D01*
Y26537D01*
X242997Y28733D01*
X241861Y30703D01*
X240253Y32311D01*
X238283Y33447D01*
X236087Y34036D01*
D02*
G37*
G36*
X148796Y16700D02*
X147204D01*
X145734Y16091D01*
X144720Y15077D01*
X144000Y15017D01*
X143280Y15077D01*
X142266Y16091D01*
X140796Y16700D01*
X139204D01*
X137734Y16091D01*
X136720Y15077D01*
X136000Y15017D01*
X135280Y15077D01*
X134266Y16091D01*
X132796Y16700D01*
X131204D01*
X129734Y16091D01*
X128609Y14966D01*
X128000Y13496D01*
Y11904D01*
X128609Y10434D01*
X129734Y9309D01*
X131204Y8700D01*
X132796D01*
X134266Y9309D01*
X135280Y10323D01*
X136000Y10383D01*
X136720Y10323D01*
X137734Y9309D01*
X139204Y8700D01*
X140796D01*
X142266Y9309D01*
X143280Y10323D01*
X144000Y10383D01*
X144720Y10323D01*
X145734Y9309D01*
X147204Y8700D01*
X148796D01*
X150266Y9309D01*
X151391Y10434D01*
X152000Y11904D01*
Y13496D01*
X151391Y14966D01*
X150266Y16091D01*
X148796Y16700D01*
D02*
G37*
G36*
X-11204D02*
X-12796D01*
X-14266Y16091D01*
X-15280Y15077D01*
X-16000Y15017D01*
X-16720Y15077D01*
X-17734Y16091D01*
X-19204Y16700D01*
X-20796D01*
X-22266Y16091D01*
X-23391Y14966D01*
X-24000Y13496D01*
Y11904D01*
X-23391Y10434D01*
X-22266Y9309D01*
X-20796Y8700D01*
X-19204D01*
X-17734Y9309D01*
X-16720Y10323D01*
X-16000Y10383D01*
X-15280Y10323D01*
X-14266Y9309D01*
X-12796Y8700D01*
X-11204D01*
X-9734Y9309D01*
X-8609Y10434D01*
X-8000Y11904D01*
Y13496D01*
X-8609Y14966D01*
X-9734Y16091D01*
X-11204Y16700D01*
D02*
G37*
G36*
X292896Y-2350D02*
X291304D01*
X289834Y-2959D01*
X288709Y-4084D01*
X288100Y-5554D01*
Y-7146D01*
X288709Y-8616D01*
X289834Y-9741D01*
X291304Y-10350D01*
X292896D01*
X294366Y-9741D01*
X295491Y-8616D01*
X296100Y-7146D01*
Y-5554D01*
X295491Y-4084D01*
X294366Y-2959D01*
X292896Y-2350D01*
D02*
G37*
G36*
X254796D02*
X253204D01*
X251734Y-2959D01*
X250609Y-4084D01*
X250000Y-5554D01*
Y-7146D01*
X250609Y-8616D01*
X251734Y-9741D01*
X253204Y-10350D01*
X254796D01*
X256266Y-9741D01*
X257391Y-8616D01*
X258000Y-7146D01*
Y-5554D01*
X257391Y-4084D01*
X256266Y-2959D01*
X254796Y-2350D01*
D02*
G37*
G36*
X201456Y-4890D02*
X199864D01*
X198394Y-5499D01*
X197269Y-6624D01*
X196660Y-8094D01*
Y-9686D01*
X197269Y-11156D01*
X198394Y-12281D01*
X199864Y-12890D01*
X201456D01*
X202926Y-12281D01*
X204051Y-11156D01*
X204660Y-9686D01*
Y-8094D01*
X204051Y-6624D01*
X202926Y-5499D01*
X201456Y-4890D01*
D02*
G37*
G36*
X209076Y-12510D02*
X207484D01*
X206014Y-13119D01*
X204889Y-14244D01*
X204280Y-15714D01*
Y-17306D01*
X204889Y-18776D01*
X206014Y-19901D01*
X207484Y-20510D01*
X209076D01*
X210546Y-19901D01*
X211671Y-18776D01*
X212280Y-17306D01*
Y-15714D01*
X211671Y-14244D01*
X210546Y-13119D01*
X209076Y-12510D01*
D02*
G37*
G36*
X254796Y-15050D02*
X253204D01*
X251734Y-15659D01*
X250609Y-16784D01*
X250000Y-18254D01*
Y-19846D01*
X250609Y-21316D01*
X251734Y-22441D01*
X253204Y-23050D01*
X254796D01*
X256266Y-22441D01*
X257391Y-21316D01*
X258000Y-19846D01*
Y-18254D01*
X257391Y-16784D01*
X256266Y-15659D01*
X254796Y-15050D01*
D02*
G37*
G36*
X292896Y-18098D02*
X291304D01*
X289834Y-18707D01*
X288709Y-19832D01*
X288100Y-21302D01*
Y-22894D01*
X288709Y-24364D01*
X289834Y-25489D01*
X291304Y-26098D01*
X292896D01*
X294366Y-25489D01*
X295491Y-24364D01*
X296100Y-22894D01*
Y-21302D01*
X295491Y-19832D01*
X294366Y-18707D01*
X292896Y-18098D01*
D02*
G37*
G36*
X-62704Y49720D02*
X-64296D01*
X-65766Y49111D01*
X-66891Y47986D01*
X-67500Y46516D01*
Y44924D01*
X-66891Y43454D01*
X-65766Y42329D01*
X-65216Y42101D01*
X-65183Y42032D01*
Y38971D01*
X-65055Y38327D01*
X-64690Y37781D01*
X-64614Y37705D01*
X-64074Y36830D01*
X-64614Y35956D01*
X-64690Y35879D01*
X-65055Y35333D01*
X-65183Y34689D01*
Y31628D01*
X-65216Y31559D01*
X-65766Y31331D01*
X-66891Y30206D01*
X-67500Y28736D01*
Y27144D01*
X-66891Y25674D01*
X-65766Y24549D01*
X-64296Y23940D01*
X-62704D01*
X-61234Y24549D01*
X-60109Y25674D01*
X-59500Y27144D01*
Y28736D01*
X-60109Y30206D01*
X-61234Y31331D01*
X-61784Y31559D01*
X-61817Y31628D01*
Y33750D01*
X-53148D01*
X-52689Y33177D01*
X-53324Y31940D01*
X-54136D01*
X-55606Y31331D01*
X-56731Y30206D01*
X-57340Y28736D01*
Y27144D01*
X-56731Y25674D01*
X-55606Y24549D01*
X-54136Y23940D01*
X-52544D01*
X-51074Y24549D01*
X-49949Y25674D01*
X-49340Y27144D01*
Y27747D01*
X-49239Y27865D01*
X-48070Y28380D01*
X-47657Y28021D01*
Y18651D01*
X-47529Y18007D01*
X-47164Y17461D01*
X-5354Y-24349D01*
X-4808Y-24714D01*
X-4164Y-24842D01*
X0D01*
Y-25796D01*
X609Y-27266D01*
X1734Y-28391D01*
X3204Y-29000D01*
X4796D01*
X6266Y-28391D01*
X7280Y-27377D01*
X8000Y-27317D01*
X8720Y-27377D01*
X9734Y-28391D01*
X11204Y-29000D01*
X12796D01*
X14266Y-28391D01*
X15391Y-27266D01*
X16000Y-25796D01*
Y-24204D01*
X15391Y-22734D01*
X14266Y-21609D01*
X12796Y-21000D01*
X11204D01*
X10654Y-21228D01*
X10583Y-21202D01*
X8555Y-19175D01*
X8009Y-18810D01*
X7365Y-18682D01*
X-2309D01*
X-41497Y20505D01*
Y30480D01*
X-41625Y31124D01*
X-41990Y31670D01*
X-49737Y39417D01*
X-50283Y39782D01*
X-50927Y39910D01*
X-61817D01*
Y42032D01*
X-61784Y42101D01*
X-61234Y42329D01*
X-60109Y43454D01*
X-59500Y44924D01*
Y46516D01*
X-60109Y47986D01*
X-61234Y49111D01*
X-62704Y49720D01*
D02*
G37*
G36*
X324650Y-34076D02*
X323050D01*
X321571Y-34689D01*
X320439Y-35821D01*
X319826Y-37300D01*
Y-38900D01*
X320439Y-40379D01*
X321571Y-41511D01*
X323050Y-42124D01*
X324650D01*
X326129Y-41511D01*
X327261Y-40379D01*
X327874Y-38900D01*
Y-37300D01*
X327261Y-35821D01*
X326129Y-34689D01*
X324650Y-34076D01*
D02*
G37*
G36*
X248450D02*
X246850D01*
X245371Y-34689D01*
X244239Y-35821D01*
X243626Y-37300D01*
Y-38900D01*
X244239Y-40379D01*
X245371Y-41511D01*
X246850Y-42124D01*
X248450D01*
X249929Y-41511D01*
X251061Y-40379D01*
X251674Y-38900D01*
Y-37300D01*
X251061Y-35821D01*
X249929Y-34689D01*
X248450Y-34076D01*
D02*
G37*
G36*
X172250D02*
X170650D01*
X169171Y-34689D01*
X168039Y-35821D01*
X167426Y-37300D01*
Y-38900D01*
X168039Y-40379D01*
X169171Y-41511D01*
X170650Y-42124D01*
X172250D01*
X173729Y-41511D01*
X174861Y-40379D01*
X175474Y-38900D01*
Y-37300D01*
X174861Y-35821D01*
X173729Y-34689D01*
X172250Y-34076D01*
D02*
G37*
G36*
X-208750D02*
X-210350D01*
X-211829Y-34689D01*
X-212961Y-35821D01*
X-213574Y-37300D01*
Y-38900D01*
X-212961Y-40379D01*
X-211829Y-41511D01*
X-210350Y-42124D01*
X-208750D01*
X-207271Y-41511D01*
X-206139Y-40379D01*
X-205526Y-38900D01*
Y-37300D01*
X-206139Y-35821D01*
X-207271Y-34689D01*
X-208750Y-34076D01*
D02*
G37*
G36*
X-284950D02*
X-286550D01*
X-288029Y-34689D01*
X-289161Y-35821D01*
X-289774Y-37300D01*
Y-38900D01*
X-289161Y-40379D01*
X-288029Y-41511D01*
X-286550Y-42124D01*
X-284950D01*
X-283471Y-41511D01*
X-282339Y-40379D01*
X-281726Y-38900D01*
Y-37300D01*
X-282339Y-35821D01*
X-283471Y-34689D01*
X-284950Y-34076D01*
D02*
G37*
G36*
X292896Y-46800D02*
X291304D01*
X289834Y-47409D01*
X288709Y-48534D01*
X288100Y-50004D01*
Y-51596D01*
X288709Y-53066D01*
X289834Y-54191D01*
X291304Y-54800D01*
X292896D01*
X294366Y-54191D01*
X295491Y-53066D01*
X296100Y-51596D01*
Y-50004D01*
X295491Y-48534D01*
X294366Y-47409D01*
X292896Y-46800D01*
D02*
G37*
G36*
X254796D02*
X253204D01*
X251734Y-47409D01*
X250609Y-48534D01*
X250000Y-50004D01*
Y-51596D01*
X250609Y-53066D01*
X251734Y-54191D01*
X253204Y-54800D01*
X254796D01*
X256266Y-54191D01*
X257391Y-53066D01*
X258000Y-51596D01*
Y-50004D01*
X257391Y-48534D01*
X256266Y-47409D01*
X254796Y-46800D01*
D02*
G37*
G36*
X201456Y-49340D02*
X199864D01*
X198394Y-49949D01*
X197269Y-51074D01*
X196660Y-52544D01*
Y-54136D01*
X197269Y-55606D01*
X198394Y-56731D01*
X199864Y-57340D01*
X201456D01*
X202926Y-56731D01*
X204051Y-55606D01*
X204660Y-54136D01*
Y-52544D01*
X204051Y-51074D01*
X202926Y-49949D01*
X201456Y-49340D01*
D02*
G37*
G36*
X-131204Y-59500D02*
X-132796D01*
X-134266Y-60109D01*
X-135280Y-61123D01*
X-136000Y-61183D01*
X-136720Y-61123D01*
X-137734Y-60109D01*
X-139204Y-59500D01*
X-140796D01*
X-142266Y-60109D01*
X-143280Y-61123D01*
X-144000Y-61183D01*
X-144720Y-61123D01*
X-145734Y-60109D01*
X-147204Y-59500D01*
X-148796D01*
X-150266Y-60109D01*
X-151391Y-61234D01*
X-152000Y-62704D01*
Y-64296D01*
X-151391Y-65766D01*
X-150266Y-66891D01*
X-148796Y-67500D01*
X-147204D01*
X-145734Y-66891D01*
X-144720Y-65877D01*
X-144000Y-65817D01*
X-143280Y-65877D01*
X-142266Y-66891D01*
X-140796Y-67500D01*
X-139204D01*
X-137734Y-66891D01*
X-136720Y-65877D01*
X-136000Y-65817D01*
X-135280Y-65877D01*
X-134266Y-66891D01*
X-132796Y-67500D01*
X-131204D01*
X-129734Y-66891D01*
X-128609Y-65766D01*
X-128000Y-64296D01*
Y-62704D01*
X-128609Y-61234D01*
X-129734Y-60109D01*
X-131204Y-59500D01*
D02*
G37*
G36*
X12796Y-62000D02*
X11204D01*
X9734Y-62609D01*
X8720Y-63623D01*
X8000Y-63683D01*
X7280Y-63623D01*
X6266Y-62609D01*
X4796Y-62000D01*
X3204D01*
X1734Y-62609D01*
X609Y-63734D01*
X0Y-65204D01*
Y-66796D01*
X609Y-68266D01*
X1734Y-69391D01*
X3204Y-70000D01*
X4796D01*
X6266Y-69391D01*
X7280Y-68377D01*
X8000Y-68317D01*
X8720Y-68377D01*
X9734Y-69391D01*
X11204Y-70000D01*
X12796D01*
X14266Y-69391D01*
X15391Y-68266D01*
X16000Y-66796D01*
Y-65204D01*
X15391Y-63734D01*
X14266Y-62609D01*
X12796Y-62000D01*
D02*
G37*
G36*
X209076Y-56960D02*
X207484D01*
X206014Y-57569D01*
X204889Y-58694D01*
X204280Y-60164D01*
Y-61756D01*
X204889Y-63226D01*
X206014Y-64351D01*
X207484Y-64960D01*
X209076D01*
X210546Y-64351D01*
X211671Y-63226D01*
X212280Y-61756D01*
Y-60164D01*
X211671Y-58694D01*
X210546Y-57569D01*
X209076Y-56960D01*
D02*
G37*
G36*
X254796Y-59500D02*
X253204D01*
X251734Y-60109D01*
X250609Y-61234D01*
X250000Y-62704D01*
Y-64296D01*
X250609Y-65766D01*
X251734Y-66891D01*
X253204Y-67500D01*
X254796D01*
X256266Y-66891D01*
X257391Y-65766D01*
X258000Y-64296D01*
Y-62704D01*
X257391Y-61234D01*
X256266Y-60109D01*
X254796Y-59500D01*
D02*
G37*
G36*
X43976Y-72200D02*
X42384D01*
X40914Y-72809D01*
X39789Y-73934D01*
X39180Y-75404D01*
Y-76996D01*
X39789Y-78466D01*
X40914Y-79591D01*
X42384Y-80200D01*
X43976D01*
X45446Y-79591D01*
X46571Y-78466D01*
X47180Y-76996D01*
Y-75404D01*
X46571Y-73934D01*
X45446Y-72809D01*
X43976Y-72200D01*
D02*
G37*
G36*
X21116D02*
X19524D01*
X18054Y-72809D01*
X16929Y-73934D01*
X16320Y-75404D01*
Y-76996D01*
X16929Y-78466D01*
X18054Y-79591D01*
X19524Y-80200D01*
X21116D01*
X22586Y-79591D01*
X23711Y-78466D01*
X24320Y-76996D01*
Y-75404D01*
X23711Y-73934D01*
X22586Y-72809D01*
X21116Y-72200D01*
D02*
G37*
G36*
X72676Y-84900D02*
X71084D01*
X69614Y-85509D01*
X68489Y-86634D01*
X67880Y-88104D01*
Y-89696D01*
X68489Y-91166D01*
X69614Y-92291D01*
X71084Y-92900D01*
X72676D01*
X74146Y-92291D01*
X75271Y-91166D01*
X75880Y-89696D01*
Y-88104D01*
X75271Y-86634D01*
X74146Y-85509D01*
X72676Y-84900D01*
D02*
G37*
G36*
X-7584D02*
X-9176D01*
X-10646Y-85509D01*
X-11771Y-86634D01*
X-12380Y-88104D01*
Y-89696D01*
X-11771Y-91166D01*
X-10646Y-92291D01*
X-9176Y-92900D01*
X-7584D01*
X-6114Y-92291D01*
X-4989Y-91166D01*
X-4380Y-89696D01*
Y-88104D01*
X-4989Y-86634D01*
X-6114Y-85509D01*
X-7584Y-84900D01*
D02*
G37*
G36*
X332279Y-49784D02*
X328121D01*
X324014Y-50434D01*
X320060Y-51719D01*
X316355Y-53607D01*
X312991Y-56051D01*
X310051Y-58991D01*
X307607Y-62355D01*
X305719Y-66060D01*
X304434Y-70014D01*
X303784Y-74121D01*
Y-78279D01*
X304434Y-82386D01*
X305719Y-86340D01*
X307607Y-90045D01*
X310051Y-93409D01*
X312991Y-96349D01*
X316355Y-98793D01*
X320060Y-100681D01*
X324014Y-101966D01*
X328121Y-102616D01*
X332279D01*
X336386Y-101966D01*
X340340Y-100681D01*
X344045Y-98793D01*
X347409Y-96349D01*
X350349Y-93409D01*
X352793Y-90045D01*
X354681Y-86340D01*
X355966Y-82386D01*
X356616Y-78279D01*
Y-74121D01*
X355966Y-70014D01*
X354681Y-66060D01*
X352793Y-62355D01*
X350349Y-58991D01*
X347409Y-56051D01*
X344045Y-53607D01*
X340340Y-51719D01*
X336386Y-50434D01*
X332279Y-49784D01*
D02*
G37*
G36*
X-328121D02*
X-332279D01*
X-336386Y-50434D01*
X-340340Y-51719D01*
X-344045Y-53607D01*
X-347409Y-56051D01*
X-350349Y-58991D01*
X-352793Y-62355D01*
X-354681Y-66060D01*
X-355966Y-70014D01*
X-356616Y-74121D01*
Y-78279D01*
X-355966Y-82386D01*
X-354681Y-86340D01*
X-352793Y-90045D01*
X-350349Y-93409D01*
X-347409Y-96349D01*
X-344045Y-98793D01*
X-340340Y-100681D01*
X-336386Y-101966D01*
X-332279Y-102616D01*
X-328121D01*
X-324014Y-101966D01*
X-320060Y-100681D01*
X-316355Y-98793D01*
X-312991Y-96349D01*
X-310051Y-93409D01*
X-307607Y-90045D01*
X-305719Y-86340D01*
X-304434Y-82386D01*
X-303784Y-78279D01*
Y-74121D01*
X-304434Y-70014D01*
X-305719Y-66060D01*
X-307607Y-62355D01*
X-310051Y-58991D01*
X-312991Y-56051D01*
X-316355Y-53607D01*
X-320060Y-51719D01*
X-324014Y-50434D01*
X-328121Y-49784D01*
D02*
G37*
G36*
X261487Y-86614D02*
X259213D01*
X257017Y-87203D01*
X255047Y-88340D01*
X253440Y-89947D01*
X252302Y-91917D01*
X251714Y-94113D01*
Y-96387D01*
X252302Y-98583D01*
X253440Y-100553D01*
X255047Y-102161D01*
X257017Y-103298D01*
X259213Y-103886D01*
X261487D01*
X263683Y-103298D01*
X265653Y-102161D01*
X267260Y-100553D01*
X268398Y-98583D01*
X268986Y-96387D01*
Y-94113D01*
X268398Y-91917D01*
X267260Y-89947D01*
X265653Y-88340D01*
X263683Y-87203D01*
X261487Y-86614D01*
D02*
G37*
G36*
X236087D02*
X233813D01*
X231617Y-87203D01*
X229647Y-88340D01*
X228039Y-89947D01*
X226903Y-91917D01*
X226314Y-94113D01*
Y-96387D01*
X226903Y-98583D01*
X228039Y-100553D01*
X229647Y-102161D01*
X231617Y-103298D01*
X233813Y-103886D01*
X236087D01*
X238283Y-103298D01*
X240253Y-102161D01*
X241861Y-100553D01*
X242997Y-98583D01*
X243586Y-96387D01*
Y-94113D01*
X242997Y-91917D01*
X241861Y-89947D01*
X240253Y-88340D01*
X238283Y-87203D01*
X236087Y-86614D01*
D02*
G37*
%LPD*%
G36*
X-117099Y85913D02*
X-117111Y86018D01*
X-117148Y86113D01*
X-117209Y86196D01*
X-117295Y86269D01*
X-117404Y86330D01*
X-117539Y86380D01*
X-117698Y86419D01*
X-117881Y86447D01*
X-118089Y86463D01*
X-118321Y86469D01*
Y87739D01*
X-118089Y87745D01*
X-117881Y87761D01*
X-117698Y87789D01*
X-117539Y87828D01*
X-117404Y87878D01*
X-117295Y87939D01*
X-117209Y88012D01*
X-117148Y88095D01*
X-117111Y88190D01*
X-117099Y88295D01*
Y85913D01*
D02*
G37*
G36*
X-125584Y87523D02*
X-125650Y87435D01*
X-125684Y87334D01*
X-125688Y87220D01*
X-125661Y87094D01*
X-125603Y86955D01*
X-125514Y86804D01*
X-125395Y86639D01*
X-125245Y86462D01*
X-125064Y86272D01*
X-126173Y85585D01*
X-126365Y85768D01*
X-126547Y85924D01*
X-126721Y86054D01*
X-126886Y86158D01*
X-127043Y86235D01*
X-127190Y86286D01*
X-127329Y86311D01*
X-127459Y86309D01*
X-127580Y86281D01*
X-127693Y86227D01*
X-125489Y87599D01*
X-125584Y87523D01*
D02*
G37*
G36*
X-114994Y61947D02*
X-115125Y62073D01*
X-115265Y62185D01*
X-115416Y62285D01*
X-115577Y62371D01*
X-115749Y62444D01*
X-115931Y62503D01*
X-116123Y62550D01*
X-116325Y62583D01*
X-116538Y62603D01*
X-116761Y62609D01*
Y63879D01*
X-116564Y63887D01*
X-116379Y63910D01*
X-116205Y63948D01*
X-116042Y64002D01*
X-115890Y64071D01*
X-115750Y64155D01*
X-115621Y64254D01*
X-115503Y64369D01*
X-115396Y64499D01*
X-115301Y64644D01*
X-114994Y61947D01*
D02*
G37*
G36*
X-113110Y56150D02*
X-113093Y55929D01*
X-113078Y55837D01*
X-113059Y55759D01*
X-113036Y55693D01*
X-113009Y55640D01*
X-112977Y55600D01*
X-112941Y55572D01*
X-112901Y55557D01*
X-114537Y55265D01*
X-114508Y55293D01*
X-114481Y55337D01*
X-114458Y55397D01*
X-114438Y55473D01*
X-114421Y55567D01*
X-114407Y55676D01*
X-114388Y55945D01*
X-114382Y56279D01*
X-113112D01*
X-113110Y56150D01*
D02*
G37*
G36*
X-206949Y85913D02*
X-206961Y86018D01*
X-206998Y86113D01*
X-207059Y86196D01*
X-207145Y86269D01*
X-207255Y86330D01*
X-207389Y86380D01*
X-207548Y86419D01*
X-207731Y86447D01*
X-207939Y86463D01*
X-208171Y86469D01*
Y87739D01*
X-207939Y87745D01*
X-207731Y87761D01*
X-207548Y87789D01*
X-207389Y87828D01*
X-207255Y87878D01*
X-207145Y87939D01*
X-207059Y88012D01*
X-206998Y88095D01*
X-206961Y88190D01*
X-206949Y88295D01*
Y85913D01*
D02*
G37*
G36*
X-215434Y87523D02*
X-215500Y87435D01*
X-215534Y87334D01*
X-215538Y87220D01*
X-215511Y87094D01*
X-215453Y86955D01*
X-215364Y86804D01*
X-215245Y86639D01*
X-215095Y86462D01*
X-214914Y86272D01*
X-216023Y85585D01*
X-216215Y85768D01*
X-216397Y85924D01*
X-216571Y86054D01*
X-216736Y86158D01*
X-216893Y86235D01*
X-217040Y86286D01*
X-217179Y86311D01*
X-217309Y86309D01*
X-217430Y86281D01*
X-217543Y86227D01*
X-215339Y87599D01*
X-215434Y87523D01*
D02*
G37*
G36*
X-204844Y61947D02*
X-204975Y62073D01*
X-205115Y62185D01*
X-205266Y62285D01*
X-205427Y62371D01*
X-205599Y62444D01*
X-205781Y62503D01*
X-205973Y62550D01*
X-206175Y62583D01*
X-206388Y62603D01*
X-206611Y62609D01*
Y63879D01*
X-206414Y63887D01*
X-206229Y63910D01*
X-206055Y63948D01*
X-205892Y64002D01*
X-205741Y64071D01*
X-205600Y64155D01*
X-205471Y64254D01*
X-205353Y64369D01*
X-205247Y64499D01*
X-205151Y64644D01*
X-204844Y61947D01*
D02*
G37*
G36*
X-202960Y56150D02*
X-202943Y55929D01*
X-202928Y55837D01*
X-202909Y55759D01*
X-202886Y55693D01*
X-202859Y55640D01*
X-202827Y55600D01*
X-202791Y55572D01*
X-202751Y55557D01*
X-204387Y55265D01*
X-204358Y55293D01*
X-204331Y55337D01*
X-204308Y55397D01*
X-204288Y55473D01*
X-204271Y55567D01*
X-204257Y55676D01*
X-204238Y55945D01*
X-204232Y56279D01*
X-202962D01*
X-202960Y56150D01*
D02*
G37*
G36*
X-62097Y43918D02*
X-62258Y43731D01*
X-62400Y43542D01*
X-62524Y43352D01*
X-62628Y43162D01*
X-62713Y42970D01*
X-62780Y42777D01*
X-62827Y42583D01*
X-62856Y42388D01*
X-62865Y42192D01*
X-64135D01*
X-64145Y42388D01*
X-64173Y42583D01*
X-64220Y42777D01*
X-64287Y42970D01*
X-64372Y43162D01*
X-64476Y43352D01*
X-64600Y43542D01*
X-64742Y43731D01*
X-64903Y43918D01*
X-65083Y44105D01*
X-61917D01*
X-62097Y43918D01*
D02*
G37*
G36*
X-62856Y31272D02*
X-62827Y31077D01*
X-62780Y30883D01*
X-62713Y30690D01*
X-62628Y30498D01*
X-62524Y30308D01*
X-62400Y30118D01*
X-62258Y29929D01*
X-62097Y29742D01*
X-61917Y29555D01*
X-65083D01*
X-64903Y29742D01*
X-64742Y29929D01*
X-64600Y30118D01*
X-64476Y30308D01*
X-64372Y30498D01*
X-64287Y30690D01*
X-64220Y30883D01*
X-64173Y31077D01*
X-64145Y31272D01*
X-64135Y31468D01*
X-62865D01*
X-62856Y31272D01*
D02*
G37*
G36*
X2188Y-22804D02*
X2365Y-22954D01*
X2445Y-23010D01*
X2519Y-23054D01*
X2588Y-23084D01*
X2650Y-23103D01*
X2707Y-23108D01*
X2758Y-23101D01*
X2803Y-23081D01*
X1799Y-24479D01*
X1802Y-24432D01*
X1791Y-24376D01*
X1766Y-24311D01*
X1726Y-24237D01*
X1672Y-24154D01*
X1605Y-24063D01*
X1427Y-23853D01*
X1192Y-23608D01*
X2090Y-22710D01*
X2188Y-22804D01*
D02*
G37*
G36*
X10100Y-22188D02*
X10258Y-22306D01*
X10428Y-22410D01*
X10612Y-22499D01*
X10808Y-22574D01*
X11016Y-22635D01*
X11237Y-22682D01*
X11472Y-22715D01*
X11718Y-22734D01*
X11977Y-22738D01*
X9738Y-24977D01*
X9734Y-24718D01*
X9715Y-24471D01*
X9682Y-24237D01*
X9635Y-24016D01*
X9574Y-23808D01*
X9499Y-23612D01*
X9409Y-23428D01*
X9306Y-23258D01*
X9188Y-23100D01*
X9056Y-22954D01*
X9954Y-22056D01*
X10100Y-22188D01*
D02*
G37*
D13*
X-118321Y87104D02*
X-116525D01*
X-110175Y93454D02*
Y95250D01*
X-120970Y84455D02*
X-118321Y87104D01*
X-116525D02*
X-110175Y93454D01*
X-120970Y67453D02*
Y84455D01*
Y67453D02*
X-116761Y63244D01*
X-113606D02*
X-113350Y63500D01*
X-116761Y63244D02*
X-113606D01*
X-119935Y62467D02*
X-119935D01*
X-130175Y90485D02*
Y95250D01*
X-115197Y57729D02*
Y57729D01*
X-119935Y62467D02*
X-115197Y57729D01*
X-123764Y66296D02*
Y84074D01*
X-130175Y90485D02*
X-123764Y84074D01*
Y66296D02*
X-122946Y65478D01*
Y65478D02*
Y65478D01*
Y65478D02*
X-119935Y62467D01*
X-115197Y57729D02*
X-113747Y56279D01*
Y53737D02*
Y56279D01*
Y53737D02*
X-113350Y53340D01*
X-43180Y19808D02*
X-3007Y-20365D01*
X-45974Y18651D02*
X-4164Y-23159D01*
X-43180Y19808D02*
Y30480D01*
X-63500Y34689D02*
X-62756Y35433D01*
X-63500Y27940D02*
Y34689D01*
X-45974Y18651D02*
Y29323D01*
X-62756Y35433D02*
X-52084D01*
X-45974Y29323D01*
X-50927Y38227D02*
X-43180Y30480D01*
X-62756Y38227D02*
X-50927D01*
X-63500Y38971D02*
X-62756Y38227D01*
X-63500Y38971D02*
Y45720D01*
X-3007Y-20365D02*
X7365D01*
X12000Y-25000D01*
X1641Y-23159D02*
X3482Y-25000D01*
X-4164Y-23159D02*
X1641D01*
X3482Y-25000D02*
X4000D01*
X-200025Y93454D02*
Y95250D01*
X-206375Y87104D02*
X-200025Y93454D01*
X-210820Y84455D02*
X-208171Y87104D01*
X-206375D01*
X-206611Y63244D02*
X-203456D01*
X-210820Y67453D02*
X-206611Y63244D01*
X-210820Y67453D02*
Y84455D01*
X-203456Y63244D02*
X-203200Y63500D01*
X-212796Y65478D02*
Y65478D01*
Y65478D02*
X-209785Y62467D01*
X-213614Y66296D02*
X-212796Y65478D01*
X-205047Y57729D02*
Y57729D01*
X-209785Y62467D02*
X-209785D01*
X-205047Y57729D01*
X-220025Y90485D02*
X-213614Y84074D01*
Y66296D02*
Y84074D01*
X-220025Y90485D02*
Y95250D01*
X-205047Y57729D02*
X-203597Y56279D01*
Y53737D02*
Y56279D01*
Y53737D02*
X-203200Y53340D01*
D28*
X200025Y95250D02*
D03*
X110175D02*
D03*
X-130175D02*
D03*
X-220025D02*
D03*
D29*
X220025D02*
D03*
X130175D02*
D03*
X-110175D02*
D03*
X-200025D02*
D03*
D30*
X234950Y25400D02*
D03*
X260350D02*
D03*
Y-95250D02*
D03*
X234950D02*
D03*
D31*
X-330200Y-76200D02*
D03*
X330200D02*
D03*
X330200Y146050D02*
D03*
X-330200D02*
D03*
D32*
X323850Y114300D02*
D03*
X361950Y38100D02*
D03*
X323850Y-38100D02*
D03*
X247650Y114300D02*
D03*
X285750Y38100D02*
D03*
X247650Y-38100D02*
D03*
X171450Y114300D02*
D03*
X209550Y38100D02*
D03*
X171450Y-38100D02*
D03*
X95250Y114300D02*
D03*
X19050D02*
D03*
X57150Y38100D02*
D03*
X-57150Y114300D02*
D03*
X-19050Y38100D02*
D03*
X-133350Y114300D02*
D03*
X-209550D02*
D03*
Y-38100D02*
D03*
X-285750Y114300D02*
D03*
X-247650Y38100D02*
D03*
X-285750Y-38100D02*
D03*
X-361950Y114300D02*
D03*
X-323850Y38100D02*
D03*
X-361950Y-38100D02*
D03*
D33*
X-113350Y63500D02*
D03*
X-63500Y45720D02*
D03*
X-20000Y-63500D02*
D03*
X-12000D02*
D03*
X132000D02*
D03*
Y12700D02*
D03*
X-12000D02*
D03*
X-20000D02*
D03*
X-132000D02*
D03*
X-140000D02*
D03*
X-148000D02*
D03*
X-132000Y-63500D02*
D03*
X-148000D02*
D03*
X-140000D02*
D03*
X148000Y12700D02*
D03*
X140000D02*
D03*
X148000Y-63500D02*
D03*
X140000D02*
D03*
X-81280Y73660D02*
D03*
X-248920Y74295D02*
D03*
X-81280Y63500D02*
D03*
X-113350Y53340D02*
D03*
X-248920Y64135D02*
D03*
X-203200Y63500D02*
D03*
Y53340D02*
D03*
X-151140Y28220D02*
D03*
Y46000D02*
D03*
X12000Y-66000D02*
D03*
X4000D02*
D03*
X12000Y-25000D02*
D03*
X4000D02*
D03*
X-53340Y45720D02*
D03*
Y27940D02*
D03*
X-63500D02*
D03*
X-113350Y44450D02*
D03*
X-8380Y-88900D02*
D03*
X71880D02*
D03*
X292100Y-22098D02*
D03*
Y22352D02*
D03*
X199928Y50897D02*
D03*
X219928D02*
D03*
X110077D02*
D03*
X130077D02*
D03*
X254000Y-6350D02*
D03*
Y-19050D02*
D03*
Y-63500D02*
D03*
Y-50800D02*
D03*
X43180Y-76200D02*
D03*
X20320D02*
D03*
X208280Y-16510D02*
D03*
X200660Y-8890D02*
D03*
Y-53340D02*
D03*
X208280Y-60960D02*
D03*
X292100Y-50800D02*
D03*
Y-6350D02*
D03*
X-113350Y72390D02*
D03*
X-203200D02*
D03*
Y44450D02*
D03*
X236220Y50800D02*
D03*
X93980D02*
D03*
X146050D02*
D03*
X184150D02*
D03*
M02*
