G04*
G04 #@! TF.GenerationSoftware,Altium Limited,Altium Designer,24.0.1 (36)*
G04*
G04 Layer_Color=8388736*
%FSLAX44Y44*%
%MOMM*%
G71*
G04*
G04 #@! TF.SameCoordinates,FEA383FD-90B8-454F-AD33-5B4C9E3D299A*
G04*
G04*
G04 #@! TF.FilePolarity,Negative*
G04*
G01*
G75*
%ADD14R,0.6500X2.1500*%
%ADD15C,2.0100*%
%ADD16R,2.3900X2.3900*%
%ADD17C,2.3900*%
%ADD18C,5.2300*%
%ADD19C,1.6740*%
%ADD20C,0.6072*%
D14*
X486200Y41500D02*
D03*
Y85500D02*
D03*
X478200Y41500D02*
D03*
Y85500D02*
D03*
X470200Y41500D02*
D03*
Y85500D02*
D03*
X462200Y41500D02*
D03*
Y85500D02*
D03*
X454200Y41500D02*
D03*
Y85500D02*
D03*
X446200Y41500D02*
D03*
Y85500D02*
D03*
X438200Y41500D02*
D03*
Y85500D02*
D03*
X430200Y41500D02*
D03*
Y85500D02*
D03*
X422200Y41500D02*
D03*
Y85500D02*
D03*
X414200Y41500D02*
D03*
Y85500D02*
D03*
X406200Y41500D02*
D03*
Y85500D02*
D03*
X398200Y41500D02*
D03*
Y85500D02*
D03*
X390200Y41500D02*
D03*
Y85500D02*
D03*
X382200Y41500D02*
D03*
Y85500D02*
D03*
X374200Y41500D02*
D03*
Y85500D02*
D03*
X366200Y41500D02*
D03*
Y85500D02*
D03*
X358200Y41500D02*
D03*
Y85500D02*
D03*
X350200Y41500D02*
D03*
Y85500D02*
D03*
X342200Y41500D02*
D03*
Y85500D02*
D03*
X334200Y41500D02*
D03*
Y85500D02*
D03*
X326200Y41500D02*
D03*
Y85500D02*
D03*
X318200Y41500D02*
D03*
Y85500D02*
D03*
X310200Y41500D02*
D03*
Y85500D02*
D03*
X302200Y41500D02*
D03*
Y85500D02*
D03*
X294200Y41500D02*
D03*
Y85500D02*
D03*
X286200Y41500D02*
D03*
Y85500D02*
D03*
X278200Y41500D02*
D03*
Y85500D02*
D03*
X270200Y41500D02*
D03*
Y85500D02*
D03*
X262200Y41500D02*
D03*
Y85500D02*
D03*
X254200Y41500D02*
D03*
Y85500D02*
D03*
X246200Y41500D02*
D03*
Y85500D02*
D03*
X238200Y41500D02*
D03*
Y85500D02*
D03*
X230200Y41500D02*
D03*
Y85500D02*
D03*
X222200Y41500D02*
D03*
Y85500D02*
D03*
X214200Y41500D02*
D03*
Y85500D02*
D03*
X206200Y41500D02*
D03*
Y85500D02*
D03*
X198200Y41500D02*
D03*
Y85500D02*
D03*
X190200Y41500D02*
D03*
Y85500D02*
D03*
X182200Y41500D02*
D03*
Y85500D02*
D03*
X174200Y41500D02*
D03*
Y85500D02*
D03*
D15*
X125100Y78450D02*
D03*
X596500D02*
D03*
D16*
X114300Y44450D02*
D03*
X585700D02*
D03*
D17*
X74700D02*
D03*
X546100D02*
D03*
D18*
X0Y234950D02*
D03*
X660400D02*
D03*
Y19050D02*
D03*
X0D02*
D03*
D19*
X190500Y-12700D02*
D03*
X215900D02*
D03*
X241300D02*
D03*
X266700D02*
D03*
X292100D02*
D03*
X317500D02*
D03*
X342900D02*
D03*
X368300D02*
D03*
X393700D02*
D03*
X419100D02*
D03*
X444500D02*
D03*
X469900D02*
D03*
X190500Y12700D02*
D03*
X215900D02*
D03*
X241300D02*
D03*
X266700D02*
D03*
X292100D02*
D03*
X317500D02*
D03*
X342900D02*
D03*
X368300D02*
D03*
X393700D02*
D03*
X419100D02*
D03*
X444500D02*
D03*
X469900D02*
D03*
X190500Y120650D02*
D03*
X215900D02*
D03*
X241300D02*
D03*
X266700D02*
D03*
X292100D02*
D03*
X317500D02*
D03*
X342900D02*
D03*
X368300D02*
D03*
X393700D02*
D03*
X419100D02*
D03*
X444500D02*
D03*
X469900D02*
D03*
X190500Y146050D02*
D03*
X215900D02*
D03*
X241300D02*
D03*
X266700D02*
D03*
X292100D02*
D03*
X317500D02*
D03*
X342900D02*
D03*
X368300D02*
D03*
X393700D02*
D03*
X419100D02*
D03*
X444500D02*
D03*
X469900D02*
D03*
D20*
X647700Y139700D02*
D03*
X679450Y76200D02*
D03*
X615950Y203200D02*
D03*
X584200Y139700D02*
D03*
X615950Y76200D02*
D03*
X584200Y12700D02*
D03*
X552450Y203200D02*
D03*
X520700Y139700D02*
D03*
X552450Y76200D02*
D03*
X520700Y12700D02*
D03*
X488950Y203200D02*
D03*
X425450D02*
D03*
X361950D02*
D03*
X298450D02*
D03*
X234950D02*
D03*
X171450D02*
D03*
X139700Y139700D02*
D03*
Y12700D02*
D03*
X107950Y203200D02*
D03*
X76200Y139700D02*
D03*
X107950Y76200D02*
D03*
X76200Y12700D02*
D03*
X44450Y203200D02*
D03*
X12700Y139700D02*
D03*
X44450Y76200D02*
D03*
M02*
