G04*
G04 #@! TF.GenerationSoftware,Altium Limited,Altium Designer,24.0.1 (36)*
G04*
G04 Layer_Color=2752767*
%FSLAX44Y44*%
%MOMM*%
G71*
G04*
G04 #@! TF.SameCoordinates,FEA383FD-90B8-454F-AD33-5B4C9E3D299A*
G04*
G04*
G04 #@! TF.FilePolarity,Positive*
G04*
G01*
G75*
%ADD12C,0.1270*%
%ADD40C,0.1693*%
D12*
X114300Y39370D02*
X109220Y49530D01*
X119380D01*
X114300Y39370D01*
X74700D02*
X69620Y49530D01*
X79780D01*
X74700Y39370D01*
X-5080Y229870D02*
X-2540D01*
X0Y232410D01*
X2540Y229870D01*
X5080D01*
Y232410D01*
X2540Y234950D01*
X5080Y237490D01*
Y240030D01*
X2540D01*
X0Y237490D01*
X-2540Y240030D01*
X-5080D01*
Y237490D01*
X-2540Y234950D01*
X-5080Y232410D01*
Y229870D01*
X655320D02*
X657860D01*
X660400Y232410D01*
X662940Y229870D01*
X665480D01*
Y232410D01*
X662940Y234950D01*
X665480Y237490D01*
Y240030D01*
X662940D01*
X660400Y237490D01*
X657860Y240030D01*
X655320D01*
Y237490D01*
X657860Y234950D01*
X655320Y232410D01*
Y229870D01*
Y13970D02*
X657860D01*
X660400Y16510D01*
X662940Y13970D01*
X665480D01*
Y16510D01*
X662940Y19050D01*
X665480Y21590D01*
Y24130D01*
X662940D01*
X660400Y21590D01*
X657860Y24130D01*
X655320D01*
Y21590D01*
X657860Y19050D01*
X655320Y16510D01*
Y13970D01*
X-5080D02*
X-2540D01*
X0Y16510D01*
X2540Y13970D01*
X5080D01*
Y16510D01*
X2540Y19050D01*
X5080Y21590D01*
Y24130D01*
X2540D01*
X0Y21590D01*
X-2540Y24130D01*
X-5080D01*
Y21590D01*
X-2540Y19050D01*
X-5080Y16510D01*
Y13970D01*
X185420Y-17780D02*
Y-7620D01*
X195580D01*
Y-17780D01*
X185420D01*
X210820D02*
Y-7620D01*
X220980D01*
Y-17780D01*
X210820D01*
X236220D02*
Y-7620D01*
X246380D01*
Y-17780D01*
X236220D01*
X261620D02*
Y-7620D01*
X271780D01*
Y-17780D01*
X261620D01*
X287020D02*
Y-7620D01*
X297180D01*
Y-17780D01*
X287020D01*
X312420D02*
Y-7620D01*
X322580D01*
Y-17780D01*
X312420D01*
X337820D02*
Y-7620D01*
X347980D01*
Y-17780D01*
X337820D01*
X363220D02*
Y-7620D01*
X373380D01*
Y-17780D01*
X363220D01*
X388620D02*
Y-7620D01*
X398780D01*
Y-17780D01*
X388620D01*
X414020D02*
Y-7620D01*
X424180D01*
Y-17780D01*
X414020D01*
X439420D02*
Y-7620D01*
X449580D01*
Y-17780D01*
X439420D01*
X464820D02*
Y-7620D01*
X474980D01*
Y-17780D01*
X464820D01*
X185420Y7620D02*
Y17780D01*
X195580D01*
Y7620D01*
X185420D01*
X210820D02*
Y17780D01*
X220980D01*
Y7620D01*
X210820D01*
X236220D02*
Y17780D01*
X246380D01*
Y7620D01*
X236220D01*
X261620D02*
Y17780D01*
X271780D01*
Y7620D01*
X261620D01*
X287020D02*
Y17780D01*
X297180D01*
Y7620D01*
X287020D01*
X312420D02*
Y17780D01*
X322580D01*
Y7620D01*
X312420D01*
X337820D02*
Y17780D01*
X347980D01*
Y7620D01*
X337820D01*
X363220D02*
Y17780D01*
X373380D01*
Y7620D01*
X363220D01*
X388620D02*
Y17780D01*
X398780D01*
Y7620D01*
X388620D01*
X414020D02*
Y17780D01*
X424180D01*
Y7620D01*
X414020D01*
X439420D02*
Y17780D01*
X449580D01*
Y7620D01*
X439420D01*
X464820D02*
Y17780D01*
X474980D01*
Y7620D01*
X464820D01*
X546100Y39370D02*
X541020Y49530D01*
X551180D01*
X546100Y39370D01*
X585700D02*
X580620Y49530D01*
X590780D01*
X585700Y39370D01*
X185420Y115570D02*
Y125730D01*
X195580D01*
Y115570D01*
X185420D01*
X210820D02*
Y125730D01*
X220980D01*
Y115570D01*
X210820D01*
X236220D02*
Y125730D01*
X246380D01*
Y115570D01*
X236220D01*
X261620D02*
Y125730D01*
X271780D01*
Y115570D01*
X261620D01*
X287020D02*
Y125730D01*
X297180D01*
Y115570D01*
X287020D01*
X312420D02*
Y125730D01*
X322580D01*
Y115570D01*
X312420D01*
X337820D02*
Y125730D01*
X347980D01*
Y115570D01*
X337820D01*
X363220D02*
Y125730D01*
X373380D01*
Y115570D01*
X363220D01*
X388620D02*
Y125730D01*
X398780D01*
Y115570D01*
X388620D01*
X414020D02*
Y125730D01*
X424180D01*
Y115570D01*
X414020D01*
X439420D02*
Y125730D01*
X449580D01*
Y115570D01*
X439420D01*
X464820D02*
Y125730D01*
X474980D01*
Y115570D01*
X464820D01*
X185420Y140970D02*
Y151130D01*
X195580D01*
Y140970D01*
X185420D01*
X210820D02*
Y151130D01*
X220980D01*
Y140970D01*
X210820D01*
X236220D02*
Y151130D01*
X246380D01*
Y140970D01*
X236220D01*
X261620D02*
Y151130D01*
X271780D01*
Y140970D01*
X261620D01*
X287020D02*
Y151130D01*
X297180D01*
Y140970D01*
X287020D01*
X312420D02*
Y151130D01*
X322580D01*
Y140970D01*
X312420D01*
X337820D02*
Y151130D01*
X347980D01*
Y140970D01*
X337820D01*
X363220D02*
Y151130D01*
X373380D01*
Y140970D01*
X363220D01*
X388620D02*
Y151130D01*
X398780D01*
Y140970D01*
X388620D01*
X414020D02*
Y151130D01*
X424180D01*
Y140970D01*
X414020D01*
X439420D02*
Y151130D01*
X449580D01*
Y140970D01*
X439420D01*
X464820D02*
Y151130D01*
X474980D01*
Y140970D01*
X464820D01*
X217120Y36420D02*
X219660Y41500D01*
X217120Y46580D01*
X222200Y44040D01*
X227280Y46580D01*
X224740Y41500D01*
X227280Y36420D01*
X222200Y38960D01*
X217120Y36420D01*
X345120D02*
X347660Y41500D01*
X345120Y46580D01*
X350200Y44040D01*
X355280Y46580D01*
X352740Y41500D01*
X355280Y36420D01*
X350200Y38960D01*
X345120Y36420D01*
X201120D02*
X203660Y41500D01*
X201120Y46580D01*
X206200Y44040D01*
X211280Y46580D01*
X208740Y41500D01*
X211280Y36420D01*
X206200Y38960D01*
X201120Y36420D01*
X185120D02*
X187660Y41500D01*
X185120Y46580D01*
X190200Y44040D01*
X195280Y46580D01*
X192740Y41500D01*
X195280Y36420D01*
X190200Y38960D01*
X185120Y36420D01*
X273120D02*
X275660Y41500D01*
X273120Y46580D01*
X278200Y44040D01*
X283280Y46580D01*
X280740Y41500D01*
X283280Y36420D01*
X278200Y38960D01*
X273120Y36420D01*
X297120D02*
X299660Y41500D01*
X297120Y46580D01*
X302200Y44040D01*
X307280Y46580D01*
X304740Y41500D01*
X307280Y36420D01*
X302200Y38960D01*
X297120Y36420D01*
X177120D02*
X179660Y41500D01*
X177120Y46580D01*
X182200Y44040D01*
X187280Y46580D01*
X184740Y41500D01*
X187280Y36420D01*
X182200Y38960D01*
X177120Y36420D01*
X321120D02*
X323660Y41500D01*
X321120Y46580D01*
X326200Y44040D01*
X331280Y46580D01*
X328740Y41500D01*
X331280Y36420D01*
X326200Y38960D01*
X321120Y36420D01*
X289120D02*
X291660Y41500D01*
X289120Y46580D01*
X294200Y44040D01*
X299280Y46580D01*
X296740Y41500D01*
X299280Y36420D01*
X294200Y38960D01*
X289120Y36420D01*
X249120D02*
X251660Y41500D01*
X249120Y46580D01*
X254200Y44040D01*
X259280Y46580D01*
X256740Y41500D01*
X259280Y36420D01*
X254200Y38960D01*
X249120Y36420D01*
X169120D02*
X171660Y41500D01*
X169120Y46580D01*
X174200Y44040D01*
X179280Y46580D01*
X176740Y41500D01*
X179280Y36420D01*
X174200Y38960D01*
X169120Y36420D01*
X225120D02*
X227660Y41500D01*
X225120Y46580D01*
X230200Y44040D01*
X235280Y46580D01*
X232740Y41500D01*
X235280Y36420D01*
X230200Y38960D01*
X225120Y36420D01*
X193120D02*
X195660Y41500D01*
X193120Y46580D01*
X198200Y44040D01*
X203280Y46580D01*
X200740Y41500D01*
X203280Y36420D01*
X198200Y38960D01*
X193120Y36420D01*
X361120D02*
X363660Y41500D01*
X361120Y46580D01*
X366200Y44040D01*
X371280Y46580D01*
X368740Y41500D01*
X371280Y36420D01*
X366200Y38960D01*
X361120Y36420D01*
X369120D02*
X371660Y41500D01*
X369120Y46580D01*
X374200Y44040D01*
X379280Y46580D01*
X376740Y41500D01*
X379280Y36420D01*
X374200Y38960D01*
X369120Y36420D01*
X433120D02*
X435660Y41500D01*
X433120Y46580D01*
X438200Y44040D01*
X443280Y46580D01*
X440740Y41500D01*
X443280Y36420D01*
X438200Y38960D01*
X433120Y36420D01*
X401120D02*
X403660Y41500D01*
X401120Y46580D01*
X406200Y44040D01*
X411280Y46580D01*
X408740Y41500D01*
X411280Y36420D01*
X406200Y38960D01*
X401120Y36420D01*
X417120D02*
X419660Y41500D01*
X417120Y46580D01*
X422200Y44040D01*
X427280Y46580D01*
X424740Y41500D01*
X427280Y36420D01*
X422200Y38960D01*
X417120Y36420D01*
X392944Y36595D02*
X395485Y41675D01*
X392944Y46755D01*
X398024Y44215D01*
X403105Y46755D01*
X400564Y41675D01*
X403105Y36595D01*
X398024Y39135D01*
X392944Y36595D01*
X481120Y36420D02*
X483660Y41500D01*
X481120Y46580D01*
X486200Y44040D01*
X491280Y46580D01*
X488740Y41500D01*
X491280Y36420D01*
X486200Y38960D01*
X481120Y36420D01*
X449120D02*
X451660Y41500D01*
X449120Y46580D01*
X454200Y44040D01*
X459280Y46580D01*
X456740Y41500D01*
X459280Y36420D01*
X454200Y38960D01*
X449120Y36420D01*
X273120Y80420D02*
X275660Y85500D01*
X273120Y90580D01*
X278200Y88040D01*
X283280Y90580D01*
X280740Y85500D01*
X283280Y80420D01*
X278200Y82960D01*
X273120Y80420D01*
X241120D02*
X243660Y85500D01*
X241120Y90580D01*
X246200Y88040D01*
X251280Y90580D01*
X248740Y85500D01*
X251280Y80420D01*
X246200Y82960D01*
X241120Y80420D01*
X345120D02*
X347660Y85500D01*
X345120Y90580D01*
X350200Y88040D01*
X355280Y90580D01*
X352740Y85500D01*
X355280Y80420D01*
X350200Y82960D01*
X345120Y80420D01*
X297120D02*
X299660Y85500D01*
X297120Y90580D01*
X302200Y88040D01*
X307280Y90580D01*
X304740Y85500D01*
X307280Y80420D01*
X302200Y82960D01*
X297120Y80420D01*
X329120D02*
X331660Y85500D01*
X329120Y90580D01*
X334200Y88040D01*
X339280Y90580D01*
X336740Y85500D01*
X339280Y80420D01*
X334200Y82960D01*
X329120Y80420D01*
X449120D02*
X451660Y85500D01*
X449120Y90580D01*
X454200Y88040D01*
X459280Y90580D01*
X456740Y85500D01*
X459280Y80420D01*
X454200Y82960D01*
X449120Y80420D01*
X249120D02*
X251660Y85500D01*
X249120Y90580D01*
X254200Y88040D01*
X259280Y90580D01*
X256740Y85500D01*
X259280Y80420D01*
X254200Y82960D01*
X249120Y80420D01*
X417120D02*
X419660Y85500D01*
X417120Y90580D01*
X422200Y88040D01*
X427280Y90580D01*
X424740Y85500D01*
X427280Y80420D01*
X422200Y82960D01*
X417120Y80420D01*
X433296Y80245D02*
X435835Y85324D01*
X433296Y90405D01*
X438376Y87865D01*
X443456Y90405D01*
X440915Y85324D01*
X443456Y80245D01*
X438376Y82785D01*
X433296Y80245D01*
X457120Y80420D02*
X459660Y85500D01*
X457120Y90580D01*
X462200Y88040D01*
X467280Y90580D01*
X464740Y85500D01*
X467280Y80420D01*
X462200Y82960D01*
X457120Y80420D01*
X425120D02*
X427660Y85500D01*
X425120Y90580D01*
X430200Y88040D01*
X435280Y90580D01*
X432740Y85500D01*
X435280Y80420D01*
X430200Y82960D01*
X425120Y80420D01*
X393120D02*
X395660Y85500D01*
X393120Y90580D01*
X398200Y88040D01*
X403280Y90580D01*
X400740Y85500D01*
X403280Y80420D01*
X398200Y82960D01*
X393120Y80420D01*
X369120D02*
X371660Y85500D01*
X369120Y90580D01*
X374200Y88040D01*
X379280Y90580D01*
X376740Y85500D01*
X379280Y80420D01*
X374200Y82960D01*
X369120Y80420D01*
X321120D02*
X323660Y85500D01*
X321120Y90580D01*
X326200Y88040D01*
X331280Y90580D01*
X328740Y85500D01*
X331280Y80420D01*
X326200Y82960D01*
X321120Y80420D01*
X289120D02*
X291660Y85500D01*
X289120Y90580D01*
X294200Y88040D01*
X299280Y90580D01*
X296740Y85500D01*
X299280Y80420D01*
X294200Y82960D01*
X289120Y80420D01*
X305120D02*
X307660Y85500D01*
X305120Y90580D01*
X310200Y88040D01*
X315280Y90580D01*
X312740Y85500D01*
X315280Y80420D01*
X310200Y82960D01*
X305120Y80420D01*
X313120D02*
X315660Y85500D01*
X313120Y90580D01*
X318200Y88040D01*
X323280Y90580D01*
X320740Y85500D01*
X323280Y80420D01*
X318200Y82960D01*
X313120Y80420D01*
X441120D02*
X443660Y85500D01*
X441120Y90580D01*
X446200Y88040D01*
X451280Y90580D01*
X448740Y85500D01*
X451280Y80420D01*
X446200Y82960D01*
X441120Y80420D01*
X465120D02*
X467660Y85500D01*
X465120Y90580D01*
X470200Y88040D01*
X475280Y90580D01*
X472740Y85500D01*
X475280Y80420D01*
X470200Y82960D01*
X465120Y80420D01*
X481120D02*
X483660Y85500D01*
X481120Y90580D01*
X486200Y88040D01*
X491280Y90580D01*
X488740Y85500D01*
X491280Y80420D01*
X486200Y82960D01*
X481120Y80420D01*
X473120D02*
X475660Y85500D01*
X473120Y90580D01*
X478200Y88040D01*
X483280Y90580D01*
X480740Y85500D01*
X483280Y80420D01*
X478200Y82960D01*
X473120Y80420D01*
X225120D02*
X227660Y85500D01*
X225120Y90580D01*
X230200Y88040D01*
X235280Y90580D01*
X232740Y85500D01*
X235280Y80420D01*
X230200Y82960D01*
X225120Y80420D01*
X201120D02*
X203660Y85500D01*
X201120Y90580D01*
X206200Y88040D01*
X211280Y90580D01*
X208740Y85500D01*
X211280Y80420D01*
X206200Y82960D01*
X201120Y80420D01*
X169120D02*
X171660Y85500D01*
X169120Y90580D01*
X174200Y88040D01*
X179280Y90580D01*
X176740Y85500D01*
X179280Y80420D01*
X174200Y82960D01*
X169120Y80420D01*
X645160Y137160D02*
Y134620D01*
X650240D01*
Y137160D01*
X652780D01*
Y142240D01*
X650240D01*
Y144780D01*
X645160D01*
Y142240D01*
X642620D01*
Y137160D01*
X645160D01*
X676910Y73660D02*
Y71120D01*
X681990D01*
Y73660D01*
X684530D01*
Y78740D01*
X681990D01*
Y81280D01*
X676910D01*
Y78740D01*
X674370D01*
Y73660D01*
X676910D01*
X613410Y200660D02*
Y198120D01*
X618490D01*
Y200660D01*
X621030D01*
Y205740D01*
X618490D01*
Y208280D01*
X613410D01*
Y205740D01*
X610870D01*
Y200660D01*
X613410D01*
X581660Y137160D02*
Y134620D01*
X586740D01*
Y137160D01*
X589280D01*
Y142240D01*
X586740D01*
Y144780D01*
X581660D01*
Y142240D01*
X579120D01*
Y137160D01*
X581660D01*
X613410Y73660D02*
Y71120D01*
X618490D01*
Y73660D01*
X621030D01*
Y78740D01*
X618490D01*
Y81280D01*
X613410D01*
Y78740D01*
X610870D01*
Y73660D01*
X613410D01*
X581660Y10160D02*
Y7620D01*
X586740D01*
Y10160D01*
X589280D01*
Y15240D01*
X586740D01*
Y17780D01*
X581660D01*
Y15240D01*
X579120D01*
Y10160D01*
X581660D01*
X549910Y200660D02*
Y198120D01*
X554990D01*
Y200660D01*
X557530D01*
Y205740D01*
X554990D01*
Y208280D01*
X549910D01*
Y205740D01*
X547370D01*
Y200660D01*
X549910D01*
X518160Y137160D02*
Y134620D01*
X523240D01*
Y137160D01*
X525780D01*
Y142240D01*
X523240D01*
Y144780D01*
X518160D01*
Y142240D01*
X515620D01*
Y137160D01*
X518160D01*
X549910Y73660D02*
Y71120D01*
X554990D01*
Y73660D01*
X557530D01*
Y78740D01*
X554990D01*
Y81280D01*
X549910D01*
Y78740D01*
X547370D01*
Y73660D01*
X549910D01*
X518160Y10160D02*
Y7620D01*
X523240D01*
Y10160D01*
X525780D01*
Y15240D01*
X523240D01*
Y17780D01*
X518160D01*
Y15240D01*
X515620D01*
Y10160D01*
X518160D01*
X486410Y200660D02*
Y198120D01*
X491490D01*
Y200660D01*
X494030D01*
Y205740D01*
X491490D01*
Y208280D01*
X486410D01*
Y205740D01*
X483870D01*
Y200660D01*
X486410D01*
X422910D02*
Y198120D01*
X427990D01*
Y200660D01*
X430530D01*
Y205740D01*
X427990D01*
Y208280D01*
X422910D01*
Y205740D01*
X420370D01*
Y200660D01*
X422910D01*
X359410D02*
Y198120D01*
X364490D01*
Y200660D01*
X367030D01*
Y205740D01*
X364490D01*
Y208280D01*
X359410D01*
Y205740D01*
X356870D01*
Y200660D01*
X359410D01*
X295910D02*
Y198120D01*
X300990D01*
Y200660D01*
X303530D01*
Y205740D01*
X300990D01*
Y208280D01*
X295910D01*
Y205740D01*
X293370D01*
Y200660D01*
X295910D01*
X232410D02*
Y198120D01*
X237490D01*
Y200660D01*
X240030D01*
Y205740D01*
X237490D01*
Y208280D01*
X232410D01*
Y205740D01*
X229870D01*
Y200660D01*
X232410D01*
X168910D02*
Y198120D01*
X173990D01*
Y200660D01*
X176530D01*
Y205740D01*
X173990D01*
Y208280D01*
X168910D01*
Y205740D01*
X166370D01*
Y200660D01*
X168910D01*
X137160Y137160D02*
Y134620D01*
X142240D01*
Y137160D01*
X144780D01*
Y142240D01*
X142240D01*
Y144780D01*
X137160D01*
Y142240D01*
X134620D01*
Y137160D01*
X137160D01*
Y10160D02*
Y7620D01*
X142240D01*
Y10160D01*
X144780D01*
Y15240D01*
X142240D01*
Y17780D01*
X137160D01*
Y15240D01*
X134620D01*
Y10160D01*
X137160D01*
X105410Y200660D02*
Y198120D01*
X110490D01*
Y200660D01*
X113030D01*
Y205740D01*
X110490D01*
Y208280D01*
X105410D01*
Y205740D01*
X102870D01*
Y200660D01*
X105410D01*
X73660Y137160D02*
Y134620D01*
X78740D01*
Y137160D01*
X81280D01*
Y142240D01*
X78740D01*
Y144780D01*
X73660D01*
Y142240D01*
X71120D01*
Y137160D01*
X73660D01*
X105410Y73660D02*
Y71120D01*
X110490D01*
Y73660D01*
X113030D01*
Y78740D01*
X110490D01*
Y81280D01*
X105410D01*
Y78740D01*
X102870D01*
Y73660D01*
X105410D01*
X73660Y10160D02*
Y7620D01*
X78740D01*
Y10160D01*
X81280D01*
Y15240D01*
X78740D01*
Y17780D01*
X73660D01*
Y15240D01*
X71120D01*
Y10160D01*
X73660D01*
X41910Y200660D02*
Y198120D01*
X46990D01*
Y200660D01*
X49530D01*
Y205740D01*
X46990D01*
Y208280D01*
X41910D01*
Y205740D01*
X39370D01*
Y200660D01*
X41910D01*
X10160Y137160D02*
Y134620D01*
X15240D01*
Y137160D01*
X17780D01*
Y142240D01*
X15240D01*
Y144780D01*
X10160D01*
Y142240D01*
X7620D01*
Y137160D01*
X10160D01*
X41910Y73660D02*
Y71120D01*
X46990D01*
Y73660D01*
X49530D01*
Y78740D01*
X46990D01*
Y81280D01*
X41910D01*
Y78740D01*
X39370D01*
Y73660D01*
X41910D01*
X185120Y52120D02*
X187660Y57200D01*
X185120Y62280D01*
X190200Y59740D01*
X195280Y62280D01*
X192740Y57200D01*
X195280Y52120D01*
X190200Y54660D01*
X185120Y52120D01*
X465120Y65120D02*
X467660Y70200D01*
X465120Y75280D01*
X470200Y72740D01*
X475280Y75280D01*
X472740Y70200D01*
X475280Y65120D01*
X470200Y67660D01*
X465120Y65120D01*
D40*
X130180Y78450D02*
G03*
X130180Y78450I-5080J0D01*
G01*
X601580D02*
G03*
X601580Y78450I-5080J0D01*
G01*
M02*
