G04*
G04 #@! TF.GenerationSoftware,Altium Limited,Altium Designer,24.0.1 (36)*
G04*
G04 Layer_Physical_Order=3*
G04 Layer_Color=4660084*
%FSLAX44Y44*%
%MOMM*%
G71*
G04*
G04 #@! TF.SameCoordinates,FEA383FD-90B8-454F-AD33-5B4C9E3D299A*
G04*
G04*
G04 #@! TF.FilePolarity,Negative*
G04*
G01*
G75*
%ADD29C,1.0160*%
%ADD30C,2.0632*%
%ADD31C,2.0932*%
G04:AMPARAMS|DCode=32|XSize=2.6932mm|YSize=2.6932mm|CornerRadius=0mm|HoleSize=0mm|Usage=FLASHONLY|Rotation=0.000|XOffset=0mm|YOffset=0mm|HoleType=Round|Shape=Relief|Width=0.1016mm|Gap=0.1016mm|Entries=4|*
%AMTHD32*
7,0,0,2.6932,2.4900,0.1016,45*
%
%ADD32THD32*%
%ADD33C,3.6032*%
%ADD34C,1.2192*%
G04:AMPARAMS|DCode=35|XSize=1.8192mm|YSize=1.8192mm|CornerRadius=0mm|HoleSize=0mm|Usage=FLASHONLY|Rotation=0.000|XOffset=0mm|YOffset=0mm|HoleType=Round|Shape=Relief|Width=0.1016mm|Gap=0.1016mm|Entries=4|*
%AMTHD35*
7,0,0,1.8192,1.6160,0.1016,45*
%
%ADD35THD35*%
%ADD36C,0.5032*%
D29*
X698500Y247650D02*
G03*
X673100Y273050I-25400J0D01*
G01*
X-12700D02*
G03*
X-38100Y247650I0J-25400D01*
G01*
Y0D02*
G03*
X-12700Y-25400I25400J0D01*
G01*
X673100D02*
G03*
X698500Y0I0J25400D01*
G01*
Y247650D01*
X-12700Y273050D02*
X673100D01*
X-38100Y0D02*
Y247650D01*
X-12700Y-25400D02*
X673100D01*
D30*
X125100Y78450D02*
D03*
X596500D02*
D03*
D31*
X114300Y44450D02*
D03*
X585700D02*
D03*
D32*
X74700D02*
D03*
X546100D02*
D03*
D33*
X0Y234950D02*
D03*
X660400D02*
D03*
Y19050D02*
D03*
X0D02*
D03*
D34*
X190500Y-12700D02*
D03*
X241300D02*
D03*
X266700D02*
D03*
X292100D02*
D03*
X317500D02*
D03*
X342900D02*
D03*
X393700D02*
D03*
X419100D02*
D03*
X444500D02*
D03*
X469900D02*
D03*
X190500Y12700D02*
D03*
X215900D02*
D03*
X241300D02*
D03*
X266700D02*
D03*
X317500D02*
D03*
X342900D02*
D03*
X368300D02*
D03*
X393700D02*
D03*
X419100D02*
D03*
X469900D02*
D03*
X190500Y120650D02*
D03*
X241300D02*
D03*
X266700D02*
D03*
X292100D02*
D03*
X317500D02*
D03*
X342900D02*
D03*
X393700D02*
D03*
X419100D02*
D03*
X444500D02*
D03*
X469900D02*
D03*
X190500Y146050D02*
D03*
X215900D02*
D03*
X241300D02*
D03*
X266700D02*
D03*
X317500D02*
D03*
X342900D02*
D03*
X368300D02*
D03*
X393700D02*
D03*
X419100D02*
D03*
X469900D02*
D03*
D35*
X215900Y-12700D02*
D03*
X368300D02*
D03*
X292100Y12700D02*
D03*
X444500D02*
D03*
X215900Y120650D02*
D03*
X368300D02*
D03*
X292100Y146050D02*
D03*
X444500D02*
D03*
D36*
X222200Y41500D02*
D03*
X190200D02*
D03*
X182200D02*
D03*
X294200D02*
D03*
X198200D02*
D03*
X366200D02*
D03*
X406200D02*
D03*
X246200Y85500D02*
D03*
X334200D02*
D03*
X462200D02*
D03*
X430200D02*
D03*
X294200D02*
D03*
X310200D02*
D03*
X318200D02*
D03*
X446200D02*
D03*
X470200D02*
D03*
X478200D02*
D03*
M02*
