G04*
G04 #@! TF.GenerationSoftware,Altium Limited,Altium Designer,24.0.1 (36)*
G04*
G04 Layer_Physical_Order=4*
G04 Layer_Color=16711680*
%FSLAX44Y44*%
%MOMM*%
G71*
G04*
G04 #@! TF.SameCoordinates,FEA383FD-90B8-454F-AD33-5B4C9E3D299A*
G04*
G04*
G04 #@! TF.FilePolarity,Positive*
G04*
G01*
G75*
%ADD21C,0.3810*%
%ADD22C,1.8600*%
%ADD23R,2.2400X2.2400*%
%ADD24C,2.2400*%
%ADD25C,5.0800*%
%ADD26C,1.5240*%
%ADD27C,0.4524*%
%ADD28C,0.4572*%
G36*
X677606Y270304D02*
X681939Y268990D01*
X685933Y266856D01*
X689433Y263983D01*
X692306Y260483D01*
X694440Y256489D01*
X695754Y252156D01*
X696189Y247747D01*
X696169Y247650D01*
Y0D01*
X696189Y-98D01*
X695754Y-4506D01*
X694440Y-8839D01*
X692306Y-12833D01*
X689433Y-16333D01*
X685933Y-19205D01*
X681939Y-21340D01*
X677606Y-22654D01*
X673197Y-23089D01*
X673100Y-23069D01*
X-12700D01*
X-12797Y-23089D01*
X-17206Y-22654D01*
X-21539Y-21340D01*
X-25533Y-19205D01*
X-29033Y-16333D01*
X-31906Y-12833D01*
X-34040Y-8839D01*
X-35354Y-4506D01*
X-35789Y-98D01*
X-35769Y0D01*
Y247650D01*
X-35789Y247747D01*
X-35354Y252156D01*
X-34040Y256489D01*
X-31906Y260483D01*
X-29033Y263983D01*
X-25533Y266856D01*
X-21539Y268990D01*
X-17206Y270304D01*
X-12797Y270739D01*
X-12700Y270719D01*
X673100D01*
X673197Y270739D01*
X677606Y270304D01*
D02*
G37*
%LPC*%
G36*
X662479Y261366D02*
X658321D01*
X654214Y260716D01*
X650260Y259431D01*
X646555Y257543D01*
X643191Y255099D01*
X640251Y252159D01*
X637807Y248795D01*
X635919Y245090D01*
X634634Y241136D01*
X633984Y237029D01*
Y232871D01*
X634634Y228764D01*
X635919Y224810D01*
X637807Y221105D01*
X640251Y217741D01*
X643191Y214801D01*
X646555Y212357D01*
X650260Y210469D01*
X654214Y209184D01*
X658321Y208534D01*
X662479D01*
X666586Y209184D01*
X670540Y210469D01*
X674245Y212357D01*
X677609Y214801D01*
X680549Y217741D01*
X682993Y221105D01*
X684881Y224810D01*
X686166Y228764D01*
X686816Y232871D01*
Y237029D01*
X686166Y241136D01*
X684881Y245090D01*
X682993Y248795D01*
X680549Y252159D01*
X677609Y255099D01*
X674245Y257543D01*
X670540Y259431D01*
X666586Y260716D01*
X662479Y261366D01*
D02*
G37*
G36*
X2079D02*
X-2079D01*
X-6186Y260716D01*
X-10140Y259431D01*
X-13845Y257543D01*
X-17209Y255099D01*
X-20149Y252159D01*
X-22593Y248795D01*
X-24481Y245090D01*
X-25766Y241136D01*
X-26416Y237029D01*
Y232871D01*
X-25766Y228764D01*
X-24481Y224810D01*
X-22593Y221105D01*
X-20149Y217741D01*
X-17209Y214801D01*
X-13845Y212357D01*
X-10140Y210469D01*
X-6186Y209184D01*
X-2079Y208534D01*
X2079D01*
X6186Y209184D01*
X10140Y210469D01*
X13845Y212357D01*
X17209Y214801D01*
X20149Y217741D01*
X22593Y221105D01*
X24481Y224810D01*
X25766Y228764D01*
X26416Y232871D01*
Y237029D01*
X25766Y241136D01*
X24481Y245090D01*
X22593Y248795D01*
X20149Y252159D01*
X17209Y255099D01*
X13845Y257543D01*
X10140Y259431D01*
X6186Y260716D01*
X2079Y261366D01*
D02*
G37*
G36*
X616700Y206970D02*
X615200D01*
X613815Y206396D01*
X612754Y205336D01*
X612180Y203950D01*
Y202450D01*
X612754Y201064D01*
X613815Y200004D01*
X615200Y199430D01*
X616700D01*
X618086Y200004D01*
X619146Y201064D01*
X619720Y202450D01*
Y203950D01*
X619146Y205336D01*
X618086Y206396D01*
X616700Y206970D01*
D02*
G37*
G36*
X553200D02*
X551700D01*
X550314Y206396D01*
X549254Y205336D01*
X548680Y203950D01*
Y202450D01*
X549254Y201064D01*
X550314Y200004D01*
X551700Y199430D01*
X553200D01*
X554585Y200004D01*
X555646Y201064D01*
X556220Y202450D01*
Y203950D01*
X555646Y205336D01*
X554585Y206396D01*
X553200Y206970D01*
D02*
G37*
G36*
X489700D02*
X488200D01*
X486814Y206396D01*
X485754Y205336D01*
X485180Y203950D01*
Y202450D01*
X485754Y201064D01*
X486814Y200004D01*
X488200Y199430D01*
X489700D01*
X491086Y200004D01*
X492146Y201064D01*
X492720Y202450D01*
Y203950D01*
X492146Y205336D01*
X491086Y206396D01*
X489700Y206970D01*
D02*
G37*
G36*
X426200D02*
X424700D01*
X423315Y206396D01*
X422254Y205336D01*
X421680Y203950D01*
Y202450D01*
X422254Y201064D01*
X423315Y200004D01*
X424700Y199430D01*
X426200D01*
X427585Y200004D01*
X428646Y201064D01*
X429220Y202450D01*
Y203950D01*
X428646Y205336D01*
X427585Y206396D01*
X426200Y206970D01*
D02*
G37*
G36*
X362700D02*
X361200D01*
X359814Y206396D01*
X358754Y205336D01*
X358180Y203950D01*
Y202450D01*
X358754Y201064D01*
X359814Y200004D01*
X361200Y199430D01*
X362700D01*
X364086Y200004D01*
X365146Y201064D01*
X365720Y202450D01*
Y203950D01*
X365146Y205336D01*
X364086Y206396D01*
X362700Y206970D01*
D02*
G37*
G36*
X299200D02*
X297700D01*
X296315Y206396D01*
X295254Y205336D01*
X294680Y203950D01*
Y202450D01*
X295254Y201064D01*
X296315Y200004D01*
X297700Y199430D01*
X299200D01*
X300585Y200004D01*
X301646Y201064D01*
X302220Y202450D01*
Y203950D01*
X301646Y205336D01*
X300585Y206396D01*
X299200Y206970D01*
D02*
G37*
G36*
X235700D02*
X234200D01*
X232815Y206396D01*
X231754Y205336D01*
X231180Y203950D01*
Y202450D01*
X231754Y201064D01*
X232815Y200004D01*
X234200Y199430D01*
X235700D01*
X237085Y200004D01*
X238146Y201064D01*
X238720Y202450D01*
Y203950D01*
X238146Y205336D01*
X237085Y206396D01*
X235700Y206970D01*
D02*
G37*
G36*
X172200D02*
X170700D01*
X169314Y206396D01*
X168254Y205336D01*
X167680Y203950D01*
Y202450D01*
X168254Y201064D01*
X169314Y200004D01*
X170700Y199430D01*
X172200D01*
X173585Y200004D01*
X174646Y201064D01*
X175220Y202450D01*
Y203950D01*
X174646Y205336D01*
X173585Y206396D01*
X172200Y206970D01*
D02*
G37*
G36*
X108700D02*
X107200D01*
X105815Y206396D01*
X104754Y205336D01*
X104180Y203950D01*
Y202450D01*
X104754Y201064D01*
X105815Y200004D01*
X107200Y199430D01*
X108700D01*
X110085Y200004D01*
X111146Y201064D01*
X111720Y202450D01*
Y203950D01*
X111146Y205336D01*
X110085Y206396D01*
X108700Y206970D01*
D02*
G37*
G36*
X45200D02*
X43700D01*
X42315Y206396D01*
X41254Y205336D01*
X40680Y203950D01*
Y202450D01*
X41254Y201064D01*
X42315Y200004D01*
X43700Y199430D01*
X45200D01*
X46585Y200004D01*
X47646Y201064D01*
X48220Y202450D01*
Y203950D01*
X47646Y205336D01*
X46585Y206396D01*
X45200Y206970D01*
D02*
G37*
G36*
X420237Y154686D02*
X417963D01*
X415767Y154097D01*
X413797Y152961D01*
X412189Y151353D01*
X411053Y149383D01*
X410464Y147187D01*
Y146182D01*
X410381Y145989D01*
X410368Y145083D01*
X410313Y144261D01*
X410218Y143497D01*
X410082Y142791D01*
X409909Y142143D01*
X409699Y141553D01*
X409455Y141019D01*
X409178Y140538D01*
X408868Y140109D01*
X408484Y139681D01*
X408465Y139627D01*
X406256Y137418D01*
X398561D01*
X398220Y138688D01*
X399003Y139139D01*
X400611Y140747D01*
X401748Y142717D01*
X402336Y144913D01*
Y147187D01*
X401748Y149383D01*
X400611Y151353D01*
X399003Y152961D01*
X397033Y154097D01*
X394837Y154686D01*
X392563D01*
X390367Y154097D01*
X388397Y152961D01*
X386790Y151353D01*
X385653Y149383D01*
X385064Y147187D01*
Y144913D01*
X385653Y142717D01*
X386790Y140747D01*
X388397Y139139D01*
X389180Y138688D01*
X388839Y137418D01*
X373161D01*
X372820Y138688D01*
X373603Y139139D01*
X375210Y140747D01*
X376348Y142717D01*
X376936Y144913D01*
Y147187D01*
X376348Y149383D01*
X375210Y151353D01*
X373603Y152961D01*
X371633Y154097D01*
X369437Y154686D01*
X367163D01*
X364967Y154097D01*
X362997Y152961D01*
X361390Y151353D01*
X360252Y149383D01*
X359664Y147187D01*
Y144913D01*
X360252Y142717D01*
X361390Y140747D01*
X362997Y139139D01*
X364967Y138003D01*
X364970Y138002D01*
X365197Y136626D01*
X365076Y136545D01*
X354094Y125563D01*
X353448Y124597D01*
X353222Y123457D01*
Y102434D01*
X347185Y96397D01*
X342118D01*
X340979Y96170D01*
X340012Y95524D01*
X333988Y89500D01*
X333404D01*
X331934Y88891D01*
X330920Y87877D01*
X330200Y87817D01*
X329480Y87877D01*
X328466Y88891D01*
X326996Y89500D01*
X325404D01*
X323934Y88891D01*
X322809Y87766D01*
X322200Y86296D01*
Y84704D01*
X322809Y83234D01*
X323934Y82109D01*
X325404Y81500D01*
X326996D01*
X328466Y82109D01*
X329480Y83123D01*
X330200Y83183D01*
X330920Y83123D01*
X331934Y82109D01*
X333404Y81500D01*
X334996D01*
X336466Y82109D01*
X337591Y83234D01*
X338200Y84704D01*
Y85288D01*
X343352Y90440D01*
X347247D01*
X347461Y90420D01*
X348472Y89986D01*
X348099Y89007D01*
X347934Y88891D01*
X347704Y88660D01*
X346809Y87766D01*
X346200Y86296D01*
Y84704D01*
X346809Y83234D01*
X347934Y82109D01*
X349404Y81500D01*
X350996D01*
X352466Y82109D01*
X353591Y83234D01*
X354200Y84704D01*
Y86296D01*
X353591Y87766D01*
X352466Y88891D01*
X350996Y89500D01*
X350695D01*
X350482Y89757D01*
X350524Y91312D01*
X358306Y99094D01*
X358951Y100060D01*
X359178Y101200D01*
Y116637D01*
X360448Y116978D01*
X361390Y115347D01*
X362997Y113740D01*
X364967Y112603D01*
X367163Y112014D01*
X369437D01*
X371633Y112603D01*
X373603Y113740D01*
X375210Y115347D01*
X376348Y117317D01*
X376936Y119513D01*
Y121787D01*
X376348Y123983D01*
X375210Y125953D01*
X373603Y127561D01*
X371633Y128698D01*
X369437Y129286D01*
X368037D01*
X367511Y130556D01*
X368416Y131461D01*
X407490D01*
X408629Y131688D01*
X409595Y132334D01*
X412677Y135415D01*
X412731Y135434D01*
X413159Y135818D01*
X413588Y136128D01*
X414069Y136405D01*
X414603Y136649D01*
X415193Y136859D01*
X415841Y137032D01*
X416531Y137165D01*
X418149Y137318D01*
X419039Y137331D01*
X419232Y137414D01*
X420237D01*
X422433Y138003D01*
X424403Y139139D01*
X426011Y140747D01*
X427147Y142717D01*
X427736Y144913D01*
Y147187D01*
X427147Y149383D01*
X426011Y151353D01*
X424403Y152961D01*
X422433Y154097D01*
X420237Y154686D01*
D02*
G37*
G36*
X445637D02*
X443363D01*
X441167Y154097D01*
X439197Y152961D01*
X437589Y151353D01*
X436452Y149383D01*
X435864Y147187D01*
Y144913D01*
X436452Y142717D01*
X437589Y140747D01*
X439197Y139139D01*
X441167Y138003D01*
X443363Y137414D01*
X445637D01*
X447833Y138003D01*
X449803Y139139D01*
X451410Y140747D01*
X452547Y142717D01*
X453136Y144913D01*
Y147187D01*
X452547Y149383D01*
X451410Y151353D01*
X449803Y152961D01*
X447833Y154097D01*
X445637Y154686D01*
D02*
G37*
G36*
X344037D02*
X341763D01*
X339567Y154097D01*
X337597Y152961D01*
X335989Y151353D01*
X334852Y149383D01*
X334264Y147187D01*
Y144913D01*
X334852Y142717D01*
X335989Y140747D01*
X337597Y139139D01*
X339567Y138003D01*
X341763Y137414D01*
X344037D01*
X346233Y138003D01*
X348203Y139139D01*
X349810Y140747D01*
X350947Y142717D01*
X351536Y144913D01*
Y147187D01*
X350947Y149383D01*
X349810Y151353D01*
X348203Y152961D01*
X346233Y154097D01*
X344037Y154686D01*
D02*
G37*
G36*
X318637D02*
X316363D01*
X314167Y154097D01*
X312197Y152961D01*
X310590Y151353D01*
X309452Y149383D01*
X308864Y147187D01*
Y144913D01*
X309452Y142717D01*
X310590Y140747D01*
X312197Y139139D01*
X314167Y138003D01*
X316363Y137414D01*
X318637D01*
X320833Y138003D01*
X322803Y139139D01*
X324411Y140747D01*
X325547Y142717D01*
X326136Y144913D01*
Y147187D01*
X325547Y149383D01*
X324411Y151353D01*
X322803Y152961D01*
X320833Y154097D01*
X318637Y154686D01*
D02*
G37*
G36*
X293237D02*
X290963D01*
X288767Y154097D01*
X286797Y152961D01*
X285189Y151353D01*
X284053Y149383D01*
X283464Y147187D01*
Y144913D01*
X284053Y142717D01*
X285189Y140747D01*
X286797Y139139D01*
X288767Y138003D01*
X290963Y137414D01*
X293237D01*
X295433Y138003D01*
X297403Y139139D01*
X299011Y140747D01*
X300147Y142717D01*
X300736Y144913D01*
Y147187D01*
X300147Y149383D01*
X299011Y151353D01*
X297403Y152961D01*
X295433Y154097D01*
X293237Y154686D01*
D02*
G37*
G36*
X242437D02*
X240163D01*
X237967Y154097D01*
X235997Y152961D01*
X234389Y151353D01*
X233253Y149383D01*
X232664Y147187D01*
Y144913D01*
X233253Y142717D01*
X234389Y140747D01*
X235997Y139139D01*
X237967Y138003D01*
X240163Y137414D01*
X242437D01*
X244633Y138003D01*
X246603Y139139D01*
X248211Y140747D01*
X249347Y142717D01*
X249936Y144913D01*
Y147187D01*
X249347Y149383D01*
X248211Y151353D01*
X246603Y152961D01*
X244633Y154097D01*
X242437Y154686D01*
D02*
G37*
G36*
X217037D02*
X214763D01*
X212567Y154097D01*
X210597Y152961D01*
X208990Y151353D01*
X207852Y149383D01*
X207264Y147187D01*
Y144913D01*
X207852Y142717D01*
X208990Y140747D01*
X210597Y139139D01*
X212567Y138003D01*
X214763Y137414D01*
X217037D01*
X219233Y138003D01*
X221203Y139139D01*
X222810Y140747D01*
X223948Y142717D01*
X224536Y144913D01*
Y147187D01*
X223948Y149383D01*
X222810Y151353D01*
X221203Y152961D01*
X219233Y154097D01*
X217037Y154686D01*
D02*
G37*
G36*
X191637D02*
X189363D01*
X187167Y154097D01*
X185197Y152961D01*
X183589Y151353D01*
X182453Y149383D01*
X181864Y147187D01*
Y144913D01*
X182453Y142717D01*
X183589Y140747D01*
X185197Y139139D01*
X187167Y138003D01*
X189363Y137414D01*
X191637D01*
X193833Y138003D01*
X195803Y139139D01*
X197411Y140747D01*
X198547Y142717D01*
X199136Y144913D01*
Y147187D01*
X198547Y149383D01*
X197411Y151353D01*
X195803Y152961D01*
X193833Y154097D01*
X191637Y154686D01*
D02*
G37*
G36*
X648450Y143470D02*
X646950D01*
X645564Y142896D01*
X644504Y141835D01*
X643930Y140450D01*
Y138950D01*
X644504Y137564D01*
X645564Y136504D01*
X646950Y135930D01*
X648450D01*
X649836Y136504D01*
X650896Y137564D01*
X651470Y138950D01*
Y140450D01*
X650896Y141835D01*
X649836Y142896D01*
X648450Y143470D01*
D02*
G37*
G36*
X584950D02*
X583450D01*
X582065Y142896D01*
X581004Y141835D01*
X580430Y140450D01*
Y138950D01*
X581004Y137564D01*
X582065Y136504D01*
X583450Y135930D01*
X584950D01*
X586335Y136504D01*
X587396Y137564D01*
X587970Y138950D01*
Y140450D01*
X587396Y141835D01*
X586335Y142896D01*
X584950Y143470D01*
D02*
G37*
G36*
X521450D02*
X519950D01*
X518564Y142896D01*
X517504Y141835D01*
X516930Y140450D01*
Y138950D01*
X517504Y137564D01*
X518564Y136504D01*
X519950Y135930D01*
X521450D01*
X522836Y136504D01*
X523896Y137564D01*
X524470Y138950D01*
Y140450D01*
X523896Y141835D01*
X522836Y142896D01*
X521450Y143470D01*
D02*
G37*
G36*
X140450D02*
X138950D01*
X137564Y142896D01*
X136504Y141835D01*
X135930Y140450D01*
Y138950D01*
X136504Y137564D01*
X137564Y136504D01*
X138950Y135930D01*
X140450D01*
X141835Y136504D01*
X142896Y137564D01*
X143470Y138950D01*
Y140450D01*
X142896Y141835D01*
X141835Y142896D01*
X140450Y143470D01*
D02*
G37*
G36*
X76950D02*
X75450D01*
X74064Y142896D01*
X73004Y141835D01*
X72430Y140450D01*
Y138950D01*
X73004Y137564D01*
X74064Y136504D01*
X75450Y135930D01*
X76950D01*
X78335Y136504D01*
X79396Y137564D01*
X79970Y138950D01*
Y140450D01*
X79396Y141835D01*
X78335Y142896D01*
X76950Y143470D01*
D02*
G37*
G36*
X13450D02*
X11950D01*
X10565Y142896D01*
X9504Y141835D01*
X8930Y140450D01*
Y138950D01*
X9504Y137564D01*
X10565Y136504D01*
X11950Y135930D01*
X13450D01*
X14835Y136504D01*
X15896Y137564D01*
X16470Y138950D01*
Y140450D01*
X15896Y141835D01*
X14835Y142896D01*
X13450Y143470D01*
D02*
G37*
G36*
X471037Y154686D02*
X468763D01*
X466567Y154097D01*
X464597Y152961D01*
X462990Y151353D01*
X461852Y149383D01*
X461264Y147187D01*
Y146182D01*
X461181Y145989D01*
X461168Y145083D01*
X461114Y144261D01*
X461018Y143497D01*
X460882Y142791D01*
X460709Y142143D01*
X460499Y141553D01*
X460255Y141019D01*
X459978Y140538D01*
X459668Y140109D01*
X459284Y139681D01*
X459265Y139627D01*
X455094Y135456D01*
X454449Y134490D01*
X454222Y133350D01*
Y122642D01*
X452952Y122474D01*
X452547Y123983D01*
X451410Y125953D01*
X449803Y127561D01*
X447833Y128698D01*
X445637Y129286D01*
X443363D01*
X441167Y128698D01*
X439197Y127561D01*
X437589Y125953D01*
X436452Y123983D01*
X435864Y121787D01*
Y119513D01*
X436452Y117317D01*
X437589Y115347D01*
X439197Y113740D01*
X441167Y112603D01*
X443363Y112014D01*
X445637D01*
X447833Y112603D01*
X449803Y113740D01*
X451410Y115347D01*
X452547Y117317D01*
X452952Y118826D01*
X454222Y118658D01*
Y107434D01*
X445733Y98945D01*
X440667D01*
X439527Y98718D01*
X438561Y98073D01*
X429988Y89500D01*
X429404D01*
X427934Y88891D01*
X426920Y87877D01*
X426200Y87817D01*
X425480Y87877D01*
X424466Y88891D01*
X422996Y89500D01*
X421404D01*
X419934Y88891D01*
X418809Y87766D01*
X418200Y86296D01*
Y84704D01*
X418809Y83234D01*
X419934Y82109D01*
X421404Y81500D01*
X422996D01*
X424466Y82109D01*
X425480Y83123D01*
X426200Y83183D01*
X426920Y83123D01*
X427934Y82109D01*
X429404Y81500D01*
X430996D01*
X432466Y82109D01*
X433591Y83234D01*
X434939Y83169D01*
X434984Y83059D01*
X436110Y81933D01*
X437580Y81325D01*
X439171D01*
X440641Y81933D01*
X441583Y82875D01*
X442028Y83006D01*
X443222Y82417D01*
Y43148D01*
X441952Y42895D01*
X441591Y43766D01*
X440466Y44891D01*
X438996Y45500D01*
X437404D01*
X435934Y44891D01*
X434809Y43766D01*
X434200Y42296D01*
Y40704D01*
X434809Y39234D01*
X435934Y38109D01*
X437404Y37500D01*
X438996D01*
X440466Y38109D01*
X441591Y39234D01*
X441952Y40105D01*
X443222Y39852D01*
Y30050D01*
X443448Y28910D01*
X444094Y27944D01*
X453843Y18195D01*
X454809Y17550D01*
X455949Y17323D01*
X457972D01*
X458395Y16900D01*
X458415Y16844D01*
X458754Y16472D01*
X459065Y16068D01*
X459371Y15604D01*
X460015Y14412D01*
X460313Y13752D01*
X461235Y11231D01*
X461526Y10268D01*
X461652Y10114D01*
X461852Y9367D01*
X462990Y7397D01*
X464597Y5789D01*
X466567Y4652D01*
X468763Y4064D01*
X471037D01*
X473233Y4652D01*
X475203Y5789D01*
X476810Y7397D01*
X477948Y9367D01*
X478536Y11563D01*
Y13837D01*
X477948Y16033D01*
X476810Y18003D01*
X475203Y19611D01*
X473233Y20747D01*
X471037Y21336D01*
X468763D01*
X467555Y21012D01*
X467352Y21038D01*
X466585Y20830D01*
X465901Y20702D01*
X465264Y20641D01*
X464672Y20643D01*
X464124Y20706D01*
X463616Y20826D01*
X463141Y21003D01*
X462693Y21238D01*
X462268Y21535D01*
X461815Y21939D01*
X461762Y21957D01*
X461312Y22407D01*
X460345Y23053D01*
X459206Y23280D01*
X457182D01*
X449178Y31284D01*
Y39852D01*
X450448Y40105D01*
X450809Y39234D01*
X451934Y38109D01*
X453404Y37500D01*
X454996D01*
X456466Y38109D01*
X457591Y39234D01*
X458200Y40704D01*
Y42296D01*
X457591Y43766D01*
X456466Y44891D01*
X454996Y45500D01*
X453404D01*
X451934Y44891D01*
X450809Y43766D01*
X450448Y42895D01*
X449178Y43148D01*
Y82527D01*
X450302Y83175D01*
X450920Y83123D01*
X451934Y82109D01*
X453404Y81500D01*
X454996D01*
X456466Y82109D01*
X457591Y83234D01*
X458200Y84704D01*
Y86296D01*
X457591Y87766D01*
X456466Y88891D01*
X454996Y89500D01*
X453404D01*
X451934Y88891D01*
X450920Y87877D01*
X450200Y87817D01*
X449480Y87877D01*
X448466Y88891D01*
X446996Y89500D01*
X445404D01*
X443934Y88891D01*
X442993Y87949D01*
X442464Y87795D01*
X441480Y87877D01*
X440641Y88716D01*
X439780Y89072D01*
X439410Y90498D01*
X441900Y92988D01*
X446967D01*
X448106Y93215D01*
X449072Y93861D01*
X459306Y104094D01*
X459952Y105060D01*
X460178Y106200D01*
Y118658D01*
X461448Y118826D01*
X461852Y117317D01*
X462990Y115347D01*
X464597Y113740D01*
X466567Y112603D01*
X468763Y112014D01*
X471037D01*
X473233Y112603D01*
X475203Y113740D01*
X476810Y115347D01*
X477948Y117317D01*
X478536Y119513D01*
Y121787D01*
X477948Y123983D01*
X476810Y125953D01*
X475203Y127561D01*
X473233Y128698D01*
X471037Y129286D01*
X468763D01*
X466567Y128698D01*
X464597Y127561D01*
X462990Y125953D01*
X461852Y123983D01*
X461448Y122474D01*
X460178Y122642D01*
Y132116D01*
X463477Y135415D01*
X463531Y135434D01*
X463959Y135818D01*
X464389Y136128D01*
X464869Y136405D01*
X465403Y136649D01*
X465993Y136859D01*
X466641Y137032D01*
X467331Y137165D01*
X468949Y137318D01*
X469839Y137331D01*
X470033Y137414D01*
X471037D01*
X473233Y138003D01*
X475203Y139139D01*
X476810Y140747D01*
X477948Y142717D01*
X478536Y144913D01*
Y147187D01*
X477948Y149383D01*
X476810Y151353D01*
X475203Y152961D01*
X473233Y154097D01*
X471037Y154686D01*
D02*
G37*
G36*
X344037Y129286D02*
X343408D01*
Y121158D01*
X351536D01*
Y121787D01*
X350947Y123983D01*
X349810Y125953D01*
X348203Y127561D01*
X346233Y128698D01*
X344037Y129286D01*
D02*
G37*
G36*
X342392D02*
X341763D01*
X339567Y128698D01*
X337597Y127561D01*
X335989Y125953D01*
X334852Y123983D01*
X334264Y121787D01*
Y121158D01*
X342392D01*
Y129286D01*
D02*
G37*
G36*
X420237D02*
X417963D01*
X415767Y128698D01*
X413797Y127561D01*
X412189Y125953D01*
X411053Y123983D01*
X410464Y121787D01*
Y119513D01*
X411053Y117317D01*
X412189Y115347D01*
X413797Y113740D01*
X415767Y112603D01*
X417963Y112014D01*
X420237D01*
X422433Y112603D01*
X424403Y113740D01*
X426011Y115347D01*
X427147Y117317D01*
X427736Y119513D01*
Y121787D01*
X427147Y123983D01*
X426011Y125953D01*
X424403Y127561D01*
X422433Y128698D01*
X420237Y129286D01*
D02*
G37*
G36*
X394837D02*
X392563D01*
X390367Y128698D01*
X388397Y127561D01*
X386790Y125953D01*
X385653Y123983D01*
X385064Y121787D01*
Y119513D01*
X385653Y117317D01*
X386790Y115347D01*
X388397Y113740D01*
X390367Y112603D01*
X392563Y112014D01*
X394837D01*
X397033Y112603D01*
X399003Y113740D01*
X400611Y115347D01*
X401748Y117317D01*
X402336Y119513D01*
Y121787D01*
X401748Y123983D01*
X400611Y125953D01*
X399003Y127561D01*
X397033Y128698D01*
X394837Y129286D01*
D02*
G37*
G36*
X351536Y120142D02*
X343408D01*
Y112014D01*
X344037D01*
X346233Y112603D01*
X348203Y113740D01*
X349810Y115347D01*
X350947Y117317D01*
X351536Y119513D01*
Y120142D01*
D02*
G37*
G36*
X342392D02*
X334264D01*
Y119513D01*
X334852Y117317D01*
X335989Y115347D01*
X337597Y113740D01*
X339567Y112603D01*
X341763Y112014D01*
X342392D01*
Y120142D01*
D02*
G37*
G36*
X318637Y129286D02*
X316363D01*
X314167Y128698D01*
X312197Y127561D01*
X310590Y125953D01*
X309452Y123983D01*
X308864Y121787D01*
Y119513D01*
X309452Y117317D01*
X310590Y115347D01*
X312197Y113740D01*
X314167Y112603D01*
X316363Y112014D01*
X318637D01*
X320833Y112603D01*
X322803Y113740D01*
X324411Y115347D01*
X325547Y117317D01*
X326136Y119513D01*
Y121787D01*
X325547Y123983D01*
X324411Y125953D01*
X322803Y127561D01*
X320833Y128698D01*
X318637Y129286D01*
D02*
G37*
G36*
X293237D02*
X290963D01*
X288767Y128698D01*
X286797Y127561D01*
X285189Y125953D01*
X284053Y123983D01*
X283464Y121787D01*
Y119513D01*
X284053Y117317D01*
X285189Y115347D01*
X286797Y113740D01*
X288767Y112603D01*
X290963Y112014D01*
X293237D01*
X295433Y112603D01*
X297403Y113740D01*
X299011Y115347D01*
X300147Y117317D01*
X300736Y119513D01*
Y121787D01*
X300147Y123983D01*
X299011Y125953D01*
X297403Y127561D01*
X295433Y128698D01*
X293237Y129286D01*
D02*
G37*
G36*
X242437D02*
X240163D01*
X237967Y128698D01*
X235997Y127561D01*
X234389Y125953D01*
X233253Y123983D01*
X232664Y121787D01*
Y119513D01*
X233253Y117317D01*
X234389Y115347D01*
X235997Y113740D01*
X237967Y112603D01*
X240163Y112014D01*
X242437D01*
X244633Y112603D01*
X246603Y113740D01*
X248211Y115347D01*
X249347Y117317D01*
X249936Y119513D01*
Y121787D01*
X249347Y123983D01*
X248211Y125953D01*
X246603Y127561D01*
X244633Y128698D01*
X242437Y129286D01*
D02*
G37*
G36*
X217037D02*
X214763D01*
X212567Y128698D01*
X210597Y127561D01*
X208990Y125953D01*
X207852Y123983D01*
X207264Y121787D01*
Y119513D01*
X207852Y117317D01*
X208990Y115347D01*
X210597Y113740D01*
X212567Y112603D01*
X214763Y112014D01*
X217037D01*
X219233Y112603D01*
X221203Y113740D01*
X222810Y115347D01*
X223948Y117317D01*
X224536Y119513D01*
Y121787D01*
X223948Y123983D01*
X222810Y125953D01*
X221203Y127561D01*
X219233Y128698D01*
X217037Y129286D01*
D02*
G37*
G36*
X486996Y89500D02*
X485404D01*
X483934Y88891D01*
X482809Y87766D01*
X482200Y86296D01*
Y84704D01*
X482809Y83234D01*
X483934Y82109D01*
X485404Y81500D01*
X486996D01*
X488466Y82109D01*
X489591Y83234D01*
X490200Y84704D01*
Y86296D01*
X489591Y87766D01*
X488466Y88891D01*
X486996Y89500D01*
D02*
G37*
G36*
X398996D02*
X397404D01*
X395934Y88891D01*
X394809Y87766D01*
X394200Y86296D01*
Y84704D01*
X394809Y83234D01*
X395934Y82109D01*
X397404Y81500D01*
X398996D01*
X400466Y82109D01*
X401591Y83234D01*
X402200Y84704D01*
Y86296D01*
X401591Y87766D01*
X400466Y88891D01*
X398996Y89500D01*
D02*
G37*
G36*
X374996D02*
X373404D01*
X371934Y88891D01*
X370809Y87766D01*
X370200Y86296D01*
Y84704D01*
X370809Y83234D01*
X371934Y82109D01*
X373404Y81500D01*
X374996D01*
X376466Y82109D01*
X377591Y83234D01*
X378200Y84704D01*
Y86296D01*
X377591Y87766D01*
X376466Y88891D01*
X374996Y89500D01*
D02*
G37*
G36*
X267837Y154686D02*
X265563D01*
X263367Y154097D01*
X261397Y152961D01*
X259790Y151353D01*
X258652Y149383D01*
X258064Y147187D01*
Y146182D01*
X257981Y145989D01*
X257968Y145083D01*
X257913Y144261D01*
X257818Y143497D01*
X257682Y142791D01*
X257509Y142143D01*
X257299Y141553D01*
X257055Y141019D01*
X256778Y140538D01*
X256468Y140109D01*
X256084Y139681D01*
X256065Y139627D01*
X252094Y135656D01*
X251448Y134690D01*
X251222Y133550D01*
Y110155D01*
X244094Y103028D01*
X243449Y102062D01*
X243222Y100922D01*
Y88179D01*
X242809Y87766D01*
X242200Y86296D01*
Y84704D01*
X242809Y83234D01*
X243934Y82109D01*
X245404Y81500D01*
X246996D01*
X248466Y82109D01*
X249480Y83123D01*
X250200Y83183D01*
X250920Y83123D01*
X251934Y82109D01*
X253404Y81500D01*
X254996D01*
X256466Y82109D01*
X257591Y83234D01*
X258200Y84704D01*
Y86296D01*
X257591Y87766D01*
X256466Y88891D01*
X254996Y89500D01*
X253404D01*
X251934Y88891D01*
X250920Y87877D01*
X250302Y87825D01*
X249178Y88474D01*
Y99688D01*
X256306Y106816D01*
X256952Y107782D01*
X257178Y108922D01*
Y117912D01*
X258448Y118079D01*
X258652Y117317D01*
X259790Y115347D01*
X260500Y114637D01*
X260578Y114442D01*
X261209Y113792D01*
X261752Y113172D01*
X262225Y112564D01*
X262628Y111969D01*
X262964Y111389D01*
X263233Y110823D01*
X263438Y110273D01*
X263581Y109737D01*
X263666Y109214D01*
X263697Y108640D01*
X263722Y108588D01*
Y106700D01*
X263948Y105560D01*
X264594Y104594D01*
X275126Y94062D01*
X276092Y93417D01*
X277232Y93190D01*
X282298D01*
X290200Y85288D01*
Y84704D01*
X290809Y83234D01*
X291934Y82109D01*
X293404Y81500D01*
X294996D01*
X296466Y82109D01*
X297480Y83123D01*
X298200Y83183D01*
X298920Y83123D01*
X299934Y82109D01*
X301404Y81500D01*
X302996D01*
X304466Y82109D01*
X305591Y83234D01*
X306200Y84704D01*
Y86296D01*
X305591Y87766D01*
X304466Y88891D01*
X302996Y89500D01*
X301404D01*
X299934Y88891D01*
X298920Y87877D01*
X298200Y87817D01*
X297480Y87877D01*
X296466Y88891D01*
X294996Y89500D01*
X294412D01*
X285638Y98274D01*
X284671Y98920D01*
X283532Y99147D01*
X278465D01*
X269678Y107934D01*
Y108588D01*
X269703Y108640D01*
X269734Y109214D01*
X269819Y109737D01*
X269962Y110273D01*
X270167Y110823D01*
X270436Y111389D01*
X270772Y111969D01*
X271166Y112550D01*
X272202Y113803D01*
X272822Y114442D01*
X272900Y114637D01*
X273610Y115347D01*
X274748Y117317D01*
X275336Y119513D01*
Y121787D01*
X274748Y123983D01*
X273610Y125953D01*
X272003Y127561D01*
X270033Y128698D01*
X267837Y129286D01*
X265563D01*
X263367Y128698D01*
X261397Y127561D01*
X259790Y125953D01*
X258652Y123983D01*
X258448Y123221D01*
X257178Y123388D01*
Y132316D01*
X260277Y135415D01*
X260331Y135434D01*
X260759Y135818D01*
X261189Y136128D01*
X261669Y136405D01*
X262203Y136649D01*
X262793Y136859D01*
X263441Y137032D01*
X264131Y137165D01*
X265749Y137318D01*
X266639Y137331D01*
X266833Y137414D01*
X267837D01*
X270033Y138003D01*
X272003Y139139D01*
X273610Y140747D01*
X274748Y142717D01*
X275336Y144913D01*
Y147187D01*
X274748Y149383D01*
X273610Y151353D01*
X272003Y152961D01*
X270033Y154097D01*
X267837Y154686D01*
D02*
G37*
G36*
X278996Y89500D02*
X277404D01*
X275934Y88891D01*
X274809Y87766D01*
X274200Y86296D01*
Y84704D01*
X274809Y83234D01*
X275934Y82109D01*
X277404Y81500D01*
X278996D01*
X280466Y82109D01*
X281591Y83234D01*
X282200Y84704D01*
Y86296D01*
X281591Y87766D01*
X280466Y88891D01*
X278996Y89500D01*
D02*
G37*
G36*
X230996D02*
X229404D01*
X227934Y88891D01*
X226809Y87766D01*
X226200Y86296D01*
Y84704D01*
X226809Y83234D01*
X227934Y82109D01*
X229404Y81500D01*
X230996D01*
X232466Y82109D01*
X233591Y83234D01*
X234200Y84704D01*
Y86296D01*
X233591Y87766D01*
X232466Y88891D01*
X230996Y89500D01*
D02*
G37*
G36*
X206996D02*
X205404D01*
X203934Y88891D01*
X202809Y87766D01*
X202200Y86296D01*
Y84704D01*
X202809Y83234D01*
X203934Y82109D01*
X205404Y81500D01*
X206996D01*
X208466Y82109D01*
X209591Y83234D01*
X210200Y84704D01*
Y86296D01*
X209591Y87766D01*
X208466Y88891D01*
X206996Y89500D01*
D02*
G37*
G36*
X174996D02*
X173404D01*
X171934Y88891D01*
X170809Y87766D01*
X170200Y86296D01*
Y84704D01*
X170809Y83234D01*
X171934Y82109D01*
X173404Y81500D01*
X174996D01*
X176466Y82109D01*
X177591Y83234D01*
X178200Y84704D01*
Y86296D01*
X177591Y87766D01*
X176466Y88891D01*
X174996Y89500D01*
D02*
G37*
G36*
X680200Y79970D02*
X678700D01*
X677315Y79396D01*
X676254Y78335D01*
X675680Y76950D01*
Y75450D01*
X676254Y74064D01*
X677315Y73004D01*
X678700Y72430D01*
X680200D01*
X681585Y73004D01*
X682646Y74064D01*
X683220Y75450D01*
Y76950D01*
X682646Y78335D01*
X681585Y79396D01*
X680200Y79970D01*
D02*
G37*
G36*
X616700D02*
X615200D01*
X613815Y79396D01*
X612754Y78335D01*
X612180Y76950D01*
Y75450D01*
X612754Y74064D01*
X613815Y73004D01*
X615200Y72430D01*
X616700D01*
X618086Y73004D01*
X619146Y74064D01*
X619720Y75450D01*
Y76950D01*
X619146Y78335D01*
X618086Y79396D01*
X616700Y79970D01*
D02*
G37*
G36*
X553200D02*
X551700D01*
X550314Y79396D01*
X549254Y78335D01*
X548680Y76950D01*
Y75450D01*
X549254Y74064D01*
X550314Y73004D01*
X551700Y72430D01*
X553200D01*
X554585Y73004D01*
X555646Y74064D01*
X556220Y75450D01*
Y76950D01*
X555646Y78335D01*
X554585Y79396D01*
X553200Y79970D01*
D02*
G37*
G36*
X108700D02*
X107200D01*
X105815Y79396D01*
X104754Y78335D01*
X104180Y76950D01*
Y75450D01*
X104754Y74064D01*
X105815Y73004D01*
X107200Y72430D01*
X108700D01*
X110085Y73004D01*
X111146Y74064D01*
X111720Y75450D01*
Y76950D01*
X111146Y78335D01*
X110085Y79396D01*
X108700Y79970D01*
D02*
G37*
G36*
X45200D02*
X43700D01*
X42315Y79396D01*
X41254Y78335D01*
X40680Y76950D01*
Y75450D01*
X41254Y74064D01*
X42315Y73004D01*
X43700Y72430D01*
X45200D01*
X46585Y73004D01*
X47646Y74064D01*
X48220Y75450D01*
Y76950D01*
X47646Y78335D01*
X46585Y79396D01*
X45200Y79970D01*
D02*
G37*
G36*
X598054Y90250D02*
X594947D01*
X591945Y89446D01*
X589255Y87892D01*
X587058Y85695D01*
X585504Y83005D01*
X584700Y80003D01*
Y76897D01*
X585504Y73895D01*
X587058Y71205D01*
X589255Y69008D01*
X591945Y67454D01*
X594947Y66650D01*
X598054D01*
X601055Y67454D01*
X603745Y69008D01*
X605942Y71205D01*
X607496Y73895D01*
X608300Y76897D01*
Y80003D01*
X607496Y83005D01*
X605942Y85695D01*
X603745Y87892D01*
X601055Y89446D01*
X598054Y90250D01*
D02*
G37*
G36*
X126653D02*
X123546D01*
X120545Y89446D01*
X117855Y87892D01*
X115658Y85695D01*
X114104Y83005D01*
X113300Y80003D01*
Y76897D01*
X114104Y73895D01*
X115658Y71205D01*
X117855Y69008D01*
X120545Y67454D01*
X123546Y66650D01*
X126653D01*
X129655Y67454D01*
X132345Y69008D01*
X134542Y71205D01*
X136096Y73895D01*
X136900Y76897D01*
Y80003D01*
X136096Y83005D01*
X134542Y85695D01*
X132345Y87892D01*
X129655Y89446D01*
X126653Y90250D01*
D02*
G37*
G36*
X470996Y74200D02*
X469404D01*
X467934Y73591D01*
X466809Y72466D01*
X466200Y70996D01*
Y69404D01*
X466809Y67934D01*
X467934Y66809D01*
X469404Y66200D01*
X470996D01*
X472466Y66809D01*
X473591Y67934D01*
X474200Y69404D01*
Y70996D01*
X473591Y72466D01*
X472466Y73591D01*
X470996Y74200D01*
D02*
G37*
G36*
X190996Y61200D02*
X189404D01*
X187934Y60591D01*
X186809Y59466D01*
X186200Y57996D01*
Y56404D01*
X186809Y54934D01*
X187934Y53809D01*
X189404Y53200D01*
X190996D01*
X192466Y53809D01*
X193591Y54934D01*
X194200Y56404D01*
Y57996D01*
X193591Y59466D01*
X192466Y60591D01*
X190996Y61200D01*
D02*
G37*
G36*
X597916Y56666D02*
X586208D01*
Y44958D01*
X597916D01*
Y56666D01*
D02*
G37*
G36*
X585192D02*
X573484D01*
Y44958D01*
X585192D01*
Y56666D01*
D02*
G37*
G36*
X374996Y45500D02*
X373404D01*
X371934Y44891D01*
X370920Y43877D01*
X370200Y43817D01*
X369480Y43877D01*
X368466Y44891D01*
X366996Y45500D01*
X365404D01*
X363934Y44891D01*
X363385Y44342D01*
X359363D01*
X358224Y44115D01*
X357257Y43469D01*
X355470Y41682D01*
X354200Y42208D01*
Y42296D01*
X353591Y43766D01*
X352466Y44891D01*
X350996Y45500D01*
X349404D01*
X347934Y44891D01*
X346809Y43766D01*
X346200Y42296D01*
Y40704D01*
X346809Y39234D01*
X347934Y38109D01*
X349404Y37500D01*
X350996D01*
X351952Y37896D01*
X353148Y37246D01*
X353222Y37152D01*
Y1834D01*
X349323Y-2065D01*
X349269Y-2084D01*
X348841Y-2468D01*
X348411Y-2778D01*
X347931Y-3055D01*
X347397Y-3299D01*
X346807Y-3509D01*
X346159Y-3682D01*
X345469Y-3815D01*
X343851Y-3968D01*
X342961Y-3981D01*
X342767Y-4064D01*
X341763D01*
X339567Y-4652D01*
X337597Y-5789D01*
X335989Y-7397D01*
X334852Y-9367D01*
X334264Y-11563D01*
Y-13837D01*
X334852Y-16033D01*
X335989Y-18003D01*
X337597Y-19611D01*
X339567Y-20747D01*
X341763Y-21336D01*
X344037D01*
X346233Y-20747D01*
X348203Y-19611D01*
X349810Y-18003D01*
X350947Y-16033D01*
X351536Y-13837D01*
Y-12832D01*
X351619Y-12639D01*
X351632Y-11733D01*
X351687Y-10911D01*
X351782Y-10147D01*
X351918Y-9441D01*
X352091Y-8793D01*
X352301Y-8203D01*
X352545Y-7669D01*
X352822Y-7188D01*
X353132Y-6759D01*
X353516Y-6331D01*
X353535Y-6277D01*
X358306Y-1506D01*
X358951Y-540D01*
X359178Y600D01*
Y8687D01*
X360448Y9028D01*
X361390Y7397D01*
X362997Y5789D01*
X364967Y4652D01*
X367163Y4064D01*
X369437D01*
X371633Y4652D01*
X373603Y5789D01*
X375210Y7397D01*
X376348Y9367D01*
X376936Y11563D01*
Y13837D01*
X376348Y16033D01*
X375210Y18003D01*
X373603Y19611D01*
X371633Y20747D01*
X369437Y21336D01*
X367163D01*
X364967Y20747D01*
X362997Y19611D01*
X361390Y18003D01*
X360448Y16372D01*
X359178Y16713D01*
Y36966D01*
X360597Y38385D01*
X363658D01*
X363934Y38109D01*
X365404Y37500D01*
X366996D01*
X368466Y38109D01*
X369480Y39123D01*
X370200Y39183D01*
X370920Y39123D01*
X371934Y38109D01*
X373404Y37500D01*
X374996D01*
X376466Y38109D01*
X377591Y39234D01*
X378200Y40704D01*
Y42296D01*
X377591Y43766D01*
X376466Y44891D01*
X374996Y45500D01*
D02*
G37*
G36*
X302996D02*
X301404D01*
X299934Y44891D01*
X298920Y43877D01*
X298200Y43817D01*
X297480Y43877D01*
X296466Y44891D01*
X294996Y45500D01*
X293404D01*
X291934Y44891D01*
X290809Y43766D01*
X290200Y42296D01*
Y41712D01*
X279329Y30841D01*
X266956D01*
X265816Y30614D01*
X264850Y29969D01*
X251349Y16468D01*
X250776Y15610D01*
X250308Y15557D01*
X249443Y15676D01*
X249347Y16033D01*
X248211Y18003D01*
X246603Y19611D01*
X244633Y20747D01*
X242437Y21336D01*
X240163D01*
X237967Y20747D01*
X235997Y19611D01*
X234389Y18003D01*
X233253Y16033D01*
X232664Y13837D01*
Y11563D01*
X233253Y9367D01*
X234389Y7397D01*
X235997Y5789D01*
X236815Y5318D01*
X236474Y4048D01*
X220726D01*
X220385Y5318D01*
X221203Y5789D01*
X222810Y7397D01*
X223948Y9367D01*
X224536Y11563D01*
Y13837D01*
X223948Y16033D01*
X222810Y18003D01*
X221203Y19611D01*
X219233Y20747D01*
X217037Y21336D01*
X214763D01*
X212567Y20747D01*
X210597Y19611D01*
X208990Y18003D01*
X207852Y16033D01*
X207264Y13837D01*
Y11563D01*
X207852Y9367D01*
X208990Y7397D01*
X210597Y5789D01*
X211415Y5318D01*
X211074Y4048D01*
X204269D01*
X203130Y3821D01*
X202164Y3175D01*
X196923Y-2065D01*
X196869Y-2084D01*
X196441Y-2468D01*
X196012Y-2778D01*
X195531Y-3055D01*
X194997Y-3299D01*
X194407Y-3509D01*
X193759Y-3682D01*
X193069Y-3815D01*
X191451Y-3968D01*
X190561Y-3981D01*
X190368Y-4064D01*
X189363D01*
X187167Y-4652D01*
X185197Y-5789D01*
X183589Y-7397D01*
X182453Y-9367D01*
X181864Y-11563D01*
Y-13837D01*
X182453Y-16033D01*
X183589Y-18003D01*
X185197Y-19611D01*
X187167Y-20747D01*
X189363Y-21336D01*
X191637D01*
X193833Y-20747D01*
X195803Y-19611D01*
X197411Y-18003D01*
X198547Y-16033D01*
X199136Y-13837D01*
Y-12832D01*
X199219Y-12639D01*
X199232Y-11733D01*
X199286Y-10911D01*
X199382Y-10147D01*
X199518Y-9441D01*
X199691Y-8793D01*
X199901Y-8203D01*
X200145Y-7669D01*
X200422Y-7188D01*
X200732Y-6759D01*
X201116Y-6331D01*
X201135Y-6277D01*
X205503Y-1909D01*
X244577D01*
X245716Y-1682D01*
X246682Y-1037D01*
X255561Y7842D01*
X256207Y8808D01*
X256433Y9948D01*
Y12264D01*
X256794Y12505D01*
X258064Y11826D01*
Y11563D01*
X258652Y9367D01*
X259790Y7397D01*
X261397Y5789D01*
X263367Y4652D01*
X265563Y4064D01*
X267837D01*
X270033Y4652D01*
X272003Y5789D01*
X273610Y7397D01*
X274748Y9367D01*
X275336Y11563D01*
Y13837D01*
X274748Y16033D01*
X273610Y18003D01*
X272003Y19611D01*
X270033Y20747D01*
X267837Y21336D01*
X266437D01*
X265911Y22606D01*
X268189Y24885D01*
X280563D01*
X281703Y25111D01*
X282669Y25757D01*
X294412Y37500D01*
X294996D01*
X296466Y38109D01*
X297480Y39123D01*
X298200Y39183D01*
X298920Y39123D01*
X299934Y38109D01*
X301404Y37500D01*
X302996D01*
X304466Y38109D01*
X305591Y39234D01*
X306200Y40704D01*
Y42296D01*
X305591Y43766D01*
X304466Y44891D01*
X302996Y45500D01*
D02*
G37*
G36*
X486996D02*
X485404D01*
X483934Y44891D01*
X482809Y43766D01*
X482200Y42296D01*
Y40704D01*
X482809Y39234D01*
X483934Y38109D01*
X485404Y37500D01*
X486996D01*
X488466Y38109D01*
X489591Y39234D01*
X490200Y40704D01*
Y42296D01*
X489591Y43766D01*
X488466Y44891D01*
X486996Y45500D01*
D02*
G37*
G36*
X422996D02*
X421404D01*
X419934Y44891D01*
X418809Y43766D01*
X418200Y42296D01*
Y40704D01*
X418809Y39234D01*
X419934Y38109D01*
X421404Y37500D01*
X422996D01*
X424466Y38109D01*
X425591Y39234D01*
X426200Y40704D01*
Y42296D01*
X425591Y43766D01*
X424466Y44891D01*
X422996Y45500D01*
D02*
G37*
G36*
X326996D02*
X325404D01*
X323934Y44891D01*
X322809Y43766D01*
X322200Y42296D01*
Y40704D01*
X322809Y39234D01*
X323934Y38109D01*
X325404Y37500D01*
X326996D01*
X328466Y38109D01*
X329591Y39234D01*
X330200Y40704D01*
Y42296D01*
X329591Y43766D01*
X328466Y44891D01*
X326996Y45500D01*
D02*
G37*
G36*
X278996D02*
X277404D01*
X275934Y44891D01*
X274809Y43766D01*
X274200Y42296D01*
Y40704D01*
X274809Y39234D01*
X275934Y38109D01*
X277404Y37500D01*
X278996D01*
X280466Y38109D01*
X281591Y39234D01*
X282200Y40704D01*
Y42296D01*
X281591Y43766D01*
X280466Y44891D01*
X278996Y45500D01*
D02*
G37*
G36*
X254996D02*
X253404D01*
X251934Y44891D01*
X250809Y43766D01*
X250200Y42296D01*
Y40704D01*
X250809Y39234D01*
X251934Y38109D01*
X253404Y37500D01*
X254996D01*
X256466Y38109D01*
X257591Y39234D01*
X258200Y40704D01*
Y42296D01*
X257591Y43766D01*
X256466Y44891D01*
X254996Y45500D01*
D02*
G37*
G36*
X191637Y129286D02*
X189363D01*
X187167Y128698D01*
X185197Y127561D01*
X183589Y125953D01*
X182453Y123983D01*
X181864Y121787D01*
Y119513D01*
X182453Y117317D01*
X183589Y115347D01*
X184300Y114637D01*
X184377Y114442D01*
X185009Y113792D01*
X185552Y113172D01*
X186025Y112564D01*
X186428Y111969D01*
X186763Y111389D01*
X187033Y110823D01*
X187238Y110273D01*
X187381Y109737D01*
X187466Y109213D01*
X187497Y108640D01*
X187522Y108588D01*
Y73200D01*
X187749Y72060D01*
X188394Y71094D01*
X218200Y41288D01*
Y40704D01*
X218809Y39234D01*
X219934Y38109D01*
X221404Y37500D01*
X222996D01*
X224466Y38109D01*
X225480Y39123D01*
X226200Y39183D01*
X226920Y39123D01*
X227934Y38109D01*
X229404Y37500D01*
X230996D01*
X232466Y38109D01*
X233591Y39234D01*
X234200Y40704D01*
Y42296D01*
X233591Y43766D01*
X232466Y44891D01*
X230996Y45500D01*
X229404D01*
X227934Y44891D01*
X226920Y43877D01*
X226200Y43817D01*
X225480Y43877D01*
X224466Y44891D01*
X222996Y45500D01*
X222412D01*
X193478Y74434D01*
Y108588D01*
X193503Y108640D01*
X193534Y109214D01*
X193619Y109737D01*
X193762Y110273D01*
X193967Y110823D01*
X194237Y111389D01*
X194572Y111969D01*
X194966Y112550D01*
X196002Y113803D01*
X196623Y114442D01*
X196700Y114637D01*
X197411Y115347D01*
X198547Y117317D01*
X199136Y119513D01*
Y121787D01*
X198547Y123983D01*
X197411Y125953D01*
X195803Y127561D01*
X193833Y128698D01*
X191637Y129286D01*
D02*
G37*
G36*
X206996Y45500D02*
X205404D01*
X203934Y44891D01*
X202809Y43766D01*
X202200Y42296D01*
Y40704D01*
X202809Y39234D01*
X203934Y38109D01*
X205404Y37500D01*
X206996D01*
X208466Y38109D01*
X209591Y39234D01*
X210200Y40704D01*
Y42296D01*
X209591Y43766D01*
X208466Y44891D01*
X206996Y45500D01*
D02*
G37*
G36*
X174996D02*
X173404D01*
X171934Y44891D01*
X170809Y43766D01*
X170200Y42296D01*
Y40704D01*
X170809Y39234D01*
X171934Y38109D01*
X173404Y37500D01*
X174996D01*
X176466Y38109D01*
X177591Y39234D01*
X178200Y40704D01*
Y42296D01*
X177591Y43766D01*
X176466Y44891D01*
X174996Y45500D01*
D02*
G37*
G36*
X597916Y43942D02*
X586208D01*
Y32234D01*
X597916D01*
Y43942D01*
D02*
G37*
G36*
X585192D02*
X573484D01*
Y32234D01*
X585192D01*
Y43942D01*
D02*
G37*
G36*
X547708Y56666D02*
X544492D01*
X541385Y55834D01*
X538599Y54225D01*
X536325Y51951D01*
X534716Y49165D01*
X533884Y46058D01*
Y42842D01*
X534716Y39735D01*
X536325Y36949D01*
X538599Y34675D01*
X541385Y33066D01*
X544492Y32234D01*
X547708D01*
X550815Y33066D01*
X553601Y34675D01*
X555875Y36949D01*
X557483Y39735D01*
X558316Y42842D01*
Y46058D01*
X557483Y49165D01*
X555875Y51951D01*
X553601Y54225D01*
X550815Y55834D01*
X547708Y56666D01*
D02*
G37*
G36*
X126516D02*
X102084D01*
Y32234D01*
X126516D01*
Y56666D01*
D02*
G37*
G36*
X76308D02*
X73092D01*
X69985Y55834D01*
X67199Y54225D01*
X64925Y51951D01*
X63316Y49165D01*
X62484Y46058D01*
Y42842D01*
X63316Y39735D01*
X64925Y36949D01*
X67199Y34675D01*
X69985Y33066D01*
X73092Y32234D01*
X76308D01*
X79415Y33066D01*
X82201Y34675D01*
X84475Y36949D01*
X86083Y39735D01*
X86916Y42842D01*
Y46058D01*
X86083Y49165D01*
X84475Y51951D01*
X82201Y54225D01*
X79415Y55834D01*
X76308Y56666D01*
D02*
G37*
G36*
X398820Y45675D02*
X397229D01*
X395759Y45066D01*
X394633Y43941D01*
X394025Y42471D01*
Y40880D01*
X394633Y39410D01*
X395759Y38284D01*
X397229Y37675D01*
X398820D01*
X400290Y38284D01*
X401415Y39410D01*
X402763Y39344D01*
X402809Y39234D01*
X403222Y38821D01*
Y15438D01*
X401952Y15271D01*
X401748Y16033D01*
X400611Y18003D01*
X399003Y19611D01*
X397033Y20747D01*
X394837Y21336D01*
X392563D01*
X390367Y20747D01*
X388397Y19611D01*
X386790Y18003D01*
X385653Y16033D01*
X385064Y13837D01*
Y11563D01*
X385653Y9367D01*
X386790Y7397D01*
X388397Y5789D01*
X390367Y4652D01*
X392563Y4064D01*
X394837D01*
X397033Y4652D01*
X399003Y5789D01*
X400611Y7397D01*
X401748Y9367D01*
X401952Y10129D01*
X403222Y9962D01*
Y1034D01*
X400123Y-2065D01*
X400069Y-2084D01*
X399641Y-2468D01*
X399212Y-2778D01*
X398731Y-3055D01*
X398197Y-3299D01*
X397607Y-3509D01*
X396959Y-3682D01*
X396269Y-3815D01*
X394651Y-3968D01*
X393761Y-3981D01*
X393568Y-4064D01*
X392563D01*
X390367Y-4652D01*
X388397Y-5789D01*
X386790Y-7397D01*
X385653Y-9367D01*
X385064Y-11563D01*
Y-13837D01*
X385653Y-16033D01*
X386790Y-18003D01*
X388397Y-19611D01*
X390367Y-20747D01*
X392563Y-21336D01*
X394837D01*
X397033Y-20747D01*
X399003Y-19611D01*
X400611Y-18003D01*
X401748Y-16033D01*
X402336Y-13837D01*
Y-12832D01*
X402419Y-12639D01*
X402432Y-11733D01*
X402486Y-10911D01*
X402582Y-10147D01*
X402718Y-9441D01*
X402891Y-8793D01*
X403101Y-8203D01*
X403345Y-7669D01*
X403622Y-7188D01*
X403932Y-6759D01*
X404316Y-6331D01*
X404335Y-6277D01*
X408306Y-2306D01*
X408951Y-1340D01*
X409178Y-200D01*
Y38821D01*
X409591Y39234D01*
X410200Y40704D01*
Y42296D01*
X409591Y43766D01*
X408466Y44891D01*
X406996Y45500D01*
X405404D01*
X403934Y44891D01*
X402809Y43766D01*
X401461Y43831D01*
X401416Y43941D01*
X400290Y45066D01*
X398820Y45675D01*
D02*
G37*
G36*
X584950Y16470D02*
X583450D01*
X582065Y15896D01*
X581004Y14835D01*
X580430Y13450D01*
Y11950D01*
X581004Y10565D01*
X582065Y9504D01*
X583450Y8930D01*
X584950D01*
X586335Y9504D01*
X587396Y10565D01*
X587970Y11950D01*
Y13450D01*
X587396Y14835D01*
X586335Y15896D01*
X584950Y16470D01*
D02*
G37*
G36*
X521450D02*
X519950D01*
X518564Y15896D01*
X517504Y14835D01*
X516930Y13450D01*
Y11950D01*
X517504Y10565D01*
X518564Y9504D01*
X519950Y8930D01*
X521450D01*
X522836Y9504D01*
X523896Y10565D01*
X524470Y11950D01*
Y13450D01*
X523896Y14835D01*
X522836Y15896D01*
X521450Y16470D01*
D02*
G37*
G36*
X140450D02*
X138950D01*
X137564Y15896D01*
X136504Y14835D01*
X135930Y13450D01*
Y11950D01*
X136504Y10565D01*
X137564Y9504D01*
X138950Y8930D01*
X140450D01*
X141835Y9504D01*
X142896Y10565D01*
X143470Y11950D01*
Y13450D01*
X142896Y14835D01*
X141835Y15896D01*
X140450Y16470D01*
D02*
G37*
G36*
X76950D02*
X75450D01*
X74064Y15896D01*
X73004Y14835D01*
X72430Y13450D01*
Y11950D01*
X73004Y10565D01*
X74064Y9504D01*
X75450Y8930D01*
X76950D01*
X78335Y9504D01*
X79396Y10565D01*
X79970Y11950D01*
Y13450D01*
X79396Y14835D01*
X78335Y15896D01*
X76950Y16470D01*
D02*
G37*
G36*
X445637Y21336D02*
X443363D01*
X441167Y20747D01*
X439197Y19611D01*
X437589Y18003D01*
X436452Y16033D01*
X435864Y13837D01*
Y11563D01*
X436452Y9367D01*
X437589Y7397D01*
X439197Y5789D01*
X441167Y4652D01*
X443363Y4064D01*
X445637D01*
X447833Y4652D01*
X449803Y5789D01*
X451410Y7397D01*
X452547Y9367D01*
X453136Y11563D01*
Y13837D01*
X452547Y16033D01*
X451410Y18003D01*
X449803Y19611D01*
X447833Y20747D01*
X445637Y21336D01*
D02*
G37*
G36*
X420237D02*
X417963D01*
X415767Y20747D01*
X413797Y19611D01*
X412189Y18003D01*
X411053Y16033D01*
X410464Y13837D01*
Y11563D01*
X411053Y9367D01*
X412189Y7397D01*
X413797Y5789D01*
X415767Y4652D01*
X417963Y4064D01*
X420237D01*
X422433Y4652D01*
X424403Y5789D01*
X426011Y7397D01*
X427147Y9367D01*
X427736Y11563D01*
Y13837D01*
X427147Y16033D01*
X426011Y18003D01*
X424403Y19611D01*
X422433Y20747D01*
X420237Y21336D01*
D02*
G37*
G36*
X344037D02*
X341763D01*
X339567Y20747D01*
X337597Y19611D01*
X335989Y18003D01*
X334852Y16033D01*
X334264Y13837D01*
Y11563D01*
X334852Y9367D01*
X335989Y7397D01*
X337597Y5789D01*
X339567Y4652D01*
X341763Y4064D01*
X344037D01*
X346233Y4652D01*
X348203Y5789D01*
X349810Y7397D01*
X350947Y9367D01*
X351536Y11563D01*
Y13837D01*
X350947Y16033D01*
X349810Y18003D01*
X348203Y19611D01*
X346233Y20747D01*
X344037Y21336D01*
D02*
G37*
G36*
X318637D02*
X316363D01*
X314167Y20747D01*
X312197Y19611D01*
X310590Y18003D01*
X309452Y16033D01*
X308864Y13837D01*
Y11563D01*
X309452Y9367D01*
X310590Y7397D01*
X312197Y5789D01*
X314167Y4652D01*
X316363Y4064D01*
X318637D01*
X320833Y4652D01*
X322803Y5789D01*
X324411Y7397D01*
X325547Y9367D01*
X326136Y11563D01*
Y13837D01*
X325547Y16033D01*
X324411Y18003D01*
X322803Y19611D01*
X320833Y20747D01*
X318637Y21336D01*
D02*
G37*
G36*
X293237D02*
X290963D01*
X288767Y20747D01*
X286797Y19611D01*
X285189Y18003D01*
X284053Y16033D01*
X283464Y13837D01*
Y11563D01*
X284053Y9367D01*
X285189Y7397D01*
X286797Y5789D01*
X288767Y4652D01*
X290963Y4064D01*
X293237D01*
X295433Y4652D01*
X297403Y5789D01*
X299011Y7397D01*
X300147Y9367D01*
X300736Y11563D01*
Y13837D01*
X300147Y16033D01*
X299011Y18003D01*
X297403Y19611D01*
X295433Y20747D01*
X293237Y21336D01*
D02*
G37*
G36*
X191637D02*
X189363D01*
X187167Y20747D01*
X185197Y19611D01*
X183589Y18003D01*
X182453Y16033D01*
X181864Y13837D01*
Y11563D01*
X182453Y9367D01*
X183589Y7397D01*
X185197Y5789D01*
X187167Y4652D01*
X189363Y4064D01*
X191637D01*
X193833Y4652D01*
X195803Y5789D01*
X197411Y7397D01*
X198547Y9367D01*
X199136Y11563D01*
Y13837D01*
X198547Y16033D01*
X197411Y18003D01*
X195803Y19611D01*
X193833Y20747D01*
X191637Y21336D01*
D02*
G37*
G36*
X662479Y45466D02*
X658321D01*
X654214Y44816D01*
X650260Y43531D01*
X646555Y41643D01*
X643191Y39199D01*
X640251Y36259D01*
X637807Y32895D01*
X635919Y29190D01*
X634634Y25236D01*
X633984Y21129D01*
Y16971D01*
X634634Y12864D01*
X635919Y8910D01*
X637807Y5205D01*
X640251Y1841D01*
X643191Y-1099D01*
X646555Y-3543D01*
X650260Y-5431D01*
X654214Y-6716D01*
X658321Y-7366D01*
X662479D01*
X666586Y-6716D01*
X670540Y-5431D01*
X674245Y-3543D01*
X677609Y-1099D01*
X680549Y1841D01*
X682993Y5205D01*
X684881Y8910D01*
X686166Y12864D01*
X686816Y16971D01*
Y21129D01*
X686166Y25236D01*
X684881Y29190D01*
X682993Y32895D01*
X680549Y36259D01*
X677609Y39199D01*
X674245Y41643D01*
X670540Y43531D01*
X666586Y44816D01*
X662479Y45466D01*
D02*
G37*
G36*
X2079D02*
X-2079D01*
X-6186Y44816D01*
X-10140Y43531D01*
X-13845Y41643D01*
X-17209Y39199D01*
X-20149Y36259D01*
X-22593Y32895D01*
X-24481Y29190D01*
X-25766Y25236D01*
X-26416Y21129D01*
Y16971D01*
X-25766Y12864D01*
X-24481Y8910D01*
X-22593Y5205D01*
X-20149Y1841D01*
X-17209Y-1099D01*
X-13845Y-3543D01*
X-10140Y-5431D01*
X-6186Y-6716D01*
X-2079Y-7366D01*
X2079D01*
X6186Y-6716D01*
X10140Y-5431D01*
X13845Y-3543D01*
X17209Y-1099D01*
X20149Y1841D01*
X22593Y5205D01*
X24481Y8910D01*
X25766Y12864D01*
X26416Y16971D01*
Y21129D01*
X25766Y25236D01*
X24481Y29190D01*
X22593Y32895D01*
X20149Y36259D01*
X17209Y39199D01*
X13845Y41643D01*
X10140Y43531D01*
X6186Y44816D01*
X2079Y45466D01*
D02*
G37*
G36*
X420237Y-4064D02*
X419608D01*
Y-12192D01*
X427736D01*
Y-11563D01*
X427147Y-9367D01*
X426011Y-7397D01*
X424403Y-5789D01*
X422433Y-4652D01*
X420237Y-4064D01*
D02*
G37*
G36*
X418592D02*
X417963D01*
X415767Y-4652D01*
X413797Y-5789D01*
X412189Y-7397D01*
X411053Y-9367D01*
X410464Y-11563D01*
Y-12192D01*
X418592D01*
Y-4064D01*
D02*
G37*
G36*
X471037D02*
X468763D01*
X466567Y-4652D01*
X464597Y-5789D01*
X462990Y-7397D01*
X461852Y-9367D01*
X461264Y-11563D01*
Y-13837D01*
X461852Y-16033D01*
X462990Y-18003D01*
X464597Y-19611D01*
X466567Y-20747D01*
X468763Y-21336D01*
X471037D01*
X473233Y-20747D01*
X475203Y-19611D01*
X476810Y-18003D01*
X477948Y-16033D01*
X478536Y-13837D01*
Y-11563D01*
X477948Y-9367D01*
X476810Y-7397D01*
X475203Y-5789D01*
X473233Y-4652D01*
X471037Y-4064D01*
D02*
G37*
G36*
X445637D02*
X443363D01*
X441167Y-4652D01*
X439197Y-5789D01*
X437589Y-7397D01*
X436452Y-9367D01*
X435864Y-11563D01*
Y-13837D01*
X436452Y-16033D01*
X437589Y-18003D01*
X439197Y-19611D01*
X441167Y-20747D01*
X443363Y-21336D01*
X445637D01*
X447833Y-20747D01*
X449803Y-19611D01*
X451410Y-18003D01*
X452547Y-16033D01*
X453136Y-13837D01*
Y-11563D01*
X452547Y-9367D01*
X451410Y-7397D01*
X449803Y-5789D01*
X447833Y-4652D01*
X445637Y-4064D01*
D02*
G37*
G36*
X427736Y-13208D02*
X419608D01*
Y-21336D01*
X420237D01*
X422433Y-20747D01*
X424403Y-19611D01*
X426011Y-18003D01*
X427147Y-16033D01*
X427736Y-13837D01*
Y-13208D01*
D02*
G37*
G36*
X418592D02*
X410464D01*
Y-13837D01*
X411053Y-16033D01*
X412189Y-18003D01*
X413797Y-19611D01*
X415767Y-20747D01*
X417963Y-21336D01*
X418592D01*
Y-13208D01*
D02*
G37*
G36*
X369437Y-4064D02*
X367163D01*
X364967Y-4652D01*
X362997Y-5789D01*
X361390Y-7397D01*
X360252Y-9367D01*
X359664Y-11563D01*
Y-13837D01*
X360252Y-16033D01*
X361390Y-18003D01*
X362997Y-19611D01*
X364967Y-20747D01*
X367163Y-21336D01*
X369437D01*
X371633Y-20747D01*
X373603Y-19611D01*
X375210Y-18003D01*
X376348Y-16033D01*
X376936Y-13837D01*
Y-11563D01*
X376348Y-9367D01*
X375210Y-7397D01*
X373603Y-5789D01*
X371633Y-4652D01*
X369437Y-4064D01*
D02*
G37*
G36*
X318637D02*
X316363D01*
X314167Y-4652D01*
X312197Y-5789D01*
X310590Y-7397D01*
X309452Y-9367D01*
X308864Y-11563D01*
Y-13837D01*
X309452Y-16033D01*
X310590Y-18003D01*
X312197Y-19611D01*
X314167Y-20747D01*
X316363Y-21336D01*
X318637D01*
X320833Y-20747D01*
X322803Y-19611D01*
X324411Y-18003D01*
X325547Y-16033D01*
X326136Y-13837D01*
Y-11563D01*
X325547Y-9367D01*
X324411Y-7397D01*
X322803Y-5789D01*
X320833Y-4652D01*
X318637Y-4064D01*
D02*
G37*
G36*
X293237D02*
X290963D01*
X288767Y-4652D01*
X286797Y-5789D01*
X285189Y-7397D01*
X284053Y-9367D01*
X283464Y-11563D01*
Y-13837D01*
X284053Y-16033D01*
X285189Y-18003D01*
X286797Y-19611D01*
X288767Y-20747D01*
X290963Y-21336D01*
X293237D01*
X295433Y-20747D01*
X297403Y-19611D01*
X299011Y-18003D01*
X300147Y-16033D01*
X300736Y-13837D01*
Y-11563D01*
X300147Y-9367D01*
X299011Y-7397D01*
X297403Y-5789D01*
X295433Y-4652D01*
X293237Y-4064D01*
D02*
G37*
G36*
X267837D02*
X265563D01*
X263367Y-4652D01*
X261397Y-5789D01*
X259790Y-7397D01*
X258652Y-9367D01*
X258064Y-11563D01*
Y-13837D01*
X258652Y-16033D01*
X259790Y-18003D01*
X261397Y-19611D01*
X263367Y-20747D01*
X265563Y-21336D01*
X267837D01*
X270033Y-20747D01*
X272003Y-19611D01*
X273610Y-18003D01*
X274748Y-16033D01*
X275336Y-13837D01*
Y-11563D01*
X274748Y-9367D01*
X273610Y-7397D01*
X272003Y-5789D01*
X270033Y-4652D01*
X267837Y-4064D01*
D02*
G37*
G36*
X242437D02*
X240163D01*
X237967Y-4652D01*
X235997Y-5789D01*
X234389Y-7397D01*
X233253Y-9367D01*
X232664Y-11563D01*
Y-13837D01*
X233253Y-16033D01*
X234389Y-18003D01*
X235997Y-19611D01*
X237967Y-20747D01*
X240163Y-21336D01*
X242437D01*
X244633Y-20747D01*
X246603Y-19611D01*
X248211Y-18003D01*
X249347Y-16033D01*
X249936Y-13837D01*
Y-11563D01*
X249347Y-9367D01*
X248211Y-7397D01*
X246603Y-5789D01*
X244633Y-4652D01*
X242437Y-4064D01*
D02*
G37*
G36*
X217037D02*
X214763D01*
X212567Y-4652D01*
X210597Y-5789D01*
X208990Y-7397D01*
X207852Y-9367D01*
X207264Y-11563D01*
Y-13837D01*
X207852Y-16033D01*
X208990Y-18003D01*
X210597Y-19611D01*
X212567Y-20747D01*
X214763Y-21336D01*
X217037D01*
X219233Y-20747D01*
X221203Y-19611D01*
X222810Y-18003D01*
X223948Y-16033D01*
X224536Y-13837D01*
Y-11563D01*
X223948Y-9367D01*
X222810Y-7397D01*
X221203Y-5789D01*
X219233Y-4652D01*
X217037Y-4064D01*
D02*
G37*
%LPD*%
G36*
X419024Y138430D02*
X418089Y138417D01*
X416375Y138255D01*
X415595Y138105D01*
X414866Y137910D01*
X414189Y137670D01*
X413564Y137384D01*
X412990Y137052D01*
X412468Y136675D01*
X411997Y136253D01*
X409303Y138947D01*
X409725Y139418D01*
X410102Y139940D01*
X410434Y140514D01*
X410720Y141139D01*
X410960Y141817D01*
X411155Y142545D01*
X411305Y143325D01*
X411409Y144156D01*
X411467Y145039D01*
X411480Y145974D01*
X419024Y138430D01*
D02*
G37*
G36*
X469824D02*
X468889Y138417D01*
X467175Y138255D01*
X466395Y138105D01*
X465667Y137910D01*
X464990Y137670D01*
X464364Y137384D01*
X463790Y137052D01*
X463268Y136675D01*
X462797Y136253D01*
X460103Y138947D01*
X460525Y139418D01*
X460902Y139940D01*
X461234Y140514D01*
X461520Y141139D01*
X461760Y141817D01*
X461955Y142545D01*
X462105Y143325D01*
X462209Y144156D01*
X462267Y145039D01*
X462280Y145974D01*
X469824Y138430D01*
D02*
G37*
G36*
X461585Y20670D02*
X462121Y20297D01*
X462691Y19997D01*
X463296Y19772D01*
X463935Y19621D01*
X464607Y19544D01*
X465314Y19541D01*
X466055Y19612D01*
X466831Y19758D01*
X467640Y19977D01*
X462579Y10586D01*
X462279Y11579D01*
X461332Y14168D01*
X461001Y14900D01*
X460315Y16170D01*
X459961Y16706D01*
X459598Y17178D01*
X459228Y17585D01*
X461083Y21118D01*
X461585Y20670D01*
D02*
G37*
G36*
X266624Y138430D02*
X265689Y138417D01*
X263975Y138255D01*
X263195Y138105D01*
X262467Y137910D01*
X261790Y137670D01*
X261164Y137384D01*
X260590Y137052D01*
X260068Y136675D01*
X259597Y136253D01*
X256903Y138947D01*
X257325Y139418D01*
X257702Y139940D01*
X258034Y140514D01*
X258320Y141139D01*
X258560Y141817D01*
X258755Y142545D01*
X258905Y143325D01*
X259009Y144156D01*
X259067Y145039D01*
X259080Y145974D01*
X266624Y138430D01*
D02*
G37*
G36*
X272034Y115208D02*
X271383Y114538D01*
X270285Y113211D01*
X269839Y112554D01*
X269462Y111901D01*
X269154Y111252D01*
X268914Y110608D01*
X268742Y109967D01*
X268639Y109332D01*
X268605Y108700D01*
X264795Y108700D01*
X264761Y109332D01*
X264658Y109967D01*
X264486Y110608D01*
X264246Y111252D01*
X263938Y111901D01*
X263561Y112554D01*
X263115Y113211D01*
X262600Y113872D01*
X262017Y114538D01*
X261366Y115208D01*
X272034Y115208D01*
D02*
G37*
G36*
X352697Y-5597D02*
X352275Y-6068D01*
X351898Y-6590D01*
X351566Y-7164D01*
X351280Y-7789D01*
X351040Y-8467D01*
X350845Y-9195D01*
X350695Y-9975D01*
X350591Y-10806D01*
X350533Y-11689D01*
X350520Y-12624D01*
X342976Y-5080D01*
X343911Y-5067D01*
X345625Y-4905D01*
X346405Y-4755D01*
X347133Y-4560D01*
X347811Y-4320D01*
X348436Y-4034D01*
X349010Y-3702D01*
X349532Y-3325D01*
X350003Y-2903D01*
X352697Y-5597D01*
D02*
G37*
G36*
X200297D02*
X199875Y-6068D01*
X199498Y-6590D01*
X199166Y-7164D01*
X198880Y-7789D01*
X198640Y-8467D01*
X198445Y-9195D01*
X198295Y-9975D01*
X198191Y-10806D01*
X198133Y-11689D01*
X198120Y-12624D01*
X190576Y-5080D01*
X191511Y-5067D01*
X193225Y-4905D01*
X194005Y-4755D01*
X194734Y-4560D01*
X195410Y-4320D01*
X196036Y-4034D01*
X196610Y-3702D01*
X197132Y-3325D01*
X197603Y-2903D01*
X200297Y-5597D01*
D02*
G37*
G36*
X195182Y114538D02*
X194085Y113211D01*
X193639Y112554D01*
X193262Y111901D01*
X192954Y111252D01*
X192714Y110608D01*
X192542Y109967D01*
X192439Y109332D01*
X192405Y108700D01*
X188595D01*
X188561Y109332D01*
X188458Y109967D01*
X188286Y110608D01*
X188046Y111252D01*
X187738Y111901D01*
X187361Y112554D01*
X186915Y113211D01*
X186400Y113872D01*
X185818Y114538D01*
X185166Y115208D01*
X195834D01*
X195182Y114538D01*
D02*
G37*
G36*
X403497Y-5597D02*
X403075Y-6068D01*
X402698Y-6590D01*
X402366Y-7164D01*
X402080Y-7789D01*
X401840Y-8467D01*
X401645Y-9195D01*
X401495Y-9975D01*
X401391Y-10806D01*
X401333Y-11689D01*
X401320Y-12624D01*
X393776Y-5080D01*
X394711Y-5067D01*
X396425Y-4905D01*
X397205Y-4755D01*
X397934Y-4560D01*
X398610Y-4320D01*
X399236Y-4034D01*
X399810Y-3702D01*
X400332Y-3325D01*
X400803Y-2903D01*
X403497Y-5597D01*
D02*
G37*
D21*
X356200Y38200D02*
X359363Y41363D01*
X366063D01*
X280563Y27863D02*
X294200Y41500D01*
X253455Y14362D02*
X266956Y27863D01*
X190500Y73200D02*
Y120650D01*
X366063Y41363D02*
X366200Y41500D01*
X190500Y73200D02*
X222200Y41500D01*
X266956Y27863D02*
X280563D01*
X356200Y600D02*
Y38200D01*
X393700Y-12700D02*
X406200Y-200D01*
Y41500D01*
X446967Y95967D02*
X457200Y106200D01*
X266700Y106700D02*
X277232Y96168D01*
X283532D01*
X430200Y85500D02*
X440667Y95967D01*
X348418Y93418D02*
X356200Y101200D01*
X342118Y93418D02*
X348418D01*
X246200Y85500D02*
Y100922D01*
X440667Y95967D02*
X446967D01*
X446200Y30050D02*
Y85500D01*
X334200D02*
X342118Y93418D01*
X283532Y96168D02*
X294200Y85500D01*
X342900Y-12700D02*
X356200Y600D01*
X455949Y20301D02*
X459206D01*
X466807Y12700D01*
X469900D01*
X446200Y30050D02*
X455949Y20301D01*
X253455Y9948D02*
Y14362D01*
X244577Y1069D02*
X253455Y9948D01*
X204269Y1069D02*
X244577D01*
X190500Y-12700D02*
X204269Y1069D01*
X254200Y108922D02*
Y133550D01*
X246200Y100922D02*
X254200Y108922D01*
X266700Y106700D02*
Y120650D01*
X457200Y106200D02*
Y133350D01*
X367182Y134440D02*
X407490D01*
X356200Y101200D02*
Y123457D01*
X367182Y134440D01*
X254200Y133550D02*
X266700Y146050D01*
X407490Y134440D02*
X419100Y146050D01*
X457200Y133350D02*
X469900Y146050D01*
D22*
X125100Y78450D02*
D03*
X596500D02*
D03*
D23*
X114300Y44450D02*
D03*
X585700D02*
D03*
D24*
X74700D02*
D03*
X546100D02*
D03*
D25*
X0Y234950D02*
D03*
X660400D02*
D03*
Y19050D02*
D03*
X0D02*
D03*
D26*
X190500Y-12700D02*
D03*
X215900D02*
D03*
X241300D02*
D03*
X266700D02*
D03*
X292100D02*
D03*
X317500D02*
D03*
X342900D02*
D03*
X368300D02*
D03*
X393700D02*
D03*
X419100D02*
D03*
X444500D02*
D03*
X469900D02*
D03*
X190500Y12700D02*
D03*
X215900D02*
D03*
X241300D02*
D03*
X266700D02*
D03*
X292100D02*
D03*
X317500D02*
D03*
X342900D02*
D03*
X368300D02*
D03*
X393700D02*
D03*
X419100D02*
D03*
X444500D02*
D03*
X469900D02*
D03*
X190500Y120650D02*
D03*
X215900D02*
D03*
X241300D02*
D03*
X266700D02*
D03*
X292100D02*
D03*
X317500D02*
D03*
X342900D02*
D03*
X368300D02*
D03*
X393700D02*
D03*
X419100D02*
D03*
X444500D02*
D03*
X469900D02*
D03*
X190500Y146050D02*
D03*
X215900D02*
D03*
X241300D02*
D03*
X266700D02*
D03*
X292100D02*
D03*
X317500D02*
D03*
X342900D02*
D03*
X368300D02*
D03*
X393700D02*
D03*
X419100D02*
D03*
X444500D02*
D03*
X469900D02*
D03*
D27*
X222200Y41500D02*
D03*
X350200D02*
D03*
X206200D02*
D03*
X190200D02*
D03*
X278200D02*
D03*
X302200D02*
D03*
X182200D02*
D03*
X326200D02*
D03*
X294200D02*
D03*
X254200D02*
D03*
X174200D02*
D03*
X230200D02*
D03*
X198200D02*
D03*
X366200D02*
D03*
X374200D02*
D03*
X438200D02*
D03*
X406200D02*
D03*
X422200D02*
D03*
X398024Y41675D02*
D03*
X486200Y41500D02*
D03*
X454200D02*
D03*
X278200Y85500D02*
D03*
X246200D02*
D03*
X350200D02*
D03*
X302200D02*
D03*
X334200D02*
D03*
X454200D02*
D03*
X254200D02*
D03*
X422200D02*
D03*
X438376Y85324D02*
D03*
X462200Y85500D02*
D03*
X430200D02*
D03*
X398200D02*
D03*
X374200D02*
D03*
X326200D02*
D03*
X294200D02*
D03*
X310200D02*
D03*
X318200D02*
D03*
X446200D02*
D03*
X470200D02*
D03*
X486200D02*
D03*
X478200D02*
D03*
X230200D02*
D03*
X206200D02*
D03*
X174200D02*
D03*
X190200Y57200D02*
D03*
X470200Y70200D02*
D03*
D28*
X647700Y139700D02*
D03*
X679450Y76200D02*
D03*
X615950Y203200D02*
D03*
X584200Y139700D02*
D03*
X615950Y76200D02*
D03*
X584200Y12700D02*
D03*
X552450Y203200D02*
D03*
X520700Y139700D02*
D03*
X552450Y76200D02*
D03*
X520700Y12700D02*
D03*
X488950Y203200D02*
D03*
X425450D02*
D03*
X361950D02*
D03*
X298450D02*
D03*
X234950D02*
D03*
X171450D02*
D03*
X139700Y139700D02*
D03*
Y12700D02*
D03*
X107950Y203200D02*
D03*
X76200Y139700D02*
D03*
X107950Y76200D02*
D03*
X76200Y12700D02*
D03*
X44450Y203200D02*
D03*
X12700Y139700D02*
D03*
X44450Y76200D02*
D03*
M02*
