G04*
G04 #@! TF.GenerationSoftware,Altium Limited,Altium Designer,24.0.1 (36)*
G04*
G04 Layer_Color=16711935*
%FSLAX44Y44*%
%MOMM*%
G71*
G04*
G04 #@! TF.SameCoordinates,FEA383FD-90B8-454F-AD33-5B4C9E3D299A*
G04*
G04*
G04 #@! TF.FilePolarity,Positive*
G04*
G01*
G75*
%ADD11C,0.2540*%
%ADD38C,0.2032*%
D11*
X139700Y63500D02*
X520700D01*
X-38100Y152400D02*
X698500D01*
X330200Y-38100D02*
X330200Y342900D01*
D38*
X185421Y43938D02*
Y50709D01*
X192192Y43938D01*
X193885D01*
X195578Y45631D01*
Y49016D01*
X193885Y50709D01*
X185421Y35474D02*
X195578D01*
X190500Y40552D01*
Y33781D01*
X210821Y43938D02*
Y50709D01*
X217592Y43938D01*
X219285D01*
X220978Y45631D01*
Y49016D01*
X219285Y50709D01*
Y40552D02*
X220978Y38859D01*
Y35474D01*
X219285Y33781D01*
X217592D01*
X215899Y35474D01*
Y37167D01*
Y35474D01*
X214207Y33781D01*
X212514D01*
X210821Y35474D01*
Y38859D01*
X212514Y40552D01*
X236221Y43938D02*
Y50709D01*
X242992Y43938D01*
X244685D01*
X246378Y45631D01*
Y49016D01*
X244685Y50709D01*
X236221Y33781D02*
Y40552D01*
X242992Y33781D01*
X244685D01*
X246378Y35474D01*
Y38859D01*
X244685Y40552D01*
X261621Y40552D02*
Y47323D01*
X268392Y40552D01*
X270085D01*
X271778Y42245D01*
Y45631D01*
X270085Y47323D01*
X261621Y37167D02*
Y33781D01*
Y35474D01*
X271778D01*
X270085Y37167D01*
X287021Y43938D02*
Y50709D01*
X293792Y43938D01*
X295485D01*
X297178Y45631D01*
Y49016D01*
X295485Y50709D01*
Y40552D02*
X297178Y38859D01*
Y35474D01*
X295485Y33781D01*
X288714D01*
X287021Y35474D01*
Y38859D01*
X288714Y40552D01*
X295485D01*
X312421Y49016D02*
Y45630D01*
Y47323D01*
X322578D01*
X320885Y49016D01*
X314114Y40552D02*
X312421Y38859D01*
Y35474D01*
X314114Y33781D01*
X320885D01*
X322578Y35474D01*
Y38859D01*
X320885Y40552D01*
X319192D01*
X317499Y38859D01*
Y33781D01*
X337821Y49016D02*
Y45630D01*
Y47323D01*
X347978D01*
X346285Y49016D01*
Y40552D02*
X347978Y38859D01*
Y35474D01*
X346285Y33781D01*
X344592D01*
X342899Y35474D01*
X341207Y33781D01*
X339514D01*
X337821Y35474D01*
Y38859D01*
X339514Y40552D01*
X341207D01*
X342899Y38859D01*
X344592Y40552D01*
X346285D01*
X342899Y38859D02*
Y35474D01*
X363221Y49016D02*
Y45631D01*
Y47324D01*
X373378D01*
X371685Y49016D01*
X373378Y40552D02*
Y33781D01*
X371685D01*
X364914Y40552D01*
X363221D01*
X388621Y49016D02*
Y45630D01*
Y47323D01*
X398778D01*
X397085Y49016D01*
X398778Y33781D02*
X397085Y37167D01*
X393699Y40552D01*
X390314D01*
X388621Y38859D01*
Y35474D01*
X390314Y33781D01*
X392006D01*
X393699Y35474D01*
Y40552D01*
X414021Y49016D02*
Y45631D01*
Y47323D01*
X424178D01*
X422485Y49016D01*
X424178Y33781D02*
Y40552D01*
X419099D01*
X420792Y37167D01*
Y35474D01*
X419099Y33781D01*
X415714D01*
X414021Y35474D01*
Y38859D01*
X415714Y40552D01*
X185421Y80766D02*
Y77381D01*
Y79073D01*
X195578D01*
X193885Y80766D01*
X185421Y65531D02*
Y72302D01*
X192192Y65531D01*
X193885D01*
X195578Y67224D01*
Y70609D01*
X193885Y72302D01*
X210821Y77380D02*
Y73995D01*
Y75688D01*
X220978D01*
X219285Y77380D01*
X210821Y68917D02*
Y65531D01*
Y67224D01*
X220978D01*
X219285Y68917D01*
X236221Y80766D02*
Y77381D01*
Y79073D01*
X246378D01*
X244685Y80766D01*
Y72302D02*
X246378Y70609D01*
Y67224D01*
X244685Y65531D01*
X237914D01*
X236221Y67224D01*
Y70609D01*
X237914Y72302D01*
X244685D01*
X263314D02*
X261621Y70609D01*
Y67224D01*
X263314Y65531D01*
X270085D01*
X271778Y67224D01*
Y70609D01*
X270085Y72302D01*
X268392D01*
X266699Y70609D01*
Y65531D01*
X295485Y72302D02*
X297178Y70609D01*
Y67224D01*
X295485Y65531D01*
X293792D01*
X292099Y67224D01*
X290406Y65531D01*
X288714D01*
X287021Y67224D01*
Y70609D01*
X288714Y72302D01*
X290406D01*
X292099Y70609D01*
X293792Y72302D01*
X295485D01*
X292099Y70609D02*
Y67224D01*
X322578Y72302D02*
Y65531D01*
X320885D01*
X314114Y72302D01*
X312421D01*
X347978Y65531D02*
X346285Y68917D01*
X342899Y72302D01*
X339514D01*
X337821Y70609D01*
Y67224D01*
X339514Y65531D01*
X341206D01*
X342899Y67224D01*
Y72302D01*
X373378Y65531D02*
Y72302D01*
X368299D01*
X369992Y68917D01*
Y67224D01*
X368299Y65531D01*
X364914D01*
X363221Y67224D01*
Y70609D01*
X364914Y72302D01*
X388621Y67224D02*
X398778D01*
X393699Y72302D01*
Y65531D01*
X422485Y72302D02*
X424178Y70609D01*
Y67224D01*
X422485Y65531D01*
X420792D01*
X419099Y67224D01*
Y68917D01*
Y67224D01*
X417406Y65531D01*
X415714D01*
X414021Y67224D01*
Y70609D01*
X415714Y72302D01*
X439421Y65531D02*
Y72302D01*
X446192Y65531D01*
X447885D01*
X449578Y67224D01*
Y70609D01*
X447885Y72302D01*
X464821Y68917D02*
Y65531D01*
Y67224D01*
X474978D01*
X473285Y68917D01*
X439421Y49016D02*
Y45631D01*
Y47323D01*
X449578D01*
X447885Y49016D01*
X439421Y35474D02*
X449578D01*
X444499Y40552D01*
Y33781D01*
X464821Y49016D02*
Y45630D01*
Y47323D01*
X474978D01*
X473285Y49016D01*
Y40552D02*
X474978Y38859D01*
Y35474D01*
X473285Y33781D01*
X471592D01*
X469899Y35474D01*
Y37167D01*
Y35474D01*
X468206Y33781D01*
X466514D01*
X464821Y35474D01*
Y38859D01*
X466514Y40552D01*
X185421Y177288D02*
Y184059D01*
X192192Y177288D01*
X193885D01*
X195578Y178981D01*
Y182366D01*
X193885Y184059D01*
X185421Y168824D02*
X195578D01*
X190500Y173902D01*
Y167131D01*
X210821Y177288D02*
Y184059D01*
X217592Y177288D01*
X219285D01*
X220978Y178981D01*
Y182366D01*
X219285Y184059D01*
Y173902D02*
X220978Y172209D01*
Y168824D01*
X219285Y167131D01*
X217592D01*
X215899Y168824D01*
Y170517D01*
Y168824D01*
X214207Y167131D01*
X212514D01*
X210821Y168824D01*
Y172209D01*
X212514Y173902D01*
X236221Y177288D02*
Y184059D01*
X242992Y177288D01*
X244685D01*
X246378Y178981D01*
Y182366D01*
X244685Y184059D01*
X236221Y167131D02*
Y173902D01*
X242992Y167131D01*
X244685D01*
X246378Y168824D01*
Y172209D01*
X244685Y173902D01*
X261621Y173902D02*
Y180673D01*
X268392Y173902D01*
X270085D01*
X271778Y175595D01*
Y178981D01*
X270085Y180673D01*
X261621Y170517D02*
Y167131D01*
Y168824D01*
X271778D01*
X270085Y170517D01*
X287021Y177288D02*
Y184059D01*
X293792Y177288D01*
X295485D01*
X297178Y178981D01*
Y182366D01*
X295485Y184059D01*
Y173902D02*
X297178Y172209D01*
Y168824D01*
X295485Y167131D01*
X288714D01*
X287021Y168824D01*
Y172209D01*
X288714Y173902D01*
X295485D01*
X312421Y182366D02*
Y178981D01*
Y180673D01*
X322578D01*
X320885Y182366D01*
X314114Y173902D02*
X312421Y172209D01*
Y168824D01*
X314114Y167131D01*
X320885D01*
X322578Y168824D01*
Y172209D01*
X320885Y173902D01*
X319192D01*
X317499Y172209D01*
Y167131D01*
X337821Y182366D02*
Y178981D01*
Y180673D01*
X347978D01*
X346285Y182366D01*
Y173902D02*
X347978Y172209D01*
Y168824D01*
X346285Y167131D01*
X344592D01*
X342899Y168824D01*
X341207Y167131D01*
X339514D01*
X337821Y168824D01*
Y172209D01*
X339514Y173902D01*
X341207D01*
X342899Y172209D01*
X344592Y173902D01*
X346285D01*
X342899Y172209D02*
Y168824D01*
X363221Y182366D02*
Y178981D01*
Y180674D01*
X373378D01*
X371685Y182366D01*
X373378Y173902D02*
Y167131D01*
X371685D01*
X364914Y173902D01*
X363221D01*
X388621Y182366D02*
Y178981D01*
Y180673D01*
X398778D01*
X397085Y182366D01*
X398778Y167131D02*
X397085Y170517D01*
X393699Y173902D01*
X390314D01*
X388621Y172209D01*
Y168824D01*
X390314Y167131D01*
X392006D01*
X393699Y168824D01*
Y173902D01*
X414021Y182366D02*
Y178981D01*
Y180673D01*
X424178D01*
X422485Y182366D01*
X424178Y167131D02*
Y173902D01*
X419099D01*
X420792Y170517D01*
Y168824D01*
X419099Y167131D01*
X415714D01*
X414021Y168824D01*
Y172209D01*
X415714Y173902D01*
X185421Y214116D02*
Y210731D01*
Y212423D01*
X195578D01*
X193885Y214116D01*
X185421Y198881D02*
Y205652D01*
X192192Y198881D01*
X193885D01*
X195578Y200574D01*
Y203960D01*
X193885Y205652D01*
X210821Y210730D02*
Y207345D01*
Y209038D01*
X220978D01*
X219285Y210730D01*
X210821Y202267D02*
Y198881D01*
Y200574D01*
X220978D01*
X219285Y202267D01*
X236221Y214116D02*
Y210731D01*
Y212423D01*
X246378D01*
X244685Y214116D01*
Y205652D02*
X246378Y203960D01*
Y200574D01*
X244685Y198881D01*
X237914D01*
X236221Y200574D01*
Y203960D01*
X237914Y205652D01*
X244685D01*
X263314D02*
X261621Y203960D01*
Y200574D01*
X263314Y198881D01*
X270085D01*
X271778Y200574D01*
Y203960D01*
X270085Y205652D01*
X268392D01*
X266699Y203960D01*
Y198881D01*
X295485Y205652D02*
X297178Y203960D01*
Y200574D01*
X295485Y198881D01*
X293792D01*
X292099Y200574D01*
X290406Y198881D01*
X288714D01*
X287021Y200574D01*
Y203960D01*
X288714Y205652D01*
X290406D01*
X292099Y203960D01*
X293792Y205652D01*
X295485D01*
X292099Y203960D02*
Y200574D01*
X322578Y205652D02*
Y198881D01*
X320885D01*
X314114Y205652D01*
X312421D01*
X347978Y198881D02*
X346285Y202267D01*
X342899Y205652D01*
X339514D01*
X337821Y203960D01*
Y200574D01*
X339514Y198881D01*
X341206D01*
X342899Y200574D01*
Y205652D01*
X373378Y198881D02*
Y205652D01*
X368299D01*
X369992Y202267D01*
Y200574D01*
X368299Y198881D01*
X364914D01*
X363221Y200574D01*
Y203960D01*
X364914Y205652D01*
X388621Y200574D02*
X398778D01*
X393699Y205652D01*
Y198881D01*
X422485Y205652D02*
X424178Y203960D01*
Y200574D01*
X422485Y198881D01*
X420792D01*
X419099Y200574D01*
Y202267D01*
Y200574D01*
X417406Y198881D01*
X415714D01*
X414021Y200574D01*
Y203960D01*
X415714Y205652D01*
X439421Y198881D02*
Y205652D01*
X446192Y198881D01*
X447885D01*
X449578Y200574D01*
Y203960D01*
X447885Y205652D01*
X464821Y202267D02*
Y198881D01*
Y200574D01*
X474978D01*
X473285Y202267D01*
X439421Y182366D02*
Y178981D01*
Y180673D01*
X449578D01*
X447885Y182366D01*
X439421Y168824D02*
X449578D01*
X444499Y173902D01*
Y167131D01*
X464821Y182366D02*
Y178981D01*
Y180673D01*
X474978D01*
X473285Y182366D01*
Y173902D02*
X474978Y172209D01*
Y168824D01*
X473285Y167131D01*
X471592D01*
X469899Y168824D01*
Y170517D01*
Y168824D01*
X468206Y167131D01*
X466514D01*
X464821Y168824D01*
Y172209D01*
X466514Y173902D01*
M02*
