G04*
G04 #@! TF.GenerationSoftware,Altium Limited,Altium Designer,24.0.1 (36)*
G04*
G04 Layer_Color=65535*
%FSLAX44Y44*%
%MOMM*%
G71*
G04*
G04 #@! TF.SameCoordinates,FEA383FD-90B8-454F-AD33-5B4C9E3D299A*
G04*
G04*
G04 #@! TF.FilePolarity,Positive*
G04*
G01*
G75*
%ADD10C,0.2000*%
%ADD11C,0.2540*%
%ADD12C,0.1270*%
D10*
X487200Y25500D02*
G03*
X487200Y25500I-1000J0D01*
G01*
D11*
X40640Y238760D02*
X45720Y243840D01*
Y-15240D02*
Y243840D01*
X50800Y238760D01*
X45720Y-15240D02*
X50800Y-10160D01*
X40640D02*
X45720Y-15240D01*
X614680Y246380D02*
X624840D01*
X629920Y241300D01*
X624840D02*
X629920D01*
X624840D02*
X629920Y246380D01*
Y241300D02*
Y246380D01*
X680720Y157480D02*
X685800Y162560D01*
X680720Y167640D02*
X685800Y162560D01*
X-25400D02*
X-20320Y157480D01*
X-25400Y162560D02*
X-20320Y167640D01*
X-25400Y162560D02*
X685800D01*
X588860Y240032D02*
Y252728D01*
X593092Y248496D01*
X597324Y252728D01*
Y240032D01*
X601556Y250612D02*
X603672Y252728D01*
X607904D01*
X610020Y250612D01*
Y248496D01*
X607904Y246380D01*
X605788D01*
X607904D01*
X610020Y244264D01*
Y242148D01*
X607904Y240032D01*
X603672D01*
X601556Y242148D01*
X86788Y170394D02*
X78324D01*
X86788Y178858D01*
Y180974D01*
X84672Y183090D01*
X80440D01*
X78324Y180974D01*
X91020Y170394D02*
Y172510D01*
X93136D01*
Y170394D01*
X91020D01*
X101600Y172510D02*
X103716Y170394D01*
X107948D01*
X110064Y172510D01*
Y180974D01*
X107948Y183090D01*
X103716D01*
X101600Y180974D01*
Y178858D01*
X103716Y176742D01*
X110064D01*
X116412Y185206D02*
Y180974D01*
X114296Y178858D01*
X124876Y185206D02*
Y180974D01*
X122760Y178858D01*
X37886Y72824D02*
Y77056D01*
Y74940D01*
X25190D01*
X27306Y72824D01*
X37886Y83404D02*
X35770D01*
Y85520D01*
X37886D01*
Y83404D01*
Y93984D02*
Y98216D01*
Y96100D01*
X25190D01*
X27306Y93984D01*
X25190Y113028D02*
Y104564D01*
X31538D01*
X29422Y108796D01*
Y110912D01*
X31538Y113028D01*
X35770D01*
X37886Y110912D01*
Y106680D01*
X35770Y104564D01*
X27306Y117260D02*
X25190Y119376D01*
Y123608D01*
X27306Y125724D01*
X35770D01*
X37886Y123608D01*
Y119376D01*
X35770Y117260D01*
X27306D01*
X23074Y132072D02*
X27306D01*
X29422Y129956D01*
X23074Y140536D02*
X27306D01*
X29422Y138420D01*
X173617Y220132D02*
X171501Y222248D01*
X167269D01*
X165154Y220132D01*
Y211668D01*
X167269Y209552D01*
X171501D01*
X173617Y211668D01*
X179965Y209552D02*
X184197D01*
X186313Y211668D01*
Y215900D01*
X184197Y218016D01*
X179965D01*
X177849Y215900D01*
Y211668D01*
X179965Y209552D01*
X190545D02*
Y218016D01*
X196893D01*
X199009Y215900D01*
Y209552D01*
X203241D02*
Y218016D01*
X209589D01*
X211705Y215900D01*
Y209552D01*
X222285D02*
X218053D01*
X215937Y211668D01*
Y215900D01*
X218053Y218016D01*
X222285D01*
X224401Y215900D01*
Y213784D01*
X215937D01*
X237097Y218016D02*
X230749D01*
X228633Y215900D01*
Y211668D01*
X230749Y209552D01*
X237097D01*
X243445Y220132D02*
Y218016D01*
X241329D01*
X245561D01*
X243445D01*
Y211668D01*
X245561Y209552D01*
X254025D02*
X258257D01*
X260373Y211668D01*
Y215900D01*
X258257Y218016D01*
X254025D01*
X251909Y215900D01*
Y211668D01*
X254025Y209552D01*
X264605Y218016D02*
Y209552D01*
Y213784D01*
X266721Y215900D01*
X268837Y218016D01*
X270952D01*
X289996Y222248D02*
Y209552D01*
X296344D01*
X298460Y211668D01*
Y213784D01*
X296344Y215900D01*
X289996D01*
X296344D01*
X298460Y218016D01*
Y220132D01*
X296344Y222248D01*
X289996D01*
X302692Y218016D02*
Y209552D01*
Y213784D01*
X304808Y215900D01*
X306924Y218016D01*
X309040D01*
X321736Y209552D02*
X317504D01*
X315388Y211668D01*
Y215900D01*
X317504Y218016D01*
X321736D01*
X323852Y215900D01*
Y213784D01*
X315388D01*
X330200Y218016D02*
X334432D01*
X336548Y215900D01*
Y209552D01*
X330200D01*
X328084Y211668D01*
X330200Y213784D01*
X336548D01*
X340780Y209552D02*
Y222248D01*
Y213784D02*
X347128Y218016D01*
X340780Y213784D02*
X347128Y209552D01*
X355592D02*
X359824D01*
X361940Y211668D01*
Y215900D01*
X359824Y218016D01*
X355592D01*
X353476Y215900D01*
Y211668D01*
X355592Y209552D01*
X366172Y218016D02*
Y211668D01*
X368288Y209552D01*
X374636D01*
Y218016D01*
X380984Y220132D02*
Y218016D01*
X378868D01*
X383100D01*
X380984D01*
Y211668D01*
X383100Y209552D01*
X402143Y222248D02*
Y209552D01*
X408491D01*
X410607Y211668D01*
Y213784D01*
X408491Y215900D01*
X402143D01*
X408491D01*
X410607Y218016D01*
Y220132D01*
X408491Y222248D01*
X402143D01*
X416955Y209552D02*
X421187D01*
X423303Y211668D01*
Y215900D01*
X421187Y218016D01*
X416955D01*
X414839Y215900D01*
Y211668D01*
X416955Y209552D01*
X429651Y218016D02*
X433883D01*
X435999Y215900D01*
Y209552D01*
X429651D01*
X427535Y211668D01*
X429651Y213784D01*
X435999D01*
X440231Y218016D02*
Y209552D01*
Y213784D01*
X442347Y215900D01*
X444463Y218016D01*
X446579D01*
X461391Y222248D02*
Y209552D01*
X455043D01*
X452927Y211668D01*
Y215900D01*
X455043Y218016D01*
X461391D01*
X478319Y222248D02*
Y213784D01*
X482551Y209552D01*
X486783Y213784D01*
Y222248D01*
X491015Y209552D02*
X495247D01*
X493130D01*
Y222248D01*
X491015Y220132D01*
X155632Y249764D02*
X164095D01*
X159864D01*
Y237068D01*
X170443Y245532D02*
X174675D01*
X176791Y243416D01*
Y237068D01*
X170443D01*
X168327Y239184D01*
X170443Y241300D01*
X176791D01*
X181023Y237068D02*
X185255D01*
X183139D01*
Y245532D01*
X181023D01*
X191603Y237068D02*
X195835D01*
X193719D01*
Y249764D01*
X191603D01*
X210647Y247648D02*
X208531Y249764D01*
X204299D01*
X202183Y247648D01*
Y239184D01*
X204299Y237068D01*
X208531D01*
X210647Y239184D01*
Y243416D01*
X206415D01*
X216995Y245532D02*
X221227D01*
X223343Y243416D01*
Y237068D01*
X216995D01*
X214879Y239184D01*
X216995Y241300D01*
X223343D01*
X229691Y247648D02*
Y245532D01*
X227575D01*
X231807D01*
X229691D01*
Y239184D01*
X231807Y237068D01*
X240271D02*
X244503D01*
X246619Y239184D01*
Y243416D01*
X244503Y245532D01*
X240271D01*
X238155Y243416D01*
Y239184D01*
X240271Y237068D01*
X250851Y245532D02*
Y237068D01*
Y241300D01*
X252967Y243416D01*
X255083Y245532D01*
X257199D01*
X276243Y249764D02*
X280474D01*
X278358D01*
Y237068D01*
X276243D01*
X280474D01*
X286822D02*
Y245532D01*
X293170D01*
X295286Y243416D01*
Y237068D01*
X301634Y247648D02*
Y245532D01*
X299518D01*
X303750D01*
X301634D01*
Y239184D01*
X303750Y237068D01*
X316446D02*
X312214D01*
X310098Y239184D01*
Y243416D01*
X312214Y245532D01*
X316446D01*
X318562Y243416D01*
Y241300D01*
X310098D01*
X322794Y245532D02*
Y237068D01*
Y241300D01*
X324910Y243416D01*
X327026Y245532D01*
X329142D01*
X343954D02*
X337606D01*
X335490Y243416D01*
Y239184D01*
X337606Y237068D01*
X343954D01*
X350302D02*
X354534D01*
X356650Y239184D01*
Y243416D01*
X354534Y245532D01*
X350302D01*
X348186Y243416D01*
Y239184D01*
X350302Y237068D01*
X360882D02*
Y245532D01*
X367230D01*
X369346Y243416D01*
Y237068D01*
X373578D02*
Y245532D01*
X379926D01*
X382042Y243416D01*
Y237068D01*
X392621D02*
X388390D01*
X386273Y239184D01*
Y243416D01*
X388390Y245532D01*
X392621D01*
X394737Y243416D01*
Y241300D01*
X386273D01*
X407433Y245532D02*
X401085D01*
X398969Y243416D01*
Y239184D01*
X401085Y237068D01*
X407433D01*
X413781Y247648D02*
Y245532D01*
X411665D01*
X415897D01*
X413781D01*
Y239184D01*
X415897Y237068D01*
X443405Y247648D02*
X441289Y249764D01*
X437057D01*
X434941Y247648D01*
Y245532D01*
X437057Y243416D01*
X441289D01*
X443405Y241300D01*
Y239184D01*
X441289Y237068D01*
X437057D01*
X434941Y239184D01*
X447637Y245532D02*
Y239184D01*
X449753Y237068D01*
X456101D01*
Y234952D01*
X453985Y232836D01*
X451869D01*
X456101Y237068D02*
Y245532D01*
X460333Y237068D02*
X466681D01*
X468797Y239184D01*
X466681Y241300D01*
X462449D01*
X460333Y243416D01*
X462449Y245532D01*
X468797D01*
X475145Y247648D02*
Y245532D01*
X473029D01*
X477261D01*
X475145D01*
Y239184D01*
X477261Y237068D01*
X489957D02*
X485725D01*
X483609Y239184D01*
Y243416D01*
X485725Y245532D01*
X489957D01*
X492073Y243416D01*
Y241300D01*
X483609D01*
X496305Y237068D02*
Y245532D01*
X498420D01*
X500536Y243416D01*
Y237068D01*
Y243416D01*
X502653Y245532D01*
X504768Y243416D01*
Y237068D01*
X497841Y139698D02*
X492762D01*
X495302D01*
Y127002D01*
X492762Y124462D01*
X490223D01*
X487684Y127002D01*
X502919Y137158D02*
X505458Y139698D01*
X510537D01*
X513076Y137158D01*
Y134619D01*
X510537Y132080D01*
X507998D01*
X510537D01*
X513076Y129541D01*
Y127002D01*
X510537Y124462D01*
X505458D01*
X502919Y127002D01*
X149861Y8888D02*
X144782D01*
X147322D01*
Y-3808D01*
X144782Y-6348D01*
X142243D01*
X139704Y-3808D01*
X165096Y-6348D02*
X154939D01*
X165096Y3809D01*
Y6348D01*
X162557Y8888D01*
X157478D01*
X154939Y6348D01*
X151127Y121153D02*
X146048D01*
X148588D01*
Y108457D01*
X146048Y105918D01*
X143509D01*
X140970Y108457D01*
X156205Y105918D02*
X161283D01*
X158744D01*
Y121153D01*
X156205Y118614D01*
D12*
X491900Y33500D02*
X519200D01*
X141200D02*
X168500D01*
X491900Y93500D02*
X519200D01*
Y33500D02*
Y93500D01*
X141200D02*
X168500D01*
X141200Y72850D02*
Y93500D01*
Y33500D02*
Y54150D01*
M02*
