G04*
G04 #@! TF.GenerationSoftware,Altium Limited,Altium Designer,24.0.1 (36)*
G04*
G04 Layer_Color=32896*
%FSLAX44Y44*%
%MOMM*%
G71*
G04*
G04 #@! TF.SameCoordinates,FEA383FD-90B8-454F-AD33-5B4C9E3D299A*
G04*
G04*
G04 #@! TF.FilePolarity,Positive*
G04*
G01*
G75*
%ADD10C,0.2000*%
%ADD11C,0.2540*%
%ADD12C,0.1270*%
D10*
X157850Y44450D02*
G03*
X157850Y44450I-1000J0D01*
G01*
X629250D02*
G03*
X629250Y44450I-1000J0D01*
G01*
D11*
X457200Y71120D02*
Y101600D01*
X476248Y104140D02*
X463552D01*
Y97792D01*
X465668Y95676D01*
X469900D01*
X472016Y97792D01*
Y104140D01*
Y99908D02*
X476248Y95676D01*
X465668Y82980D02*
X463552Y85096D01*
Y89328D01*
X465668Y91444D01*
X467784D01*
X469900Y89328D01*
Y85096D01*
X472016Y82980D01*
X474132D01*
X476248Y85096D01*
Y89328D01*
X474132Y91444D01*
X463552Y78748D02*
Y70284D01*
Y74516D01*
X476248D01*
X476248Y63066D02*
X463552D01*
Y56718D01*
X465668Y54602D01*
X469900D01*
X472016Y56718D01*
Y63066D01*
Y58834D02*
X476248Y54602D01*
X463552Y41906D02*
Y50370D01*
X476248D01*
Y41906D01*
X469900Y50370D02*
Y46138D01*
X463552Y29210D02*
Y37674D01*
X469900D01*
Y33442D01*
Y37674D01*
X476248D01*
X440268Y54602D02*
X438152Y56718D01*
Y60950D01*
X440268Y63066D01*
X448732D01*
X450848Y60950D01*
Y56718D01*
X448732Y54602D01*
X444500D01*
Y58834D01*
X438152Y50370D02*
X450848D01*
Y44022D01*
X448732Y41906D01*
X440268D01*
X438152Y44022D01*
Y50370D01*
Y37674D02*
Y29210D01*
Y33442D01*
X450848D01*
X414868Y63066D02*
X412752Y60950D01*
Y56718D01*
X414868Y54602D01*
X416984D01*
X419100Y56718D01*
Y58834D01*
Y56718D01*
X421216Y54602D01*
X423332D01*
X425448Y56718D01*
Y60950D01*
X423332Y63066D01*
X412752Y50370D02*
X421216D01*
X425448Y46138D01*
X421216Y41906D01*
X412752D01*
X414868Y37674D02*
X412752Y35558D01*
Y31326D01*
X414868Y29210D01*
X416984D01*
X419100Y31326D01*
Y33442D01*
Y31326D01*
X421216Y29210D01*
X423332D01*
X425448Y31326D01*
Y35558D01*
X423332Y37674D01*
X387352Y63066D02*
Y54602D01*
Y58834D01*
X400048D01*
X387352Y50370D02*
X400048D01*
Y44022D01*
X397932Y41906D01*
X389468D01*
X387352Y44022D01*
Y50370D01*
Y31326D02*
Y35558D01*
X389468Y37674D01*
X397932D01*
X400048Y35558D01*
Y31326D01*
X397932Y29210D01*
X389468D01*
X387352Y31326D01*
X364068Y54602D02*
X361952Y56718D01*
Y60950D01*
X364068Y63066D01*
X372532D01*
X374648Y60950D01*
Y56718D01*
X372532Y54602D01*
X368300D01*
Y58834D01*
X374648Y50370D02*
X361952D01*
X374648Y41906D01*
X361952D01*
Y37674D02*
X374648D01*
Y31326D01*
X372532Y29210D01*
X364068D01*
X361952Y31326D01*
Y37674D01*
X338668Y54602D02*
X336552Y56718D01*
Y60950D01*
X338668Y63066D01*
X340784D01*
X342900Y60950D01*
Y56718D01*
X345016Y54602D01*
X347132D01*
X349248Y56718D01*
Y60950D01*
X347132Y63066D01*
X336552Y50370D02*
X349248D01*
X345016Y46138D01*
X349248Y41906D01*
X336552D01*
Y37674D02*
X349248D01*
X345016D01*
X336552Y29210D01*
X342900Y35558D01*
X349248Y29210D01*
X313268Y54602D02*
X311152Y56718D01*
Y60950D01*
X313268Y63066D01*
X315384D01*
X317500Y60950D01*
Y56718D01*
X319616Y54602D01*
X321732D01*
X323848Y56718D01*
Y60950D01*
X321732Y63066D01*
X311152Y50370D02*
X323848D01*
X319616Y46138D01*
X323848Y41906D01*
X311152D01*
Y37674D02*
X323848D01*
Y31326D01*
X321732Y29210D01*
X313268D01*
X311152Y31326D01*
Y37674D01*
X285752D02*
Y46138D01*
X292100D01*
X289984Y41906D01*
Y39790D01*
X292100Y37674D01*
X296332D01*
X298448Y39790D01*
Y44022D01*
X296332Y46138D01*
X298448Y33442D02*
Y29210D01*
Y31326D01*
X285752D01*
X287868Y33442D01*
X260352Y41906D02*
Y50370D01*
X266700D01*
X264584Y46138D01*
Y44022D01*
X266700Y41906D01*
X270932D01*
X273048Y44022D01*
Y48254D01*
X270932Y50370D01*
X260352Y37674D02*
X268816D01*
X273048Y33442D01*
X268816Y29210D01*
X260352D01*
X234952Y41906D02*
Y50370D01*
X241300D01*
X239184Y46138D01*
Y44022D01*
X241300Y41906D01*
X245532D01*
X247648Y44022D01*
Y48254D01*
X245532Y50370D01*
X234952Y37674D02*
Y29210D01*
X237068D01*
X245532Y37674D01*
X247648D01*
X211668Y54602D02*
X209552Y56718D01*
Y60950D01*
X211668Y63066D01*
X220132D01*
X222248Y60950D01*
Y56718D01*
X220132Y54602D01*
X215900D01*
Y58834D01*
X222248Y50370D02*
X209552D01*
X222248Y41906D01*
X209552D01*
Y37674D02*
X222248D01*
Y31326D01*
X220132Y29210D01*
X211668D01*
X209552Y31326D01*
Y37674D01*
X196848Y44022D02*
X184152D01*
X190500Y50370D01*
Y41906D01*
X194732Y37674D02*
X196848Y35558D01*
Y31326D01*
X194732Y29210D01*
X186268D01*
X184152Y31326D01*
Y35558D01*
X186268Y37674D01*
X188384D01*
X190500Y35558D01*
Y29210D01*
X68572Y108372D02*
X70688Y110488D01*
X74920D01*
X77036Y108372D01*
Y99908D01*
X74920Y97792D01*
X70688D01*
X68572Y99908D01*
Y104140D01*
X72804D01*
X64340Y97792D02*
Y110488D01*
X55876Y97792D01*
Y110488D01*
X51644D02*
Y97792D01*
X45296D01*
X43180Y99908D01*
Y108372D01*
X45296Y110488D01*
X51644D01*
X157884Y130808D02*
X162115D01*
X164231Y128692D01*
Y120228D01*
X162115Y118112D01*
X157884D01*
X155767Y120228D01*
Y128692D01*
X157884Y130808D01*
X151536D02*
Y120228D01*
X149419Y118112D01*
X145188D01*
X143072Y120228D01*
Y130808D01*
X138840D02*
X130376D01*
X134608D01*
Y118112D01*
X126144D02*
Y130808D01*
X119796D01*
X117680Y128692D01*
Y124460D01*
X119796Y122344D01*
X126144D01*
X113448Y130808D02*
Y120228D01*
X111332Y118112D01*
X107100D01*
X104984Y120228D01*
Y130808D01*
X100752D02*
X92288D01*
X96520D01*
Y118112D01*
X69012Y130808D02*
X73244D01*
X75360Y128692D01*
Y120228D01*
X73244Y118112D01*
X69012D01*
X66896Y120228D01*
Y128692D01*
X69012Y130808D01*
X62664Y118112D02*
Y130808D01*
X54200Y118112D01*
Y130808D01*
X49968D02*
Y118112D01*
X41505D01*
X37273Y130808D02*
Y128692D01*
X33041Y124460D01*
X28809Y128692D01*
Y130808D01*
X33041Y124460D02*
Y118112D01*
X136316Y110488D02*
X144780D01*
Y104140D01*
X140548Y106256D01*
X138432D01*
X136316Y104140D01*
Y99908D01*
X138432Y97792D01*
X142664D01*
X144780Y99908D01*
X132084Y110488D02*
Y102024D01*
X127852Y97792D01*
X123620Y102024D01*
Y110488D01*
X630323Y129538D02*
X634555D01*
X636671Y127422D01*
Y118958D01*
X634555Y116842D01*
X630323D01*
X628208Y118958D01*
Y127422D01*
X630323Y129538D01*
X623975D02*
Y118958D01*
X621860Y116842D01*
X617628D01*
X615512Y118958D01*
Y129538D01*
X611280D02*
X602816D01*
X607048D01*
Y116842D01*
X598584D02*
Y129538D01*
X592236D01*
X590120Y127422D01*
Y123190D01*
X592236Y121074D01*
X598584D01*
X585888Y129538D02*
Y118958D01*
X583772Y116842D01*
X579540D01*
X577424Y118958D01*
Y129538D01*
X573192D02*
X564728D01*
X568960D01*
Y116842D01*
X541452Y129538D02*
X545684D01*
X547800Y127422D01*
Y118958D01*
X545684Y116842D01*
X541452D01*
X539336Y118958D01*
Y127422D01*
X541452Y129538D01*
X535104Y116842D02*
Y129538D01*
X526640Y116842D01*
Y129538D01*
X522408D02*
Y116842D01*
X513945D01*
X509712Y129538D02*
Y127422D01*
X505481Y123190D01*
X501249Y127422D01*
Y129538D01*
X505481Y123190D02*
Y116842D01*
X541012Y107102D02*
X543128Y109218D01*
X547360D01*
X549476Y107102D01*
Y98638D01*
X547360Y96522D01*
X543128D01*
X541012Y98638D01*
Y102870D01*
X545244D01*
X536780Y96522D02*
Y109218D01*
X528316Y96522D01*
Y109218D01*
X524084D02*
Y96522D01*
X517736D01*
X515620Y98638D01*
Y107102D01*
X517736Y109218D01*
X524084D01*
X617220Y107102D02*
X615104Y109218D01*
X610872D01*
X608756Y107102D01*
Y104986D01*
X610872Y102870D01*
X612988D01*
X610872D01*
X608756Y100754D01*
Y98638D01*
X610872Y96522D01*
X615104D01*
X617220Y98638D01*
X604524Y109218D02*
Y100754D01*
X600292Y96522D01*
X596060Y100754D01*
Y109218D01*
X591828Y107102D02*
X589712Y109218D01*
X585480D01*
X583364Y107102D01*
Y104986D01*
X585480Y102870D01*
X587596D01*
X585480D01*
X583364Y100754D01*
Y98638D01*
X585480Y96522D01*
X589712D01*
X591828Y98638D01*
X338668Y95676D02*
X336552Y97792D01*
Y102024D01*
X338668Y104140D01*
X347132D01*
X349248Y102024D01*
Y97792D01*
X347132Y95676D01*
X349248Y91444D02*
X336552D01*
X349248Y82980D01*
X336552D01*
Y78748D02*
X349248D01*
X342900D01*
Y70284D01*
X336552D01*
X349248D01*
X313268Y95676D02*
X311152Y97792D01*
Y102024D01*
X313268Y104140D01*
X321732D01*
X323848Y102024D01*
Y97792D01*
X321732Y95676D01*
X323848Y91444D02*
X311152D01*
X323848Y82980D01*
X311152D01*
Y78748D02*
X323848D01*
Y70284D01*
X260352Y232836D02*
X262468Y237068D01*
X266700Y241300D01*
X270932D01*
X273048Y239184D01*
Y234952D01*
X270932Y232836D01*
X268816D01*
X266700Y234952D01*
Y241300D01*
X273048Y220140D02*
Y228604D01*
X264584Y220140D01*
X262468D01*
X260352Y222256D01*
Y226488D01*
X262468Y228604D01*
X184152Y241300D02*
Y232836D01*
X186268D01*
X194732Y241300D01*
X196848D01*
X186268Y228604D02*
X184152Y226488D01*
Y222256D01*
X186268Y220140D01*
X194732D01*
X196848Y222256D01*
Y226488D01*
X194732Y228604D01*
X186268D01*
X209552Y232836D02*
X211668Y237068D01*
X215900Y241300D01*
X220132D01*
X222248Y239184D01*
Y234952D01*
X220132Y232836D01*
X218016D01*
X215900Y234952D01*
Y241300D01*
X211668Y228604D02*
X209552Y226488D01*
Y222256D01*
X211668Y220140D01*
X213784D01*
X215900Y222256D01*
X218016Y220140D01*
X220132D01*
X222248Y222256D01*
Y226488D01*
X220132Y228604D01*
X218016D01*
X215900Y226488D01*
X213784Y228604D01*
X211668D01*
X215900Y226488D02*
Y222256D01*
X234952Y232836D02*
X237068Y237068D01*
X241300Y241300D01*
X245532D01*
X247648Y239184D01*
Y234952D01*
X245532Y232836D01*
X243416D01*
X241300Y234952D01*
Y241300D01*
X247648Y222256D02*
X234952D01*
X241300Y228604D01*
Y220140D01*
X287868Y233672D02*
X285752Y235788D01*
Y240020D01*
X287868Y242136D01*
X296332D01*
X298448Y240020D01*
Y235788D01*
X296332Y233672D01*
X292100D01*
Y237904D01*
X298448Y229440D02*
X285752D01*
X298448Y220976D01*
X285752D01*
Y216744D02*
X298448D01*
Y210396D01*
X296332Y208280D01*
X287868D01*
X285752Y210396D01*
Y216744D01*
X311152Y232836D02*
Y241300D01*
X317500D01*
X315384Y237068D01*
Y234952D01*
X317500Y232836D01*
X321732D01*
X323848Y234952D01*
Y239184D01*
X321732Y241300D01*
X311152Y220140D02*
X313268Y224372D01*
X317500Y228604D01*
X321732D01*
X323848Y226488D01*
Y222256D01*
X321732Y220140D01*
X319616D01*
X317500Y222256D01*
Y228604D01*
X338668Y241300D02*
X336552Y239184D01*
Y234952D01*
X338668Y232836D01*
X340784D01*
X342900Y234952D01*
Y237068D01*
Y234952D01*
X345016Y232836D01*
X347132D01*
X349248Y234952D01*
Y239184D01*
X347132Y241300D01*
X338668Y228604D02*
X336552Y226488D01*
Y222256D01*
X338668Y220140D01*
X340784D01*
X342900Y222256D01*
X345016Y220140D01*
X347132D01*
X349248Y222256D01*
Y226488D01*
X347132Y228604D01*
X345016D01*
X342900Y226488D01*
X340784Y228604D01*
X338668D01*
X342900Y226488D02*
Y222256D01*
X364068Y241300D02*
X361952Y239184D01*
Y234952D01*
X364068Y232836D01*
X366184D01*
X368300Y234952D01*
Y237068D01*
Y234952D01*
X370416Y232836D01*
X372532D01*
X374648Y234952D01*
Y239184D01*
X372532Y241300D01*
X374648Y222256D02*
X361952D01*
X368300Y228604D01*
Y220140D01*
X389468Y241300D02*
X387352Y239184D01*
Y234952D01*
X389468Y232836D01*
X391584D01*
X393700Y234952D01*
Y237068D01*
Y234952D01*
X395816Y232836D01*
X397932D01*
X400048Y234952D01*
Y239184D01*
X397932Y241300D01*
X400048Y220140D02*
Y228604D01*
X391584Y220140D01*
X389468D01*
X387352Y222256D01*
Y226488D01*
X389468Y228604D01*
X425448Y234952D02*
X412752D01*
X419100Y241300D01*
Y232836D01*
X414868Y228604D02*
X412752Y226488D01*
Y222256D01*
X414868Y220140D01*
X423332D01*
X425448Y222256D01*
Y226488D01*
X423332Y228604D01*
X414868D01*
X440268Y232836D02*
X438152Y234952D01*
Y239184D01*
X440268Y241300D01*
X448732D01*
X450848Y239184D01*
Y234952D01*
X448732Y232836D01*
X444500D01*
Y237068D01*
X450848Y228604D02*
X438152D01*
X450848Y220140D01*
X438152D01*
Y215908D02*
X450848D01*
Y209560D01*
X448732Y207444D01*
X440268D01*
X438152Y209560D01*
Y215908D01*
X463552Y241300D02*
Y232836D01*
Y237068D01*
X476248D01*
Y228604D02*
X463552D01*
Y222256D01*
X465668Y220140D01*
X469900D01*
X472016Y222256D01*
Y228604D01*
Y224372D02*
X476248Y220140D01*
X463552Y215908D02*
X476248D01*
X472016D01*
X463552Y207444D01*
X469900Y213792D01*
X476248Y207444D01*
X463552Y196416D02*
Y187952D01*
Y192184D01*
X476248D01*
Y183720D02*
X463552D01*
Y177372D01*
X465668Y175256D01*
X469900D01*
X472016Y177372D01*
Y183720D01*
Y179488D02*
X476248Y175256D01*
X465668Y171024D02*
X463552Y168908D01*
Y164676D01*
X465668Y162560D01*
X474132D01*
X476248Y164676D01*
Y168908D01*
X474132Y171024D01*
X465668D01*
X438152Y192184D02*
Y183720D01*
Y187952D01*
X450848D01*
Y179488D02*
X438152D01*
Y173140D01*
X440268Y171024D01*
X444500D01*
X446616Y173140D01*
Y179488D01*
Y175256D02*
X450848Y171024D01*
Y166792D02*
Y162560D01*
Y164676D01*
X438152D01*
X440268Y166792D01*
X412752Y196416D02*
Y187952D01*
Y192184D01*
X425448D01*
Y183720D02*
X412752D01*
Y177372D01*
X414868Y175256D01*
X419100D01*
X421216Y177372D01*
Y183720D01*
Y179488D02*
X425448Y175256D01*
Y162560D02*
Y171024D01*
X416984Y162560D01*
X414868D01*
X412752Y164676D01*
Y168908D01*
X414868Y171024D01*
X387352Y196416D02*
Y187952D01*
Y192184D01*
X400048D01*
Y183720D02*
X387352D01*
Y177372D01*
X389468Y175256D01*
X393700D01*
X395816Y177372D01*
Y183720D01*
Y179488D02*
X400048Y175256D01*
X389468Y171024D02*
X387352Y168908D01*
Y164676D01*
X389468Y162560D01*
X391584D01*
X393700Y164676D01*
Y166792D01*
Y164676D01*
X395816Y162560D01*
X397932D01*
X400048Y164676D01*
Y168908D01*
X397932Y171024D01*
X364068Y187952D02*
X361952Y190068D01*
Y194300D01*
X364068Y196416D01*
X372532D01*
X374648Y194300D01*
Y190068D01*
X372532Y187952D01*
X368300D01*
Y192184D01*
X374648Y183720D02*
X361952D01*
X374648Y175256D01*
X361952D01*
Y171024D02*
X374648D01*
Y164676D01*
X372532Y162560D01*
X364068D01*
X361952Y164676D01*
Y171024D01*
X338668Y196416D02*
X336552Y194300D01*
Y190068D01*
X338668Y187952D01*
X340784D01*
X342900Y190068D01*
Y192184D01*
Y190068D01*
X345016Y187952D01*
X347132D01*
X349248Y190068D01*
Y194300D01*
X347132Y196416D01*
X336552Y183720D02*
X345016D01*
X349248Y179488D01*
X345016Y175256D01*
X336552D01*
X338668Y171024D02*
X336552Y168908D01*
Y164676D01*
X338668Y162560D01*
X340784D01*
X342900Y164676D01*
Y166792D01*
Y164676D01*
X345016Y162560D01*
X347132D01*
X349248Y164676D01*
Y168908D01*
X347132Y171024D01*
X311152Y175256D02*
Y183720D01*
X317500D01*
X315384Y179488D01*
Y177372D01*
X317500Y175256D01*
X321732D01*
X323848Y177372D01*
Y181604D01*
X321732Y183720D01*
X323848Y162560D02*
Y171024D01*
X315384Y162560D01*
X313268D01*
X311152Y164676D01*
Y168908D01*
X313268Y171024D01*
X285752Y175256D02*
Y183720D01*
X292100D01*
X289984Y179488D01*
Y177372D01*
X292100Y175256D01*
X296332D01*
X298448Y177372D01*
Y181604D01*
X296332Y183720D01*
X287868Y171024D02*
X285752Y168908D01*
Y164676D01*
X287868Y162560D01*
X289984D01*
X292100Y164676D01*
X294216Y162560D01*
X296332D01*
X298448Y164676D01*
Y168908D01*
X296332Y171024D01*
X294216D01*
X292100Y168908D01*
X289984Y171024D01*
X287868D01*
X292100Y168908D02*
Y164676D01*
X260352Y175256D02*
Y183720D01*
X266700D01*
X264584Y179488D01*
Y177372D01*
X266700Y175256D01*
X270932D01*
X273048Y177372D01*
Y181604D01*
X270932Y183720D01*
X262468Y171024D02*
X260352Y168908D01*
Y164676D01*
X262468Y162560D01*
X270932D01*
X273048Y164676D01*
Y168908D01*
X270932Y171024D01*
X262468D01*
X234952Y175256D02*
Y183720D01*
X241300D01*
X239184Y179488D01*
Y177372D01*
X241300Y175256D01*
X245532D01*
X247648Y177372D01*
Y181604D01*
X245532Y183720D01*
X234952Y171024D02*
X243416D01*
X247648Y166792D01*
X243416Y162560D01*
X234952D01*
X211668Y187952D02*
X209552Y190068D01*
Y194300D01*
X211668Y196416D01*
X220132D01*
X222248Y194300D01*
Y190068D01*
X220132Y187952D01*
X215900D01*
Y192184D01*
X222248Y183720D02*
X209552D01*
X222248Y175256D01*
X209552D01*
Y171024D02*
X222248D01*
Y164676D01*
X220132Y162560D01*
X211668D01*
X209552Y164676D01*
Y171024D01*
X184152Y175256D02*
X186268Y179488D01*
X190500Y183720D01*
X194732D01*
X196848Y181604D01*
Y177372D01*
X194732Y175256D01*
X192616D01*
X190500Y177372D01*
Y183720D01*
X184152Y171024D02*
Y162560D01*
X186268D01*
X194732Y171024D01*
X196848D01*
X440268Y95676D02*
X438152Y97792D01*
Y102024D01*
X440268Y104140D01*
X448732D01*
X450848Y102024D01*
Y97792D01*
X448732Y95676D01*
X444500D01*
Y99908D01*
X450848Y91444D02*
X438152D01*
X450848Y82980D01*
X438152D01*
Y78748D02*
X450848D01*
Y72400D01*
X448732Y70284D01*
X440268D01*
X438152Y72400D01*
Y78748D01*
X412752Y104140D02*
Y95676D01*
Y99908D01*
X425448D01*
X412752Y91444D02*
X425448D01*
Y85096D01*
X423332Y82980D01*
X414868D01*
X412752Y85096D01*
Y91444D01*
Y78748D02*
Y74516D01*
Y76632D01*
X425448D01*
Y78748D01*
Y74516D01*
X387352Y104140D02*
Y95676D01*
Y99908D01*
X400048D01*
X389468Y82980D02*
X387352Y85096D01*
Y89328D01*
X389468Y91444D01*
X397932D01*
X400048Y89328D01*
Y85096D01*
X397932Y82980D01*
X387352Y78748D02*
X400048D01*
X395816D01*
X387352Y70284D01*
X393700Y76632D01*
X400048Y70284D01*
X361952Y104140D02*
Y95676D01*
Y99908D01*
X374648D01*
Y91444D02*
X361952D01*
X366184Y87212D01*
X361952Y82980D01*
X374648D01*
X364068Y70284D02*
X361952Y72400D01*
Y76632D01*
X364068Y78748D01*
X366184D01*
X368300Y76632D01*
Y72400D01*
X370416Y70284D01*
X372532D01*
X374648Y72400D01*
Y76632D01*
X372532Y78748D01*
X287868Y95676D02*
X285752Y97792D01*
Y102024D01*
X287868Y104140D01*
X296332D01*
X298448Y102024D01*
Y97792D01*
X296332Y95676D01*
X292100D01*
Y99908D01*
X298448Y91444D02*
X285752D01*
X298448Y82980D01*
X285752D01*
Y78748D02*
X298448D01*
Y72400D01*
X296332Y70284D01*
X287868D01*
X285752Y72400D01*
Y78748D01*
X260352Y95676D02*
Y104140D01*
X266700D01*
X264584Y99908D01*
Y97792D01*
X266700Y95676D01*
X270932D01*
X273048Y97792D01*
Y102024D01*
X270932Y104140D01*
X260352Y82980D02*
Y91444D01*
X266700D01*
X264584Y87212D01*
Y85096D01*
X266700Y82980D01*
X270932D01*
X273048Y85096D01*
Y89328D01*
X270932Y91444D01*
X234952Y95676D02*
X237068Y99908D01*
X241300Y104140D01*
X245532D01*
X247648Y102024D01*
Y97792D01*
X245532Y95676D01*
X243416D01*
X241300Y97792D01*
Y104140D01*
X247648Y91444D02*
Y87212D01*
Y89328D01*
X234952D01*
X237068Y91444D01*
X209552Y95676D02*
X211668Y99908D01*
X215900Y104140D01*
X220132D01*
X222248Y102024D01*
Y97792D01*
X220132Y95676D01*
X218016D01*
X215900Y97792D01*
Y104140D01*
X211668Y91444D02*
X209552Y89328D01*
Y85096D01*
X211668Y82980D01*
X213784D01*
X215900Y85096D01*
Y87212D01*
Y85096D01*
X218016Y82980D01*
X220132D01*
X222248Y85096D01*
Y89328D01*
X220132Y91444D01*
X184152Y95676D02*
X186268Y99908D01*
X190500Y104140D01*
X194732D01*
X196848Y102024D01*
Y97792D01*
X194732Y95676D01*
X192616D01*
X190500Y97792D01*
Y104140D01*
X194732Y91444D02*
X196848Y89328D01*
Y85096D01*
X194732Y82980D01*
X186268D01*
X184152Y85096D01*
Y89328D01*
X186268Y91444D01*
X188384D01*
X190500Y89328D01*
Y82980D01*
X12699Y91438D02*
X17778D01*
X15238D01*
Y78742D01*
X17778Y76203D01*
X20317D01*
X22856Y78742D01*
X-2536Y91438D02*
X7621D01*
Y83820D01*
X2542Y86359D01*
X3D01*
X-2536Y83820D01*
Y78742D01*
X3Y76203D01*
X5082D01*
X7621Y78742D01*
X652779Y86357D02*
X657858D01*
X655318D01*
Y73662D01*
X657858Y71122D01*
X660397D01*
X662936Y73662D01*
X640083Y71122D02*
Y86357D01*
X647701Y78740D01*
X637544D01*
D12*
X152400Y-16510D02*
Y90170D01*
X35560D02*
X152400D01*
X35560Y-16510D02*
Y90170D01*
Y-16510D02*
X152400D01*
X506960D02*
X623800D01*
X506960D02*
Y90170D01*
X623800D01*
Y-16510D02*
Y90170D01*
M02*
