G04*
G04 #@! TF.GenerationSoftware,Altium Limited,Altium Designer,24.0.1 (36)*
G04*
G04 Layer_Physical_Order=1*
G04 Layer_Color=255*
%FSLAX44Y44*%
%MOMM*%
G71*
G04*
G04 #@! TF.SameCoordinates,FEA383FD-90B8-454F-AD33-5B4C9E3D299A*
G04*
G04*
G04 #@! TF.FilePolarity,Positive*
G04*
G01*
G75*
%ADD13R,0.5000X2.0000*%
%ADD21C,0.3810*%
%ADD22C,1.8600*%
%ADD23R,2.2400X2.2400*%
%ADD24C,2.2400*%
%ADD25C,5.0800*%
%ADD26C,1.5240*%
%ADD27C,0.4524*%
%ADD28C,0.4572*%
G36*
X677606Y270304D02*
X681939Y268990D01*
X685933Y266856D01*
X689433Y263983D01*
X692306Y260483D01*
X694440Y256489D01*
X695754Y252156D01*
X696189Y247747D01*
X696169Y247650D01*
Y0D01*
X696189Y-98D01*
X695754Y-4506D01*
X694440Y-8839D01*
X692306Y-12833D01*
X689433Y-16333D01*
X685933Y-19205D01*
X681939Y-21340D01*
X677606Y-22654D01*
X673197Y-23089D01*
X673100Y-23069D01*
X-12700D01*
X-12797Y-23089D01*
X-17206Y-22654D01*
X-21539Y-21340D01*
X-25533Y-19205D01*
X-29033Y-16333D01*
X-31906Y-12833D01*
X-34040Y-8839D01*
X-35354Y-4506D01*
X-35789Y-98D01*
X-35769Y0D01*
Y247650D01*
X-35789Y247747D01*
X-35354Y252156D01*
X-34040Y256489D01*
X-31906Y260483D01*
X-29033Y263983D01*
X-25533Y266856D01*
X-21539Y268990D01*
X-17206Y270304D01*
X-12797Y270739D01*
X-12700Y270719D01*
X673100D01*
X673197Y270739D01*
X677606Y270304D01*
D02*
G37*
%LPC*%
G36*
X662479Y261366D02*
X658321D01*
X654214Y260716D01*
X650260Y259431D01*
X646555Y257543D01*
X643191Y255099D01*
X640251Y252159D01*
X637807Y248795D01*
X635919Y245090D01*
X634634Y241136D01*
X633984Y237029D01*
Y232871D01*
X634634Y228764D01*
X635919Y224810D01*
X637807Y221105D01*
X640251Y217741D01*
X643191Y214801D01*
X646555Y212357D01*
X650260Y210469D01*
X654214Y209184D01*
X658321Y208534D01*
X662479D01*
X666586Y209184D01*
X670540Y210469D01*
X674245Y212357D01*
X677609Y214801D01*
X680549Y217741D01*
X682993Y221105D01*
X684881Y224810D01*
X686166Y228764D01*
X686816Y232871D01*
Y237029D01*
X686166Y241136D01*
X684881Y245090D01*
X682993Y248795D01*
X680549Y252159D01*
X677609Y255099D01*
X674245Y257543D01*
X670540Y259431D01*
X666586Y260716D01*
X662479Y261366D01*
D02*
G37*
G36*
X2079D02*
X-2079D01*
X-6186Y260716D01*
X-10140Y259431D01*
X-13845Y257543D01*
X-17209Y255099D01*
X-20149Y252159D01*
X-22593Y248795D01*
X-24481Y245090D01*
X-25766Y241136D01*
X-26416Y237029D01*
Y232871D01*
X-25766Y228764D01*
X-24481Y224810D01*
X-22593Y221105D01*
X-20149Y217741D01*
X-17209Y214801D01*
X-13845Y212357D01*
X-10140Y210469D01*
X-6186Y209184D01*
X-2079Y208534D01*
X2079D01*
X6186Y209184D01*
X10140Y210469D01*
X13845Y212357D01*
X17209Y214801D01*
X20149Y217741D01*
X22593Y221105D01*
X24481Y224810D01*
X25766Y228764D01*
X26416Y232871D01*
Y237029D01*
X25766Y241136D01*
X24481Y245090D01*
X22593Y248795D01*
X20149Y252159D01*
X17209Y255099D01*
X13845Y257543D01*
X10140Y259431D01*
X6186Y260716D01*
X2079Y261366D01*
D02*
G37*
G36*
X616700Y206970D02*
X615200D01*
X613815Y206396D01*
X612754Y205336D01*
X612180Y203950D01*
Y202450D01*
X612754Y201064D01*
X613815Y200004D01*
X615200Y199430D01*
X616700D01*
X618086Y200004D01*
X619146Y201064D01*
X619720Y202450D01*
Y203950D01*
X619146Y205336D01*
X618086Y206396D01*
X616700Y206970D01*
D02*
G37*
G36*
X553200D02*
X551700D01*
X550314Y206396D01*
X549254Y205336D01*
X548680Y203950D01*
Y202450D01*
X549254Y201064D01*
X550314Y200004D01*
X551700Y199430D01*
X553200D01*
X554585Y200004D01*
X555646Y201064D01*
X556220Y202450D01*
Y203950D01*
X555646Y205336D01*
X554585Y206396D01*
X553200Y206970D01*
D02*
G37*
G36*
X489700D02*
X488200D01*
X486814Y206396D01*
X485754Y205336D01*
X485180Y203950D01*
Y202450D01*
X485754Y201064D01*
X486814Y200004D01*
X488200Y199430D01*
X489700D01*
X491086Y200004D01*
X492146Y201064D01*
X492720Y202450D01*
Y203950D01*
X492146Y205336D01*
X491086Y206396D01*
X489700Y206970D01*
D02*
G37*
G36*
X426200D02*
X424700D01*
X423315Y206396D01*
X422254Y205336D01*
X421680Y203950D01*
Y202450D01*
X422254Y201064D01*
X423315Y200004D01*
X424700Y199430D01*
X426200D01*
X427585Y200004D01*
X428646Y201064D01*
X429220Y202450D01*
Y203950D01*
X428646Y205336D01*
X427585Y206396D01*
X426200Y206970D01*
D02*
G37*
G36*
X362700D02*
X361200D01*
X359814Y206396D01*
X358754Y205336D01*
X358180Y203950D01*
Y202450D01*
X358754Y201064D01*
X359814Y200004D01*
X361200Y199430D01*
X362700D01*
X364086Y200004D01*
X365146Y201064D01*
X365720Y202450D01*
Y203950D01*
X365146Y205336D01*
X364086Y206396D01*
X362700Y206970D01*
D02*
G37*
G36*
X299200D02*
X297700D01*
X296315Y206396D01*
X295254Y205336D01*
X294680Y203950D01*
Y202450D01*
X295254Y201064D01*
X296315Y200004D01*
X297700Y199430D01*
X299200D01*
X300585Y200004D01*
X301646Y201064D01*
X302220Y202450D01*
Y203950D01*
X301646Y205336D01*
X300585Y206396D01*
X299200Y206970D01*
D02*
G37*
G36*
X235700D02*
X234200D01*
X232815Y206396D01*
X231754Y205336D01*
X231180Y203950D01*
Y202450D01*
X231754Y201064D01*
X232815Y200004D01*
X234200Y199430D01*
X235700D01*
X237085Y200004D01*
X238146Y201064D01*
X238720Y202450D01*
Y203950D01*
X238146Y205336D01*
X237085Y206396D01*
X235700Y206970D01*
D02*
G37*
G36*
X172200D02*
X170700D01*
X169314Y206396D01*
X168254Y205336D01*
X167680Y203950D01*
Y202450D01*
X168254Y201064D01*
X169314Y200004D01*
X170700Y199430D01*
X172200D01*
X173585Y200004D01*
X174646Y201064D01*
X175220Y202450D01*
Y203950D01*
X174646Y205336D01*
X173585Y206396D01*
X172200Y206970D01*
D02*
G37*
G36*
X108700D02*
X107200D01*
X105815Y206396D01*
X104754Y205336D01*
X104180Y203950D01*
Y202450D01*
X104754Y201064D01*
X105815Y200004D01*
X107200Y199430D01*
X108700D01*
X110085Y200004D01*
X111146Y201064D01*
X111720Y202450D01*
Y203950D01*
X111146Y205336D01*
X110085Y206396D01*
X108700Y206970D01*
D02*
G37*
G36*
X45200D02*
X43700D01*
X42315Y206396D01*
X41254Y205336D01*
X40680Y203950D01*
Y202450D01*
X41254Y201064D01*
X42315Y200004D01*
X43700Y199430D01*
X45200D01*
X46585Y200004D01*
X47646Y201064D01*
X48220Y202450D01*
Y203950D01*
X47646Y205336D01*
X46585Y206396D01*
X45200Y206970D01*
D02*
G37*
G36*
X471037Y154686D02*
X468763D01*
X466567Y154097D01*
X464597Y152961D01*
X462990Y151353D01*
X461852Y149383D01*
X461264Y147187D01*
Y144913D01*
X461852Y142717D01*
X462990Y140747D01*
X464597Y139139D01*
X466567Y138003D01*
X468763Y137414D01*
X471037D01*
X473233Y138003D01*
X475203Y139139D01*
X476810Y140747D01*
X477948Y142717D01*
X478536Y144913D01*
Y147187D01*
X477948Y149383D01*
X476810Y151353D01*
X475203Y152961D01*
X473233Y154097D01*
X471037Y154686D01*
D02*
G37*
G36*
X445637D02*
X443363D01*
X441167Y154097D01*
X439197Y152961D01*
X437589Y151353D01*
X436452Y149383D01*
X435864Y147187D01*
Y144913D01*
X436452Y142717D01*
X437589Y140747D01*
X439197Y139139D01*
X441167Y138003D01*
X443363Y137414D01*
X445637D01*
X447833Y138003D01*
X449803Y139139D01*
X451410Y140747D01*
X452547Y142717D01*
X453136Y144913D01*
Y147187D01*
X452547Y149383D01*
X451410Y151353D01*
X449803Y152961D01*
X447833Y154097D01*
X445637Y154686D01*
D02*
G37*
G36*
X420237D02*
X417963D01*
X415767Y154097D01*
X413797Y152961D01*
X412189Y151353D01*
X411053Y149383D01*
X410464Y147187D01*
Y144913D01*
X411053Y142717D01*
X412189Y140747D01*
X413797Y139139D01*
X415767Y138003D01*
X417963Y137414D01*
X420237D01*
X422433Y138003D01*
X424403Y139139D01*
X426011Y140747D01*
X427147Y142717D01*
X427736Y144913D01*
Y147187D01*
X427147Y149383D01*
X426011Y151353D01*
X424403Y152961D01*
X422433Y154097D01*
X420237Y154686D01*
D02*
G37*
G36*
X293237D02*
X290963D01*
X288767Y154097D01*
X286797Y152961D01*
X285189Y151353D01*
X284053Y149383D01*
X283464Y147187D01*
Y144913D01*
X284053Y142717D01*
X285189Y140747D01*
X286797Y139139D01*
X288767Y138003D01*
X290963Y137414D01*
X293237D01*
X295433Y138003D01*
X297403Y139139D01*
X299011Y140747D01*
X300147Y142717D01*
X300736Y144913D01*
Y147187D01*
X300147Y149383D01*
X299011Y151353D01*
X297403Y152961D01*
X295433Y154097D01*
X293237Y154686D01*
D02*
G37*
G36*
X267837D02*
X265563D01*
X263367Y154097D01*
X261397Y152961D01*
X259790Y151353D01*
X258652Y149383D01*
X258064Y147187D01*
Y144913D01*
X258652Y142717D01*
X259790Y140747D01*
X261397Y139139D01*
X263367Y138003D01*
X265563Y137414D01*
X267837D01*
X270033Y138003D01*
X272003Y139139D01*
X273610Y140747D01*
X274748Y142717D01*
X275336Y144913D01*
Y147187D01*
X274748Y149383D01*
X273610Y151353D01*
X272003Y152961D01*
X270033Y154097D01*
X267837Y154686D01*
D02*
G37*
G36*
X648450Y143470D02*
X646950D01*
X645564Y142896D01*
X644504Y141835D01*
X643930Y140450D01*
Y138950D01*
X644504Y137564D01*
X645564Y136504D01*
X646950Y135930D01*
X648450D01*
X649836Y136504D01*
X650896Y137564D01*
X651470Y138950D01*
Y140450D01*
X650896Y141835D01*
X649836Y142896D01*
X648450Y143470D01*
D02*
G37*
G36*
X584950D02*
X583450D01*
X582065Y142896D01*
X581004Y141835D01*
X580430Y140450D01*
Y138950D01*
X581004Y137564D01*
X582065Y136504D01*
X583450Y135930D01*
X584950D01*
X586335Y136504D01*
X587396Y137564D01*
X587970Y138950D01*
Y140450D01*
X587396Y141835D01*
X586335Y142896D01*
X584950Y143470D01*
D02*
G37*
G36*
X521450D02*
X519950D01*
X518564Y142896D01*
X517504Y141835D01*
X516930Y140450D01*
Y138950D01*
X517504Y137564D01*
X518564Y136504D01*
X519950Y135930D01*
X521450D01*
X522836Y136504D01*
X523896Y137564D01*
X524470Y138950D01*
Y140450D01*
X523896Y141835D01*
X522836Y142896D01*
X521450Y143470D01*
D02*
G37*
G36*
X140450D02*
X138950D01*
X137564Y142896D01*
X136504Y141835D01*
X135930Y140450D01*
Y138950D01*
X136504Y137564D01*
X137564Y136504D01*
X138950Y135930D01*
X140450D01*
X141835Y136504D01*
X142896Y137564D01*
X143470Y138950D01*
Y140450D01*
X142896Y141835D01*
X141835Y142896D01*
X140450Y143470D01*
D02*
G37*
G36*
X76950D02*
X75450D01*
X74064Y142896D01*
X73004Y141835D01*
X72430Y140450D01*
Y138950D01*
X73004Y137564D01*
X74064Y136504D01*
X75450Y135930D01*
X76950D01*
X78335Y136504D01*
X79396Y137564D01*
X79970Y138950D01*
Y140450D01*
X79396Y141835D01*
X78335Y142896D01*
X76950Y143470D01*
D02*
G37*
G36*
X13450D02*
X11950D01*
X10565Y142896D01*
X9504Y141835D01*
X8930Y140450D01*
Y138950D01*
X9504Y137564D01*
X10565Y136504D01*
X11950Y135930D01*
X13450D01*
X14835Y136504D01*
X15896Y137564D01*
X16470Y138950D01*
Y140450D01*
X15896Y141835D01*
X14835Y142896D01*
X13450Y143470D01*
D02*
G37*
G36*
X242437Y129286D02*
X241808D01*
Y121158D01*
X249936D01*
Y121787D01*
X249347Y123983D01*
X248211Y125953D01*
X246603Y127561D01*
X244633Y128698D01*
X242437Y129286D01*
D02*
G37*
G36*
X240792D02*
X240163D01*
X237967Y128698D01*
X235997Y127561D01*
X234389Y125953D01*
X233253Y123983D01*
X232664Y121787D01*
Y121158D01*
X240792D01*
Y129286D01*
D02*
G37*
G36*
X394837Y154686D02*
X392563D01*
X390367Y154097D01*
X388397Y152961D01*
X386790Y151353D01*
X385653Y149383D01*
X385064Y147187D01*
Y146182D01*
X384981Y145989D01*
X384968Y145083D01*
X384913Y144261D01*
X384818Y143497D01*
X384682Y142791D01*
X384509Y142143D01*
X384299Y141553D01*
X384055Y141019D01*
X383778Y140538D01*
X383468Y140109D01*
X383084Y139681D01*
X383065Y139627D01*
X379094Y135656D01*
X378448Y134690D01*
X378222Y133550D01*
Y114434D01*
X364225Y100437D01*
X363580Y99471D01*
X363381Y98472D01*
X363326Y98345D01*
X363320Y97828D01*
X363268Y96977D01*
X363229Y96678D01*
X363197Y96516D01*
X361716D01*
X361414Y96516D01*
X360212D01*
X360125Y96563D01*
X359892Y96588D01*
X359820Y96613D01*
X359756Y96656D01*
X359672Y96747D01*
X359566Y96920D01*
X359454Y97194D01*
X359352Y97570D01*
X359273Y98047D01*
X359222Y98618D01*
X359204Y99309D01*
X359178Y99367D01*
Y116637D01*
X360448Y116978D01*
X361390Y115347D01*
X362997Y113740D01*
X364967Y112603D01*
X367163Y112014D01*
X369437D01*
X371633Y112603D01*
X373603Y113740D01*
X375210Y115347D01*
X376348Y117317D01*
X376936Y119513D01*
Y121787D01*
X376348Y123983D01*
X375210Y125953D01*
X373603Y127561D01*
X371633Y128698D01*
X369437Y129286D01*
X367163D01*
X364967Y128698D01*
X362997Y127561D01*
X361390Y125953D01*
X360448Y124322D01*
X359178Y124663D01*
Y132716D01*
X361877Y135415D01*
X361931Y135434D01*
X362359Y135818D01*
X362789Y136128D01*
X363269Y136405D01*
X363803Y136649D01*
X364393Y136859D01*
X365041Y137032D01*
X365731Y137165D01*
X367349Y137318D01*
X368239Y137331D01*
X368432Y137414D01*
X369437D01*
X371633Y138003D01*
X373603Y139139D01*
X375210Y140747D01*
X376348Y142717D01*
X376936Y144913D01*
Y147187D01*
X376348Y149383D01*
X375210Y151353D01*
X373603Y152961D01*
X371633Y154097D01*
X369437Y154686D01*
X367163D01*
X364967Y154097D01*
X362997Y152961D01*
X361390Y151353D01*
X360252Y149383D01*
X359664Y147187D01*
Y146182D01*
X359581Y145989D01*
X359568Y145083D01*
X359514Y144261D01*
X359418Y143497D01*
X359282Y142791D01*
X359109Y142143D01*
X358899Y141553D01*
X358655Y141019D01*
X358378Y140539D01*
X358068Y140109D01*
X357684Y139681D01*
X357665Y139627D01*
X354094Y136056D01*
X353448Y135090D01*
X353222Y133950D01*
Y99344D01*
X353195Y99279D01*
X353200Y99269D01*
X353195Y99258D01*
X353210Y98534D01*
X353221Y98509D01*
X353212Y98483D01*
X353222Y98336D01*
Y96516D01*
X346986D01*
X346684Y96516D01*
X345347D01*
X345340Y96555D01*
X345210Y98595D01*
X345205Y99288D01*
X345178Y99351D01*
Y101200D01*
X344952Y102340D01*
X344306Y103306D01*
X333178Y114434D01*
Y118658D01*
X334448Y118826D01*
X334852Y117317D01*
X335989Y115347D01*
X337597Y113740D01*
X339567Y112603D01*
X341763Y112014D01*
X344037D01*
X346233Y112603D01*
X348203Y113740D01*
X349810Y115347D01*
X350947Y117317D01*
X351536Y119513D01*
Y121787D01*
X350947Y123983D01*
X349810Y125953D01*
X348203Y127561D01*
X346233Y128698D01*
X344037Y129286D01*
X341763D01*
X339567Y128698D01*
X337597Y127561D01*
X335989Y125953D01*
X334852Y123983D01*
X334448Y122474D01*
X333178Y122642D01*
Y132116D01*
X336477Y135415D01*
X336531Y135434D01*
X336959Y135818D01*
X337388Y136128D01*
X337869Y136405D01*
X338403Y136649D01*
X338993Y136859D01*
X339641Y137032D01*
X340331Y137165D01*
X341949Y137318D01*
X342839Y137331D01*
X343032Y137414D01*
X344037D01*
X346233Y138003D01*
X348203Y139139D01*
X349810Y140747D01*
X350947Y142717D01*
X351536Y144913D01*
Y147187D01*
X350947Y149383D01*
X349810Y151353D01*
X348203Y152961D01*
X346233Y154097D01*
X344037Y154686D01*
X341763D01*
X339567Y154097D01*
X337597Y152961D01*
X335989Y151353D01*
X334852Y149383D01*
X334264Y147187D01*
Y146182D01*
X334181Y145989D01*
X334168Y145083D01*
X334114Y144261D01*
X334018Y143497D01*
X333882Y142791D01*
X333709Y142143D01*
X333499Y141553D01*
X333255Y141019D01*
X332978Y140538D01*
X332668Y140109D01*
X332284Y139681D01*
X332265Y139627D01*
X328094Y135456D01*
X327449Y134490D01*
X327222Y133350D01*
Y122642D01*
X325952Y122474D01*
X325547Y123983D01*
X324411Y125953D01*
X322803Y127561D01*
X320833Y128698D01*
X318637Y129286D01*
X316363D01*
X314167Y128698D01*
X312197Y127561D01*
X310590Y125953D01*
X309452Y123983D01*
X309448Y123967D01*
X308178Y124135D01*
Y132516D01*
X311077Y135415D01*
X311131Y135434D01*
X311559Y135818D01*
X311989Y136128D01*
X312469Y136405D01*
X313003Y136649D01*
X313593Y136859D01*
X314241Y137032D01*
X314931Y137165D01*
X316549Y137318D01*
X317439Y137331D01*
X317633Y137414D01*
X318637D01*
X320833Y138003D01*
X322803Y139139D01*
X324411Y140747D01*
X325547Y142717D01*
X326136Y144913D01*
Y147187D01*
X325547Y149383D01*
X324411Y151353D01*
X322803Y152961D01*
X320833Y154097D01*
X318637Y154686D01*
X316363D01*
X314167Y154097D01*
X312197Y152961D01*
X310590Y151353D01*
X309452Y149383D01*
X308864Y147187D01*
Y146182D01*
X308781Y145989D01*
X308768Y145083D01*
X308713Y144261D01*
X308618Y143497D01*
X308482Y142791D01*
X308309Y142143D01*
X308099Y141553D01*
X307855Y141019D01*
X307578Y140538D01*
X307268Y140109D01*
X306884Y139681D01*
X306865Y139627D01*
X303094Y135856D01*
X302449Y134890D01*
X302222Y133750D01*
Y117434D01*
X300944Y116155D01*
X299927Y116935D01*
X300147Y117317D01*
X300736Y119513D01*
Y121787D01*
X300147Y123983D01*
X299011Y125953D01*
X297403Y127561D01*
X295433Y128698D01*
X293237Y129286D01*
X290963D01*
X288767Y128698D01*
X286797Y127561D01*
X285189Y125953D01*
X284053Y123983D01*
X283464Y121787D01*
Y120782D01*
X283381Y120589D01*
X283368Y119683D01*
X283314Y118861D01*
X283218Y118097D01*
X283083Y117391D01*
X282909Y116743D01*
X282699Y116153D01*
X282455Y115619D01*
X282178Y115139D01*
X281868Y114709D01*
X281484Y114281D01*
X281465Y114227D01*
X281437Y114199D01*
X276390D01*
X275250Y113972D01*
X274284Y113327D01*
X260689Y99732D01*
X260044Y98766D01*
X259847Y97777D01*
X259790Y97649D01*
X259769Y96580D01*
X259764Y96516D01*
X257716Y96516D01*
X257414Y96516D01*
X250986D01*
X250684Y96516D01*
X249716D01*
X249414Y96516D01*
X242986D01*
X242659Y96790D01*
X242581Y98369D01*
X256306Y112094D01*
X256952Y113060D01*
X257178Y114200D01*
Y117912D01*
X258448Y118079D01*
X258652Y117317D01*
X259790Y115347D01*
X261397Y113740D01*
X263367Y112603D01*
X265563Y112014D01*
X267837D01*
X270033Y112603D01*
X272003Y113740D01*
X273610Y115347D01*
X274748Y117317D01*
X275336Y119513D01*
Y121787D01*
X274748Y123983D01*
X273610Y125953D01*
X272003Y127561D01*
X270033Y128698D01*
X267837Y129286D01*
X265563D01*
X263367Y128698D01*
X261397Y127561D01*
X259790Y125953D01*
X258652Y123983D01*
X258448Y123221D01*
X257178Y123388D01*
Y133150D01*
X256952Y134290D01*
X256306Y135256D01*
X251935Y139627D01*
X251916Y139681D01*
X251532Y140109D01*
X251222Y140539D01*
X250945Y141019D01*
X250701Y141553D01*
X250491Y142143D01*
X250318Y142791D01*
X250185Y143481D01*
X250032Y145099D01*
X250019Y145989D01*
X249936Y146182D01*
Y147187D01*
X249347Y149383D01*
X248211Y151353D01*
X246603Y152961D01*
X244633Y154097D01*
X242437Y154686D01*
X240163D01*
X237967Y154097D01*
X235997Y152961D01*
X234389Y151353D01*
X233253Y149383D01*
X232664Y147187D01*
Y144913D01*
X233253Y142717D01*
X234389Y140747D01*
X235997Y139139D01*
X237967Y138003D01*
X240163Y137414D01*
X241168D01*
X241361Y137331D01*
X242267Y137318D01*
X243089Y137263D01*
X243853Y137168D01*
X244559Y137032D01*
X245207Y136859D01*
X245797Y136649D01*
X246331Y136405D01*
X246812Y136128D01*
X247241Y135818D01*
X247669Y135434D01*
X247723Y135415D01*
X251222Y131916D01*
Y115434D01*
X236225Y100437D01*
X235580Y99471D01*
X235381Y98472D01*
X235326Y98345D01*
X235320Y97828D01*
X235268Y96977D01*
X235229Y96678D01*
X235197Y96516D01*
X233716D01*
X233414Y96516D01*
X226986D01*
X226684Y96516D01*
X225347D01*
X225340Y96555D01*
X225210Y98595D01*
X225205Y99288D01*
X225178Y99351D01*
Y100966D01*
X230306Y106094D01*
X230951Y107060D01*
X231178Y108200D01*
Y133750D01*
X230951Y134890D01*
X230306Y135856D01*
X226535Y139627D01*
X226516Y139681D01*
X226132Y140109D01*
X225822Y140539D01*
X225545Y141019D01*
X225301Y141553D01*
X225091Y142143D01*
X224918Y142791D01*
X224785Y143481D01*
X224632Y145099D01*
X224619Y145989D01*
X224536Y146182D01*
Y147187D01*
X223948Y149383D01*
X222810Y151353D01*
X221203Y152961D01*
X219233Y154097D01*
X217037Y154686D01*
X214763D01*
X212567Y154097D01*
X210597Y152961D01*
X208990Y151353D01*
X207852Y149383D01*
X207264Y147187D01*
Y144913D01*
X207852Y142717D01*
X208990Y140747D01*
X210597Y139139D01*
X212567Y138003D01*
X214763Y137414D01*
X215767D01*
X215961Y137331D01*
X216867Y137318D01*
X217689Y137263D01*
X218453Y137168D01*
X219159Y137032D01*
X219807Y136859D01*
X220397Y136649D01*
X220931Y136405D01*
X221412Y136128D01*
X221841Y135818D01*
X222269Y135434D01*
X222323Y135415D01*
X225222Y132516D01*
Y124135D01*
X223952Y123967D01*
X223948Y123983D01*
X222810Y125953D01*
X221203Y127561D01*
X219233Y128698D01*
X217037Y129286D01*
X214763D01*
X212567Y128698D01*
X210597Y127561D01*
X208990Y125953D01*
X207852Y123983D01*
X207448Y122474D01*
X206178Y122642D01*
Y133350D01*
X205951Y134490D01*
X205306Y135456D01*
X201135Y139627D01*
X201116Y139681D01*
X200732Y140109D01*
X200422Y140539D01*
X200145Y141019D01*
X199901Y141553D01*
X199691Y142143D01*
X199518Y142791D01*
X199385Y143481D01*
X199232Y145099D01*
X199219Y145989D01*
X199136Y146182D01*
Y147187D01*
X198547Y149383D01*
X197411Y151353D01*
X195803Y152961D01*
X193833Y154097D01*
X191637Y154686D01*
X189363D01*
X187167Y154097D01*
X185197Y152961D01*
X183589Y151353D01*
X182453Y149383D01*
X181864Y147187D01*
Y144913D01*
X182453Y142717D01*
X183589Y140747D01*
X185197Y139139D01*
X187167Y138003D01*
X189363Y137414D01*
X190368D01*
X190561Y137331D01*
X191467Y137318D01*
X192289Y137263D01*
X193053Y137168D01*
X193759Y137032D01*
X194407Y136859D01*
X194997Y136649D01*
X195531Y136405D01*
X196012Y136128D01*
X196441Y135818D01*
X196869Y135434D01*
X196923Y135415D01*
X200222Y132116D01*
Y122642D01*
X198952Y122474D01*
X198547Y123983D01*
X197411Y125953D01*
X195803Y127561D01*
X193833Y128698D01*
X191637Y129286D01*
X189363D01*
X187167Y128698D01*
X185197Y127561D01*
X183589Y125953D01*
X182453Y123983D01*
X181864Y121787D01*
Y119513D01*
X182453Y117317D01*
X183589Y115347D01*
X185197Y113740D01*
X187167Y112603D01*
X189363Y112014D01*
X191637D01*
X193833Y112603D01*
X195803Y113740D01*
X197411Y115347D01*
X198547Y117317D01*
X198952Y118826D01*
X200222Y118658D01*
Y113200D01*
X200448Y112060D01*
X201094Y111094D01*
X211222Y100966D01*
Y99358D01*
X211195Y99298D01*
X211173Y97952D01*
X211109Y96942D01*
X211066Y96587D01*
X211053Y96516D01*
X209716D01*
X209414Y96516D01*
X202986D01*
X202684Y96516D01*
X201716D01*
X201414Y96516D01*
X198708D01*
Y85500D01*
Y74484D01*
X201414D01*
X201716Y74484D01*
X202684D01*
X202986Y74484D01*
X209414D01*
X209716Y74484D01*
X210684D01*
X210986Y74484D01*
X217414D01*
X217716Y74484D01*
X218684D01*
X218986Y74484D01*
X225414D01*
X225716Y74484D01*
X226684D01*
X226986Y74484D01*
X233414D01*
X233716Y74484D01*
X234684D01*
X234986Y74484D01*
X241414D01*
X241716Y74484D01*
X242684D01*
X242986Y74484D01*
X249414D01*
X249716Y74484D01*
X250684D01*
X250986Y74484D01*
X257414D01*
X257716Y74484D01*
X258684D01*
X258986Y74484D01*
X265414D01*
X265716Y74484D01*
X266684D01*
X266986Y74484D01*
X273716D01*
X273716Y74484D01*
X274684D01*
Y74484D01*
X274986Y74484D01*
X281414D01*
X281716Y74484D01*
Y74484D01*
X282684D01*
Y74484D01*
X289716D01*
Y74484D01*
X290684D01*
Y74484D01*
X297414D01*
X297716Y74484D01*
X298684D01*
X298986Y74484D01*
X305716D01*
Y74484D01*
X306684D01*
Y74484D01*
X313414D01*
X313716Y74484D01*
X314684D01*
X314986Y74484D01*
X321414D01*
X321716Y74484D01*
X322684D01*
X322986Y74484D01*
X329716D01*
Y74484D01*
X330684D01*
Y74484D01*
X337414D01*
X337716Y74484D01*
X338684D01*
X338986Y74484D01*
X345414D01*
X345716Y74484D01*
X346684D01*
X346986Y74484D01*
X353414D01*
X353716Y74484D01*
Y74484D01*
X354684D01*
Y74484D01*
X361414D01*
X361716Y74484D01*
X362684D01*
X362986Y74484D01*
X369414D01*
X369716Y74484D01*
X370684D01*
X370986Y74484D01*
X377414D01*
X377716Y74484D01*
X378684D01*
X378986Y74484D01*
X385414D01*
X385716Y74484D01*
Y74484D01*
X386684D01*
Y74484D01*
X393716D01*
Y74484D01*
X394684D01*
Y74484D01*
X401414D01*
X401716Y74484D01*
X402684D01*
X402986Y74484D01*
X409414D01*
X409716Y74484D01*
X410684D01*
X410986Y74484D01*
X417716D01*
Y74484D01*
X418684D01*
Y74484D01*
X425414D01*
X425716Y74484D01*
X426684D01*
X426986Y74484D01*
X433414D01*
X433716Y74484D01*
X434684D01*
X434986Y74484D01*
X441414D01*
X441716Y74484D01*
Y74484D01*
X442684D01*
Y74484D01*
X449414D01*
X449716Y74484D01*
X450684D01*
X450986Y74484D01*
X457716D01*
Y74484D01*
X458684D01*
Y74484D01*
X465414D01*
X465716Y74484D01*
X466684D01*
X467031Y74484D01*
X467557Y73214D01*
X466809Y72466D01*
X466200Y70996D01*
Y69404D01*
X466809Y67934D01*
X467934Y66809D01*
X469404Y66200D01*
X470996D01*
X472466Y66809D01*
X473591Y67934D01*
X474200Y69404D01*
Y70996D01*
X473591Y72466D01*
X472843Y73214D01*
X473369Y74484D01*
X473716Y74484D01*
X474684D01*
X474986Y74484D01*
X481716D01*
Y74484D01*
X482684D01*
Y74484D01*
X489716D01*
Y83536D01*
X490200Y84704D01*
Y86296D01*
X489716Y87464D01*
Y96516D01*
X482684D01*
Y96516D01*
X481716D01*
Y96516D01*
X474986D01*
X474684Y96516D01*
X473716D01*
X473414Y96516D01*
X466986D01*
X466684Y96516D01*
X465716D01*
X465414Y96516D01*
X458684D01*
Y96516D01*
X457716D01*
Y96516D01*
X451480D01*
X451095Y97786D01*
X451556Y98094D01*
X463477Y110015D01*
X463531Y110034D01*
X463959Y110418D01*
X464389Y110728D01*
X464869Y111005D01*
X465403Y111249D01*
X465993Y111459D01*
X466641Y111632D01*
X467331Y111765D01*
X468949Y111918D01*
X469839Y111931D01*
X470033Y112014D01*
X471037D01*
X473233Y112603D01*
X475203Y113740D01*
X476810Y115347D01*
X477948Y117317D01*
X478536Y119513D01*
Y121787D01*
X477948Y123983D01*
X476810Y125953D01*
X475203Y127561D01*
X473233Y128698D01*
X471037Y129286D01*
X468763D01*
X466567Y128698D01*
X464597Y127561D01*
X462990Y125953D01*
X461852Y123983D01*
X461264Y121787D01*
Y120782D01*
X461181Y120589D01*
X461168Y119683D01*
X461114Y118861D01*
X461018Y118097D01*
X460882Y117391D01*
X460709Y116743D01*
X460499Y116153D01*
X460255Y115619D01*
X459978Y115138D01*
X459668Y114709D01*
X459284Y114281D01*
X459265Y114227D01*
X448216Y103178D01*
X432314D01*
X432189Y104448D01*
X432190Y104448D01*
X433156Y105094D01*
X438077Y110015D01*
X438131Y110034D01*
X438559Y110418D01*
X438988Y110728D01*
X439469Y111005D01*
X440003Y111249D01*
X440593Y111459D01*
X441241Y111632D01*
X441931Y111765D01*
X443549Y111918D01*
X444439Y111931D01*
X444632Y112014D01*
X445637D01*
X447833Y112603D01*
X449803Y113740D01*
X451410Y115347D01*
X452547Y117317D01*
X453136Y119513D01*
Y121787D01*
X452547Y123983D01*
X451410Y125953D01*
X449803Y127561D01*
X447833Y128698D01*
X445637Y129286D01*
X443363D01*
X441167Y128698D01*
X439197Y127561D01*
X437589Y125953D01*
X436452Y123983D01*
X435864Y121787D01*
Y120782D01*
X435781Y120589D01*
X435768Y119683D01*
X435714Y118861D01*
X435618Y118097D01*
X435482Y117391D01*
X435309Y116743D01*
X435099Y116153D01*
X434855Y115619D01*
X434578Y115138D01*
X434268Y114709D01*
X433884Y114281D01*
X433865Y114227D01*
X429816Y110178D01*
X416200D01*
X415060Y109951D01*
X414094Y109306D01*
X404689Y99901D01*
X404044Y98935D01*
X403847Y97945D01*
X403791Y97817D01*
X403774Y97012D01*
X403736Y96516D01*
X401716Y96516D01*
X401414Y96516D01*
X398456D01*
X397970Y97689D01*
X411316Y111035D01*
X411370Y111054D01*
X411818Y111454D01*
X412246Y111754D01*
X412703Y111998D01*
X413195Y112189D01*
X413727Y112328D01*
X414302Y112413D01*
X414925Y112442D01*
X415598Y112412D01*
X416319Y112320D01*
X417124Y112158D01*
X417299Y112192D01*
X417963Y112014D01*
X420237D01*
X422433Y112603D01*
X424403Y113740D01*
X426011Y115347D01*
X427147Y117317D01*
X427736Y119513D01*
Y121787D01*
X427147Y123983D01*
X426011Y125953D01*
X424403Y127561D01*
X422433Y128698D01*
X420237Y129286D01*
X417963D01*
X415767Y128698D01*
X413797Y127561D01*
X412189Y125953D01*
X411053Y123983D01*
X410703Y122679D01*
X410580Y122507D01*
X410356Y121539D01*
X410123Y120665D01*
X409600Y119070D01*
X409326Y118395D01*
X409036Y117777D01*
X408737Y117227D01*
X408429Y116745D01*
X408115Y116330D01*
X407762Y115940D01*
X407742Y115885D01*
X392221Y100364D01*
X392173Y100348D01*
X392158Y100318D01*
X392127Y100307D01*
X389990Y98268D01*
X388892Y97341D01*
X388495Y97044D01*
X388347Y97067D01*
X387472Y97471D01*
X387234Y97738D01*
X387225Y97755D01*
Y98382D01*
X387231Y98449D01*
X387225Y98471D01*
Y98507D01*
X387236Y98533D01*
X387251Y99257D01*
X387247Y99268D01*
X387251Y99279D01*
X387225Y99344D01*
Y107317D01*
X389140Y109233D01*
X389196Y109253D01*
X389580Y109602D01*
X389991Y109914D01*
X390458Y110216D01*
X391654Y110835D01*
X392309Y111112D01*
X394817Y111934D01*
X395771Y112180D01*
X395945Y112311D01*
X397033Y112603D01*
X399003Y113740D01*
X400611Y115347D01*
X401748Y117317D01*
X402336Y119513D01*
Y121787D01*
X401748Y123983D01*
X400611Y125953D01*
X399003Y127561D01*
X397033Y128698D01*
X394837Y129286D01*
X392563D01*
X390367Y128698D01*
X388397Y127561D01*
X386790Y125953D01*
X385653Y123983D01*
X385448Y123221D01*
X384178Y123388D01*
Y132316D01*
X387277Y135415D01*
X387331Y135434D01*
X387759Y135818D01*
X388189Y136128D01*
X388669Y136405D01*
X389203Y136649D01*
X389793Y136859D01*
X390441Y137032D01*
X391131Y137165D01*
X392749Y137318D01*
X393639Y137331D01*
X393833Y137414D01*
X394837D01*
X397033Y138003D01*
X399003Y139139D01*
X400611Y140747D01*
X401748Y142717D01*
X402336Y144913D01*
Y147187D01*
X401748Y149383D01*
X400611Y151353D01*
X399003Y152961D01*
X397033Y154097D01*
X394837Y154686D01*
D02*
G37*
G36*
X249936Y120142D02*
X241808D01*
Y112014D01*
X242437D01*
X244633Y112603D01*
X246603Y113740D01*
X248211Y115347D01*
X249347Y117317D01*
X249936Y119513D01*
Y120142D01*
D02*
G37*
G36*
X240792D02*
X232664D01*
Y119513D01*
X233253Y117317D01*
X234389Y115347D01*
X235997Y113740D01*
X237967Y112603D01*
X240163Y112014D01*
X240792D01*
Y120142D01*
D02*
G37*
G36*
X194684Y96516D02*
X193716D01*
X193414Y96516D01*
X190708D01*
Y85500D01*
Y74484D01*
X193414D01*
X193716Y74484D01*
X194684D01*
X194986Y74484D01*
X197692D01*
Y85500D01*
Y96516D01*
X194986D01*
X194684Y96516D01*
D02*
G37*
G36*
X186684D02*
X185716D01*
X185414Y96516D01*
X182708D01*
Y85500D01*
Y74484D01*
X185414D01*
X185716Y74484D01*
X186684D01*
X186986Y74484D01*
X189692D01*
Y85500D01*
Y96516D01*
X186986D01*
X186684Y96516D01*
D02*
G37*
G36*
X178684D02*
X177716D01*
X177414Y96516D01*
X170684D01*
Y87464D01*
X170200Y86296D01*
Y84704D01*
X170684Y83536D01*
Y74484D01*
X177414D01*
X177716Y74484D01*
X178684D01*
X178986Y74484D01*
X181692D01*
Y85500D01*
Y96516D01*
X178986D01*
X178684Y96516D01*
D02*
G37*
G36*
X680200Y79970D02*
X678700D01*
X677315Y79396D01*
X676254Y78335D01*
X675680Y76950D01*
Y75450D01*
X676254Y74064D01*
X677315Y73004D01*
X678700Y72430D01*
X680200D01*
X681585Y73004D01*
X682646Y74064D01*
X683220Y75450D01*
Y76950D01*
X682646Y78335D01*
X681585Y79396D01*
X680200Y79970D01*
D02*
G37*
G36*
X616700D02*
X615200D01*
X613815Y79396D01*
X612754Y78335D01*
X612180Y76950D01*
Y75450D01*
X612754Y74064D01*
X613815Y73004D01*
X615200Y72430D01*
X616700D01*
X618086Y73004D01*
X619146Y74064D01*
X619720Y75450D01*
Y76950D01*
X619146Y78335D01*
X618086Y79396D01*
X616700Y79970D01*
D02*
G37*
G36*
X553200D02*
X551700D01*
X550314Y79396D01*
X549254Y78335D01*
X548680Y76950D01*
Y75450D01*
X549254Y74064D01*
X550314Y73004D01*
X551700Y72430D01*
X553200D01*
X554585Y73004D01*
X555646Y74064D01*
X556220Y75450D01*
Y76950D01*
X555646Y78335D01*
X554585Y79396D01*
X553200Y79970D01*
D02*
G37*
G36*
X108700D02*
X107200D01*
X105815Y79396D01*
X104754Y78335D01*
X104180Y76950D01*
Y75450D01*
X104754Y74064D01*
X105815Y73004D01*
X107200Y72430D01*
X108700D01*
X110085Y73004D01*
X111146Y74064D01*
X111720Y75450D01*
Y76950D01*
X111146Y78335D01*
X110085Y79396D01*
X108700Y79970D01*
D02*
G37*
G36*
X45200D02*
X43700D01*
X42315Y79396D01*
X41254Y78335D01*
X40680Y76950D01*
Y75450D01*
X41254Y74064D01*
X42315Y73004D01*
X43700Y72430D01*
X45200D01*
X46585Y73004D01*
X47646Y74064D01*
X48220Y75450D01*
Y76950D01*
X47646Y78335D01*
X46585Y79396D01*
X45200Y79970D01*
D02*
G37*
G36*
X598054Y90250D02*
X594947D01*
X591945Y89446D01*
X589255Y87892D01*
X587058Y85695D01*
X585504Y83005D01*
X584700Y80003D01*
Y76897D01*
X585504Y73895D01*
X587058Y71205D01*
X589255Y69008D01*
X591945Y67454D01*
X594947Y66650D01*
X598054D01*
X601055Y67454D01*
X603745Y69008D01*
X605942Y71205D01*
X607496Y73895D01*
X608300Y76897D01*
Y80003D01*
X607496Y83005D01*
X605942Y85695D01*
X603745Y87892D01*
X601055Y89446D01*
X598054Y90250D01*
D02*
G37*
G36*
X126653D02*
X123546D01*
X120545Y89446D01*
X117855Y87892D01*
X115658Y85695D01*
X114104Y83005D01*
X113300Y80003D01*
Y76897D01*
X114104Y73895D01*
X115658Y71205D01*
X117855Y69008D01*
X120545Y67454D01*
X123546Y66650D01*
X126653D01*
X129655Y67454D01*
X132345Y69008D01*
X134542Y71205D01*
X136096Y73895D01*
X136900Y76897D01*
Y80003D01*
X136096Y83005D01*
X134542Y85695D01*
X132345Y87892D01*
X129655Y89446D01*
X126653Y90250D01*
D02*
G37*
G36*
X482684Y52516D02*
X481716D01*
X481414Y52516D01*
X478708D01*
Y41500D01*
Y30484D01*
X481414D01*
X481716Y30484D01*
X482684D01*
X482986Y30484D01*
X489716D01*
Y39536D01*
X490200Y40704D01*
Y42296D01*
X489716Y43464D01*
Y52516D01*
X482986D01*
X482684Y52516D01*
D02*
G37*
G36*
X474684D02*
X473716D01*
X473414Y52516D01*
X470708D01*
Y41500D01*
Y30484D01*
X473414D01*
X473716Y30484D01*
X474684D01*
X474986Y30484D01*
X477692D01*
Y41500D01*
Y52516D01*
X474986D01*
X474684Y52516D01*
D02*
G37*
G36*
X466684D02*
X465716D01*
X465414Y52516D01*
X462708D01*
Y41500D01*
Y30484D01*
X465414D01*
X465716Y30484D01*
X466684D01*
X466986Y30484D01*
X469692D01*
Y41500D01*
Y52516D01*
X466986D01*
X466684Y52516D01*
D02*
G37*
G36*
X377716Y52516D02*
Y52516D01*
X377414Y52516D01*
X370684D01*
Y52516D01*
X369716D01*
Y52516D01*
X362986D01*
X362684Y52516D01*
Y52516D01*
X361716D01*
Y52516D01*
X354986D01*
X354684Y52516D01*
X353716D01*
X353414Y52516D01*
X346986D01*
X346684Y52516D01*
X345716D01*
X345414Y52516D01*
X338986D01*
X338684Y52516D01*
X337716D01*
X337414Y52516D01*
X330986D01*
X330684Y52516D01*
X329716D01*
X329414Y52516D01*
X322986D01*
X322684Y52516D01*
X321716D01*
X321414Y52516D01*
X318708D01*
Y41500D01*
Y30484D01*
X321414D01*
X321716Y30484D01*
X322684D01*
X322986Y30484D01*
X329258D01*
X329832Y29262D01*
X323911Y23342D01*
X323857Y23322D01*
X323430Y22939D01*
X323000Y22629D01*
X322520Y22351D01*
X321985Y22107D01*
X321395Y21897D01*
X320746Y21722D01*
X320056Y21589D01*
X318437Y21433D01*
X317546Y21419D01*
X317353Y21336D01*
X316363D01*
X314167Y20747D01*
X312197Y19611D01*
X310590Y18003D01*
X309452Y16033D01*
X308864Y13837D01*
Y11563D01*
X309452Y9367D01*
X310590Y7397D01*
X312197Y5789D01*
X314167Y4652D01*
X316363Y4064D01*
X318637D01*
X320833Y4652D01*
X322803Y5789D01*
X324411Y7397D01*
X325547Y9367D01*
X326136Y11563D01*
Y12582D01*
X326219Y12775D01*
X326230Y13681D01*
X326284Y14502D01*
X326378Y15266D01*
X326513Y15972D01*
X326685Y16619D01*
X326894Y17208D01*
X327138Y17743D01*
X327415Y18223D01*
X327725Y18652D01*
X328109Y19080D01*
X328128Y19134D01*
X335866Y26872D01*
X336511Y27838D01*
X336710Y28837D01*
X336764Y28963D01*
X336770Y29426D01*
X336818Y30185D01*
X336853Y30444D01*
X336861Y30484D01*
X337716Y30484D01*
X339053D01*
X339060Y30445D01*
X339190Y28405D01*
X339195Y27712D01*
X339222Y27649D01*
Y24543D01*
X339197Y24490D01*
X339168Y23933D01*
X339087Y23410D01*
X338951Y22862D01*
X338755Y22288D01*
X338498Y21688D01*
X338177Y21064D01*
X337800Y20428D01*
X336821Y19043D01*
X336236Y18323D01*
X336204Y18217D01*
X335989Y18003D01*
X334852Y16033D01*
X334264Y13837D01*
Y11563D01*
X334852Y9367D01*
X335989Y7397D01*
X337597Y5789D01*
X338548Y5241D01*
X338208Y3971D01*
X331192D01*
X330053Y3744D01*
X329086Y3098D01*
X323923Y-2065D01*
X323869Y-2084D01*
X323441Y-2468D01*
X323012Y-2778D01*
X322531Y-3055D01*
X321997Y-3299D01*
X321407Y-3509D01*
X320759Y-3682D01*
X320069Y-3815D01*
X318451Y-3968D01*
X317561Y-3981D01*
X317367Y-4064D01*
X316363D01*
X314167Y-4652D01*
X312197Y-5789D01*
X310590Y-7397D01*
X309452Y-9367D01*
X308864Y-11563D01*
Y-13837D01*
X309452Y-16033D01*
X310590Y-18003D01*
X312197Y-19611D01*
X314167Y-20747D01*
X316363Y-21336D01*
X318637D01*
X320833Y-20747D01*
X322803Y-19611D01*
X324411Y-18003D01*
X325547Y-16033D01*
X326136Y-13837D01*
Y-12832D01*
X326219Y-12639D01*
X326232Y-11733D01*
X326287Y-10911D01*
X326382Y-10147D01*
X326518Y-9441D01*
X326691Y-8793D01*
X326901Y-8203D01*
X327145Y-7669D01*
X327422Y-7188D01*
X327732Y-6759D01*
X328116Y-6331D01*
X328135Y-6277D01*
X332426Y-1986D01*
X346100D01*
X347239Y-1759D01*
X348205Y-1113D01*
X358884Y9565D01*
X359835Y9427D01*
X360336Y9221D01*
X361390Y7397D01*
X362997Y5789D01*
X364967Y4652D01*
X367163Y4064D01*
X369437D01*
X371633Y4652D01*
X373603Y5789D01*
X375210Y7397D01*
X376348Y9367D01*
X376936Y11563D01*
Y13837D01*
X376348Y16033D01*
X376255Y16194D01*
X376255Y16268D01*
X375976Y16958D01*
X375792Y17566D01*
X375684Y18132D01*
X375646Y18658D01*
X375674Y19148D01*
X375765Y19609D01*
X375919Y20049D01*
X376138Y20477D01*
X376431Y20898D01*
X376842Y21358D01*
X376859Y21407D01*
X376904Y21434D01*
X376911Y21462D01*
X384174Y28725D01*
X384819Y29691D01*
X384977Y30484D01*
X385716Y30484D01*
X386684D01*
X386986Y30484D01*
X389504D01*
X389801Y30187D01*
Y24458D01*
X389776Y24405D01*
X389747Y23854D01*
X389669Y23332D01*
X389535Y22781D01*
X389342Y22199D01*
X389090Y21590D01*
X388776Y20952D01*
X388406Y20299D01*
X387448Y18872D01*
X386875Y18127D01*
X386861Y18074D01*
X386790Y18003D01*
X385653Y16033D01*
X385064Y13837D01*
Y11563D01*
X385653Y9367D01*
X386790Y7397D01*
X388397Y5789D01*
X390367Y4652D01*
X392563Y4064D01*
X394837D01*
X397033Y4652D01*
X399003Y5789D01*
X400611Y7397D01*
X401748Y9367D01*
X402336Y11563D01*
Y13837D01*
X401748Y16033D01*
X400611Y18003D01*
X399052Y19561D01*
X399031Y19599D01*
X398364Y20143D01*
X397798Y20667D01*
X397306Y21191D01*
X396888Y21714D01*
X396542Y22234D01*
X396264Y22751D01*
X396053Y23266D01*
X395904Y23781D01*
X395815Y24301D01*
X395782Y24890D01*
X395764Y24926D01*
X395775Y24966D01*
X395757Y24997D01*
Y30484D01*
X401414D01*
X401716Y30484D01*
X402684D01*
X402986Y30484D01*
X409414D01*
X409716Y30484D01*
X411053D01*
X411060Y30445D01*
X411190Y28405D01*
X411195Y27712D01*
X411222Y27649D01*
Y24172D01*
X411449Y23032D01*
X411893Y22367D01*
X411908Y22262D01*
X411998Y22195D01*
X412035Y22089D01*
X412447Y21630D01*
X412726Y21233D01*
X412916Y20858D01*
X413029Y20502D01*
X413077Y20155D01*
X413062Y19801D01*
X412981Y19423D01*
X412824Y19012D01*
X412579Y18565D01*
X412210Y18042D01*
X412209Y18038D01*
X412205Y18036D01*
X412200Y18014D01*
X412189Y18003D01*
X411053Y16033D01*
X410464Y13837D01*
Y11563D01*
X411053Y9367D01*
X412189Y7397D01*
X413797Y5789D01*
X415767Y4652D01*
X417963Y4064D01*
X420237D01*
X422433Y4652D01*
X424403Y5789D01*
X426011Y7397D01*
X427147Y9367D01*
X427736Y11563D01*
Y13837D01*
X427147Y16033D01*
X426011Y18003D01*
X424403Y19611D01*
X423811Y19952D01*
X423721Y20093D01*
X423715Y20094D01*
X423711Y20099D01*
X421790Y21408D01*
X421174Y21879D01*
X417713Y24919D01*
X417178Y25445D01*
Y27642D01*
X417205Y27702D01*
X417227Y29048D01*
X417291Y30058D01*
X417334Y30413D01*
X417347Y30484D01*
X418684D01*
X418986Y30484D01*
X425414D01*
X425716Y30484D01*
X426684D01*
X426986Y30484D01*
X428238D01*
X428267Y30468D01*
X428500Y30442D01*
X428573Y30415D01*
X428639Y30371D01*
X428725Y30277D01*
X428833Y30099D01*
X428946Y29822D01*
X429047Y29441D01*
X429127Y28961D01*
X429178Y28385D01*
X429196Y27692D01*
X429222Y27633D01*
Y5950D01*
X429449Y4810D01*
X430094Y3844D01*
X438604Y-4666D01*
X439197Y-5789D01*
X437589Y-7397D01*
X436452Y-9367D01*
X435864Y-11563D01*
Y-13837D01*
X436452Y-16033D01*
X437589Y-18003D01*
X439197Y-19611D01*
X441167Y-20747D01*
X443363Y-21336D01*
X445637D01*
X447833Y-20747D01*
X449803Y-19611D01*
X451410Y-18003D01*
X452547Y-16033D01*
X453136Y-13837D01*
Y-11563D01*
X452547Y-9367D01*
X451410Y-7397D01*
X449803Y-5789D01*
X447833Y-4652D01*
X445637Y-4064D01*
X445271D01*
X445065Y-3023D01*
X444419Y-2057D01*
X435178Y7184D01*
Y9215D01*
X436448Y9383D01*
X436452Y9367D01*
X437589Y7397D01*
X439197Y5789D01*
X441167Y4652D01*
X443363Y4064D01*
X445637D01*
X447833Y4652D01*
X449803Y5789D01*
X451410Y7397D01*
X452547Y9367D01*
X453136Y11563D01*
Y13837D01*
X452547Y16033D01*
X451410Y18003D01*
X449803Y19611D01*
X447833Y20747D01*
X445637Y21336D01*
X443363D01*
X441167Y20747D01*
X439197Y19611D01*
X437589Y18003D01*
X436452Y16033D01*
X436448Y16017D01*
X435178Y16185D01*
Y27657D01*
X435205Y27720D01*
X435200Y27731D01*
X435205Y27742D01*
X435190Y28466D01*
X435179Y28491D01*
X435188Y28517D01*
X435178Y28664D01*
Y30484D01*
X441414D01*
X441716Y30484D01*
X442684D01*
X442986Y30484D01*
X443745D01*
X443789Y29817D01*
X443790Y29450D01*
X443842Y29326D01*
X444044Y28315D01*
X444689Y27349D01*
X455311Y16727D01*
Y-1090D01*
X455538Y-2229D01*
X456184Y-3196D01*
X459265Y-6277D01*
X459284Y-6331D01*
X459668Y-6759D01*
X459978Y-7189D01*
X460255Y-7669D01*
X460499Y-8203D01*
X460709Y-8793D01*
X460882Y-9441D01*
X461015Y-10131D01*
X461168Y-11749D01*
X461181Y-12639D01*
X461264Y-12832D01*
Y-13837D01*
X461852Y-16033D01*
X462990Y-18003D01*
X464597Y-19611D01*
X466567Y-20747D01*
X468763Y-21336D01*
X471037D01*
X473233Y-20747D01*
X475203Y-19611D01*
X476810Y-18003D01*
X477948Y-16033D01*
X478536Y-13837D01*
Y-11563D01*
X477948Y-9367D01*
X476810Y-7397D01*
X475203Y-5789D01*
X473233Y-4652D01*
X471037Y-4064D01*
X470033D01*
X469839Y-3981D01*
X468933Y-3968D01*
X468111Y-3914D01*
X467347Y-3818D01*
X466641Y-3682D01*
X465993Y-3509D01*
X465403Y-3299D01*
X464869Y-3055D01*
X464388Y-2778D01*
X463959Y-2468D01*
X463531Y-2084D01*
X463477Y-2065D01*
X461268Y144D01*
Y7839D01*
X462538Y8180D01*
X462990Y7397D01*
X464597Y5789D01*
X466567Y4652D01*
X468763Y4064D01*
X471037D01*
X473233Y4652D01*
X475203Y5789D01*
X476810Y7397D01*
X477948Y9367D01*
X478536Y11563D01*
Y13837D01*
X477948Y16033D01*
X476810Y18003D01*
X475203Y19611D01*
X473233Y20747D01*
X471037Y21336D01*
X468763D01*
X466567Y20747D01*
X464597Y19611D01*
X462990Y18003D01*
X462538Y17220D01*
X461268Y17561D01*
Y17960D01*
X461041Y19100D01*
X460396Y20066D01*
X451248Y29214D01*
X451774Y30484D01*
X457414D01*
X457716Y30484D01*
X458684D01*
X458986Y30484D01*
X461692D01*
Y41500D01*
Y52516D01*
X458986D01*
X458684Y52516D01*
X457716D01*
X457414Y52516D01*
X450986D01*
X450684Y52516D01*
X449716D01*
X449414Y52516D01*
X442986D01*
X442684Y52516D01*
X441716D01*
X441414Y52516D01*
X434986D01*
X434684Y52516D01*
Y52516D01*
X433716D01*
Y52516D01*
X426986D01*
X426684Y52516D01*
X425716D01*
X425414Y52516D01*
X418986D01*
X418684Y52516D01*
X417716D01*
X417414Y52516D01*
X410986D01*
X410684Y52516D01*
X409716D01*
X409414Y52516D01*
X402986D01*
X402684Y52516D01*
X401716D01*
X401414Y52516D01*
X394986D01*
X394684Y52516D01*
Y52516D01*
X393716D01*
Y52516D01*
X386986D01*
X386684Y52516D01*
X385716D01*
X385414Y52516D01*
X378684D01*
X378684Y52516D01*
X377716D01*
D02*
G37*
G36*
X314684Y52516D02*
X313716D01*
X313414Y52516D01*
X310708D01*
Y41500D01*
Y30484D01*
X313414D01*
X313716Y30484D01*
X314684D01*
X314986Y30484D01*
X317692D01*
Y41500D01*
Y52516D01*
X314986D01*
X314684Y52516D01*
D02*
G37*
G36*
X190996Y61200D02*
X189404D01*
X187934Y60591D01*
X186809Y59466D01*
X186200Y57996D01*
Y56404D01*
X186809Y54934D01*
X187934Y53809D01*
X187990Y53786D01*
X187737Y52516D01*
X185716Y52516D01*
X185414Y52516D01*
X178684D01*
Y52516D01*
X177716D01*
Y52516D01*
X170684D01*
Y43464D01*
X170200Y42296D01*
Y40704D01*
X170684Y39536D01*
Y30484D01*
X177716D01*
Y30484D01*
X178684D01*
Y30484D01*
X185414D01*
X185716Y30484D01*
X186684D01*
X186986Y30484D01*
X193414D01*
X193716Y30484D01*
X194684D01*
X194986Y30484D01*
X201716D01*
Y30484D01*
X202684D01*
Y30484D01*
X208626D01*
X209152Y29214D01*
X203218Y23280D01*
X201194D01*
X200054Y23053D01*
X199088Y22407D01*
X198638Y21957D01*
X198585Y21939D01*
X198132Y21535D01*
X197707Y21238D01*
X197259Y21003D01*
X196784Y20826D01*
X196276Y20706D01*
X195728Y20643D01*
X195136Y20641D01*
X194499Y20702D01*
X193815Y20830D01*
X193048Y21038D01*
X192845Y21012D01*
X191637Y21336D01*
X189363D01*
X187167Y20747D01*
X185197Y19611D01*
X183589Y18003D01*
X182453Y16033D01*
X181864Y13837D01*
Y11563D01*
X182453Y9367D01*
X183589Y7397D01*
X185197Y5789D01*
X187167Y4652D01*
X189363Y4064D01*
X191637D01*
X193833Y4652D01*
X195803Y5789D01*
X197411Y7397D01*
X198547Y9367D01*
X198746Y10108D01*
X198869Y10254D01*
X199470Y12153D01*
X199767Y12965D01*
X200396Y14434D01*
X200705Y15043D01*
X201021Y15591D01*
X201336Y16068D01*
X201646Y16472D01*
X201985Y16844D01*
X202005Y16900D01*
X202428Y17323D01*
X204451D01*
X205591Y17550D01*
X206557Y18195D01*
X216174Y27812D01*
X216819Y28778D01*
X217046Y29918D01*
X217612Y30484D01*
X218684D01*
X218986Y30484D01*
X225414D01*
X225716Y30484D01*
X226684D01*
X226986Y30484D01*
X231895D01*
X232020Y29214D01*
X231515Y29114D01*
X230549Y28468D01*
X224038Y21957D01*
X223985Y21939D01*
X223532Y21535D01*
X223106Y21238D01*
X222659Y21003D01*
X222184Y20826D01*
X221676Y20706D01*
X221128Y20643D01*
X220536Y20641D01*
X219899Y20702D01*
X219215Y20830D01*
X218448Y21038D01*
X218245Y21012D01*
X217037Y21336D01*
X214763D01*
X212567Y20747D01*
X210597Y19611D01*
X208990Y18003D01*
X207852Y16033D01*
X207264Y13837D01*
Y11563D01*
X207852Y9367D01*
X208990Y7397D01*
X210597Y5789D01*
X212567Y4652D01*
X214763Y4064D01*
X217037D01*
X219233Y4652D01*
X221203Y5789D01*
X222810Y7397D01*
X223948Y9367D01*
X224146Y10108D01*
X224269Y10254D01*
X224870Y12153D01*
X225167Y12965D01*
X225796Y14434D01*
X226105Y15043D01*
X226421Y15591D01*
X226735Y16068D01*
X227046Y16472D01*
X227385Y16844D01*
X227405Y16900D01*
X233889Y23384D01*
X235912D01*
X237052Y23610D01*
X238018Y24256D01*
X240250Y26488D01*
X240895Y27454D01*
X241094Y28455D01*
X241148Y28582D01*
X241154Y29116D01*
X241201Y30000D01*
X241237Y30317D01*
X241266Y30484D01*
X243053D01*
X243060Y30445D01*
X243190Y28405D01*
X243195Y27712D01*
X243222Y27649D01*
Y25445D01*
X242679Y24912D01*
X240576Y22988D01*
X239251Y21899D01*
X237327Y20507D01*
X236716Y20118D01*
X236702Y20098D01*
X236679Y20093D01*
X236589Y19952D01*
X235997Y19611D01*
X234389Y18003D01*
X233253Y16033D01*
X232664Y13837D01*
Y11563D01*
X233253Y9367D01*
X234389Y7397D01*
X235997Y5789D01*
X237967Y4652D01*
X240163Y4064D01*
X242437D01*
X244633Y4652D01*
X246603Y5789D01*
X248211Y7397D01*
X249347Y9367D01*
X249936Y11563D01*
Y13837D01*
X249347Y16033D01*
X248211Y18003D01*
X248200Y18014D01*
X248195Y18036D01*
X248191Y18038D01*
X248190Y18042D01*
X247821Y18565D01*
X247576Y19012D01*
X247419Y19423D01*
X247338Y19801D01*
X247323Y20155D01*
X247371Y20502D01*
X247484Y20857D01*
X247674Y21233D01*
X247953Y21630D01*
X248365Y22089D01*
X248402Y22195D01*
X248492Y22262D01*
X248507Y22367D01*
X248951Y23032D01*
X249178Y24172D01*
Y27642D01*
X249205Y27702D01*
X249227Y29048D01*
X249291Y30058D01*
X249334Y30413D01*
X249347Y30484D01*
X250684D01*
X250986Y30484D01*
X257414D01*
X257716Y30484D01*
X259053D01*
X259060Y30445D01*
X259190Y28405D01*
X259195Y27712D01*
X259222Y27649D01*
Y25434D01*
X252094Y18306D01*
X251448Y17340D01*
X251222Y16200D01*
Y1434D01*
X247723Y-2065D01*
X247669Y-2084D01*
X247241Y-2468D01*
X246812Y-2778D01*
X246331Y-3055D01*
X245797Y-3299D01*
X245207Y-3509D01*
X244559Y-3682D01*
X243869Y-3815D01*
X242251Y-3968D01*
X241361Y-3981D01*
X241168Y-4064D01*
X240163D01*
X237967Y-4652D01*
X235997Y-5789D01*
X234389Y-7397D01*
X233253Y-9367D01*
X232664Y-11563D01*
Y-13837D01*
X233253Y-16033D01*
X234389Y-18003D01*
X235997Y-19611D01*
X237967Y-20747D01*
X240163Y-21336D01*
X242437D01*
X244633Y-20747D01*
X246603Y-19611D01*
X248211Y-18003D01*
X249347Y-16033D01*
X249936Y-13837D01*
Y-12832D01*
X250019Y-12639D01*
X250032Y-11733D01*
X250086Y-10911D01*
X250182Y-10147D01*
X250318Y-9441D01*
X250491Y-8793D01*
X250701Y-8203D01*
X250945Y-7669D01*
X251222Y-7188D01*
X251532Y-6759D01*
X251916Y-6331D01*
X251935Y-6277D01*
X256306Y-1906D01*
X256952Y-940D01*
X257178Y200D01*
Y9962D01*
X258448Y10129D01*
X258652Y9367D01*
X259790Y7397D01*
X261397Y5789D01*
X263367Y4652D01*
X265563Y4064D01*
X267837D01*
X270033Y4652D01*
X272003Y5789D01*
X273610Y7397D01*
X274748Y9367D01*
X275152Y10876D01*
X276422Y10708D01*
Y0D01*
X276649Y-1140D01*
X277294Y-2106D01*
X281465Y-6277D01*
X281484Y-6331D01*
X281868Y-6759D01*
X282178Y-7189D01*
X282455Y-7669D01*
X282699Y-8203D01*
X282909Y-8793D01*
X283082Y-9441D01*
X283215Y-10131D01*
X283368Y-11749D01*
X283381Y-12639D01*
X283464Y-12832D01*
Y-13837D01*
X284053Y-16033D01*
X285189Y-18003D01*
X286797Y-19611D01*
X288767Y-20747D01*
X290963Y-21336D01*
X293237D01*
X295433Y-20747D01*
X297403Y-19611D01*
X299011Y-18003D01*
X300147Y-16033D01*
X300736Y-13837D01*
Y-11563D01*
X300147Y-9367D01*
X299011Y-7397D01*
X297403Y-5789D01*
X295433Y-4652D01*
X293237Y-4064D01*
X292232D01*
X292039Y-3981D01*
X291133Y-3968D01*
X290311Y-3914D01*
X289547Y-3818D01*
X288841Y-3682D01*
X288193Y-3509D01*
X287603Y-3299D01*
X287069Y-3055D01*
X286588Y-2778D01*
X286159Y-2468D01*
X285731Y-2084D01*
X285677Y-2065D01*
X282378Y1234D01*
Y10708D01*
X283648Y10876D01*
X284053Y9367D01*
X285189Y7397D01*
X286797Y5789D01*
X288767Y4652D01*
X290963Y4064D01*
X293237D01*
X295433Y4652D01*
X297403Y5789D01*
X299011Y7397D01*
X300147Y9367D01*
X300736Y11563D01*
Y13837D01*
X300147Y16033D01*
X299011Y18003D01*
X297403Y19611D01*
X295433Y20747D01*
X293237Y21336D01*
X290963D01*
X288767Y20747D01*
X286797Y19611D01*
X285189Y18003D01*
X284053Y16033D01*
X283648Y14525D01*
X282378Y14692D01*
Y17816D01*
X288306Y23744D01*
X288951Y24710D01*
X289178Y25850D01*
Y27642D01*
X289205Y27702D01*
X289227Y29048D01*
X289291Y30058D01*
X289334Y30413D01*
X289347Y30484D01*
X290684D01*
X290986Y30484D01*
X297414D01*
X297716Y30484D01*
X298684D01*
X298986Y30484D01*
X305414D01*
X305716Y30484D01*
X306684D01*
X306986Y30484D01*
X309692D01*
Y41500D01*
Y52516D01*
X306986D01*
X306684Y52516D01*
X305716D01*
X305414Y52516D01*
X298986D01*
X298684Y52516D01*
X297716D01*
X297414Y52516D01*
X290986D01*
X290684Y52516D01*
X289716D01*
X289414Y52516D01*
X282986D01*
X282684Y52516D01*
X281716D01*
X281414Y52516D01*
X274986D01*
X274684Y52516D01*
X273716D01*
X273414Y52516D01*
X266986D01*
X266684Y52516D01*
Y52516D01*
X265716D01*
Y52516D01*
X258986D01*
X258684Y52516D01*
X257716D01*
X257414Y52516D01*
X250986D01*
X250684Y52516D01*
X249716D01*
X249414Y52516D01*
X242986D01*
X242684Y52516D01*
X241716D01*
X241414Y52516D01*
X234986D01*
X234684Y52516D01*
X233716D01*
X233414Y52516D01*
X226986D01*
X226684Y52516D01*
X225716D01*
X225414Y52516D01*
X218986D01*
X218684Y52516D01*
X217716D01*
X217414Y52516D01*
X210986D01*
X210684Y52516D01*
X209716D01*
X209414Y52516D01*
X202684D01*
Y52516D01*
X201716D01*
Y52516D01*
X194986D01*
X194684Y52516D01*
X193716D01*
X193414Y52516D01*
X192663D01*
X192410Y53786D01*
X192466Y53809D01*
X193591Y54934D01*
X194200Y56404D01*
Y57996D01*
X193591Y59466D01*
X192466Y60591D01*
X190996Y61200D01*
D02*
G37*
G36*
X126516Y56666D02*
X114808D01*
Y44958D01*
X126516D01*
Y56666D01*
D02*
G37*
G36*
X113792D02*
X102084D01*
Y44958D01*
X113792D01*
Y56666D01*
D02*
G37*
G36*
X597916D02*
X573484D01*
Y32234D01*
X597916D01*
Y56666D01*
D02*
G37*
G36*
X547708D02*
X544492D01*
X541385Y55834D01*
X538599Y54225D01*
X536325Y51951D01*
X534716Y49165D01*
X533884Y46058D01*
Y42842D01*
X534716Y39735D01*
X536325Y36949D01*
X538599Y34675D01*
X541385Y33066D01*
X544492Y32234D01*
X547708D01*
X550815Y33066D01*
X553601Y34675D01*
X555875Y36949D01*
X557483Y39735D01*
X558316Y42842D01*
Y46058D01*
X557483Y49165D01*
X555875Y51951D01*
X553601Y54225D01*
X550815Y55834D01*
X547708Y56666D01*
D02*
G37*
G36*
X126516Y43942D02*
X114808D01*
Y32234D01*
X126516D01*
Y43942D01*
D02*
G37*
G36*
X113792D02*
X102084D01*
Y32234D01*
X113792D01*
Y43942D01*
D02*
G37*
G36*
X76308Y56666D02*
X73092D01*
X69985Y55834D01*
X67199Y54225D01*
X64925Y51951D01*
X63316Y49165D01*
X62484Y46058D01*
Y42842D01*
X63316Y39735D01*
X64925Y36949D01*
X67199Y34675D01*
X69985Y33066D01*
X73092Y32234D01*
X76308D01*
X79415Y33066D01*
X82201Y34675D01*
X84475Y36949D01*
X86083Y39735D01*
X86916Y42842D01*
Y46058D01*
X86083Y49165D01*
X84475Y51951D01*
X82201Y54225D01*
X79415Y55834D01*
X76308Y56666D01*
D02*
G37*
G36*
X584950Y16470D02*
X583450D01*
X582065Y15896D01*
X581004Y14835D01*
X580430Y13450D01*
Y11950D01*
X581004Y10565D01*
X582065Y9504D01*
X583450Y8930D01*
X584950D01*
X586335Y9504D01*
X587396Y10565D01*
X587970Y11950D01*
Y13450D01*
X587396Y14835D01*
X586335Y15896D01*
X584950Y16470D01*
D02*
G37*
G36*
X521450D02*
X519950D01*
X518564Y15896D01*
X517504Y14835D01*
X516930Y13450D01*
Y11950D01*
X517504Y10565D01*
X518564Y9504D01*
X519950Y8930D01*
X521450D01*
X522836Y9504D01*
X523896Y10565D01*
X524470Y11950D01*
Y13450D01*
X523896Y14835D01*
X522836Y15896D01*
X521450Y16470D01*
D02*
G37*
G36*
X140450D02*
X138950D01*
X137564Y15896D01*
X136504Y14835D01*
X135930Y13450D01*
Y11950D01*
X136504Y10565D01*
X137564Y9504D01*
X138950Y8930D01*
X140450D01*
X141835Y9504D01*
X142896Y10565D01*
X143470Y11950D01*
Y13450D01*
X142896Y14835D01*
X141835Y15896D01*
X140450Y16470D01*
D02*
G37*
G36*
X76950D02*
X75450D01*
X74064Y15896D01*
X73004Y14835D01*
X72430Y13450D01*
Y11950D01*
X73004Y10565D01*
X74064Y9504D01*
X75450Y8930D01*
X76950D01*
X78335Y9504D01*
X79396Y10565D01*
X79970Y11950D01*
Y13450D01*
X79396Y14835D01*
X78335Y15896D01*
X76950Y16470D01*
D02*
G37*
G36*
X662479Y45466D02*
X658321D01*
X654214Y44816D01*
X650260Y43531D01*
X646555Y41643D01*
X643191Y39199D01*
X640251Y36259D01*
X637807Y32895D01*
X635919Y29190D01*
X634634Y25236D01*
X633984Y21129D01*
Y16971D01*
X634634Y12864D01*
X635919Y8910D01*
X637807Y5205D01*
X640251Y1841D01*
X643191Y-1099D01*
X646555Y-3543D01*
X650260Y-5431D01*
X654214Y-6716D01*
X658321Y-7366D01*
X662479D01*
X666586Y-6716D01*
X670540Y-5431D01*
X674245Y-3543D01*
X677609Y-1099D01*
X680549Y1841D01*
X682993Y5205D01*
X684881Y8910D01*
X686166Y12864D01*
X686816Y16971D01*
Y21129D01*
X686166Y25236D01*
X684881Y29190D01*
X682993Y32895D01*
X680549Y36259D01*
X677609Y39199D01*
X674245Y41643D01*
X670540Y43531D01*
X666586Y44816D01*
X662479Y45466D01*
D02*
G37*
G36*
X2079D02*
X-2079D01*
X-6186Y44816D01*
X-10140Y43531D01*
X-13845Y41643D01*
X-17209Y39199D01*
X-20149Y36259D01*
X-22593Y32895D01*
X-24481Y29190D01*
X-25766Y25236D01*
X-26416Y21129D01*
Y16971D01*
X-25766Y12864D01*
X-24481Y8910D01*
X-22593Y5205D01*
X-20149Y1841D01*
X-17209Y-1099D01*
X-13845Y-3543D01*
X-10140Y-5431D01*
X-6186Y-6716D01*
X-2079Y-7366D01*
X2079D01*
X6186Y-6716D01*
X10140Y-5431D01*
X13845Y-3543D01*
X17209Y-1099D01*
X20149Y1841D01*
X22593Y5205D01*
X24481Y8910D01*
X25766Y12864D01*
X26416Y16971D01*
Y21129D01*
X25766Y25236D01*
X24481Y29190D01*
X22593Y32895D01*
X20149Y36259D01*
X17209Y39199D01*
X13845Y41643D01*
X10140Y43531D01*
X6186Y44816D01*
X2079Y45466D01*
D02*
G37*
G36*
X267837Y-4064D02*
X267208D01*
Y-12192D01*
X275336D01*
Y-11563D01*
X274748Y-9367D01*
X273610Y-7397D01*
X272003Y-5789D01*
X270033Y-4652D01*
X267837Y-4064D01*
D02*
G37*
G36*
X266192D02*
X265563D01*
X263367Y-4652D01*
X261397Y-5789D01*
X259790Y-7397D01*
X258652Y-9367D01*
X258064Y-11563D01*
Y-12192D01*
X266192D01*
Y-4064D01*
D02*
G37*
G36*
X420237D02*
X417963D01*
X415767Y-4652D01*
X413797Y-5789D01*
X412189Y-7397D01*
X411053Y-9367D01*
X410464Y-11563D01*
Y-13837D01*
X411053Y-16033D01*
X412189Y-18003D01*
X413797Y-19611D01*
X415767Y-20747D01*
X417963Y-21336D01*
X420237D01*
X422433Y-20747D01*
X424403Y-19611D01*
X426011Y-18003D01*
X427147Y-16033D01*
X427736Y-13837D01*
Y-11563D01*
X427147Y-9367D01*
X426011Y-7397D01*
X424403Y-5789D01*
X422433Y-4652D01*
X420237Y-4064D01*
D02*
G37*
G36*
X394837D02*
X392563D01*
X390367Y-4652D01*
X388397Y-5789D01*
X386790Y-7397D01*
X385653Y-9367D01*
X385064Y-11563D01*
Y-13837D01*
X385653Y-16033D01*
X386790Y-18003D01*
X388397Y-19611D01*
X390367Y-20747D01*
X392563Y-21336D01*
X394837D01*
X397033Y-20747D01*
X399003Y-19611D01*
X400611Y-18003D01*
X401748Y-16033D01*
X402336Y-13837D01*
Y-11563D01*
X401748Y-9367D01*
X400611Y-7397D01*
X399003Y-5789D01*
X397033Y-4652D01*
X394837Y-4064D01*
D02*
G37*
G36*
X369437D02*
X367163D01*
X364967Y-4652D01*
X362997Y-5789D01*
X361390Y-7397D01*
X360252Y-9367D01*
X359664Y-11563D01*
Y-13837D01*
X360252Y-16033D01*
X361390Y-18003D01*
X362997Y-19611D01*
X364967Y-20747D01*
X367163Y-21336D01*
X369437D01*
X371633Y-20747D01*
X373603Y-19611D01*
X375210Y-18003D01*
X376348Y-16033D01*
X376936Y-13837D01*
Y-11563D01*
X376348Y-9367D01*
X375210Y-7397D01*
X373603Y-5789D01*
X371633Y-4652D01*
X369437Y-4064D01*
D02*
G37*
G36*
X344037D02*
X341763D01*
X339567Y-4652D01*
X337597Y-5789D01*
X335989Y-7397D01*
X334852Y-9367D01*
X334264Y-11563D01*
Y-13837D01*
X334852Y-16033D01*
X335989Y-18003D01*
X337597Y-19611D01*
X339567Y-20747D01*
X341763Y-21336D01*
X344037D01*
X346233Y-20747D01*
X348203Y-19611D01*
X349810Y-18003D01*
X350947Y-16033D01*
X351536Y-13837D01*
Y-11563D01*
X350947Y-9367D01*
X349810Y-7397D01*
X348203Y-5789D01*
X346233Y-4652D01*
X344037Y-4064D01*
D02*
G37*
G36*
X275336Y-13208D02*
X267208D01*
Y-21336D01*
X267837D01*
X270033Y-20747D01*
X272003Y-19611D01*
X273610Y-18003D01*
X274748Y-16033D01*
X275336Y-13837D01*
Y-13208D01*
D02*
G37*
G36*
X266192D02*
X258064D01*
Y-13837D01*
X258652Y-16033D01*
X259790Y-18003D01*
X261397Y-19611D01*
X263367Y-20747D01*
X265563Y-21336D01*
X266192D01*
Y-13208D01*
D02*
G37*
G36*
X217037Y-4064D02*
X214763D01*
X212567Y-4652D01*
X210597Y-5789D01*
X208990Y-7397D01*
X207852Y-9367D01*
X207264Y-11563D01*
Y-13837D01*
X207852Y-16033D01*
X208990Y-18003D01*
X210597Y-19611D01*
X212567Y-20747D01*
X214763Y-21336D01*
X217037D01*
X219233Y-20747D01*
X221203Y-19611D01*
X222810Y-18003D01*
X223948Y-16033D01*
X224536Y-13837D01*
Y-11563D01*
X223948Y-9367D01*
X222810Y-7397D01*
X221203Y-5789D01*
X219233Y-4652D01*
X217037Y-4064D01*
D02*
G37*
G36*
X191637D02*
X189363D01*
X187167Y-4652D01*
X185197Y-5789D01*
X183589Y-7397D01*
X182453Y-9367D01*
X181864Y-11563D01*
Y-13837D01*
X182453Y-16033D01*
X183589Y-18003D01*
X185197Y-19611D01*
X187167Y-20747D01*
X189363Y-21336D01*
X191637D01*
X193833Y-20747D01*
X195803Y-19611D01*
X197411Y-18003D01*
X198547Y-16033D01*
X199136Y-13837D01*
Y-11563D01*
X198547Y-9367D01*
X197411Y-7397D01*
X195803Y-5789D01*
X193833Y-4652D01*
X191637Y-4064D01*
D02*
G37*
%LPD*%
G36*
X393624Y138430D02*
X392689Y138417D01*
X390975Y138255D01*
X390195Y138105D01*
X389467Y137910D01*
X388789Y137670D01*
X388164Y137384D01*
X387590Y137052D01*
X387068Y136675D01*
X386597Y136253D01*
X383903Y138947D01*
X384325Y139418D01*
X384702Y139940D01*
X385034Y140514D01*
X385320Y141139D01*
X385560Y141817D01*
X385755Y142545D01*
X385905Y143325D01*
X386009Y144156D01*
X386067Y145039D01*
X386080Y145974D01*
X393624Y138430D01*
D02*
G37*
G36*
X368224D02*
X367289Y138417D01*
X365575Y138255D01*
X364795Y138105D01*
X364067Y137910D01*
X363390Y137670D01*
X362764Y137384D01*
X362190Y137052D01*
X361668Y136675D01*
X361197Y136253D01*
X358503Y138947D01*
X358925Y139418D01*
X359302Y139940D01*
X359634Y140514D01*
X359920Y141140D01*
X360160Y141817D01*
X360355Y142545D01*
X360505Y143325D01*
X360609Y144156D01*
X360667Y145039D01*
X360680Y145974D01*
X368224Y138430D01*
D02*
G37*
G36*
X342824D02*
X341889Y138417D01*
X340175Y138255D01*
X339395Y138105D01*
X338666Y137910D01*
X337990Y137670D01*
X337364Y137384D01*
X336790Y137052D01*
X336268Y136675D01*
X335797Y136253D01*
X333103Y138947D01*
X333525Y139418D01*
X333902Y139940D01*
X334234Y140514D01*
X334520Y141139D01*
X334760Y141817D01*
X334955Y142545D01*
X335105Y143325D01*
X335209Y144156D01*
X335267Y145039D01*
X335280Y145974D01*
X342824Y138430D01*
D02*
G37*
G36*
X223533Y145039D02*
X223695Y143325D01*
X223845Y142545D01*
X224040Y141817D01*
X224280Y141139D01*
X224566Y140514D01*
X224898Y139940D01*
X225275Y139418D01*
X225697Y138947D01*
X223003Y136253D01*
X222532Y136675D01*
X222010Y137052D01*
X221436Y137384D01*
X220811Y137670D01*
X220133Y137910D01*
X219405Y138105D01*
X218625Y138255D01*
X217794Y138359D01*
X216911Y138417D01*
X215976Y138430D01*
X223520Y145974D01*
X223533Y145039D01*
D02*
G37*
G36*
X317424Y138430D02*
X316489Y138417D01*
X314775Y138255D01*
X313995Y138105D01*
X313267Y137910D01*
X312590Y137670D01*
X311964Y137384D01*
X311390Y137052D01*
X310868Y136675D01*
X310397Y136253D01*
X307703Y138947D01*
X308125Y139418D01*
X308502Y139940D01*
X308834Y140514D01*
X309120Y141139D01*
X309360Y141817D01*
X309555Y142545D01*
X309705Y143325D01*
X309809Y144156D01*
X309867Y145039D01*
X309880Y145974D01*
X317424Y138430D01*
D02*
G37*
G36*
X248933Y145039D02*
X249095Y143325D01*
X249245Y142545D01*
X249440Y141817D01*
X249680Y141139D01*
X249966Y140514D01*
X250298Y139940D01*
X250675Y139418D01*
X251097Y138947D01*
X248403Y136253D01*
X247932Y136675D01*
X247410Y137052D01*
X246836Y137384D01*
X246210Y137670D01*
X245534Y137910D01*
X244805Y138105D01*
X244025Y138255D01*
X243194Y138359D01*
X242311Y138417D01*
X241376Y138430D01*
X248920Y145974D01*
X248933Y145039D01*
D02*
G37*
G36*
X198133D02*
X198295Y143325D01*
X198445Y142545D01*
X198640Y141817D01*
X198880Y141139D01*
X199166Y140514D01*
X199498Y139940D01*
X199875Y139418D01*
X200297Y138947D01*
X197603Y136253D01*
X197132Y136675D01*
X196610Y137052D01*
X196036Y137384D01*
X195410Y137670D01*
X194734Y137910D01*
X194005Y138105D01*
X193225Y138255D01*
X192394Y138359D01*
X191511Y138417D01*
X190576Y138430D01*
X198120Y145974D01*
X198133Y145039D01*
D02*
G37*
G36*
X417342Y113236D02*
X416498Y113406D01*
X415692Y113509D01*
X414925Y113543D01*
X414196Y113509D01*
X413506Y113407D01*
X412855Y113237D01*
X412243Y112999D01*
X411669Y112692D01*
X411134Y112318D01*
X410638Y111875D01*
X408576Y115201D01*
X408963Y115628D01*
X409332Y116117D01*
X409684Y116667D01*
X410018Y117280D01*
X410334Y117955D01*
X410633Y118692D01*
X411178Y120351D01*
X411423Y121274D01*
X411652Y122259D01*
X417342Y113236D01*
D02*
G37*
G36*
X469824Y113030D02*
X468889Y113017D01*
X467175Y112855D01*
X466395Y112705D01*
X465667Y112510D01*
X464990Y112270D01*
X464364Y111984D01*
X463790Y111652D01*
X463268Y111275D01*
X462797Y110853D01*
X460103Y113547D01*
X460525Y114018D01*
X460902Y114540D01*
X461234Y115114D01*
X461520Y115739D01*
X461760Y116417D01*
X461955Y117145D01*
X462105Y117925D01*
X462209Y118756D01*
X462267Y119639D01*
X462280Y120574D01*
X469824Y113030D01*
D02*
G37*
G36*
X444424D02*
X443489Y113017D01*
X441775Y112855D01*
X440995Y112705D01*
X440266Y112510D01*
X439590Y112270D01*
X438964Y111984D01*
X438390Y111652D01*
X437868Y111275D01*
X437397Y110853D01*
X434703Y113547D01*
X435125Y114018D01*
X435502Y114540D01*
X435834Y115114D01*
X436120Y115739D01*
X436360Y116417D01*
X436555Y117145D01*
X436705Y117925D01*
X436809Y118756D01*
X436867Y119639D01*
X436880Y120574D01*
X444424Y113030D01*
D02*
G37*
G36*
X292024D02*
X291089Y113017D01*
X289375Y112855D01*
X288595Y112705D01*
X287866Y112510D01*
X287190Y112270D01*
X286564Y111984D01*
X285990Y111652D01*
X285468Y111275D01*
X284997Y110853D01*
X282303Y113547D01*
X282725Y114018D01*
X283102Y114540D01*
X283434Y115114D01*
X283720Y115740D01*
X283960Y116417D01*
X284155Y117145D01*
X284305Y117925D01*
X284409Y118756D01*
X284467Y119639D01*
X284480Y120574D01*
X292024Y113030D01*
D02*
G37*
G36*
X318113Y113055D02*
X317154Y112958D01*
X315402Y112659D01*
X314611Y112457D01*
X313875Y112221D01*
X313195Y111949D01*
X312571Y111643D01*
X312003Y111302D01*
X311491Y110927D01*
X311035Y110516D01*
X308088Y112957D01*
X308520Y113440D01*
X308897Y113970D01*
X309218Y114546D01*
X309484Y115169D01*
X309695Y115838D01*
X309850Y116554D01*
X309950Y117317D01*
X309995Y118126D01*
X309984Y118982D01*
X309918Y119885D01*
X318113Y113055D01*
D02*
G37*
G36*
X395497Y113245D02*
X394509Y112990D01*
X391923Y112142D01*
X391187Y111832D01*
X389905Y111168D01*
X389359Y110815D01*
X388876Y110448D01*
X388457Y110067D01*
X385055Y112053D01*
X385499Y112552D01*
X385874Y113087D01*
X386178Y113660D01*
X386411Y114270D01*
X386574Y114916D01*
X386667Y115600D01*
X386689Y116321D01*
X386640Y117079D01*
X386521Y117873D01*
X386332Y118706D01*
X395497Y113245D01*
D02*
G37*
G36*
X408670Y95470D02*
X404469D01*
X404549Y95493D01*
X404621Y95562D01*
X404684Y95679D01*
X404739Y95842D01*
X404785Y96051D01*
X404823Y96307D01*
X404873Y96958D01*
X404890Y97795D01*
X408700D01*
X408670Y95470D01*
D02*
G37*
G36*
X386137Y98556D02*
X386018Y97336D01*
X385914Y96841D01*
X385781Y96422D01*
X385618Y96079D01*
X385425Y95812D01*
X385203Y95622D01*
X384951Y95508D01*
X384669Y95470D01*
X380437D01*
X380798Y95508D01*
X381122Y95622D01*
X381408Y95812D01*
X381656Y96079D01*
X381865Y96422D01*
X382037Y96841D01*
X382170Y97336D01*
X382265Y97908D01*
X382323Y98556D01*
X382341Y99279D01*
X386152D01*
X386137Y98556D01*
D02*
G37*
G36*
X368241Y97787D02*
X368344Y96185D01*
X368392Y95927D01*
X368448Y95727D01*
X368513Y95584D01*
X368587Y95498D01*
X368670Y95470D01*
X363731D01*
X363863Y95498D01*
X363981Y95584D01*
X364085Y95727D01*
X364176Y95927D01*
X364252Y96185D01*
X364315Y96500D01*
X364364Y96872D01*
X364419Y97787D01*
X364426Y98331D01*
X368236D01*
X368241Y97787D01*
D02*
G37*
G36*
X358124Y98556D02*
X358181Y97908D01*
X358276Y97336D01*
X358410Y96841D01*
X358581Y96422D01*
X358791Y96079D01*
X359038Y95812D01*
X359324Y95622D01*
X359648Y95508D01*
X360010Y95470D01*
X355731D01*
X355458Y95508D01*
X355214Y95622D01*
X354998Y95812D01*
X354812Y96079D01*
X354654Y96422D01*
X354525Y96841D01*
X354424Y97336D01*
X354352Y97908D01*
X354309Y98556D01*
X354295Y99279D01*
X358105D01*
X358124Y98556D01*
D02*
G37*
G36*
X344111D02*
X344246Y96422D01*
X344308Y96079D01*
X344382Y95812D01*
X344466Y95622D01*
X344562Y95508D01*
X344669Y95470D01*
X339730D01*
X339838Y95508D01*
X339934Y95622D01*
X340018Y95812D01*
X340092Y96079D01*
X340154Y96422D01*
X340205Y96841D01*
X340272Y97908D01*
X340295Y99279D01*
X344105D01*
X344111Y98556D01*
D02*
G37*
G36*
X264669Y95470D02*
X260639D01*
X260686Y95491D01*
X260729Y95556D01*
X260767Y95664D01*
X260800Y95815D01*
X260827Y96009D01*
X260867Y96526D01*
X260890Y97626D01*
X264700D01*
X264669Y95470D01*
D02*
G37*
G36*
X240240Y97787D02*
X240345Y96185D01*
X240392Y95927D01*
X240448Y95727D01*
X240513Y95584D01*
X240587Y95498D01*
X240669Y95470D01*
X235730D01*
X235863Y95498D01*
X235981Y95584D01*
X236085Y95727D01*
X236176Y95927D01*
X236252Y96185D01*
X236315Y96500D01*
X236364Y96872D01*
X236419Y97787D01*
X236426Y98331D01*
X240236D01*
X240240Y97787D01*
D02*
G37*
G36*
X224111Y98556D02*
X224246Y96422D01*
X224308Y96079D01*
X224382Y95812D01*
X224466Y95622D01*
X224562Y95508D01*
X224669Y95470D01*
X219730D01*
X219838Y95508D01*
X219934Y95622D01*
X220018Y95812D01*
X220092Y96079D01*
X220154Y96422D01*
X220205Y96841D01*
X220272Y97908D01*
X220295Y99279D01*
X224105D01*
X224111Y98556D01*
D02*
G37*
G36*
X216111D02*
X216246Y96422D01*
X216308Y96079D01*
X216382Y95812D01*
X216466Y95622D01*
X216562Y95508D01*
X216670Y95470D01*
X211730D01*
X211838Y95508D01*
X211934Y95622D01*
X212018Y95812D01*
X212092Y96079D01*
X212154Y96422D01*
X212205Y96841D01*
X212272Y97908D01*
X212295Y99279D01*
X216105D01*
X216111Y98556D01*
D02*
G37*
G36*
X448670Y31530D02*
X448675Y31510D01*
X448680Y31448D01*
X448692Y31012D01*
X448700Y29455D01*
X444890D01*
X444888Y29855D01*
X444781Y31476D01*
X444752Y31540D01*
X444720Y31561D01*
X448670Y31530D01*
D02*
G37*
G36*
X336189Y31534D02*
X336079Y31456D01*
X335982Y31327D01*
X335898Y31146D01*
X335826Y30913D01*
X335768Y30629D01*
X335723Y30294D01*
X335671Y29468D01*
X335665Y28978D01*
X331855D01*
X331730Y31530D01*
X336312Y31561D01*
X336189Y31534D01*
D02*
G37*
G36*
X432669Y31530D02*
X432942Y31492D01*
X433186Y31378D01*
X433402Y31188D01*
X433588Y30921D01*
X433746Y30578D01*
X433875Y30159D01*
X433976Y29664D01*
X434048Y29092D01*
X434091Y28444D01*
X434105Y27720D01*
X430295D01*
X430276Y28448D01*
X430219Y29099D01*
X430123Y29673D01*
X429990Y30172D01*
X429819Y30594D01*
X429609Y30940D01*
X429361Y31210D01*
X429076Y31403D01*
X428752Y31520D01*
X428390Y31561D01*
X432669Y31530D01*
D02*
G37*
G36*
X416562Y31492D02*
X416466Y31378D01*
X416382Y31188D01*
X416308Y30921D01*
X416246Y30578D01*
X416195Y30159D01*
X416128Y29092D01*
X416105Y27720D01*
X412295D01*
X412289Y28444D01*
X412154Y30578D01*
X412092Y30921D01*
X412018Y31188D01*
X411934Y31378D01*
X411838Y31492D01*
X411730Y31530D01*
X416670D01*
X416562Y31492D01*
D02*
G37*
G36*
X360479D02*
X360308Y31378D01*
X360157Y31188D01*
X360026Y30921D01*
X359915Y30578D01*
X359825Y30159D01*
X359754Y29664D01*
X359704Y29092D01*
X359664Y27720D01*
X355854D01*
X355731Y31530D01*
X360670D01*
X360479Y31492D01*
D02*
G37*
G36*
X344562D02*
X344466Y31378D01*
X344382Y31188D01*
X344308Y30921D01*
X344246Y30578D01*
X344195Y30159D01*
X344128Y29092D01*
X344105Y27720D01*
X340295D01*
X340289Y28444D01*
X340154Y30578D01*
X340092Y30921D01*
X340018Y31188D01*
X339934Y31378D01*
X339838Y31492D01*
X339730Y31530D01*
X344669D01*
X344562Y31492D01*
D02*
G37*
G36*
X344141Y24149D02*
X344249Y23509D01*
X344430Y22874D01*
X344682Y22246D01*
X345007Y21624D01*
X345403Y21008D01*
X345872Y20399D01*
X346413Y19796D01*
X347026Y19199D01*
X347711Y18609D01*
X337089Y17629D01*
X337698Y18377D01*
X338724Y19829D01*
X339141Y20532D01*
X339493Y21220D01*
X339782Y21893D01*
X340006Y22551D01*
X340167Y23193D01*
X340263Y23821D01*
X340295Y24433D01*
X344105Y24796D01*
X344141Y24149D01*
D02*
G37*
G36*
X394720Y24177D02*
X394830Y23535D01*
X395013Y22903D01*
X395269Y22281D01*
X395597Y21668D01*
X395999Y21064D01*
X396474Y20471D01*
X397022Y19886D01*
X397643Y19312D01*
X398337Y18747D01*
X387747Y17457D01*
X388341Y18230D01*
X389342Y19721D01*
X389748Y20438D01*
X390092Y21136D01*
X390374Y21816D01*
X390593Y22477D01*
X390749Y23120D01*
X390843Y23743D01*
X390874Y24349D01*
X394684Y24828D01*
X394720Y24177D01*
D02*
G37*
G36*
X416964Y24114D02*
X420476Y21028D01*
X421146Y20516D01*
X423092Y19190D01*
X413107Y17407D01*
X413514Y17982D01*
X413824Y18549D01*
X414039Y19109D01*
X414157Y19662D01*
X414179Y20207D01*
X414106Y20745D01*
X413937Y21276D01*
X413671Y21799D01*
X413310Y22316D01*
X412853Y22824D01*
X416230Y24836D01*
X416964Y24114D01*
D02*
G37*
G36*
X376022Y22090D02*
X375566Y21580D01*
X375194Y21044D01*
X374906Y20484D01*
X374701Y19898D01*
X374581Y19287D01*
X374544Y18651D01*
X374591Y17989D01*
X374723Y17303D01*
X374938Y16591D01*
X375236Y15855D01*
X365321Y19713D01*
X366315Y20150D01*
X368988Y21502D01*
X369775Y21966D01*
X371194Y22915D01*
X371825Y23399D01*
X372931Y24388D01*
X376022Y22090D01*
D02*
G37*
G36*
X327290Y19814D02*
X326868Y19343D01*
X326491Y18821D01*
X326160Y18247D01*
X325874Y17622D01*
X325634Y16945D01*
X325440Y16216D01*
X325291Y15437D01*
X325188Y14606D01*
X325131Y13723D01*
X325120Y12789D01*
X317563Y20320D01*
X318498Y20334D01*
X320214Y20500D01*
X320994Y20650D01*
X321722Y20846D01*
X322399Y21087D01*
X323025Y21373D01*
X323599Y21705D01*
X324121Y22082D01*
X324591Y22504D01*
X327290Y19814D01*
D02*
G37*
G36*
X463268Y-3325D02*
X463790Y-3702D01*
X464364Y-4034D01*
X464990Y-4320D01*
X465667Y-4560D01*
X466395Y-4755D01*
X467175Y-4905D01*
X468006Y-5009D01*
X468889Y-5067D01*
X469824Y-5080D01*
X462280Y-12624D01*
X462267Y-11689D01*
X462105Y-9975D01*
X461955Y-9195D01*
X461760Y-8467D01*
X461520Y-7789D01*
X461234Y-7164D01*
X460902Y-6590D01*
X460525Y-6068D01*
X460103Y-5597D01*
X462797Y-2903D01*
X463268Y-3325D01*
D02*
G37*
G36*
X327297Y-5597D02*
X326875Y-6068D01*
X326498Y-6590D01*
X326166Y-7164D01*
X325880Y-7789D01*
X325640Y-8467D01*
X325445Y-9195D01*
X325295Y-9975D01*
X325191Y-10806D01*
X325133Y-11689D01*
X325120Y-12624D01*
X317576Y-5080D01*
X318511Y-5067D01*
X320225Y-4905D01*
X321005Y-4755D01*
X321734Y-4560D01*
X322411Y-4320D01*
X323036Y-4034D01*
X323610Y-3702D01*
X324132Y-3325D01*
X324603Y-2903D01*
X327297Y-5597D01*
D02*
G37*
G36*
X240552Y31501D02*
X240446Y31413D01*
X240353Y31266D01*
X240272Y31061D01*
X240204Y30796D01*
X240148Y30473D01*
X240105Y30092D01*
X240055Y29152D01*
X240049Y28594D01*
X236239D01*
X236234Y29152D01*
X236112Y30796D01*
X236056Y31061D01*
X235990Y31266D01*
X235914Y31413D01*
X235827Y31501D01*
X235730Y31530D01*
X240669D01*
X240552Y31501D01*
D02*
G37*
G36*
X288562Y31492D02*
X288466Y31378D01*
X288382Y31188D01*
X288308Y30921D01*
X288246Y30578D01*
X288195Y30159D01*
X288128Y29092D01*
X288105Y27720D01*
X284295D01*
X284289Y28444D01*
X284154Y30578D01*
X284092Y30921D01*
X284018Y31188D01*
X283934Y31378D01*
X283838Y31492D01*
X283731Y31530D01*
X288669D01*
X288562Y31492D01*
D02*
G37*
G36*
X271553Y31520D02*
X271229Y31403D01*
X270944Y31209D01*
X270696Y30940D01*
X270486Y30594D01*
X270315Y30172D01*
X270182Y29673D01*
X270086Y29099D01*
X270029Y28448D01*
X270010Y27720D01*
X266200D01*
X267731Y31530D01*
X271915Y31561D01*
X271553Y31520D01*
D02*
G37*
G36*
X264562Y31492D02*
X264466Y31378D01*
X264382Y31188D01*
X264308Y30921D01*
X264246Y30578D01*
X264195Y30159D01*
X264128Y29092D01*
X264105Y27720D01*
X260295D01*
X260289Y28444D01*
X260154Y30578D01*
X260092Y30921D01*
X260018Y31188D01*
X259934Y31378D01*
X259838Y31492D01*
X259730Y31530D01*
X264669D01*
X264562Y31492D01*
D02*
G37*
G36*
X248562D02*
X248466Y31378D01*
X248382Y31188D01*
X248308Y30921D01*
X248246Y30578D01*
X248195Y30159D01*
X248128Y29092D01*
X248105Y27720D01*
X244295D01*
X244289Y28444D01*
X244154Y30578D01*
X244092Y30921D01*
X244018Y31188D01*
X243934Y31378D01*
X243838Y31492D01*
X243731Y31530D01*
X248669D01*
X248562Y31492D01*
D02*
G37*
G36*
X226572Y17585D02*
X226202Y17178D01*
X225839Y16706D01*
X225485Y16170D01*
X225138Y15567D01*
X224799Y14900D01*
X224144Y13370D01*
X223829Y12507D01*
X223221Y10586D01*
X218160Y19977D01*
X218969Y19758D01*
X219745Y19612D01*
X220486Y19541D01*
X221193Y19544D01*
X221866Y19621D01*
X222504Y19772D01*
X223109Y19997D01*
X223679Y20297D01*
X224215Y20670D01*
X224717Y21118D01*
X226572Y17585D01*
D02*
G37*
G36*
X201172D02*
X200802Y17178D01*
X200439Y16706D01*
X200085Y16170D01*
X199738Y15567D01*
X199399Y14900D01*
X198745Y13370D01*
X198429Y12507D01*
X197821Y10586D01*
X192760Y19977D01*
X193569Y19758D01*
X194345Y19612D01*
X195086Y19541D01*
X195793Y19544D01*
X196465Y19621D01*
X197104Y19772D01*
X197708Y19997D01*
X198279Y20297D01*
X198815Y20670D01*
X199317Y21118D01*
X201172Y17585D01*
D02*
G37*
G36*
X247547Y22824D02*
X247090Y22316D01*
X246729Y21799D01*
X246463Y21276D01*
X246294Y20745D01*
X246220Y20207D01*
X246243Y19662D01*
X246361Y19109D01*
X246576Y18549D01*
X246886Y17982D01*
X247292Y17407D01*
X237308Y19190D01*
X237945Y19597D01*
X239924Y21028D01*
X241296Y22157D01*
X243436Y24114D01*
X244170Y24836D01*
X247547Y22824D01*
D02*
G37*
G36*
X270010Y24135D02*
X270039Y23548D01*
X270127Y22935D01*
X270274Y22294D01*
X270480Y21627D01*
X270744Y20933D01*
X271067Y20213D01*
X271889Y18692D01*
X272388Y17892D01*
X272946Y17065D01*
X262461Y19032D01*
X263171Y19541D01*
X263807Y20067D01*
X264368Y20609D01*
X264854Y21168D01*
X265265Y21744D01*
X265602Y22337D01*
X265863Y22947D01*
X266050Y23573D01*
X266163Y24216D01*
X266200Y24876D01*
X270010Y24135D01*
D02*
G37*
G36*
X285468Y-3325D02*
X285990Y-3702D01*
X286564Y-4034D01*
X287190Y-4320D01*
X287866Y-4560D01*
X288595Y-4755D01*
X289375Y-4905D01*
X290206Y-5009D01*
X291089Y-5067D01*
X292024Y-5080D01*
X284480Y-12624D01*
X284467Y-11689D01*
X284305Y-9975D01*
X284155Y-9195D01*
X283960Y-8467D01*
X283720Y-7789D01*
X283434Y-7164D01*
X283102Y-6590D01*
X282725Y-6068D01*
X282303Y-5597D01*
X284997Y-2903D01*
X285468Y-3325D01*
D02*
G37*
G36*
X251097Y-5597D02*
X250675Y-6068D01*
X250298Y-6590D01*
X249966Y-7164D01*
X249680Y-7789D01*
X249440Y-8467D01*
X249245Y-9195D01*
X249095Y-9975D01*
X248991Y-10806D01*
X248933Y-11689D01*
X248920Y-12624D01*
X241376Y-5080D01*
X242311Y-5067D01*
X244025Y-4905D01*
X244805Y-4755D01*
X245534Y-4560D01*
X246210Y-4320D01*
X246836Y-4034D01*
X247410Y-3702D01*
X247932Y-3325D01*
X248403Y-2903D01*
X251097Y-5597D01*
D02*
G37*
D13*
X486200Y41500D02*
D03*
Y85500D02*
D03*
X478200Y41500D02*
D03*
Y85500D02*
D03*
X470200Y41500D02*
D03*
Y85500D02*
D03*
X462200Y41500D02*
D03*
Y85500D02*
D03*
X454200Y41500D02*
D03*
Y85500D02*
D03*
X446200Y41500D02*
D03*
Y85500D02*
D03*
X438200Y41500D02*
D03*
Y85500D02*
D03*
X430200Y41500D02*
D03*
Y85500D02*
D03*
X422200Y41500D02*
D03*
Y85500D02*
D03*
X414200Y41500D02*
D03*
Y85500D02*
D03*
X406200Y41500D02*
D03*
Y85500D02*
D03*
X398200Y41500D02*
D03*
Y85500D02*
D03*
X390200Y41500D02*
D03*
Y85500D02*
D03*
X382200Y41500D02*
D03*
Y85500D02*
D03*
X374200Y41500D02*
D03*
Y85500D02*
D03*
X366200Y41500D02*
D03*
Y85500D02*
D03*
X358200Y41500D02*
D03*
Y85500D02*
D03*
X350200Y41500D02*
D03*
Y85500D02*
D03*
X342200Y41500D02*
D03*
Y85500D02*
D03*
X334200Y41500D02*
D03*
Y85500D02*
D03*
X326200Y41500D02*
D03*
Y85500D02*
D03*
X318200Y41500D02*
D03*
Y85500D02*
D03*
X310200Y41500D02*
D03*
Y85500D02*
D03*
X302200Y41500D02*
D03*
Y85500D02*
D03*
X294200Y41500D02*
D03*
Y85500D02*
D03*
X286200Y41500D02*
D03*
Y85500D02*
D03*
X278200Y41500D02*
D03*
Y85500D02*
D03*
X270200Y41500D02*
D03*
Y85500D02*
D03*
X262200Y41500D02*
D03*
Y85500D02*
D03*
X254200Y41500D02*
D03*
Y85500D02*
D03*
X246200Y41500D02*
D03*
Y85500D02*
D03*
X238200Y41500D02*
D03*
Y85500D02*
D03*
X230200Y41500D02*
D03*
Y85500D02*
D03*
X222200Y41500D02*
D03*
Y85500D02*
D03*
X214200Y41500D02*
D03*
Y85500D02*
D03*
X206200Y41500D02*
D03*
Y85500D02*
D03*
X198200Y41500D02*
D03*
Y85500D02*
D03*
X190200Y41500D02*
D03*
Y85500D02*
D03*
X182200Y41500D02*
D03*
Y85500D02*
D03*
X174200Y41500D02*
D03*
Y85500D02*
D03*
D21*
X333760Y41060D02*
X334200Y41500D01*
X317500Y12718D02*
X333760Y28978D01*
Y41060D01*
X342200Y13400D02*
Y41500D01*
Y13400D02*
X342900Y12700D01*
X357759Y12652D02*
Y34771D01*
X446795Y29455D02*
X458290Y17960D01*
X446200Y41500D02*
X446795Y40905D01*
Y29455D02*
Y40905D01*
X458290Y-1090D02*
Y17960D01*
X214068Y29918D02*
Y35068D01*
X204451Y20301D02*
X214068Y29918D01*
X201194Y20301D02*
X204451D01*
X193593Y12700D02*
X201194Y20301D01*
X190500Y12700D02*
X193593D01*
X214068Y35068D02*
X214200Y35200D01*
X238144Y41444D02*
X238200Y41500D01*
X238144Y28594D02*
Y41444D01*
X232655Y26362D02*
X235912D01*
X238144Y28594D01*
X218993Y12700D02*
X232655Y26362D01*
X215900Y12700D02*
X218993D01*
X254200Y200D02*
Y16200D01*
X241300Y-12700D02*
X254200Y200D01*
Y16200D02*
X262200Y24200D01*
X279400Y0D02*
Y19050D01*
X286200Y25850D02*
Y41500D01*
X279400Y19050D02*
X286200Y25850D01*
X279400Y0D02*
X292100Y-12700D01*
X442313Y-10513D02*
Y-4163D01*
X432200Y5950D02*
Y33013D01*
X442313Y-10513D02*
X444500Y-12700D01*
X432200Y5950D02*
X442313Y-4163D01*
X430200Y35013D02*
X432200Y33013D01*
X430200Y35013D02*
Y35200D01*
X241714Y13113D02*
Y19685D01*
X241300Y12700D02*
X241714Y13113D01*
X246200Y24172D02*
Y41500D01*
X241714Y19685D02*
X246200Y24172D01*
X390200Y34000D02*
Y41500D01*
Y34000D02*
X392779Y31421D01*
Y13621D02*
Y31421D01*
Y13621D02*
X393700Y12700D01*
X317500Y-12700D02*
X331192Y992D01*
X346100D01*
X357759Y12652D01*
Y34771D02*
X358192Y35204D01*
X262200Y24200D02*
Y41500D01*
X458290Y-1090D02*
X469900Y-12700D01*
X268105Y14105D02*
Y32918D01*
X266700Y12700D02*
X268105Y14105D01*
X270200Y35013D02*
Y35200D01*
X268105Y32918D02*
X270200Y35013D01*
X370487Y19250D02*
X382068Y30831D01*
X370487Y14887D02*
Y19250D01*
X368300Y12700D02*
X370487Y14887D01*
X382068Y35068D02*
X382200Y35200D01*
X382068Y30831D02*
Y35068D01*
X418686Y13113D02*
Y19685D01*
Y13113D02*
X419100Y12700D01*
X414200Y24172D02*
Y41500D01*
Y24172D02*
X418686Y19685D01*
X330200Y113200D02*
Y133350D01*
Y113200D02*
X342200Y101200D01*
Y92200D02*
Y101200D01*
X330200Y133350D02*
X342900Y146050D01*
X431050Y107200D02*
X444500Y120650D01*
X416200Y107200D02*
X431050D01*
X406795Y86095D02*
Y97795D01*
X416200Y107200D01*
X190500Y146050D02*
X203200Y133350D01*
Y113200D02*
X214200Y102200D01*
X203200Y113200D02*
Y133350D01*
X214200Y92200D02*
Y102200D01*
X416719Y120650D02*
X419100D01*
X390795Y94726D02*
X416719Y120650D01*
X390795Y86095D02*
Y94726D01*
X366331Y85631D02*
Y98331D01*
X381200Y133550D02*
X393700Y146050D01*
X366331Y98331D02*
X381200Y113200D01*
Y133550D01*
X305200Y116200D02*
Y133750D01*
X280269Y104200D02*
X293200D01*
X270795Y94726D02*
X280269Y104200D01*
X270795Y86095D02*
Y94726D01*
X293200Y104200D02*
X305200Y116200D01*
X297025Y99200D02*
X317500Y119675D01*
Y120650D01*
X238331Y85631D02*
Y98331D01*
X241300Y146050D02*
X254200Y133150D01*
Y114200D02*
Y133150D01*
X238331Y98331D02*
X254200Y114200D01*
X384246Y108551D02*
X393700Y118004D01*
Y120650D01*
X420269Y100200D02*
X449450D01*
X469900Y120650D01*
X262795Y97626D02*
X276390Y111221D01*
X292100Y120650D02*
X292100D01*
X282671Y111221D02*
X292100Y120650D01*
X276390Y111221D02*
X282671D01*
X356200Y95000D02*
Y133950D01*
X368300Y146050D01*
X222200Y102200D02*
X228200Y108200D01*
X215900Y146050D02*
X228200Y133750D01*
Y108200D02*
Y133750D01*
X270200Y85500D02*
X270795Y86095D01*
X358200Y92200D02*
Y93000D01*
X356200Y95000D02*
X358200Y93000D01*
X406200Y85500D02*
X406795Y86095D01*
X222200Y85500D02*
Y102200D01*
X390200Y85500D02*
X390795Y86095D01*
X366200Y85500D02*
X366331Y85631D01*
X286200Y92200D02*
X286795Y92795D01*
Y95795D01*
X290200Y99200D01*
X297025D01*
X238200Y85500D02*
X238331Y85631D01*
X382200Y85500D02*
Y93000D01*
X384246Y95047D01*
Y108551D01*
X414200Y85500D02*
X414795Y86095D01*
Y94726D01*
X420269Y100200D01*
X262200Y85500D02*
X262795Y86095D01*
Y97626D01*
X305200Y133750D02*
X317500Y146050D01*
D22*
X125100Y78450D02*
D03*
X596500D02*
D03*
D23*
X114300Y44450D02*
D03*
X585700D02*
D03*
D24*
X74700D02*
D03*
X546100D02*
D03*
D25*
X0Y234950D02*
D03*
X660400D02*
D03*
Y19050D02*
D03*
X0D02*
D03*
D26*
X190500Y-12700D02*
D03*
X215900D02*
D03*
X241300D02*
D03*
X266700D02*
D03*
X292100D02*
D03*
X317500D02*
D03*
X342900D02*
D03*
X368300D02*
D03*
X393700D02*
D03*
X419100D02*
D03*
X444500D02*
D03*
X469900D02*
D03*
X190500Y12700D02*
D03*
X215900D02*
D03*
X241300D02*
D03*
X266700D02*
D03*
X292100D02*
D03*
X317500D02*
D03*
X342900D02*
D03*
X368300D02*
D03*
X393700D02*
D03*
X419100D02*
D03*
X444500D02*
D03*
X469900D02*
D03*
X190500Y120650D02*
D03*
X215900D02*
D03*
X241300D02*
D03*
X266700D02*
D03*
X292100D02*
D03*
X317500D02*
D03*
X342900D02*
D03*
X368300D02*
D03*
X393700D02*
D03*
X419100D02*
D03*
X444500D02*
D03*
X469900D02*
D03*
X190500Y146050D02*
D03*
X215900D02*
D03*
X241300D02*
D03*
X266700D02*
D03*
X292100D02*
D03*
X317500D02*
D03*
X342900D02*
D03*
X368300D02*
D03*
X393700D02*
D03*
X419100D02*
D03*
X444500D02*
D03*
X469900D02*
D03*
D27*
X222200Y41500D02*
D03*
X350200D02*
D03*
X206200D02*
D03*
X190200D02*
D03*
X278200D02*
D03*
X302200D02*
D03*
X182200D02*
D03*
X326200D02*
D03*
X294200D02*
D03*
X254200D02*
D03*
X174200D02*
D03*
X230200D02*
D03*
X198200D02*
D03*
X366200D02*
D03*
X374200D02*
D03*
X438200D02*
D03*
X406200D02*
D03*
X422200D02*
D03*
X398024Y41675D02*
D03*
X486200Y41500D02*
D03*
X454200D02*
D03*
X278200Y85500D02*
D03*
X246200D02*
D03*
X350200D02*
D03*
X302200D02*
D03*
X334200D02*
D03*
X454200D02*
D03*
X254200D02*
D03*
X422200D02*
D03*
X438376Y85324D02*
D03*
X462200Y85500D02*
D03*
X430200D02*
D03*
X398200D02*
D03*
X374200D02*
D03*
X326200D02*
D03*
X294200D02*
D03*
X310200D02*
D03*
X318200D02*
D03*
X446200D02*
D03*
X470200D02*
D03*
X486200D02*
D03*
X478200D02*
D03*
X230200D02*
D03*
X206200D02*
D03*
X174200D02*
D03*
X190200Y57200D02*
D03*
X470200Y70200D02*
D03*
D28*
X647700Y139700D02*
D03*
X679450Y76200D02*
D03*
X615950Y203200D02*
D03*
X584200Y139700D02*
D03*
X615950Y76200D02*
D03*
X584200Y12700D02*
D03*
X552450Y203200D02*
D03*
X520700Y139700D02*
D03*
X552450Y76200D02*
D03*
X520700Y12700D02*
D03*
X488950Y203200D02*
D03*
X425450D02*
D03*
X361950D02*
D03*
X298450D02*
D03*
X234950D02*
D03*
X171450D02*
D03*
X139700Y139700D02*
D03*
Y12700D02*
D03*
X107950Y203200D02*
D03*
X76200Y139700D02*
D03*
X107950Y76200D02*
D03*
X76200Y12700D02*
D03*
X44450Y203200D02*
D03*
X12700Y139700D02*
D03*
X44450Y76200D02*
D03*
M02*
