M48
;Layer_Color=9474304
;FILE_FORMAT=4:4
METRIC,LZ
;TYPE=PLATED
T01F00S00C0.3000
T02F00S00C0.3048
T03F00S00C1.0160
T04F00S00C1.6000
T05F00S00C1.8900
;TYPE=NON_PLATED
T06F00S00C1.8600
T07F00S00C3.4000
%
T01
X-00147999Y-0031115
X-0014
X-00132
X-00132Y-0023495
X-0014
X-00148
X-0013433Y-00127
X-0012417
X-0011401
X-0032385Y-0006096
X-00020001Y-0023495
X-00012
X-00012Y-0031115
X-0002
X00004001
X00012
X00028001
X00036
X00132001
X0014
X00148
X00147999Y-0023495
X0014
X00132
X0012954Y-00127
X0011938
X0010922
X003261Y-0006096
X003085Y000352
X-003065Y00034925
T02
X-002794Y-0034925
X-002032
X-00127
X-000508
X-000889Y-0027305
X-001651
X-002413
X-003175
X-002794Y-0019685
X-002032
X-00127
X-000508
X-000889Y-0012065
X-001651
X-002413
X-002032Y-0004445
X-000508
X-003556
Y-0019685
X000254
X001016
X001778
X00254
X002921Y-0012065
X002159
X00254Y-0004445
X001778
X000635Y-0012065
X-000127
Y-0027305
X000635
X001397
X002159
X002921
X00254Y-0034925
X001778
X001016
X000254
X000635Y0003175
X001397
X-000127
X-000889
X-001651
X-002413
X-003175
T03
X-003302Y-0026035
Y-0017145
X-0027305Y-000889
X002753
X003302Y-0017145
Y-0026035
Y0
X002286Y000381
X00254Y0010795
X000551Y0012065
X000297
X-0002745Y0012065
X-0005285
X-00254Y0010795
X-0022635Y000381
X-003302Y0
T04
X-0005715Y-0002935
X-0002315Y-0002935
X000254Y-0002935
X000594
Y0006985
X000254
X-0002315Y0006985
X-0005715Y0006985
T05
X0012925Y000889
X0016885
X-00127
X-001666
T06
X0011845Y001229
X-001774
T07
X-003302Y-0032385
Y-0010795
X003302
Y-0032385
Y0010795
X-003302
M30
